<?xml version="1.0" encoding="utf-8"?>
<!-- Generator: Adobe Illustrator 26.3.0, SVG Export Plug-In . SVG Version: 6.00 Build 0)  -->
<svg version="1.1" xmlns="http://www.w3.org/2000/svg" xmlns:xlink="http://www.w3.org/1999/xlink" x="0px" y="0px"
	 viewBox="0 0 1920 1080" style="enable-background:new 0 0 1920 1080;" xml:space="preserve">
<style type="text/css">
	.st0{fill:#FDF0DC;}
	.st1{fill:#FCC1AC;}
	.st2{fill:#F7B385;}
	.st3{fill:#683C11;}
	.st4{font-family:'MVBoli';}
	.st5{font-size:95.7218px;}
	.st6{font-size:51.1178px;}
	.st7{fill:#61376B;}
	.st8{opacity:0.48;}
	.st9{fill:#84529C;}
	.st10{fill:none;stroke:#268E26;stroke-width:0.6294;stroke-linecap:round;stroke-linejoin:round;stroke-miterlimit:10;}
	.st11{fill:none;stroke:#FFFFFF;stroke-width:0.6294;stroke-linecap:round;stroke-linejoin:round;stroke-miterlimit:10;}
	.st12{fill:none;stroke:#0032D0;stroke-width:0.6294;stroke-linecap:round;stroke-linejoin:round;stroke-miterlimit:10;}
	.st13{fill:none;stroke:#D30000;stroke-width:0.6294;stroke-linecap:round;stroke-linejoin:round;stroke-miterlimit:10;}
	.st14{fill:#2B232D;}
	.st15{opacity:0.5;fill:#140716;}
	.st16{opacity:0.5;}
	.st17{fill:#140716;}
	.st18{opacity:0.5;fill:#61376B;}
	.st19{fill:#A62E3A;}
	.st20{opacity:0.35;fill:#A62E3A;}
	.st21{fill:#3D243E;}
	.st22{fill:#1D111E;}
	.st23{fill:#FABD3C;}
	.st24{opacity:0.9;fill:#FABD3C;}
	.st25{fill:#FFFFFF;}
	.st26{opacity:0.28;fill:#A62E3A;}
	
		.st27{opacity:0.5;fill:none;stroke:#1D111E;stroke-width:0.6781;stroke-linecap:round;stroke-linejoin:round;stroke-miterlimit:10;}
	.st28{opacity:0.65;fill:#A62E3A;}
	.st29{fill:url(#SVGID_1_);}
	.st30{fill:url(#SVGID_00000167359946814736880300000011371446254767171977_);}
	.st31{opacity:0.43;fill:#3D243E;}
	.st32{fill:#5E2600;}
	.st33{fill:#FFC33B;}
	.st34{fill:#FFD47D;}
	.st35{opacity:0.78;}
	.st36{fill:#E17022;}
	.st37{opacity:0.2;}
	.st38{fill:#E4640A;}
	.st39{font-family:'RussoOne-Regular';}
	.st40{font-size:85.2038px;}
	.st41{font-family:'Rubik-Regular';}
	.st42{font-size:54.719px;}
	.st43{fill:#6BB1A2;}
	.st44{opacity:0.3;fill:#583929;}
</style>
<g id="Layer_2">
	<g>
		<rect x="0" class="st0" width="1920" height="1080"/>
		<g>
			<g>
				<path class="st1" d="M1740.33,97.46c-6.38-3.68-13.25-5.71-20.35-3.19c-7.42,2.64-12.93,9.11-20.22,12.07
					c-5.58,2.27-11.96,2.37-17.22,5.3c-8.11,4.5-11.54,15.28-8.86,24.16c2.68,8.88,10.52,15.62,19.33,18.49
					c5.9,1.92,12.33,2.35,17.77,5.33c5.77,3.16,9.79,8.86,15.44,12.24c6.07,3.63,13.86,4.23,20.42,1.55
					c6.55-2.67,11.7-8.55,13.5-15.39c1.89-7.19,0.18-14.83-2.31-21.84c-2.49-7-5.76-13.79-7.14-21.09c-0.69-3.64-0.9-7.42-2.3-10.85
					C1746.99,100.8,1743.58,98.91,1740.33,97.46z"/>
				<path class="st1" d="M1689.28,54.62c-3.67,1.72-6.54,4.88-8.45,8.46c-1.91,3.58-2.93,7.57-3.59,11.57
					c-0.95,5.7-1.18,11.72,0.98,17.08c2.16,5.36,7.18,9.87,12.95,9.99c5.81,0.12,11.03-4.24,13.4-9.56
					c2.37-5.31,2.36-11.38,1.66-17.15c-0.54-4.45-1.5-8.95-3.81-12.8C1700.11,58.38,1697.39,53.8,1689.28,54.62"/>
				<path class="st1" d="M1752.04,39.67c-5.34-5.58-13.78-4.61-19.01-1.64c-5.23,2.98-9.01,8-11.86,13.29
					c-2.17,4.02-3.9,8.31-4.66,12.8c-0.76,4.5-0.52,9.23,1.16,13.47c1.11,2.8,2.93,5.45,5.59,6.87c4.24,2.26,9.51,0.93,13.78-1.29
					c8.33-4.33,14.92-11.92,18.04-20.78c1.33-3.8,2.05-7.85,1.66-11.86C1756.34,46.55,1754.79,42.6,1752.04,39.67z"/>
				<path class="st1" d="M1805.93,113.36c0.81,3.97-0.02,8.16-1.76,11.83c-1.74,3.67-4.34,6.86-7.15,9.77
					c-4.01,4.16-8.72,7.93-14.31,9.39c-5.59,1.46-12.21,0.11-15.74-4.46c-3.56-4.6-3.16-11.39-0.31-16.46
					c2.86-5.07,7.73-8.67,12.79-11.55c3.9-2.22,8.08-4.13,12.55-4.56C1796.46,106.89,1801.76,106.35,1805.93,113.36"/>
				<path class="st1" d="M1780.57,54.03c7.66,0.97,11.91,8.32,12.64,14.29s-1.06,12-3.61,17.44c-1.94,4.13-4.35,8.08-7.51,11.37
					c-3.16,3.29-7.1,5.91-11.51,7.09c-2.91,0.78-6.12,0.9-8.85-0.39c-4.34-2.05-6.41-7.09-7.17-11.83
					c-1.49-9.27,0.69-19.08,5.95-26.86c2.25-3.33,5.09-6.33,8.53-8.4C1772.48,54.67,1776.57,53.56,1780.57,54.03z"/>
			</g>
			<g>
				<path class="st1" d="M1802.79,221.54c-5.05,1.81-9.42,4.68-11.37,9.81c-2.03,5.37-1.03,11.48-2.82,16.94
					c-1.37,4.17-4.32,7.77-5.17,12.08c-1.32,6.63,3.06,13.62,9.26,16.31c6.2,2.69,13.64,1.51,19.4-2.04
					c3.85-2.38,7.12-5.75,11.34-7.37c4.48-1.72,9.54-1.27,14.09-2.82c4.88-1.66,8.89-5.72,10.49-10.62c1.6-4.9,0.76-10.54-2.2-14.77
					c-3.11-4.44-8.17-7.09-13.24-9.01c-5.07-1.92-10.39-3.29-15.1-5.97c-2.35-1.33-4.55-2.99-7.12-3.83
					C1807.79,219.41,1805.13,220.41,1802.79,221.54z"/>
				<path class="st1" d="M1754.9,229.74c-0.78,2.85-0.37,5.94,0.72,8.69c1.09,2.75,2.83,5.2,4.74,7.45
					c2.72,3.21,5.96,6.18,9.96,7.51c4,1.33,8.88,0.66,11.66-2.5c2.81-3.18,2.84-8.14,1-11.96c-1.84-3.82-5.21-6.68-8.75-9.01
					c-2.73-1.8-5.69-3.39-8.91-3.91C1762.1,225.49,1758.27,224.84,1754.9,229.74"/>
				<path class="st1" d="M1776.16,187.78c-5.62,0.34-9.06,5.49-9.87,9.8c-0.81,4.31,0.2,8.78,1.8,12.86
					c1.21,3.1,2.78,6.09,4.92,8.63c2.14,2.54,4.89,4.64,8.04,5.7c2.08,0.71,4.41,0.94,6.46,0.13c3.26-1.29,5-4.86,5.78-8.27
					c1.52-6.68,0.41-13.92-3.05-19.83c-1.48-2.53-3.4-4.84-5.81-6.52C1782.02,188.63,1779.09,187.63,1776.16,187.78z"/>
				<path class="st1" d="M1842.56,192.54c2.59,1.42,4.53,3.86,5.75,6.55c1.22,2.69,1.77,5.64,2.06,8.59
					c0.42,4.19,0.3,8.59-1.52,12.38c-1.82,3.8-5.69,6.84-9.9,6.65c-4.24-0.19-7.83-3.61-9.3-7.59s-1.18-8.39-0.4-12.56
					c0.6-3.21,1.52-6.44,3.38-9.13C1834.5,194.76,1836.69,191.56,1842.56,192.54"/>
				<path class="st1" d="M1797.61,178.68c4.15-3.81,10.24-2.7,13.91-0.29c3.66,2.41,6.17,6.24,8,10.23
					c1.39,3.02,2.45,6.23,2.79,9.54c0.34,3.31-0.06,6.74-1.48,9.75c-0.94,1.99-2.39,3.83-4.39,4.74c-3.19,1.45-6.97,0.22-9.96-1.59
					c-5.86-3.55-10.29-9.38-12.14-15.97c-0.79-2.82-1.12-5.81-0.65-8.71C1794.15,183.48,1795.46,180.68,1797.61,178.68z"/>
			</g>
		</g>
		<g>
			<g>
				<path class="st1" d="M99.85,975.43c-6.26,0.84-11.99,3.05-15.49,8.47c-3.66,5.67-4.02,12.95-7.43,18.78
					c-2.61,4.46-6.88,7.87-8.93,12.61c-3.15,7.3,0.15,16.41,6.62,21.04c6.46,4.63,15.31,5.11,22.81,2.45
					c5.01-1.78,9.61-4.85,14.86-5.68c5.58-0.87,11.28,0.9,16.89,0.24c6.03-0.71,11.63-4.38,14.68-9.62
					c3.05-5.24,3.48-11.93,1.12-17.52c-2.48-5.87-7.64-10.17-12.99-13.63c-5.35-3.46-11.13-6.35-15.88-10.59
					c-2.37-2.11-4.49-4.57-7.24-6.17C106.12,974.22,102.82,974.72,99.85,975.43z"/>
				<path class="st1" d="M42.76,973.04c-1.6,3.09-1.89,6.74-1.32,10.17s1.97,6.67,3.61,9.74c2.34,4.37,5.33,8.58,9.6,11.09
					c4.27,2.51,10.04,2.95,14.03,0.01c4.01-2.96,5.28-8.66,4.11-13.5s-4.35-8.96-7.84-12.52c-2.69-2.74-5.7-5.3-9.28-6.7
					C52.09,969.92,47.85,968.23,42.76,973.04"/>
				<path class="st1" d="M77.58,930.05c-6.55-1-11.77,4.07-13.77,8.83c-2,4.76-1.94,10.14-1.1,15.23c0.63,3.86,1.69,7.68,3.53,11.14
					c1.84,3.45,4.48,6.54,7.84,8.54c2.22,1.33,4.84,2.17,7.39,1.75c4.06-0.68,6.95-4.35,8.69-8.08c3.4-7.3,3.9-15.9,1.39-23.55
					c-1.08-3.28-2.71-6.41-5.07-8.93S80.98,930.6,77.58,930.05z"/>
				<path class="st1" d="M152.73,951.92c2.63,2.28,4.25,5.56,4.99,8.96c0.74,3.4,0.64,6.93,0.25,10.38
					c-0.55,4.92-1.77,9.95-4.81,13.86c-3.04,3.91-8.23,6.46-13.02,5.21c-4.82-1.26-8.11-6.09-8.82-11.02
					c-0.71-4.93,0.72-9.94,2.64-14.53c1.49-3.55,3.33-7.03,6.14-9.66C142.92,952.48,146.23,949.34,152.73,951.92"/>
				<path class="st1" d="M104.47,924.88c5.71-3.35,12.44-0.58,16.06,3.1c3.62,3.68,5.55,8.7,6.67,13.74
					c0.85,3.82,1.27,7.76,0.85,11.65c-0.43,3.89-1.74,7.73-4.11,10.84c-1.57,2.05-3.69,3.81-6.22,4.36
					c-4.02,0.87-8.06-1.46-11.06-4.29c-5.86-5.52-9.52-13.32-10.01-21.36c-0.21-3.44,0.15-6.96,1.4-10.17
					C99.31,929.55,101.51,926.65,104.47,924.88z"/>
			</g>
			<g>
				<path class="st1" d="M222.25,846.38c7.03,2.52,13.11,6.51,15.81,13.65c2.82,7.47,1.43,15.98,3.92,23.57
					c1.91,5.8,6.01,10.81,7.2,16.8c1.83,9.22-4.26,18.95-12.88,22.7c-8.63,3.75-18.98,2.1-26.98-2.84c-5.35-3.3-9.91-8-15.78-10.26
					c-6.23-2.39-13.28-1.77-19.59-3.92c-6.79-2.31-12.36-7.96-14.59-14.78c-2.23-6.82-1.06-14.66,3.06-20.54
					c4.33-6.17,11.36-9.86,18.41-12.53c7.05-2.67,14.45-4.58,21-8.31c3.27-1.86,6.33-4.16,9.9-5.33
					C215.29,843.41,218.99,844.81,222.25,846.38z"/>
				<path class="st1" d="M288.87,857.79c1.08,3.97,0.52,8.26-1,12.09c-1.52,3.82-3.94,7.23-6.6,10.37
					c-3.79,4.47-8.3,8.6-13.86,10.45c-5.56,1.84-12.35,0.92-16.23-3.47c-3.9-4.42-3.95-11.32-1.4-16.64
					c2.56-5.32,7.25-9.29,12.18-12.53c3.8-2.5,7.91-4.71,12.4-5.44C278.86,851.87,284.19,850.97,288.87,857.79"/>
				<path class="st1" d="M259.29,799.42c7.82,0.47,12.61,7.64,13.73,13.63c1.13,6-0.28,12.21-2.51,17.9
					c-1.69,4.31-3.87,8.47-6.85,12.01c-2.98,3.54-6.8,6.45-11.18,7.93c-2.9,0.98-6.14,1.31-8.98,0.18
					c-4.53-1.79-6.96-6.75-8.04-11.5c-2.12-9.29-0.56-19.36,4.25-27.58c2.06-3.52,4.73-6.74,8.08-9.06
					C251.14,800.6,255.21,799.2,259.29,799.42z"/>
				<path class="st1" d="M166.93,806.04c-3.61,1.98-6.3,5.37-8,9.12c-1.7,3.75-2.46,7.85-2.87,11.95
					c-0.58,5.83-0.42,11.95,2.12,17.23c2.54,5.28,7.92,9.52,13.77,9.26c5.89-0.26,10.89-5.02,12.94-10.56
					c2.05-5.53,1.64-11.67,0.55-17.47c-0.84-4.47-2.11-8.96-4.7-12.7C178.14,809.13,175.09,804.67,166.93,806.04"/>
				<path class="st1" d="M229.46,786.76c-5.77-5.3-14.25-3.76-19.35-0.4c-5.1,3.36-8.59,8.69-11.13,14.24
					c-1.93,4.21-3.4,8.66-3.88,13.27c-0.47,4.6,0.09,9.37,2.06,13.56c1.31,2.77,3.32,5.33,6.11,6.59c4.44,2.01,9.69,0.31,13.86-2.21
					c8.15-4.93,14.32-13.05,16.89-22.22c1.1-3.93,1.56-8.08,0.9-12.11C234.27,793.44,232.45,789.54,229.46,786.76z"/>
			</g>
		</g>
		<g>
			<g>
				<path class="st1" d="M115.79,352.2c7.52-4.34,15.63-6.74,24-3.77c8.75,3.11,15.25,10.75,23.86,14.24
					c6.58,2.67,14.11,2.8,20.32,6.25c9.56,5.31,13.61,18.02,10.45,28.5c-3.16,10.47-12.41,18.42-22.81,21.81
					c-6.96,2.27-14.55,2.77-20.97,6.29c-6.81,3.73-11.55,10.45-18.21,14.44c-7.16,4.29-16.36,4.99-24.09,1.83
					c-7.73-3.15-13.81-10.09-15.93-18.16c-2.22-8.48-0.21-17.5,2.73-25.76c2.93-8.26,6.8-16.27,8.42-24.88
					c0.81-4.29,1.07-8.75,2.71-12.8C107.93,356.14,111.96,353.91,115.79,352.2z"/>
				<path class="st1" d="M176.02,301.66c4.33,2.03,7.72,5.76,9.97,9.98c2.25,4.22,3.45,8.93,4.24,13.65
					c1.12,6.72,1.39,13.83-1.15,20.15c-2.55,6.32-8.47,11.65-15.28,11.79c-6.86,0.14-13.02-5.01-15.81-11.27
					c-2.79-6.27-2.79-13.42-1.96-20.23c0.64-5.25,1.77-10.56,4.49-15.1C163.24,306.1,166.44,300.69,176.02,301.66"/>
				<path class="st1" d="M101.98,284.02c6.3-6.58,16.25-5.44,22.43-1.93c6.17,3.51,10.62,9.43,13.99,15.68
					c2.55,4.74,4.6,9.8,5.5,15.11c0.9,5.31,0.61,10.88-1.37,15.89c-1.31,3.31-3.45,6.43-6.59,8.11c-5,2.67-11.22,1.09-16.25-1.52
					c-9.83-5.11-17.6-14.06-21.28-24.51c-1.57-4.48-2.42-9.26-1.96-13.99C96.9,292.13,98.73,287.48,101.98,284.02z"/>
				<path class="st1" d="M38.4,370.95c-0.95,4.69,0.03,9.63,2.08,13.95c2.05,4.32,5.12,8.09,8.44,11.53
					c4.74,4.9,10.28,9.36,16.88,11.08c6.6,1.72,14.4,0.13,18.57-5.26c4.2-5.43,3.73-13.44,0.36-19.42
					c-3.37-5.98-9.12-10.23-15.08-13.62c-4.6-2.62-9.54-4.87-14.8-5.38C49.57,363.33,43.32,362.68,38.4,370.95"/>
				<path class="st1" d="M68.32,300.97c-9.04,1.14-14.05,9.82-14.91,16.86c-0.86,7.05,1.25,14.15,4.26,20.58
					c2.28,4.87,5.13,9.53,8.86,13.42c3.73,3.88,8.38,6.97,13.58,8.36c3.44,0.92,7.23,1.06,10.44-0.47
					c5.12-2.42,7.56-8.37,8.46-13.96c1.75-10.94-0.81-22.51-7.02-31.69c-2.66-3.93-6-7.46-10.07-9.91
					C77.86,301.72,73.03,300.41,68.32,300.97z"/>
			</g>
			<g>
				<path class="st1" d="M218.28,201.54c5.67,0.76,10.87,2.76,14.05,7.68c3.32,5.14,3.64,11.74,6.73,17.03
					c2.36,4.04,6.24,7.13,8.1,11.43c2.86,6.62-0.14,14.88-6,19.08c-5.86,4.2-13.89,4.63-20.68,2.22c-4.54-1.61-8.71-4.4-13.47-5.15
					c-5.06-0.79-10.23,0.81-15.31,0.22c-5.46-0.64-10.55-3.97-13.31-8.73c-2.77-4.75-3.15-10.82-1.01-15.89
					c2.25-5.32,6.93-9.22,11.78-12.36c4.85-3.14,10.09-5.76,14.4-9.6c2.15-1.92,4.07-4.14,6.56-5.59
					C212.59,200.44,215.59,200.89,218.28,201.54z"/>
				<path class="st1" d="M270.04,199.36c1.45,2.8,1.72,6.11,1.2,9.22c-0.52,3.11-1.79,6.05-3.27,8.83
					c-2.12,3.96-4.83,7.78-8.7,10.06c-3.87,2.28-9.11,2.68-12.72,0.01c-3.64-2.68-4.78-7.85-3.72-12.24s3.94-8.13,7.11-11.35
					c2.44-2.49,5.17-4.8,8.41-6.08C261.58,196.54,265.43,195.01,270.04,199.36"/>
				<path class="st1" d="M238.48,160.39c5.94-0.91,10.68,3.69,12.49,8.01c1.81,4.31,1.75,9.2,1,13.81c-0.57,3.5-1.54,6.97-3.2,10.1
					c-1.66,3.13-4.06,5.93-7.1,7.75c-2.01,1.2-4.39,1.97-6.7,1.58c-3.68-0.61-6.3-3.94-7.88-7.33c-3.08-6.62-3.54-14.42-1.26-21.35
					c0.98-2.97,2.46-5.81,4.6-8.09C232.56,162.58,235.39,160.88,238.48,160.39z"/>
				<path class="st1" d="M170.33,180.21c-2.38,2.07-3.86,5.04-4.53,8.12c-0.67,3.08-0.58,6.28-0.23,9.41
					c0.5,4.46,1.61,9.02,4.36,12.57c2.75,3.55,7.47,5.86,11.81,4.72c4.37-1.15,7.35-5.52,7.99-9.99c0.64-4.47-0.65-9.01-2.4-13.18
					c-1.35-3.21-3.02-6.38-5.57-8.76C179.23,180.72,176.22,177.88,170.33,180.21"/>
				<path class="st1" d="M214.09,155.7c-5.18-3.04-11.28-0.52-14.56,2.81c-3.28,3.34-5.04,7.89-6.05,12.46
					c-0.77,3.46-1.15,7.04-0.77,10.57c0.39,3.53,1.57,7.01,3.73,9.83c1.42,1.86,3.35,3.46,5.64,3.95c3.65,0.79,7.31-1.33,10.03-3.89
					c5.31-5.01,8.63-12.08,9.08-19.37c0.19-3.12-0.13-6.31-1.27-9.22C218.77,159.93,216.77,157.31,214.09,155.7z"/>
			</g>
		</g>
		<g>
			<g>
				<path class="st2" d="M599.57,141.55c-0.01,0-0.03,0-0.04,0c-8.7-0.15-17.72-0.63-26.79-1.43c-1.29-0.11-2.25-1.26-2.14-2.55
					c0.11-1.29,1.24-2.26,2.55-2.14c8.97,0.79,17.87,1.26,26.47,1.41c1.3,0.02,2.33,1.1,2.31,2.4
					C601.9,140.52,600.85,141.55,599.57,141.55z M626.23,140.98c-1.23,0-2.27-0.96-2.35-2.21c-0.08-1.3,0.91-2.42,2.2-2.49
					c6.68-0.41,13.36-1.04,19.84-1.87c2.16-0.27,4.31-0.58,6.46-0.91c1.29-0.2,2.49,0.68,2.69,1.97c0.2,1.28-0.68,2.49-1.97,2.68
					c-2.19,0.34-4.39,0.65-6.59,0.93c-6.59,0.84-13.36,1.48-20.15,1.9C626.33,140.98,626.28,140.98,626.23,140.98z M546.46,136.99
					c-0.11,0-0.23-0.01-0.35-0.02c-8.53-1.26-17.41-2.81-26.39-4.6c-1.28-0.25-2.1-1.49-1.85-2.77c0.26-1.27,1.49-2.11,2.77-1.85
					c8.91,1.78,17.71,3.31,26.16,4.56c1.29,0.19,2.17,1.39,1.98,2.67C548.61,136.15,547.61,136.99,546.46,136.99z M678.86,132.72
					c-1.04,0-2-0.7-2.27-1.75c-0.33-1.26,0.42-2.55,1.67-2.88c8.53-2.25,16.99-4.97,25.15-8.08c1.21-0.47,2.58,0.15,3.04,1.36
					c0.46,1.22-0.15,2.57-1.36,3.04c-8.32,3.17-16.94,5.94-25.63,8.24C679.26,132.7,679.06,132.72,678.86,132.72z M494.14,126.65
					c-0.18,0-0.37-0.02-0.55-0.07c-8.35-2.02-16.82-4.21-25.9-6.71c-1.25-0.34-1.99-1.64-1.65-2.89c0.34-1.25,1.64-1.98,2.89-1.64
					c9.03,2.49,17.45,4.67,25.75,6.68c1.26,0.31,2.04,1.58,1.73,2.84C496.16,125.93,495.2,126.65,494.14,126.65z M728.62,113.72
					c-0.85,0-1.68-0.47-2.1-1.28c-0.59-1.16-0.14-2.57,1.02-3.17c7.91-4.06,15.56-8.57,22.73-13.39c1.08-0.72,2.54-0.44,3.27,0.64
					c0.73,1.08,0.44,2.54-0.64,3.27c-7.32,4.93-15.13,9.53-23.21,13.68C729.35,113.64,728.98,113.72,728.62,113.72z M11.55,113.13
					c-0.63,0-1.25-0.25-1.72-0.74c-0.89-0.95-0.84-2.44,0.1-3.33c6.48-6.09,13.52-11.82,20.91-17.05c1.06-0.75,2.53-0.5,3.28,0.57
					c0.75,1.06,0.5,2.53-0.56,3.28c-7.22,5.1-14.08,10.69-20.4,16.63C12.71,112.92,12.13,113.13,11.55,113.13z M442.68,112.56
					c-0.22,0-0.45-0.03-0.68-0.1c-4.34-1.3-8.67-2.63-12.98-3.96c-4.18-1.29-8.36-2.6-12.54-3.92c-1.24-0.39-1.93-1.71-1.54-2.95
					c0.39-1.24,1.72-1.92,2.95-1.54c4.17,1.32,8.34,2.62,12.51,3.92c4.3,1.33,8.62,2.65,12.94,3.95c1.25,0.37,1.95,1.69,1.58,2.93
					C444.63,111.91,443.69,112.56,442.68,112.56z M391.77,96.6c-0.24,0-0.48-0.04-0.72-0.11c-8.47-2.7-16.93-5.41-25.41-8.07
					c-1.24-0.39-1.93-1.71-1.54-2.95c0.39-1.24,1.71-1.93,2.95-1.54c8.49,2.66,16.97,5.37,25.44,8.07c1.24,0.4,1.92,1.72,1.53,2.96
					C393.69,95.96,392.76,96.6,391.77,96.6z M772.71,83.93c-0.65,0-1.3-0.27-1.77-0.8c-0.86-0.97-0.77-2.46,0.21-3.32
					c6.68-5.88,12.89-12.19,18.47-18.74c0.84-0.99,2.33-1.11,3.32-0.27c0.99,0.84,1.11,2.33,0.27,3.32
					c-5.72,6.72-12.09,13.19-18.94,19.23C773.82,83.73,773.26,83.93,772.71,83.93z M54.94,82.37c-0.85,0-1.66-0.46-2.08-1.26
					c-0.61-1.15-0.17-2.57,0.98-3.18c7.78-4.11,16.04-7.85,24.53-11.12c1.21-0.47,2.58,0.14,3.04,1.35
					c0.47,1.21-0.14,2.58-1.35,3.04c-8.32,3.21-16.41,6.87-24.03,10.9C55.68,82.29,55.31,82.37,54.94,82.37z M340.83,80.71
					c-0.22,0-0.45-0.03-0.67-0.1c-9.16-2.73-17.54-5.12-25.6-7.31c-1.25-0.34-2-1.63-1.66-2.89c0.34-1.25,1.64-1.99,2.89-1.65
					c8.1,2.2,16.5,4.6,25.71,7.34c1.25,0.37,1.96,1.68,1.58,2.93C342.78,80.05,341.85,80.71,340.83,80.71z M289.33,66.8
					c-0.18,0-0.36-0.02-0.54-0.06c-8.9-2.1-17.65-3.98-25.98-5.57c-1.28-0.25-2.11-1.48-1.87-2.76c0.24-1.28,1.47-2.11,2.75-1.87
					c8.4,1.61,17.21,3.5,26.18,5.62c1.26,0.3,2.05,1.57,1.75,2.83C291.37,66.07,290.4,66.8,289.33,66.8z M104.58,63.12
					c-1.04,0-1.99-0.69-2.27-1.74c-0.34-1.26,0.41-2.55,1.66-2.88c8.48-2.28,17.32-4.2,26.28-5.71c1.28-0.22,2.5,0.65,2.71,1.93
					c0.22,1.28-0.65,2.5-1.93,2.71c-8.82,1.49-17.51,3.38-25.84,5.62C104.99,63.1,104.78,63.12,104.58,63.12z M236.94,56.86
					c-0.11,0-0.21-0.01-0.32-0.02c-6.82-0.94-13.65-1.72-20.28-2.32c-2.03-0.18-4.06-0.35-6.09-0.5c-1.3-0.1-2.27-1.22-2.17-2.52
					c0.1-1.3,1.23-2.28,2.52-2.17c2.06,0.15,4.12,0.32,6.17,0.51c6.71,0.61,13.6,1.4,20.5,2.34c1.29,0.18,2.19,1.37,2.01,2.65
					C239.1,56.01,238.1,56.86,236.94,56.86z M157.11,54.16c-1.21,0-2.24-0.93-2.34-2.16c-0.11-1.3,0.86-2.43,2.16-2.54
					c8.79-0.72,17.82-1.09,26.84-1.1c0,0,0,0,0,0c1.3,0,2.35,1.05,2.35,2.35c0,1.3-1.05,2.36-2.35,2.36
					c-8.89,0.02-17.79,0.38-26.46,1.09C157.24,54.16,157.17,54.16,157.11,54.16z M807.04,43.37c-0.42,0-0.84-0.11-1.22-0.34
					c-1.11-0.68-1.46-2.13-0.79-3.24c4.58-7.52,8.53-15.41,11.73-23.47c0.48-1.21,1.85-1.8,3.06-1.32c1.21,0.48,1.8,1.85,1.32,3.06
					c-3.3,8.3-7.37,16.44-12.08,24.18C808.61,42.97,807.83,43.37,807.04,43.37z"/>
			</g>
			<g>
				<path class="st2" d="M765.38,1059.23c-0.49,0-0.97-0.15-1.4-0.46c-1.06-0.77-1.3-2.26-0.53-3.32c2.99-4.12,6.2-8.17,9.52-12.05
					c0.86-1,2.36-1.11,3.36-0.26c1,0.86,1.11,2.36,0.26,3.36c-3.24,3.78-6.37,7.73-9.28,11.75
					C766.84,1058.89,766.11,1059.23,765.38,1059.23z M1484.75,1059.09c-4.77,0-9.63-0.05-14.46-0.15c-1.31-0.03-2.36-1.12-2.33-2.43
					c0.03-1.32,1.1-2.32,2.43-2.33c9.02,0.19,18.08,0.2,26.88,0.03c1.38-0.02,2.4,1.02,2.42,2.34c0.02,1.31-1.02,2.4-2.33,2.43
					C1493.21,1059.05,1488.97,1059.09,1484.75,1059.09z M1524.27,1057.9c-1.25,0-2.3-0.97-2.37-2.24c-0.08-1.31,0.92-2.44,2.23-2.52
					c8.96-0.55,17.97-1.3,26.78-2.23c1.31-0.15,2.48,0.81,2.62,2.12c0.14,1.31-0.81,2.48-2.12,2.62
					c-8.87,0.94-17.95,1.69-26.99,2.24C1524.37,1057.9,1524.32,1057.9,1524.27,1057.9z M1443.4,1057.86c-0.05,0-0.09,0-0.14,0
					c-8.86-0.52-17.94-1.21-26.98-2.06c-1.31-0.12-2.27-1.28-2.15-2.59c0.12-1.31,1.3-2.27,2.59-2.15
					c8.99,0.84,18.01,1.54,26.81,2.05c1.31,0.08,2.31,1.2,2.24,2.52C1445.7,1056.88,1444.65,1057.86,1443.4,1057.86z
					 M1389.69,1052.82c-0.1,0-0.2-0.01-0.3-0.02c-8.81-1.13-17.82-2.42-26.77-3.85c-1.3-0.21-2.18-1.43-1.98-2.73
					c0.21-1.3,1.42-2.18,2.73-1.98c8.91,1.42,17.87,2.71,26.63,3.83c1.3,0.17,2.23,1.36,2.06,2.66
					C1391.89,1051.95,1390.87,1052.82,1389.69,1052.82z M1577.91,1052.21c-1.16,0-2.17-0.84-2.35-2.02c-0.2-1.3,0.69-2.52,1.99-2.71
					c8.87-1.36,17.77-2.94,26.44-4.71c1.29-0.26,2.54,0.57,2.81,1.86c0.26,1.29-0.57,2.54-1.86,2.81
					c-8.75,1.78-17.72,3.38-26.67,4.75C1578.15,1052.2,1578.03,1052.21,1577.91,1052.21z M1336.42,1044.34
					c-0.15,0-0.3-0.01-0.45-0.04c-8.73-1.66-17.64-3.48-26.49-5.41c-1.28-0.28-2.1-1.55-1.82-2.83c0.28-1.28,1.55-2.1,2.83-1.82
					c8.81,1.93,17.68,3.74,26.37,5.39c1.29,0.24,2.14,1.49,1.89,2.78C1338.54,1043.54,1337.54,1044.34,1336.42,1044.34z
					 M1630.75,1041.43c-1.06,0-2.03-0.71-2.3-1.79c-0.33-1.27,0.44-2.57,1.71-2.9c8.61-2.22,17.29-4.72,25.79-7.44
					c1.25-0.41,2.59,0.29,2.99,1.54c0.4,1.25-0.29,2.59-1.55,2.99c-8.59,2.74-17.35,5.27-26.05,7.51
					C1631.15,1041.4,1630.95,1041.43,1630.75,1041.43z M1283.71,1032.82c-0.19,0-0.38-0.02-0.57-0.07
					c-4.9-1.21-9.79-2.45-14.67-3.72c-3.84-1-7.67-2.02-11.5-3.06c-1.27-0.34-2.02-1.65-1.68-2.92c0.34-1.27,1.65-2.01,2.92-1.68
					c3.82,1.03,7.63,2.05,11.46,3.05c4.86,1.27,9.72,2.5,14.6,3.7c1.28,0.31,2.06,1.6,1.74,2.88
					C1285.75,1032.1,1284.78,1032.82,1283.71,1032.82z M793.7,1028.16c-0.66,0-1.31-0.27-1.79-0.8c-0.87-0.99-0.78-2.49,0.21-3.36
					c6.7-5.92,13.96-11.53,21.57-16.67c1.09-0.73,2.57-0.45,3.3,0.64c0.74,1.09,0.45,2.57-0.64,3.31
					c-7.44,5.03-14.53,10.51-21.08,16.29C794.82,1027.96,794.26,1028.16,793.7,1028.16z M1682.14,1025.04
					c-0.96,0-1.86-0.58-2.22-1.53c-0.47-1.23,0.15-2.6,1.38-3.07c8.33-3.18,16.67-6.63,24.8-10.28c1.2-0.54,2.61,0,3.15,1.2
					c0.54,1.2,0,2.61-1.2,3.15c-8.21,3.68-16.64,7.17-25.05,10.38C1682.71,1024.99,1682.42,1025.04,1682.14,1025.04z
					 M1231.62,1018.8c-0.22,0-0.44-0.03-0.66-0.09c-8.64-2.48-17.28-5.01-25.91-7.56c-1.26-0.37-1.98-1.7-1.61-2.96
					c0.37-1.26,1.69-1.99,2.96-1.61c8.62,2.54,17.25,5.07,25.88,7.55c1.26,0.36,1.99,1.68,1.63,2.94
					C1233.61,1018.12,1232.65,1018.8,1231.62,1018.8z M1179.84,1003.61c-0.22,0-0.45-0.03-0.67-0.1
					c-10.11-2.97-18.34-5.35-25.9-7.49c-1.26-0.36-2-1.68-1.64-2.94c0.36-1.26,1.68-2,2.94-1.64c7.57,2.15,15.81,4.53,25.94,7.5
					c1.26,0.37,1.98,1.69,1.61,2.96C1181.82,1002.94,1180.87,1003.61,1179.84,1003.61z M1731.35,1002.98
					c-0.86,0-1.69-0.47-2.12-1.28c-0.61-1.17-0.15-2.6,1.02-3.21c7.93-4.12,15.82-8.51,23.44-13.05c1.13-0.67,2.59-0.3,3.26,0.82
					c0.67,1.13,0.3,2.59-0.83,3.26c-7.7,4.59-15.67,9.03-23.69,13.19C1732.09,1002.9,1731.72,1002.98,1731.35,1002.98z
					 M838.22,997.94c-0.86,0-1.69-0.47-2.12-1.29c-0.6-1.17-0.15-2.6,1.02-3.21c7.9-4.08,16.25-7.84,24.82-11.17
					c1.22-0.48,2.6,0.13,3.08,1.36c0.48,1.23-0.13,2.6-1.36,3.08c-8.42,3.27-16.61,6.96-24.36,10.97
					C838.97,997.86,838.59,997.94,838.22,997.94z M1127.91,988.97c-0.2,0-0.41-0.02-0.61-0.08c-9.24-2.44-17.77-4.59-26.1-6.56
					c-1.28-0.3-2.07-1.59-1.77-2.87c0.3-1.28,1.59-2.07,2.86-1.77c8.37,1.98,16.95,4.14,26.23,6.59c1.27,0.34,2.03,1.64,1.69,2.91
					C1129.93,988.27,1128.96,988.97,1127.91,988.97z M888.4,978.33c-1.04,0-1.99-0.68-2.29-1.73c-0.36-1.26,0.38-2.58,1.64-2.94
					c8.56-2.42,17.46-4.52,26.46-6.24c1.29-0.24,2.54,0.6,2.78,1.89c0.25,1.29-0.6,2.54-1.89,2.79c-8.86,1.69-17.63,3.76-26.06,6.14
					C888.83,978.3,888.61,978.33,888.4,978.33z M1075.4,976.61c-0.16,0-0.31-0.02-0.47-0.05c-9.04-1.82-17.94-3.41-26.45-4.75
					c-1.3-0.2-2.19-1.42-1.98-2.72c0.2-1.3,1.42-2.17,2.72-1.98c8.57,1.34,17.54,2.95,26.65,4.78c1.29,0.26,2.12,1.51,1.86,2.8
					C1077.5,975.83,1076.51,976.61,1075.4,976.61z M1777.65,975.35c-0.76,0-1.51-0.36-1.97-1.04c-0.74-1.09-0.46-2.57,0.63-3.31
					c7.41-5.05,14.7-10.37,21.67-15.8c1.04-0.81,2.53-0.62,3.34,0.42c0.81,1.04,0.62,2.53-0.42,3.34
					c-7.05,5.49-14.42,10.87-21.91,15.98C1778.58,975.22,1778.11,975.35,1777.65,975.35z M1022.11,968.34c-0.08,0-0.17,0-0.25-0.01
					c-5.09-0.53-10.21-0.99-15.2-1.35c-3.84-0.27-7.73-0.49-11.54-0.64c-1.31-0.05-2.34-1.16-2.28-2.47
					c0.05-1.31,1.18-2.35,2.47-2.28c3.86,0.16,7.8,0.37,11.69,0.65c5.05,0.36,10.21,0.82,15.36,1.36c1.31,0.14,2.26,1.31,2.12,2.62
					C1024.35,967.43,1023.32,968.34,1022.11,968.34z M941.33,968.14c-1.2,0-2.23-0.9-2.36-2.12c-0.14-1.31,0.8-2.48,2.11-2.62
					c8.91-0.97,18.02-1.61,27.09-1.92c1.36-0.03,2.41,0.99,2.46,2.3c0.04,1.31-0.99,2.41-2.3,2.46c-8.95,0.3-17.94,0.93-26.73,1.89
					C941.51,968.14,941.42,968.14,941.33,968.14z M1820.16,942.21c-0.66,0-1.31-0.27-1.78-0.8c-0.87-0.98-0.79-2.49,0.19-3.36
					c6.7-5.97,13.23-12.19,19.4-18.5c0.92-0.94,2.43-0.95,3.37-0.04c0.94,0.92,0.96,2.43,0.04,3.37
					c-6.25,6.38-12.85,12.68-19.64,18.72C1821.29,942.01,1820.72,942.21,1820.16,942.21z M1857.84,903.67
					c-0.54,0-1.09-0.19-1.54-0.56c-1-0.85-1.13-2.35-0.28-3.36c5.79-6.83,11.36-13.91,16.55-21.06c0.77-1.06,2.26-1.3,3.32-0.53
					c1.06,0.77,1.3,2.26,0.53,3.33c-5.27,7.24-10.91,14.42-16.77,21.34C1859.19,903.38,1858.52,903.67,1857.84,903.67z
					 M1889.51,860.06c-0.42,0-0.86-0.11-1.24-0.35c-1.12-0.69-1.47-2.16-0.78-3.27c4.68-7.61,9.08-15.47,13.1-23.35
					c0.6-1.17,2.03-1.63,3.2-1.04c1.17,0.6,1.64,2.03,1.04,3.2c-4.07,8-8.54,15.97-13.29,23.69
					C1891.09,859.65,1890.3,860.06,1889.51,860.06z"/>
			</g>
		</g>
	</g>
	<text transform="matrix(1 0 0 1 833.7528 209.5445)" class="st3 st4 st5">OOPS!</text>
</g>
<g id="Layer_1">
	<g>
		<g>
			<g>
				<text transform="matrix(1 0 0 1 380.1998 307.5327)" class="st3 st4 st6">The Page You Requested Could Not Be Found.</text>
			</g>
			<g>
			</g>
		</g>
	</g>
	<g>
		<g>
			<g>
				<g>
					<path class="st7" d="M1232.15,460.59c-1.32-6.78-10.94-22.82-16.96-26.2c-6.02-3.38-24.97-6.45-28.47-9.63
						c-8.36-7.58-13.08-22.93-1.8-23.39c10.57-0.43,19.31-9.87,19.71-13.73c0.4-3.85,3.76-13.41-17.92-31.03
						c6.08,14.08,7.43,23.35,3.57,32.29c-3.86,8.94-30.45,11.65-25.62,20.11c2.21,3.86,0.42,22.28,3.62,25.37
						c9.25,8.96,28.46,14.23,28.4,17.98c-0.06,3.74-4.83,20.6-11.52,20.84c-6.69,0.25-11.56-4.37-12.23-8.17
						c-0.68-3.81,0.81-9.77,7.35-11.17c-5.48-7.85-21.95-2.66-23.33,1.6c-1.38,4.26-0.27,21.76,7.04,27.95
						c7.31,6.19,15.42,4.22,24.95,5.15c9.39,0.92,14.05,7.33,22.39,2.93C1219.7,487.1,1233.95,469.85,1232.15,460.59z"/>
				</g>
				<g class="st8">
					<g>
						<path class="st9" d="M1232.15,460.59c-1.32-6.78-10.94-22.82-16.96-26.2c-0.38-0.21-0.81-0.42-1.28-0.63
							c0.28,1.57,1.08,3.08,2.1,4.35c1.45,1.81,3.28,3.29,4.75,5.08c3.7,4.5,4.87,10.76,3.89,16.51
							c-0.99,5.75-3.96,11.01-7.71,15.47c-3.37,4.01-8.01,7.68-13.23,7.3c5.66-7.76,7.5-18.16,4.85-27.39
							c-1.79,4.92-3.59,9.88-6.33,14.35c-2.73,4.47-6.49,8.46-11.27,10.6c-8.34,3.73-18.83,0.88-24.94-5.91
							c-5.11-5.69-7.19-13.67-6.4-21.31c-1.38,0.85-2.36,1.78-2.65,2.67c-1.38,4.26-0.27,21.76,7.04,27.95
							c7.31,6.19,15.42,4.22,24.95,5.15c9.39,0.92,14.05,7.33,22.39,2.93C1219.7,487.1,1233.95,469.85,1232.15,460.59z"/>
					</g>
					<g>
						<path class="st9" d="M1168.29,434.39c4.16,4.03,10.32,7.31,15.85,10.04c-2.21-1.8-4.38-3.65-6.47-5.61
							c-2.74-2.57-5.46-5.44-6.4-9.08c-1.15-4.48,0.62-9.3-0.38-13.82c-0.43-1.95-1.37-3.75-1.91-5.67
							c-0.54-1.92-0.64-4.13,0.49-5.77c1.51-2.2,4.52-2.58,7.05-3.43c3.46-1.16,6.49-3.57,8.41-6.68c0.09-0.15,0.16-0.32,0.25-0.47
							c-8.73,5.36-24.3,8.47-20.5,15.11C1166.88,412.88,1165.1,431.29,1168.29,434.39z"/>
					</g>
				</g>
			</g>
			<g>
				<g>
					<path class="st7" d="M698.59,595.9c1.18-5.99,9.77-20.16,15.15-23.15c5.38-2.99,17.73-6.89,20.86-9.69
						c7.47-6.7,11.72-17.89,1.64-18.29c-9.44-0.38-12.71-9.9-13.07-13.31c-0.36-3.4-3.04-16.32,16-27.42
						c-5.43,12.44-6.64,20.63-3.19,28.53c3.45,7.9,27.2,10.29,22.89,17.76c-1.97,3.41-0.38,19.68-3.23,22.42
						c-5.55,5.32-15.12,9.17-20.78,12.12c-2.77,1.44-2.54,7.67-2.52,8.76c0.05,3.31,2.24,13.2,8.22,13.41
						c5.97,0.22,10.33-3.86,10.93-7.22c0.6-3.36-0.72-8.63-6.57-9.86c4.9-6.94,19.61-2.35,20.84,1.41
						c1.24,3.76,0.24,19.22-6.29,24.69c-6.53,5.47-13.78,3.72-22.29,4.55c-8.39,0.81-12.55,6.48-20.01,2.59
						C709.71,619.32,696.98,604.08,698.59,595.9z"/>
				</g>
				<g class="st8">
					<g>
						<path class="st9" d="M698.59,595.9c1.18-5.99,9.77-20.16,15.15-23.15c0.34-0.19,0.72-0.37,1.15-0.56
							c-0.25,1.39-0.97,2.72-1.88,3.84c-1.3,1.6-2.93,2.9-4.25,4.49c-3.31,3.98-4.35,9.51-3.47,14.59
							c0.88,5.08,3.53,9.73,6.89,13.67c3.01,3.54,7.16,6.78,11.82,6.45c-5.05-6.85-6.7-16.05-4.33-24.2
							c1.6,4.35,3.21,8.73,5.65,12.68c2.44,3.95,5.8,7.48,10.07,9.37c7.45,3.3,16.82,0.78,22.28-5.22
							c4.57-5.03,6.42-12.07,5.72-18.83c1.23,0.75,2.11,1.57,2.37,2.36c1.24,3.76,0.24,19.22-6.29,24.69
							c-6.53,5.47-13.78,3.72-22.29,4.55c-8.39,0.81-12.55,6.48-20.01,2.59C709.71,619.32,696.98,604.08,698.59,595.9z"/>
					</g>
					<g>
						<path class="st9" d="M755.64,572.75c-3.72,3.56-9.22,6.45-14.16,8.87c1.98-1.59,3.92-3.23,5.78-4.95
							c2.45-2.27,4.88-4.81,5.72-8.02c1.03-3.96-0.55-8.22,0.34-12.21c0.39-1.72,1.22-3.31,1.71-5.01c0.48-1.7,0.57-3.65-0.44-5.1
							c-1.35-1.94-4.04-2.28-6.3-3.03c-3.09-1.03-5.8-3.15-7.51-5.9c-0.08-0.13-0.14-0.28-0.22-0.42
							c7.8,4.73,21.71,7.48,18.32,13.35C756.9,553.74,758.49,570.02,755.64,572.75z"/>
					</g>
				</g>
			</g>
		</g>
		<g>
			<g>
				<g>
					<g>
						<path class="st10" d="M694.28,853.6c0,0,0.7-3.82-0.54-5.95"/>
						<path class="st11" d="M693.17,854.02c0,0-0.6-4.59-3.16-5.08"/>
						<path class="st12" d="M691.82,854.14c0,0-1.27-3.88-3.84-3.55"/>
						<path class="st13" d="M696.09,854.34c0,0-0.42-4.88,2.11-6.31"/>
						<g>
							<path class="st14" d="M697.24,851.91l-6.84,1.64c0.27,1.11,6.76,27.29,29.92,40.09c15.2,8.39,33.81,8.96,55.32,1.68
								c64.22-21.74,143.19-3.94,143.98-3.76l1.58-6.86c-3.3-0.76-81.67-18.44-147.82,3.95c-19.54,6.61-36.22,6.23-49.61-1.14
								C703.34,876.26,697.3,852.15,697.24,851.91z"/>
						</g>
						<path class="st14" d="M690.39,853.55c0,0,0.01-0.8-0.87-1.46c1.8,0.37,1.83,0.73,1.83,0.73l0.7-2.19l0.73,1.73
							c0,0,1.49-2.49,2.92-2.91c-0.18,0.66,0,2.2,0,2.2l2.48-1.94c0,0-1.01,0.53-0.96,2.21s-0.71,2.52-1.17,2.67
							c-0.46,0.15-3.24,0.51-3.43,0.48C692.45,855.02,690.39,853.55,690.39,853.55z"/>
					</g>
					<path class="st15" d="M777.46,893.49c-21.51,7.28-40.12,6.72-55.32-1.69c-18.56-10.26-26.42-29.13-28.94-36.78
						c-0.26-0.81-0.47-1.48-0.62-2.01c-0.21-0.72-0.32-1.18-0.35-1.3c0,0,0-0.37-0.26-0.79l-0.62,1.9c0,0-0.02-0.11-0.28-0.25
						c-0.23-0.14-0.69-0.32-1.55-0.49c0.84,0.65,0.86,1.41,0.86,1.46c0.28,1.11,6.77,27.3,29.92,40.11
						c15.2,8.39,33.81,8.95,55.32,1.67c64.22-21.72,143.2-3.94,143.99-3.75l0.49-2.13C909.46,887.21,837.09,873.3,777.46,893.49z"/>
					<path class="st11" d="M678.49,836.95c0,0,4.4,1.03,7.62,6.16"/>
					<path class="st11" d="M687.65,832.7c0,0,0,6.82,1.87,9.75"/>
					<path class="st11" d="M697.38,833.03c0,0-4.3,4.4-4.21,9.18"/>
				</g>
				<g>
					<g>
						<path class="st14" d="M1138.61,895.02l-0.09-7.04c46.67-0.56,80.1-13.67,91.72-35.97c6.87-13.18,5.25-28.88-4.43-43.08
							c-22.74-33.37-77.38-3.97-77.93-3.67l-3.38-6.17c2.47-1.35,60.83-32.71,87.12,5.88c11.19,16.41,12.96,34.74,4.85,50.29
							C1228.94,869.77,1206.18,894.21,1138.61,895.02z"/>
					</g>
					<g class="st16">
						<path class="st17" d="M1232.65,861.41c-10.45,14.35-35.32,32.91-94.04,33.62l-0.09-7.04c0.7,0,1.41-0.02,2.09-0.04l0.05,4.43
							C1195.84,891.72,1221.13,875.31,1232.65,861.41z"/>
						<path class="st17" d="M1147.9,805.26l-3.39-6.17c0.28-0.14,1.23-0.65,2.74-1.39l2.69,4.93c0.56-0.3,55.2-29.69,77.93,3.68
							c9.69,14.2,11.29,29.9,4.43,43.08c-1.44,2.76-3.22,5.4-5.31,7.88c1.23-1.69,2.3-3.43,3.25-5.24
							c6.88-13.18,5.26-28.88-4.42-43.08C1203.08,775.57,1148.45,804.96,1147.9,805.26z"/>
					</g>
				</g>
			</g>
			<g>
				<g>
					<path class="st7" d="M1066.52,723.38c-4.01,17.89-27.58,23.68-96.15,22.64c-68.55,1.04-92.14-4.75-96.13-22.64
						c-3.98-23.03,5.73-48.55,21-76.66c4.64-8.55,8.25-17.36,11.05-25.75c2.2-6.63,3.92-13,5.21-18.73
						c0.83-3.52,1.46-6.81,2.01-9.78c0.35-2.08,0.67-3.98,0.93-5.7v-0.02c0.07-0.39,0.12-0.76,0.16-1.14
						c0.14-0.86,0.25-1.69,0.35-2.45c0.09-0.77,0.18-1.48,0.25-2.11c0.37-3.11,0.47-4.89,0.47-4.89l7.92-0.26l3.54-0.14l8.04-0.28
						l27.92-1c0-0.33-0.02-0.53-0.02-0.53l7.32,0.28l7.32-0.28c0,0-0.02,0.19-0.02,0.53l40.6,1.46l4.94,0.18h0.02l1.85,0.05
						c0,0,0.02,0.39,0.09,1.06v0.04c0.04,0.33,0.07,0.77,0.11,1.28c0.09,0.97,0.21,2.23,0.39,3.78c0.07,0.62,0.14,1.28,0.23,2.01
						c0.25,2.15,0.56,4.66,0.97,7.49v0.02c0.14,0.93,0.28,1.92,0.44,2.92c0.32,2.09,0.69,4.33,1.11,6.7
						c0.98,5.65,2.25,12.01,3.85,18.84c0.07,0.21,0.12,0.46,0.18,0.69c0.3,1.27,0.62,2.55,0.95,3.85c1.76,6.97,3.89,14.37,6.42,21.9
						C1048.78,673.37,1070.34,701.28,1066.52,723.38z"/>
					<path class="st7" d="M870.27,486.37c-3.03-7.57-3.92-16.23-5.27-29.5c-2-19.63-2.97-35.9-3.87-45.94
						c-1.15-12.89,5.91-10.35,10.97-8.29c9.04,3.69,21.83,12.36,28.33,17.05c10.13,7.3,26.03,28.02,25.61,37.63
						C915.98,469.97,897.83,482.93,870.27,486.37z"/>
					<path class="st18" d="M926.04,457.31c-0.49,0.61-0.99,1.23-1.52,1.84c-3.36-10.53-16.15-26.44-24.78-32.66
						c-6.49-4.69-19.29-13.35-28.33-17.04c-3.71-1.51-8.47-3.28-10.32,0.94c-0.92-12.28,6.02-9.79,11.01-7.75
						c9.04,3.69,21.84,12.36,28.33,17.04C910.56,426.99,926.46,447.71,926.04,457.31z"/>
					<path class="st19" d="M878.97,484.91c-2.21-5.83-1.43-13.42-2.68-23.55c-1.85-14.97-2.93-27.37-3.8-35.02
						c-1.11-9.83,3.64-7.71,7.04-6.01c6.09,3.05,14.79,9.98,19.22,13.72c6.91,5.82,20.83,23.02,20.81,30.31
						C913.24,473.71,897.12,483.04,878.97,484.91z"/>
					<path class="st20" d="M919.44,463.12c-4.66-7.19-11.48-14.96-15.69-18.51c-4.43-3.74-13.14-10.67-19.23-13.72
						c-3.39-1.71-8.15-3.83-7.04,6c0.86,7.66,1.94,20.06,3.8,35.03c0.59,4.71,0.73,8.86,0.94,12.56c-1.07,0.18-2.16,0.31-3.25,0.43
						c-2.21-5.83-1.43-13.42-2.68-23.55c-1.85-14.97-2.93-27.36-3.8-35.02c-1.11-9.82,3.64-7.71,7.05-6.01
						c6.09,3.05,14.79,9.99,19.23,13.73C905.29,439.57,918.12,455.29,919.44,463.12z"/>
					<path class="st21" d="M1022.76,444.94c3.91,15.79,52.32,43.91,59.1,38.1c4.9-4.2,5.51-29.42,5.69-35.85
						c0.54-19.68-1.96-33.42-0.22-40.81c1.75-7.39-3.97-14.49-16.48-6.77C1058.35,407.34,1036.44,423.9,1022.76,444.94z"/>
					<path class="st21" d="M1022.76,444.94c3.91,15.79,52.32,43.91,59.1,38.1c4.9-4.2,5.51-29.42,5.69-35.85
						c0.54-19.68-1.96-33.42-0.22-40.81c1.75-7.39-3.97-14.49-16.48-6.77C1058.35,407.34,1036.44,423.9,1022.76,444.94z"/>
					<path class="st7" d="M1022.76,444.94c3.91,15.79,52.32,43.91,59.1,38.1c4.9-4.2,5.51-29.42,5.69-35.85
						c0.54-19.68-1.96-33.42-0.22-40.81c1.75-7.39-3.97-14.49-16.48-6.77C1058.35,407.34,1036.44,423.9,1022.76,444.94z"/>
					<path class="st18" d="M1081.85,483.04c-0.72,0.62-1.9,0.85-3.44,0.75c3.09-8.28,3.54-27.07,3.71-32.49
						c0.54-19.68-1.96-33.41-0.22-40.8c1.75-7.4-3.97-14.5-16.48-6.78c-2.81,1.74-6.09,3.91-9.65,6.49
						c5.64-4.42,10.89-8,15.08-10.59c12.51-7.73,18.23-0.62,16.48,6.77c-1.75,7.4,0.76,21.14,0.21,40.81
						C1087.36,453.62,1086.76,478.83,1081.85,483.04z"/>
					<path class="st19" d="M1027.92,453.54c2.33,9.41,34.21,29.99,38.25,26.53c2.92-2.5,8.72-23.18,10.15-37.64
						c1.15-11.68-1.17-19.91-0.13-24.32c1.04-4.41-2.37-8.64-9.82-4.03C1058.92,418.68,1036.08,441,1027.92,453.54z"/>
					<path class="st20" d="M1076.32,442.43c-1.43,14.46-7.23,35.13-10.15,37.63c-0.23,0.2-0.55,0.32-0.95,0.37
						c2.54-7.95,5.16-19.46,6.05-28.53c1.15-11.68-1.16-19.91-0.13-24.32c1.04-4.41-2.36-8.64-9.81-4.03
						c-6.08,3.75-22.45,19.34-32.69,31.76c-0.33-0.63-0.57-1.22-0.71-1.78c8.15-12.54,30.99-34.86,38.45-39.46
						c7.45-4.61,10.86-0.37,9.81,4.03C1075.15,422.51,1077.48,430.75,1076.32,442.43z"/>
					<path class="st7" d="M1097.29,528.3c0.44,12.59-3.01,23.71-9.06,33.28c-3.82,6.07-8.69,11.52-14.25,16.34
						c-1.09,0.93-2.18,1.85-3.32,2.73c-1.13,0.9-2.27,1.76-3.45,2.59c-0.88,0.62-1.78,1.25-2.69,1.85s-1.83,1.2-2.76,1.76
						c-2.88,1.79-5.86,3.45-8.92,4.96c-0.16,0.07-0.33,0.16-0.51,0.23c-0.33,0.16-0.69,0.3-1.07,0.46h-0.02
						c-0.25,0.09-0.49,0.19-0.76,0.28c-0.23,0.09-0.46,0.16-0.7,0.25c-0.72,0.25-1.51,0.49-2.37,0.74
						c-0.56,0.16-1.16,0.32-1.79,0.47c-0.46,0.12-0.95,0.25-1.44,0.37c-0.3,0.07-0.63,0.14-0.95,0.23c0,0-0.02-0.02-0.04,0
						c-0.86,0.19-1.78,0.4-2.73,0.6c-1.11,0.23-2.29,0.46-3.52,0.69c-1.57,0.32-3.2,0.6-4.91,0.88h-0.02
						c-0.51,0.09-1.04,0.16-1.57,0.25c-0.91,0.14-1.85,0.28-2.8,0.42c-0.07,0.02-0.14,0.02-0.21,0.04c-0.05,0-0.12,0.02-0.19,0.04
						h-0.05c-0.79,0.12-1.62,0.23-2.45,0.35c-0.99,0.14-1.99,0.26-2.99,0.4l-0.37,0.05c-0.04,0-0.09,0.02-0.12,0.02
						c-1.48,0.18-2.97,0.37-4.5,0.55c-0.88,0.11-1.76,0.21-2.66,0.32c-0.84,0.09-1.71,0.18-2.57,0.26
						c-0.67,0.07-1.34,0.14-2.01,0.21c-1.3,0.12-2.62,0.26-3.94,0.39c-1.14,0.11-2.27,0.19-3.43,0.3c-0.56,0.05-1.14,0.11-1.72,0.14
						c-1.72,0.14-3.47,0.28-5.22,0.4c-1.18,0.09-2.36,0.18-3.54,0.25c-1.6,0.11-3.2,0.21-4.82,0.3c-0.72,0.04-1.46,0.07-2.18,0.12
						c-0.63,0.02-1.27,0.05-1.92,0.09c-1.06,0.05-2.11,0.09-3.18,0.14c-0.86,0.04-1.71,0.07-2.59,0.11
						c-1.06,0.04-2.11,0.07-3.17,0.09c-0.74,0.04-1.48,0.05-2.23,0.07c-0.91,0.02-1.83,0.04-2.74,0.05
						c-15.74,0.28-30.75-0.3-42.16-2.16c-0.58-0.09-1.14-0.19-1.72-0.28c-0.55-0.07-1.09-0.14-1.64-0.23
						c-1.41-0.19-2.81-0.37-4.22-0.55c-0.05,0-0.11,0-0.14-0.02c-0.21-0.04-0.42-0.05-0.63-0.09c-0.91-0.11-1.83-0.21-2.74-0.32
						h-0.02c-0.97-0.12-1.93-0.23-2.9-0.35c-0.93-0.11-1.86-0.23-2.81-0.35c-0.84-0.12-1.67-0.23-2.5-0.35
						c-0.11-0.02-0.21-0.04-0.32-0.05c-0.93-0.14-1.86-0.28-2.8-0.46c-0.93-0.14-1.86-0.32-2.8-0.51c-0.9-0.19-1.78-0.39-2.67-0.6
						c-0.05-0.02-0.12-0.02-0.18-0.04c-0.77-0.19-1.55-0.39-2.32-0.62c-0.11-0.02-0.23-0.05-0.33-0.09
						c-5.82-1.67-11.17-4.15-16.04-7.32c-0.81-0.53-1.62-1.07-2.39-1.64c-0.77-0.56-1.51-1.14-2.25-1.72
						c-0.02-0.02-0.05-0.04-0.07-0.05c-0.88-0.67-1.74-1.39-2.57-2.15c-0.16-0.14-0.32-0.28-0.47-0.44
						c-3.29-2.94-6.28-6.26-9.01-9.9c-1.65-2.22-2.96-4.64-3.94-7.21c-4.29-11.03-3.1-24.7-1.86-35.78
						c0.58-5.37,1.39-10.66,2.18-15.99c1.57-10.33,4.75-20.4,9.82-29.38c2.22-3.99,4.84-7.76,7.81-11.22h0.02
						c1.18-1.39,2.41-2.71,3.73-3.98c3.18-3.13,6.72-5.93,10.64-8.36c5.56-3.45,11.75-6.58,18.45-9.31c0.86-0.35,1.72-0.7,2.6-1.04
						c0,0,0,0,0.02,0c1.97-0.77,3.99-1.51,6.05-2.22c1.28-0.44,2.6-0.88,3.94-1.28c0,0,0.02-0.02,0.02,0
						c10.03-3.17,20.81-5.52,31.98-7.02h0.02c9.66-1.28,19.58-1.92,29.55-1.81c4.75,0.05,9.52,0.14,14.27,0.35
						c9.18,0.4,18.31,1.23,27.14,3.01h0.02c3.43,0.7,6.84,1.55,10.17,2.59h0.02c0.91,0.26,1.83,0.56,2.73,0.86
						c9.04,3.08,17.56,7.53,25.24,14.02c1.95,1.67,3.85,3.47,5.72,5.4c0.55,0.56,1.07,1.14,1.6,1.72c0.04,0.02,0.05,0.07,0.09,0.09
						c0.19,0.21,0.37,0.42,0.55,0.65c0.23,0.25,0.46,0.51,0.67,0.77c0.56,0.63,1.09,1.28,1.64,1.97v0.02h0.02
						c0.02,0.02,0.04,0.04,0.04,0.05c0.58,0.72,1.14,1.44,1.71,2.22c0.3,0.4,0.58,0.79,0.88,1.21c0.02,0.02,0.04,0.04,0.05,0.05
						c0.09,0.12,0.19,0.26,0.28,0.39c0.35,0.49,0.67,1,1.02,1.51c0.33,0.47,0.67,0.99,0.98,1.5c0.19,0.28,0.39,0.58,0.56,0.88
						c0.16,0.25,0.32,0.49,0.49,0.76c0.18,0.3,0.35,0.6,0.53,0.91c0.42,0.7,0.84,1.39,1.25,2.11v0.02c0.3,0.53,0.58,1.04,0.86,1.55
						c1.62,2.92,3.08,5.77,4.42,8.55c1.04,2.18,1.99,4.33,2.85,6.42c0.44,1.06,0.84,2.09,1.25,3.13c0.4,1.02,0.77,2.06,1.13,3.06
						c0.35,1.02,0.69,2.04,1,3.03c0.39,1.23,0.74,2.46,1.07,3.68s0.65,2.41,0.91,3.61c0.55,2.36,0.97,4.68,1.3,6.93
						c0.07,0.49,0.14,0.97,0.19,1.48v0.02c0.07,0.47,0.12,0.99,0.16,1.48c0.02,0.12,0.04,0.26,0.05,0.4
						c0.02,0.14,0.04,0.28,0.05,0.42c0,0.21,0.02,0.4,0.04,0.6c0.02,0.21,0.04,0.42,0.05,0.62
						C1097.2,526.45,1097.25,527.39,1097.29,528.3z"/>
					<g>
						<path class="st22" d="M953.49,522.72l-0.48-5.26c-0.17-2.8-2.01-3.09-3.01-0.21l-0.3,1.31c-0.7,3.84-2.08,4.91-6.1,4.16
							l-73.96-10.92c-3.11-0.65-3.11,5.06-0.77,5.37l79,10.93C951.03,528.54,953.51,526.85,953.49,522.72z"/>
						<path class="st23" d="M950.38,528.43c-3.31,55.26-86.38,46.91-80.1-11.08L950.38,528.43z"/>
						<path class="st24" d="M950.09,531.65c-6.18,50.87-83.5,42.81-80.03-11.68C873.2,565.65,938.34,572.67,950.09,531.65z"/>
						<path class="st22" d="M939.12,526.48c-2.38,39.8-62.21,33.78-57.69-7.98L939.12,526.48z"/>
						<path class="st25" d="M891.62,528.96c-10.63,3.8-15.04,11.47-10.42,12.55c4.62,1.08,11.97-6.91,13.61-8.48
							C898.13,529.84,897.24,526.95,891.62,528.96z"/>
						<path class="st25" d="M894.33,540.27c-7.27,2.6-10.28,7.84-7.13,8.58c3.16,0.74,8.19-4.73,9.3-5.8
							C898.78,540.88,898.17,538.9,894.33,540.27z"/>
					</g>
					<g>
						<path class="st22" d="M1071.3,516.61l-78.97,10.93c-4.95,0.63-6.85-0.98-6.6-6.3c0.05-1.08,0.4-4.31,0.4-4.31
							c0.18-3.22,2.58-1.87,2.97-0.2l0,0c0.72,5.78,4.26,5.91,7.88,5.37l73.89-10.91C1074.82,510.67,1075.06,516.2,1071.3,516.61z"
							/>
						<path class="st23" d="M988.87,528.01c3.31,55.26,86.38,46.91,80.1-11.08L988.87,528.01z"/>
						<path class="st24" d="M989.82,535.23c13.83,38.24,76.95,30.27,79.42-15.01C1071.94,572.63,999.44,581.45,989.82,535.23z"/>
						<path class="st22" d="M1000.13,526.06c2.38,39.8,62.21,33.78,57.69-7.98L1000.13,526.06z"/>
						<path class="st25" d="M1047.64,528.54c10.63,3.8,15.04,11.47,10.42,12.55c-4.62,1.08-11.97-6.91-13.61-8.48
							C1041.12,529.43,1042.01,526.53,1047.64,528.54z"/>
						<path class="st25" d="M1044.92,539.86c7.27,2.6,10.28,7.84,7.13,8.58c-3.16,0.74-8.19-4.73-9.3-5.8
							C1040.47,540.46,1041.08,538.48,1044.92,539.86z"/>
					</g>
					<path class="st19" d="M977.37,542.78c-0.96-2.34-15.68-2.35-17.2,0.62c-1.18,2.31,4.89,10.4,8.59,10.39
						C971.61,553.77,978.63,545.85,977.37,542.78z"/>
					<path class="st26" d="M968.77,553.78c-2.93,0.01-7.34-5.06-8.47-8.32c1.86,2.53,4.55,4.91,6.56,4.9
						c2.29-0.01,7.25-5.11,8.48-8.71c1.08,0.28,1.84,0.65,2.03,1.13C978.63,545.85,971.61,553.77,968.77,553.78z"/>
					<path class="st27" d="M1135.99,560.46c-2.15-0.35-4.66-1.86-4.24-3.99c0.25-1.21,1.46-2.06,2.69-2.23
						c1.23-0.16,2.46,0.19,3.64,0.6c2.88,0.99,6.14,3.1,5.82,6.14c-0.16,1.65-1.42,3.03-2.9,3.78c-1.48,0.76-3.17,1-4.8,1.23
						c-4.17,0.6-8.95,1-12.01-1.88c-0.9-0.84-1.62-1.97-2.78-2.43c-2.37-0.93-4.68,1.42-6.21,3.47c-1.53,2.06-3.99,4.33-6.3,3.18
						c-1.57-0.77-2.04-2.74-3.11-4.12c-1.58-2.08-4.78-2.73-7.05-1.42c-0.9,0.51-1.64,1.25-2.55,1.74c-0.9,0.47-2.13,0.6-2.88-0.11
						c-0.37-0.33-0.56-0.84-0.86-1.27c-0.88-1.25-2.55-1.71-4.08-1.58c-0.04,0-0.09,0-0.12,0.02c-1.46,0.14-2.85,0.74-4.26,1.25
						c-3.03,1.07-6.16,1.71-9.34,2.15c-2.53,0.33-5.1,0.55-7.67,0.74c-2.01,0.18-4.01,0.32-5.98,0.53
						c-14.76,1.5-24.29,7.21-38.82,4.31 M1132.51,587.95c1.79,0.02,3.69-0.07,5.19-1.07c1.5-0.99,2.34-3.2,1.27-4.64
						c-0.58-0.81-1.58-1.2-2.53-1.46c-5-1.44-10.54-0.93-15.2,1.35c-1.79,0.88-3.55,2.04-5.56,2.08c-2.73,0.04-5.1-2.08-7.83-2.2
						c-2.5-0.12-4.73,1.42-7.09,2.25c-4.08,1.44-8.87,0.69-12.3-1.97c-1.13-0.88-2.34-2.01-3.75-1.74
						c-0.51,0.09-0.95,0.37-1.39,0.65c-2.36,1.62-4.47,3.96-7.3,4.31c-2.06,0.26-4.06-0.56-5.98-1.3c-0.88-0.33-1.81-0.67-2.83-0.97
						l-0.02-0.02c-1.81-0.55-3.82-1.06-5.98-1.51c-1.78-0.39-3.66-0.74-5.61-1.06c-11.56-1.93-25.28-2.74-33.44-2.34
						 M1019.65,586.52c0.07,0.02,0.12,0.02,0.19,0.04c1.28,0.26,2.78,0.53,4.42,0.79c0.02,0,0.02,0,0.04,0
						c1.02,0.16,2.11,0.33,3.24,0.51c1.95,0.3,4.03,0.62,6.16,0.95c1.5,0.25,3.04,0.51,4.57,0.77c0.02,0,0.02,0,0.04,0
						c4.64,0.81,9.22,1.74,12.95,2.9h0.02c1.65,0.51,3.15,1.06,4.4,1.65c3.62,1.74,7.32,3.94,11.35,3.69
						c2.15-0.12,4.26-0.97,6.39-0.67c2.85,0.39,5.17,2.73,8.04,3.03c2.27,0.21,4.5-0.9,6.77-0.72c1.58,0.12,3.04,0.86,4.59,1.16
						c2.85,0.55,6.49-0.12,8.02,2.32c0.6,0.93,0.69,2.11,1.25,3.06c0.47,0.83,1.28,1.41,2.11,1.85c4.17,2.23,9.23,1.64,13.91,0.99
						c1.28-0.18,2.8-0.53,3.31-1.74c0.46-1.11-0.33-2.46-1.44-2.96c-1.11-0.47-2.41-0.26-3.54,0.19"/>
					<path class="st28" d="M970.16,542.28c-2.51-0.75-6.4-0.22-8.57,1.31c-0.44,0.31-0.29,1.2,0.31,1.22
						c1.31,0.03,2.55-0.47,3.83-0.72c1.4-0.27,2.81-0.31,4.22-0.41C970.64,543.62,970.87,542.48,970.16,542.28z"/>
					<g>
						
							<radialGradient id="SVGID_1_" cx="906.8369" cy="572.6429" r="26.8212" gradientTransform="matrix(0.9995 -0.0322 0.0224 0.6933 -12.3322 204.8409)" gradientUnits="userSpaceOnUse">
							<stop  offset="0.1656" style="stop-color:#662346"/>
							<stop  offset="1" style="stop-color:#662346;stop-opacity:0"/>
						</radialGradient>
						<ellipse class="st29" cx="906.84" cy="572.64" rx="29.63" ry="20.33"/>
						
							<radialGradient id="SVGID_00000145041927786697493620000006691202558135050400_" cx="1037.7803" cy="569.2574" r="26.8212" gradientTransform="matrix(0.9995 -0.0322 0.0224 0.6933 -12.1885 208.0231)" gradientUnits="userSpaceOnUse">
							<stop  offset="0.1656" style="stop-color:#662346"/>
							<stop  offset="1" style="stop-color:#662346;stop-opacity:0"/>
						</radialGradient>
						
							<ellipse style="fill:url(#SVGID_00000145041927786697493620000006691202558135050400_);" cx="1037.78" cy="569.26" rx="29.63" ry="20.33"/>
					</g>
					<path class="st31" d="M946.15,518.84c-6.92,0.07-13.95-2.2-20.7-3.64c-6.5-1.39-13.05-3.09-19.65-3.91
						c-0.92-0.11-1.04,1.31-0.21,1.57c6.94,2.13,14.24,3.33,21.33,4.84c3.4,0.73,6.79,1.45,10.19,2.18
						c2.97,0.64,6.27,1.69,9.28,0.79C947.39,520.38,947.23,518.83,946.15,518.84z"/>
					<path class="st31" d="M1069.88,507.96c-12.71,0.37-25.5,3.01-38.07,4.81c-6.44,0.92-12.88,1.84-19.33,2.76
						c-3.46,0.49-20.55,4.5-20.4-1.74c0.03-1.06-1.74-1.36-1.9-0.26c-0.91,6.15,7.13,5.87,11.1,5.57
						c7.43-0.57,14.84-1.96,22.21-3.01c15.41-2.2,30.85-4.96,46.38-6.05C1071.2,509.95,1071.23,507.92,1069.88,507.96z"/>
					<g>
						<path class="st7" d="M949.99,444.76c5.57-7.98,19.56-19.45,23.38-16.46c1.03,0.96-3.86,5.42-4.53,8.64
							c5.2-3.73,17.14-12.26,17.03-8.71c0.11,1.79-2.43,5.2-3.65,7.8c2.79-2.61,15.83-10.24,16.36-6.49
							c0.49,3.75,0.21,7.61-0.81,11.25c-9.52,1.19-19.05,2.37-28.57,3.56L949.99,444.76z"/>
					</g>
					<path class="st18" d="M1097.29,528.3c0.44,12.59-3.01,23.71-9.06,33.28c-3.82,6.07-8.69,11.52-14.25,16.34
						c-1.09,0.93-2.18,1.85-3.32,2.73c-1.13,0.88-2.29,1.74-3.47,2.57c-0.88,0.63-1.78,1.25-2.67,1.86c-0.91,0.6-1.83,1.2-2.76,1.76
						c-2.88,1.78-5.86,3.43-8.92,4.94c-0.16,0.09-0.33,0.16-0.51,0.25c-0.33,0.16-0.69,0.3-1.07,0.46h-0.02
						c-0.25,0.09-0.49,0.19-0.76,0.28c-0.23,0.09-0.46,0.16-0.7,0.25c-0.72,0.25-1.51,0.49-2.37,0.74
						c-0.56,0.16-1.16,0.32-1.79,0.47c-0.46,0.12-0.95,0.25-1.44,0.37c-0.3,0.07-0.63,0.14-0.95,0.23c0,0-0.02-0.02-0.04,0
						c-0.86,0.19-1.78,0.4-2.73,0.6c-1.11,0.23-2.29,0.46-3.52,0.69c-2.04,0.39-4.2,0.76-6.49,1.13c-0.91,0.14-1.85,0.28-2.8,0.42
						c-0.07,0.02-0.14,0.02-0.21,0.04c-0.07,0.02-0.14,0.02-0.21,0.02c0,0-0.02,0.02-0.04,0.02c-0.79,0.12-1.62,0.23-2.45,0.35
						c-0.99,0.14-1.99,0.26-2.99,0.4l-0.37,0.05h-0.12v0.02c-1.48,0.18-2.97,0.37-4.5,0.55c-0.88,0.11-1.76,0.21-2.66,0.32
						c-0.84,0.09-1.71,0.18-2.57,0.26c-0.67,0.07-1.34,0.14-2.01,0.21c-1.3,0.12-2.62,0.26-3.94,0.39c-1.14,0.11-2.27,0.19-3.43,0.3
						c-0.56,0.05-1.14,0.11-1.72,0.14c-1.72,0.14-3.47,0.28-5.22,0.4c-1.18,0.09-2.36,0.18-3.54,0.25c-1.6,0.11-3.2,0.21-4.82,0.3
						c-0.72,0.04-1.46,0.07-2.18,0.12c-0.63,0.02-1.27,0.05-1.92,0.09c-1.06,0.05-2.11,0.09-3.18,0.14
						c-0.86,0.04-1.71,0.07-2.59,0.11c-1.06,0.04-2.11,0.07-3.17,0.09c-0.74,0.04-1.48,0.05-2.23,0.07
						c-0.91,0.02-1.83,0.04-2.74,0.05c-15.74,0.28-30.75-0.3-42.16-2.16c-1.13-0.18-2.23-0.35-3.36-0.51
						c-1.41-0.19-2.81-0.37-4.22-0.55c-0.05,0-0.11,0-0.14-0.02c-1.13-0.12-2.25-0.26-3.38-0.4h-0.02c-0.97-0.12-1.93-0.23-2.9-0.35
						c-0.93-0.11-1.86-0.23-2.81-0.35c-0.84-0.12-1.67-0.23-2.5-0.35c-0.11-0.02-0.21-0.04-0.32-0.05c-0.93-0.14-1.86-0.28-2.8-0.46
						c-0.93-0.14-1.86-0.32-2.8-0.51c-0.9-0.19-1.78-0.39-2.67-0.6c-0.05-0.02-0.12-0.02-0.18-0.04c-0.77-0.19-1.55-0.39-2.32-0.62
						c-0.11-0.02-0.23-0.05-0.33-0.09c-5.82-1.67-11.17-4.15-16.04-7.32c-0.81-0.53-1.62-1.07-2.39-1.64
						c-0.79-0.56-1.57-1.14-2.32-1.76c0.02,0.02,0.05,0.02,0.07,0.04c2.92,1.6,7.95,3.22,14.56,4.7c0.02,0,0.02,0,0.04,0
						c4.31,0.99,9.31,1.9,14.83,2.73c1.83,0.28,3.69,0.55,5.63,0.81h0.02c2.88,0.39,5.88,0.74,8.97,1.07
						c0.23,0.02,0.44,0.04,0.65,0.05v0.02c2.45,0.25,4.96,0.49,7.51,0.7c28.71,2.46,63.8,2.48,92.93-2.9l1.37-0.26
						c2.62-0.49,5.17-1.04,7.67-1.64c0.91-0.21,1.81-0.42,2.71-0.67c0.51-0.12,1.04-0.26,1.55-0.4c8.14-2.15,15.57-4.84,21.92-8.16
						c4.27-2.22,8.07-4.71,11.28-7.53h0.02c2.94-2.59,5.51-5.31,7.74-8.14c20.56-26.09,12.63-61.55,5.61-81.27v-0.02
						c-0.33-0.91-0.67-1.79-0.99-2.64c-2.62-6.95-4.91-11.45-5.22-12.07c0.58,0.72,1.14,1.44,1.71,2.22c0.3,0.4,0.58,0.79,0.88,1.21
						c0.02,0.02,0.04,0.04,0.05,0.05c0.09,0.12,0.19,0.26,0.28,0.39c0.35,0.49,0.67,1,1.02,1.51c0.33,0.47,0.67,0.99,0.98,1.5
						c0.19,0.28,0.39,0.58,0.56,0.88c0.16,0.25,0.32,0.49,0.49,0.76c0.18,0.3,0.35,0.6,0.53,0.91c0.42,0.7,0.84,1.39,1.25,2.11v0.02
						c0.3,0.53,0.58,1.04,0.86,1.55c1.62,2.92,3.08,5.77,4.42,8.55c1.04,2.18,1.99,4.33,2.85,6.42c0.44,1.06,0.84,2.09,1.25,3.13
						c0.4,1.02,0.77,2.06,1.13,3.06c0.35,1.02,0.69,2.04,0.99,3.03c0.4,1.23,0.76,2.46,1.09,3.68s0.65,2.41,0.91,3.61
						c0.55,2.36,0.97,4.68,1.3,6.93c0.07,0.49,0.14,0.97,0.19,1.48v0.02c0.07,0.47,0.12,0.99,0.16,1.48
						c0.02,0.12,0.04,0.26,0.05,0.4c0.02,0.14,0.04,0.28,0.04,0.42c0.02,0.21,0.04,0.4,0.05,0.6c0.02,0.21,0.04,0.42,0.05,0.62
						C1097.2,526.45,1097.25,527.39,1097.29,528.3z"/>
					<path class="st27" d="M932.24,570.55c-14.55,2.9-24.08-2.81-38.82-4.31c-4.66-0.47-9.38-0.67-14-1.32
						c-3.06-0.44-6.07-1.06-8.99-2.09c-1.44-0.53-2.87-1.14-4.4-1.27c-1.51-0.12-3.2,0.33-4.06,1.58c-0.3,0.42-0.49,0.93-0.86,1.27
						c-0.51,0.47-1.21,0.56-1.92,0.44c-0.35-0.05-0.69-0.18-0.99-0.33c-0.9-0.49-1.65-1.23-2.53-1.74c-2.29-1.3-5.47-0.65-7.07,1.42
						c-1.06,1.37-1.55,3.34-3.11,4.12c-2.29,1.14-4.75-1.13-6.28-3.18c-1.53-2.04-3.83-4.4-6.23-3.47
						c-1.14,0.46-1.86,1.58-2.78,2.43c-3.04,2.88-7.85,2.48-12,1.88c-1.65-0.23-3.32-0.47-4.8-1.23c-1.48-0.76-2.74-2.13-2.92-3.78
						c-0.3-3.04,2.94-5.15,5.84-6.14c1.16-0.4,2.41-0.76,3.64-0.6c1.21,0.18,2.43,1.02,2.67,2.23c0.44,2.13-2.08,3.64-4.22,3.99
						 M932.24,578.31c-12.14-0.6-36.55,1.5-47.88,5.89c-0.46,0.18-0.88,0.35-1.34,0.53H883c-1.51,0.53-3.06,0.99-4.63,0.77
						c-2.39-0.3-4.27-2.02-6.24-3.54c-0.35-0.26-0.7-0.53-1.07-0.77c-0.42-0.28-0.88-0.56-1.39-0.65c-1.39-0.26-2.62,0.86-3.75,1.74
						c-3.41,2.66-8.2,3.41-12.28,1.97c-2.36-0.83-4.59-2.37-7.09-2.25c-2.73,0.12-5.1,2.23-7.85,2.2c-1.99-0.04-3.76-1.2-5.54-2.08
						c-4.68-2.29-10.2-2.8-15.2-1.35c-0.97,0.26-1.95,0.65-2.53,1.46c-1.07,1.44-0.25,3.66,1.25,4.64c1.51,1,3.41,1.09,5.21,1.07
						 M837.99,604.34c-1.13-0.46-2.43-0.67-3.54-0.19c-1.13,0.49-1.9,1.85-1.44,2.96c0.49,1.21,2.01,1.57,3.31,1.74
						c4.68,0.65,9.75,1.25,13.9-0.99c0.84-0.44,1.65-1.02,2.13-1.85c0.56-0.95,0.65-2.13,1.23-3.06c1.55-2.45,5.19-1.78,8.02-2.32
						c1.57-0.3,3.03-1.04,4.61-1.16c2.27-0.18,4.5,0.93,6.77,0.72c2.87-0.3,5.19-2.64,8.04-3.03c2.13-0.3,4.24,0.55,6.39,0.67
						c3.1,0.19,6.02-1.07,8.87-2.46c0.83-0.42,1.65-0.83,2.48-1.23c1.04-0.49,2.23-0.97,3.55-1.39c0.02,0,0.02,0,0.02,0
						c0.76-0.25,1.53-0.49,2.36-0.72c4.7-1.3,10.47-2.32,15.94-3.2c1.21-0.19,2.41-0.37,3.57-0.56c0.74-0.11,1.44-0.21,2.15-0.33
						h0.02c3.22-0.47,6.12-0.95,8.41-1.41"/>
				</g>
				<path class="st18" d="M1027.23,597.71c-1.67-2.13-3.5-4.19-5.47-6.19c-0.51-0.53-1.04-1.04-1.57-1.55
					c-2.09-2.02-4.33-3.98-6.67-5.75c-8.29-6.49-17.96-11.49-28.2-13.63c-0.26,1.13-0.65,2.01-1.2,2.18
					c-1.16,0.35-2.88-1.39-4.24-3.04c-6.37-0.69-12.88-0.21-19.35,1.74c-0.84,1.32-1.79,2.39-2.67,2.3c-0.4-0.04-0.77-0.44-1.13-1
					c-1.74,0.67-3.47,1.5-5.19,2.37c-3.69,1.88-7.32,4.19-10.87,6.97c-0.7,0.55-1.39,1.11-2.08,1.69
					c-5.66,4.79-10.75,10.2-15.65,15.76c-4.83,5.47-9.77,10.93-14.11,16.81c-0.04,0.06-0.15,0.15-0.16,0.23
					c0.74-3.17,4.71-14.55,5.2-17.22c-0.05,0,1.72-0.65,1.69-0.67c-1.13-0.12,1.13,0.14,0,0c1.2-1.62,2.43-3.2,3.71-4.78
					c0.26-0.32,0.53-0.65,0.79-0.97c0.9-1.07,1.79-2.13,2.74-3.18c0.46-0.51,0.9-1,1.35-1.5c1.3-1.39,2.62-2.76,3.99-4.08
					c2.36-2.32,4.82-4.52,7.42-6.6c0.32-0.26,0.63-0.53,0.95-0.77c5.51-4.31,11.24-7.67,17.08-10.04c-2.27-1.99-2.14-3.56-2.14-3.56
					l37.11-1.79c0.07,1.02-0.19,1.99-0.65,2.9c7.25,1.69,14.21,4.63,20.63,8.44c7.09,4.15,13.51,9.38,18.94,15.09
					c0.21,0.19,0.4,0.4,0.6,0.62c0.44,0.46,0.88,0.93,1.3,1.41c1.62,1.81,3.15,3.66,4.56,5.54c3.01-1.04,6.19-1.21,9.2-0.6
					c-0.86,0.19-1.78,0.4-2.73,0.6c-1.11,0.23-2.29,0.46-3.52,0.69c-1.57,0.32-3.2,0.6-4.93,0.88c-0.51,0.09-1.04,0.16-1.57,0.25
					c-0.91,0.14-1.85,0.28-2.8,0.42c-0.07,0.02-0.14,0.02-0.21,0.04C1027.39,597.69,1027.31,597.71,1027.23,597.71z"/>
			</g>
			<g>
				<path class="st32" d="M1176.57,920.28H766.99c-13.29,0-24.06-10.77-24.06-24.06l0,0h457.71l0,0
					C1200.64,909.5,1189.86,920.28,1176.57,920.28z"/>
				<g>
					<g>
						<g>
							<path class="st32" d="M1187.33,659.21v211.75c0,19-15.41,34.41-34.41,34.41h-362.3c-18.99,0-34.39-15.4-34.39-34.39V659.21
								c0-18.99,15.4-34.39,34.39-34.39h362.32C1171.94,624.82,1187.33,640.22,1187.33,659.21z"/>
							<path class="st33" d="M1159.75,896.21H783.81c-7.47,0-13.53-6.06-13.53-13.53V647.5c0-7.47,6.06-13.53,13.53-13.53h375.93
								c7.47,0,13.53,6.06,13.53,13.53v235.18C1173.28,890.15,1167.22,896.21,1159.75,896.21z"/>
							<path class="st34" d="M1173.28,650.6v221.82c0,7.81-3.76,14.72-9.55,19.09c2.96-3.98,4.7-8.9,4.7-14.23V655.45
								c0-9.19-7.45-16.64-16.64-16.64H789.23c-5.33,0-10.26,1.76-14.23,4.71c4.36-5.8,11.28-9.57,19.09-9.57h362.56
								C1165.83,633.96,1173.28,641.41,1173.28,650.6z"/>
							<g class="st35">
								<path class="st36" d="M1191.82,896.22c-36.46,1.02-72.93,1.71-109.39,2.06c-18.22,0.25-36.46,0.28-54.69,0.44l-54.69,0.12
									l-54.71-0.14c-18.22-0.14-36.46-0.19-54.69-0.44c-36.46-0.35-72.93-1.02-109.39-2.04H1191.82z"/>
							</g>
						</g>
						<g>
							<g class="st37">
								<path class="st38" d="M1109.19,659.98H828.65c-7.75,0-14.02,6.29-14.02,14.04v187.89c0,7.75,6.27,14.02,14.02,14.02h280.54
									c7.74,0,14.02-6.27,14.02-14.02V674.02C1123.21,666.27,1116.92,659.98,1109.19,659.98z"/>
								<g>
									<circle cx="833.75" cy="677.1" r="3.63"/>
									<circle cx="850.87" cy="677.1" r="3.63"/>
									<circle cx="867.99" cy="677.1" r="3.63"/>
								</g>
							</g>
							<g>
								<path class="st25" d="M1128.94,668.29v187.89c0,7.75-6.29,14.02-14.02,14.02H834.38c-7.75,0-14.02-6.27-14.02-14.02V668.29
									c0-7.75,6.27-14.04,14.02-14.04h280.54C1122.65,654.25,1128.94,660.54,1128.94,668.29z"/>
								<path class="st38" d="M1128.94,668.29v20.2H820.35v-20.2c0-7.75,6.27-14.04,14.02-14.04h280.54
									C1122.65,654.25,1128.94,660.54,1128.94,668.29z"/>
								<g>
									<circle class="st25" cx="839.48" cy="671.37" r="3.63"/>
									<circle class="st25" cx="856.6" cy="671.37" r="3.63"/>
									<circle class="st25" cx="873.72" cy="671.37" r="3.63"/>
								</g>
							</g>
							<g>
								<text transform="matrix(1 0 0 1 885.4376 784.038)" class="st38 st39 st40">404</text>
								<g>
									<text transform="matrix(1 0 0 1 885.4376 839.0829)" class="st38 st41 st42">ERROR</text>
								</g>
							</g>
						</g>
					</g>
					<path class="st18" d="M899.64,624.82h7.58c-1.79,3.34-3.43,6.63-4.96,9.82c-0.53,1.11-1.06,2.22-1.57,3.31
						c-1.99,4.26-3.94,8.48-5.84,12.7c-4.89,10.84-9.43,21.67-13.16,32.7c-1.09,3.25-2.15,6.53-3.1,9.83
						c-0.09,0.49-0.12,0.95-0.14,1.37c-0.02,0.12-0.02,0.23-0.02,0.33v0.79c0,0.11,0.02,0.21,0.02,0.32
						c0.02,0.21,0.05,0.4,0.07,0.58c0.02,0.07,0.04,0.16,0.05,0.23c0.04,0.18,0.07,0.33,0.12,0.47c0,0.05,0.02,0.09,0.04,0.14
						c0.19,0.51,0.4,0.77,0.51,0.88h-0.02c-0.04-0.04-0.09-0.07-0.14-0.11c-0.47-0.33-1.55-1.11-1.88-1.44
						c-0.04-0.04-0.07-0.04-0.12-0.05l1.3,3.54c-1.3-0.46-1.71-1.83-1.83-3.01c-0.09,0.28-0.18,0.63-0.26,1.13
						c-0.28-1.06-0.58-1.62-0.83-1.9l0.37,4.33c-1.32-1-1.16-3.15-0.88-4.57c-0.21,0.04-0.35,0.21-0.35,0.21s-1.06,0.77-1.44,0.74
						l-1.23,3.08c-0.07-1.21,0.47-2.57,1.04-3.64c-0.11-0.63-0.42-1.58-0.91-1.79c-0.81,1.32-2.18,3.01-3.92,3.08l2.83-2.78
						c-1.42,0.63-1.97,0.23-1.97,0.23c1.51-0.58,2.94-3.36,2.94-3.36h0.02c5.52-19.49,13.86-38.03,22.66-56.85
						C896.16,631.8,897.81,628.35,899.64,624.82z"/>
					<path class="st18" d="M1063.57,633.23l-0.46,0.3c-0.98,0.62-2.3,0.32-2.92-0.69l-3.38-5.4l-8.21,5.14l3.36,5.4
						c0.63,1,0.33,2.3-0.67,2.92l-0.46,0.3c-1,0.62-2.3,0.32-2.92-0.69l-3.38-5.4l-5.17,3.23c-1.74,1.08-4.03,0.56-5.12-1.18
						l-7.44-11.89l-0.28-0.44h34.49l-0.14,0.09l3.38,5.4C1064.87,631.31,1064.57,632.61,1063.57,633.23z"/>
				</g>
			</g>
			<g>
				<path class="st10" d="M874.16,689.6c0,0-2.36,3.09-2.23,5.54"/>
				<path class="st11" d="M875.33,689.73c0,0-1.55,4.37,0.5,5.96"/>
				<path class="st12" d="M876.59,690.23c0,0-0.63,4.03,1.81,4.91"/>
				<path class="st13" d="M872.88,688.11c0,0-1.85,4.53-4.74,4.66"/>
				<path class="st14" d="M1034.04,590.41c-16.84-22.41-48.97-41.05-79.71-29.02c-6.07,2.38-12.06,5.85-17.78,10.33
					c-20.51,16.04-33.18,39.58-41.93,58.29c-8.8,18.82-17.13,37.36-22.66,56.85c0,0-0.02,0.01-0.02,0.01s-1.43,2.77-2.94,3.36
					c0,0,0.67,0.5,2.52-0.5c1.01-0.59,1.51,1.6,1.51,2.18c0,0.59,1.59-0.59,1.59-0.59s0.85-1.18,1.69,1.93
					c0.25-1.43,0.5-2.01,0.92-1.6c0.42,0.42,2.1,1.6,2.1,1.6s-1.34-0.88-0.72-5.18c5.4-18.79,13.52-36.86,22.1-55.22
					c8.43-18.03,20.6-40.68,39.99-55.85c5.21-4.08,10.63-7.23,16.09-9.37c27.48-10.75,56.53,6.36,71.89,26.8
					c1.81,2.41,3.58,4.99,5.26,7.68l5.7-3.56C1037.85,595.71,1035.97,592.97,1034.04,590.41z"/>
				<path class="st15" d="M1039.63,598.57l-5.7,3.56c-1.68-2.69-3.44-5.27-5.25-7.69c-15.37-20.44-44.42-37.55-71.89-26.79
					c-5.48,2.13-10.88,5.28-16.1,9.36c-19.38,15.16-31.54,37.82-39.99,55.86c-8.58,18.35-16.69,36.42-22.1,55.21
					c-0.53,3.68,0.37,4.86,0.65,5.14c-0.22-0.16-0.89-0.63-1.4-1.03c-0.03-0.49-0.06-0.99-0.04-1.48c0.04-2.76,0.72-5.42,1.48-8.06
					c0.69-2.33,1.43-4.63,2.2-6.94c1.55-4.62,3.25-9.2,5.03-13.73c1.82-4.58,3.72-9.11,5.7-13.61c1.99-4.56,4.06-9.09,6.14-13.59
					c0.78-1.68,1.56-3.37,2.35-5.05c8.44-18.04,20.61-40.68,39.99-55.84c5.23-4.09,10.63-7.23,16.1-9.37
					c27.47-10.75,56.52,6.36,71.89,26.81c1.82,2.41,3.57,4.99,5.25,7.68l4.27-2.66C1038.68,597.06,1039.15,597.82,1039.63,598.57z"
					/>
				<g>
					<g>
						<path class="st25" d="M985.9,559.92c0,0-0.07,7.24-1.77,7.75c-2.12,0.65-6.21-5.77-6.21-5.77L985.9,559.92z"/>
						<path class="st25" d="M954.61,561.42c0,0,1.49,7.08,3.26,7.25c2.2,0.22,4.96-6.88,4.96-6.88L954.61,561.42z"/>
					</g>
					<path class="st7" d="M950.26,557.27c0,0,6.14,13.49,19.18,3.02c6.95,7.94,19.64,2.72,19.15-3.96"/>
				</g>
				<g>
					<path class="st25" d="M1052.07,635.33l-2.01,1.26c-0.57,0.35-1.31,0.18-1.66-0.38l-6.53-10.45c-0.17-0.28-0.09-0.64,0.19-0.81
						l3.06-1.91c0.28-0.17,0.64-0.09,0.81,0.19l6.53,10.45C1052.81,634.23,1052.63,634.97,1052.07,635.33z"/>
					<path class="st18" d="M1033.38,624.82h-6.93l-3.85-6.17c-5-8.02-2.87-18.47,4.7-23.91c0.32,2.09,0.69,4.33,1.11,6.7
						c0.98,5.65,2.25,12.01,3.85,18.84c0.07,0.21,0.12,0.46,0.18,0.69C1032.73,622.23,1033.05,623.52,1033.38,624.82z"/>
					<path class="st25" d="M1064.35,627.65l-2.01,1.26c-0.57,0.35-1.31,0.18-1.66-0.38l-6.2-9.93c-0.35-0.57-0.18-1.31,0.38-1.66
						l2.01-1.26c0.57-0.35,1.31-0.18,1.66,0.38l6.2,9.93C1065.09,626.56,1064.91,627.3,1064.35,627.65z"/>
					<path class="st43" d="M1063.83,617.96l-25.01,15.62c-1.45,0.9-3.35,0.46-4.26-0.98l-9.97-15.95
						c-5.22-8.35-2.67-19.35,5.68-24.57l0,0c8.35-5.22,19.35-2.67,24.57,5.68l9.97,15.95
						C1065.72,615.15,1065.28,617.05,1063.83,617.96z"/>
					<path class="st44" d="M1032.67,590.85c-6.59,5.61-8.22,15.36-3.49,22.94l11.59,18.56l-2.07,1.29
						c-1.39,0.87-3.22,0.44-4.08-0.94l-9.98-15.97c-5.21-8.35-2.68-19.5,5.68-24.69C1031.1,591.56,1031.87,591.15,1032.67,590.85z"
						/>
				</g>
			</g>
		</g>
	</g>
</g>
</svg>
