<?xml version="1.0" encoding="utf-8"?>
<!-- Generator: Adobe Illustrator 26.3.0, SVG Export Plug-In . SVG Version: 6.00 Build 0)  -->
<svg version="1.1" id="Layer_1" xmlns="http://www.w3.org/2000/svg" xmlns:xlink="http://www.w3.org/1999/xlink" x="0px" y="0px"
	 viewBox="0 0 4000 4000" style="enable-background:new 0 0 4000 4000;" xml:space="preserve">
<style type="text/css">
	.st0{fill:#A1ACC6;}
	.st1{fill:#FEC267;}
	.st2{opacity:0.6;}
	.st3{fill:#FFFFFF;}
	.st4{fill:#EF9D59;}
	.st5{fill:#650000;}
	.st6{fill:#777782;}
	.st7{fill:#FFF3E9;}
	.st8{fill:#C1612B;}
	.st9{fill:#E8BA9A;}
	.st10{fill:#A84E20;}
	.st11{fill:#E23B3B;}
	.st12{fill:#F4D7C1;}
	.st13{fill:none;stroke:#6B184E;stroke-width:21.0597;stroke-linecap:round;stroke-miterlimit:10;}
	.st14{fill:#512717;}
	.st15{fill:#A56856;}
	.st16{opacity:0.5;}
	.st17{fill:#8C5144;}
	.st18{fill:#686779;}
	.st19{fill:#A56957;}
	.st20{opacity:0.2;}
	.st21{fill:#F9DDC7;}
</style>
<g>
	<g>
		<g>
			<polygon class="st0" points="2256.5,3324.2 2256.5,3324.3 2256.4,3324.2 			"/>
		</g>
		<g>
			<polygon class="st0" points="2256.4,3324.2 2256.3,3324.3 2256.3,3324.2 			"/>
		</g>
		<g>
			<g>
				<g>
					<g>
						<path class="st1" d="M1786.4,2590.2c2.2,26.1-42.4,330.7-280.2,377.4c-167.1,32.5-250.3-113.8-260.2-200.7
							c-11.6-102.3,54.2-194.6,94.1-196.3c33.8-1.5,31.1,66,60.8,115.1c46,76.2,168,74.3,223.2-51.1L1786.4,2590.2z"/>
					</g>
					<g class="st2">
						<path class="st3" d="M1331.2,2625.3c1.2,3.7,2.3,7.5,3.3,10.9c6.3,21.3,14.2,47.8,28.9,72.1c41.3,68.4,125.2,91.9,199.5,56
							c0,0-88.4,66.3-160.1,27.4C1320.6,2747.3,1331.2,2625.3,1331.2,2625.3z"/>
					</g>
					<g>
						<path class="st4" d="M1557.1,2904.9c-18.5,9-38.5,15.6-59.3,19.7c-49.2,9.6-92.6,1-128.8-25.6c-25-18.4-44.3-43.7-57.7-69.7
							c94.2,140.5,290.6-9.3,270.1-88.7l151.3-90.3C1714,2726.4,1665.1,2852.7,1557.1,2904.9z"/>
					</g>
				</g>
				<g>
					<g>
						<path class="st5" d="M1460.4,2988.5c-46.8,0-90.1-13.9-127.1-41c-62.7-46-97.1-122.9-103.5-178.7
							c-8.7-76.6,23.1-144.6,52.9-179.5c18.6-21.8,38.8-34.2,56.8-35c33.1-1.3,43.1,32.3,52.7,64.8c5.6,18.9,12,40.4,22.7,58.2
							c17.7,29.3,48.8,45.6,83.1,43.3c46-3,86.5-36.7,111.1-92.6c3.6-8.3,13.3-12,21.5-8.4c8.3,3.6,12,13.3,8.4,21.5
							c-29.2,66.4-81.2,108.3-138.9,112c-46.8,3-89.1-19.1-113.2-59c-12.9-21.4-19.9-45-26.1-65.8c-5.8-19.4-12.3-41.5-19.8-41.5
							c-0.1,0-0.1,0-0.2,0c-6.3,0.3-18.8,6.6-33.3,23.6c-25.6,29.9-52.8,88.3-45.3,154.6c5.5,48.8,35.6,115.9,90.3,156.1
							c42.7,31.3,93.3,41.5,150.5,30.4c117.6-23.1,183.6-114.4,218.2-186.9c39.5-82.7,49.6-162.2,48.8-173c-0.7-9,6-16.9,15-17.6
							c8.9-0.8,16.8,5.9,17.6,14.8c2.8,32.3-45.9,346.3-293.3,394.8C1492.7,2986.9,1476.3,2988.5,1460.4,2988.5z"/>
					</g>
				</g>
			</g>
			<g>
				<g>
					<path class="st6" d="M1860.8,3210.7l-433.1,113.7c0,0-120.3,13.8-203.5,13.8c-169,0-219.3-262.4-219.3-262.4l177.7-173.5
						l450.2-139.5"/>
				</g>
				<g>
					<path class="st1" d="M1860.8,3210.7l-433.1,113.7c0,0-120.3,13.8-203.5,13.8c-169.1,0-219.3-262.4-219.3-262.4l135.5-132.3
						l42.2-41.2l334.8-103.7l105.3-32.6l10.1-3.1l35.2,69.1L1860.8,3210.7z"/>
				</g>
				<g>
					<path class="st4" d="M1860.8,3210.7l-433.1,113.7c0,0-120.3,13.8-203.5,13.8c-169.1,0-219.3-262.4-219.3-262.4l135.5-132.3
						l109.9-39.9c68.8,39.5,70.3,203.9,194.9,174.8c84-19.6,67.6-168.2,72.2-279.8l105.3-32.6c14.2,19.5,29.4,41.8,45.2,65.9
						L1860.8,3210.7z"/>
				</g>
				<g>
					<path class="st5" d="M1224.1,3354.5c-180.5,0-233.2-264.4-235.3-275.6l-1.7-8.6l186.8-182.3l3.8-1.2l450.2-139.5
						c8.6-2.7,17.8,2.1,20.4,10.8s-2.2,17.8-10.8,20.4l-446.4,138.3l-168.4,164.4c10.2,43.6,64.1,240.7,201.4,240.7
						c77.1,0,188-12.1,200.5-13.5l432-113.4c8.7-2.3,17.7,2.9,20,11.7c2.3,8.7-2.9,17.7-11.7,20l-434.3,114l-1.2,0.1
						C1424.5,3341.2,1307.3,3354.5,1224.1,3354.5z"/>
				</g>
				<g>
					<path class="st6" d="M1427.6,3324.4c-42.8,11.5-201,56.3-301.8,22.5c-126.9-42.5-193.1-209.2-175.8-331
						c25.8-181.2,202-198.8,291.6-120.6c42.9,37.5,78.3,122,74.7,199.3L1427.6,3324.4z"/>
				</g>
				<g>
					<path class="st1" d="M1427.7,3324.4c-42.8,11.5-201,56.2-301.8,22.5c-84.4-28.2-142-111.4-165.9-199.8c0,0,0-0.1,0-0.1
						c-12.1-44.5-15.6-90.3-9.8-131.1c25.8-181.2,202-198.8,291.6-120.6c12.6,10.9,24.5,25.9,34.9,43.5v0
						c25.4,42.7,42.4,101,39.8,155.7L1427.7,3324.4z"/>
				</g>
				<g>
					<path class="st4" d="M1427.7,3324.4c-42.8,11.5-201,56.2-301.8,22.5c-84.4-28.2-142-111.4-165.9-199.8
						c1.8,4,62.3,136.7,197.3,123.4c134.9-13.3,159.3-182.4,119.3-331.6c25.4,42.7,42.4,101,39.8,155.7L1427.7,3324.4z"/>
				</g>
				<g>
					<path class="st5" d="M1431.9,3340.1c-101.1,26.6-235.2,58.1-334.8,12.7c-128.4-62.4-191.5-239.9-156-374.1
						c14.7-57.5,55.8-111,113-131.7c70.1-26.5,156.6-9.1,208.2,46c43.9,56.3,61.4,131.6,54.1,201.4c-0.9-27.6-6.5-54.6-15.4-80.1
						c-24.4-73.1-81.6-138.7-161.7-145.9c-118.5-11-179.7,87.3-175.5,195.8c4.2,101.4,52.7,212.3,147.2,259
						c47.7,22.3,101.6,21.6,153.4,17c53.5-5.3,106.3-17.2,159-31.7L1431.9,3340.1L1431.9,3340.1z"/>
				</g>
				<g>
					
						<ellipse transform="matrix(0.9829 -0.1843 0.1843 0.9829 -561.1779 264.5827)" class="st7" cx="1142.5" cy="3150.7" rx="100.7" ry="112.3"/>
				</g>
				<g>
					
						<ellipse transform="matrix(0.9829 -0.1843 0.1843 0.9829 -530.2997 273.8931)" class="st7" cx="1208.1" cy="2989.4" rx="37" ry="41.2"/>
				</g>
				<g>
					
						<ellipse transform="matrix(0.9829 -0.1843 0.1843 0.9829 -543.083 240.0623)" class="st7" cx="1019.8" cy="3041.4" rx="37" ry="41.2"/>
				</g>
				<g>
					
						<ellipse transform="matrix(0.9829 -0.1843 0.1843 0.9829 -530.3364 254.1875)" class="st7" cx="1102" cy="2979.6" rx="41.1" ry="45.8"/>
				</g>
			</g>
			<g>
				<g>
					<path class="st6" d="M2201.6,3210.7l433.1,113.7c0,0,120.3,13.8,203.5,13.8c169,0,219.3-262.4,219.3-262.4l-177.7-173.5
						l-450.2-139.5"/>
				</g>
				<g>
					<path class="st1" d="M2201.5,3210.7l433.1,113.7c0,0,120.3,13.8,203.5,13.8c169.1,0,219.3-262.4,219.3-262.4L2922,2943.5
						l-42.2-41.2L2545,2798.6l-105.3-32.6l-10.1-3.1l-35.2,69.1L2201.5,3210.7z"/>
				</g>
				<g>
					<path class="st4" d="M2201.5,3210.7l433.1,113.7c0,0,120.3,13.8,203.5,13.8c169.1,0,219.3-262.4,219.3-262.4L2922,2943.5
						l-109.9-39.9c-68.8,39.5-70.3,203.9-194.9,174.8c-84-19.6-67.6-168.2-72.2-279.8l-105.3-32.6c-14.2,19.5-29.4,41.8-45.2,65.9
						L2201.5,3210.7z"/>
				</g>
				<g>
					<path class="st5" d="M2838.2,3354.5c-83.2,0-200.4-13.3-205.4-13.9l-2.3-0.4l-433.1-113.7c-8.7-2.3-14-11.2-11.7-20
						c2.3-8.7,11.2-13.9,20-11.7l432,113.4c12.5,1.4,123.5,13.5,200.5,13.5c137.2,0,191.1-197.1,201.4-240.7l-168.4-164.4
						l-446.4-138.3c-8.6-2.7-13.4-11.8-10.8-20.4c2.7-8.6,11.8-13.5,20.4-10.8l454,140.6l186.8,182.3l-1.7,8.6
						C3071.4,3090.1,3018.7,3354.5,2838.2,3354.5z"/>
				</g>
				<g>
					<path class="st6" d="M2634.7,3324.4c42.8,11.5,201,56.3,301.8,22.5c126.9-42.5,193.1-209.2,175.8-331
						c-25.8-181.2-202-198.8-291.6-120.6c-42.9,37.5-78.3,122-74.7,199.3L2634.7,3324.4z"/>
				</g>
				<g>
					<path class="st1" d="M2634.7,3324.4c42.8,11.5,201,56.2,301.8,22.5c84.4-28.2,142-111.4,165.9-199.8c0,0,0-0.1,0-0.1
						c12.1-44.5,15.6-90.3,9.8-131.1c-25.8-181.2-202-198.8-291.6-120.6c-12.6,10.9-24.4,25.9-34.9,43.5v0
						c-25.4,42.7-42.4,101-39.8,155.7L2634.7,3324.4z"/>
				</g>
				<g>
					<path class="st4" d="M2634.7,3324.4c42.8,11.5,201,56.2,301.8,22.5c84.4-28.2,142-111.4,165.9-199.8
						c-1.8,4-62.3,136.7-197.3,123.4c-134.9-13.3-159.3-182.4-119.3-331.6c-25.4,42.7-42.4,101-39.8,155.7L2634.7,3324.4z"/>
				</g>
				<g>
					<path class="st5" d="M2638.9,3308.6c93.2,24.5,222.1,55.5,312.4,14.7c113.8-55.6,169.8-217,138.5-335.8
						c-28.1-109.8-141.8-151.2-237.5-95.1c-44.4,27.6-73.8,72.9-90.9,122.2c-8.8,25.5-14.5,52.5-15.4,80.1
						c-7.3-69.8,10.2-145.1,54.1-201.4c51.5-55.1,138-72.5,208.2-46c88.7,32.6,126.5,129.8,122.9,218.2
						c-4.7,114-59.7,235.4-165.9,287.6c-99.8,45.4-233.6,13.9-334.8-12.7C2630.4,3340.1,2638.9,3308.6,2638.9,3308.6L2638.9,3308.6z
						"/>
				</g>
				<g>
					
						<ellipse transform="matrix(0.1843 -0.9829 0.9829 0.1843 -715.1407 5439.7397)" class="st7" cx="2919.8" cy="3150.7" rx="112.3" ry="100.7"/>
				</g>
				<g>
					
						<ellipse transform="matrix(0.1843 -0.9829 0.9829 0.1843 -610.129 5243.6855)" class="st7" cx="2854.2" cy="2989.4" rx="41.2" ry="37"/>
				</g>
				<g>
					
						<ellipse transform="matrix(0.1843 -0.9829 0.9829 0.1843 -507.5195 5471.165)" class="st7" cx="3042.5" cy="3041.4" rx="41.2" ry="37"/>
				</g>
				<g>
					
						<ellipse transform="matrix(0.1843 -0.9829 0.9829 0.1843 -513.9133 5339.9414)" class="st7" cx="2960.3" cy="2979.6" rx="45.8" ry="41.1"/>
				</g>
			</g>
			<g>
				<polygon class="st0" points="2029.2,3349.9 2029.2,3350 2029.1,3349.9 				"/>
			</g>
			<g>
				<polygon class="st0" points="2029.1,3349.9 2029,3350 2029,3349.9 				"/>
			</g>
			<g>
				<path class="st8" d="M1626.4,3199.4c0,0,164.3,71.1,404.7,71.1c240.4,0,404.7-71.1,404.7-71.1l151.2-253.6
					c44.7-225.2-109.8-655.1-265.8-826.4h-290.2h0.1h-0.1h0.1H1741c-156.1,171.3-310.5,601.1-265.8,826.4L1626.4,3199.4z"/>
			</g>
			<g>
				<path class="st1" d="M2587.1,2945.8l-31.4,52.7l-119.8,200.9c0,0-164.3,71.1-404.7,71.1c-240.4,0-404.7-71.1-404.7-71.1
					l-119.8-200.7v0l-31.5-52.8c-44.7-225.2,109.8-655.1,265.8-826.3h580.2C2477.3,2290.7,2631.8,2720.5,2587.1,2945.8z"/>
			</g>
			<g>
				<path class="st4" d="M2470.9,2363.1c-114.4,51.7-269.2,83.4-439.8,83.4c-170.6,0-325.5-31.8-439.9-83.5
					c44.6-98.8,97.1-185.9,149.7-243.7h580.2C2373.8,2177.2,2426.3,2264.4,2470.9,2363.1z"/>
			</g>
			<g>
				<path class="st4" d="M2555.6,2998.5l-119.8,200.9c0,0-164.3,71.1-404.7,71.1c-240.4,0-404.7-71.1-404.7-71.1l-119.8-200.7v0
					c28.5-111.3,7-321.3,42-355.3c35-34,396.5,44.6,396.5,44.6s22,112.2,86,112.2c64,0,86-112.2,86-112.2s361.5-78.6,396.5-44.6
					C2548.6,2677.2,2527.1,2887.2,2555.6,2998.5z"/>
			</g>
			<g>
				<path class="st9" d="M2438.5,3004.2c-1.9,244.9-407.3,235.9-407.3,235.9s-405.4,8.9-407.4-235.9c-1.6-204,338-177.9,326.3-241.3
					c-3.7-20-4.7-42.1-2.2-63.5c7.6,28.5,31.9,100.8,83.3,100.8c51.4,0,75.7-72.2,83.3-100.8c2.4,21.4,1.4,43.6-2.2,63.5
					C2100.5,2826.3,2440.1,2800.2,2438.5,3004.2z"/>
			</g>
			<g>
				<path class="st10" d="M1945.1,2687.9c0,0,22,112.2,86,112.2c64,0,86-112.2,86-112.2"/>
			</g>
			<g>
				<path class="st5" d="M2587,2945.8c13.4-237.9-121.7-634.9-279.4-814c0,0,13.6,6,13.6,6l-290.2,0V2101c0.1-0.1,0.1,36.9,0,36.8
					c0,0,0-36.8,0-36.8c0.2-0.1,0,36.8,0.1,36.8c0,0-290.2,0.1-290.2,0.1l13.6-6c-131.2,152.2-218.3,399.8-258.4,595.6
					c-13.9,71.6-24.3,143.7-21,218.3c-23.8-71.5-22.2-149.8-13-223.9c21.1-149,71-292.6,139.7-426.2c35.2-67,74.4-132,125.5-188.8
					c0,0,5.5-6,5.5-6l8.2,0l290.2,0.1c-0.1,0,0.1,36.9-0.1,36.8c0.1,0-0.1-36.9,0.1-36.8c0,0,0,36.8,0,36.8
					c-0.2,0.1,0-36.8-0.1-36.8c0,0,290.2,0,290.2,0h8.2c53.5,58.2,94.2,125.6,130.2,195.1C2548,2469.9,2644.6,2754,2587,2945.8
					L2587,2945.8z"/>
			</g>
			<g>
				<path class="st5" d="M1626.4,3199.4c68.1,9.9,134.3,25.7,201.7,38.3c133.6,24.8,272.4,24.8,406,0c33.4-6.4,66.6-13.5,99.9-20.4
					c33.5-7.1,67.6-13.9,101.9-17.9c-14.1,11.1-29.7,19.5-45.5,27C2222.9,3305.1,1778.3,3310.5,1626.4,3199.4L1626.4,3199.4z"/>
			</g>
			<g>
				<path class="st11" d="M1671.2,2447.1c-2-0.3-3.9-0.7-5.8-1.1C1666.2,2446.1,1668.3,2446.4,1671.2,2447.1z"/>
			</g>
			<g>
				<path class="st7" d="M2438.5,3004.2c-1.9,244.9-407.3,235.9-407.3,235.9s-405.4,8.9-407.4-235.9c-1.6-204,338-177.9,326.3-241.3
					c-12.6-68,6.5-161.8,81-161.8c74.5,0,93.6,93.9,81,161.8C2100.5,2826.3,2440.1,2800.2,2438.5,3004.2z"/>
			</g>
			<g>
				<path class="st12" d="M2438.5,3004.2c-1.9,244.9-407.3,235.9-407.3,235.9s-405.4,8.9-407.4-235.9
					c-1.6-204,338-177.9,326.3-241.3c-3.7-20-4.7-42.1-2.2-63.5c7.6,28.5,31.9,100.8,83.3,100.8c51.4,0,75.7-72.2,83.3-100.8
					c2.4,21.4,1.4,43.6-2.2,63.5C2100.5,2826.3,2440.1,2800.2,2438.5,3004.2z"/>
			</g>
			<g>
				<g>
					<g>
						<path class="st1" d="M1944.6,2679.9c21.9,352.4,54.1,549.2,10.3,626.8c-41.2,87.1-163.6,98.2-220.9,83.2
							c-46.8,8.3-98.1,11.9-142.8-13.4c-101.1-7.5-105.7-153.8,16-208.7c0,0-82-354.4-52.3-629.3c9.9-91.6,41-249.9,151.7-391.8"/>
					</g>
				</g>
				<g>
					<g>
						<path class="st4" d="M1833.8,2431.8c-91.3-14-173.6-37.7-241.6-68.2c22.8-69.3,58.4-145.1,114.3-216.8L1833.8,2431.8z"/>
					</g>
				</g>
				<g>
					<g>
						<path class="st4" d="M1954.9,3306.6c-41.2,87.2-163.6,98.2-220.9,83.2c-46.8,8.4-98.1,11.9-142.9-13.4
							c-49.4-3.7-75.7-40.4-75.6-83.5c14.7,11.8,34.9,18.3,60.3,16.4c31.3,23.7,77.3,23.4,118,13.7c80.5,14.9,187.4,3.9,228.6-83.2
							c43.7-77.5,11.4-281.2,22.6-551.4C1967.1,3035.5,1998.3,3229.7,1954.9,3306.6z"/>
					</g>
				</g>
				<g>
					<g>
						<path class="st5" d="M1944.6,2679.9c14.7,102.7,28.1,210.4,38.9,313.4c7.7,79.5,14.2,158.9,7.3,239
							c-5.4,80.8-46.4,142.8-126.5,167.7c-44,13.4-89.1,17-134.6,6.5c0,0,7.4,0.3,7.4,0.3c-50.3,9.6-108.1,12.1-154.9-14.3
							c0,0,7.7,2.3,7.7,2.3c-64.5-4.2-101.7-62.8-89.3-124c10.1-54.1,51.4-95.9,99.9-117.9c0,0-9.2,18.6-9.2,18.6
							c-9.8-43.8-17.8-87.2-25.1-131.1c-27.9-175.5-46.7-354.9-23.9-532.3c18.6-133.8,67.7-264.4,151.5-371.5
							c5.6-7.1,15.8-8.4,23-2.8c7.1,5.6,8.4,15.8,2.8,22.9c-79.9,102.1-127.1,227.8-144.9,355.9c-26.7,221.4,5.8,447.4,51.4,664.4
							c0,0-12.1,5.7-12.1,5.7c-39.3,16.9-72.6,51.7-79.7,94c-7.5,44.5,16.3,80.8,62.9,81.9c40.6,25.2,91.2,22,137.6,13.5
							c70.7,17.6,170.8-1.8,205.4-72.6c22.7-44.6,19.4-98,19.1-147.3c-0.5-25.9-2.1-52-3.4-78.1
							C1949.3,2943.7,1942.2,2810.5,1944.6,2679.9L1944.6,2679.9z"/>
					</g>
				</g>
				<g>
					<path class="st5" d="M1853.2,3204.2c-68.3-37.7-168.2-44.8-241.7-20.6c-8.5,3-17.9-1.5-20.9-10.1c-3.3-9.3,2.6-19.6,12.3-21.5
						c44.1-9,88.7-6.3,132,2.5C1776.8,3163.7,1818.8,3178.3,1853.2,3204.2L1853.2,3204.2z"/>
				</g>
				<g>
					<path class="st5" d="M1607.2,3229.1c-29.2,42.2-36.1,111.6,10.2,142.4c0,0-20.5,25.5-20.5,25.5
						C1548.2,3352,1563.9,3270.5,1607.2,3229.1L1607.2,3229.1z"/>
				</g>
				<g>
					<path class="st5" d="M1728.2,3229.1c-35.3,40.3-41,121.7,13.9,146.5c0,0-16,28.5-16,28.5
						C1665.1,3364.6,1676.8,3270.7,1728.2,3229.1L1728.2,3229.1z"/>
				</g>
			</g>
			<g>
				<g>
					<g>
						<path class="st1" d="M2117.7,2679.9c-21.9,352.4-54.1,549.2-10.3,626.8c41.2,87.1,163.6,98.2,220.9,83.2
							c46.8,8.3,98.1,11.9,142.8-13.4c101.1-7.5,105.7-153.8-16-208.7c0,0,82-354.4,52.3-629.3c-9.9-91.6-41-249.9-151.7-391.8"/>
					</g>
				</g>
				<g>
					<g>
						<path class="st4" d="M2470,2363.5c-68,30.6-150.3,54.2-241.6,68.2l127.2-285C2411.6,2218.4,2447.2,2294.2,2470,2363.5z"/>
					</g>
				</g>
				<g>
					<g>
						<path class="st4" d="M2107.4,3306.6c41.2,87.2,163.6,98.2,220.9,83.2c46.8,8.4,98.1,11.9,142.9-13.4
							c49.4-3.7,75.7-40.4,75.6-83.5c-14.7,11.8-34.9,18.3-60.3,16.4c-31.3,23.7-77.3,23.4-118,13.7
							c-80.5,14.9-187.4,3.9-228.6-83.2c-43.7-77.5-11.4-281.2-22.6-551.4C2095.2,3035.5,2064,3229.7,2107.4,3306.6z"/>
					</g>
				</g>
				<g>
					<g>
						<path class="st5" d="M2117.7,2679.9c2.4,130.5-4.7,263.9-11.3,394.3c-2.5,51.5-6.1,103.9-2.1,155c2.2,24.2,6.3,49.7,17.8,70.4
							c34.5,70.9,134.7,90.2,205.4,72.6c46.4,8.5,97,11.7,137.6-13.5c46.5-1.2,70.5-37.3,62.9-81.9c-7.1-42.3-40.4-77.1-79.7-94
							c0,0-12.1-5.7-12.1-5.7c45.7-216.9,78.1-443,51.4-664.4c-17.8-128.1-65-253.9-144.9-355.9c-5.6-7.1-4.3-17.4,2.8-22.9
							c7.1-5.6,17.4-4.3,23,2.8c83.8,107.1,132.9,237.8,151.5,371.5c22.8,177.4,4,356.8-23.9,532.3c-7.3,43.9-15.4,87.3-25.1,131.1
							l-9.2-18.6c48.5,22,89.8,63.8,99.9,117.9c12.4,61.1-24.8,119.9-89.3,124c0,0,7.7-2.3,7.7-2.3c-46.7,26.4-104.6,24-154.9,14.3
							c0,0,7.4-0.3,7.4-0.3c-45.5,10.5-90.6,6.9-134.6-6.5c-80.1-24.9-121.1-86.8-126.5-167.7c-6.9-80.1-0.4-159.5,7.3-239
							C2089.6,2890.3,2103,2782.5,2117.7,2679.9L2117.7,2679.9z"/>
					</g>
				</g>
				<g>
					<path class="st5" d="M2209.1,3204.2c52.5-38.4,118.9-54.4,183.4-57.4c22.1-0.7,44.5,0.7,66.9,5.3c8.9,1.8,14.7,10.5,12.8,19.4
						c-1.9,9.6-12.2,15.4-21.4,12.1C2377.3,3159.4,2277.5,3166.5,2209.1,3204.2L2209.1,3204.2z"/>
				</g>
				<g>
					<path class="st5" d="M2455,3229.1c43.3,41.4,59,122.9,10.3,167.9c0,0-20.5-25.5-20.5-25.5
						C2491.1,3340.6,2484.3,3271.3,2455,3229.1L2455,3229.1z"/>
				</g>
				<g>
					<path class="st5" d="M2334.1,3229.1c51.4,41.6,63.1,135.6,2.2,175c0,0-16-28.5-16-28.5
						C2375.1,3350.8,2369.4,3269.4,2334.1,3229.1L2334.1,3229.1z"/>
				</g>
			</g>
			<g>
				<path class="st13" d="M2621.4,2004.6"/>
			</g>
			<g>
				<polygon class="st14" points="2011.5,1780.7 2009.2,1781.1 2009.2,1780.3 				"/>
			</g>
			<g>
				<path class="st1" d="M2020.5,614.2c778.1,11.5,879.2,518.7,856.1,1049.6c16.2,36.7,58.9,162.7,0,292
					c-119.8,262.8-542.5,357.8-856.1,357.8s-736.3-95-856.1-357.8c-58.9-129.3-16.2-255.3,0-292
					C1141.3,1132.9,1242.4,625.7,2020.5,614.2"/>
			</g>
			<g>
				<path class="st1" d="M2876.6,1955.8c-119.8,262.8-542.5,357.8-856.1,357.8c-313.6,0-736.3-95-856.1-357.8
					c-58.9-129.3-16.2-255.2,0-292c-15.7-360.8,26-710.8,298.7-901.5c128.5-89.9,308.2-144.4,557.4-148
					c249.2,3.7,428.9,58.2,557.4,148c272.7,190.7,314.4,540.7,298.7,901.5C2892.8,1700.6,2935.6,1826.5,2876.6,1955.8z"/>
			</g>
			<g>
				<path class="st4" d="M2810.4,2055.5c-168.6,187.6-519.7,258.1-789.9,258.1c-270.2,0-621.3-70.5-789.9-258.1
					c209.9,144.4,532.4,200.9,789.9,200.9C2278,2256.4,2600.5,2199.9,2810.4,2055.5z"/>
			</g>
			<g>
				<path class="st5" d="M1836.1,2303.1c-202.2-11.4-419.6-62.1-578-195c-91.1-76.9-150.9-192.1-141.8-313.2
					c3.2-47.6,13.3-94,33.1-137.7c0,0-1.4,7.3-1.4,7.3c-26-519.1,89-966.5,673.5-1051.2c65.9-9.8,132.4-14.3,198.7-15.4l0.5,32.7
					c-65.1,1.1-130.2,5.5-194.4,15.1c-566.8,81.3-670,516.6-645.6,1017.5c0,0,0.2,3.7,0.2,3.7l-1.5,3.6
					c-15.6,39.6-24.8,83.3-26.4,126.3C1144.5,2133.3,1566.8,2255.1,1836.1,2303.1L1836.1,2303.1z"/>
			</g>
			<g>
				<path class="st5" d="M2020.8,597.9c703,9.9,906,420.2,872.2,1066.6c0,0-1.4-7.4-1.4-7.3c38.7,87.2,45.5,188.3,13.6,278.8
					c-66.7,181-254.9,277.2-430.3,325.5c-88,23.9-178.9,37.6-269.9,41.6c269.8-49.5,690.7-168.6,683-506.4
					c-1.8-42.8-10.5-86.7-26.3-126.3c0,0-1.5-3.6-1.5-3.6l0.2-3.7c5.6-130.6,4.3-261.9-15.6-390.4
					c-68.4-464.4-381.4-636.7-824.4-642.1C2020.3,630.6,2020.8,597.9,2020.8,597.9L2020.8,597.9z"/>
			</g>
			<g>
				<g>
					<path class="st15" d="M1541.5,715.3c-90.9-22.1-319.7,17.2-452.6,344.9c-48.6,119.8-56.6,330.1,98.1,318.6
						C1365,1365.7,1293.1,1050,1541.5,715.3z"/>
				</g>
				<g class="st16">
					<path class="st3" d="M1541.5,715.3c-7.6,10.2-14.8,20.3-21.8,30.4c-115-0.1-312.4,73.4-434.4,374.2
						c-12.1,29.8-21.8,65-27.6,101.2c-0.3-55.1,12.4-114.7,31.1-160.8C1221.8,732.4,1450.6,693.3,1541.5,715.3z"/>
				</g>
				<g>
					<path class="st17" d="M1541.5,715.3c-248.4,334.7-176.4,650.4-354.5,663.6c-85.1,6.3-121.1-54.6-128-130.5
						c19.8,30.9,49.8,49.8,92.5,47.3c170.9-10,152.2-386.7,389.5-580.5C1541.2,715.2,1541.4,715.2,1541.5,715.3z"/>
				</g>
				<g>
					<path class="st5" d="M1175.4,1395.6c-42.6,0-77.1-16.5-100.2-48.3c-50.8-69.7-39.2-200.3-1.5-293.3
						c58.9-145.2,145-253,249.2-311.7c88.6-50,173-54.9,222.4-42.9c5.3,1.3,9.7,5.2,11.5,10.3c1.9,5.2,1,10.9-2.2,15.3
						c-118.2,159.3-162.2,311.9-197.4,434.5c-38.1,132.3-65.6,227.9-168.9,235.6C1183.9,1395.5,1179.6,1395.6,1175.4,1395.6z
						 M1495.4,726.7c-97.4,0-277.6,59.2-391.3,339.6c-33.9,83.7-44.1,204.5-2.4,261.7c18.9,26,46.5,37.2,84.2,34.4
						c77.2-5.7,99.9-72.9,139.9-212c32.6-113.3,76.7-266.6,186.8-423.2C1507.2,726.9,1501.5,726.7,1495.4,726.7z"/>
				</g>
			</g>
			<g>
				<g>
					<path class="st15" d="M2519.1,715.3c90.9-22.1,319.7,17.2,452.6,344.9c48.6,119.8,56.6,330.1-98.1,318.6
						C2695.6,1365.7,2767.5,1050,2519.1,715.3z"/>
				</g>
				<g class="st16">
					<path class="st3" d="M2519.1,715.3c7.6,10.2,14.8,20.3,21.8,30.4c115-0.1,312.4,73.4,434.4,374.2c12.1,29.8,21.8,65,27.6,101.2
						c0.3-55.1-12.4-114.7-31.1-160.8C2838.8,732.4,2610,693.3,2519.1,715.3z"/>
				</g>
				<g>
					<path class="st17" d="M2519.1,715.3c248.4,334.7,176.4,650.4,354.5,663.6c85.1,6.3,121.1-54.6,128-130.5
						c-19.8,30.9-49.8,49.8-92.5,47.3c-170.9-10-152.2-386.7-389.5-580.5C2519.4,715.2,2519.2,715.2,2519.1,715.3z"/>
				</g>
				<g>
					<path class="st5" d="M2885.2,1395.6c-4.2,0-8.5-0.2-12.8-0.5c-103.4-7.7-130.9-103.2-168.9-235.6
						c-35.3-122.6-79.2-275.2-197.4-434.5c-3.3-4.4-4.1-10.1-2.2-15.3c1.9-5.2,6.2-9,11.5-10.3c49.4-12,133.8-7,222.4,42.9
						c104.1,58.7,190.3,166.5,249.2,311.7c37.7,93,49.3,223.6-1.5,293.3C2962.2,1379.1,2927.8,1395.6,2885.2,1395.6z M2548,727.4
						c110.1,156.5,154.2,309.9,186.8,423.2c40,139.1,62.7,206.3,139.9,212c37.8,2.8,65.3-8.5,84.2-34.4
						c41.7-57.2,31.5-178-2.4-261.7C2835.7,768.4,2639.8,720.2,2548,727.4z"/>
				</g>
			</g>
			<g>
				<polygon class="st18" points="2022.4,1074.7 2022.4,1074.7 2022.2,1074.7 				"/>
			</g>
			<g>
				<path class="st13" d="M2061.6,1887.2"/>
			</g>
			<g>
				<path class="st13" d="M2062.4,1927.6"/>
			</g>
			<g>
				<path class="st15" d="M1392.3,1573.2c26.9,119.5,143.9,171.8,267.8,138c123.1-33.6,170.4-89.5,170.4-89.5
					c66.5-345.9-118.1-446.3-263.2-397.8C1441.3,1265.9,1358.2,1421.6,1392.3,1573.2z"/>
			</g>
			<g>
				<g>
					<path class="st19" d="M2396.4,2054c0,0-77,46.7-189.1,77.7c-55.5,15.4-119.5,26.8-187.1,26.8c-67.3,0-131-11.4-186.3-26.6
						c-112.6-30.9-190-77.9-190-77.9s98.7-358.8,376.3-358.8C2297.7,1695.2,2396.4,2054,2396.4,2054z"/>
				</g>
			</g>
			<g>
				<path class="st17" d="M2396.4,2054c0,0-77,46.7-189.1,77.7c-90.8-30.1-162.3-128.8-186.4-212.5c-24.1,83.9-96,182.9-187,212.7
					c-112.6-30.9-190-77.9-190-77.9s98.7-358.8,376.3-358.8C2297.7,1695.2,2396.4,2054,2396.4,2054z"/>
			</g>
			<g>
				<g>
					<path class="st14" d="M2020.1,2174.9c-206.4,0-377.6-102.5-384.8-106.9l-10.5-6.4l3.3-11.9c1-3.8,26-93.3,86.2-184.1
						c80.8-122.2,186.6-186.7,305.9-186.7s225,64.6,305.9,186.7c60.1,90.8,85.1,180.3,86.2,184.1l3.3,11.9l-10.6,6.4
						C2397.7,2072.4,2226.5,2174.9,2020.1,2174.9z M1663.3,2046.3c40.7,22.2,188.6,95.9,356.8,95.9c168.5,0,316.1-73.7,356.8-95.9
						c-20.1-61.3-123.1-334.7-356.8-334.7C1786.5,1711.6,1683.5,1985,1663.3,2046.3z"/>
				</g>
			</g>
			<g>
				<g>
					<g>
						<ellipse class="st5" cx="1647.6" cy="1503.5" rx="149.2" ry="172"/>
					</g>
				</g>
				<g>
					<g>
						<ellipse class="st3" cx="1688.1" cy="1453.7" rx="48.6" ry="61.5"/>
					</g>
				</g>
				<g class="st20">
					<g>
						<ellipse class="st3" cx="1592" cy="1561.5" rx="26.9" ry="41.6"/>
					</g>
				</g>
			</g>
			<g>
				<path class="st15" d="M2648.8,1573.2c-26.9,119.5-143.9,171.8-267.8,138c-123.1-33.6-170.4-89.5-170.4-89.5
					c-66.5-345.9,118.1-446.3,263.2-397.8C2599.8,1265.9,2682.8,1421.6,2648.8,1573.2z"/>
			</g>
			<g>
				<path class="st5" d="M1744.2,1066.3c-105.5-93.6-246.1-67.2-323.3,45.8c-25,34.8-44.7,73.6-59.8,114
					c7.4-43.5,23.5-85,45.9-123.1c23.2-38.3,55.3-73.3,95.6-94.1C1587.6,964.8,1692.4,982,1744.2,1066.3L1744.2,1066.3z"/>
			</g>
			<g>
				<path class="st5" d="M2296.8,1066.3c51.8-84.2,156.7-101.5,241.5-57.4c40.4,20.8,72.5,55.7,95.6,94.1
					c22.4,38.1,38.5,79.6,45.9,123.1c-15.1-40.4-34.7-79.2-59.8-114C2542.9,999,2402.3,972.7,2296.8,1066.3L2296.8,1066.3z"/>
			</g>
			<g>
				<path class="st19" d="M1667.3,2061.6c-14.5,0-29.2-1.7-43.7-5.1c-46.6-11-70.8-40.8-82.9-63.9c-21-40-23.2-92.3-5.7-136.6
					c47.7-121.2,212.5-189.3,465.1-192.8l-32.9,114.4C1928,1914.2,1802.1,2061.6,1667.3,2061.6
					C1667.3,2061.6,1667.3,2061.6,1667.3,2061.6z"/>
			</g>
			<g>
				<g>
					<path class="st7" d="M2885.6,2465c-137.9,54.2-218.2,17-327-102c-78-85.4-195.9-84.6-342.6-84.3c-75.7,0.1-195.7,0.3-195.7,0.3
						s-120,0.1-195.7,0.3c-146.8,0.2-264.6-0.3-342.3,85.3c-108.5,119.4-188.6,156.8-326.7,103c-119.8-46.7-179.7-256.1-24.4-378
						c-155.7-121.3-96.3-331,23.3-378c137.9-54.2,218.2-17,327,102c18.3,20.1,38.9,35.4,61.5,47c60.6,31.3,136,36.4,223.6,37.2
						c18.6,0.2,37.8,0.1,57.5,0.1c75.7-0.1,195.7-0.3,195.7-0.3s120-0.2,195.7-0.3c104.1-0.1,193.6,0.1,264.6-30.3
						c5.4-2.3,10.7-4.8,15.9-7.5c22.7-11.8,43.4-27.2,61.8-47.5c108.5-119.3,188.6-156.8,326.7-103c119.8,46.7,179.7,256.1,24.4,378
						C3064.6,2208.3,3005.3,2417.9,2885.6,2465z"/>
				</g>
				<g>
					<path class="st3" d="M2885.6,2465c-138,54.3-218.2,17-327-102c-78.1-85.4-195.9-84.5-342.6-84.3c-75.7,0.1-195.7,0.3-195.7,0.3
						s-120,0.2-195.7,0.3c-146.8,0.2-264.6-0.3-342.3,85.3c-108.5,119.4-188.6,156.8-326.7,103c-119.8-46.7-179.7-256.2-24.4-378
						c-155.7-121.4-96.3-331,23.3-378c138-54.3,218.3-17,327,102c14.8,16.1,31,29.2,48.5,39.7c4.3,2.6,8.5,5,13,7.3
						c60.6,31.3,136.1,36.5,223.6,37.2c18.6,0.2,37.8,0.1,57.5,0c75.6-0.1,195.6-0.2,195.6-0.2s0.2,0,0.7,0c0,0,0,0,0,0
						c10.5,0,122.9-0.2,194.9-0.3c104.1-0.2,193.6,0.1,264.6-30.3c5.4-2.4,10.7-4.8,15.9-7.5c4.9-2.5,9.6-5.2,14.3-8.1
						c17.2-10.5,33-23.5,47.6-39.4c108.4-119.3,188.6-156.8,326.7-102.9c119.8,46.7,179.7,256.1,24.4,378
						C3064.6,2208.3,3005.2,2417.9,2885.6,2465z"/>
				</g>
				<g>
					<path class="st21" d="M2020.5,1897.6v21.6c-72.6,145.7-192.9,192.7-329.8,179c-143.9-14.4-199.7-141-160.7-244.9
						c4.3,2.6,8.5,5,13,7.3c60.6,31.3,136.1,36.5,223.6,37.2c18.6,0.2,37.8,0.1,57.5,0c75.6-0.1,195.6-0.2,195.6-0.2
						S2020,1897.6,2020.5,1897.6z"/>
				</g>
				<g>
					<path class="st21" d="M2350.4,2098.2c-137,13.7-257.2-33.3-329.8-179v-21.6c10.5,0,122.9-0.2,194.9-0.3
						c104.1-0.2,193.6,0.1,264.6-30.3c5.4-2.4,10.7-4.8,15.9-7.5c4.9-2.5,9.6-5.2,14.3-8.1
						C2550.7,1955.6,2495.1,2083.7,2350.4,2098.2z"/>
				</g>
				<g>
					<path class="st21" d="M2750.1,2138.4c0,0-13.7-81.6,37.7-148.9c48.7-63.8,143.6-76.1,147-30.7
						C2941.2,2045.1,2808,2053.6,2750.1,2138.4z"/>
				</g>
				<g>
					<path class="st21" d="M2652.6,2383.8c0,0,98,80.6,186.8,47.3c103.3-38.7,139.3-111.4,106.2-148.2
						C2912.4,2246.2,2766.9,2409.9,2652.6,2383.8z"/>
				</g>
				<g>
					<path class="st21" d="M1402.1,2383.8c0,0-98,80.6-186.8,47.3c-103.3-38.7-139.3-111.4-106.2-148.2
						C1142.4,2246.2,1287.9,2409.9,1402.1,2383.8z"/>
				</g>
				<g>
					<path class="st21" d="M1102.7,1981.9c11-42,137-50.3,167.7-10.3c36.9,48.1,33.5,87.5,60.5,102.3
						C1240.5,2123.2,1084.8,2049.6,1102.7,1981.9z"/>
				</g>
				<g>
					<path class="st21" d="M1511.4,2292.7c0,0,37.9-115.4,87.4-119.4c49.5-4,113,42.1,101.1,55
						C1679.2,2250.7,1567,2239.3,1511.4,2292.7z"/>
				</g>
				<g>
					<path class="st21" d="M2545.9,2292.7c0,0-37.9-115.4-87.4-119.4c-49.5-4-113,42.1-101.1,55
						C2378.1,2250.7,2490.3,2239.3,2545.9,2292.7z"/>
				</g>
				<g>
					<path class="st5" d="M1267,2507.9c-34.9,0-73.4-8-117.3-25.2c-64.4-25.1-113.7-92.9-125.5-172.7
						c-12.3-83.2,17.3-162.6,81.6-220.5c-64.4-57.7-94.3-136.9-82.2-220.2c11.6-79.8,60.6-147.8,125-173.1
						c153.4-60.3,239.6-9.2,345.1,106.2c72.6,79.4,184.9,79.2,327.2,79l398-0.6c142.2-0.2,254.6-0.4,326.9-80
						c105.1-115.7,191.2-167.1,344.7-107.2c64.4,25.1,113.7,92.9,125.5,172.7c12.3,83.2-17.3,162.6-81.6,220.5
						c64.4,57.7,94.3,136.9,82.2,220.2c-11.6,79.8-60.6,147.8-125,173.1c-153.4,60.3-239.6,9.2-345.1-106.2
						c-72.6-79.4-184.8-79.2-327.2-79l-199,0.3l0-16.3l0,16.3l-199,0.3c-142.3,0.2-254.6,0.4-327,80
						C1419.4,2458.1,1354.1,2507.9,1267,2507.9z M1264.9,1703.5c-31.9,0-65.8,8-104.4,23.2c-53.6,21.1-94.7,78.9-104.6,147.3
						c-11.3,77.7,19.8,151.6,85.3,202.6c4,3.1,6.3,7.8,6.3,12.9c0,5-2.3,9.8-6.3,12.9c-65.3,51.2-96.2,125.2-84.7,202.9
						c10.1,68.4,51.3,126.1,105,147c122.4,47.7,197.4,23.7,308.7-98.8c82.1-90.3,206.7-90.5,351.1-90.7l398-0.6
						c144.4-0.2,269.1-0.4,351.4,89.7c111.6,122.1,186.7,145.9,309,97.9c53.6-21.1,94.7-78.9,104.6-147.3
						c11.3-77.7-19.8-151.6-85.3-202.6c-4-3.1-6.3-7.8-6.3-12.9c0-5,2.3-9.8,6.3-12.9c65.3-51.2,96.2-125.2,84.7-202.9
						c-10.1-68.4-51.3-126.1-105-147c-122.4-47.7-197.4-23.7-308.7,98.8c-82.1,90.3-206.7,90.5-351.1,90.7l-398,0.6
						c-144.3,0.2-269,0.4-351.4-89.7C1393.1,1741,1333.9,1703.5,1264.9,1703.5z"/>
				</g>
				<g>
					<path class="st5" d="M1139.8,2075.6c57.2,41.4,136.5,46.1,203.9,24.6c-33.1,16.1-69.9,26.1-108,27.5
						c-37.9,1.4-77.3-5.8-113-24.2L1139.8,2075.6L1139.8,2075.6z"/>
				</g>
				<g>
					<path class="st5" d="M2917.1,2101.1c-28.1,12.7-56,19.1-82.9,27.5c-26.4,8.5-54.2,17.7-71.3,41c12.3-26.6,40.2-42.6,65-56.1
						c25.4-13.6,51.5-25.5,73-40.8L2917.1,2101.1L2917.1,2101.1z"/>
				</g>
			</g>
			<g>
				<g>
					<path class="st15" d="M2020.5,1607.7c97.4,0,410.1-6.1,509.2,177.6c51,111.2-5.6,259.7-163.1,270.2
						c-144.8,9.7-269.9-55.8-346.1-219.6h0c-76.2,163.7-201.2,229.2-346.1,219.6c-157.5-10.5-214.1-159-163.1-270.2
						C1610.4,1601.6,1923.2,1607.7,2020.5,1607.7L2020.5,1607.7z"/>
				</g>
				<g class="st16">
					<path class="st3" d="M2547.4,1884.5c-1.8-23.2-7.6-46.2-17.6-67.9c-99.1-183.7-411.9-177.6-509.2-177.6
						c-97.4,0-410.1-6.1-509.2,177.6c-9.9,21.6-15.8,44.7-17.6,67.9c-2.6-33.4,3.2-67.8,17.6-99.2
						c99.1-183.7,411.9-177.6,509.2-177.6c97.4,0,410.1-6.1,509.2,177.6C2544.2,1816.7,2550,1851.1,2547.4,1884.5z"/>
				</g>
				<g>
					<path class="st17" d="M1983.5,1818.7c-60.8,130.6-155.5,196.8-281.6,196.8c-8.1,0-16.4-0.3-24.7-0.8
						c-70.1-4.7-105.4-40.1-122.6-69c-24.9-41.7-27.4-96.1-6.7-142.3C1577.4,2081.2,1937.4,1899.9,1983.5,1818.7z"/>
				</g>
				<g>
					<path class="st17" d="M2057.4,1818.7c60.8,130.6,155.5,196.8,281.6,196.8c8.1,0,16.4-0.3,24.7-0.8
						c70.1-4.7,105.4-40.1,122.6-69c24.9-41.7,27.4-96.1,6.7-142.3C2463.5,2081.2,2103.5,1899.9,2057.4,1818.7z"/>
				</g>
				<g>
					<path class="st5" d="M2338.8,2072.8c-138.1,0-247.2-68.7-318.2-200.4c-71,131.7-180.1,200.4-318.2,200.4c-9.5,0-19.2-0.3-29-1
						c-74.1-5-133.7-39.4-168-96.9c-34.5-57.9-37.9-133.2-8.9-196.4l0.5-0.9c100.9-186.9,401.4-186.3,514.5-186.2l9.1,0v32.7l-9.1,0
						c-107.7-0.2-393.6-0.7-485.4,168.5c-24.4,53.5-21.5,116.9,7.5,165.6c28.6,48,79,76.8,142.1,81
						c147.5,9.9,261.7-62.8,330.2-210.1l14.8-31.9l14.8,31.9c68.5,147.3,182.7,220,330.2,210.1c63-4.2,113.5-33,142.1-81
						c29-48.7,31.9-112.1,7.5-165.6c-91.8-169.2-377.9-168.6-485.4-168.5l-9.1,0v-32.7l9.1,0c113.3-0.1,413.7-0.7,514.5,186.2
						l0.5,0.9c29,63.2,25.6,138.5-8.9,196.4c-34.2,57.5-93.9,91.9-168,96.9C2357.9,2072.5,2348.3,2072.8,2338.8,2072.8z"/>
				</g>
				<g>
					<g>
						<path class="st5" d="M2162.8,1624.4c-16.9,47.1-68.3,81.4-104.6,100.5c-23.9,12.6-52.4,12.6-76.3,0
							c-36.2-19.1-87.6-53.4-104.5-100.6c-19.2-54,116.9-62.8,142.7-62.8C2046,1561.5,2182.1,1570.4,2162.8,1624.4z"/>
					</g>
					<g class="st16">
						<path class="st3" d="M2079.3,1589.1c-11.2,19.1-59.2,18.7-59.2,18.7s-48,0.3-59.1-18.7c-8-13.6,48.4-15.8,59.2-15.8
							C2030.9,1573.2,2087.3,1575.4,2079.3,1589.1z"/>
					</g>
				</g>
				<g>
					<g>
						
							<ellipse transform="matrix(1.411923e-03 -1 1 1.411923e-03 -271.9245 3549.4717)" class="st5" cx="1641.3" cy="1910.9" rx="18.6" ry="18.6"/>
					</g>
					<g>
						<ellipse class="st5" cx="1574.2" cy="1877.9" rx="18.6" ry="18.6"/>
					</g>
					<g>
						<ellipse class="st5" cx="1642.1" cy="1838.1" rx="18.6" ry="18.6"/>
					</g>
				</g>
			</g>
			<g>
				<g>
					
						<ellipse transform="matrix(1 -1.391859e-03 1.391859e-03 1 -2.6574 3.342)" class="st5" cx="2399.8" cy="1910.9" rx="18.6" ry="18.6"/>
				</g>
				<g>
					<ellipse class="st5" cx="2466.9" cy="1877.9" rx="18.6" ry="18.6"/>
				</g>
				<g>
					<ellipse class="st5" cx="2399" cy="1838.1" rx="18.6" ry="18.6"/>
				</g>
			</g>
			<g>
				<path class="st5" d="M2593,1450.2c-105.6-35.3-195.6,5-261.5,89.3c-8.5,10.8-16.2,22.4-23.2,34.2l-31.3-32.1
					c93.1-45.1,192.3-29.5,273.7,31.5c-43.2-12.4-87.4-23.2-131.8-22.2c-43,0.5-83.3,13-121.1,33c-11.4,6-25.6,1.6-31.6-9.8
					c-3.8-7.3-3.4-15.5,0.2-22.3c14.6-30.2,35.3-56.2,59.4-78.5C2399.3,1403.9,2511.8,1382.3,2593,1450.2L2593,1450.2z"/>
			</g>
			<g>
				<g>
					<line class="st19" x1="2020.5" y1="1835.9" x2="2020.5" y2="1707.4"/>
				</g>
				<g>
					<polygon class="st5" points="2004.2,1835.9 2012.4,1707.4 2028.7,1707.4 2036.9,1835.9 2004.2,1835.9 					"/>
				</g>
			</g>
		</g>
	</g>
</g>
</svg>
