<?xml version="1.0" encoding="utf-8"?>
<!-- Generator: Adobe Illustrator 26.3.0, SVG Export Plug-In . SVG Version: 6.00 Build 0)  -->
<svg version="1.1" id="Layer_1" xmlns="http://www.w3.org/2000/svg" xmlns:xlink="http://www.w3.org/1999/xlink" x="0px" y="0px"
	 viewBox="0 0 100 100" style="enable-background:new 0 0 100 100;" xml:space="preserve">
<style type="text/css">
	.st0{fill:#FDCCA5;}
	.st1{fill:#F9AD8F;}
	.st2{fill:#7F5A58;}
	.st3{fill:#502E28;}
	.st4{fill:#F8B586;}
	.st5{fill:#FEF2DE;}
</style>
<ellipse class="st0" cx="52.61" cy="80.75" rx="39.51" ry="7.3"/>
<g>
	<g>
		<g>
			<path class="st1" d="M81.56,48.16c0.32-0.98,0.72-1.92,1.27-2.8l0.06-0.06c-0.33-0.33-0.65-0.65-0.98-0.98L81.67,44
				c-0.1-0.04-0.17-0.13-0.2-0.23c-0.01-0.03-0.01-0.06-0.01-0.09c0-0.02,0-0.04,0.01-0.05c0.05-0.21,0.29-0.34,0.5-0.31
				c-0.19-0.09-0.31-0.31-0.29-0.52c0.02-0.21,0.19-0.4,0.4-0.44c-0.14-0.12-0.21-0.32-0.17-0.5c0.04-0.18,0.19-0.33,0.36-0.38
				c-0.19-0.1-0.31-0.34-0.27-0.55c0.04-0.22,0.23-0.39,0.45-0.42c-0.18-0.17-0.36-0.39-0.36-0.64c0-0.24,0.25-0.49,0.47-0.4
				l0.17-0.32c-0.17-0.09-0.24-0.33-0.14-0.5c0.1-0.17,0.34-0.23,0.5-0.12c-0.12-0.09-0.17-0.26-0.11-0.4
				c0.06-0.14,0.22-0.23,0.37-0.2c-0.11-0.15-0.19-0.34-0.15-0.52c0.05-0.18,0.27-0.32,0.43-0.22c-0.1-0.16-0.16-0.36-0.09-0.53
				c0.07-0.17,0.31-0.28,0.45-0.16c-0.08-0.11-0.15-0.22-0.19-0.35c-0.03-0.13-0.02-0.28,0.07-0.37c0.07-0.07,0.19-0.1,0.28-0.06
				l0.28-0.27c-0.11-0.18-0.09-0.43,0.05-0.59c0.14-0.16,0.38-0.22,0.58-0.14c-0.14-0.13-0.15-0.37-0.03-0.51s0.37-0.15,0.51-0.02
				c-0.06-0.19-0.03-0.42,0.11-0.56c0.13-0.13,0.34-0.17,0.49-0.08c-0.09-0.09-0.09-0.26-0.01-0.36c0.1-0.12,0.27-0.16,0.42-0.14
				c0.15,0.02,0.3,0.09,0.44,0.15c0.31,0.12,0.65,0.2,0.98,0.22l0.01-0.3c-0.02-0.09-0.05-0.17-0.08-0.25
				c-0.01-0.02-0.02-0.04-0.03-0.07c-0.38-0.74-1.41-1.08-2.25-0.85c-0.95,0.26-1.67,1.01-2.3,1.78c-2.01,2.44-3.6,5.5-3.26,8.64
				c0.04,0.4,0.12,0.8,0.19,1.19c0.01,0.06,0.02,0.13,0.03,0.19c0.07,0.45,0.13,0.89,0.13,1.34c-0.01,1.32-0.58,2.57-1.13,3.77
				c-0.82,1.77-1.63,3.55-2.45,5.32c-0.11,0.24-0.22,0.49-0.34,0.73c-0.35,0.76-0.68,1.73-0.13,2.37c0.45,0.53,1.33,0.5,1.9,0.12
				c0.58-0.39,0.92-1.04,1.18-1.68C80.45,53.3,80.76,50.61,81.56,48.16z M78.76,56.18c-0.09,0.17-0.21,0.33-0.37,0.44
				c-0.16,0.11-0.37,0.15-0.55,0.08c-0.15-0.06-0.26-0.19-0.31-0.34c-0.06-0.15-0.06-0.31-0.05-0.47c0.04-0.64,0.39-1.25,0.92-1.61
				l0.16-0.03c0.18-0.03,0.35,0.09,0.44,0.25c0.09,0.16,0.1,0.34,0.09,0.52C79.07,55.42,78.95,55.82,78.76,56.18z"/>
		</g>
	</g>
	<g>
		<path class="st2" d="M88.35,40.89c0.12,0.17,0.17,0.4,0.09,0.59c-0.08,0.19-0.31,0.33-0.5,0.26c0.07,0.1,0.12,0.23,0.11,0.35
			c-0.01,0.12-0.09,0.25-0.21,0.28c-0.07,0.02-0.14,0-0.19-0.04l-0.34,0.44c0.06,0.15,0.04,0.32-0.06,0.45
			c-0.1,0.12-0.27,0.19-0.42,0.16c0.12,0.17,0.13,0.41,0.01,0.58c-0.12,0.17-0.35,0.25-0.55,0.2c0.04,0.19-0.06,0.4-0.23,0.5
			c-0.17,0.1-0.4,0.08-0.55-0.05c-0.04,0.36-0.51,0.58-0.81,0.39c0.05,0.2-0.13,0.41-0.33,0.45c-0.21,0.04-0.41-0.04-0.6-0.14
			c0.09,0.1,0.05,0.27-0.06,0.34c-0.11,0.07-0.26,0.06-0.38,0.01c-0.12-0.06-0.21-0.15-0.31-0.24c-0.04-0.04-0.08-0.08-0.11-0.12
			c-0.33-0.33-0.65-0.65-0.98-0.98L81.67,44c-0.1-0.04-0.17-0.13-0.2-0.23c-0.01-0.03-0.01-0.06-0.01-0.09c0-0.02,0-0.04,0.01-0.05
			c0.05-0.21,0.29-0.34,0.5-0.31c-0.19-0.09-0.31-0.31-0.29-0.52c0.02-0.21,0.19-0.4,0.4-0.44c-0.14-0.12-0.21-0.32-0.17-0.5
			c0.04-0.18,0.19-0.33,0.36-0.38c-0.19-0.1-0.31-0.34-0.27-0.55c0.04-0.22,0.23-0.39,0.45-0.42c-0.18-0.17-0.36-0.39-0.36-0.64
			c0-0.24,0.25-0.49,0.47-0.4l0.17-0.32c-0.17-0.09-0.24-0.33-0.14-0.5c0.1-0.17,0.34-0.23,0.5-0.12c-0.12-0.09-0.17-0.26-0.11-0.4
			c0.06-0.14,0.22-0.23,0.37-0.2c-0.11-0.15-0.19-0.34-0.15-0.52c0.05-0.18,0.27-0.32,0.43-0.22c-0.1-0.16-0.16-0.36-0.09-0.53
			c0.07-0.17,0.31-0.28,0.45-0.16c-0.08-0.11-0.15-0.22-0.19-0.35c-0.03-0.13-0.02-0.28,0.07-0.37c0.07-0.07,0.19-0.1,0.28-0.06
			l0.28-0.27c-0.11-0.18-0.09-0.43,0.05-0.59c0.14-0.16,0.38-0.22,0.58-0.14c-0.14-0.13-0.15-0.37-0.03-0.51s0.37-0.15,0.51-0.02
			c-0.06-0.19-0.03-0.42,0.11-0.56c0.13-0.13,0.34-0.17,0.49-0.08c0.01,0.01,0.03,0.03,0.05,0.04c-0.02-0.01-0.03-0.03-0.05-0.04
			c-0.09-0.09-0.09-0.26-0.01-0.36c0.1-0.12,0.27-0.16,0.42-0.14c0.15,0.02,0.3,0.09,0.44,0.15c0.31,0.12,0.65,0.2,0.98,0.22
			c0.11,0.01,0.23,0.01,0.34,0c0.18-0.01,0.36-0.03,0.54-0.01c0.18,0.02,0.36,0.1,0.46,0.25c0.1,0.15,0.09,0.38-0.06,0.49
			c0.21-0.12,0.48,0.1,0.51,0.34c0.02,0.24-0.11,0.47-0.24,0.67c0.11-0.09,0.3-0.03,0.37,0.1c0.07,0.13,0.04,0.3-0.05,0.42
			c-0.08,0.12-0.2,0.21-0.32,0.3l0.1,0.45c0.15,0.01,0.29,0.14,0.32,0.29c0.03,0.17-0.1,0.36-0.28,0.39
			c0.21,0.04,0.29,0.34,0.19,0.54c-0.1,0.19-0.31,0.31-0.5,0.41c0.18,0.06,0.29,0.26,0.26,0.45c-0.04,0.18-0.22,0.33-0.41,0.32
			c0.11,0.12,0.2,0.28,0.16,0.44c-0.03,0.13-0.2,0.22-0.31,0.17l-0.15,0.47c0.14,0.2,0.15,0.48,0.04,0.69
			C88.84,40.78,88.59,40.91,88.35,40.89z"/>
	</g>
	<g>
		<g>
			<path class="st3" d="M88.1,33.09c-0.12-0.56-0.55-0.98-1.07-1.19c-0.58-0.23-1.21-0.2-1.78,0.03c-0.66,0.27-1.19,0.75-1.67,1.27
				c-0.52,0.57-0.98,1.18-1.41,1.81c-0.87,1.27-1.59,2.66-1.97,4.16c-0.19,0.74-0.31,1.5-0.31,2.26c0,0.79,0.14,1.55,0.26,2.33
				c0.07,0.4,0.12,0.8,0.13,1.21c0,0.41-0.05,0.82-0.14,1.23c-0.18,0.81-0.52,1.58-0.86,2.33c-0.75,1.64-1.51,3.29-2.27,4.93
				c-0.19,0.41-0.38,0.83-0.57,1.24c-0.14,0.29-0.27,0.59-0.36,0.9c-0.17,0.56-0.24,1.21,0.14,1.71c0.4,0.54,1.14,0.62,1.74,0.42
				c0.71-0.24,1.16-0.89,1.47-1.54c0.36-0.74,0.61-1.54,0.84-2.33c0.23-0.82,0.42-1.64,0.62-2.47c0.38-1.65,0.76-3.31,1.49-4.85
				c0.18-0.38,0.38-0.74,0.6-1.1c0.11-0.17-0.15-0.37-0.26-0.19c-1.76,2.8-1.98,6.18-2.98,9.26c-0.24,0.72-0.49,1.49-0.93,2.12
				c-0.37,0.54-0.95,0.95-1.63,0.87c-0.31-0.04-0.58-0.18-0.76-0.44c-0.15-0.22-0.19-0.5-0.17-0.76c0.04-0.65,0.37-1.26,0.63-1.84
				c0.73-1.58,1.45-3.16,2.18-4.73c0.66-1.43,1.47-2.92,1.52-4.54c0.02-0.78-0.15-1.54-0.27-2.3c-0.12-0.73-0.15-1.46-0.08-2.19
				c0.14-1.48,0.67-2.9,1.38-4.2c0.36-0.65,0.76-1.27,1.2-1.87c0.43-0.58,0.87-1.16,1.39-1.66c0.48-0.46,1.06-0.87,1.73-0.96
				c0.54-0.07,1.13,0.08,1.55,0.44c0.21,0.18,0.36,0.41,0.42,0.67C87.93,33.25,88.13,33.23,88.1,33.09L88.1,33.09z"/>
		</g>
	</g>
	<g>
		<g>
			<path class="st3" d="M79.55,50.54c-0.2,0.23-0.37,0.49-0.54,0.74c-0.18,0.25-0.35,0.5-0.53,0.76c-0.34,0.5-0.68,1.01-0.97,1.54
				c-0.49,0.87-1.09,2.06-0.62,3.06c0.22,0.46,0.66,0.84,1.19,0.85c0.19,0,0.23-0.3,0.03-0.3c-0.42-0.01-0.77-0.3-0.95-0.67
				c-0.21-0.43-0.16-0.93-0.03-1.38c0.31-1.05,0.95-2.01,1.57-2.9c0.18-0.26,0.36-0.52,0.54-0.78c0.18-0.26,0.37-0.52,0.51-0.81
				C79.81,50.53,79.63,50.45,79.55,50.54L79.55,50.54z"/>
		</g>
	</g>
	<g>
		<g>
			<path class="st3" d="M87.93,32.79c-0.86-0.76-2.17-0.34-3.01,0.22c-0.93,0.62-1.61,1.53-2.14,2.49c-0.56,1.02-0.98,2.11-1.37,3.2
				c-0.41,1.16-0.74,2.38-0.76,3.62c-0.01,0.68,0.1,1.36,0.22,2.03c0.12,0.67,0.25,1.34,0.24,2.02c0,0.19,0.29,0.23,0.3,0.03
				c0.01-0.58-0.07-1.16-0.17-1.73c-0.1-0.56-0.23-1.12-0.27-1.69c-0.08-1.21,0.14-2.38,0.5-3.52c0.35-1.09,0.76-2.17,1.26-3.2
				c0.46-0.96,1.03-1.89,1.84-2.6c0.84-0.73,2.17-1.38,3.22-0.67C87.91,33.07,88.04,32.89,87.93,32.79L87.93,32.79z"/>
		</g>
	</g>
	<g>
		<g>
			<path class="st3" d="M78.36,54.2c-0.1,0.06-0.2,0.1-0.28,0.17c-0.09,0.07-0.17,0.16-0.24,0.24c-0.15,0.18-0.28,0.39-0.36,0.61
				c-0.16,0.41-0.26,0.99,0.01,1.38c0.29,0.42,0.85,0.35,1.17,0.01c0.35-0.37,0.54-0.93,0.59-1.43c0.03-0.26,0.03-0.55-0.11-0.79
				c-0.13-0.22-0.38-0.35-0.63-0.28c-0.15,0.04-0.1,0.28,0.04,0.29c0.4,0.02,0.4,0.47,0.36,0.77c-0.04,0.39-0.17,0.8-0.4,1.11
				c-0.2,0.27-0.62,0.47-0.82,0.08c-0.15-0.31-0.05-0.74,0.07-1.05c0.07-0.18,0.16-0.35,0.28-0.5c0.12-0.16,0.27-0.33,0.42-0.46
				C78.52,54.29,78.45,54.14,78.36,54.2L78.36,54.2z"/>
		</g>
	</g>
	<g>
		<g>
			<path class="st3" d="M81.84,44.37c0.19,0.25,0.42,0.48,0.64,0.71c0.11,0.12,0.22,0.23,0.34,0.34c0.1,0.1,0.2,0.22,0.32,0.3
				c0.18,0.12,0.43,0.18,0.63,0.05c0.19-0.13,0.24-0.38,0.1-0.57c-0.07,0.07-0.14,0.15-0.22,0.22c0.25,0.14,0.54,0.25,0.82,0.15
				c0.24-0.09,0.42-0.34,0.36-0.6c-0.07,0.06-0.14,0.11-0.22,0.17c0.4,0.22,0.97-0.06,1.01-0.52c-0.07,0.03-0.14,0.06-0.22,0.09
				c0.44,0.32,1.07-0.01,0.99-0.58c-0.05,0.05-0.09,0.1-0.14,0.15c0.25,0.06,0.54-0.05,0.68-0.26c0.15-0.22,0.13-0.52-0.02-0.74
				c-0.04,0.07-0.08,0.15-0.12,0.22c0.45,0.06,0.79-0.38,0.63-0.8c-0.07-0.18-0.34-0.06-0.27,0.12c0.09,0.23-0.09,0.45-0.33,0.42
				c-0.12-0.02-0.19,0.13-0.12,0.22c0.09,0.13,0.09,0.3,0,0.44c-0.09,0.14-0.26,0.17-0.42,0.14c-0.08-0.02-0.15,0.07-0.14,0.15
				c0.05,0.33-0.32,0.54-0.57,0.32c-0.09-0.07-0.19,0-0.22,0.09c-0.06,0.23-0.37,0.4-0.58,0.28c-0.11-0.06-0.28,0-0.25,0.15
				c0.03,0.14-0.09,0.25-0.22,0.27c-0.17,0.03-0.35-0.06-0.49-0.14c-0.14-0.08-0.27,0.13-0.18,0.24c0.11,0.13-0.15,0.15-0.22,0.13
				c-0.19-0.07-0.35-0.28-0.49-0.42c-0.3-0.3-0.6-0.62-0.94-0.87C81.89,44.17,81.78,44.29,81.84,44.37L81.84,44.37z"/>
		</g>
	</g>
	<g>
		<g>
			<path class="st3" d="M87.48,42.21c0.02,0.25,0.32,0.35,0.52,0.22c0.28-0.18,0.21-0.54,0.06-0.78c-0.06,0.08-0.11,0.15-0.17,0.23
				c0.27,0.08,0.54-0.05,0.67-0.29c0.13-0.26,0.06-0.56-0.09-0.79c-0.04,0.08-0.09,0.16-0.13,0.24c0.3,0.01,0.59-0.13,0.75-0.4
				c0.14-0.25,0.14-0.62-0.05-0.84c-0.1-0.11-0.3-0.01-0.23,0.14c0.09,0.18,0.14,0.36,0.05,0.55c-0.09,0.17-0.29,0.27-0.48,0.26
				c-0.13-0.01-0.2,0.13-0.13,0.24c0.08,0.12,0.13,0.29,0.08,0.43c-0.04,0.12-0.18,0.24-0.32,0.2c-0.14-0.04-0.25,0.1-0.17,0.23
				c0.06,0.1,0.11,0.24,0.05,0.35c-0.06,0.11-0.21,0.11-0.25-0.01C87.6,42.08,87.48,42.13,87.48,42.21L87.48,42.21z"/>
		</g>
	</g>
	<g>
		<g>
			<path class="st3" d="M88.94,39.42c0.14,0.17,0.41,0.12,0.53-0.06c0.14-0.21,0.01-0.48-0.13-0.65c-0.04,0.07-0.08,0.15-0.12,0.22
				c0.25,0,0.49-0.15,0.55-0.41c0.06-0.26-0.09-0.53-0.34-0.62c0,0.08,0,0.17,0,0.25c0.25-0.13,0.55-0.3,0.62-0.6
				c0.05-0.24-0.05-0.53-0.3-0.6c-0.01,0.09-0.02,0.18-0.03,0.26c0.24-0.06,0.43-0.29,0.39-0.55c-0.04-0.26-0.29-0.42-0.53-0.4
				c-0.18,0.01-0.13,0.28,0.04,0.27c0.25-0.01,0.3,0.35,0.06,0.41c-0.12,0.03-0.18,0.22-0.03,0.26c0.15,0.04,0.18,0.22,0.11,0.34
				c-0.08,0.17-0.28,0.26-0.44,0.34c-0.1,0.05-0.11,0.21,0,0.25c0.26,0.1,0.21,0.5-0.08,0.5c-0.11,0-0.21,0.13-0.12,0.22
				c0.07,0.07,0.14,0.16,0.15,0.27c0,0.1-0.1,0.22-0.2,0.15C88.99,39.23,88.88,39.34,88.94,39.42L88.94,39.42z"/>
		</g>
	</g>
	<g>
		<g>
			<path class="st3" d="M89.58,36.05c0.28-0.15,0.56-0.38,0.5-0.73c-0.05-0.29-0.39-0.45-0.63-0.27c0.07,0.07,0.13,0.13,0.2,0.2
				c0.17-0.28,0.38-0.62,0.22-0.95c-0.12-0.25-0.4-0.4-0.66-0.28c0.05,0.08,0.1,0.17,0.15,0.25c0.16-0.12,0.21-0.33,0.16-0.53
				c-0.05-0.2-0.21-0.34-0.4-0.41c-0.21-0.08-0.43-0.07-0.64-0.06c-0.25,0.02-0.5,0.01-0.74-0.02c-0.25-0.03-0.49-0.1-0.72-0.2
				c-0.2-0.08-0.41-0.17-0.63-0.14c-0.19,0.03-0.37,0.14-0.44,0.32c-0.07,0.18-0.01,0.39,0.16,0.49c0.17,0.11,0.34-0.12,0.19-0.25
				c-0.19-0.17-0.49-0.15-0.69,0.01c-0.22,0.17-0.28,0.48-0.21,0.74c0.08-0.05,0.16-0.09,0.24-0.14c-0.2-0.17-0.52-0.16-0.71,0.04
				c-0.18,0.2-0.17,0.52,0.02,0.7c0.06-0.07,0.11-0.15,0.17-0.22c-0.26-0.1-0.55-0.04-0.73,0.17c-0.18,0.2-0.21,0.52-0.08,0.75
				c0.09,0.17,0.36,0.05,0.27-0.12c-0.16-0.3,0.1-0.66,0.44-0.54c0.16,0.06,0.25-0.14,0.14-0.25c-0.08-0.08-0.08-0.23,0-0.31
				c0.09-0.09,0.22-0.07,0.31,0c0.09,0.08,0.27-0.01,0.24-0.14c-0.04-0.14-0.04-0.32,0.07-0.43c0.09-0.09,0.24-0.11,0.34-0.03
				c0.06-0.08,0.12-0.16,0.19-0.25c-0.12-0.07-0.03-0.21,0.07-0.24c0.14-0.05,0.29,0,0.42,0.05c0.32,0.12,0.64,0.23,0.98,0.28
				c0.33,0.04,0.65-0.01,0.98-0.01c0.15,0,0.31,0.03,0.42,0.13c0.1,0.09,0.13,0.25,0.03,0.35c-0.12,0.1-0.01,0.33,0.15,0.25
				c0.13-0.07,0.26,0.07,0.3,0.19c0.05,0.2-0.1,0.44-0.2,0.61c-0.09,0.13,0.06,0.29,0.2,0.2c0.13-0.09,0.2,0.13,0.18,0.22
				c-0.04,0.17-0.2,0.31-0.31,0.42C89.43,35.96,89.49,36.1,89.58,36.05L89.58,36.05z"/>
		</g>
	</g>
	<g>
		<g>
			<path class="st3" d="M84.31,35.73c-0.13-0.24-0.46-0.18-0.59,0.03c-0.17,0.28-0.01,0.59,0.15,0.82c0.07-0.07,0.13-0.14,0.2-0.2
				c-0.2-0.15-0.49-0.08-0.63,0.13c-0.15,0.22-0.08,0.51,0.05,0.73c0.06-0.07,0.13-0.13,0.19-0.2c-0.23-0.11-0.49,0.03-0.59,0.24
				c-0.12,0.25,0,0.52,0.14,0.73c0.04-0.08,0.09-0.16,0.13-0.24c-0.49-0.06-0.74,0.55-0.36,0.86c0.05-0.08,0.1-0.17,0.14-0.25
				c-0.23-0.13-0.55-0.04-0.69,0.19c-0.13,0.23-0.04,0.55,0.18,0.69c0.16,0.09,0.33-0.13,0.17-0.23c-0.26-0.16-0.05-0.52,0.22-0.37
				c0.15,0.08,0.27-0.15,0.14-0.25c-0.16-0.13-0.05-0.36,0.15-0.34c0.13,0.01,0.2-0.14,0.13-0.24c-0.07-0.11-0.15-0.24-0.12-0.38
				c0.02-0.11,0.13-0.19,0.23-0.14c0.11,0.05,0.26-0.09,0.19-0.2c-0.06-0.11-0.12-0.23-0.1-0.36c0.02-0.1,0.13-0.22,0.24-0.15
				c0.13,0.09,0.3-0.07,0.2-0.2c-0.09-0.12-0.19-0.25-0.19-0.4c0.01-0.14,0.12-0.23,0.25-0.16C84.23,35.9,84.37,35.83,84.31,35.73
				L84.31,35.73z"/>
		</g>
	</g>
	<g>
		<g>
			<path class="st3" d="M81.82,43.91c-0.12,0.02-0.24-0.12-0.23-0.24c0.02-0.16,0.21-0.23,0.35-0.21c0.17,0.02,0.2-0.2,0.07-0.27
				c-0.3-0.15-0.25-0.61,0.08-0.69c0.12-0.03,0.16-0.17,0.06-0.25c-0.23-0.21-0.11-0.54,0.17-0.63c0.1-0.03,0.12-0.19,0.03-0.24
				c-0.32-0.19-0.27-0.66,0.12-0.72c0.13-0.02,0.14-0.17,0.06-0.25c-0.14-0.14-0.32-0.33-0.31-0.54c0.01-0.14,0.15-0.31,0.3-0.25
				c0.16,0.07,0.27-0.19,0.1-0.26c-0.28-0.11-0.57,0.1-0.65,0.37c-0.1,0.34,0.14,0.66,0.36,0.88c0.03-0.07,0.06-0.15,0.09-0.22
				c-0.28,0.04-0.51,0.25-0.56,0.52c-0.06,0.27,0.08,0.56,0.32,0.7c0.01-0.08,0.02-0.16,0.03-0.24c-0.5,0.15-0.6,0.78-0.23,1.11
				c0.02-0.08,0.04-0.17,0.06-0.25c-0.27,0.07-0.49,0.28-0.52,0.57c-0.03,0.28,0.13,0.54,0.38,0.67c0.02-0.09,0.04-0.18,0.07-0.27
				c-0.3-0.04-0.67,0.17-0.66,0.51c0.01,0.29,0.28,0.49,0.55,0.41C81.98,44.06,81.93,43.89,81.82,43.91L81.82,43.91z"/>
		</g>
	</g>
	<g>
		<g>
			<path class="st3" d="M82.21,43.34c0.21,0.21,0.43,0.41,0.64,0.61c0.1,0.1,0.2,0.2,0.3,0.3c0.05,0.05,0.1,0.1,0.15,0.15
				c0.06,0.06,0.11,0.13,0.19,0.16c0.1,0.04,0.19-0.06,0.15-0.16c-0.03-0.07-0.09-0.13-0.15-0.18c-0.05-0.05-0.11-0.11-0.16-0.16
				c-0.1-0.1-0.21-0.2-0.31-0.29c-0.22-0.2-0.44-0.39-0.68-0.57C82.26,43.15,82.13,43.26,82.21,43.34L82.21,43.34z"/>
		</g>
	</g>
	<g>
		<g>
			<path class="st3" d="M82.41,42.72c0.42,0.46,0.86,0.9,1.34,1.28c0.14,0.11,0.31-0.11,0.17-0.22c-0.47-0.37-0.94-0.75-1.36-1.18
				C82.48,42.52,82.33,42.63,82.41,42.72L82.41,42.72z"/>
		</g>
	</g>
	<g>
		<g>
			<path class="st3" d="M82.63,42.36c0.32,0.27,0.63,0.56,0.95,0.82c0.14,0.11,0.31-0.11,0.17-0.22c-0.33-0.26-0.67-0.5-1.01-0.75
				C82.64,42.14,82.54,42.29,82.63,42.36L82.63,42.36z"/>
		</g>
	</g>
	<g>
		<g>
			<path class="st3" d="M82.93,41.96c0.11,0.08,0.22,0.16,0.32,0.24c0.05,0.04,0.1,0.08,0.16,0.12c0.07,0.05,0.13,0.1,0.22,0.12
				c0.05,0.01,0.1-0.02,0.13-0.07c0.03-0.05,0.02-0.1-0.01-0.14c-0.04-0.06-0.11-0.09-0.17-0.13c-0.06-0.04-0.13-0.07-0.19-0.11
				c-0.11-0.06-0.22-0.12-0.33-0.19c-0.05-0.03-0.11-0.03-0.14,0.02C82.88,41.86,82.88,41.93,82.93,41.96L82.93,41.96z"/>
		</g>
	</g>
	<g>
		<g>
			<path class="st3" d="M84.1,37.66c0.11,0.11,0.26,0.18,0.39,0.26c0.12,0.08,0.25,0.15,0.37,0.23c0.12,0.08,0.24,0.16,0.36,0.24
				c0.13,0.09,0.25,0.2,0.39,0.27c0.12,0.05,0.24-0.11,0.15-0.21c-0.1-0.11-0.25-0.19-0.38-0.28c-0.13-0.09-0.26-0.17-0.4-0.25
				c-0.14-0.08-0.27-0.16-0.41-0.23c-0.13-0.07-0.27-0.14-0.42-0.17C84.08,37.5,84.05,37.61,84.1,37.66L84.1,37.66z"/>
		</g>
	</g>
	<g>
		<g>
			<path class="st3" d="M84.3,37.27c0.25,0.15,0.51,0.28,0.77,0.42c0.26,0.13,0.52,0.28,0.79,0.39c0.07,0.03,0.15-0.01,0.17-0.07
				c0.03-0.07-0.01-0.14-0.07-0.17c-0.25-0.14-0.52-0.25-0.78-0.37c-0.26-0.12-0.52-0.24-0.79-0.35
				C84.3,37.07,84.21,37.21,84.3,37.27L84.3,37.27z"/>
		</g>
	</g>
	<g>
		<g>
			<path class="st3" d="M84.93,37.06c0.16,0.08,0.31,0.16,0.46,0.26c0.07,0.05,0.15,0.09,0.22,0.14c0.09,0.06,0.18,0.15,0.29,0.14
				c0.06-0.01,0.13-0.08,0.11-0.15c-0.01-0.04-0.02-0.08-0.06-0.11c-0.02-0.01-0.03-0.02-0.05-0.03c-0.04-0.02-0.08-0.05-0.12-0.07
				c-0.09-0.05-0.17-0.1-0.26-0.14c-0.17-0.08-0.34-0.15-0.52-0.21C84.88,36.85,84.83,37,84.93,37.06L84.93,37.06z"/>
		</g>
	</g>
	<g>
		<g>
			<path class="st3" d="M85.01,36.49c0.24,0.1,0.48,0.21,0.72,0.31c0.07,0.03,0.16-0.01,0.19-0.08c0.02-0.07,0-0.16-0.08-0.19
				c-0.25-0.08-0.5-0.16-0.75-0.24c-0.05-0.02-0.11,0-0.13,0.06C84.93,36.41,84.96,36.46,85.01,36.49L85.01,36.49z"/>
		</g>
	</g>
	<g>
		<g>
			<path class="st3" d="M89.06,34.3c-0.09-0.28-0.46-0.4-0.71-0.25c-0.26,0.16-0.3,0.54-0.1,0.76c0.05-0.07,0.1-0.13,0.15-0.2
				c-0.25-0.08-0.53-0.02-0.69,0.2c-0.16,0.22-0.14,0.52,0.01,0.73c0.04-0.08,0.08-0.15,0.13-0.23c-0.5-0.05-0.86,0.46-0.66,0.92
				c0.05-0.07,0.1-0.14,0.15-0.21c-0.4-0.07-0.6,0.5-0.22,0.66c0.16,0.07,0.25-0.14,0.14-0.25c-0.06-0.06-0.05-0.14,0.05-0.12
				c0.11,0.02,0.2-0.11,0.15-0.21c-0.11-0.26,0.07-0.53,0.36-0.52c0.12,0.01,0.2-0.13,0.13-0.23c-0.2-0.26,0.05-0.62,0.36-0.52
				c0.11,0.04,0.24-0.1,0.15-0.2c-0.1-0.11-0.1-0.31,0.04-0.39c0.14-0.08,0.32,0.01,0.39,0.14C88.95,34.5,89.09,34.39,89.06,34.3
				L89.06,34.3z"/>
		</g>
	</g>
	<g>
		<g>
			<path class="st3" d="M86.7,38.96c0.18-0.27-0.11-0.6-0.4-0.48c-0.34,0.14-0.33,0.55-0.18,0.82c0.03-0.06,0.07-0.12,0.1-0.18
				c-0.54,0.08-0.84,0.62-0.68,1.13c0.08-0.06,0.16-0.12,0.24-0.19c-0.18-0.11-0.39-0.09-0.55,0.05c-0.18,0.15-0.22,0.39-0.25,0.61
				c-0.02,0.12-0.03,0.24-0.09,0.35c-0.05,0.09-0.12,0.17-0.15,0.27c-0.07,0.17-0.06,0.4,0.11,0.51c0.14,0.09,0.32-0.07,0.21-0.22
				c-0.08-0.1-0.02-0.2,0.04-0.29c0.08-0.13,0.14-0.25,0.17-0.39c0.04-0.16,0.06-0.77,0.37-0.61c0.13,0.07,0.24-0.09,0.2-0.21
				c-0.13-0.34,0.08-0.68,0.44-0.74c0.11-0.02,0.13-0.13,0.08-0.21c-0.07-0.11-0.12-0.28-0.03-0.4c0.08-0.1,0.3-0.06,0.22,0.09
				C86.48,38.96,86.64,39.04,86.7,38.96L86.7,38.96z"/>
		</g>
	</g>
	<g>
		<g>
			<path class="st3" d="M84.46,42.85c-0.11,0-0.21,0.02-0.3,0.1c-0.09,0.07-0.15,0.17-0.18,0.29c-0.05,0.22,0.06,0.47,0.25,0.58
				c0.01-0.08,0.02-0.16,0.03-0.24c-0.26,0.12-0.45,0.37-0.47,0.65c-0.01,0.13,0.01,0.27,0.06,0.39c0.05,0.12,0.14,0.28,0.27,0.32
				c0.1,0.04,0.23-0.07,0.18-0.18c-0.04-0.09-0.12-0.15-0.16-0.24c-0.04-0.08-0.05-0.16-0.05-0.25c0.01-0.18,0.13-0.35,0.29-0.44
				c0.12-0.06,0.11-0.2,0-0.26c-0.24-0.13-0.12-0.48,0.12-0.51C84.62,43.03,84.59,42.84,84.46,42.85L84.46,42.85z"/>
		</g>
	</g>
	<g>
		<g>
			<path class="st3" d="M86.05,33.88c0.08,0.09,0.2,0.15,0.31,0.21c0.1,0.06,0.21,0.1,0.31,0.15c0.11,0.05,0.21,0.09,0.32,0.13
				c0.12,0.04,0.24,0.09,0.37,0.1c0.15,0.02,0.19-0.19,0.06-0.25c-0.11-0.05-0.22-0.07-0.33-0.11c-0.11-0.04-0.22-0.08-0.33-0.12
				c-0.11-0.04-0.21-0.09-0.32-0.13c-0.1-0.04-0.21-0.1-0.32-0.12C86.06,33.73,86,33.83,86.05,33.88L86.05,33.88z"/>
		</g>
	</g>
	<g>
		<g>
			<path class="st3" d="M86.52,34.54c0.05,0.02,0.1,0.05,0.15,0.07c0.05,0.02,0.11,0.04,0.16,0.06c0.05,0.02,0.11,0.04,0.16,0.05
				c0.07,0.02,0.14,0.05,0.22,0.05c0.05,0,0.1-0.05,0.11-0.1c0.01-0.05,0-0.11-0.05-0.14c-0.06-0.04-0.14-0.05-0.21-0.07
				c-0.06-0.01-0.11-0.03-0.17-0.04c-0.05-0.01-0.11-0.02-0.16-0.03c-0.06-0.01-0.11-0.01-0.17-0.02
				C86.46,34.35,86.43,34.5,86.52,34.54L86.52,34.54z"/>
		</g>
	</g>
	<g>
		<path class="st3" d="M88.06,36.23c-0.18-0.07-0.29,0.2-0.11,0.27C88.12,36.58,88.23,36.3,88.06,36.23z"/>
	</g>
	<g>
		<path class="st3" d="M88.96,36.15c-0.18-0.07-0.29,0.2-0.11,0.27C89.03,36.49,89.14,36.22,88.96,36.15z"/>
	</g>
	<g>
		<path class="st3" d="M88.35,37.98c-0.18-0.07-0.29,0.2-0.11,0.27C88.42,38.32,88.53,38.05,88.35,37.98z"/>
	</g>
	<g>
		<path class="st3" d="M86.06,41.97c0-0.02,0-0.04-0.01-0.06c-0.01-0.02-0.02-0.03-0.03-0.05c-0.01-0.02-0.03-0.03-0.05-0.03
			c-0.01,0-0.03-0.01-0.04-0.01c-0.03,0-0.05,0-0.07,0.01c-0.01,0.01-0.02,0.01-0.03,0.02c-0.02,0.02-0.04,0.04-0.05,0.06
			l-0.01,0.02c-0.01,0.02-0.01,0.04-0.01,0.06c0,0.02,0,0.04,0.01,0.06c0.01,0.02,0.02,0.03,0.03,0.05
			c0.01,0.02,0.03,0.03,0.05,0.03c0.01,0,0.03,0.01,0.04,0.01c0.03,0,0.05,0,0.07-0.01L86,42.1c0.02-0.02,0.04-0.04,0.05-0.06
			l0.01-0.02C86.06,42,86.07,41.99,86.06,41.97z"/>
	</g>
	<g>
		<path class="st3" d="M87.01,41.14c0-0.02,0-0.04-0.01-0.06c-0.01-0.02-0.02-0.03-0.03-0.05c-0.01-0.02-0.03-0.03-0.05-0.03
			C86.9,41,86.89,41,86.88,41c-0.03,0-0.05,0-0.07,0.01c-0.01,0.01-0.02,0.01-0.03,0.02c-0.02,0.02-0.04,0.04-0.05,0.06l-0.02,0.04
			c-0.01,0.02-0.01,0.04-0.01,0.06c0,0.02,0,0.04,0.01,0.06c0.01,0.02,0.02,0.03,0.03,0.05c0.01,0.02,0.03,0.03,0.05,0.03
			c0.01,0,0.03,0.01,0.04,0.01c0.03,0,0.05,0,0.07-0.01c0.01-0.01,0.02-0.01,0.03-0.02c0.02-0.02,0.04-0.04,0.05-0.06L87,41.2
			C87,41.18,87.01,41.16,87.01,41.14z"/>
	</g>
	<g>
		<path class="st3" d="M86.88,42.1c0-0.02,0-0.04-0.01-0.06c-0.01-0.02-0.02-0.03-0.03-0.05c-0.01-0.02-0.03-0.03-0.05-0.03
			c-0.01,0-0.03-0.01-0.04-0.01c-0.03,0-0.05,0-0.07,0.01l-0.03,0.02c-0.02,0.02-0.04,0.04-0.05,0.06l-0.01,0.02
			c-0.01,0.02-0.01,0.04-0.01,0.06c0,0.02,0,0.04,0.01,0.06c0.01,0.02,0.02,0.03,0.03,0.05c0.01,0.02,0.03,0.03,0.05,0.03
			c0.01,0,0.03,0.01,0.04,0.01c0.03,0,0.05,0,0.07-0.01c0.01-0.01,0.02-0.01,0.03-0.02c0.02-0.02,0.04-0.04,0.05-0.06l0.01-0.02
			C86.88,42.14,86.88,42.12,86.88,42.1z"/>
	</g>
	<g>
		<path class="st3" d="M85.8,42.96c-0.18-0.07-0.29,0.2-0.11,0.27C85.87,43.31,85.98,43.04,85.8,42.96z"/>
	</g>
	<g>
		<path class="st3" d="M86.12,40.64c-0.18-0.07-0.29,0.2-0.11,0.27C86.18,40.99,86.29,40.71,86.12,40.64z"/>
	</g>
	<g>
		<path class="st3" d="M87.42,40.85c-0.18-0.07-0.29,0.2-0.11,0.27C87.49,41.2,87.6,40.92,87.42,40.85z"/>
	</g>
</g>
<g>
	<g>
		<path class="st1" d="M44.65,46.76c0.29,0.72,0.28,1.52,0.27,2.3c-0.07,3.59-0.13,7.17-0.2,10.76c-3.85-0.37-7.7-0.74-11.55-1.12
			c-0.74-0.07-1.49-0.15-2.15-0.49c-0.43-0.23-0.81-0.6-1-1.04c-0.1-0.23-0.15-0.47-0.13-0.72c0.07-0.94,1-1.56,1.38-2.42
			c0.46-1.05,0.01-2.32-0.81-3.12c-0.82-0.8-1.94-1.2-3.04-1.51c-1.1-0.31-2.24-0.55-3.25-1.08c-0.78-0.42-1.49-1.05-1.81-1.88
			c-0.05-0.13-0.09-0.26-0.12-0.4c-0.14-0.74,0.05-1.56,0.63-2.05c0.76-0.64,1.97-0.6,2.62-1.35c0.77-0.89,0.21-2.37-0.75-3.06
			c-0.96-0.69-2.17-0.89-3.27-1.32c-0.6-0.24-1.18-0.56-1.58-1.06c-0.4-0.5-0.58-1.21-0.32-1.8c0.31-0.71,1.12-1.04,1.67-1.59
			c1.23-1.23,0.92-3.35,0.03-4.85c-0.89-1.5-2.25-2.68-3.08-4.21c-0.57-1.05-0.72-2.65,0.34-3.2c0.94-0.49,2.03,0.24,2.83,0.93
			l5.12,4.39c0.23,0.2,0.46,0.4,0.69,0.59c0.51,0.44,1.02,0.88,1.51,1.34c1.73,1.61,3.3,3.79,2.97,6.13
			c-0.13,0.88-0.39,2.04,0.41,2.43c0.85,0.41,1.61-0.68,2.46-1.1c0.99-0.5,2.26,0,2.92,0.88c0.66,0.89,0.82,2.05,0.8,3.16
			c-0.02,1.11-0.21,2.21-0.14,3.31c0.04,0.68,0.18,1.38,0.56,1.94c0.38,0.56,1.05,0.97,1.73,0.9c0.91-0.09,1.61-0.96,2.52-1
			C43.67,45.42,44.35,46.04,44.65,46.76z"/>
	</g>
	<g>
		<g>
			<path class="st3" d="M44.83,62.12c-0.77-2.72-2.09-5.24-3.67-7.57c-1.63-2.4-3.52-4.62-5.41-6.82c-1.97-2.29-3.96-4.59-5.65-7.1
				c-0.85-1.26-1.6-2.56-2.27-3.92c-0.64-1.3-1.2-2.64-1.79-3.96c-1.15-2.59-2.42-5.21-4.42-7.26c-0.24-0.24-0.49-0.48-0.74-0.7
				c-0.17-0.14-0.37,0.12-0.21,0.27c2.14,1.95,3.51,4.48,4.69,7.08c1.2,2.64,2.29,5.32,3.84,7.79c1.61,2.56,3.56,4.89,5.53,7.18
				c1.89,2.2,3.81,4.38,5.51,6.73c1.65,2.28,3.1,4.73,4.02,7.4c0.11,0.33,0.22,0.66,0.31,1C44.61,62.41,44.88,62.3,44.83,62.12
				L44.83,62.12z"/>
		</g>
	</g>
	<g>
		<g>
			<path class="st3" d="M29.71,47.88c2.42,0.74,4.76,1.71,7,2.87c0.64,0.33,1.28,0.69,1.9,1.05c0.11,0.06,0.28-0.02,0.22-0.16
				c-1.11-2.4-2.04-4.87-2.77-7.41c-0.1-0.35-0.2-0.69-0.29-1.04c-0.1-0.37-0.17-0.75-0.31-1.1c-0.05-0.13-0.25-0.08-0.23,0.06
				c0.04,0.31,0.13,0.62,0.21,0.93c0.09,0.33,0.18,0.65,0.27,0.98c0.18,0.64,0.38,1.28,0.58,1.91c0.41,1.25,0.87,2.49,1.37,3.71
				c0.29,0.7,0.59,1.39,0.91,2.07c0.07-0.05,0.14-0.11,0.22-0.16c-2.2-1.29-4.51-2.38-6.91-3.25c-0.68-0.25-1.37-0.48-2.07-0.69
				C29.65,47.6,29.56,47.83,29.71,47.88L29.71,47.88z"/>
		</g>
	</g>
	<g>
		<g>
			<path class="st3" d="M21.84,36.49c2.02,0.68,3.98,1.55,5.84,2.59c0.54,0.3,1.06,0.62,1.58,0.95c0.09,0.06,0.24,0,0.22-0.13
				c-0.41-2.39-0.49-4.79-0.33-7.21c0.01-0.19-0.27-0.23-0.29-0.04c-0.22,2.42-0.08,4.89,0.35,7.28c0.07-0.04,0.15-0.08,0.22-0.13
				c-1.82-1.16-3.74-2.14-5.75-2.93c-0.57-0.23-1.15-0.43-1.74-0.63C21.78,36.21,21.68,36.44,21.84,36.49L21.84,36.49z"/>
		</g>
	</g>
</g>
<g>
	<g>
		<path class="st0" d="M36.53,52.98c1.07,0.95,1.78,2.24,2.2,3.61c0.13,0.44,0.24,0.88,0.31,1.33c0.31,1.8,0.22,3.64,0.12,5.47
			c-5.15,0.84-10.71-1.64-13.48-6.07c-0.82-1.3-1.4-2.74-2.22-4.04c-0.82-1.3-1.94-2.5-3.41-2.96c-1.92-0.6-4.09,0.16-5.99-0.51
			c-1.52-0.54-2.59-1.91-3.34-3.34c-0.75-1.43-1.26-2.98-2.12-4.34c-1.49-2.34-4.04-3.98-6.79-4.36c1.9-1.86,4.48-3.02,7.14-3.19
			c2.66-0.17,5.36,0.65,7.48,2.26c0.97,0.74,1.82,1.63,2.91,2.17c2.93,1.45,6.93,0.03,9.39,2.17c1.3,1.13,1.69,2.86,2.08,4.59
			c0.35,1.51,0.7,3.04,1.67,4.19C33.57,51.26,35.27,51.86,36.53,52.98z"/>
	</g>
	<g>
		<g>
			<path class="st3" d="M4.35,37.34c1.16-0.83,2.71-0.75,3.98-0.21c1.53,0.65,2.64,1.99,3.58,3.32c1,1.41,1.88,2.92,3.12,4.13
				c1.09,1.06,2.41,1.68,3.87,2.05c1.38,0.35,2.8,0.49,4.2,0.75c1.5,0.28,2.93,0.74,4.23,1.55c2.68,1.68,4.6,4.33,6.23,6.98
				c1.86,3.01,3.51,6.23,6.12,8.69c0.33,0.31,0.67,0.6,1.02,0.87c0.17,0.13,0.37-0.13,0.2-0.26c-2.87-2.26-4.75-5.52-6.61-8.6
				c-1.66-2.74-3.49-5.51-6.11-7.43c-1.23-0.9-2.59-1.53-4.06-1.9c-1.41-0.35-2.85-0.51-4.27-0.81c-1.45-0.31-2.85-0.8-4.02-1.75
				c-1.39-1.13-2.33-2.7-3.34-4.16c-0.95-1.37-2.02-2.75-3.52-3.56c-1.19-0.64-2.67-0.87-3.96-0.39c-0.31,0.12-0.6,0.28-0.87,0.47
				C3.98,37.2,4.18,37.46,4.35,37.34L4.35,37.34z"/>
		</g>
	</g>
	<g>
		<g>
			<path class="st3" d="M27.18,54.87c2.04,0.35,4.04,0.95,5.93,1.81c0.54,0.24,1.08,0.5,1.59,0.79c0.1,0.06,0.19-0.05,0.19-0.14
				c0.01-2.03-0.32-4.13-1.01-6.04c-0.06-0.17-0.31-0.07-0.26,0.1c0.3,0.97,0.57,1.95,0.74,2.96c0.17,0.99,0.25,2,0.27,3.01
				c0.06-0.05,0.12-0.09,0.19-0.14c-1.86-0.98-3.81-1.74-5.85-2.24c-0.58-0.14-1.16-0.26-1.74-0.35
				C27.06,54.6,27.03,54.84,27.18,54.87L27.18,54.87z"/>
		</g>
	</g>
	<g>
		<g>
			<path class="st3" d="M21.28,48.96c1.88-0.34,3.78-0.51,5.69-0.51c0.09,0,0.15-0.12,0.12-0.2c-0.95-2.22-2.36-4.33-4.17-5.95
				c-0.14-0.12-0.29,0.1-0.17,0.22c0.85,0.84,1.64,1.73,2.33,2.71c0.69,0.98,1.27,2.02,1.74,3.12c0.04-0.07,0.08-0.13,0.12-0.2
				c-1.91,0.01-3.81,0.2-5.69,0.55C21.09,48.74,21.12,48.99,21.28,48.96L21.28,48.96z"/>
		</g>
	</g>
	<g>
		<g>
			<path class="st3" d="M12.42,44.44c0.62,0.13,1.24,0.26,1.86,0.38c0.3,0.06,0.61,0.13,0.91,0.19c0.2,0.04,0.53,0.19,0.7,0.03
				c0.16-0.15,0.05-0.41-0.01-0.58c-0.1-0.31-0.2-0.61-0.3-0.92c-0.19-0.59-0.39-1.18-0.59-1.77c-0.11-0.33-0.22-0.65-0.33-0.98
				c-0.06-0.17-0.12-0.35-0.17-0.52c-0.06-0.17-0.1-0.36-0.19-0.52c-0.08-0.14-0.32-0.11-0.29,0.08c0.05,0.34,0.22,0.69,0.33,1.02
				c0.12,0.35,0.23,0.7,0.35,1.05c0.23,0.68,0.45,1.35,0.69,2.02c0.06,0.17,0.12,0.35,0.18,0.52c0.03,0.09,0.06,0.17,0.09,0.26
				c0.01,0.04,0.03,0.07,0.04,0.11c0,0.03-0.02,0.03-0.05,0.01c-0.06,0.02-0.21-0.04-0.27-0.05c-0.07-0.01-0.14-0.03-0.2-0.04
				c-0.18-0.04-0.36-0.07-0.54-0.1c-0.72-0.14-1.45-0.29-2.17-0.43C12.3,44.17,12.27,44.41,12.42,44.44L12.42,44.44z"/>
		</g>
	</g>
</g>
<g>
	<g>
		<path class="st4" d="M77.94,47.01c-0.19,0.68-0.53,1.31-0.95,1.87c-0.64,0.83-1.49,1.52-2.43,2.01c-0.42,0.22-0.85,0.41-1.29,0.56
			l0.04,0.1c0.22,0.5-0.29,1.03-0.27,1.57c0.02,0.58,0.65,1.04,0.6,1.61c-0.62,0.42-1.19,0.91-1.71,1.46
			c-1.76,1.89-2.79,4.37-4.43,6.36c-0.17,0.21-0.35,0.41-0.53,0.6c-1.83,1.94-4.36,3.13-6.96,3.73c-2.6,0.6-5.3,0.66-7.97,0.62
			h-0.21c-1.86,0.02-3.73,0.01-5.57-0.21h0c-0.81-0.09-1.61-0.23-2.4-0.41c-2.6-0.6-5.13-1.79-6.96-3.73
			c-1.1-1.17-1.91-2.56-2.76-3.93c-0.57-0.91-1.15-1.81-1.84-2.63l0.23-0.07c-0.72-2.28-0.6-4.79,0.18-7.05
			c0.51-1.48,1.28-2.85,2.24-4.08c0.51-0.66,1.07-1.28,1.67-1.86c0.26-0.25,0.54-0.5,0.82-0.74c1-0.84,2.1-1.58,3.26-2.16
			c1.07-0.54,2.2-0.95,3.38-1.22c0.14-0.03,0.29-0.06,0.43-0.09c1.71-0.32,3.49-0.32,5.19,0.05c0.39,0.08,0.77,0.19,1.15,0.31
			c0.09,0.02,0.19,0.04,0.28,0.06c0.26,0.06,0.52,0.13,0.77,0.21c0.63,0.21,1.25,0.47,1.84,0.76c0.05,0.02,0.09,0.04,0.14,0.06
			c0.26,0.11,0.52,0.24,0.78,0.37C55,41.32,55.3,41.5,55.6,41.7c0.2-0.51,0.4-1.03,0.58-1.55v0l-0.3-0.1
			c-0.43-0.5-0.65-1.14-0.72-1.8c-0.02-0.17-0.03-0.33-0.03-0.5c0-0.07,0-0.15,0-0.22c0.01-0.24,0.03-0.49,0.06-0.73
			c0.06-0.5,0.17-1,0.26-1.5c0.24-1.25,0.43-2.5,0.58-3.76c0.05-0.42,0.12-0.89,0.46-1.14c0.23-0.17,0.54-0.19,0.82-0.13
			c0.28,0.06,0.53,0.21,0.77,0.36c1.59,0.98,2.99,2.25,4.16,3.7l0.02,0.1c1.38-0.29,2.76-0.54,4.16-0.59
			c0.91-0.04,1.82,0.01,2.71,0.18l1.52,0c1.39-1.58,2.98-3.11,5-3.72c0.3-0.09,0.64-0.15,0.89,0.02c0.28,0.19,0.33,0.59,0.34,0.93
			c0.09,1.77,0.18,3.55,0.26,5.32c0.06,1.15,0.09,2.39-0.54,3.35l-0.39,0.13c0.51,0.8,0.98,1.63,1.33,2.51
			C78.11,43.96,78.36,45.55,77.94,47.01z"/>
	</g>
	<g>
		<path class="st1" d="M59.02,36.28c-0.17,0.24-0.46,0.42-0.69,0.6c-0.91,0.72-1.95,1.5-2.19,2.7c0.01,0.01,0.01,0.03,0.02,0.04
			c0.06,0.1-0.07,0.25-0.17,0.17c0,0,0,0,0,0c-0.05-0.01-0.1-0.04-0.11-0.1c-0.34-0.32-0.49-0.78-0.58-1.24
			c-0.12-0.57-0.13-1.16-0.07-1.75c0.1-1.05,0.39-2.07,0.6-3.11c0.11-0.54,0.19-1.08,0.22-1.63c0.03-0.4,0.12-0.86,0.55-1.01
			c0.47-0.16,0.71,0.32,0.89,0.66c0.23,0.43,0.41,0.89,0.57,1.35c0.05,0.14,0.09,0.28,0.13,0.42c0.01,0.03,0.02,0.05,0.03,0.08
			c0.26,0.66,0.51,1.33,0.77,2C59.1,35.75,59.21,36.03,59.02,36.28z"/>
	</g>
	<g>
		<path class="st1" d="M76.82,38.22c-0.05,0.52-0.08,1.16-0.45,1.57c-0.01,0.03-0.03,0.05-0.06,0.06c-0.02,0.02-0.04,0.04-0.06,0.06
			c-0.13,0.1-0.31-0.08-0.18-0.18c0,0,0,0,0.01,0c-0.48-0.69-0.98-1.37-1.51-2.02c-0.5-0.63-1.01-1.31-1.69-1.76
			c-0.15-0.1-0.31-0.2-0.46-0.3c-0.11-0.08-0.26-0.16-0.32-0.28c-0.08-0.15,0.02-0.28,0.11-0.4c0.11-0.15,0.22-0.3,0.32-0.45
			c0.43-0.6,0.88-1.19,1.34-1.76c0.4-0.49,0.84-0.96,1.37-1.3c0.36-0.23,1.22-0.66,1.46-0.05c0.12,0.3,0,0.68-0.02,0.99
			c-0.02,0.39-0.02,0.77,0.01,1.16c0.05,0.77,0.17,1.53,0.2,2.3C76.92,36.65,76.9,37.43,76.82,38.22z"/>
	</g>
	<g>
		<path class="st5" d="M58.02,61.59c-0.7,0.97-1.54,1.8-2.51,2.48c-0.94,0.66-2.16,1.37-3.35,1.34c-2.43-0.05-3.63-3.01-3.07-5.07
			c0.08-0.28,0.28-0.42,0.51-0.45c0.53-0.58,1.38-0.93,2.01-1.41c1.64-1.25,3.91-3.98,6.24-3.04
			C60.54,56.54,59.25,59.88,58.02,61.59z"/>
	</g>
	<g>
		<path class="st0" d="M84.06,56.29c-0.86,4.22-1.72,8.45-2.58,12.67c-0.49,2.41-1.08,4.99-2.92,6.61
			c-1.56,1.37-3.72,1.78-5.78,2.04c-6.9,0.87-34.76,0.87-41.66,0c-2.06-0.26-4.22-0.67-5.78-2.04c-1.84-1.62-2.44-4.2-2.93-6.61
			c-0.86-4.22-1.72-8.45-2.58-12.67c-0.12-0.57-0.23-1.18-0.04-1.73c0.11-0.31,0.3-0.56,0.54-0.77c0,0,0-0.01,0.01-0.01
			c1.09-1.12,2.54-1.83,3.85-2.69c1.42-0.94,2.7-2.08,3.79-3.38c0.59-0.71,1.16-1.49,1.99-1.9c1.5-0.74,3.33-0.04,4.94-0.48
			l0.07,0.05c-0.95,1.24-1.73,2.61-2.24,4.08c-0.78,2.26-0.91,4.77-0.18,7.05l-0.23,0.07c0.69,0.81,1.27,1.72,1.84,2.63
			c0.85,1.37,1.66,2.77,2.76,3.93c1.83,1.94,4.36,3.13,6.96,3.73c0.79,0.18,1.59,0.32,2.4,0.41h0c1.84,0.22,3.71,0.24,5.57,0.21
			h0.21c2.67,0.04,5.37-0.02,7.97-0.62c2.6-0.6,5.13-1.79,6.96-3.73c0.18-0.19,0.36-0.4,0.53-0.6c1.63-1.99,2.66-4.47,4.43-6.36
			c0.51-0.55,1.09-1.04,1.71-1.46c0.05-0.57-0.58-1.03-0.6-1.61c-0.02-0.54,0.48-1.07,0.27-1.57l-0.04-0.1
			c0.44-0.16,0.87-0.34,1.29-0.56c0.93-0.49,1.79-1.18,2.43-2.01c0,0,1.3,1.28,2.72,2.22c1.31,0.86,2.76,1.57,3.85,2.69
			c0,0,0,0.01,0.01,0.01c0.24,0.21,0.43,0.46,0.54,0.77C84.29,55.11,84.17,55.72,84.06,56.29z"/>
	</g>
	<g>
		<g>
			<path class="st3" d="M34.89,45.25c-0.59,0.03-1.16,0.07-1.75,0.05c-0.59-0.02-1.18-0.07-1.77-0.03
				c-0.57,0.04-1.14,0.16-1.64,0.44c-0.48,0.27-0.88,0.67-1.24,1.08c-0.39,0.44-0.75,0.91-1.14,1.34c-0.41,0.45-0.84,0.88-1.3,1.28
				c-0.91,0.81-1.91,1.49-2.95,2.13c-1.1,0.67-2.26,1.34-3.09,2.35c-0.13,0.16,0.08,0.38,0.23,0.23c0.8-0.83,1.76-1.46,2.73-2.06
				c1.01-0.62,2.01-1.25,2.92-2.01c0.93-0.77,1.75-1.64,2.52-2.57c0.35-0.43,0.71-0.86,1.16-1.2c0.45-0.34,0.99-0.54,1.55-0.6
				c0.64-0.08,1.29-0.03,1.93-0.01c0.63,0.01,1.33,0.03,1.91-0.26C35.01,45.37,34.98,45.24,34.89,45.25L34.89,45.25z"/>
		</g>
	</g>
	<g>
		<g>
			<path class="st3" d="M52.05,67.63c3.55,0.09,7.21-0.02,10.54-1.36c1.46-0.59,2.84-1.4,4-2.47c1.17-1.08,2.03-2.41,2.87-3.75
				c0.85-1.37,1.68-2.78,2.82-3.93c1.09-1.1,2.43-1.94,3.89-2.46c1.41-0.51,2.92-0.73,4.41-0.62c1.38,0.1,3.49,0.48,3.44,2.26
				c-0.01,0.44-0.12,0.88-0.21,1.32c-0.1,0.5-0.2,1-0.31,1.51c-0.2,0.96-0.39,1.92-0.59,2.89c-0.38,1.88-0.77,3.76-1.15,5.65
				c-0.34,1.66-0.62,3.35-1.11,4.97c-0.43,1.42-1.09,2.82-2.23,3.82c-1.85,1.62-4.53,1.9-6.89,2.11c-1.58,0.14-3.16,0.21-4.75,0.28
				c-4.42,0.18-8.85,0.23-13.27,0.24c-4.64,0.01-9.28-0.02-13.92-0.16c-1.81-0.05-3.63-0.12-5.44-0.23
				c-1.65-0.1-3.32-0.22-4.94-0.57c-1.57-0.33-3.12-0.93-4.22-2.15c-1.01-1.12-1.55-2.57-1.93-4.01c-0.44-1.66-0.73-3.37-1.07-5.05
				c-0.39-1.92-0.78-3.85-1.17-5.77c-0.19-0.94-0.38-1.88-0.58-2.82c-0.09-0.43-0.18-0.86-0.26-1.3c-0.09-0.5-0.16-1.04,0.05-1.52
				c0.31-0.67,1.05-1.01,1.73-1.2c0.73-0.2,1.5-0.27,2.26-0.28c3.03-0.02,6.03,1.28,8.03,3.55c2.15,2.44,3.24,5.64,5.82,7.72
				c2.59,2.1,5.91,2.99,9.18,3.28c1.67,0.15,3.34,0.13,5.02,0.13c0.24,0,0.24-0.38,0-0.38c-3.6,0-7.26-0.03-10.65-1.4
				c-1.53-0.62-2.97-1.5-4.14-2.67c-1.2-1.2-2.06-2.68-2.95-4.12c-0.84-1.35-1.73-2.69-2.93-3.75c-1.14-1-2.48-1.75-3.92-2.21
				c-1.42-0.46-2.94-0.63-4.43-0.48c-1.25,0.13-2.94,0.46-3.42,1.82c-0.29,0.82,0.03,1.77,0.19,2.58c0.2,0.96,0.39,1.92,0.59,2.89
				c0.4,1.97,0.8,3.93,1.2,5.9c0.36,1.76,0.66,3.54,1.13,5.27c0.38,1.41,0.92,2.81,1.87,3.93c1.78,2.09,4.67,2.54,7.26,2.79
				c1.53,0.15,3.06,0.23,4.6,0.3c4.51,0.2,9.03,0.25,13.54,0.27c4.75,0.02,9.5-0.02,14.25-0.16c1.86-0.05,3.72-0.12,5.58-0.24
				c1.73-0.11,3.48-0.24,5.17-0.62c1.53-0.35,3.03-0.97,4.11-2.13c1.01-1.08,1.59-2.46,1.99-3.86c0.49-1.7,0.78-3.45,1.13-5.18
				c0.39-1.92,0.78-3.85,1.18-5.77c0.2-1,0.41-2.01,0.61-3.01c0.17-0.83,0.48-1.77,0.35-2.62c-0.23-1.48-1.89-1.95-3.15-2.12
				c-3.01-0.41-6.15,0.52-8.48,2.45c-2.57,2.14-3.62,5.45-5.88,7.85c-2.39,2.54-5.87,3.7-9.26,4.1c-1.84,0.22-3.7,0.25-5.54,0.25
				C51.89,67.38,51.89,67.63,52.05,67.63z"/>
		</g>
	</g>
	<g>
		<g>
			<path class="st3" d="M83.12,54c-2.66-1.32-5.86-0.96-8.31,0.66c-1.14,0.76-2.1,1.75-2.84,2.9c-0.76,1.18-1.32,2.47-1.91,3.74
				c-0.58,1.24-1.2,2.49-2.09,3.54c-0.94,1.11-2.15,1.93-3.49,2.49c-1.88,0.79-3.9,1.07-5.92,1.17c-3.99,0.18-8,0.17-11.99,0.05
				c-1.76-0.05-3.5-0.15-5.21-0.58c-1.38-0.35-2.71-0.88-3.88-1.7c-1.18-0.83-2.06-1.97-2.76-3.22c-1.34-2.4-2.12-5.14-4.09-7.14
				c-2.02-2.05-4.93-3.12-7.79-2.64c-0.73,0.12-1.44,0.35-2.11,0.66c-0.21,0.1-0.03,0.4,0.18,0.31c2.85-1.33,6.23-0.76,8.65,1.19
				c2.23,1.8,3.17,4.46,4.4,6.94c0.59,1.2,1.29,2.36,2.25,3.3c0.97,0.96,2.17,1.65,3.44,2.14c1.84,0.71,3.79,0.97,5.75,1.06
				c3.97,0.18,7.96,0.17,11.93,0.04c1.67-0.05,3.33-0.14,4.97-0.51c1.33-0.3,2.64-0.78,3.81-1.49c1.16-0.71,2.11-1.67,2.86-2.8
				c1.52-2.31,2.19-5.12,3.95-7.28c1.87-2.31,4.8-3.65,7.78-3.29c0.8,0.1,1.6,0.31,2.34,0.64C83.13,54.19,83.22,54.05,83.12,54
				L83.12,54z"/>
		</g>
	</g>
	<g>
		<g>
			<path class="st3" d="M76.9,48.9c0.08,0.23,0.29,0.42,0.46,0.58c0.41,0.4,0.86,0.76,1.32,1.11c1.04,0.8,2.2,1.41,3.29,2.15
				c0.61,0.41,1.15,0.89,1.68,1.39c0.13,0.12,0.37-0.04,0.25-0.2c-0.38-0.52-0.9-0.93-1.42-1.3c-0.53-0.38-1.09-0.72-1.65-1.06
				c-0.56-0.34-1.12-0.69-1.65-1.08c-0.49-0.36-0.95-0.75-1.41-1.14c-0.23-0.2-0.47-0.46-0.76-0.55
				C76.95,48.77,76.88,48.84,76.9,48.9L76.9,48.9z"/>
		</g>
	</g>
	<g>
		<g>
			<path class="st3" d="M56.61,38.03c-0.1,0.65-0.33,1.3-0.54,1.92c-0.21,0.62-0.46,1.23-0.69,1.84c-0.46,1.21-0.89,2.46-0.87,3.77
				c0.04,2.56,1.87,4.72,4.1,5.8c1.38,0.67,2.92,1,4.45,1.08c0.22,0.01,0.22-0.32,0-0.34c-1.33-0.11-2.66-0.35-3.89-0.87
				c-1.15-0.49-2.19-1.22-2.98-2.2c-0.73-0.91-1.24-2.03-1.31-3.2c-0.08-1.27,0.31-2.49,0.74-3.67c0.25-0.67,0.52-1.34,0.75-2.02
				c0.11-0.33,0.21-0.67,0.28-1.01c0.08-0.35,0.11-0.71,0.14-1.07C56.8,37.95,56.62,37.93,56.61,38.03L56.61,38.03z"/>
		</g>
	</g>
	<g>
		<g>
			<path class="st3" d="M75.19,38.67c0.18,0.28,0.34,0.57,0.52,0.85c0.18,0.29,0.37,0.58,0.54,0.87c0.34,0.57,0.66,1.14,0.94,1.75
				c0.54,1.19,0.88,2.5,0.77,3.82c-0.2,2.39-2.05,4.2-4.16,5.1c-1.37,0.59-2.85,0.83-4.32,1c-0.22,0.02-0.22,0.37,0,0.35
				c2.55-0.23,5.23-0.9,7.08-2.77c0.83-0.84,1.45-1.9,1.66-3.07c0.24-1.33,0.01-2.72-0.48-3.97c-0.28-0.72-0.64-1.41-1.04-2.06
				c-0.2-0.33-0.42-0.66-0.64-0.98c-0.23-0.33-0.48-0.64-0.72-0.97C75.28,38.48,75.13,38.57,75.19,38.67L75.19,38.67z"/>
		</g>
	</g>
	<g>
		<g>
			<path class="st3" d="M73.21,51.55c0.02,0.15,0.02,0.29-0.02,0.44c-0.04,0.14-0.1,0.28-0.16,0.42c-0.11,0.28-0.2,0.57-0.15,0.88
				c0.05,0.27,0.2,0.5,0.34,0.74c0.07,0.12,0.15,0.24,0.19,0.38c0.05,0.13,0.03,0.27,0.07,0.4c0.04,0.12,0.21,0.16,0.28,0.04
				c0.12-0.24-0.03-0.57-0.14-0.79c-0.13-0.26-0.32-0.5-0.39-0.78c-0.08-0.31,0.07-0.61,0.17-0.9c0.09-0.26,0.17-0.61-0.01-0.86
				C73.34,51.44,73.2,51.45,73.21,51.55L73.21,51.55z"/>
		</g>
	</g>
	<g>
		<g>
			<path class="st3" d="M34.58,58.08c0.57,1.84,2.36,2.94,4.13,3.43c1.85,0.51,3.85,0.57,5.74,0.3c1.86-0.26,3.67-0.88,5.29-1.83
				c0.84-0.49,1.61-1.08,2.35-1.73c0.78-0.69,1.53-1.42,2.42-1.97c0.82-0.51,1.78-0.88,2.76-0.8c0.8,0.06,1.62,0.47,2.07,1.15
				c0.11,0.17,0.2,0.34,0.26,0.54c0.07,0.22,0.41,0.13,0.35-0.1c-0.25-0.79-0.88-1.38-1.64-1.7c-0.84-0.35-1.78-0.32-2.64-0.04
				c-1.98,0.65-3.29,2.35-4.91,3.55c-1.52,1.13-3.28,1.92-5.12,2.35c-1.86,0.44-3.82,0.52-5.71,0.2c-1.91-0.32-3.86-1.11-4.89-2.84
				c-0.11-0.19-0.22-0.38-0.31-0.59C34.69,57.94,34.55,58,34.58,58.08L34.58,58.08z"/>
		</g>
	</g>
	<g>
		<g>
			<path class="st3" d="M58.38,57.18c0.22,0.19,0.39,0.41,0.54,0.65c0.07,0.11,0.13,0.24,0.18,0.36c0.03,0.07,0.05,0.13,0.07,0.2
				c0.02,0.08,0.04,0.16,0.08,0.23c0.04,0.06,0.1,0.09,0.17,0.07c0.07-0.02,0.1-0.08,0.11-0.14c0.02-0.15-0.07-0.34-0.13-0.48
				c-0.06-0.14-0.13-0.28-0.22-0.4c-0.18-0.26-0.42-0.47-0.68-0.63C58.41,56.97,58.3,57.1,58.38,57.18L58.38,57.18z"/>
		</g>
	</g>
	<g>
		<g>
			<path class="st3" d="M58.23,58.48c0.44,0.94,0.08,2.01-0.43,2.83c-0.51,0.83-1.17,1.56-1.92,2.17c-1.64,1.34-3.66,2.13-5.71,2.58
				c-1.28,0.28-2.57,0.43-3.87,0.6c-0.16,0.02-0.12,0.29,0.04,0.28c1.22-0.08,2.44-0.25,3.64-0.48c1.16-0.23,2.31-0.57,3.4-1.03
				c1.87-0.8,3.61-2.09,4.7-3.83c0.57-0.91,1.1-2.27,0.36-3.24C58.33,58.27,58.17,58.36,58.23,58.48L58.23,58.48z"/>
		</g>
	</g>
	<g>
		<g>
			<path class="st3" d="M59.86,52.86c0.36,0.38,0.87,0.64,1.35,0.85c0.49,0.22,1,0.38,1.53,0.49c0.19,0.04,0.28-0.26,0.08-0.3
				c-0.51-0.1-1.01-0.25-1.49-0.46c-0.48-0.2-0.91-0.49-1.38-0.71C59.88,52.71,59.8,52.8,59.86,52.86L59.86,52.86z"/>
		</g>
	</g>
	<g>
		<g>
			<path class="st3" d="M61.33,34.71c2.63-0.5,5.36-1.09,8.02-0.51c0.7,0.15,1.38,0.39,2.02,0.72c0.17,0.09,0.31-0.16,0.15-0.25
				c-2.43-1.25-5.25-1.14-7.86-0.66c-0.8,0.15-1.59,0.34-2.38,0.53C61.16,34.57,61.21,34.73,61.33,34.71L61.33,34.71z"/>
		</g>
	</g>
	<g>
		<g>
			<path class="st3" d="M62.31,34.27c-0.28-0.5-0.7-0.93-1.1-1.33c-0.39-0.41-0.81-0.79-1.24-1.16c-0.44-0.37-0.91-0.72-1.39-1.04
				c-0.46-0.3-0.98-0.69-1.55-0.69c-0.54,0-0.92,0.34-1.08,0.85c-0.08,0.25-0.1,0.51-0.13,0.76c-0.04,0.32-0.08,0.65-0.13,0.97
				c-0.09,0.65-0.19,1.3-0.3,1.94c-0.11,0.65-0.24,1.3-0.33,1.96c-0.17,1.25-0.13,2.6,0.71,3.61c0.12,0.14,0.32-0.06,0.2-0.2
				c-0.7-0.84-0.78-1.99-0.66-3.03c0.07-0.6,0.21-1.19,0.33-1.79c0.12-0.59,0.22-1.19,0.31-1.78c0.09-0.6,0.17-1.21,0.25-1.81
				c0.05-0.41,0.13-0.96,0.59-1.08c0.52-0.14,1.04,0.24,1.45,0.5c0.45,0.29,0.88,0.6,1.3,0.93c0.47,0.38,0.92,0.78,1.35,1.2
				c0.43,0.42,0.8,0.91,1.25,1.3C62.24,34.46,62.37,34.37,62.31,34.27L62.31,34.27z"/>
		</g>
	</g>
	<g>
		<g>
			<path class="st3" d="M70.74,34.1c0.38-0.35,0.73-0.74,1.09-1.1c0.37-0.36,0.75-0.71,1.15-1.04c0.79-0.64,1.69-1.18,2.66-1.48
				c0.21-0.07,0.47-0.15,0.69-0.06c0.21,0.08,0.29,0.3,0.33,0.51c0.05,0.27,0.04,0.55,0.06,0.82c0.02,0.31,0.03,0.61,0.05,0.92
				c0.06,1.25,0.12,2.49,0.19,3.74c0.06,1.15,0.14,2.4-0.51,3.41c-0.13,0.2,0.19,0.38,0.32,0.18c0.62-0.94,0.63-2.12,0.58-3.2
				c-0.06-1.33-0.13-2.65-0.2-3.98c-0.03-0.62-0.02-1.26-0.1-1.88c-0.07-0.51-0.35-0.93-0.91-0.93c-0.27,0-0.53,0.09-0.78,0.18
				c-0.26,0.09-0.51,0.2-0.76,0.31c-0.49,0.23-0.96,0.52-1.39,0.84c-0.5,0.37-0.97,0.77-1.41,1.2c-0.44,0.44-0.89,0.89-1.25,1.4
				C70.46,34.07,70.64,34.19,70.74,34.1L70.74,34.1z"/>
		</g>
	</g>
	<g>
		<g>
			<path class="st3" d="M73.8,37.35c0.25-0.17,0.5-0.35,0.77-0.48c0.27-0.13,0.55-0.23,0.84-0.3c0.09-0.02,0.15-0.13,0.12-0.22
				c-0.03-0.1-0.12-0.14-0.22-0.12c-0.32,0.06-0.63,0.2-0.91,0.36c-0.28,0.17-0.53,0.37-0.73,0.63C73.62,37.3,73.73,37.4,73.8,37.35
				L73.8,37.35z"/>
		</g>
	</g>
	<g>
		<g>
			<path class="st3" d="M74.29,37.66c0.21-0.02,0.43-0.03,0.65-0.02c0.21,0.01,0.42,0.03,0.63,0.06c0.09,0.01,0.18-0.02,0.21-0.12
				c0.02-0.08-0.03-0.19-0.12-0.21c-0.23-0.04-0.47-0.06-0.71-0.05c-0.24,0.01-0.46,0.06-0.69,0.12
				C74.15,37.47,74.17,37.67,74.29,37.66L74.29,37.66z"/>
		</g>
	</g>
	<g>
		<g>
			<path class="st3" d="M58.26,37.03c-0.02-0.08-0.02-0.16-0.04-0.24c-0.02-0.08-0.04-0.15-0.07-0.23
				c-0.06-0.15-0.13-0.31-0.22-0.45c-0.17-0.28-0.39-0.57-0.66-0.75c-0.07-0.05-0.18-0.02-0.23,0.05c-0.06,0.07-0.05,0.17,0.01,0.24
				c0.1,0.11,0.21,0.21,0.3,0.32c0.1,0.11,0.18,0.22,0.26,0.35c0.08,0.12,0.16,0.25,0.23,0.38c0.03,0.06,0.07,0.13,0.1,0.19
				c0.04,0.07,0.08,0.13,0.11,0.2C58.1,37.22,58.29,37.18,58.26,37.03L58.26,37.03z"/>
		</g>
	</g>
	<g>
		<g>
			<path class="st3" d="M57.58,37.17c-0.05-0.04-0.09-0.08-0.14-0.12c-0.05-0.04-0.1-0.07-0.15-0.1c-0.11-0.06-0.23-0.11-0.35-0.14
				c-0.24-0.06-0.49-0.09-0.74-0.06c-0.09,0.01-0.17,0.07-0.17,0.17c0,0.09,0.08,0.18,0.17,0.17c0.22-0.02,0.44-0.01,0.65,0.05
				c0.11,0.03,0.22,0.06,0.32,0.1c0.1,0.03,0.21,0.06,0.3,0.12c0.05,0.03,0.11,0.01,0.14-0.04C57.65,37.26,57.63,37.21,57.58,37.17
				L57.58,37.17z"/>
		</g>
	</g>
	<g>
		<path class="st5" d="M71.02,46.67c-0.31,0.54-0.93,0.86-1.55,0.94c-0.37,0.04-0.75-0.01-1.1-0.12l-0.02,0.07
			c-0.03,0.38-0.23,0.75-0.52,0.99c-0.3,0.25-0.69,0.37-1.07,0.33l-1.07-0.19c-0.05-0.03-0.09-0.06-0.14-0.09
			c-0.31-0.23-0.52-0.59-0.57-0.97l-0.03-0.07c-0.34,0.14-0.72,0.2-1.09,0.18c-0.62-0.04-1.25-0.33-1.59-0.86
			c-0.34-0.53-0.33-1.29,0.12-1.73c0.54-0.54,1.4-0.44,2.15-0.63c0.19-0.3,0.23-0.71,0.21-1.04c-0.03-0.45-0.13-0.88-0.16-1.33
			c-0.06-0.75,0.16-1.46,0.82-1.87c0.62-0.38,1.47-0.44,2.12-0.1c0.77,0.4,0.96,1.33,0.96,2.13c0,0.47-0.11,0.92-0.15,1.39
			c-0.02,0.22-0.01,0.45,0.06,0.65c0.8,0.26,1.81,0.02,2.44,0.59C71.28,45.36,71.34,46.13,71.02,46.67z"/>
	</g>
	<g>
		<g>
			<path class="st3" d="M65.03,44.2c-0.34,0.07-0.68,0.18-1.03,0.22c-0.36,0.04-0.72,0.07-1.06,0.18c-0.34,0.11-0.65,0.29-0.86,0.58
				c-0.21,0.29-0.29,0.67-0.26,1.03c0.07,0.78,0.64,1.35,1.36,1.6c0.71,0.25,1.51,0.14,2.16-0.21c0.73-0.39,1.28-1.08,1.45-1.89
				c0.05-0.23-0.31-0.33-0.36-0.1c-0.29,1.23-1.6,2.16-2.86,1.89c-0.64-0.14-1.25-0.57-1.34-1.26c-0.04-0.29,0.02-0.62,0.2-0.86
				c0.18-0.24,0.46-0.36,0.74-0.43c0.33-0.08,0.68-0.11,1.01-0.17c0.33-0.06,0.72-0.14,0.95-0.4C65.21,44.3,65.14,44.17,65.03,44.2
				L65.03,44.2z"/>
		</g>
	</g>
	<g>
		<g>
			<path class="st3" d="M64.88,47.58c-0.09,0.19,0.01,0.44,0.1,0.61c0.1,0.19,0.23,0.37,0.4,0.5c0.18,0.15,0.39,0.25,0.61,0.31
				c0.11,0.03,0.23,0.05,0.34,0.05c0.12,0.01,0.26,0.01,0.37-0.04c0.12-0.06,0.1-0.28-0.04-0.3c-0.1-0.02-0.21,0-0.32,0
				c-0.09,0-0.17-0.02-0.25-0.04c-0.18-0.04-0.35-0.12-0.49-0.24c-0.13-0.11-0.25-0.24-0.34-0.39c-0.04-0.07-0.08-0.15-0.11-0.23
				c-0.03-0.08-0.07-0.19-0.13-0.25C65,47.52,64.91,47.52,64.88,47.58L64.88,47.58z"/>
		</g>
	</g>
	<g>
		<g>
			<path class="st3" d="M68.02,44.31c0.21,0.22,0.55,0.3,0.84,0.34c0.32,0.05,0.64,0.06,0.95,0.11c0.29,0.04,0.6,0.12,0.83,0.31
				c0.23,0.19,0.35,0.48,0.37,0.77c0.04,0.67-0.43,1.21-1.04,1.44c-0.6,0.23-1.28,0.17-1.86-0.12c-0.63-0.32-1.14-0.87-1.33-1.55
				c-0.07-0.23-0.42-0.13-0.36,0.1c0.37,1.43,1.93,2.4,3.38,2.05c0.73-0.18,1.42-0.71,1.58-1.47c0.15-0.73-0.17-1.46-0.87-1.76
				c-0.37-0.16-0.79-0.19-1.19-0.21c-0.2-0.01-0.39-0.02-0.59-0.06c-0.2-0.04-0.41-0.09-0.61-0.12
				C68.03,44.11,67.94,44.22,68.02,44.31L68.02,44.31z"/>
		</g>
	</g>
	<g>
		<g>
			<path class="st3" d="M68.28,47.48c-0.06,0.07-0.09,0.17-0.12,0.25c-0.03,0.08-0.06,0.16-0.1,0.24c-0.08,0.16-0.19,0.3-0.33,0.42
				c-0.13,0.12-0.3,0.21-0.47,0.26c-0.08,0.02-0.16,0.04-0.25,0.05c-0.1,0.01-0.22-0.01-0.32,0.02c-0.13,0.03-0.17,0.24-0.04,0.3
				c0.11,0.05,0.25,0.04,0.37,0.03c0.11-0.01,0.22-0.03,0.33-0.06c0.22-0.07,0.43-0.18,0.6-0.33c0.16-0.14,0.29-0.32,0.38-0.52
				c0.04-0.1,0.08-0.2,0.1-0.3c0.02-0.1,0.03-0.24-0.02-0.34C68.41,47.45,68.32,47.43,68.28,47.48L68.28,47.48z"/>
		</g>
	</g>
	<g>
		<g>
			<path class="st3" d="M60.73,40.64c0.08-0.11,0.2-0.21,0.31-0.3c0.11-0.09,0.22-0.17,0.35-0.24c0.12-0.06,0.24-0.12,0.37-0.16
				c0.14-0.05,0.29-0.07,0.44-0.11c0.19-0.05,0.14-0.32-0.04-0.33c-0.17-0.01-0.34,0.03-0.5,0.09c-0.16,0.06-0.31,0.13-0.44,0.22
				c-0.14,0.09-0.27,0.19-0.38,0.31c-0.11,0.13-0.2,0.26-0.28,0.41C60.48,40.66,60.65,40.75,60.73,40.64L60.73,40.64z"/>
		</g>
	</g>
	<g>
		<g>
			<path class="st3" d="M70.42,39.25c0.61,0.1,1.2,0.31,1.7,0.68c0.08,0.06,0.21,0.01,0.26-0.07c0.06-0.1,0.02-0.2-0.07-0.26
				c-0.54-0.38-1.19-0.61-1.86-0.58C70.33,39.02,70.28,39.22,70.42,39.25L70.42,39.25z"/>
		</g>
	</g>
	<g>
		<path class="st1" d="M68.18,44.54c-0.07,0.09-0.16,0.17-0.24,0.25c-0.39,0.37-0.78,0.74-1.16,1.11c-0.08,0.07-0.18,0.12-0.29,0.12
			l0,0l0,0c-0.11,0-0.21-0.03-0.29-0.1c-0.41-0.35-0.81-0.7-1.22-1.05c-0.08-0.07-0.17-0.15-0.25-0.24
			c-0.16-0.18-0.28-0.38-0.22-0.64c0.04-0.2,0.18-0.36,0.36-0.46c0.36-0.21,0.78-0.17,1.18-0.12l0.76-0.02
			c0.39-0.07,0.81-0.13,1.18,0.06c0.18,0.09,0.33,0.25,0.38,0.45C68.44,44.15,68.34,44.36,68.18,44.54z"/>
	</g>
	<g>
		<g>
			<path class="st3" d="M60.04,42.3c0.24-0.24,0.44-0.52,0.73-0.71c0.29-0.19,0.62-0.31,0.96-0.32c0.72-0.03,1.37,0.37,1.73,0.99
				c0.12,0.21,0.44,0.02,0.32-0.19c-0.39-0.72-1.23-1.2-2.05-1.15c-0.4,0.02-0.8,0.16-1.13,0.39c-0.32,0.22-0.64,0.53-0.69,0.92
				C59.89,42.29,59.98,42.36,60.04,42.3L60.04,42.3z"/>
		</g>
	</g>
	<g>
		<g>
			<path class="st3" d="M72.92,42.22c-0.05-0.39-0.38-0.7-0.69-0.92c-0.33-0.23-0.73-0.36-1.13-0.39c-0.82-0.04-1.66,0.43-2.05,1.15
				c-0.12,0.21,0.2,0.4,0.32,0.19c0.35-0.62,1.01-1.01,1.73-0.99c0.34,0.01,0.68,0.13,0.96,0.32c0.29,0.19,0.49,0.47,0.73,0.71
				C72.85,42.36,72.93,42.29,72.92,42.22L72.92,42.22z"/>
		</g>
	</g>
	<g>
		<g>
			<path class="st3" d="M53.62,65.42c-0.18,0.41,0.14,0.86,0.46,1.08c0.39,0.27,0.9,0.32,1.36,0.37c0.56,0.05,1.12,0.07,1.68,0.06
				c0.29,0,0.58-0.01,0.87-0.02c0.28-0.01,0.58,0.01,0.85-0.04c0.18-0.03,0.11-0.28-0.04-0.3c-0.24-0.03-0.5,0.01-0.75,0.02
				c-0.25,0.01-0.5,0.01-0.75,0.01c-0.5,0-1,0-1.49-0.04c-0.44-0.03-0.92-0.04-1.34-0.21c-0.19-0.08-0.35-0.19-0.48-0.35
				c-0.13-0.17-0.16-0.36-0.2-0.56C53.79,65.37,53.65,65.35,53.62,65.42L53.62,65.42z"/>
		</g>
	</g>
	<g>
		<g>
			<path class="st3" d="M58.98,60.85c0.51,0.81,1.53,0.89,2.4,1c1.18,0.16,2.38,0.27,3.57,0.35c0.34,0.02,0.69,0.04,1.03,0.06
				c0.33,0.02,0.68,0.07,1.01,0.02c0.15-0.02,0.14-0.26,0-0.29c-0.27-0.06-0.55-0.04-0.82-0.05c-0.29-0.01-0.58-0.03-0.88-0.05
				c-0.56-0.03-1.13-0.08-1.69-0.13c-0.57-0.05-1.14-0.11-1.71-0.18c-0.5-0.06-1.01-0.1-1.5-0.2c-0.45-0.09-0.97-0.25-1.25-0.64
				C59.07,60.67,58.92,60.75,58.98,60.85L58.98,60.85z"/>
		</g>
	</g>
	<g>
		<path class="st0" d="M49.72,39.37c-1.04,1.27-1.93,2.63-2.48,4.26c-0.41,1.22-0.65,2.46-0.92,3.72c-0.19,0.89-0.92,1.83-1.93,1.29
			c-0.95-0.51-1.15-1.84-1.21-2.8c-0.07-1.18,0.06-2.39,0.31-3.54c0.23-1.04,0.58-2.03,1.04-2.98C46.24,38.99,48.02,39,49.72,39.37z
			"/>
	</g>
	<g>
		<path class="st0" d="M40.72,40.62c-0.13,0.36-0.24,0.72-0.32,1.11c-0.16,0.77-0.22,1.56-0.29,2.34c-0.06,0.63-0.05,1.33-0.42,1.87
			c-0.29,0.44-0.94,0.59-1.33,0.17c-0.81-0.87-0.96-2.14-0.9-3.32C38.45,41.94,39.55,41.21,40.72,40.62z"/>
	</g>
	<g>
		<path class="st0" d="M53.76,40.72c0.05,0.02,0.09,0.04,0.14,0.06c-0.3,0.85-0.52,1.73-0.78,2.6c-0.22,0.74-0.42,2.09-1.34,2.27
			c-1,0.21-1.29-0.92-1.4-1.67c-0.22-1.49,0.14-2.92,0.78-4.24c0.26,0.06,0.52,0.13,0.77,0.21C52.55,40.17,53.16,40.42,53.76,40.72z
			"/>
	</g>
	<g>
		<g>
			<path class="st3" d="M52.56,40.26c-1.8-1.06-4.01-1.42-6.08-1.34c-2.06,0.08-4.07,0.65-5.9,1.57c-1.8,0.91-3.43,2.17-4.8,3.65
				c-1.37,1.49-2.49,3.22-3.18,5.13c-0.73,2.05-0.98,4.39-0.43,6.52c0.07,0.26,0.14,0.52,0.22,0.78c0.06,0.18,0.35,0.11,0.29-0.08
				c-0.62-2.06-0.57-4.3,0.02-6.36c0.55-1.92,1.58-3.69,2.87-5.21c1.27-1.5,2.81-2.78,4.51-3.75c1.73-0.98,3.66-1.65,5.65-1.84
				c2.05-0.2,4.11,0.09,6.02,0.85c0.24,0.09,0.48,0.18,0.71,0.28C52.59,40.51,52.66,40.32,52.56,40.26L52.56,40.26z"/>
		</g>
	</g>
	<g>
		<g>
			<path class="st3" d="M55.24,41.38c-0.19-0.45-0.43-0.86-0.71-1.26c-0.28-0.39-0.58-0.79-0.95-1.1c-0.12-0.1-0.27,0.05-0.17,0.17
				c0.3,0.36,0.62,0.7,0.9,1.08c0.27,0.38,0.52,0.78,0.76,1.18C55.12,41.54,55.29,41.48,55.24,41.38L55.24,41.38z"/>
		</g>
	</g>
	<g>
		<g>
			<path class="st3" d="M54.07,40.29c-0.71-0.58-1.49-1.03-2.34-1.37c-0.07-0.03-0.16,0.03-0.18,0.1c-0.02,0.08,0.03,0.15,0.1,0.18
				c0.8,0.33,1.58,0.75,2.29,1.25C54.04,40.52,54.17,40.36,54.07,40.29L54.07,40.29z"/>
		</g>
	</g>
	<g>
		<path class="st1" d="M30.82,58.71c-0.06-0.22-0.17-0.4-0.33-0.56c-0.02-0.02-0.05-0.05-0.07-0.07c-0.12-0.12-0.25-0.21-0.41-0.26
			c-0.15-0.08-0.32-0.12-0.49-0.11c-0.18-0.01-0.34,0.03-0.49,0.11c-0.16,0.05-0.29,0.14-0.41,0.26c-0.07,0.09-0.13,0.17-0.2,0.26
			c-0.12,0.2-0.17,0.41-0.17,0.64c0.02,0.11,0.03,0.23,0.05,0.34c0.06,0.22,0.17,0.4,0.33,0.56c0.02,0.02,0.05,0.05,0.07,0.07
			c0.12,0.12,0.25,0.21,0.41,0.26c0.15,0.08,0.32,0.12,0.49,0.11c0.18,0.01,0.34-0.03,0.49-0.11c0.16-0.05,0.29-0.14,0.41-0.26
			c0.07-0.09,0.13-0.17,0.2-0.26c0.12-0.2,0.17-0.41,0.17-0.64C30.85,58.94,30.84,58.82,30.82,58.71z"/>
	</g>
	<g>
		<path class="st1" d="M24.69,60.15c-0.01-0.17-0.06-0.33-0.15-0.47c-0.07-0.09-0.13-0.17-0.2-0.26c-0.16-0.16-0.35-0.27-0.56-0.33
			c-0.11-0.02-0.23-0.03-0.34-0.05c-0.23,0-0.44,0.06-0.64,0.17c-0.05,0.02-0.09,0.05-0.14,0.07c-0.15,0.08-0.27,0.19-0.36,0.33
			c-0.11,0.12-0.19,0.27-0.23,0.43c-0.05,0.17-0.06,0.34-0.02,0.51c0.01,0.17,0.06,0.33,0.15,0.47c0.07,0.09,0.13,0.17,0.2,0.26
			c0.16,0.16,0.35,0.27,0.56,0.33c0.11,0.02,0.23,0.03,0.34,0.05c0.23,0,0.44-0.06,0.64-0.17c0.05-0.02,0.09-0.05,0.14-0.07
			c0.15-0.08,0.27-0.19,0.36-0.33c0.11-0.12,0.19-0.27,0.23-0.43C24.72,60.49,24.72,60.32,24.69,60.15z"/>
	</g>
	<g>
		<path class="st1" d="M26.86,56.15c-0.05-0.16-0.14-0.29-0.26-0.41c-0.12-0.12-0.25-0.21-0.41-0.26c-0.15-0.08-0.32-0.12-0.49-0.11
			c-0.11,0.02-0.23,0.03-0.34,0.05c-0.22,0.06-0.4,0.17-0.56,0.33c-0.07,0.09-0.13,0.17-0.2,0.26c-0.12,0.2-0.17,0.41-0.17,0.64
			v0.07c-0.01,0.18,0.03,0.34,0.11,0.49c0.05,0.16,0.14,0.29,0.26,0.41c0.12,0.12,0.25,0.21,0.41,0.26
			c0.15,0.08,0.32,0.12,0.49,0.11c0.11-0.02,0.23-0.03,0.34-0.05c0.22-0.06,0.4-0.17,0.56-0.33c0.07-0.09,0.13-0.17,0.2-0.26
			c0.12-0.2,0.17-0.41,0.17-0.64v-0.07C26.98,56.47,26.94,56.3,26.86,56.15z"/>
	</g>
	<g>
		<path class="st1" d="M28.32,63.16c-1.64,0-1.64,2.55,0,2.55C29.96,65.7,29.96,63.16,28.32,63.16z"/>
	</g>
	<g>
		<path class="st1" d="M26.36,68.76c-0.06-0.22-0.17-0.4-0.33-0.56c-0.09-0.07-0.17-0.13-0.26-0.2c-0.2-0.12-0.41-0.17-0.64-0.17
			h-0.07c-0.18-0.01-0.34,0.03-0.49,0.11c-0.16,0.05-0.29,0.14-0.41,0.26c-0.12,0.12-0.21,0.25-0.26,0.41
			c-0.08,0.15-0.12,0.32-0.11,0.49c0.02,0.11,0.03,0.23,0.05,0.34c0.06,0.22,0.17,0.4,0.33,0.56c0.09,0.07,0.17,0.13,0.26,0.2
			c0.2,0.12,0.41,0.17,0.64,0.17h0.07c0.18,0.01,0.34-0.03,0.49-0.11c0.16-0.05,0.29-0.14,0.41-0.26c0.12-0.12,0.21-0.25,0.26-0.41
			c0.08-0.15,0.12-0.32,0.11-0.49C26.39,68.99,26.38,68.88,26.36,68.76z"/>
	</g>
	<g>
		<path class="st1" d="M34.2,65.7c-1.64,0-1.64,2.55,0,2.55C35.83,68.25,35.84,65.7,34.2,65.7z"/>
	</g>
	<g>
		<path class="st1" d="M31.36,70.24c-1.64,0-1.64,2.55,0,2.55C33,72.78,33,70.24,31.36,70.24z"/>
	</g>
	<g>
		<path class="st1" d="M29.9,74.71c-0.04-0.1-0.09-0.2-0.13-0.3c-0.11-0.19-0.27-0.34-0.46-0.46c-0.07-0.05-0.14-0.09-0.21-0.14
			c-0.15-0.09-0.3-0.14-0.47-0.15c-0.17-0.04-0.34-0.03-0.51,0.02c-0.17,0.04-0.31,0.12-0.43,0.23c-0.14,0.09-0.25,0.21-0.33,0.36
			c-0.04,0.1-0.09,0.2-0.13,0.3c-0.06,0.23-0.06,0.45,0,0.68c0.04,0.1,0.09,0.2,0.13,0.3c0.11,0.19,0.27,0.34,0.46,0.46
			c0.07,0.05,0.14,0.09,0.21,0.14c0.15,0.09,0.3,0.14,0.47,0.15c0.17,0.04,0.34,0.03,0.51-0.02c0.17-0.04,0.31-0.12,0.43-0.23
			c0.14-0.09,0.25-0.21,0.33-0.36c0.04-0.1,0.09-0.2,0.13-0.3C29.96,75.16,29.96,74.94,29.9,74.71z"/>
	</g>
	<g>
		<path class="st1" d="M40.53,70.1c-0.05-0.16-0.14-0.29-0.26-0.41c-0.09-0.07-0.17-0.13-0.26-0.2c-0.2-0.12-0.41-0.17-0.64-0.17
			c-0.11,0.02-0.23,0.03-0.34,0.05c-0.22,0.06-0.4,0.17-0.56,0.33c-0.02,0.02-0.05,0.05-0.07,0.07c-0.12,0.12-0.21,0.25-0.26,0.41
			c-0.08,0.15-0.12,0.32-0.11,0.49c-0.01,0.18,0.03,0.34,0.11,0.49c0.05,0.16,0.14,0.29,0.26,0.41c0.09,0.07,0.17,0.13,0.26,0.2
			c0.2,0.12,0.41,0.17,0.64,0.17c0.11-0.02,0.23-0.03,0.34-0.05c0.22-0.06,0.4-0.17,0.56-0.33l0.07-0.07
			c0.12-0.12,0.21-0.25,0.26-0.41c0.08-0.15,0.12-0.32,0.11-0.49C40.64,70.41,40.61,70.25,40.53,70.1z"/>
	</g>
	<g>
		<path class="st1" d="M39.89,75.05c-0.06-0.22-0.17-0.4-0.33-0.56c-0.05-0.05-0.1-0.09-0.14-0.14c-0.12-0.12-0.25-0.21-0.41-0.26
			c-0.15-0.08-0.32-0.12-0.49-0.11c-0.18-0.01-0.34,0.03-0.49,0.11c-0.16,0.05-0.29,0.14-0.41,0.26c-0.07,0.09-0.13,0.17-0.2,0.26
			c-0.12,0.2-0.17,0.41-0.17,0.64c0.02,0.11,0.03,0.23,0.05,0.34c0.06,0.22,0.17,0.4,0.33,0.56c0.05,0.05,0.1,0.09,0.14,0.14
			c0.12,0.12,0.25,0.21,0.41,0.26c0.15,0.08,0.32,0.12,0.49,0.11c0.18,0.01,0.34-0.03,0.49-0.11c0.16-0.05,0.29-0.14,0.41-0.26
			c0.07-0.09,0.13-0.17,0.2-0.26c0.12-0.2,0.17-0.41,0.17-0.64C39.92,75.28,39.91,75.17,39.89,75.05z"/>
	</g>
	<g>
		<path class="st1" d="M48.17,70.31c-0.05-0.16-0.14-0.29-0.26-0.41c-0.12-0.12-0.25-0.21-0.41-0.26c-0.15-0.08-0.32-0.12-0.49-0.11
			c-0.11,0.02-0.23,0.03-0.34,0.05c-0.22,0.06-0.4,0.17-0.56,0.33c-0.07,0.09-0.13,0.17-0.2,0.26c-0.12,0.2-0.17,0.41-0.17,0.64
			v0.07c-0.01,0.18,0.03,0.34,0.11,0.49c0.05,0.16,0.14,0.29,0.26,0.41c0.12,0.12,0.25,0.21,0.41,0.26
			c0.15,0.08,0.32,0.12,0.49,0.11c0.11-0.02,0.23-0.03,0.34-0.05c0.22-0.06,0.4-0.17,0.56-0.33c0.07-0.09,0.13-0.17,0.2-0.26
			c0.12-0.2,0.17-0.41,0.17-0.64V70.8C48.29,70.63,48.25,70.46,48.17,70.31z"/>
	</g>
	<g>
		<path class="st1" d="M48.07,74.2c-1.64,0-1.64,2.55,0,2.55C49.71,76.75,49.71,74.2,48.07,74.2z"/>
	</g>
	<g>
		<path class="st1" d="M56,73.99c-1.64,0-1.64,2.55,0,2.55C57.64,76.53,57.64,73.99,56,73.99z"/>
	</g>
	<g>
		<path class="st1" d="M57.46,70.93c-0.02-0.05-0.05-0.09-0.07-0.14c-0.08-0.15-0.19-0.27-0.33-0.36c-0.12-0.11-0.27-0.19-0.43-0.23
			c-0.17-0.05-0.34-0.06-0.51-0.02c-0.17,0.01-0.33,0.06-0.47,0.15c-0.09,0.07-0.17,0.13-0.26,0.2c-0.16,0.16-0.27,0.35-0.33,0.56
			c-0.02,0.11-0.03,0.23-0.05,0.34c0,0.23,0.06,0.44,0.17,0.64l0.07,0.14c0.08,0.15,0.19,0.27,0.33,0.36
			c0.12,0.11,0.27,0.19,0.43,0.23c0.17,0.05,0.34,0.06,0.51,0.02c0.17-0.01,0.33-0.06,0.47-0.15c0.09-0.07,0.17-0.13,0.26-0.2
			c0.16-0.16,0.27-0.35,0.33-0.56c0.02-0.11,0.03-0.23,0.05-0.34C57.63,71.35,57.57,71.13,57.46,70.93z"/>
	</g>
	<g>
		<path class="st1" d="M65.01,71.66c-0.04-0.13-0.08-0.26-0.16-0.37c-0.18-0.24-0.24-0.34-0.5-0.5c-0.2-0.13-0.54-0.23-0.78-0.21
			c-0.18-0.01-0.34,0.03-0.49,0.11c-0.16,0.05-0.29,0.14-0.41,0.26c-0.12,0.12-0.21,0.25-0.26,0.41c-0.08,0.15-0.12,0.32-0.11,0.49
			c0.02,0.11,0.03,0.23,0.05,0.34c0.06,0.22,0.17,0.4,0.33,0.56c0.09,0.07,0.17,0.13,0.26,0.2c0.02,0.01,0.03,0.02,0.05,0.03
			c0.05,0.04,0.1,0.08,0.16,0.11c0.15,0.09,0.3,0.14,0.47,0.15c0.17,0.04,0.34,0.03,0.51-0.02c0.1-0.04,0.2-0.09,0.3-0.13
			c0.19-0.11,0.34-0.27,0.46-0.46c0.04-0.1,0.09-0.2,0.13-0.3C65.08,72.12,65.08,71.89,65.01,71.66z"/>
	</g>
	<g>
		<path class="st1" d="M64.81,75.19c-0.05-0.16-0.14-0.29-0.26-0.41c-0.12-0.12-0.25-0.21-0.41-0.26c-0.15-0.08-0.32-0.12-0.49-0.11
			c-0.11,0.02-0.23,0.03-0.34,0.05c-0.22,0.06-0.4,0.17-0.56,0.33c-0.07,0.09-0.13,0.17-0.2,0.26c-0.12,0.2-0.17,0.41-0.17,0.64
			v0.07c-0.01,0.18,0.03,0.34,0.11,0.49c0.05,0.16,0.14,0.29,0.26,0.41c0.12,0.12,0.25,0.21,0.41,0.26
			c0.15,0.08,0.32,0.12,0.49,0.11c0.11-0.02,0.23-0.03,0.34-0.05c0.22-0.06,0.4-0.17,0.56-0.33c0.07-0.09,0.13-0.17,0.2-0.26
			c0.12-0.2,0.17-0.41,0.17-0.64v-0.07C64.92,75.51,64.89,75.35,64.81,75.19z"/>
	</g>
	<g>
		<path class="st1" d="M71.81,74.13c-0.05-0.16-0.14-0.29-0.26-0.41c-0.12-0.12-0.25-0.21-0.41-0.26c-0.15-0.08-0.32-0.12-0.49-0.11
			c-0.11,0.02-0.23,0.03-0.34,0.05c-0.22,0.06-0.4,0.17-0.56,0.33c-0.07,0.09-0.13,0.17-0.2,0.26c-0.12,0.2-0.17,0.41-0.17,0.64
			v0.07c-0.01,0.18,0.03,0.34,0.11,0.49c0.05,0.16,0.14,0.29,0.26,0.41c0.12,0.12,0.25,0.21,0.41,0.26
			c0.15,0.08,0.32,0.12,0.49,0.11c0.11-0.02,0.23-0.03,0.34-0.05c0.22-0.06,0.4-0.17,0.56-0.33c0.07-0.09,0.13-0.17,0.2-0.26
			c0.12-0.2,0.17-0.41,0.17-0.64v-0.07C71.93,74.45,71.89,74.28,71.81,74.13z"/>
	</g>
	<g>
		<path class="st1" d="M69.83,69.18c-0.05-0.16-0.14-0.29-0.26-0.41c-0.12-0.12-0.25-0.21-0.41-0.26c-0.15-0.08-0.32-0.12-0.49-0.11
			c-0.11,0.02-0.23,0.03-0.34,0.05c-0.22,0.06-0.4,0.17-0.56,0.33c-0.07,0.09-0.13,0.17-0.2,0.26c-0.12,0.2-0.17,0.41-0.17,0.64
			v0.07c-0.01,0.18,0.03,0.34,0.11,0.49c0.05,0.16,0.14,0.29,0.26,0.41c0.12,0.12,0.25,0.21,0.41,0.26
			c0.15,0.08,0.32,0.12,0.49,0.11c0.11-0.02,0.23-0.03,0.34-0.05c0.22-0.06,0.4-0.17,0.56-0.33c0.07-0.09,0.13-0.17,0.2-0.26
			c0.12-0.2,0.17-0.41,0.17-0.64v-0.07C69.95,69.49,69.91,69.33,69.83,69.18z"/>
	</g>
	<g>
		<path class="st1" d="M72.92,62.02c-1.64,0-1.64,2.55,0,2.55C74.56,64.57,74.56,62.02,72.92,62.02z"/>
	</g>
	<g>
		<path class="st1" d="M74.4,57.07c-1.64,0-1.64,2.55,0,2.55C76.04,59.61,76.04,57.07,74.4,57.07z"/>
	</g>
	<g>
		<path class="st1" d="M81.51,55.23c-0.05-0.16-0.14-0.29-0.26-0.41c-0.09-0.07-0.17-0.13-0.26-0.2c-0.2-0.12-0.41-0.17-0.64-0.17
			c-0.11,0.02-0.23,0.03-0.34,0.05c-0.22,0.06-0.4,0.17-0.56,0.33c-0.02,0.02-0.05,0.05-0.07,0.07c-0.12,0.12-0.21,0.25-0.26,0.41
			c-0.08,0.15-0.12,0.32-0.11,0.49c-0.01,0.18,0.03,0.34,0.11,0.49c0.05,0.16,0.14,0.29,0.26,0.41c0.09,0.07,0.17,0.13,0.26,0.2
			c0.2,0.12,0.41,0.17,0.64,0.17c0.11-0.02,0.23-0.03,0.34-0.05c0.22-0.06,0.4-0.17,0.56-0.33c0.02-0.02,0.05-0.05,0.07-0.07
			c0.12-0.12,0.21-0.25,0.26-0.41c0.08-0.15,0.12-0.32,0.11-0.49C81.63,55.55,81.59,55.38,81.51,55.23z"/>
	</g>
	<g>
		<path class="st1" d="M78.93,61.1c-1.64,0-1.64,2.55,0,2.55C80.57,63.65,80.57,61.1,78.93,61.1z"/>
	</g>
	<g>
		<path class="st1" d="M74.79,68.61c-0.05-0.16-0.14-0.29-0.26-0.41c-0.09-0.07-0.17-0.13-0.26-0.2c-0.2-0.12-0.41-0.17-0.64-0.17
			c-0.11,0.02-0.23,0.03-0.34,0.05c-0.22,0.06-0.4,0.17-0.56,0.33l-0.07,0.07c-0.12,0.12-0.21,0.25-0.26,0.41
			c-0.08,0.15-0.12,0.32-0.11,0.49c-0.01,0.18,0.03,0.34,0.11,0.49c0.05,0.16,0.14,0.29,0.26,0.41c0.09,0.07,0.17,0.13,0.26,0.2
			c0.2,0.12,0.41,0.17,0.64,0.17c0.11-0.02,0.23-0.03,0.34-0.05c0.22-0.06,0.4-0.17,0.56-0.33c0.02-0.02,0.05-0.05,0.07-0.07
			c0.12-0.12,0.21-0.25,0.26-0.41c0.08-0.15,0.12-0.32,0.11-0.49C74.9,68.93,74.87,68.76,74.79,68.61z"/>
	</g>
	<g>
		<path class="st1" d="M78.23,65.99c-1.64,0-1.64,2.55,0,2.55C79.86,68.53,79.87,65.99,78.23,65.99z"/>
	</g>
	<g>
		<path class="st1" d="M76.24,71.44c-1.64,0-1.64,2.55,0,2.55C77.88,73.98,77.88,71.44,76.24,71.44z"/>
	</g>
</g>
<g>
	<g>
		<path class="st4" d="M18.43,66.78c0.36,1.15,0.11,2.45-0.55,3.46c-0.66,1.01-1.69,1.74-2.83,2.16c-1.13,0.42-2.35,0.55-3.56,0.51
			c-0.06,0.52-0.3,1.02-0.71,1.34c-0.41,0.32-0.99,0.43-1.47,0.23c-0.41-0.17-0.72-0.59-0.75-1.03c0.1,0.17,0.23,0.32,0.42,0.4
			c0.36,0.16,0.8,0.03,1.12-0.2c0.51-0.37,0.81-1.01,0.77-1.64c1.35,0.32,2.8,0.11,4.04-0.5c1.24-0.62,2.27-1.63,2.97-2.82
			c0.34-0.57,0.6-1.27,0.43-1.88L18.43,66.78z"/>
	</g>
	<g>
		<path class="st4" d="M8.32,71.49c-0.41-0.3-0.99-0.26-1.42-0.52c-0.31-0.19-0.52-0.52-0.64-0.86c-0.11-0.34-0.15-0.7-0.18-1.06
			l0,0c0,0.06,0.01,0.11,0.03,0.17c0.12,0.43,0.54,0.71,0.93,0.92c0.4,0.21,0.84,0.41,1.08,0.78C8.23,71.09,8.29,71.29,8.32,71.49z"
			/>
	</g>
	<g>
		<path class="st4" d="M18.31,66.81c0.17,0.61-0.09,1.32-0.43,1.88c-0.71,1.19-1.73,2.2-2.97,2.82c-1.24,0.62-2.69,0.82-4.04,0.5
			c0.03,0.63-0.27,1.26-0.77,1.64c-0.32,0.24-0.76,0.37-1.12,0.2c-0.19-0.08-0.32-0.23-0.42-0.4c-0.16-0.28-0.21-0.64-0.21-0.97
			c0-0.33,0.02-0.67-0.03-0.99c-0.03-0.2-0.09-0.4-0.2-0.57c-0.24-0.38-0.68-0.58-1.08-0.78c-0.4-0.21-0.81-0.49-0.93-0.92
			c-0.02-0.06-0.02-0.11-0.03-0.17c-0.03-0.39,0.2-0.79,0.53-1.01c0.38-0.25,0.86-0.3,1.31-0.22c0.45,0.08,0.87,0.26,1.28,0.45
			c0.75-1.05,1.77-2.39,2.96-2.88c1.36-0.55,2.9-0.24,4.31,0.13c0.67,0.17,1.4,0.41,1.73,1.02C18.25,66.62,18.29,66.72,18.31,66.81z
			"/>
	</g>
	<g>
		<g>
			<path class="st3" d="M9.25,68.15c-0.84-0.42-1.96-0.84-2.8-0.2c-0.33,0.25-0.56,0.66-0.54,1.09c0.02,0.48,0.38,0.84,0.77,1.08
				c0.38,0.24,0.84,0.39,1.16,0.71c0.38,0.39,0.35,0.95,0.34,1.46c-0.01,0.44,0.02,0.88,0.24,1.27c0.21,0.37,0.61,0.58,1.03,0.53
				c0.97-0.11,1.61-1.16,1.57-2.08c-0.06,0.06-0.13,0.11-0.19,0.17c1.42,0.33,2.95,0.1,4.23-0.57c1.28-0.67,2.37-1.76,3.06-3.03
				c0.31-0.58,0.54-1.31,0.28-1.95c-0.25-0.63-0.88-0.95-1.49-1.14c-0.7-0.22-1.43-0.38-2.15-0.48c-0.73-0.1-1.47-0.1-2.18,0.08
				c-1.4,0.36-2.39,1.56-3.2,2.68c-0.1,0.14-0.2,0.28-0.3,0.41c-0.1,0.14,0.11,0.32,0.21,0.18c0.39-0.55,0.8-1.09,1.26-1.58
				c0.44-0.47,0.94-0.93,1.54-1.19c1.29-0.58,2.77-0.3,4.09,0.03c0.58,0.15,1.26,0.29,1.69,0.75c0.45,0.48,0.37,1.17,0.13,1.73
				c-0.26,0.63-0.68,1.2-1.12,1.7c-0.45,0.51-0.98,0.95-1.55,1.3c-1.32,0.81-2.93,1.11-4.44,0.76c-0.1-0.02-0.19,0.07-0.19,0.17
				c0.03,0.72-0.4,1.5-1.13,1.7c-0.36,0.1-0.7-0.02-0.89-0.35c-0.19-0.33-0.2-0.73-0.19-1.1c0.01-0.46,0.02-0.94-0.2-1.36
				c-0.2-0.37-0.55-0.6-0.91-0.79c-0.36-0.19-0.77-0.36-1.01-0.71c-0.22-0.32-0.17-0.71,0.06-1.01c0.29-0.38,0.8-0.5,1.25-0.46
				C8.2,68,8.67,68.2,9.14,68.39C9.3,68.45,9.4,68.23,9.25,68.15L9.25,68.15z"/>
		</g>
	</g>
	<g>
		<g>
			<path class="st3" d="M6.01,69.02c-0.07,0.35,0.02,0.77,0.12,1.11c0.1,0.31,0.27,0.61,0.52,0.82c0.23,0.19,0.5,0.28,0.79,0.35
				c0.14,0.03,0.28,0.06,0.42,0.11C8,71.45,8.13,71.54,8.27,71.6c0.1,0.04,0.23-0.08,0.15-0.18c-0.17-0.19-0.48-0.26-0.72-0.32
				c-0.27-0.07-0.55-0.12-0.79-0.28c-0.26-0.18-0.43-0.47-0.54-0.76c-0.06-0.17-0.1-0.35-0.13-0.52c-0.03-0.18-0.05-0.37-0.11-0.53
				C6.11,68.95,6.02,68.95,6.01,69.02L6.01,69.02z"/>
		</g>
	</g>
	<g>
		<g>
			<path class="st3" d="M8.48,73.22c-0.18,0.64,0.34,1.27,0.94,1.44c0.66,0.19,1.38-0.11,1.78-0.64c0.24-0.31,0.38-0.69,0.43-1.08
				c-0.04,0.04-0.09,0.08-0.13,0.12c1.55,0.04,3.14-0.19,4.51-0.94c1.23-0.68,2.23-1.79,2.58-3.16c0.18-0.7,0.22-1.53-0.06-2.21
				c-0.05-0.12-0.26-0.09-0.23,0.05c0.13,0.63,0.19,1.24,0.06,1.88c-0.13,0.64-0.41,1.24-0.8,1.75c-0.86,1.13-2.18,1.83-3.55,2.14
				c-0.83,0.18-1.69,0.24-2.55,0.21c-0.06,0-0.12,0.06-0.13,0.12c-0.09,0.73-0.56,1.44-1.33,1.55c-0.36,0.05-0.72-0.03-0.99-0.28
				c-0.25-0.24-0.38-0.58-0.39-0.92C8.64,73.13,8.51,73.14,8.48,73.22L8.48,73.22z"/>
		</g>
	</g>
	<g>
		<g>
			<path class="st3" d="M11.77,67.31c-0.05,0.03-0.1,0.03-0.14,0.08c-0.04,0.04-0.07,0.1-0.1,0.15c-0.05,0.13-0.06,0.27-0.03,0.4
				c0.07,0.33,0.34,0.56,0.59,0.76c-0.01-0.05-0.02-0.11-0.04-0.16c-0.24,0.41-0.23,0.93,0,1.34c0.21,0.37,0.69,0.69,1.13,0.66
				c0.15-0.01,0.16-0.24,0.01-0.27c-0.19-0.03-0.35-0.06-0.52-0.15c-0.16-0.09-0.29-0.22-0.38-0.38c-0.19-0.33-0.18-0.75,0-1.08
				c0.03-0.05,0.01-0.13-0.04-0.16c-0.2-0.15-0.42-0.31-0.5-0.56c-0.03-0.09-0.04-0.19-0.03-0.28c0.01-0.05,0.03-0.09,0.05-0.14
				c0.01-0.03,0.02-0.1,0.05-0.12C11.87,67.35,11.82,67.27,11.77,67.31L11.77,67.31z"/>
		</g>
	</g>
	<g>
		<g>
			<path class="st3" d="M13.5,66.6c-0.04,0.06-0.1,0.1-0.13,0.16c-0.03,0.06-0.05,0.14-0.06,0.21c-0.02,0.15-0.01,0.3,0.05,0.44
				c0.11,0.29,0.36,0.49,0.65,0.56c-0.03-0.06-0.07-0.13-0.1-0.19c-0.21,0.45-0.16,1.01,0.16,1.4c0.15,0.18,0.35,0.33,0.57,0.41
				c0.22,0.08,0.5,0.13,0.73,0.06c0.15-0.05,0.09-0.26-0.06-0.26c-0.2,0-0.38,0.02-0.57-0.06c-0.17-0.07-0.34-0.18-0.45-0.32
				c-0.25-0.31-0.29-0.75-0.13-1.11c0.04-0.08-0.01-0.17-0.1-0.19c-0.2-0.05-0.38-0.2-0.46-0.39c-0.04-0.1-0.05-0.2-0.04-0.3
				c0.01-0.09,0.02-0.24,0.07-0.32C13.66,66.6,13.54,66.53,13.5,66.6L13.5,66.6z"/>
		</g>
	</g>
	<g>
		<path class="st3" d="M15.52,66.1c0.09,0.26-0.04,0.54-0.3,0.64c-0.26,0.09-0.54-0.04-0.64-0.3c-0.09-0.26,0.04-0.54,0.3-0.64
			C15.14,65.71,15.42,65.85,15.52,66.1z"/>
	</g>
</g>
<g>
	<g>
		<path class="st0" d="M83.28,75.72c-0.18,0.06-0.38,0.06-0.55,0.15c-0.27,0.14-0.38,0.46-0.5,0.74c-0.02,0.06-0.05,0.12-0.08,0.18
			c-0.69,1.55-2.03,2.72-3.63,3.26c-2.16,0.73-3.87,0.89-5.61,0.81l0-0.09c-1.08-2.46-0.99-5.41,0.25-7.8l0-0.05
			c0.33,0.01,0.66,0.06,0.98,0.14l0.49-0.02c-0.5-0.77-0.96-1.67-0.72-2.55c0.18-0.68,0.77-1.2,1.44-1.42
			c0.66-0.22,1.39-0.19,2.08-0.02c0.54,0.13,1.14,0.41,1.27,0.95c0.07,0.28-0.01,0.57-0.08,0.84c-0.23,0.86-0.46,1.72-0.68,2.58
			l0.23,0.13C79.05,74.06,80,74.45,81,74.7c0.42,0.11,0.87,0.19,1.28,0.03c0.39-0.15,0.73-0.51,1.14-0.42
			c0.2,0.05,0.36,0.2,0.43,0.4C84.01,75.16,83.68,75.59,83.28,75.72z"/>
	</g>
	<g>
		<path class="st1" d="M83.81,75.38c-0.05,0.1-0.13,0.17-0.23,0.22c-0.1,0.05-0.21,0.09-0.32,0.13c-0.12,0.05-0.25,0.1-0.38,0.13
			c-0.12,0.03-0.25,0.03-0.37-0.02c-0.11-0.04-0.21-0.12-0.3-0.2c-0.13-0.11-0.15-0.26-0.12-0.41c0-0.15,0.05-0.31,0.13-0.42
			c0.14-0.2,0.35-0.32,0.58-0.41c0.11-0.04,0.23-0.09,0.35-0.1c0.13-0.01,0.25,0.06,0.36,0.11c0.1,0.06,0.2,0.13,0.25,0.24
			c0.05,0.11,0.07,0.23,0.08,0.35C83.87,75.13,83.87,75.26,83.81,75.38z"/>
	</g>
	<g>
		<path class="st1" d="M76.22,76.87c0.16,0.3,0.23,0.68,0.14,1.02c-0.08,0.29-0.27,0.54-0.52,0.72c-0.5,0.35-1.19,0.23-1.61-0.19
			c-0.34-0.34-0.46-0.9-0.25-1.32c0.09-0.25,0.28-0.46,0.51-0.61C75.05,76.12,75.89,76.24,76.22,76.87z"/>
	</g>
	<g>
		<path class="st1" d="M73.15,72.98c-1.24,2.39-1.33,5.33-0.25,7.8l0,0.09c-0.74-0.03-1.48-0.11-2.27-0.2l0.01-0.12
			c-0.79-2.4-0.52-5.14,0.74-7.33l-0.01-0.04c0.57-0.18,1.18-0.27,1.79-0.24L73.15,72.98z"/>
	</g>
	<g>
		<path class="st0" d="M70.65,80.54l-0.01,0.12c-0.09-0.01-0.18-0.02-0.27-0.03c-0.5-0.06-1.02-0.15-1.45-0.42
			c-0.73-0.47-1.03-1.4-1.03-2.28c0-0.06,0-0.11,0-0.17c0-0.13,0.01-0.26,0.03-0.39c0.17-1.42,0.97-2.75,2.14-3.56
			c0.4-0.28,0.85-0.49,1.31-0.64l0.01,0.04C70.13,75.4,69.85,78.14,70.65,80.54z"/>
	</g>
	<g>
		<path class="st1" d="M67.92,77.37c-0.02,0.13-0.03,0.26-0.03,0.39c0,0.06,0,0.11,0,0.17l-0.14,0c-0.91-0.08-1.5-1.05-1.58-1.96
			c-0.08-0.91,0.19-1.81,0.24-2.72c0.06-1.03-0.18-2.12-0.89-2.87c-0.64-0.68-1.72-0.98-2.56-0.62c0.65-0.36,1.49-0.34,2.17-0.01
			c0.76,0.37,1.31,1.08,1.59,1.88c0.28,0.79,0.3,1.66,0.19,2.49c-0.06,0.42-0.15,0.84-0.17,1.27c-0.03,0.43,0.02,0.87,0.21,1.25
			C67.13,77.01,67.5,77.32,67.92,77.37z"/>
	</g>
	<g>
		<g>
			<path class="st3" d="M78.02,73.44c0.17-0.45,0.27-0.94,0.4-1.4c0.13-0.47,0.27-0.93,0.37-1.4c0.09-0.39,0.07-0.78-0.19-1.1
				c-0.21-0.27-0.53-0.43-0.84-0.54c-0.78-0.27-1.72-0.33-2.51-0.04c-0.68,0.25-1.28,0.78-1.47,1.49c-0.27,0.95,0.23,1.9,0.73,2.68
				c0.09,0.14,0.32,0.01,0.23-0.13c-0.41-0.63-0.82-1.37-0.76-2.15c0.06-0.69,0.55-1.24,1.15-1.53c0.71-0.34,1.57-0.3,2.31-0.11
				c0.29,0.08,0.59,0.19,0.82,0.39c0.29,0.25,0.35,0.57,0.28,0.94c-0.09,0.48-0.24,0.95-0.37,1.43c-0.12,0.48-0.28,0.95-0.35,1.44
				C77.83,73.5,77.98,73.55,78.02,73.44L78.02,73.44z"/>
		</g>
	</g>
	<g>
		<g>
			<path class="st3" d="M74.57,73.1c-1.12-0.49-2.47-0.39-3.59,0.05c-1.11,0.45-2.04,1.28-2.61,2.33c-0.53,0.99-0.79,2.2-0.53,3.31
				c0.12,0.52,0.38,1.04,0.8,1.38c0.5,0.41,1.13,0.52,1.76,0.59c1.18,0.14,2.36,0.26,3.55,0.24c1.26-0.02,2.51-0.22,3.72-0.56
				c0.62-0.18,1.23-0.37,1.81-0.67c0.51-0.26,0.98-0.6,1.4-0.99c0.41-0.39,0.77-0.83,1.06-1.32c0.15-0.25,0.28-0.52,0.39-0.79
				c0.1-0.25,0.2-0.57,0.45-0.7c0.13-0.07,0.3-0.08,0.44-0.12c0.14-0.03,0.27-0.09,0.39-0.18c0.22-0.16,0.37-0.39,0.4-0.66
				c0.03-0.28-0.09-0.56-0.31-0.73c-0.24-0.18-0.53-0.17-0.8-0.06c-0.28,0.11-0.51,0.32-0.81,0.4c-0.34,0.09-0.7,0.02-1.03-0.06
				c-0.67-0.16-1.32-0.39-1.94-0.68c-0.31-0.14-0.61-0.3-0.9-0.47c-0.15-0.09-0.29,0.15-0.14,0.24c0.57,0.33,1.17,0.61,1.79,0.84
				c0.31,0.11,0.63,0.21,0.95,0.3c0.3,0.08,0.61,0.15,0.93,0.16c0.32,0,0.6-0.09,0.87-0.24c0.22-0.13,0.48-0.33,0.76-0.27
				c0.27,0.06,0.42,0.36,0.36,0.62c-0.05,0.23-0.24,0.43-0.47,0.51c-0.28,0.1-0.57,0.09-0.79,0.31c-0.2,0.19-0.29,0.45-0.39,0.7
				c-0.21,0.52-0.5,1.01-0.86,1.44c-0.69,0.84-1.61,1.49-2.63,1.86c-1.18,0.43-2.43,0.71-3.68,0.82c-1.11,0.09-2.23,0.04-3.34-0.06
				c-0.59-0.06-1.19-0.1-1.77-0.22c-0.56-0.12-1.06-0.38-1.37-0.87c-0.58-0.92-0.5-2.14-0.16-3.12c0.36-1.06,1.07-2,2.02-2.59
				c1-0.63,2.21-0.87,3.37-0.71c0.28,0.04,0.56,0.09,0.83,0.15C74.59,73.28,74.66,73.14,74.57,73.1L74.57,73.1z"/>
		</g>
	</g>
	<g>
		<g>
			<path class="st3" d="M62.76,69.95c0.29-0.17,0.67-0.22,1.01-0.21c0.35,0.01,0.69,0.11,1,0.27c0.67,0.34,1.11,0.98,1.32,1.69
				c0.24,0.81,0.18,1.62,0.06,2.44c-0.12,0.83-0.28,1.7,0.01,2.52c0.24,0.68,0.81,1.42,1.6,1.43c0.18,0,0.23-0.28,0.04-0.32
				c-0.33-0.06-0.61-0.19-0.85-0.43c-0.24-0.24-0.4-0.55-0.5-0.88c-0.26-0.84-0.04-1.74,0.08-2.59c0.11-0.82,0.1-1.65-0.18-2.44
				c-0.26-0.71-0.73-1.34-1.41-1.69c-0.36-0.18-0.75-0.28-1.15-0.28c-0.2,0-0.39,0.03-0.58,0.09c-0.19,0.06-0.35,0.16-0.52,0.27
				C62.61,69.88,62.68,70,62.76,69.95L62.76,69.95z"/>
		</g>
	</g>
	<g>
		<g>
			<path class="st3" d="M62.78,69.97c0.32-0.16,0.63-0.3,0.99-0.34c0.34-0.04,0.69,0,1.02,0.11c0.66,0.22,1.19,0.73,1.53,1.32
				c0.4,0.69,0.54,1.49,0.53,2.28c-0.01,0.42-0.07,0.83-0.13,1.24c-0.06,0.4-0.13,0.81-0.1,1.23c0.05,0.76,0.47,1.58,1.3,1.66
				c0.14,0.01,0.13-0.19,0-0.21c-0.82-0.11-1.11-1.01-1.09-1.72c0.01-0.44,0.1-0.87,0.17-1.3c0.06-0.41,0.09-0.81,0.08-1.22
				c-0.03-0.77-0.21-1.55-0.63-2.21c-0.37-0.58-0.9-1.06-1.56-1.29c-0.37-0.13-0.77-0.17-1.16-0.12c-0.37,0.05-0.78,0.18-1.05,0.45
				C62.61,69.91,62.7,70.01,62.78,69.97L62.78,69.97z"/>
		</g>
	</g>
	<g>
		<path class="st1" d="M77.13,72.87c-1.67,1.56-3.1-1.07-2.45-2.56c0.47-0.83,1.85-0.83,2.58-0.35
			C78.09,70.68,77.87,72.15,77.13,72.87z"/>
	</g>
	<g>
		<path class="st3" d="M77.57,75.8c0,1.17-1.55,1.15-1.52-0.02C76.06,74.6,77.6,74.63,77.57,75.8z"/>
	</g>
</g>
<g>
	<g>
		<g>
			<path class="st4" d="M44.5,78.82l-0.15,0.04c-0.3-1.13-0.66-2.24-1.08-3.33c-0.28-0.72-0.59-1.44-1.08-2.03
				c-0.73-0.89-1.86-1.45-3.02-1.48l-0.2,0.02c0.1,0.19,0.17,0.39,0.21,0.6c0.06,0.35,0.03,0.71-0.09,1.04
				c0.99-0.08,1.94,0.82,1.85,1.75c-0.6,0.41-1.32,0.63-2.02,0.81c-2.31,0.57-4.71,0.64-7.09,0.7H30.9
				c-2.38-0.06-4.78-0.13-7.09-0.7c-0.75-0.18-1.5-0.43-2.12-0.88c-0.17-0.12-0.33-0.27-0.46-0.44c0-0.01-0.01-0.01-0.01-0.02
				c0.07,0,0.15,0,0.23,0c0.12,0,0.21-0.05,0.29-0.14c0.17-0.19,0.31-0.38,0.5-0.54c0.38-0.31,0.88-0.5,1.37-0.44
				c0.07,0.01,0.18-0.03,0.17-0.13c-0.08-0.58,0.16-1.19,0.62-1.54c0.09-0.07,0.09-0.22-0.03-0.26c-0.75-0.22-1.54-0.02-2.24,0.3
				c-0.68,0.31-1.34,0.75-1.75,1.39c-0.13,0.19-0.24,0.41-0.31,0.64c-0.24,0.42-0.43,0.88-0.6,1.33c-0.42,1.09-0.78,2.2-1.08,3.33
				l-0.15-0.04c-0.53,0.48-0.74,1.23-0.67,1.95c0.02,0.15,0.05,0.3,0.09,0.45c0.24,0.83,0.86,1.52,1.58,2
				c0.72,0.48,1.56,0.76,2.39,1c3.14,0.9,6.42,1.21,9.68,1.32h0.13c3.26-0.11,6.54-0.42,9.68-1.32c0.83-0.24,1.66-0.53,2.39-1
				c0.72-0.48,1.34-1.16,1.58-2c0.04-0.15,0.07-0.3,0.09-0.45C45.25,80.05,45.03,79.3,44.5,78.82z M31.26,83.63
				c-1.63,0-2.96-1.32-2.96-2.96c0-1.63,1.32-2.96,2.96-2.96c1.63,0,2.96,1.32,2.96,2.96C34.22,82.31,32.89,83.63,31.26,83.63z"/>
		</g>
	</g>
	<g>
		<path class="st5" d="M34.22,80.68c0,1.63-1.32,2.96-2.96,2.96c-1.63,0-2.96-1.32-2.96-2.96c0-1.63,1.32-2.96,2.96-2.96
			C32.89,77.72,34.22,79.04,34.22,80.68z"/>
	</g>
	<g>
		<path class="st1" d="M40.95,75.42c-0.6,0.41-1.32,0.63-2.02,0.81c-2.31,0.57-4.71,0.64-7.09,0.7H30.9
			c-2.38-0.06-4.78-0.13-7.09-0.7c-0.75-0.18-1.5-0.43-2.12-0.88c-0.17-0.12-0.33-0.27-0.46-0.44l0.5-0.04
			c0.35-0.75,1.25-1.23,2.11-1.13c-0.33-0.56-0.1-1.35,0.47-1.7c0.06-0.03,0.11-0.06,0.18-0.09c-0.21-0.42-0.09-0.96,0.28-1.27
			c0.37-0.3,0.96-0.34,1.37-0.08c-0.05-0.76,0.38-1.53,1.07-1.92c0.69-0.39,1.6-0.4,2.3-0.01c-0.1-0.56-0.11-1.17,0.22-1.65
			c0.33-0.47,1.1-0.7,1.55-0.32c0.73-0.54,1.82-0.62,2.63-0.19c0.81,0.43,1.29,1.36,1.17,2.23c1.04,0.11,1.84,1.17,1.63,2.14
			c0.75-0.09,1.54,0.2,2.02,0.76c0.1,0.12,0.19,0.25,0.26,0.38c0.1,0.19,0.17,0.39,0.21,0.6c0.06,0.35,0.03,0.71-0.09,1.04
			C40.08,73.59,41.03,74.49,40.95,75.42z"/>
	</g>
	<g>
		<g>
			<path class="st3" d="M23.56,71.9c-0.64-0.07-1.3,0.14-1.86,0.43c-0.58,0.3-1.08,0.75-1.47,1.28c-0.41,0.57-0.68,1.22-0.93,1.87
				c-0.28,0.73-0.53,1.47-0.75,2.22c-0.25,0.84-0.46,1.69-0.64,2.55c-0.03,0.16,0.21,0.23,0.25,0.07c0.34-1.45,0.76-2.88,1.28-4.27
				c0.25-0.66,0.49-1.31,0.86-1.91c0.33-0.55,0.78-1.02,1.32-1.36c0.6-0.38,1.27-0.54,1.96-0.67C23.71,72.09,23.67,71.92,23.56,71.9
				L23.56,71.9z"/>
		</g>
	</g>
	<g>
		<g>
			<path class="st3" d="M39.15,72.11c0.61,0.12,1.2,0.25,1.75,0.55c0.56,0.31,1.03,0.74,1.39,1.26c0.39,0.58,0.64,1.22,0.89,1.87
				c0.27,0.69,0.51,1.4,0.73,2.11c0.25,0.8,0.46,1.61,0.65,2.43c0.04,0.16,0.28,0.09,0.25-0.07c-0.31-1.53-0.75-3.04-1.29-4.51
				c-0.24-0.66-0.51-1.33-0.89-1.92c-0.36-0.56-0.84-1.04-1.41-1.38c-0.61-0.36-1.35-0.62-2.07-0.55
				C39.07,71.92,39.02,72.08,39.15,72.11L39.15,72.11z"/>
		</g>
	</g>
	<g>
		<g>
			<path class="st3" d="M44.45,80.64c-0.25,0.31-0.51,0.61-0.81,0.87c-0.31,0.26-0.65,0.49-1,0.68c-0.81,0.44-1.71,0.69-2.6,0.9
				c-1.9,0.45-3.84,0.76-5.79,0.92c-0.91,0.08-1.82,0.14-2.73,0.15c-0.76,0-1.52-0.04-2.28-0.09c-1.95-0.13-3.9-0.41-5.81-0.82
				c-1.87-0.4-3.95-0.92-5.06-2.63c-0.11-0.17-0.39-0.02-0.28,0.16c0.93,1.53,2.72,2.19,4.38,2.59c1.95,0.47,3.93,0.78,5.92,0.96
				c0.93,0.08,1.87,0.15,2.81,0.15c0.8,0,1.61-0.04,2.41-0.1c1.99-0.14,3.97-0.43,5.92-0.86c1.7-0.38,3.57-0.86,4.71-2.28
				c0.13-0.16,0.23-0.32,0.32-0.51C44.6,80.66,44.51,80.57,44.45,80.64L44.45,80.64z"/>
		</g>
	</g>
	<g>
		<g>
			<path class="st3" d="M44.43,78.89c0.67,0.72,0.78,1.81,0.36,2.68c-0.46,0.96-1.36,1.6-2.32,2.02c-1.1,0.47-2.3,0.75-3.47,0.99
				c-1.21,0.25-2.43,0.43-3.66,0.56c-1.22,0.12-2.44,0.2-3.66,0.24c-0.52,0.02-1.05-0.01-1.57-0.04c-0.61-0.03-1.23-0.07-1.84-0.12
				c-2.43-0.2-4.89-0.57-7.22-1.33c-1.02-0.33-2.04-0.82-2.73-1.68c-0.6-0.76-0.86-1.82-0.41-2.72c0.11-0.21,0.24-0.4,0.42-0.56
				c0.14-0.14-0.07-0.35-0.22-0.22c-0.74,0.69-0.9,1.82-0.56,2.75c0.38,1.02,1.24,1.77,2.2,2.24c1.11,0.55,2.37,0.85,3.57,1.11
				c1.26,0.28,2.54,0.47,3.82,0.61c1.28,0.14,2.57,0.22,3.86,0.27c0.56,0.02,1.12-0.01,1.69-0.04c0.64-0.03,1.29-0.08,1.93-0.13
				c1.29-0.11,2.57-0.27,3.84-0.51c1.25-0.23,2.51-0.52,3.7-0.96c1.04-0.38,2.04-0.97,2.67-1.91c0.54-0.82,0.7-1.94,0.21-2.82
				c-0.12-0.22-0.27-0.4-0.47-0.56C44.48,78.67,44.35,78.79,44.43,78.89L44.43,78.89z"/>
		</g>
	</g>
	<g>
		<g>
			<path class="st3" d="M39.71,72.67c0.73,0.25,1.79,0.62,1.85,1.54c0.03,0.42-0.25,0.75-0.57,0.99c-0.38,0.28-0.8,0.48-1.24,0.63
				c-0.91,0.31-1.88,0.49-2.84,0.62c-1,0.14-2.02,0.21-3.03,0.25c-1.43,0.06-2.84,0.08-4.27,0.03c-2-0.07-4.02-0.2-5.96-0.71
				c-0.45-0.12-0.9-0.26-1.32-0.47c-0.37-0.19-0.78-0.43-1-0.78c-0.22-0.35-0.16-0.76,0.05-1.1c0.24-0.37,0.64-0.59,1.04-0.74
				c0.21-0.08,0.42-0.14,0.63-0.2c0.19-0.06,0.11-0.35-0.08-0.3c-0.84,0.24-1.83,0.6-2.06,1.55c-0.24,0.97,0.7,1.59,1.46,1.94
				c0.94,0.42,1.98,0.62,2.99,0.78c1.08,0.17,2.16,0.26,3.25,0.31c1.58,0.08,3.15,0.09,4.73,0.03c1.09-0.04,2.19-0.1,3.27-0.24
				c1.04-0.13,2.1-0.3,3.1-0.63c0.47-0.15,0.93-0.35,1.34-0.63c0.35-0.24,0.69-0.54,0.8-0.96c0.11-0.41-0.04-0.84-0.29-1.17
				c-0.28-0.37-0.68-0.59-1.11-0.74c-0.22-0.08-0.45-0.13-0.68-0.19C39.64,72.46,39.59,72.63,39.71,72.67L39.71,72.67z"/>
		</g>
	</g>
	<g>
		<path class="st3" d="M31.26,83.81c-1.73,0-3.14-1.41-3.14-3.14c0-1.73,1.41-3.14,3.14-3.14c1.73,0,3.14,1.41,3.14,3.14
			C34.4,82.41,32.99,83.81,31.26,83.81z M31.26,77.9c-1.53,0-2.78,1.24-2.78,2.78s1.25,2.78,2.78,2.78c1.53,0,2.78-1.24,2.78-2.78
			S32.79,77.9,31.26,77.9z"/>
	</g>
	<g>
		<g>
			<path class="st3" d="M21.82,74.93c0.43-0.68,1.21-1.12,2.02-1.01c0.13,0.02,0.2-0.15,0.14-0.25c-0.31-0.58,0-1.3,0.59-1.55
				c0.09-0.04,0.1-0.17,0.06-0.24c-0.17-0.36-0.05-0.83,0.27-1.06c0.33-0.24,0.79-0.25,1.14-0.05c0.11,0.07,0.27-0.02,0.27-0.15
				c-0.04-0.7,0.34-1.38,0.94-1.74c0.64-0.39,1.49-0.39,2.15-0.03c0.15,0.08,0.29-0.05,0.27-0.2c-0.08-0.52-0.11-1.19,0.29-1.6
				c0.28-0.29,0.83-0.47,1.17-0.19c0.06,0.05,0.16,0.08,0.23,0.03c0.69-0.5,1.67-0.59,2.43-0.18c0.71,0.38,1.19,1.2,1.08,2.01
				c-0.02,0.14,0.05,0.23,0.19,0.24c0.87,0.11,1.63,1,1.44,1.89c-0.02,0.11,0.05,0.26,0.19,0.24c0.67-0.07,1.37,0.15,1.84,0.65
				c0.47,0.5,0.6,1.24,0.37,1.88c-0.04,0.11,0.07,0.25,0.19,0.24c0.87-0.06,1.74,0.68,1.66,1.59c-0.02,0.25,0.36,0.24,0.38,0
				c0.11-1.1-0.98-2.04-2.04-1.97c0.06,0.08,0.12,0.16,0.19,0.24c0.27-0.76,0.09-1.62-0.44-2.23c-0.52-0.6-1.36-0.89-2.14-0.8
				c0.06,0.08,0.12,0.16,0.19,0.24c0.24-1.15-0.68-2.25-1.81-2.38c0.06,0.06,0.13,0.13,0.19,0.19c0.09-0.74-0.2-1.48-0.73-2
				c-0.56-0.55-1.36-0.78-2.13-0.68c-0.44,0.06-0.86,0.21-1.22,0.48c0.08,0.01,0.15,0.02,0.23,0.03c-0.49-0.4-1.2-0.27-1.65,0.14
				c-0.56,0.51-0.54,1.33-0.42,2.02c0.09-0.07,0.18-0.14,0.27-0.2c-0.77-0.42-1.76-0.42-2.52,0.03c-0.71,0.43-1.15,1.23-1.11,2.05
				c0.09-0.05,0.18-0.1,0.27-0.15c-0.48-0.29-1.13-0.26-1.57,0.1c-0.44,0.36-0.57,0.99-0.33,1.5c0.02-0.08,0.04-0.16,0.06-0.24
				c-0.75,0.32-1.13,1.31-0.7,2.03c0.05-0.08,0.1-0.17,0.14-0.25c-0.9-0.08-1.9,0.38-2.21,1.27C21.6,74.96,21.76,75.03,21.82,74.93
				L21.82,74.93z"/>
		</g>
	</g>
	<g>
		<g>
			<path class="st3" d="M24.75,73.92c-0.3-0.09-0.58,0.21-0.61,0.48c-0.04,0.3,0.16,0.61,0.43,0.73c0.29,0.13,0.65,0.1,0.92-0.08
				c0.27-0.19,0.42-0.5,0.35-0.83c-0.07-0.34-0.46-0.61-0.81-0.49c-0.09,0.03-0.14,0.11-0.12,0.21c0.02,0.09,0.12,0.14,0.21,0.12
				c0.08-0.02,0.15-0.02,0.22,0.02c0.08,0.04,0.13,0.09,0.16,0.18c0.07,0.18-0.01,0.38-0.15,0.5c-0.28,0.24-0.86,0.19-0.92-0.25
				c-0.01-0.09,0.02-0.19,0.07-0.27c0.06-0.09,0.15-0.13,0.24-0.17C24.82,74.04,24.82,73.95,24.75,73.92L24.75,73.92z"/>
		</g>
	</g>
	<g>
		<g>
			<path class="st3" d="M25.41,72.23c-0.07,0.04-0.15,0.1-0.19,0.17c-0.04,0.08-0.07,0.17-0.07,0.26c0.01,0.2,0.13,0.38,0.32,0.45
				c0.17,0.07,0.38,0.02,0.53-0.09c0.17-0.13,0.24-0.34,0.18-0.54c-0.03-0.11-0.1-0.21-0.19-0.28c-0.05-0.04-0.11-0.07-0.17-0.1
				c-0.06-0.02-0.14-0.04-0.2-0.02c-0.06,0.02-0.11,0.07-0.11,0.14c0,0.07,0.05,0.12,0.11,0.14c-0.05-0.02,0.01,0,0.03,0.01
				c0.01,0,0.04,0.01,0.06,0.01c-0.04,0-0.02,0-0.01,0c0.01,0,0.01,0,0.02,0.01c0.01,0,0.01,0,0.02,0.01c0.03,0.01-0.03-0.02,0,0
				c0.02,0.01,0.03,0.02,0.05,0.03c0.01,0.01,0.01,0.02-0.01-0.01c0,0.01,0.01,0.01,0.02,0.02c0.01,0.01,0.03,0.03,0.04,0.04
				c0,0,0.01,0.01,0.01,0.01c-0.03-0.02-0.01-0.02,0,0c0.01,0.02,0.02,0.03,0.03,0.05c0.01,0.02,0,0.02,0-0.01
				c0,0.01,0.01,0.02,0.01,0.03c0.01,0.02,0.01,0.03,0.01,0.05c0,0.02-0.01,0.01,0-0.01c0,0.01,0,0.02,0,0.03c0,0.01,0,0.02,0,0.03
				c0,0.01,0,0.01,0,0.02c0-0.02,0-0.03,0-0.01c0,0.01-0.01,0.03-0.01,0.04c0,0.01-0.02,0.03,0,0c0,0.01-0.01,0.02-0.01,0.02
				c-0.01,0.01-0.01,0.02-0.02,0.03c-0.02,0.03,0.02-0.03,0,0c-0.01,0.01-0.01,0.02-0.02,0.02c-0.01,0.01-0.02,0.02-0.03,0.03
				c0.02-0.03,0.02-0.01,0,0c-0.01,0-0.01,0.01-0.02,0.01c-0.01,0.01-0.02,0.01-0.04,0.02c-0.03,0.01,0.03-0.01,0,0
				c-0.01,0-0.02,0.01-0.03,0.01c-0.01,0-0.03,0.01-0.04,0.01c-0.01,0-0.02,0-0.02,0c0.04-0.01,0.02,0,0.01,0c-0.01,0-0.03,0-0.04,0
				c-0.01,0-0.02,0-0.02,0c-0.04,0,0.02,0.01,0,0c-0.01,0-0.03-0.01-0.04-0.01c-0.01,0-0.02-0.01-0.02-0.01
				c-0.03-0.01,0.03,0.02,0,0c-0.01-0.01-0.02-0.01-0.04-0.02c-0.02-0.02,0-0.01,0,0c0,0-0.02-0.02-0.02-0.02
				c-0.01-0.01-0.01-0.01-0.02-0.02c-0.01-0.01,0.01,0,0.01,0.01c0-0.01-0.02-0.03-0.03-0.04c0-0.01-0.01-0.01-0.01-0.02
				c-0.01-0.02,0,0.01,0,0.01c0,0-0.02-0.05-0.02-0.06c0-0.01,0-0.02,0-0.02c-0.01-0.03,0,0.03,0,0c0-0.02,0-0.04,0-0.06
				c0-0.02,0-0.03,0-0.05c0,0,0-0.01,0-0.01c0-0.01,0-0.01,0,0.01c0-0.01,0-0.02,0.01-0.03c0-0.02,0.01-0.03,0.01-0.05
				c0.01-0.03-0.01,0.02,0-0.01c0.01-0.02,0.01-0.03,0.02-0.05c0,0-0.01,0.02,0,0c0-0.01,0.01-0.02,0.02-0.03
				c0,0,0.02-0.02,0.02-0.02c0.03-0.02,0.05-0.07,0.03-0.1C25.49,72.22,25.45,72.21,25.41,72.23L25.41,72.23z"/>
		</g>
	</g>
	<g>
		<g>
			<path class="st3" d="M27.01,73.09c-0.11,0.03-0.21,0.05-0.3,0.1c-0.11,0.06-0.2,0.15-0.27,0.25c-0.13,0.18-0.21,0.41-0.22,0.63
				c0,0.5,0.33,0.95,0.78,1.15c0.46,0.2,1.02,0.12,1.42-0.18c0.42-0.31,0.6-0.84,0.36-1.32c-0.24-0.5-0.88-0.84-1.43-0.79
				c-0.19,0.02-0.2,0.3,0,0.31c0.39,0.01,0.77,0.14,1.01,0.46c0.23,0.31,0.23,0.67-0.04,0.96c-0.53,0.58-1.6,0.36-1.77-0.43
				c-0.04-0.19-0.01-0.4,0.09-0.57c0.09-0.16,0.25-0.36,0.42-0.42C27.15,73.21,27.12,73.06,27.01,73.09L27.01,73.09z"/>
		</g>
	</g>
	<g>
		<g>
			<path class="st3" d="M34.57,70.33c-0.06,0.04-0.12,0.09-0.17,0.14c-0.06,0.07-0.1,0.15-0.14,0.23c-0.06,0.15-0.06,0.33-0.03,0.49
				c0.07,0.33,0.36,0.59,0.69,0.65c0.35,0.06,0.69-0.08,0.89-0.37c0.19-0.28,0.21-0.67,0.03-0.96c-0.1-0.16-0.24-0.28-0.41-0.35
				c-0.2-0.09-0.39-0.1-0.59-0.02c-0.13,0.06-0.06,0.26,0.07,0.26c0.14,0,0.22,0.01,0.35,0.05c0.03,0.01,0.09,0.04,0.13,0.07
				c0.04,0.03,0.08,0.07,0.13,0.11c0.14,0.16,0.15,0.4,0.06,0.59c-0.1,0.21-0.29,0.33-0.52,0.32c-0.1,0-0.21-0.04-0.31-0.1
				c-0.09-0.06-0.17-0.14-0.21-0.25c-0.05-0.11-0.05-0.24-0.03-0.36c0.02-0.12,0.07-0.28,0.16-0.37
				C34.74,70.39,34.65,70.27,34.57,70.33L34.57,70.33z"/>
		</g>
	</g>
	<g>
		<g>
			<path class="st3" d="M33.51,69.23c-0.05,0.01-0.09,0.02-0.14,0.05c-0.04,0.02-0.09,0.06-0.12,0.1c-0.07,0.08-0.12,0.19-0.13,0.3
				c-0.03,0.22,0.1,0.42,0.28,0.53c0.1,0.06,0.21,0.09,0.32,0.09c0.12,0,0.24-0.05,0.33-0.13c0.18-0.14,0.27-0.38,0.21-0.61
				c-0.03-0.12-0.11-0.23-0.2-0.31c-0.11-0.09-0.28-0.17-0.42-0.13c-0.07,0.02-0.12,0.09-0.12,0.16c0,0.08,0.05,0.14,0.12,0.16
				c0.02,0.01,0.03,0.01,0.05,0.01c0.01,0,0.02,0,0.02,0c0.02,0,0.02,0-0.01,0c0.01,0,0.04,0.01,0.05,0.01
				c0.01,0,0.02,0.01,0.03,0.01c0.02,0.01-0.04-0.02,0,0c0.02,0.01,0.04,0.02,0.05,0.03c0,0,0.03,0.02,0.01,0.01
				c-0.02-0.02,0.01,0.01,0.01,0.01c0.01,0.01,0.02,0.02,0.03,0.03c0,0,0.03,0.03,0.01,0.01c-0.02-0.02,0.01,0.01,0.01,0.01
				c0.01,0.02,0.02,0.03,0.03,0.05c0.02,0.03,0-0.01,0-0.01c0,0,0.01,0.02,0.01,0.03c0,0.01,0.01,0.04,0.01,0.05
				c-0.01-0.02,0-0.03,0-0.01c0,0.01,0,0.02,0,0.03c0,0.01,0,0.02,0,0.03c0,0.03,0.01-0.03,0,0c0,0.02-0.01,0.03-0.01,0.05
				c0,0.01-0.01,0.04,0,0c0,0.01-0.01,0.02-0.01,0.02c-0.01,0.02-0.02,0.03-0.03,0.05c-0.01,0.01-0.02,0.03,0,0
				c-0.01,0.01-0.02,0.02-0.02,0.03c-0.01,0.01-0.02,0.02-0.03,0.03c-0.03,0.03,0.02-0.01,0,0c-0.01,0.01-0.02,0.01-0.02,0.02
				c-0.01,0.01-0.03,0.02-0.04,0.02c0.03-0.02,0.01,0,0,0c-0.01,0-0.02,0.01-0.03,0.01c-0.02,0-0.03,0.01-0.05,0.01
				c0.04-0.01-0.02,0-0.03,0c-0.01,0-0.03,0,0,0c-0.01,0-0.02,0-0.02,0c-0.02,0-0.04-0.01-0.06-0.02c-0.02-0.01,0.03,0.02,0,0
				c-0.01,0-0.01-0.01-0.02-0.01c-0.02-0.01-0.03-0.02-0.05-0.03c-0.01,0-0.03-0.02,0,0c-0.01-0.01-0.01-0.01-0.02-0.02
				c-0.01-0.01-0.03-0.03-0.04-0.04c0.02,0.02,0,0,0,0c-0.01-0.01-0.01-0.02-0.02-0.02c0-0.01-0.01-0.01-0.01-0.02
				c-0.02-0.03,0,0.02,0-0.01c-0.01-0.02-0.01-0.03-0.02-0.05c0-0.01,0-0.02,0-0.02c0.01,0.03,0,0,0-0.01c0-0.02,0-0.04,0-0.06
				c0-0.01,0-0.03,0-0.01c0-0.01,0-0.02,0.01-0.03c0-0.02,0.01-0.04,0.02-0.06c0.01-0.02,0-0.01,0,0c0-0.01,0.01-0.02,0.02-0.03
				c0.02-0.05,0.04-0.07,0.07-0.1c-0.01,0.01,0,0,0.01-0.01c0.01-0.01,0.02-0.02,0.02-0.02c-0.01,0.01,0.03-0.04,0.02-0.02
				c-0.01,0.01,0.02-0.01,0.03-0.01C33.65,69.33,33.59,69.21,33.51,69.23L33.51,69.23z"/>
		</g>
	</g>
	<g>
		<g>
			<path class="st3" d="M32.58,71.06c-0.16,0.02-0.3,0.05-0.43,0.16c-0.12,0.1-0.2,0.24-0.23,0.39c-0.06,0.34,0.1,0.69,0.39,0.87
				c0.29,0.18,0.69,0.18,0.99,0.02c0.31-0.17,0.49-0.5,0.42-0.85c-0.08-0.4-0.48-0.71-0.87-0.76c-0.16-0.02-0.21,0.23-0.08,0.3
				c0.12,0.06,0.25,0.1,0.36,0.18c0.1,0.06,0.18,0.15,0.23,0.25c0.11,0.2,0.04,0.43-0.14,0.56c-0.36,0.27-0.99,0.09-1.01-0.41
				c-0.01-0.12,0.03-0.23,0.1-0.33c0.07-0.1,0.18-0.19,0.3-0.21C32.7,71.22,32.68,71.06,32.58,71.06L32.58,71.06z"/>
		</g>
	</g>
	<g>
		<g>
			<path class="st3" d="M35.61,74.24c-0.21,0.04-0.35,0.24-0.35,0.45c0.01,0.24,0.19,0.43,0.42,0.49c0.22,0.06,0.47-0.03,0.62-0.21
				c0.16-0.19,0.22-0.46,0.1-0.69c-0.06-0.11-0.18-0.2-0.3-0.23c-0.13-0.03-0.34-0.01-0.4,0.13c-0.03,0.06-0.03,0.12,0.01,0.17
				c0.04,0.05,0.1,0.06,0.16,0.05c-0.06,0.01,0.02,0,0.04-0.01c0.01-0.01,0.03-0.01,0.04-0.02c0.02-0.01-0.01,0-0.01,0
				c0,0,0.02-0.01,0.02-0.01c0,0,0.01,0,0.01,0c0.01,0,0.01,0,0,0c0,0-0.01,0-0.01,0c0.01,0,0.01,0,0.02,0c0.01,0,0.01,0,0.02,0
				c0.04,0-0.03-0.01,0,0c0.02,0,0.03,0.01,0.05,0.01c0.02,0-0.03-0.02,0,0c0.01,0,0.01,0.01,0.02,0.01c0,0,0.02,0.01,0.02,0.01
				c0,0-0.02-0.02-0.01,0c0.01,0.01,0.01,0.01,0.02,0.02c0,0,0.01,0.01,0.01,0.01c-0.01-0.02-0.01-0.02-0.01-0.01
				c0,0.01,0.03,0.04,0.03,0.05c0,0-0.01-0.03,0,0c0,0.01,0.01,0.02,0.01,0.03c0,0.01,0.01,0.02,0.01,0.03c0,0,0-0.04,0-0.01
				c0,0.02,0,0.04,0,0.06c0,0,0,0.04,0,0.02c0-0.03,0,0.02,0,0.02c0,0.02-0.01,0.03-0.01,0.05c0,0-0.02,0.04-0.01,0.02
				c0.01-0.02-0.01,0.01-0.01,0.02c-0.01,0.02-0.02,0.04-0.03,0.05c0,0.01-0.01,0.01-0.01,0.02c0.02-0.03,0,0,0,0
				c-0.01,0.01-0.03,0.03-0.04,0.04c-0.01,0.01-0.01,0.01-0.02,0.02c0.02-0.02,0,0,0,0c-0.02,0.01-0.04,0.02-0.06,0.04
				c-0.01,0-0.01,0.01-0.02,0.01c0.01,0,0.03-0.01,0,0c-0.02,0.01-0.03,0.01-0.05,0.02c-0.01,0-0.02,0-0.03,0.01c0.01,0,0.03,0,0,0
				c-0.02,0-0.04,0-0.06,0c-0.04,0,0.02,0.01,0,0c-0.01,0-0.02,0-0.03-0.01c-0.02,0-0.03-0.01-0.05-0.01c-0.04-0.01,0.02,0.01,0,0
				c-0.01-0.01-0.02-0.01-0.03-0.01c-0.01,0-0.01-0.01-0.02-0.01c0,0-0.03-0.03-0.01-0.01c-0.01-0.01-0.03-0.02-0.04-0.04
				c-0.01-0.01-0.01-0.01-0.02-0.02c0-0.01-0.01-0.02,0,0c-0.01-0.02-0.02-0.03-0.03-0.05c0-0.01-0.01-0.03,0-0.01
				c0-0.01-0.01-0.02-0.01-0.03c0-0.01,0-0.01,0-0.02c-0.01-0.03,0,0.03,0-0.01c0-0.02,0-0.04,0-0.06c0,0.03,0,0.01,0,0
				c0-0.01,0-0.02,0.01-0.03c0-0.02,0.01-0.04,0.02-0.06s-0.01,0.02,0-0.01c0.01-0.01,0.01-0.02,0.02-0.03
				c0.01-0.02,0.02-0.03,0.03-0.05c0.01-0.02,0.04-0.04,0.07-0.06c0.04-0.02,0.05-0.07,0.03-0.1
				C35.69,74.25,35.65,74.24,35.61,74.24L35.61,74.24z"/>
		</g>
	</g>
	<g>
		<g>
			<path class="st3" d="M37.8,74.88C37.84,74.87,37.72,74.86,37.8,74.88c0.01,0.01,0.02,0.01,0.04,0.01c0.01,0,0.01,0,0.02,0
				c0.03,0-0.02-0.01,0.01,0c0.02,0,0.03,0.01,0.05,0.01c-0.03,0-0.01,0,0,0c0.02,0.01,0.04,0.01,0.06,0.02c0.02,0.01,0,0-0.01,0
				c0.01,0,0.02,0.01,0.02,0.01c0.01,0.01,0.03,0.01,0.04,0.02c0.01,0,0.02,0.01,0.02,0.02c0.03,0.02-0.02-0.02,0,0
				c0.01,0.01,0.03,0.03,0.04,0.04c0.02,0.02-0.02-0.02,0,0c0,0.01,0.01,0.01,0.01,0.01c0,0.01,0.01,0.02,0.01,0.02
				c0,0,0,0.01,0,0.01c0.01,0.01,0.01,0.01,0-0.01c0.01,0,0.01,0.04,0.01,0.04c0,0,0,0.01,0,0.01c0,0.02,0,0.01,0-0.01
				c0,0,0,0.02,0,0.03c0,0.01-0.01,0.05,0,0.05c0,0,0.01-0.04,0-0.01c0,0.01,0,0.02-0.01,0.03c0,0-0.02,0.04-0.01,0.04
				c0-0.01,0-0.01,0.01-0.02c0,0.01-0.01,0.01-0.01,0.02c0,0.01-0.01,0.02-0.02,0.03c0,0.01-0.01,0.01-0.01,0.02c0,0,0,0-0.01,0.01
				c-0.01,0.01-0.01,0.01,0.01-0.01c0,0-0.03,0.03-0.03,0.03c0,0-0.02,0.01-0.02,0.02c0-0.01,0.03-0.02,0,0
				c-0.01,0.01-0.04,0.02-0.05,0.03c0.02-0.02,0.03-0.01,0.01,0c-0.01,0-0.01,0-0.02,0.01c-0.01,0-0.02,0-0.03,0.01
				c0.02-0.01,0.03,0,0.01,0c-0.02,0-0.03,0-0.05,0c0,0-0.04,0-0.01,0c0.03,0-0.01,0-0.01,0c-0.01,0-0.03-0.01-0.04-0.01
				c0,0-0.01,0-0.01,0c-0.02-0.01-0.01,0,0.01,0.01c-0.01-0.01-0.02-0.01-0.02-0.01c-0.01-0.01-0.03-0.02-0.04-0.02
				c-0.03-0.02,0.03,0.03,0,0c-0.01-0.01-0.01-0.01-0.02-0.02c-0.01-0.01-0.01-0.01-0.02-0.02c0,0,0,0-0.01-0.01
				c-0.01-0.01-0.01-0.01,0.01,0.01c0-0.01-0.02-0.03-0.02-0.04c-0.01-0.02-0.01-0.03,0,0.01c0-0.01,0-0.01-0.01-0.02
				c0-0.01-0.01-0.02-0.01-0.03c0-0.01,0-0.01,0-0.02c0-0.02,0-0.01,0,0.02c0-0.02,0-0.04,0-0.05c0-0.01,0-0.02,0-0.02
				c0-0.01,0-0.01,0,0.02c0-0.01,0-0.01,0-0.02c0-0.02,0.01-0.03,0.01-0.05c0.01-0.03-0.02,0.04,0,0.01c0-0.01,0.01-0.02,0.01-0.03
				c0-0.01,0.01-0.01,0.01-0.02c0.01-0.01,0.04-0.04,0,0c0.01-0.01,0.02-0.03,0.04-0.04c0.01-0.01,0.01-0.01,0.02-0.02
				c0.02-0.02-0.03,0.02-0.01,0c0.02-0.01,0.04-0.02,0.05-0.04c0.02-0.02-0.03,0.02,0,0c0.07-0.05,0.1-0.12,0.06-0.2
				c-0.03-0.08-0.11-0.11-0.19-0.09c-0.11,0.02-0.21,0.11-0.27,0.2c-0.06,0.09-0.09,0.2-0.08,0.3c0,0.23,0.16,0.42,0.37,0.48
				c0.1,0.03,0.21,0.03,0.3,0c0.11-0.03,0.19-0.1,0.26-0.19c0.12-0.16,0.13-0.4,0.02-0.56c-0.07-0.09-0.16-0.17-0.27-0.2
				c-0.06-0.02-0.12-0.02-0.18-0.01c-0.02,0-0.04,0.01-0.06,0.02c-0.02,0.01-0.04,0.01-0.05,0.02c0.01,0-0.02,0.02-0.01,0.01
				c0.01-0.01-0.01,0.01-0.01,0.01c-0.04,0.02-0.05,0.07-0.03,0.11C37.72,74.87,37.76,74.89,37.8,74.88L37.8,74.88z"/>
		</g>
	</g>
	<g>
		<g>
			<path class="st3" d="M43.99,80.34c-0.11,0.08-0.23,0.13-0.35,0.2c-0.1,0.06-0.2,0.13-0.3,0.19c-0.2,0.13-0.4,0.26-0.6,0.37
				c-0.44,0.25-0.89,0.46-1.36,0.64c-0.46,0.17-0.93,0.32-1.4,0.43c-0.24,0.05-0.48,0.1-0.72,0.14c-0.25,0.04-0.51,0.04-0.75,0.1
				c-0.16,0.04-0.11,0.25,0.04,0.27c0.25,0.02,0.51-0.03,0.75-0.06c0.25-0.04,0.5-0.08,0.75-0.14c0.5-0.11,1-0.26,1.48-0.46
				c0.47-0.19,0.92-0.41,1.35-0.67c0.22-0.13,0.43-0.26,0.64-0.41c0.1-0.07,0.2-0.14,0.29-0.22c0.1-0.09,0.18-0.2,0.28-0.29
				C44.13,80.4,44.05,80.3,43.99,80.34L43.99,80.34z"/>
		</g>
	</g>
</g>
<g>
	<g>
		<path class="st4" d="M17.69,58.44c-0.61,1.04-1.74,1.73-2.93,1.92c-1.19,0.19-2.43-0.08-3.5-0.63c-1.07-0.55-1.99-1.37-2.78-2.29
			c-0.42,0.31-0.96,0.46-1.48,0.38c-0.51-0.09-0.99-0.44-1.16-0.93C5.7,56.47,5.8,55.96,6.1,55.64c-0.06,0.19-0.08,0.39-0.02,0.58
			c0.12,0.38,0.51,0.62,0.91,0.69c0.62,0.12,1.29-0.08,1.73-0.53c0.67,1.21,1.8,2.14,3.09,2.65c1.29,0.5,2.73,0.58,4.08,0.3
			c0.65-0.13,1.34-0.41,1.68-0.95L17.69,58.44z"/>
	</g>
	<g>
		<path class="st4" d="M7.4,54.14c-0.05-0.5-0.47-0.9-0.57-1.4C6.75,52.38,6.85,52,7.03,51.68c0.17-0.31,0.42-0.58,0.66-0.84l0,0
			c-0.04,0.04-0.07,0.08-0.1,0.13c-0.24,0.38-0.17,0.88-0.05,1.31c0.11,0.44,0.26,0.89,0.15,1.33C7.63,53.81,7.53,53.98,7.4,54.14z"
			/>
	</g>
	<g>
		<path class="st4" d="M17.59,58.38c-0.34,0.54-1.04,0.82-1.68,0.95c-1.36,0.28-2.79,0.2-4.08-0.3c-1.29-0.5-2.42-1.44-3.09-2.65
			c-0.44,0.45-1.11,0.65-1.73,0.53c-0.39-0.08-0.78-0.32-0.91-0.69c-0.06-0.19-0.05-0.39,0.02-0.58c0.1-0.3,0.33-0.59,0.58-0.81
			c0.24-0.22,0.51-0.44,0.71-0.69c0.13-0.16,0.23-0.33,0.29-0.53c0.12-0.43-0.03-0.89-0.15-1.33c-0.12-0.43-0.19-0.93,0.05-1.31
			c0.03-0.05,0.07-0.09,0.1-0.13c0.27-0.28,0.71-0.39,1.1-0.29c0.44,0.11,0.8,0.44,1.05,0.82c0.25,0.38,0.39,0.82,0.53,1.25
			c1.28-0.16,2.96-0.3,4.12,0.25c1.32,0.63,2.13,1.98,2.81,3.28c0.32,0.61,0.64,1.31,0.41,1.96C17.68,58.21,17.64,58.29,17.59,58.38
			z"/>
	</g>
	<g>
		<g>
			<path class="st3" d="M10.49,52.58c-0.25-0.9-0.7-2.01-1.74-2.21c-0.41-0.08-0.87,0.03-1.16,0.33c-0.34,0.34-0.36,0.85-0.28,1.3
				c0.08,0.44,0.28,0.88,0.26,1.34c-0.03,0.54-0.47,0.9-0.84,1.23c-0.33,0.29-0.63,0.61-0.77,1.03c-0.13,0.4-0.02,0.84,0.3,1.12
				c0.73,0.64,1.95,0.41,2.59-0.24c-0.08-0.01-0.17-0.02-0.25-0.02c0.71,1.27,1.91,2.24,3.27,2.75c1.36,0.5,2.9,0.57,4.3,0.22
				c0.64-0.16,1.33-0.48,1.63-1.1c0.3-0.61,0.11-1.29-0.16-1.87c-0.31-0.66-0.68-1.31-1.09-1.91c-0.42-0.6-0.91-1.16-1.53-1.56
				c-1.21-0.79-2.76-0.71-4.14-0.56c-0.17,0.02-0.34,0.04-0.51,0.06c-0.18,0.02-0.16,0.3,0.01,0.28c0.67-0.08,1.35-0.14,2.02-0.13
				c0.65,0.01,1.32,0.07,1.92,0.33c1.3,0.56,2.09,1.84,2.73,3.04c0.28,0.53,0.63,1.13,0.58,1.75c-0.05,0.66-0.62,1.06-1.19,1.26
				c-0.64,0.23-1.34,0.31-2.02,0.32c-0.68,0.01-1.36-0.08-2.01-0.27c-1.49-0.43-2.79-1.41-3.55-2.77c-0.05-0.09-0.18-0.09-0.25-0.02
				c-0.51,0.51-1.38,0.71-2.02,0.32c-0.32-0.2-0.45-0.54-0.34-0.89c0.12-0.36,0.41-0.64,0.68-0.89c0.34-0.31,0.71-0.62,0.87-1.06
				c0.14-0.39,0.07-0.81-0.03-1.2c-0.1-0.39-0.25-0.81-0.15-1.22c0.09-0.37,0.41-0.61,0.78-0.64c0.48-0.04,0.9,0.25,1.18,0.62
				c0.31,0.4,0.48,0.89,0.66,1.36C10.3,52.81,10.54,52.74,10.49,52.58L10.49,52.58z"/>
		</g>
	</g>
	<g>
		<g>
			<path class="st3" d="M7.67,50.77c-0.31,0.18-0.56,0.53-0.74,0.84c-0.16,0.28-0.27,0.61-0.26,0.94c0.01,0.3,0.13,0.56,0.27,0.82
				c0.07,0.13,0.14,0.25,0.2,0.38c0.07,0.14,0.09,0.29,0.14,0.44c0.04,0.1,0.21,0.12,0.23-0.01c0.03-0.26-0.13-0.54-0.25-0.75
				c-0.13-0.24-0.29-0.49-0.33-0.77c-0.04-0.31,0.05-0.63,0.2-0.91c0.09-0.16,0.19-0.3,0.3-0.45c0.11-0.14,0.24-0.28,0.32-0.44
				C7.79,50.79,7.72,50.73,7.67,50.77L7.67,50.77z"/>
		</g>
	</g>
	<g>
		<g>
			<path class="st3" d="M6.23,55.43c-0.59,0.3-0.71,1.11-0.44,1.66c0.3,0.62,1.01,0.94,1.68,0.88c0.39-0.04,0.77-0.19,1.09-0.41
				c-0.06-0.01-0.12-0.01-0.17-0.02c1.01,1.18,2.25,2.19,3.74,2.7c1.33,0.45,2.82,0.44,4.08-0.22c0.64-0.34,1.28-0.86,1.59-1.53
				c0.05-0.11-0.11-0.25-0.19-0.14c-0.38,0.52-0.79,0.98-1.35,1.31c-0.56,0.33-1.19,0.53-1.83,0.59c-1.41,0.13-2.82-0.37-3.97-1.18
				c-0.7-0.49-1.32-1.09-1.87-1.74c-0.04-0.04-0.13-0.05-0.17-0.02c-0.6,0.43-1.44,0.55-2.04,0.06c-0.28-0.23-0.46-0.55-0.46-0.92
				c0-0.35,0.17-0.67,0.42-0.91C6.4,55.49,6.3,55.39,6.23,55.43L6.23,55.43z"/>
		</g>
	</g>
	<g>
		<g>
			<path class="st3" d="M12.81,53.87c-0.05-0.01-0.09-0.05-0.15-0.05c-0.06,0-0.12,0.01-0.18,0.03c-0.13,0.05-0.24,0.14-0.32,0.25
				c-0.2,0.27-0.19,0.63-0.17,0.94c0.03-0.05,0.06-0.09,0.09-0.14c-0.46,0.1-0.84,0.45-0.99,0.91c-0.13,0.41-0.05,0.97,0.27,1.28
				c0.11,0.11,0.29-0.04,0.21-0.17c-0.1-0.16-0.2-0.3-0.24-0.49c-0.04-0.18-0.03-0.37,0.02-0.54c0.11-0.37,0.44-0.64,0.8-0.72
				c0.06-0.01,0.1-0.08,0.09-0.14c-0.02-0.24-0.05-0.52,0.07-0.74c0.05-0.08,0.11-0.16,0.19-0.21c0.04-0.03,0.09-0.04,0.14-0.06
				c0.03-0.01,0.09-0.05,0.12-0.04C12.85,53.98,12.87,53.89,12.81,53.87L12.81,53.87z"/>
		</g>
	</g>
	<g>
		<g>
			<path class="st3" d="M14.5,54.67c-0.07,0.01-0.14-0.01-0.21,0.01c-0.07,0.02-0.14,0.05-0.2,0.09c-0.12,0.08-0.23,0.2-0.29,0.33
				c-0.14,0.27-0.12,0.59,0.03,0.86c0.03-0.07,0.05-0.14,0.08-0.2c-0.47,0.15-0.85,0.57-0.93,1.07c-0.03,0.23-0.01,0.48,0.08,0.69
				c0.09,0.22,0.24,0.46,0.45,0.58c0.14,0.07,0.25-0.11,0.15-0.21c-0.13-0.15-0.27-0.27-0.34-0.46c-0.07-0.17-0.1-0.37-0.07-0.55
				c0.06-0.39,0.36-0.72,0.74-0.84c0.09-0.03,0.12-0.13,0.08-0.2c-0.1-0.18-0.11-0.41-0.02-0.6c0.05-0.09,0.11-0.17,0.19-0.23
				c0.07-0.06,0.2-0.15,0.29-0.17C14.6,54.8,14.58,54.66,14.5,54.67L14.5,54.67z"/>
		</g>
	</g>
	<g>
		<path class="st3" d="M16.23,55.84c-0.13,0.24-0.43,0.34-0.67,0.21c-0.24-0.13-0.34-0.43-0.21-0.67c0.13-0.24,0.43-0.34,0.67-0.21
			C16.26,55.29,16.35,55.59,16.23,55.84z"/>
	</g>
</g>
<g>
	<g>
		<path class="st4" d="M86.09,51.24c0.61,1.04,1.74,1.73,2.93,1.92c1.19,0.19,2.43-0.08,3.5-0.63c1.07-0.55,1.99-1.37,2.78-2.29
			c0.42,0.31,0.96,0.46,1.48,0.38c0.51-0.09,0.99-0.44,1.16-0.93c0.15-0.42,0.05-0.93-0.26-1.25c0.06,0.19,0.08,0.39,0.02,0.58
			c-0.12,0.38-0.51,0.62-0.91,0.69c-0.62,0.12-1.29-0.08-1.73-0.53c-0.67,1.21-1.8,2.14-3.09,2.65c-1.29,0.5-2.73,0.58-4.08,0.3
			c-0.65-0.13-1.34-0.41-1.68-0.95L86.09,51.24z"/>
	</g>
	<g>
		<path class="st4" d="M96.38,46.93c0.05-0.5,0.47-0.9,0.57-1.4c0.07-0.36-0.03-0.73-0.21-1.05c-0.17-0.31-0.42-0.58-0.66-0.84l0,0
			c0.04,0.04,0.07,0.08,0.1,0.13c0.24,0.38,0.17,0.88,0.05,1.31c-0.11,0.44-0.26,0.89-0.15,1.33C96.15,46.6,96.25,46.78,96.38,46.93
			z"/>
	</g>
	<g>
		<path class="st4" d="M86.19,51.18c0.34,0.54,1.04,0.82,1.68,0.95c1.36,0.28,2.79,0.2,4.08-0.3c1.29-0.5,2.42-1.44,3.09-2.65
			c0.44,0.45,1.11,0.65,1.73,0.53c0.39-0.08,0.78-0.32,0.91-0.69c0.06-0.19,0.05-0.39-0.02-0.58c-0.1-0.3-0.33-0.59-0.58-0.81
			c-0.24-0.22-0.51-0.44-0.71-0.69c-0.13-0.16-0.23-0.33-0.29-0.53c-0.12-0.43,0.03-0.89,0.15-1.33c0.12-0.43,0.19-0.93-0.05-1.31
			c-0.03-0.05-0.07-0.09-0.1-0.13c-0.27-0.28-0.71-0.39-1.1-0.29c-0.44,0.11-0.8,0.44-1.05,0.82c-0.25,0.38-0.39,0.82-0.53,1.25
			c-1.28-0.16-2.96-0.3-4.12,0.25c-1.32,0.63-2.13,1.98-2.81,3.28c-0.32,0.61-0.64,1.31-0.41,1.96C86.09,51,86.14,51.09,86.19,51.18
			z"/>
	</g>
	<g>
		<g>
			<path class="st3" d="M93.28,45.38c0.25-0.9,0.7-2.01,1.74-2.21c0.41-0.08,0.87,0.03,1.16,0.33c0.34,0.34,0.36,0.85,0.28,1.3
				c-0.08,0.44-0.28,0.88-0.26,1.34c0.03,0.54,0.47,0.9,0.84,1.23c0.33,0.29,0.63,0.61,0.77,1.03c0.13,0.4,0.02,0.84-0.3,1.12
				c-0.73,0.64-1.95,0.41-2.59-0.24c0.08-0.01,0.17-0.02,0.25-0.02c-0.71,1.27-1.91,2.24-3.27,2.75c-1.36,0.5-2.9,0.57-4.3,0.22
				c-0.64-0.16-1.33-0.48-1.63-1.1c-0.3-0.61-0.11-1.29,0.16-1.87c0.31-0.66,0.68-1.31,1.09-1.91c0.42-0.6,0.91-1.16,1.53-1.56
				c1.21-0.79,2.76-0.71,4.14-0.56c0.17,0.02,0.34,0.04,0.51,0.06c0.18,0.02,0.16,0.3-0.01,0.28c-0.67-0.08-1.35-0.14-2.02-0.13
				c-0.65,0.01-1.32,0.07-1.92,0.33c-1.3,0.56-2.09,1.84-2.73,3.04c-0.28,0.53-0.63,1.13-0.58,1.75c0.05,0.66,0.62,1.06,1.19,1.26
				c0.64,0.23,1.34,0.31,2.02,0.32c0.68,0.01,1.36-0.08,2.01-0.27c1.49-0.43,2.79-1.41,3.55-2.77C94.97,49,95.1,49,95.17,49.07
				c0.51,0.51,1.38,0.71,2.02,0.32c0.32-0.2,0.45-0.54,0.34-0.89c-0.12-0.36-0.41-0.64-0.68-0.89c-0.34-0.31-0.71-0.62-0.87-1.06
				c-0.14-0.39-0.07-0.81,0.03-1.2c0.1-0.39,0.25-0.81,0.15-1.22c-0.09-0.37-0.41-0.61-0.78-0.64c-0.48-0.04-0.9,0.25-1.18,0.62
				c-0.31,0.4-0.48,0.89-0.66,1.36C93.47,45.61,93.24,45.54,93.28,45.38L93.28,45.38z"/>
		</g>
	</g>
	<g>
		<g>
			<path class="st3" d="M96.11,43.56c0.31,0.18,0.56,0.53,0.74,0.84c0.16,0.28,0.27,0.61,0.26,0.94c-0.01,0.3-0.13,0.56-0.27,0.82
				c-0.07,0.13-0.14,0.25-0.2,0.38c-0.07,0.14-0.09,0.29-0.14,0.44c-0.04,0.1-0.21,0.12-0.23-0.01c-0.03-0.26,0.13-0.54,0.25-0.75
				c0.13-0.24,0.29-0.49,0.33-0.77c0.04-0.31-0.05-0.63-0.2-0.91c-0.09-0.16-0.19-0.3-0.3-0.45c-0.11-0.14-0.24-0.28-0.32-0.44
				C95.99,43.59,96.05,43.53,96.11,43.56L96.11,43.56z"/>
		</g>
	</g>
	<g>
		<g>
			<path class="st3" d="M97.55,48.23c0.59,0.3,0.71,1.11,0.44,1.66c-0.3,0.62-1.01,0.95-1.68,0.88c-0.39-0.04-0.77-0.19-1.09-0.41
				c0.06-0.01,0.12-0.01,0.17-0.02c-1.01,1.18-2.25,2.19-3.74,2.7c-1.33,0.45-2.82,0.44-4.08-0.22c-0.64-0.34-1.28-0.86-1.59-1.53
				c-0.05-0.11,0.11-0.25,0.19-0.14c0.38,0.52,0.79,0.98,1.35,1.31c0.56,0.33,1.19,0.53,1.83,0.59c1.41,0.13,2.82-0.37,3.97-1.18
				c0.7-0.49,1.32-1.09,1.87-1.74c0.04-0.04,0.13-0.05,0.17-0.02c0.6,0.43,1.44,0.55,2.04,0.06c0.28-0.23,0.46-0.55,0.46-0.92
				c0-0.35-0.17-0.67-0.42-0.91C97.37,48.29,97.47,48.19,97.55,48.23L97.55,48.23z"/>
		</g>
	</g>
	<g>
		<g>
			<path class="st3" d="M90.97,46.67c0.05-0.01,0.09-0.05,0.15-0.05c0.06,0,0.12,0.01,0.18,0.03c0.13,0.05,0.24,0.14,0.32,0.25
				c0.2,0.27,0.19,0.63,0.17,0.94c-0.03-0.05-0.06-0.09-0.09-0.14c0.46,0.1,0.84,0.45,0.99,0.91c0.13,0.41,0.05,0.97-0.27,1.28
				c-0.11,0.11-0.29-0.04-0.21-0.17c0.1-0.16,0.2-0.3,0.24-0.49c0.04-0.18,0.03-0.37-0.02-0.54c-0.11-0.37-0.44-0.64-0.8-0.72
				c-0.06-0.01-0.1-0.08-0.09-0.14c0.02-0.24,0.05-0.52-0.07-0.74c-0.05-0.08-0.11-0.16-0.19-0.21c-0.04-0.03-0.09-0.04-0.14-0.06
				c-0.03-0.01-0.09-0.05-0.12-0.04C90.93,46.78,90.9,46.69,90.97,46.67L90.97,46.67z"/>
		</g>
	</g>
	<g>
		<g>
			<path class="st3" d="M89.28,47.47c0.07,0.01,0.14-0.01,0.21,0.01c0.07,0.02,0.14,0.05,0.2,0.09c0.12,0.08,0.23,0.2,0.29,0.33
				c0.14,0.27,0.12,0.59-0.03,0.86c-0.03-0.07-0.05-0.14-0.08-0.2c0.47,0.15,0.85,0.57,0.93,1.07c0.03,0.23,0.01,0.48-0.08,0.69
				c-0.09,0.22-0.24,0.46-0.45,0.58c-0.14,0.07-0.25-0.11-0.15-0.21c0.13-0.15,0.27-0.27,0.34-0.46c0.07-0.17,0.1-0.37,0.07-0.55
				c-0.06-0.39-0.36-0.72-0.74-0.84c-0.09-0.03-0.12-0.13-0.08-0.2c0.1-0.18,0.11-0.41,0.02-0.6c-0.05-0.09-0.11-0.17-0.19-0.23
				c-0.07-0.06-0.2-0.15-0.29-0.17C89.17,47.6,89.19,47.46,89.28,47.47L89.28,47.47z"/>
		</g>
	</g>
	<g>
		<path class="st3" d="M87.55,48.63c0.13,0.24,0.43,0.34,0.67,0.21c0.24-0.13,0.34-0.43,0.21-0.67c-0.13-0.24-0.43-0.34-0.67-0.21
			C87.52,48.09,87.42,48.39,87.55,48.63z"/>
	</g>
</g>
</svg>
