<?xml version="1.0" encoding="utf-8"?>
<!-- Generator: Adobe Illustrator 26.3.0, SVG Export Plug-In . SVG Version: 6.00 Build 0)  -->
<svg version="1.1" id="Layer_1" xmlns="http://www.w3.org/2000/svg" xmlns:xlink="http://www.w3.org/1999/xlink" x="0px" y="0px"
	 viewBox="0 0 886.6 323.8" style="enable-background:new 0 0 886.6 323.8;" xml:space="preserve">
<style type="text/css">
	.st0{fill:#221F1F;}
	.st1{fill:#EBB2B2;}
	.st2{fill:#FAF474;}
	.st3{fill:#FFFFFF;}
	.st4{fill:#FFFFFA;}
	.st5{fill:#928383;}
	.st6{fill:#FDB2AB;}
	.st7{fill:#CD8A84;}
	.st8{opacity:0.22;fill:#71326A;}
	.st9{fill:#F3F3F3;}
	.st10{fill:#867F7F;}
	.st11{fill:#131010;}
	.st12{fill:#FDF5EE;}
	.st13{fill:#CD9F52;}
</style>
<g>
	<path class="st0" d="M29.5,263c0,0.5,0.1,1.1,0.1,1.6h363.1c1.5-4.9,2.4-9.9,2.6-15c5-15.6,3-32.9-5-46.9
		c5.1-2.7,3.9-10.3,1.3-15.5c-7.1-14.5-18.9-26.6-24.1-41.9c-2.7-7.9-3.5-16.2-4.6-24.4c-4.9-35.7-15.8-70.4-30.6-103.2
		c-2-4.4-4-8.8-7.3-12.2c-3.3-3.5-8-5.9-12.7-5.3c-4.3,0.5-7.9,3.4-11.1,6.4c-22.4,21.1-35,52-60.8,68.7
		c-23.1-4.9-47.4-4.4-70.9,0.2c-16.9-19.8-38-38-58.6-56.8c-3.4-3.1-6.8-6.2-10.9-8.2c-4.1-2-9-2.8-13.2-1.1c-5,2-8,7.1-10.4,11.9
		C58,58.5,54.4,103.2,66.9,143c-2,14.6-11,26-19.7,36.6c-1.6,2-3.4,4.5-2.4,6.9c2.4-0.7,4.7-1.8,6.8-3.2
		C40.4,208.7,29,235.2,29.5,263z"/>
	<path class="st1" d="M265.4,81c9.9-15.1,19.8-30.2,30.9-44.4c3.4-4.3,6.9-8.6,11.2-12.1c0.9-0.8,2-1.5,3.2-1.7
		c2.3-0.3,4.2,1.6,5.6,3.4c3.7,4.9,6.1,10.6,8.2,16.4c8.9,24.6,10.5,55.3,8.1,81.4c-6-8.4-14.5-14.9-22.6-20.2
		c-0.4-0.3-0.9-0.6-1-1.1c-0.2-0.6,0.2-1.3,0.5-1.9c1.5-2.6,4.8-6.4,2.2-8.5c-2.2-2.9-9.7,0.5-14.3,1.9c2.5-3.9,9.4-13.5,4.6-15.8
		c-4.6-2.2-14.9,4.4-19,8.6c0.7-3,3.3-8.7,0.5-10c-2.6-1.2-9.6,1.9-12.1,3.2C269.8,80.8,265.9,81.8,265.4,81z"/>
	<path class="st1" d="M146,83.6c-11.6-13.8-26-28.5-38.7-41.3c-3.9-3.9-7.9-7.8-12.5-10.7c-1-0.7-2.2-1.3-3.4-1.3c-2.3,0-4,2-5.1,4
		c-3.1,5.3-4.8,11.3-6.2,17.3c-5.9,25.5-3.9,56.2,1.7,81.7c5-9.1,12.6-16.5,20-22.8c0.4-0.3,0.8-0.7,0.9-1.2
		c0.1-0.7-0.3-1.3-0.7-1.8c-1.8-2.4-5.5-5.7-3.2-8.1c1.9-3.1,9.7-0.6,14.5,0.2c-2.9-3.6-10.9-12.3-6.5-15.1
		c4.3-2.7,15.3,2.6,19.9,6.3c-1.1-2.9-4.1-8-1.7-9.9C131,76.3,145.6,84.5,146,83.6z"/>
	<path class="st2" d="M241.6,227.2c-1.3-9.4-0.6-19.2,2.2-28.3c2.8-9.3,7.8-18,15.2-24.4c7.5-6.5,17.3-10.1,27.2-10.4
		c9.9-0.3,19.8,2.8,27.9,8.5c2.8,2,5.4,4.3,7.3,7.1c3.6,5.5,4.1,12.5,3.3,18.9c-2.3,17.8-14.8,34.1-31.6,40.5
		C276.2,245.5,255.8,241.5,241.6,227.2z"/>
	<ellipse cx="279.5" cy="201.7" rx="24.4" ry="23.8"/>
	<ellipse class="st3" cx="289.2" cy="187.4" rx="9.3" ry="9.5"/>
	<path d="M241.7,227.4c-3.7-16.5-1.5-36.3,9.6-49.6c2-2.3,4.2-4.5,6.7-6.3c1-0.7,2.4-1.7,3.4-2.3c0,0,1.7-1,1.7-1
		c1.1-0.5,2.5-1.4,3.6-1.8c15-7.2,32-5.7,45.4,4.2c2.1,1.5,4,3.2,5.7,5.1c-2.1-1.4-4.3-2.6-6.6-3.7c-15.1-7.3-30.7-7.1-45.2,1.3
		c-2,1.2-4.1,2.5-5.9,4C245.7,189.2,242.1,209.6,241.7,227.4L241.7,227.4z"/>
	<path class="st2" d="M180.9,224.6c0.8-9.5-0.6-19.2-3.9-28.1c-3.4-9.1-8.9-17.5-16.6-23.4c-7.9-6-17.9-9-27.8-8.7
		c-9.9,0.3-19.6,4-27.3,10.2c-2.7,2.1-5.1,4.6-6.8,7.5c-3.2,5.7-3.3,12.7-2.1,19.1c3.4,17.6,16.9,33.1,34.1,38.4
		S167.6,239.8,180.9,224.6z"/>
	<ellipse transform="matrix(0.9981 -6.234974e-02 6.234974e-02 0.9981 -12.3799 9.2928)" cx="142.7" cy="203" rx="24.4" ry="23.8"/>
	
		<ellipse transform="matrix(0.9981 -6.233332e-02 6.233332e-02 0.9981 -11.8229 10.3722)" class="st3" cx="160.3" cy="194.7" rx="9.3" ry="9.5"/>
	<path d="M180.8,224.8c-1.5-17.8-6.4-37.9-21.5-48.8c-1.8-1.4-4.1-2.5-6.1-3.6c-15-7.5-30.6-6.8-45.2,1.5c-2.2,1.2-4.3,2.6-6.3,4.1
		c1.6-2,3.4-3.8,5.4-5.5c13.3-11.2,31-13.4,46.9-6.2c0,0,1.8,0.8,1.8,0.8l1.8,0.9c1,0.5,2.5,1.4,3.5,2c2.6,1.7,4.9,3.7,7.1,5.9
		C180,188.5,183.5,208.1,180.8,224.8L180.8,224.8z"/>
	<g>
		<path class="st4" d="M200.4,260.2c0.5,1.4,1.3,2.7,2.4,3.8c0.2,0.2,0.5,0.4,0.8,0.4c0.3-0.1,0.4-0.4,0.5-0.6
			c0.4-1.4,0.7-2.9,0.9-4.4C203.6,259.7,202.2,260,200.4,260.2z"/>
		<path class="st4" d="M227.9,258.8c-0.5,1.4-1.3,2.7-2.4,3.8c-0.2,0.2-0.5,0.4-0.8,0.4c-0.3-0.1-0.4-0.4-0.5-0.6
			c-0.4-1.4-0.7-2.9-0.9-4.4C224.8,258.3,226.2,258.7,227.9,258.8z"/>
		<g>
			<path class="st5" d="M213,239.5c0.5,3.3,0.2,6.6-0.4,9.9c-0.6,3.3-2,6.7-4.6,8.9c-4,3.6-10.2,3.2-14.5,0.4
				c-1.4-0.9-2.7-2-3.8-3.2c-0.2-0.2-0.1-0.4,0-0.6c0.2-0.1,0.4-0.1,0.5,0c2.4,2.1,5.2,3.7,8.2,4.3c4.8,0.9,9-1.4,11.2-5.8
				c0.5-1,0.9-2.1,1.2-3.2c0.5-1.9,0.9-3.9,1.2-5.9c0.2-1.6,0.3-3.2,0.2-4.8C212.2,239.1,213,239,213,239.5L213,239.5z"/>
			<path class="st5" d="M238,250.8c-2.7,5.5-7,9.6-13.5,8.2c-6.7-1.4-10.7-8.2-11.8-14.4c-0.3-1.7-0.4-3.4-0.4-5.1
				c0-0.2,0.2-0.4,0.4-0.4c0.2,0,0.4,0.2,0.4,0.4c0.2,2.4,0.7,4.9,1.5,7.2c1.6,4.3,4.6,8.8,9.1,10.4c4.1,1.3,7.7,0.4,10.7-2.8
				c1.1-1.2,2.1-2.5,3-3.9C237.6,250,238.3,250.4,238,250.8L238,250.8z"/>
		</g>
		<g>
			<path class="st6" d="M222.3,230.4c-0.4-1.8-2.6-2.5-4.5-2.6c-4.1-0.4-8.2,0-12.2,0.9c-1.2,0.3-2.4,0.7-3.2,1.7
				c-0.7,0.9-0.7,2.2-0.4,3.3c0.4,1.1,1.1,2,1.9,2.8c1.6,1.7,3.4,3.1,5.4,4.2c0.8,0.4,1.6,0.8,2.4,0.9c0.8,0.1,1.6-0.2,2.4-0.5
				c3-1.2,5.6-3.4,7.2-6.2C222.3,233.4,222.6,231.6,222.3,230.4z"/>
			<path d="M220.9,235.5c-0.2-0.1-0.4,0-0.6,0c-0.1,0-0.8,0-0.4,0c-0.9,0-1.8,0.1-2.6,0.6c-1.5,0.9-1.7,2.8-2.3,4.1
				c0,0.1-0.1,0.1-0.1,0.2c-0.1,0-0.1,0.1-0.2,0.1c-0.3,0.1-0.5,0.2-0.7,0.2c-0.2,0-0.4,0-0.6,0.1c-0.9,0.1-1.4,0.3-2.2-0.1
				c-0.1,0-0.3-0.2-0.5-0.3c-0.1-0.1-0.2-0.2-0.3-0.3c-0.1-0.3-0.2-0.6-0.3-0.9c0-0.1-0.1-0.1-0.1-0.2c0,0,0,0,0,0c0,0,0,0,0-0.1
				c0,0,0,0,0,0c0,0,0-0.1,0-0.1c-0.2-0.5-0.5-1-0.9-1.4c-0.3-0.3-0.8-0.6-1.2-0.7c-0.2-0.1-0.5-0.1-0.7-0.1
				c-1.2-0.2-2.3-0.1-3.2-0.3c-0.4,0.1-0.2,0.5,0.3,1c0,0.1,0.1,0.1,0.1,0.1c0.1,0.1,0.1,0.2,0.2,0.2c0,0,0,0,0,0c0,0,0,0,0,0
				c0,0,0,0,0,0c0.8,0.8,1.9,1.7,2,1.8c1.4,1,2.9,2.1,4.6,2.3c0.1,0,0.2,0,0.2,0c0.2,0,0.3,0.1,0.5,0.1c0.1,0,0.2,0,0.2,0
				c0.2,0,0.4,0,0.5,0c1,0,1.9-0.3,2.8-0.8c0.3-0.2,0.6-0.4,0.9-0.7c1-0.5,2-1.2,2.9-2C219.6,237.7,221.6,236,220.9,235.5z"/>
			<path class="st7" d="M212.9,232.5c-0.1-0.5-0.8-0.3-0.7,0.1c0.3,2.3,0.3,3.6,0.3,5.9c0,0.6,0,1.4,0.1,1.8
				c0.1,0.2,0.4,0.1,0.4-0.1C213.2,237.7,213.2,235.1,212.9,232.5z"/>
		</g>
	</g>
	<path class="st8" d="M6.5,304.4c5.9,10.1,18.1,15.1,29.9,12.6c8,9.7,25.7,8.8,32.4-1.7c12.2,7.6,24.4-1.3,30.7-11.8
		c5-8,3.8-17.7,6.3-26.9h1.3c0.7-4.8,2.6-8.8,5.3-12.1H13.2c-3.5,6.1-5.7,12.9-8,19.3C2.8,290.1,2.8,298.1,6.5,304.4z"/>
	<path class="st8" d="M335.9,271.6c3.8,4.6,4.6,10.5,5.9,16.4c2.5,8.8-0.4,18.5,5,26.1c6.3,8.8,21.5,7.6,29.9,0.4
		c0.8-0.4,2.1-0.4,2.9,0c5,5.9,13.9,6.3,21,4.6c4.2-1.3,8-3.8,10.9-7.2c2.1-2.9,6.7,0,10.1-2.1c2.1-1.7,5-2.5,5.9-4.2
		c6.3-15.8-1.9-30.2-13.7-41.1h-85.6C331,266.7,333.9,268.7,335.9,271.6z"/>
	<g>
		<path class="st9" d="M396.2,243.5c18.2,3.1,32.7,19,37.1,36.3c1.8,7,1.9,14.8-2.2,20.8c-4.3,6.4-13.2,9.7-20.9,7.6
			c-3.9,4.9-10.1,7.9-16.5,8.1c-6.4,0.2-12.8-2.5-17-7.2c-6.3,4.5-15.1,5.6-22.4,2.9c-7.4-2.7-8.5-23.8-10.2-31.2
			c-3.4-11.6-15.8-17.2-15.8-17.2S349.5,235.5,396.2,243.5z"/>
		<path class="st10" d="M404.6,266.9c9.6,9.7,13.5,25.9,7.4,38.5c-0.9,1.8-2,3.4-3.4,4.8c-0.1,0.1-0.2,0.1-0.3,0
			c-0.1-0.1-0.1-0.2,0-0.2c1-1.6,1.9-3.3,2.5-5.1c3.2-8.9,2.2-18.9-1.2-27.6c-1.4-3.5-3.3-6.9-5.4-10.1c-0.1-0.1,0-0.2,0.1-0.3
			C404.5,266.8,404.6,266.8,404.6,266.9L404.6,266.9z"/>
		<path class="st10" d="M372.9,270.9c6,5.7,8.6,14.1,8.8,22.2c0.3,6.1-0.9,13-5.8,17.1c-1.6,1.4-3.5,2.4-5.5,2.7
			c-0.1,0-0.2-0.1-0.2-0.2c0-0.1,0-0.2,0.1-0.2c1.8-0.7,3.5-1.8,4.8-3.2c4.1-4.3,4.8-10.5,4.5-16.2c-0.1-3.9-0.7-7.8-1.8-11.5
			c-1.1-3.7-2.9-7.3-5.2-10.5c-0.1-0.1-0.1-0.2,0-0.3C372.7,270.9,372.8,270.9,372.9,270.9L372.9,270.9z"/>
		<path class="st3" d="M422.8,307c-0.7,2.8-2.1,5.5-4.2,7.5c-0.1,0.1-0.3,0-0.3-0.2c0.5-2,0.7-4.1,0.7-6.1c0-0.2,0-0.4,0.1-0.4
			c0.1,0,0.1,0,0.2-0.1C420.6,307.5,421.7,307.3,422.8,307z"/>
		<path class="st3" d="M394.3,315.8c-1.2,2.5-3.2,4.7-5.6,6.2c-0.2,0.1-0.4,0-0.3-0.2l1.1-6c0-0.1,0-0.3,0.1-0.4
			c0.2-0.2,0.5-0.2,0.7-0.1C391.7,315.5,393.2,315.7,394.3,315.8z"/>
		<path class="st3" d="M360.5,313.3c-0.8,3-3,5.5-5.7,6.9c-0.3,0.1-0.6-0.2-0.5-0.5c1.1-2.3,1.6-4.9,1.5-7.5
			C357.2,313,358.9,313.3,360.5,313.3z"/>
	</g>
	<g>
		<path class="st3" d="M396.9,262.3c-56-15.8-114.7-16.5-169.7-14.9l0-0.4c55-1.6,113.7-0.9,169.8,14.9L396.9,262.3z"/>
		<path class="st3" d="M379.3,282.1c-49.4-16-100.6-27-152.2-32.8l0-0.4c51.6,5.8,102.8,16.9,152.2,32.8L379.3,282.1z"/>
	</g>
	<path class="st11" d="M183.1,95.1c-0.3-0.2-0.7-0.1-0.8,0.2c-0.5,0.9-1.2,1.8-2.1,2.4c-0.5,0.3-0.9,0.6-1.5,0.8
		c-0.5,0.2-1.1,0.4-1.5,0.7c-0.3,0.2-0.1,0.7,0.2,0.8c0.6,0.2,1.4-0.1,2-0.3c0.6-0.2,1.1-0.5,1.5-0.9c1-0.8,1.9-1.7,2.4-2.9
		C183.4,95.7,183.4,95.3,183.1,95.1z"/>
	<path class="st11" d="M185.4,98.2c-0.2-0.2-0.7-0.3-0.9,0c-1.2,1.5-2.5,3-3.5,4.6c-0.4,0.6,0.5,1.3,1,0.7c1.3-1.4,2.4-2.9,3.5-4.4
		C185.6,98.9,185.6,98.5,185.4,98.2z"/>
	<path class="st11" d="M379.1,201.5c-0.4-0.7-0.7-1.5-1.1-2.2c-0.8-1.4-1.8-2.8-2.8-4.1c-0.3-0.3-0.8-0.3-1.1,0
		c-0.3,0.3-0.3,0.8,0,1.1c0.9,1.2,1.8,2.5,2.6,3.9c0.4,0.7,0.7,1.4,1.1,2.1c0.3,0.6,0.6,1.8,1.4,1.9c0.3,0,0.5,0,0.6-0.3
		C380.1,203.3,379.4,202.1,379.1,201.5z"/>
	<path class="st11" d="M376.3,209.9c-1.1-2.3-2.2-4.6-3.3-6.9c-0.2-0.3-0.6-0.4-0.9-0.2c-0.3,0.2-0.4,0.6-0.2,0.9
		c1.1,2.3,2.2,4.6,3.4,6.9c0.2,0.3,0.6,0.4,0.9,0.2C376.3,210.6,376.4,210.2,376.3,209.9z"/>
	<path class="st11" d="M374.2,220.3c-0.3-1.1-0.9-2.1-1.4-3.1c-0.4-1-0.8-2.1-1-3.1c-0.2-0.9-1.6-0.5-1.4,0.4
		c0.3,1.1,0.7,2.3,1.1,3.3c0.5,1.1,1,2.2,1.9,3C373.7,221.1,374.4,220.8,374.2,220.3z"/>
	<path class="st11" d="M54.9,214.5c-1.8,1.2-3.4,2.6-4.7,4.3c-0.7,0.8-1.3,1.7-1.8,2.6c-0.5,0.9-1.2,2-1,3c0.1,0.3,0.5,0.5,0.8,0.3
		c0.8-0.6,1.1-1.7,1.5-2.5c0.5-0.9,1-1.7,1.6-2.5c1.2-1.6,2.6-2.9,4.3-4C56.3,215.2,55.7,214.1,54.9,214.5z"/>
	<path class="st11" d="M57.1,220.1c-0.2-0.3-0.6-0.4-0.9-0.2c-1.3,0.6-2.4,1.4-3.3,2.5c-0.5,0.5-0.9,1.1-1.2,1.7
		c-0.4,0.6-0.7,1.4-0.6,2.1c0,0.6,0.7,0.7,1,0.3c0.3-0.5,0.6-1.1,0.9-1.7c0.3-0.5,0.6-1.1,1-1.5c0.8-1,1.8-1.7,3-2.3
		C57.2,220.8,57.3,220.4,57.1,220.1z"/>
	<path class="st11" d="M354.1,103.2c-0.2-0.9-0.4-1.7-0.5-2.6c-0.3-1.8-0.5-3.6-0.6-5.4c0-0.8-1.2-0.8-1.2,0c0,1.9,0.2,3.7,0.5,5.6
		c0.1,0.9,0.3,1.9,0.5,2.8c0.2,0.8,0.3,1.9,0.9,2.5c0.2,0.2,0.7,0.1,0.8-0.2C354.7,105,354.3,104,354.1,103.2z"/>
	<path class="st11" d="M352.7,110.3c-0.7-1.5-1.3-3-1.7-4.7c-0.2-0.8-0.3-1.6-0.3-2.5c0-0.8,0-1.7,0.1-2.5c0.1-0.8-1.1-1.2-1.3-0.4
		c-0.2,0.9-0.4,1.8-0.4,2.8c0,1,0.1,1.9,0.3,2.9c0.3,1.8,1.2,3.7,2.4,5.1C352.2,111.6,353,110.9,352.7,110.3z"/>
	<g>
		<g>
			<path class="st12" d="M16.8,311.8c1,2.7,2.7,5.2,5,7c0.1,0.1,0.3,0,0.2-0.2c-0.7-1.9-1.2-4-1.4-6c0-0.2-0.1-0.3-0.2-0.4
				c-0.1,0-0.1,0-0.2,0C19.1,312,18,311.9,16.8,311.8z"/>
			<path class="st12" d="M46.1,317.4c1.5,2.4,3.7,4.3,6.2,5.5c0.2,0.1,0.3-0.1,0.3-0.3l-1.7-5.8c0-0.1-0.1-0.2-0.2-0.3
				c-0.2-0.2-0.5-0.1-0.7-0.1C48.7,316.8,47.3,317.1,46.1,317.4z"/>
			<path class="st12" d="M79.5,311.1c1.2,2.9,3.6,5.2,6.4,6.3c0.3,0.1,0.6-0.2,0.4-0.5c-1.3-2.2-2.1-4.7-2.3-7.3
				C82.7,310.4,81.1,310.9,79.5,311.1z"/>
			<path class="st0" d="M35.3,244.3c-19.1,4.3-32.4,19.4-35,38.8c-1,7.9-0.1,16.4,4.9,22.6c5.3,6.6,15.1,9.1,22.9,5.9
				c4.7,4.9,11.6,7.5,18.4,7c6.7-0.5,13.2-4.3,17-9.8c7.2,4.2,16.5,4.4,24,0.6c7.4-3.8,4.6-21.9,13.2-35.4
				c11.4-11.6,18.1-9.5,18-9.6C104.4,244,68.4,236.9,35.3,244.3z"/>
			<path d="M29.4,266c-6.7,12.8-8.6,28.8-2.3,42.1c0.9,1.9,2,3.6,3.3,5.3c0.1,0.1,0.1,0.2,0,0.3c-0.1,0.1-0.2,0.1-0.2,0
				c-1.6-1.4-3-3.1-4.1-5c-5.7-9.3-6.1-21.2-2.8-31.5c1.3-4.1,3.3-8,5.8-11.5c0.1-0.1,0.2-0.1,0.3,0C29.4,265.7,29.4,265.9,29.4,266
				L29.4,266z"/>
			<path d="M63.3,266.7c-4.3,7.6-5.4,16.3-4.7,24.9c0.5,6.2,1.9,12.9,6.7,17.2c1.6,1.4,3.4,2.5,5.5,3c0.1,0,0.2,0.1,0.1,0.2
				c0,0.1-0.1,0.1-0.2,0.1c-2.2-0.2-4.4-1.1-6.2-2.4c-5.6-4.1-7.6-11.4-8.1-18c-0.3-4.4-0.1-9,0.9-13.3c1-4.3,2.8-8.5,5.6-12
				c0.1-0.1,0.2-0.1,0.3,0C63.4,266.5,63.4,266.6,63.3,266.7L63.3,266.7z"/>
		</g>
		<path d="M30.2,245.3c10.5-3.8,21.7-4.5,32.7-4.5c2.9,0.1,6.1,0.2,9,0.4c13.9,1,28.7,3.7,39.6,13.1c3,2.8,5.7,6,7,9.9
			c0.2,0.6-0.8,0.9-1,0.3c-0.7-1.8-1.8-3.4-3-4.9c-9-10.7-23.6-14.2-36.9-15.7c-11.8-1.3-23.7-1.7-35.5-0.1
			c-2.9,0.4-5.9,0.9-8.7,1.6c-1,0.2-1.9,0.5-2.9,0.8c-0.3,0.1-0.5,0-0.6-0.3C29.8,245.7,29.9,245.4,30.2,245.3L30.2,245.3z"/>
	</g>
	<g>
		<path class="st3" d="M196.4,248.3c-51.6-5.1-103.9-5.3-155.5-0.6l0-0.4c51.6-4.8,104-4.6,155.6,0.6L196.4,248.3z"/>
		<path class="st3" d="M30.6,283.6l-0.1-0.4c53.9-19.9,110.4-30.8,167.9-32.2l0,0.4C140.9,252.8,84.5,263.6,30.6,283.6z"/>
	</g>
</g>
<g>
	<g>
		<path class="st13" d="M521,187c-3.2,17.8-10.6,24.9-28.6,27.2c-1.2,0.2-1.3,1.9-0.1,2.1c17.8,3.2,24.9,10.6,27.2,28.6
			c0.2,1.2,1.9,1.3,2.1,0.1c3.2-17.8,10.6-24.9,28.6-27.2c1.2-0.2,1.3-1.9,0.1-2.1c-17.8-3.2-24.9-10.6-27.2-28.6
			C522.9,185.9,521.2,185.8,521,187z"/>
		<path class="st13" d="M651.1,66.6c-2.1,15.7-8.3,22.2-23.9,25c-1.1,0.2-1,1.7,0,1.8c15.7,2.1,22.2,8.3,25,23.9
			c0.2,1.1,1.7,1,1.8,0c2.1-15.7,8.3-22.2,23.9-25c1.1-0.2,1-1.7,0-1.8c-15.7-2.1-22.2-8.3-25-23.9
			C652.8,65.5,651.3,65.6,651.1,66.6z"/>
		<path class="st13" d="M803.4,53.9c-1.5,14.3-7,20.4-21.1,23.2c-1,0.2-0.9,1.6,0.1,1.7c14.3,1.5,20.4,7,23.2,21.1
			c0.2,1,1.6,0.9,1.7-0.1c1.5-14.3,7-20.4,21.1-23.2c1-0.2,0.9-1.6-0.1-1.7c-14.3-1.5-20.4-7-23.2-21.1
			C804.9,52.9,803.5,52.9,803.4,53.9z"/>
		<path class="st13" d="M499,150.4c-1.2,9.7-5,13.7-14.6,15.4c-0.6,0.1-0.6,1,0,1.1c9.7,1.2,13.7,5,15.4,14.6c0.1,0.6,1,0.6,1.1,0
			c1.2-9.7,5-13.7,14.6-15.4c0.6-0.1,0.6-1,0-1.1c-9.7-1.2-13.7-5-15.4-14.6C500,149.7,499.1,149.7,499,150.4z"/>
		<path class="st13" d="M779.2,93.9c-0.8,7.9-3.9,11.3-11.7,12.9c-0.5,0.1-0.5,0.9,0,0.9c7.9,0.8,11.3,3.9,12.9,11.7
			c0.1,0.5,0.9,0.5,0.9,0c0.8-7.9,3.9-11.3,11.7-12.9c0.5-0.1,0.5-0.9,0-0.9c-7.9-0.8-11.3-3.9-12.9-11.7
			C780,93.3,779.3,93.3,779.2,93.9z"/>
		<path class="st13" d="M869.3,179.5c-1,9.7-4.7,13.8-14.3,15.7c-0.6,0.1-0.6,1.1,0.1,1.1c9.7,1,13.8,4.7,15.7,14.3
			c0.1,0.6,1.1,0.6,1.1-0.1c1-9.7,4.7-13.8,14.3-15.7c0.6-0.1,0.6-1.1-0.1-1.1c-9.7-1-13.8-4.7-15.7-14.3
			C870.3,178.8,869.3,178.9,869.3,179.5z"/>
		<path class="st13" d="M788.7,239.1c-1,9.7-4.7,13.8-14.3,15.7c-0.6,0.1-0.6,1.1,0.1,1.1c9.7,1,13.8,4.7,15.7,14.3
			c0.1,0.6,1.1,0.6,1.1-0.1c1-9.7,4.7-13.8,14.3-15.7c0.6-0.1,0.6-1.1-0.1-1.1c-9.7-1-13.8-4.7-15.7-14.3
			C789.7,238.4,788.8,238.4,788.7,239.1z"/>
		<path class="st13" d="M685.9,111.7c-1,9.7-4.7,13.8-14.3,15.7c-0.6,0.1-0.6,1.1,0.1,1.1c9.7,1,13.8,4.7,15.7,14.3
			c0.1,0.6,1.1,0.6,1.1-0.1c1-9.7,4.7-13.8,14.3-15.7c0.6-0.1,0.6-1.1-0.1-1.1c-9.7-1-13.8-4.7-15.7-14.3
			C686.9,111,686,111,685.9,111.7z"/>
		<path class="st13" d="M636.8,223.1c-1,9.7-4.7,13.8-14.3,15.7c-0.6,0.1-0.6,1.1,0.1,1.1c9.7,1,13.8,4.7,15.7,14.3
			c0.1,0.6,1.1,0.6,1.1-0.1c1-9.7,4.7-13.8,14.3-15.7c0.6-0.1,0.6-1.1-0.1-1.1c-9.7-1-13.8-4.7-15.7-14.3
			C637.8,222.4,636.9,222.4,636.8,223.1z"/>
	</g>
	<g>
		<path d="M852.5,177.2c-0.6-1.4-1.6-2.4-2.9-2.8c-2.9-1-5.9,1.2-7,2.1c-1.2,0.9-3.9,2.9-3.5,5.6c0.3,2.1,2.5,3.6,4.4,4
			c1.8,0.4,3.3-0.3,5-1.2c1.7-0.8,3.2-1.6,4-3.3C853.1,180.3,853.1,178.6,852.5,177.2z"/>
		<path d="M821.6,116.2c0.8,2.2,13.3,39.4,16.5,50c0.3,1,1.1,3.7,3.5,4.3c0.3,0.1,0.7,0.1,1,0.1c1.7,0,3.7-1,4.6-2.3
			c1.1-1.6,0.5-3.3,0.4-3.9c-3-9.8-5.1-20-7.2-29.9c-1.4-6.8-2.9-13.9-4.6-20.8l-0.1-0.3c-1-3.8-2.1-8.1-5.6-9.3
			c-2.1-0.7-5-0.3-7.4,1.1c-1.6,0.9-2.7,2.2-3,3.4c-0.1,0.7,0.2,1.8,0.8,4.1C820.9,114.1,821.1,114.9,821.6,116.2z"/>
		<path d="M819.8,179.7c-7.9-4.9-13.7-6.1-17.1-12.8c-1.6-3.1-2-5.8-1.4-8.4c1.3-5.2,6.8-10.2,10.7-9.7c3,0.4,5,1.3,6.8,3.1
			c0.7,0.7,1.7,0.7,2.5,0.1c0.8-0.6,1-1.5,0.6-2.3c-1-1.8-3.9-6.1-8.8-7.2c-6.8-1.5-15.5,2.4-20.2,9c-4.3,5.9-3.3,13.2-2.7,16.3
			c0.2,0.9,0.4,1.6,0.5,1.7c1.6,4.7,4.9,7.5,7,9c-9,15.6-12.3,16.2-13.1,16c-0.9-0.2-1.1-2.4-1.7-9.8l-0.1-1.5
			c-1.1-12.7-1.5-16.4-4.2-17.2c-1-0.3-1.8,0-3,0.5c-1,0.4-2.4,1-4.6,1.5c-2.4,0.5-4.8,0.8-7.2,0.7c2.2-4.7,2.9-9.5,1.6-12.8
			c-0.6-1.6-1.5-2.7-2.7-3.2c-2.4-1-6.7,0.2-9.3,2.7c-1.8,1.7-2.3,3.6-2.6,4.5c-1.2,4.2,0,9,3.2,12.2c1,1,2.3,1.9,3.7,2.6
			c-2.6,5.8-9.6,18.7-22.1,22.4c-2.2,0.7-6.4,2-10.1,0.3c-4.2-1.9-5.2-6.3-5.4-8.1c11.9-3.4,25.8-11.2,26.1-22.1
			c0.1-3.2-0.9-6.1-2.8-8.2c-2-2.3-4.9-3.5-8.4-3.6c-0.2,0-0.4,0-0.6,0c-9,0.2-16.5,8.3-18,10c-5.3,6-8.4,14.3-8.1,21.5
			c-5.5,6.9-11.7,11.1-18.3,12.6c-2.3,0.5-6.5,1.4-10.1-0.5c-4-2.2-4.7-6.7-4.8-8.5c12.2-2.5,26.6-9.1,27.7-20
			c0.7-6.9-3.4-11.9-10.2-12.6c-8.9-1-17,6.3-19.3,8.5c-6.3,6.2-11.6,16.9-9.2,27c-3.7,3.5-7.6,6-11.8,7.3c-1.4,0.5-2.4,0.7-3.2,0.3
			c-2.4-1-1.6-6.5-0.3-15.5c0.2-1.6,0.5-3.3,0.7-5.1c2.5-18.6,1.9-22.6-1.1-24.4c-2.2-1.4-4.8-0.9-6.8-0.5c-4.5,0.9-8.7,4-20.1,19.3
			c-0.3,0.3-0.5,0.7-0.8,1.1c0.3-2.7,0.6-5.3,0.8-8c6.1-6.1,10.3-13.1,12.7-20.7c3.6-11.5,2.9-24.5-1.5-27.7c-2.5-1.9-5-1.9-5.1-1.9
			c-0.1,0-2,0-4,1.3c-6,3.8-8.6,24.6-8.6,24.8c-1.5,12-2.8,22-3.8,30.1c-2.5,3.2-8.6,10.3-19,13.8c-1.7,0.6-6.6,2.1-13,2
			c-5.9-0.1-16.9-1.3-24.6-8.5c-14.8-13.8-5.7-38.4,5.1-50.7c1.5-1.7,9.6-10.4,22.7-13.7c3.9-1,10.9-2.1,15,1.5
			c4,3.5,5.9,11.5,2.5,15.4c-2,2.3-1.1,4.8,0.6,6.3c1.8,1.6,4.8,2.1,6.9-0.2c3.2-3.6,6.7-9.2,5.2-15.4c-0.8-3.1-2.4-5.3-3.1-6.2
			c-4.7-6.1-11.8-7.8-14.4-8.5c-9-2.2-16.6,0-19.9,1c-16.3,4.7-34.9,18.9-39.7,40l0,0.2c-3.8,16.5-0.3,29.8,10.1,38.4
			c6.1,5.1,14.3,8.1,23.7,8.9c21,1.7,35.3-11,41.3-17.6c-1.4,11-2.4,18.5-2.7,19.9c-0.4,2-0.2,3.4,0.8,4.1c0.2,0.2,0.6,0.4,2.4,0.7
			c2.5,0.4,3.9,0.6,5,0c1.5-0.7,1.7-2.4,1.8-3.1c0.6-4.8,1.3-10.6,2-17.2c2.7-3.6,14.5-19.3,17.8-19.6c0.5-0.1,0.9,0.2,0.9,0.2
			c1.7,1,0.6,5.8,0,8.6c-1.2,5.9-2,12.3-2.4,16.6c-0.7,8.1-0.4,13,3.5,15.6c2.3,1.5,4.8,1.6,6.1,1.7c8,0.4,15.5-4.8,20.5-9.4
			c1.7,2.7,5.6,8,12.3,10c10.4,3.1,23.4-3.1,30.7-16c0.3,1.1,0.9,2.6,1.8,4.2c0.7,1.2,1.5,2.4,2.5,3.4c4.8,5.4,11.4,6.8,11.4,6.8
			s4.2,0.9,9.1-0.2c8.7-1.9,19.4-13.6,27.3-31c1.4,0.3,3.3,0.5,5.5,0.4c1.9-0.1,3.8-0.6,5.6-1.2c0.3,5.5,0.6,10.9,1,16.5
			c0.2,3.5,0.5,7.9,3.8,9.2c1.6,0.7,4.2,0.5,4.9,0.4c0,0,3.6-0.8,4.3-1.1c4-1.3,9.3-9.1,9.5-9.4c0.3-0.4,0.6-0.9,1-1.5
			c2.3-3.3,4.4-6.4,4.8-8.2c2.7,1.5,5.7,2.9,8.7,4.2c5,2.3,10.1,4.6,13.8,7.6c5.5,4.5,6.4,13.5,2.1,20.1c-1.7,2.5-5.1,6-11.9,8.5
			c-2.2,0.8-9,3.2-15.4,0.9c-2.2-0.8-4.4-2.6-5.3-3.4c0.1,0,0.1,0,0.2-0.1c1.2-0.4,3.5-1.2,5-2.4c3.7-2.9,6.1-8.2,3.6-12
			c-0.4-0.5-2.3-3.2-6-3.3c-3.3-0.1-5.9,2.1-6.7,2.8c-2.2,1.9-4.5,5.7-3,12.9c-0.7,0.4-3.5,0.6-5,0.6c-0.8,0-1.6-0.1-2.2-0.2
			c-1.6-0.2-2.8-0.4-3.6,0.3c-0.1,0.1-0.6,0.6-0.5,1.1c0.2,2.1,6.3,2.3,7,2.4c0.6,0,1.6-0.2,2.7-0.4c1.2-0.2,2.8-0.5,3.3-0.4
			c0.4,0.5,1,1.2,1.8,1.9c3.1,2.8,6.4,3.8,8.2,4.4c5.8,1.8,11.3,1.2,14.2,0.7c3.1-0.5,11.7-2.4,19-9.8c2.4-2.4,8.2-9.1,7.4-17
			C837.6,190.7,826.3,183.7,819.8,179.7z M624.4,137.9c0.3-2.8,1.1-11.3,3.8-11.7c0.8-0.1,1.6,0.5,1.9,0.7c1.3,1.1,2.2,3.1,2.5,5.8
			c0.8,7.2-2.6,19.6-10.6,29.5C623.4,148.7,624.4,138.1,624.4,137.9z M677.9,173.9c3.2-6.4,7.1-9.7,11.5-9.8c0.1,0,0.3,0,0.4,0
			c3.5-0.1,5.7,0.9,6.5,2.8c1.4,3.6-3.8,9.8-4.3,10.4c-5.3,5.9-12.7,7.6-17.1,8.2C674.8,184,676.6,176.5,677.9,173.9z M721.5,172.5
			c2.7-6.6,6.3-10.2,10.7-10.7c0.6-0.1,1.1-0.1,1.7-0.1c2.8,0,4.7,0.8,5.5,2.4c1.7,3.5-2.5,9.5-3.5,10.7c-0.4,0.6-2.6,3.3-6.5,5.7
			c-3.9,2.4-7.6,3.3-9.9,3.7C719.2,181.4,719.6,177.1,721.5,172.5z M760.2,168.5c-1.2-0.6-3-1.8-4.1-3.9c-0.5-1.1-1.6-3.3-0.4-5.2
			c0.9-1.4,2.7-2.3,4.1-2.4c0.4,0,0.7,0.1,1,0.2c0.4,0.2,0.7,0.5,1,1C763.4,161.1,761,166.9,760.2,168.5z M790.6,210.1
			c1.3-2.7,3-3.5,4.3-3.8c0.1,0,0.4-0.1,0.9-0.1c0.7,0,1.7,0.1,2.3,0.6c1.5,1.2,0.3,3.7,0.1,4.2c-1.5,3.2-6.1,4.5-7.4,4.8
			C790.3,214.9,789.4,212.6,790.6,210.1z"/>
	</g>
</g>
</svg>
