<?xml version="1.0" encoding="utf-8"?>
<!-- Generator: Adobe Illustrator 26.3.0, SVG Export Plug-In . SVG Version: 6.00 Build 0)  -->
<svg version="1.1" id="Layer_1" xmlns="http://www.w3.org/2000/svg" xmlns:xlink="http://www.w3.org/1999/xlink" x="0px" y="0px"
	 viewBox="0 0 100 100" style="enable-background:new 0 0 100 100;" xml:space="preserve">
<style type="text/css">
	.st0{fill:#FDCCA5;}
	.st1{fill:#F9AD8F;}
	.st2{fill:#F79E7F;}
	.st3{fill:#FEF2DE;}
	.st4{fill:#502E28;}
	.st5{fill:#7F5A58;}
	.st6{fill:#F8B586;}
</style>
<ellipse class="st0" cx="48.05" cy="74.43" rx="40.24" ry="7.44"/>
<g>
	<g>
		<g>
			<path class="st1" d="M85.31,56.64c-0.73,3.73,0.81,10.65-2.03,13.19c1.68,2.19,0.45,3.34-2.19,3.91
				c-0.38,0.08-0.79,0.15-1.22,0.21c-2.13,0.29-4.86,0.33-7.64,0.27c-0.4-0.01-0.8-0.02-1.21-0.03c-3.06-0.1-6.09-0.28-8.35-0.33
				c-0.43-0.01-0.83-0.02-1.21-0.02c-0.97,0-1.72,0.04-2.15,0.16c-1.01-0.29-3.69-0.3-7.25-0.21c-0.39,0.01-0.79,0.02-1.21,0.04
				c-1.99,0.06-4.2,0.15-6.52,0.24c-0.4,0.02-0.8,0.03-1.21,0.05c-1.92,0.07-3.89,0.14-5.86,0.19c-0.4,0.01-0.8,0.02-1.2,0.03
				c-2.14,0.05-4.25,0.07-6.27,0.06c-0.41,0-0.81-0.01-1.21-0.01c-2.48-0.04-4.78-0.15-6.76-0.36c-0.41-0.05-0.81-0.1-1.2-0.15
				c-1.28-0.18-2.38-0.42-3.25-0.72c-0.47-0.16-0.86-0.34-1.19-0.54c-1.15-0.71-1.37-1.68-0.3-2.99c-2.09-1.05-2.06-3.73-1.82-5.75
				c0.47-5.16-2.7-12.11,2.73-15.59c0.25-0.14,0.52-0.27,0.82-0.36c0.37-0.13,0.79-0.22,1.23-0.28c1.1-0.15,2.4-0.12,3.79,0.03
				c0.39,0.04,0.79,0.09,1.19,0.15c1.61,0.23,3.31,0.57,4.98,0.94c0.4,0.09,0.81,0.17,1.2,0.26c1.76,0.39,3.46,0.76,4.93,1.01
				c0.42,0.07,0.82,0.13,1.21,0.18c0.32,0.04,0.63,0.07,0.92,0.09c2.11,0.4,4.22,0.68,6.35,0.87c0.4,0.04,0.8,0.07,1.2,0.1
				c2.4,0.18,4.8,0.24,7.2,0.2c0.4-0.01,0.8-0.01,1.21-0.03c3.13-0.09,6.26-0.33,9.38-0.68c0.4-0.04,0.81-0.09,1.21-0.14
				c2.3-0.28,4.59-0.61,6.87-0.97c0.26-0.03,0.53-0.07,0.8-0.11c0.4-0.06,0.8-0.13,1.21-0.2c2.95-0.53,6.03-1.28,8.45-1.06
				c0.42,0.04,0.82,0.11,1.2,0.21C84.57,49.16,85.99,51.32,85.31,56.64z"/>
		</g>
		<g>
			<path class="st2" d="M18.84,47.64c-0.04,0.49-0.08,0.97-0.12,1.46c-0.63,8-1.08,16.02-1.35,24.04c-0.47-0.16-0.86-0.34-1.19-0.54
				c0.03-0.99,0.07-1.98,0.11-2.97c0.01-0.15,0.01-0.3,0.02-0.45c0.29-7.09,0.72-14.18,1.3-21.26C17.99,47.8,18.4,47.71,18.84,47.64
				z"/>
		</g>
		<g>
			<path class="st2" d="M23.83,47.82c-0.13,1.21-0.25,2.41-0.37,3.62c-0.74,7.51-1.28,15.04-1.63,22.58
				c-0.41-0.05-0.81-0.1-1.2-0.15c0.03-0.57,0.05-1.14,0.08-1.71c0.41-8.18,1.06-16.35,1.93-24.49
				C23.03,47.71,23.42,47.76,23.83,47.82z"/>
		</g>
		<g>
			<path class="st2" d="M30.01,49.02c0,0.07,0,0.15,0,0.22c-0.08,8.39-0.15,16.77-0.23,25.16c-0.41,0-0.81-0.01-1.21-0.01
				c0.01-1.67,0.03-3.33,0.04-4.99l0.18-20.63C29.21,48.84,29.62,48.93,30.01,49.02z"/>
		</g>
		<g>
			<path class="st2" d="M37.26,74.3c-0.4,0.01-0.8,0.02-1.2,0.03c-0.08-1.01-0.16-2.01-0.24-3.02c-0.52-7.08-0.81-14.19-0.88-21.29
				c0.42,0.07,0.82,0.13,1.21,0.18C36.23,58.25,36.61,66.29,37.26,74.3z"/>
		</g>
		<g>
			<path class="st2" d="M44.33,74.07c-0.4,0.02-0.8,0.03-1.21,0.05c-0.01-1.07-0.01-2.15-0.01-3.22c0-6.58,0.1-13.15,0.31-19.72
				c0.4,0.04,0.8,0.07,1.2,0.1C44.39,58.86,44.29,66.46,44.33,74.07z"/>
		</g>
		<g>
			<path class="st2" d="M53.03,51.44c-0.51,7.44-0.84,14.89-0.97,22.35c-0.39,0.01-0.79,0.02-1.21,0.04
				c0.03-1.43,0.06-2.86,0.1-4.29c0.17-6.03,0.46-12.05,0.87-18.07C52.23,51.46,52.63,51.45,53.03,51.44z"/>
		</g>
		<g>
			<path class="st2" d="M63.62,50.62c0,0.09-0.01,0.17-0.01,0.26c-0.36,7.65-0.67,15.31-0.94,22.97c-0.43-0.01-0.83-0.02-1.21-0.02
				c0.02-0.7,0.05-1.39,0.07-2.09c0.25-7,0.54-14,0.87-20.99C62.82,50.72,63.22,50.67,63.62,50.62z"/>
		</g>
		<g>
			<path class="st2" d="M72.5,49.34c-0.16,8.29-0.25,16.59-0.27,24.88c-0.4-0.01-0.8-0.02-1.21-0.03c0-0.94,0-1.88,0.01-2.82
				c0.03-7.28,0.12-14.55,0.26-21.83C71.69,49.48,72.09,49.41,72.5,49.34z"/>
		</g>
		<g>
			<path class="st2" d="M82.15,48.49c-0.01,0.29-0.01,0.59-0.02,0.88c-0.2,8.13-0.55,16.25-1.04,24.37
				c-0.38,0.08-0.79,0.15-1.22,0.21c0.08-1.26,0.15-2.52,0.22-3.78c0.4-7.29,0.69-14.59,0.86-21.89
				C81.37,48.32,81.77,48.39,82.15,48.49z"/>
		</g>
	</g>
	<g>
		<path class="st0" d="M72.26,60.57c-0.78,1.06-2.24,0.3-3.19,1.13c-2.15,2.37-2.93,6.39-4.13,9.04c-0.09,1.36,1.13,2.45,1.38,3.76
			c0.5,1.5-1.12,2.78-2.43,1.92c-0.43,0.52-1.23,0.68-1.67,0.07c-0.6,0.38-1.41,0.25-1.97-0.16c-5.01-6.97-0.86-6.99-10.63-11.39
			c-0.91-0.51-1.42-1.46-2.3-1.97c-2.77,0.66-5.84,0.69-8.57-0.16c-1.63-4.76-4.4-10.97-10.55-10.15c-6.67,0.64-9.02,6.46-8.14-6.25
			c-1.64-1.39-2.39-3.72-2.25-5.83c0.14-4.86,5.38-6.55,7.89-9.99c2.44-3.25,3.53-8.53,0.37-11.67c7.71-0.57,11.49,11.23,5.91,17.09
			c6.22-4.86,10.21,0.64,16.81-0.62c-0.78-2.36,1.56-3.86,1.12-6.08c-2.92,2.54-3.05-0.14-2.95-2.62c-1.98-5.78-3.66-7.16,3.61-8.98
			c1.33-0.52,2.36-2.19,3.95-1.66c1-0.25,2.03-0.65,3.16-0.38c1.36,0.26,2.59-0.43,3.91-0.55c0.96,0.35,1.75,0.28,2.74,0.06
			c7.52,4.89,9.36-0.09,7.28,11.15c-0.08,4.6-1.6,1.64-2.25,3.32c-2.45,3.34-0.68,3.28-1.79,6.62c1.04,2.3,0.49,5.25,2.43,7.12
			c2.01,2.89,1,6.51,0.34,9.66C70.15,55.71,73.5,57.88,72.26,60.57z"/>
	</g>
	<g>
		<path class="st3" d="M62.66,48.26c-2.78,1.38-5.53,3.02-6.54,6.17c0.13,1.05,1.24,1.87,1.2,3.08c-0.68,5.79,0.56,2.09,2.67,6.37
			c2.48-4.65,1.71-7.19,8.35-6.65C64.93,55.58,62.67,52,62.66,48.26z"/>
	</g>
	<g>
		<path class="st1" d="M67.26,36.69c-0.83,7.18-10.35,6.28-12.82,12.18c-3.04-0.27-8.08-11.69-5.13-12.73
			c0.99,1.33,2.12,0.35,2.82,1.07c0.46,1.44,2.92,0.52,2.38,2.32c0.05,1.01,1.18,1.72,2.08,1.18c1.56-3,4.61-2.17,7.32-2.73
			C64.94,37.57,66.12,36.02,67.26,36.69z"/>
	</g>
	<g>
		<path class="st1" d="M75.09,34.04c-0.46,2.94-5.57,4.17-7.03,2.53C69.69,34.74,72.75,32.96,75.09,34.04z"/>
	</g>
	<g>
		<path class="st3" d="M51.48,41.76c-0.29,4.38-1.93,0.53-2.44-1.43C48.81,39.42,51.34,40.15,51.48,41.76z"/>
	</g>
	<g>
		<path class="st3" d="M57.96,39.8c1.48,3.68-5.4,3.6-3.61,0.17c0.49,0.12,0.91,0.93,1.64,0.76C56.73,40.62,57.11,38.76,57.96,39.8z
			"/>
	</g>
	<g>
		<path class="st3" d="M63.97,41.84c-0.07,0.82-4.77,2.75-3.44,1.78C59.58,41.95,63.4,39.72,63.97,41.84z"/>
	</g>
	<g>
		<path class="st3" d="M67.17,37.24c-0.09,2.4-2.96,2.98-4.18,1.06c-0.35,0.11-0.41-0.26-0.04-0.24
			C63.94,38.25,67.31,34.94,67.17,37.24z"/>
	</g>
	<g>
		<path class="st3" d="M56.48,45.63c-0.25,0.63-0.91,0.98-1.22,1.58c-0.53,0.45-0.47,1.88-0.98,1.96
			C50.91,47.35,54.11,44.33,56.48,45.63z"/>
	</g>
	<g>
		<path class="st4" d="M55.94,24.31c-0.01,1.64-1.93,1.64-1.94,0C54.01,22.67,55.93,22.67,55.94,24.31z"/>
	</g>
	<g>
		<path class="st4" d="M62.78,24.28c0.01,1.64,1.93,1.64,1.94,0C64.71,22.64,62.78,22.64,62.78,24.28z"/>
	</g>
	<g>
		<path class="st3" d="M63.95,31.8c-1.5,1.25-3.82,0.49-4.75-1.1c-1.19,3.44-9.42,1.43-3.26-3.9l-0.09,0.15
			c1.57-1.61,2.23-3.76,2.76-5.88c0.87-1.54,2.21,0.12,2.09,1.32C60.53,25.67,67.01,28.97,63.95,31.8z"/>
	</g>
	<g>
		<path class="st4" d="M54.56,31.79c0,0,1.48,2.74,4.91,2.74s4.57-2.9,4.57-2.9s-3.49,2.86-4.59-0.87
			C59.46,30.75,57.96,34.16,54.56,31.79z"/>
	</g>
	<g>
		<path class="st5" d="M61.14,31.13c-0.29-0.6-0.56-1.21-0.69-1.85c-0.37,0.24-0.63,0.81-1.22,0.7c-0.33-0.12-0.49-0.54-0.8-0.66
			c0,0.04-0.01,0.07-0.01,0.11c-0.1,0.99-0.51,2.47-1.53,2.83c0.69,0.39,2.11-0.58,2.32-1.18c0.08-0.24,0.35-0.26,0.42-0.01
			c0.3,0.66,1.33,1.4,2.16,1.08C61.5,31.86,61.3,31.46,61.14,31.13z"/>
	</g>
	<g>
		<path class="st1" d="M62.32,32.7c-0.67-0.62-2.77-0.26-2.81-1.75c-0.56,0.73-1.41,1.51-2.64,1.45
			C55.49,37.63,63.45,38.32,62.32,32.7z"/>
	</g>
	<g>
		<path class="st4" d="M62.49,32.25c-1.64,0.42-3.32-0.92-2.95-2.37c-0.12,0.02-0.25-0.01-0.36-0.04c0.39,1.26-0.79,2.59-2.29,2.6
			c-0.15,0-0.17,0.18-0.02,0.2c0.9,0.1,1.8-0.08,2.56-0.49c0.84,0.72,2.16,0.84,3.15,0.27C62.69,32.37,62.6,32.22,62.49,32.25z"/>
	</g>
	<g>
		<g>
			<g>
				<path class="st4" d="M59.34,31.57c0.03,0.35,0.07,0.69,0.09,1.04c0.02,0.35,0.01,0.7-0.02,1.04c-0.02,0.18,0.26,0.18,0.28,0
					c0.03-0.35,0.03-0.71,0-1.06c-0.03-0.35-0.08-0.7-0.21-1.04C59.45,31.48,59.33,31.48,59.34,31.57L59.34,31.57z"/>
			</g>
		</g>
		<g>
			<g>
				<path class="st4" d="M37.67,39.79c1.65,0.36,3.11,1.34,4.13,2.68c1.1,1.45,1.72,3.24,2.06,5.01c0.36,1.89,0.37,3.86,0.02,5.75
					c-0.32,1.73-0.94,3.41-1.81,4.94c-0.84,1.47-1.92,2.79-3.19,3.91c-0.16,0.14-0.32,0.28-0.48,0.41
					c-0.16,0.13,0.07,0.37,0.23,0.23c1.34-1.11,2.5-2.44,3.42-3.91c0.95-1.52,1.64-3.2,2.02-4.95c0.42-1.92,0.49-3.92,0.2-5.86
					c-0.28-1.85-0.86-3.72-1.91-5.29c-0.95-1.41-2.35-2.63-4.04-3.01c-0.2-0.05-0.41-0.07-0.62-0.09
					C37.6,39.61,37.57,39.77,37.67,39.79L37.67,39.79z"/>
			</g>
		</g>
		<g>
			<g>
				<path class="st4" d="M20.86,54.54c-0.79-1.87-1.25-3.89-1.15-5.93c0.08-1.66,0.54-3.29,1.29-4.77c0.63-1.25,1.45-2.4,2.4-3.43
					c0.66-0.7,1.37-1.37,2.17-1.87c1.89-1.19,4.19-1.71,6.41-1.5c0.28,0.03,0.56,0.07,0.84,0.11c0.22,0.04,0.33-0.3,0.1-0.35
					c-2.26-0.47-4.72-0.06-6.76,0.98c-1.02,0.52-1.9,1.23-2.7,2.03c-0.99,1-1.85,2.13-2.53,3.36c-0.81,1.48-1.35,3.11-1.53,4.79
					c-0.21,1.99,0.13,4.04,0.91,5.88c0.11,0.27,0.24,0.53,0.37,0.8C20.74,54.77,20.91,54.67,20.86,54.54L20.86,54.54z"/>
			</g>
		</g>
		<g>
			<g>
				<path class="st4" d="M44.47,67.82c-0.6-0.11-1.2-0.25-1.76-0.51c-0.56-0.27-1.08-0.63-1.54-1.05c-0.99-0.91-1.69-2.04-2.24-3.26
					c-1.14-2.54-1.66-5.38-3.39-7.63c-0.81-1.06-1.85-1.88-3.1-2.36c-1.25-0.48-2.61-0.6-3.93-0.52c-3.03,0.19-5.81,1.5-8.74,2.15
					c-1.32,0.29-2.85,0.37-3.92-0.6c-0.41-0.37-0.72-0.87-0.73-1.44c-0.01-0.51,0.18-1.03,0.57-1.38c0.18-0.16,0.41-0.28,0.64-0.33
					c0.2-0.04,0.11-0.33-0.08-0.3c-1.1,0.21-1.7,1.48-1.43,2.51c0.33,1.25,1.61,1.95,2.82,2.09c0.79,0.09,1.59-0.03,2.36-0.21
					c0.77-0.18,1.54-0.41,2.29-0.64c1.5-0.46,2.98-0.98,4.52-1.29c1.37-0.28,2.81-0.36,4.19-0.1c1.34,0.25,2.57,0.84,3.54,1.81
					c2.03,2.04,2.67,4.97,3.7,7.56c0.52,1.31,1.16,2.59,2.11,3.64c0.84,0.93,1.94,1.72,3.18,1.99c0.31,0.07,0.6,0.09,0.92,0.06
					C44.55,68.01,44.6,67.84,44.47,67.82L44.47,67.82z"/>
			</g>
		</g>
		<g>
			<g>
				<path class="st4" d="M16.26,49.39c-0.56,0.21-1.02,0.67-1.38,1.14c-0.38,0.5-0.66,1.06-0.86,1.65
					c-0.48,1.41-0.45,2.92-0.38,4.39c0.15,3.2,0.33,6.4,0.51,9.6c0.04,0.78,0.11,1.6,0.5,2.3c0.33,0.59,0.88,1.08,1.57,1.16
					c0.21,0.03,0.26-0.33,0.05-0.37c-0.57-0.11-1.01-0.49-1.28-0.98c-0.33-0.59-0.4-1.3-0.44-1.97c-0.09-1.52-0.16-3.04-0.24-4.56
					c-0.08-1.53-0.16-3.06-0.24-4.59c-0.08-1.46-0.17-2.95,0.19-4.38c0.16-0.64,0.41-1.23,0.76-1.79c0.17-0.28,0.37-0.54,0.6-0.77
					c0.23-0.24,0.49-0.44,0.74-0.66C16.41,49.49,16.34,49.36,16.26,49.39L16.26,49.39z"/>
			</g>
		</g>
		<g>
			<g>
				<path class="st4" d="M16.01,69.88c-0.93,0.6-0.99,1.92-0.39,2.77c0.76,1.09,2.14,1.41,3.4,1.46c1.57,0.06,3.15,0.01,4.73,0
					c1.58,0,3.16-0.01,4.74-0.01c3.19-0.01,6.38-0.02,9.56-0.03c3.17-0.01,6.35-0.03,9.52-0.04c3.19-0.01,6.38,0.01,9.56-0.03
					c0.4-0.01,0.8-0.01,1.2-0.02c0.2,0,0.21-0.32,0-0.32c-3.07-0.03-6.15,0-9.22,0.01c-3.07,0.01-6.15,0-9.22,0.01
					c-3.09,0.01-6.18,0.02-9.26,0.02c-3.07,0.01-6.15,0.02-9.22,0.03c-0.75,0-1.51,0.02-2.26,0c-0.69-0.02-1.41-0.09-2.05-0.38
					c-1.03-0.46-1.82-1.5-1.38-2.65c0.09-0.25,0.25-0.46,0.45-0.62C16.28,69.99,16.13,69.81,16.01,69.88L16.01,69.88z"/>
			</g>
		</g>
		<g>
			<g>
				<path class="st4" d="M56.45,69.52c-1.15-0.11-2.31-0.12-3.46-0.15c-1.15-0.03-2.31-0.05-3.46-0.08
					c-2.31-0.05-4.62-0.1-6.93-0.15c-4.6-0.1-9.19-0.2-13.79-0.31c-2.59-0.06-5.18-0.12-7.78-0.17c-0.22,0-0.22,0.34,0,0.34
					c4.62,0.1,9.24,0.21,13.86,0.31c4.6,0.1,9.19,0.21,13.79,0.31c1.3,0.03,2.59,0.06,3.89,0.09c1.29,0.03,2.59,0.08,3.89,0.02
					C56.58,69.72,56.58,69.54,56.45,69.52L56.45,69.52z"/>
			</g>
		</g>
		<g>
			<g>
				<path class="st4" d="M30.61,53.73c0.28,0.05,0.55,0.15,0.81,0.25c0.25,0.09,0.5,0.2,0.73,0.33c0.49,0.26,0.94,0.6,1.35,0.98
					c0.86,0.81,1.51,1.8,2.02,2.86c1.12,2.32,1.62,4.91,3.01,7.1c0.67,1.06,1.58,2.13,2.73,2.69c0.16,0.08,0.3-0.15,0.14-0.25
					c-0.5-0.32-0.96-0.66-1.38-1.08c-0.41-0.42-0.77-0.89-1.09-1.39c-0.66-1.03-1.13-2.17-1.55-3.31c-0.87-2.37-1.61-4.92-3.47-6.73
					c-0.45-0.44-0.96-0.83-1.52-1.13c-0.28-0.15-0.56-0.27-0.86-0.36c-0.3-0.09-0.6-0.12-0.91-0.16
					C30.53,53.53,30.5,53.71,30.61,53.73L30.61,53.73z"/>
			</g>
		</g>
		<g>
			<g>
				<path class="st4" d="M45.24,68.08c1.35,0.16,2.72,0.21,4.08,0.29c1.37,0.07,2.74,0.15,4.11,0.22c0.77,0.04,1.54,0.08,2.31,0.12
					c0.22,0.01,0.22-0.33,0-0.34c-2.73-0.15-5.46-0.3-8.19-0.43c-0.77-0.04-1.54-0.06-2.31-0.06
					C45.11,67.89,45.12,68.07,45.24,68.08L45.24,68.08z"/>
			</g>
		</g>
		<g>
			<g>
				<path class="st4" d="M47.11,61.14c-0.16,0.72-0.04,1.42,0.32,2.06c0.35,0.64,0.88,1.17,1.49,1.58c1.33,0.88,2.92,1.26,4.29,2.07
					c2.41,1.43,4.24,3.8,4.98,6.5c0.23,0.84,0.33,1.77,0.86,2.49c0.45,0.6,1.22,1.07,1.99,0.82c0.2-0.07,0.12-0.38-0.09-0.32
					c-0.65,0.17-1.31-0.25-1.66-0.79c-0.43-0.66-0.53-1.46-0.73-2.21c-0.34-1.3-0.93-2.54-1.72-3.63c-0.8-1.11-1.77-2.08-2.91-2.85
					c-0.59-0.4-1.22-0.73-1.87-1.01c-0.71-0.31-1.44-0.58-2.14-0.92c-0.74-0.37-1.43-0.84-1.94-1.51c-0.46-0.61-0.8-1.43-0.66-2.21
					C47.37,61.05,47.14,60.99,47.11,61.14L47.11,61.14z"/>
			</g>
		</g>
		<g>
			<g>
				<path class="st4" d="M49.85,61.21c1.16-1.04,2.83-1.44,4.36-1.27c1.58,0.18,3.02,1.02,4.11,2.15c0.63,0.65,1.16,1.41,1.58,2.22
					c0.11,0.21,0.43,0.02,0.32-0.19c-0.78-1.49-1.93-2.83-3.4-3.68c-1.44-0.83-3.15-1.12-4.77-0.72c-0.9,0.22-1.7,0.68-2.36,1.33
					C49.59,61.16,49.74,61.31,49.85,61.21L49.85,61.21z"/>
			</g>
		</g>
		<g>
			<g>
				<path class="st4" d="M55.29,56.8c0.45,0.25,0.84,0.6,1.18,0.98c0.35,0.39,0.59,0.83,0.8,1.31c0.08,0.17,0.38,0.05,0.31-0.13
					c-0.37-1.04-1.21-1.87-2.18-2.35C55.28,56.54,55.16,56.73,55.29,56.8L55.29,56.8z"/>
			</g>
		</g>
		<g>
			<g>
				<path class="st4" d="M56.48,55.72c0.27,0.27,0.47,0.58,0.62,0.92c0.07,0.16,0.14,0.33,0.19,0.5c0.05,0.18,0.08,0.37,0.13,0.56
					c0.05,0.17,0.3,0.13,0.31-0.04c0-0.39-0.17-0.81-0.35-1.16c-0.19-0.35-0.45-0.67-0.73-0.95C56.53,55.46,56.38,55.62,56.48,55.72
					L56.48,55.72z"/>
			</g>
		</g>
		<g>
			<g>
				<path class="st4" d="M46.07,46.71c-0.08,0.34-0.2,0.68-0.31,1.01c-0.11,0.33-0.22,0.65-0.36,0.97
					c-0.13,0.32-0.28,0.63-0.45,0.93c-0.17,0.31-0.36,0.6-0.54,0.91c-0.09,0.16,0.15,0.37,0.27,0.21c0.44-0.56,0.76-1.23,1.03-1.89
					c0.13-0.33,0.25-0.66,0.34-1c0.05-0.18,0.09-0.36,0.13-0.54c0.03-0.18,0.05-0.37,0.07-0.55C46.28,46.64,46.1,46.58,46.07,46.71
					L46.07,46.71z"/>
			</g>
		</g>
		<g>
			<g>
				<path class="st4" d="M64.39,70.34c0.1,0.25,0.17,0.51,0.28,0.76c0.11,0.26,0.21,0.52,0.33,0.77c0.22,0.51,0.46,1.01,0.68,1.53
					c0.33,0.81,0.63,1.96-0.08,2.67c-0.34,0.34-0.79,0.44-1.23,0.29c-0.19-0.06-0.31,0.23-0.13,0.32c0.41,0.22,0.93,0.13,1.32-0.11
					c0.41-0.25,0.68-0.69,0.78-1.16c0.25-1.14-0.35-2.22-0.81-3.22c-0.15-0.33-0.3-0.65-0.45-0.97c-0.07-0.15-0.14-0.31-0.22-0.46
					c-0.09-0.17-0.19-0.32-0.27-0.49C64.53,70.16,64.35,70.23,64.39,70.34L64.39,70.34z"/>
			</g>
		</g>
		<g>
			<g>
				<path class="st4" d="M63.93,75.07c0.25,0.34,0.23,0.87-0.04,1.2c-0.13,0.16-0.3,0.27-0.5,0.32c-0.1,0.03-0.19,0.04-0.3,0.03
					c-0.1,0-0.2-0.03-0.31-0.05c-0.18-0.04-0.31,0.21-0.13,0.31c0.36,0.21,0.9,0.1,1.23-0.14c0.38-0.27,0.55-0.71,0.48-1.16
					c-0.03-0.24-0.15-0.45-0.3-0.63C64.01,74.88,63.87,74.99,63.93,75.07L63.93,75.07z"/>
			</g>
		</g>
		<g>
			<g>
				<path class="st4" d="M62.49,75.3c0.22,0.35,0.14,0.84-0.14,1.12c-0.07,0.07-0.14,0.12-0.24,0.17c-0.06,0.03-0.2,0.07-0.26,0.07
					c-0.11,0.01-0.21,0.01-0.29-0.01c-0.11-0.02-0.18-0.05-0.27-0.11c-0.2-0.13-0.39,0.2-0.19,0.32c0.37,0.23,0.84,0.23,1.22,0.03
					c0.38-0.2,0.59-0.62,0.58-1.04c-0.01-0.23-0.1-0.46-0.23-0.64C62.58,75.1,62.42,75.19,62.49,75.3L62.49,75.3z"/>
			</g>
		</g>
		<g>
			<g>
				<path class="st4" d="M69.24,56.67c-0.23,0.1-0.51,0.14-0.76,0.2c-0.26,0.05-0.52,0.09-0.78,0.12c-0.51,0.05-1.03,0.07-1.54,0.09
					c-0.92,0.03-1.85,0.11-2.7,0.5c-0.4,0.19-0.77,0.45-1.06,0.79c-0.32,0.37-0.54,0.81-0.72,1.26c-0.2,0.5-0.36,1.01-0.54,1.52
					c-0.19,0.55-0.38,1.1-0.57,1.65c-0.22,0.62-0.43,1.25-0.65,1.87c-0.22,0.62-0.46,1.24-0.64,1.88c-0.05,0.19,0.25,0.34,0.34,0.14
					c0.22-0.53,0.39-1.09,0.58-1.63c0.19-0.54,0.38-1.08,0.56-1.62c0.37-1.07,0.74-2.15,1.12-3.22c0.16-0.45,0.34-0.9,0.6-1.29
					c0.25-0.37,0.57-0.67,0.96-0.88c0.78-0.43,1.71-0.53,2.58-0.57c0.58-0.03,1.16-0.04,1.73-0.11c0.28-0.04,0.55-0.09,0.82-0.17
					c0.28-0.08,0.51-0.22,0.77-0.35C69.46,56.79,69.36,56.62,69.24,56.67L69.24,56.67z"/>
			</g>
		</g>
		<g>
			<g>
				<path class="st4" d="M69,56.72c-0.33,0.12-0.73,0.04-1.06-0.04C67.62,56.6,67.3,56.5,67,56.37c-0.3-0.13-0.6-0.28-0.88-0.46
					c-0.14-0.09-0.28-0.19-0.42-0.29c-0.13-0.1-0.25-0.23-0.4-0.3c-0.15-0.07-0.34,0.08-0.24,0.24c0.1,0.15,0.26,0.26,0.4,0.37
					c0.15,0.11,0.3,0.22,0.46,0.32c0.32,0.2,0.65,0.36,1,0.5c0.35,0.14,0.71,0.25,1.08,0.3c0.39,0.06,0.72,0.02,1.08-0.13
					C69.2,56.87,69.12,56.67,69,56.72L69,56.72z"/>
			</g>
		</g>
		<g>
			<g>
				<path class="st4" d="M59.62,66.16c-0.18,0.23-0.28,0.49-0.37,0.77c-0.09,0.27-0.17,0.54-0.22,0.81c-0.1,0.5-0.13,1.04,0.02,1.53
					c0.24,0.8,0.96,1.61,1.87,1.55c0.23-0.01,0.23-0.36,0-0.36c-0.79,0-1.36-0.67-1.54-1.4c-0.11-0.46-0.06-0.94,0.04-1.4
					c0.06-0.24,0.13-0.47,0.21-0.7c0.08-0.25,0.18-0.47,0.19-0.73C59.82,66.14,59.68,66.08,59.62,66.16L59.62,66.16z"/>
			</g>
		</g>
		<g>
			<g>
				<path class="st4" d="M63.11,68.39c-0.47,0.63-0.89,1.42-0.55,2.21c0.14,0.33,0.41,0.59,0.76,0.67c0.36,0.09,0.75,0,1.07-0.19
					c0.73-0.43,0.99-1.33,1.26-2.07c0.34-0.93,0.68-1.86,1.03-2.79c0.31-0.83,0.58-1.68,0.94-2.49c0.29-0.66,0.68-1.33,1.3-1.73
					c1.15-0.74,2.98-0.21,3.77-1.55c0.42-0.71,0.31-1.59,0.01-2.32c-0.18-0.42-0.41-0.81-0.63-1.2c-0.25-0.43-0.5-0.86-0.75-1.29
					c-0.13-0.21-0.25-0.43-0.38-0.64c-0.11-0.19-0.41-0.02-0.3,0.17c0.46,0.8,0.94,1.58,1.38,2.39c0.38,0.68,0.73,1.47,0.54,2.27
					c-0.36,1.5-2.21,1.21-3.34,1.63c-1.37,0.52-1.91,1.99-2.38,3.26c-0.32,0.88-0.65,1.75-0.97,2.63c-0.16,0.43-0.32,0.86-0.48,1.28
					c-0.15,0.4-0.28,0.8-0.46,1.19c-0.17,0.38-0.41,0.75-0.78,0.96c-0.31,0.17-0.74,0.23-1.03-0.01c-0.28-0.22-0.36-0.62-0.32-0.96
					c0.05-0.46,0.31-0.89,0.51-1.3C63.38,68.37,63.2,68.27,63.11,68.39L63.11,68.39z"/>
			</g>
		</g>
		<g>
			<g>
				<path class="st4" d="M61.32,67.84c-0.17,0.42-0.36,0.8-0.44,1.25c-0.07,0.38-0.07,0.78,0.05,1.15c0.2,0.66,0.9,1.32,1.63,1.11
					c0.18-0.05,0.15-0.34-0.04-0.33c-0.31,0.02-0.59-0.03-0.84-0.23c-0.26-0.2-0.41-0.5-0.48-0.81c-0.08-0.33-0.06-0.68,0-1.01
					c0.06-0.37,0.16-0.75,0.27-1.1C61.5,67.78,61.36,67.75,61.32,67.84L61.32,67.84z"/>
			</g>
		</g>
		<g>
			<g>
				<path class="st4" d="M63.55,64.67c-0.37-0.11-0.73-0.24-1.1-0.34c-0.37-0.1-0.74-0.21-1.11-0.3c-0.22-0.05-0.31,0.27-0.09,0.34
					c0.37,0.11,0.74,0.2,1.12,0.29c0.37,0.09,0.75,0.16,1.13,0.25C63.64,64.94,63.7,64.71,63.55,64.67L63.55,64.67z"/>
			</g>
		</g>
		<g>
			<g>
				<path class="st4" d="M67.19,36.9c-0.35,1.11-0.83,2.18-1.51,3.13c-0.66,0.94-1.51,1.76-2.48,2.38
					c-2.15,1.38-4.81,1.77-6.83,3.38c-0.5,0.39-0.94,0.85-1.3,1.38c-0.35,0.52-0.58,1.1-0.7,1.71c0.08-0.03,0.15-0.06,0.23-0.09
					c-1.48-0.75-2.7-2.02-3.52-3.45c-0.47-0.82-0.75-1.71-1.04-2.6c-0.31-0.96-0.75-1.85-1.11-2.79c-0.37-0.96-0.59-2.08-0.13-3.05
					c0.1-0.21-0.2-0.39-0.31-0.18c-0.97,1.9,0.37,3.9,0.98,5.67c0.33,0.96,0.6,1.95,1.07,2.86c0.4,0.77,0.92,1.48,1.54,2.1
					c0.7,0.7,1.49,1.25,2.37,1.71c0.08,0.04,0.2,0.01,0.23-0.09c0.22-1.1,0.98-2.03,1.83-2.72c0.95-0.77,2.05-1.28,3.17-1.73
					c1.23-0.5,2.49-0.94,3.62-1.65c0.99-0.62,1.86-1.43,2.56-2.36c0.77-1.04,1.36-2.26,1.56-3.54
					C67.42,36.82,67.23,36.77,67.19,36.9L67.19,36.9z"/>
			</g>
		</g>
		<g>
			<g>
				<path class="st4" d="M68.61,36.14c0.35-0.33,0.66-0.67,1.04-0.97c0.37-0.29,0.78-0.54,1.21-0.75c0.86-0.41,1.83-0.61,2.78-0.58
					c0.54,0.02,1.07,0.11,1.58,0.28c-0.04-0.08-0.09-0.15-0.13-0.23c-0.33,0.91-0.94,1.72-1.72,2.29c-0.86,0.63-1.91,0.94-2.98,0.92
					c-0.62-0.01-1.25-0.14-1.82-0.39c0.01,0.09,0.02,0.19,0.04,0.28c0.96-0.9,2.25-1.34,3.56-1.3c0.22,0.01,0.22-0.33,0-0.34
					c-1.39-0.08-2.79,0.45-3.82,1.38c-0.08,0.07-0.07,0.24,0.04,0.28c1.1,0.49,2.35,0.59,3.52,0.28c1.05-0.29,2-0.92,2.68-1.76
					c0.37-0.47,0.67-0.98,0.87-1.55c0.04-0.1-0.04-0.2-0.13-0.23c-1.92-0.63-4.14-0.21-5.74,1.01c-0.44,0.34-0.88,0.75-1.14,1.25
					C68.4,36.11,68.52,36.22,68.61,36.14L68.61,36.14z"/>
			</g>
		</g>
		<g>
			<g>
				<path class="st4" d="M69.26,42.84c0.61,0.54,1.11,1.25,1.48,1.97c0.19,0.37,0.34,0.75,0.45,1.15c0.06,0.2,0.11,0.4,0.14,0.6
					c0.04,0.2,0.04,0.42,0.1,0.61c0.05,0.14,0.29,0.18,0.33,0c0.04-0.22-0.02-0.45-0.06-0.66c-0.04-0.22-0.09-0.43-0.15-0.65
					c-0.12-0.41-0.29-0.81-0.48-1.19c-0.2-0.38-0.43-0.73-0.7-1.07c-0.28-0.35-0.61-0.64-0.96-0.91
					C69.31,42.61,69.16,42.75,69.26,42.84L69.26,42.84z"/>
			</g>
		</g>
		<g>
			<g>
				<path class="st4" d="M70.08,46.77c0.7,0.98,0.96,2.16,0.9,3.35c-0.01,0.2,0.33,0.25,0.36,0.05c0.17-1.27-0.26-2.56-1.07-3.54
					C70.18,46.51,70,46.65,70.08,46.77L70.08,46.77z"/>
			</g>
		</g>
		<g>
			<g>
				<path class="st4" d="M69.88,50.04c0.56,0.54,0.54,1.41,0.51,2.13c-0.04,0.85-0.11,1.7-0.11,2.54c0,0.24,0.35,0.24,0.37,0
					c0.04-0.45,0.05-0.91,0.07-1.36c0.02-0.45,0.05-0.9,0.06-1.36c0.02-0.78-0.1-1.6-0.72-2.13C69.94,49.75,69.76,49.92,69.88,50.04
					L69.88,50.04z"/>
			</g>
		</g>
		<g>
			<g>
				<path class="st4" d="M65.98,36.29c-0.2,0.26-0.49,0.48-0.75,0.66c-0.27,0.19-0.55,0.34-0.85,0.47
					c-0.64,0.28-1.33,0.43-2.02,0.53c-1.46,0.22-2.98,0.25-4.32,0.96c-0.63,0.33-1.2,0.81-1.54,1.45c-0.1,0.18,0.17,0.34,0.28,0.16
					c0.73-1.17,2.05-1.68,3.35-1.91c1.47-0.26,2.99-0.27,4.37-0.89c0.32-0.14,0.63-0.33,0.91-0.55c0.29-0.24,0.49-0.51,0.7-0.82
					C66.17,36.29,66.04,36.22,65.98,36.29L65.98,36.29z"/>
			</g>
		</g>
		<g>
			<g>
				<path class="st4" d="M56.35,38.42c-0.34,0.24-0.55,0.65-0.7,1.03c-0.16,0.39-0.24,0.82-0.22,1.25c0.01,0.2,0.31,0.2,0.31,0
					c0.01-0.39,0.07-0.77,0.2-1.13c0.06-0.18,0.15-0.36,0.24-0.52c0.1-0.17,0.21-0.32,0.3-0.49C56.53,38.48,56.44,38.36,56.35,38.42
					L56.35,38.42z"/>
			</g>
		</g>
		<g>
			<g>
				<path class="st4" d="M54.72,38.15c-0.27,0.38-0.4,0.86-0.36,1.33c0.04,0.45,0.2,0.98,0.57,1.27c0.12,0.1,0.34-0.03,0.24-0.18
					c-0.12-0.17-0.25-0.33-0.33-0.52c-0.08-0.18-0.14-0.39-0.16-0.59c-0.05-0.42,0.03-0.84,0.24-1.2
					C54.99,38.14,54.8,38.03,54.72,38.15L54.72,38.15z"/>
			</g>
		</g>
		<g>
			<g>
				<path class="st4" d="M51.34,35.96c0.06,0.3,0.14,0.57,0.29,0.84c0.14,0.26,0.32,0.51,0.53,0.72c0.21,0.21,0.45,0.4,0.71,0.55
					c0.13,0.07,0.26,0.14,0.4,0.19c0.15,0.06,0.3,0.13,0.47,0.11c0.16-0.02,0.14-0.23,0.04-0.3c-0.11-0.08-0.27-0.1-0.39-0.15
					c-0.12-0.05-0.24-0.11-0.36-0.17c-0.23-0.13-0.44-0.29-0.64-0.48c-0.38-0.37-0.69-0.86-0.84-1.37
					C51.5,35.78,51.31,35.83,51.34,35.96L51.34,35.96z"/>
			</g>
		</g>
		<g>
			<g>
				<path class="st4" d="M49.06,39.93c0.21,0.05,0.43,0.05,0.64,0.1c0.22,0.05,0.42,0.13,0.62,0.24c0.37,0.21,0.68,0.52,0.87,0.9
					c0.19,0.38,0.24,0.82,0.18,1.24c-0.03,0.22-0.1,0.43-0.19,0.63c-0.1,0.2-0.24,0.36-0.37,0.54c-0.14,0.17,0.07,0.39,0.25,0.25
					c0.29-0.24,0.47-0.64,0.58-1c0.11-0.37,0.13-0.77,0.07-1.15c-0.13-0.77-0.67-1.43-1.38-1.75c-0.37-0.16-0.87-0.31-1.25-0.15
					C48.99,39.79,48.97,39.91,49.06,39.93L49.06,39.93z"/>
			</g>
		</g>
		<g>
			<g>
				<path class="st4" d="M53.79,40.44c-0.23,1.11,0.73,2.23,1.79,2.41c1.13,0.19,2.28-0.46,2.62-1.57c0.19-0.63,0.11-1.33-0.22-1.89
					c-0.12-0.2-0.43-0.02-0.31,0.18c0.5,0.84,0.31,2.01-0.5,2.59c-0.8,0.57-1.9,0.5-2.58-0.22c-0.37-0.4-0.56-0.94-0.62-1.47
					C53.96,40.37,53.82,40.33,53.79,40.44L53.79,40.44z"/>
			</g>
		</g>
		<g>
			<g>
				<path class="st4" d="M52.9,47.87c0.07-0.42,0.13-0.83,0.34-1.21c0.2-0.36,0.48-0.68,0.82-0.9c0.36-0.23,0.78-0.37,1.22-0.39
					c0.47-0.02,0.87,0.1,1.3,0.28c0.19,0.08,0.34-0.16,0.16-0.28c-0.41-0.27-0.98-0.36-1.46-0.34c-0.49,0.02-0.97,0.17-1.38,0.44
					c-0.39,0.26-0.71,0.61-0.93,1.03c-0.21,0.41-0.37,0.91-0.29,1.37C52.7,47.98,52.88,47.98,52.9,47.87L52.9,47.87z"/>
			</g>
		</g>
		<g>
			<g>
				<path class="st4" d="M60.52,43.5c0.06-0.18,0.05-0.38,0.09-0.57c0.04-0.18,0.11-0.36,0.19-0.53c0.17-0.34,0.42-0.64,0.75-0.85
					c0.33-0.21,0.73-0.32,1.12-0.33c0.21,0,0.41,0.02,0.61,0.08c0.19,0.05,0.37,0.18,0.57,0.2c0.11,0.01,0.2-0.14,0.13-0.23
					c-0.13-0.18-0.4-0.26-0.61-0.32c-0.23-0.06-0.47-0.1-0.7-0.09c-0.46,0-0.93,0.13-1.32,0.39c-0.37,0.24-0.67,0.59-0.86,0.99
					c-0.1,0.2-0.17,0.42-0.2,0.64c-0.03,0.2-0.07,0.45,0.02,0.64C60.35,43.63,60.49,43.58,60.52,43.5L60.52,43.5z"/>
			</g>
		</g>
		<g>
			<g>
				<path class="st4" d="M62.71,38.12c0.02,0.35,0.25,0.65,0.49,0.89c0.26,0.25,0.57,0.44,0.92,0.54c0.36,0.11,0.74,0.11,1.11,0.04
					c0.37-0.08,0.77-0.25,1.02-0.53c0.11-0.13-0.03-0.35-0.19-0.25c-0.28,0.18-0.54,0.36-0.88,0.44c-0.32,0.08-0.66,0.07-0.97-0.02
					c-0.29-0.08-0.56-0.24-0.78-0.44c-0.23-0.21-0.39-0.48-0.59-0.72C62.8,38.02,62.71,38.06,62.71,38.12L62.71,38.12z"/>
			</g>
		</g>
		<g>
			<g>
				<path class="st4" d="M70.5,53.51c0.22-0.07,0.42-0.17,0.64-0.27c0.22-0.1,0.46-0.19,0.69-0.26c0.54-0.17,1.1-0.29,1.66-0.35
					c1.17-0.12,2.43-0.02,3.5,0.5c0.52,0.25,1,0.6,1.36,1.06c0.09,0.12,0.17,0.24,0.25,0.37c0.08,0.13,0.14,0.28,0.22,0.41
					c0.17,0.25,0.42,0.4,0.71,0.46c0.65,0.15,1.37-0.02,2.01-0.15c0.35-0.07,0.7-0.13,1.03-0.25c0.38-0.14,0.72-0.34,1.03-0.6
					c0.56-0.48,0.94-1.2,0.88-1.95c-0.06-0.68-0.43-1.36-1.05-1.67c-0.16-0.08-0.32-0.12-0.49-0.15c-0.17-0.02-0.21,0.26-0.04,0.3
					c0.65,0.16,1.05,0.72,1.17,1.36c0.13,0.71-0.21,1.38-0.74,1.83c-0.28,0.24-0.63,0.43-0.98,0.56c-0.32,0.11-0.66,0.17-0.99,0.24
					c-0.59,0.13-1.28,0.32-1.87,0.11c-0.28-0.1-0.39-0.31-0.52-0.56c-0.14-0.26-0.31-0.5-0.5-0.72c-0.37-0.43-0.84-0.78-1.35-1.02
					c-1.07-0.51-2.29-0.64-3.45-0.54c-1.03,0.09-2.14,0.32-3.02,0.89c-0.1,0.06-0.17,0.13-0.24,0.22
					C70.34,53.41,70.39,53.55,70.5,53.51L70.5,53.51z"/>
			</g>
		</g>
		<g>
			<g>
				<path class="st4" d="M83.03,69.59c0.83-0.04,1.44-0.75,1.73-1.47c0.18-0.45,0.25-0.94,0.29-1.42c0.04-0.53,0.06-1.06,0.09-1.59
					c0.12-2.19,0.24-4.38,0.35-6.57c0.06-1.07,0.14-2.13,0.14-3.2c0-0.53-0.02-1.06-0.09-1.58c-0.04-0.31-0.1-0.61-0.16-0.91
					c0-0.03-0.01-0.05-0.01-0.08c0.01,0.06,0-0.01,0-0.04c-0.01-0.07-0.01-0.14-0.02-0.2c-0.01-0.16-0.03-0.32-0.05-0.47
					c-0.04-0.4-0.11-0.8-0.23-1.18c-0.14-0.46-0.36-0.88-0.66-1.25c-0.35-0.44-0.81-0.78-1.31-1.03c-0.7-0.35-1.48-0.52-2.25-0.61
					c-1.12-0.13-2.26-0.07-3.38,0.06c-1.62,0.19-3.23,0.53-4.81,0.94c-0.48,0.13-0.96,0.25-1.44,0.4c-0.23,0.07-0.14,0.43,0.1,0.36
					c1.69-0.45,3.38-0.9,5.11-1.18c1.2-0.19,2.42-0.31,3.63-0.26c0.82,0.03,1.63,0.14,2.4,0.43c0.51,0.19,1.02,0.48,1.4,0.87
					c0.09,0.09,0.17,0.17,0.24,0.27c0.01,0.01,0.02,0.02,0.03,0.04c0.02,0.03-0.02-0.03,0,0c0.02,0.02,0.04,0.05,0.05,0.07
					c0.03,0.05,0.07,0.1,0.1,0.14c0.06,0.09,0.12,0.19,0.17,0.29c0.03,0.05,0.05,0.1,0.07,0.15c0.01,0.02,0.02,0.05,0.03,0.07
					c0.01,0.02,0.01,0.02,0,0c0.01,0.01,0.01,0.03,0.02,0.04c0.15,0.37,0.24,0.76,0.3,1.15c0,0.01,0.01,0.08,0.01,0.04
					c0-0.04,0,0.03,0.01,0.05c0.01,0.04,0.01,0.08,0.01,0.13c0.01,0.08,0.02,0.16,0.02,0.25c0.01,0.14,0.02,0.28,0.04,0.42
					c0.03,0.29,0.1,0.57,0.15,0.85c0.16,1.02,0.13,2.06,0.08,3.09c-0.1,2.13-0.23,4.27-0.34,6.4c-0.05,1.07-0.11,2.13-0.16,3.2
					c-0.05,0.89-0.12,1.88-0.74,2.58c-0.26,0.29-0.59,0.5-0.96,0.6C82.91,69.43,82.92,69.59,83.03,69.59L83.03,69.59z"/>
			</g>
		</g>
		<g>
			<g>
				<path class="st4" d="M83.07,70.14c0.4,0.35,0.59,0.88,0.57,1.41c-0.03,0.56-0.34,1.05-0.76,1.41c-1,0.84-2.4,0.85-3.63,0.84
					c-0.68,0-1.37-0.01-2.05-0.02c-1.45-0.01-2.9-0.03-4.36-0.04c-1.48,0-2.96-0.02-4.43-0.03c-0.78-0.01-1.55-0.02-2.33-0.01
					c-0.02,0-0.04,0.01-0.05,0.01c0.08,0,0.04-0.01,0.03-0.01c0,0-0.01,0-0.01,0c-0.2,0-0.2,0.32,0,0.32c0,0,0.01,0,0.01,0
					c0.01,0,0.06,0-0.03,0c0.02,0,0.04,0.01,0.06,0.01c0.04,0,0.07,0,0.11,0c0.13,0,0.27,0.01,0.4,0.01
					c0.48,0.02,0.97,0.01,1.46,0.02c1.48,0.02,2.96,0.03,4.45,0.05c1.5,0.03,3,0.04,4.51,0.05c0.75,0.01,1.49,0.02,2.24,0.02
					c1.22,0.01,2.53-0.01,3.58-0.7c0.51-0.33,0.94-0.81,1.11-1.4c0.16-0.52,0.12-1.12-0.15-1.59c-0.13-0.23-0.32-0.42-0.55-0.55
					C83.1,69.88,82.96,70.04,83.07,70.14L83.07,70.14z"/>
			</g>
		</g>
		<g>
			<g>
				<path class="st4" d="M65.35,69.4c0.04,0,0.08,0.01,0.11,0.01c-0.04-0.03-0.08-0.06-0.12-0.09c0,0,0,0,0,0
					c0.02,0.05,0.06,0.1,0.12,0.09c0.03,0,0.06,0.01,0.09,0.01c0.01,0,0.02,0,0.02,0c0.01,0,0.2,0.01-0.06-0.02
					c0.03,0,0.05,0.02,0.08,0.02c0.02,0,0.04,0,0.07,0c0.11,0,0.22,0,0.33-0.01c0.41-0.01,0.81-0.03,1.21-0.05
					c1.82-0.07,3.65-0.13,5.48-0.17c1.84-0.05,3.68-0.09,5.52-0.13c0.22,0,0.22-0.35,0-0.34c-2.84,0.06-5.68,0.13-8.52,0.22
					c-1.19,0.04-2.39,0.07-3.58,0.14c-0.08,0-0.15,0.01-0.23,0.02c-0.03,0-0.07,0.01-0.1,0.01c-0.01,0-0.03,0-0.04,0
					c-0.01,0-0.02,0-0.03,0c-0.07,0.01,0.04,0,0,0c-0.03,0-0.05,0.01-0.08,0.01c-0.02,0-0.05,0-0.07,0.01
					c-0.01,0.01-0.02,0.01-0.04,0.02c-0.05,0.04-0.04,0.03,0.03-0.01c0,0-0.01,0-0.01,0c-0.02,0-0.13,0.02-0.07,0.02
					c-0.05,0-0.11,0.04-0.12,0.09c0,0,0,0,0,0c0.03-0.03,0.06-0.06,0.09-0.09c-0.04,0.01-0.07,0.02-0.11,0.03
					C65.21,69.24,65.23,69.4,65.35,69.4L65.35,69.4z"/>
			</g>
		</g>
		<g>
			<g>
				<path class="st4" d="M75.78,53.56c-0.31-0.05-0.6-0.06-0.9,0.01c-0.29,0.07-0.57,0.21-0.8,0.41c-0.43,0.36-0.63,0.91-0.68,1.46
					c-0.14,1.35,0.71,2.49,1.11,3.71c0.21,0.63,0.31,1.31,0.06,1.95c-0.2,0.51-0.6,0.92-1.04,1.23c-1.09,0.75-2.46,0.89-3.71,1.27
					c-1.2,0.37-2.5,1.1-2.86,2.4c-0.04,0.15,0.19,0.21,0.24,0.07c0.36-1.13,1.47-1.73,2.53-2.05c0.67-0.2,1.36-0.3,2.03-0.47
					c0.59-0.15,1.17-0.35,1.7-0.66c0.47-0.28,0.9-0.64,1.21-1.1c0.33-0.49,0.47-1.08,0.43-1.66c-0.1-1.36-0.99-2.46-1.28-3.77
					c-0.12-0.57-0.09-1.22,0.22-1.73c0.36-0.6,1.05-0.79,1.71-0.83C75.86,53.75,75.9,53.58,75.78,53.56L75.78,53.56z"/>
			</g>
		</g>
		<g>
			<g>
				<path class="st4" d="M83.41,64.09c0.01,0.74-0.31,1.48-0.72,2.08c-0.22,0.31-0.47,0.6-0.74,0.88c-0.27,0.28-0.57,0.54-0.83,0.82
					c-0.15,0.16,0.07,0.36,0.23,0.23c0.32-0.26,0.62-0.56,0.9-0.87c0.27-0.29,0.53-0.61,0.75-0.94c0.43-0.67,0.67-1.41,0.61-2.2
					C83.6,63.97,83.41,63.96,83.41,64.09L83.41,64.09z"/>
			</g>
		</g>
		<g>
			<g>
				<path class="st4" d="M53.85,31.09c0.12,0.43,0.49,0.76,0.86,0.98c0.44,0.27,0.94,0.41,1.44,0.48c0.99,0.12,2.23,0.03,2.89-0.81
					c0.39-0.49,0.49-1.08,0.47-1.69c-0.01-0.2-0.32-0.26-0.36-0.05c-0.09,0.44-0.13,0.92-0.37,1.31c-0.23,0.37-0.6,0.6-1,0.75
					c-0.88,0.32-1.91,0.28-2.75-0.15c-0.42-0.22-0.74-0.53-1.04-0.9C53.94,30.93,53.83,31.01,53.85,31.09L53.85,31.09z"/>
			</g>
		</g>
		<g>
			<g>
				<path class="st4" d="M64.48,30.91c-0.24,0.31-0.48,0.6-0.81,0.82c-0.37,0.24-0.79,0.38-1.23,0.45
					c-0.79,0.11-1.85-0.09-2.35-0.77c-0.3-0.41-0.35-0.93-0.46-1.42c-0.05-0.21-0.35-0.15-0.36,0.05c-0.01,0.52,0.07,1.05,0.35,1.5
					c0.26,0.42,0.67,0.7,1.14,0.85c0.5,0.16,1.02,0.18,1.54,0.12c0.49-0.05,0.97-0.18,1.4-0.43c0.41-0.24,0.83-0.61,0.94-1.09
					C64.66,30.87,64.54,30.83,64.48,30.91L64.48,30.91z"/>
			</g>
		</g>
		<g>
			<path class="st4" d="M62.12,28.03c-0.2,0.77-1.11,1.01-1.71,1.39c-0.27,0.28-0.48,0.68-0.94,0.62c-0.43,0.11-0.65-0.34-0.92-0.58
				c-0.61-0.37-1.53-0.59-1.74-1.36c-0.46-1.48,1.41-1.96,2.55-1.78C60.61,26.13,62.51,26.44,62.12,28.03z"/>
		</g>
		<g>
			<g>
				<path class="st4" d="M56.63,32.6c0.01,0.44,0.05,0.89,0.07,1.33c0.02,0.38,0.04,0.76,0.13,1.13c0.18,0.71,0.62,1.29,1.32,1.55
					c0.69,0.25,1.51,0.21,2.22,0.04c0.72-0.16,1.47-0.52,1.84-1.19c0.22-0.4,0.24-0.85,0.26-1.29c0.02-0.54,0.04-1.08,0.03-1.62
					c0-0.16-0.23-0.15-0.24,0c-0.04,0.43-0.05,0.86-0.06,1.29c-0.01,0.39,0,0.8-0.11,1.18c-0.21,0.7-0.9,1.1-1.56,1.28
					c-0.68,0.19-1.44,0.26-2.11,0.03c-0.62-0.21-1.03-0.72-1.2-1.34c-0.1-0.39-0.12-0.79-0.15-1.18c-0.03-0.43-0.06-0.88-0.28-1.26
					C56.74,32.49,56.62,32.52,56.63,32.6L56.63,32.6z"/>
			</g>
		</g>
		<g>
			<g>
				<path class="st4" d="M47.39,29.84c0.35,0.34,0.92,0.3,1.36,0.18c0.47-0.13,0.9-0.38,1.29-0.66c0.77-0.55,1.4-1.29,1.86-2.11
					c0.54-0.95,0.72-2.02,0.77-3.1c0.06-1.19-0.1-2.4,0.11-3.58c0.2-1.11,0.69-2.16,1.62-2.84c0.14-0.1,0.02-0.33-0.14-0.24
					c-0.81,0.47-1.32,1.33-1.6,2.2c-0.34,1.08-0.37,2.25-0.4,3.37c-0.03,1.11-0.02,2.24-0.38,3.3c-0.3,0.89-0.8,1.67-1.51,2.29
					c-0.38,0.34-0.81,0.64-1.28,0.86c-0.25,0.12-0.52,0.21-0.79,0.23c-0.28,0.02-0.53-0.04-0.79-0.12
					C47.39,29.6,47.3,29.76,47.39,29.84L47.39,29.84z"/>
			</g>
		</g>
		<g>
			<g>
				<path class="st4" d="M54.66,16.24c-0.12-0.34-0.51-0.47-0.85-0.49c-0.38-0.02-0.75,0.11-1.06,0.32
					c-0.36,0.25-0.66,0.57-0.98,0.87c-0.32,0.29-0.7,0.52-1.1,0.67c-1.53,0.58-3.35,0.58-4.6,1.77c-0.31,0.29-0.56,0.64-0.72,1.04
					c-0.2,0.5-0.23,1.05-0.16,1.59c0.03,0.23,0.35,0.19,0.32-0.04c-0.11-0.83,0.08-1.65,0.71-2.22c0.52-0.48,1.22-0.77,1.88-0.99
					c0.76-0.25,1.56-0.39,2.31-0.68c0.36-0.14,0.73-0.31,1.06-0.51c0.35-0.22,0.65-0.5,0.96-0.78c0.3-0.28,0.63-0.57,1.05-0.66
					c0.18-0.04,0.37-0.05,0.55,0c0.17,0.05,0.31,0.16,0.46,0.26C54.56,16.44,54.69,16.34,54.66,16.24L54.66,16.24z"/>
			</g>
		</g>
		<g>
			<g>
				<path class="st4" d="M70.46,28.6c-0.42,0.26-0.92,0.18-1.36,0.02c-0.43-0.16-0.83-0.41-1.2-0.68c-0.74-0.55-1.33-1.29-1.72-2.13
					c-0.96-2.07-0.33-4.45-0.92-6.6c-0.28-1-0.84-1.96-1.75-2.5c-0.15-0.09-0.28,0.14-0.14,0.24c1.92,1.27,1.83,3.83,1.91,5.86
					c0.05,1.1,0.17,2.21,0.63,3.22c0.39,0.86,1,1.63,1.73,2.22c0.79,0.63,2.05,1.36,3.04,0.75C70.91,28.83,70.7,28.46,70.46,28.6
					L70.46,28.6z"/>
			</g>
		</g>
		<g>
			<g>
				<path class="st4" d="M63.27,15.57c0.46-0.49,1.18-0.29,1.66,0.05c0.31,0.22,0.58,0.51,0.87,0.75c0.28,0.23,0.59,0.41,0.92,0.56
					c1.31,0.59,2.82,0.6,4.1,1.26c0.68,0.35,1.25,0.89,1.47,1.64c0.06,0.2,0.36,0.11,0.31-0.08c-0.42-1.46-1.94-2.11-3.3-2.43
					c-0.78-0.19-1.57-0.33-2.31-0.63c-0.37-0.15-0.72-0.36-1.02-0.61c-0.3-0.25-0.58-0.54-0.91-0.77c-0.56-0.39-1.57-0.6-1.98,0.12
					C63.01,15.54,63.17,15.67,63.27,15.57L63.27,15.57z"/>
			</g>
		</g>
		<g>
			<g>
				<path class="st4" d="M72.37,20.6c-0.25,0.81-0.4,1.63-0.41,2.48c-0.01,0.83,0.06,1.71,0.31,2.51c0.06,0.19,0.34,0.11,0.3-0.08
					c-0.16-0.81-0.29-1.6-0.29-2.42c0-0.81,0.07-1.64,0.25-2.44C72.57,20.54,72.41,20.49,72.37,20.6L72.37,20.6z"/>
			</g>
		</g>
		<g>
			<g>
				<path class="st4" d="M71.48,23.4c-0.12,0.49-0.2,0.95-0.21,1.46c-0.01,0.51,0.02,1.02,0.03,1.53c0.01,0.46,0,0.92-0.06,1.38
					c-0.03,0.23-0.08,0.45-0.14,0.67c-0.06,0.23-0.16,0.44-0.23,0.67c-0.04,0.16,0.17,0.23,0.26,0.11c0.13-0.18,0.2-0.43,0.27-0.64
					c0.07-0.23,0.11-0.46,0.14-0.69c0.06-0.45,0.08-0.91,0.07-1.36c-0.01-0.5-0.03-0.99-0.04-1.49c-0.01-0.52-0.02-1.07,0.08-1.59
					C71.67,23.33,71.51,23.29,71.48,23.4L71.48,23.4z"/>
			</g>
		</g>
		<g>
			<g>
				<path class="st4" d="M54.48,28.66c0.17-0.21,0.37-0.41,0.54-0.62c0.17-0.21,0.34-0.42,0.5-0.64c0.33-0.43,0.65-0.86,0.98-1.28
					c0.29-0.37,0.61-0.72,1.03-0.93c0.44-0.22,0.95-0.27,1.43-0.29c0.88-0.03,1.91-0.12,2.7,0.35c0.64,0.38,0.94,1.1,1.22,1.76
					c0.31,0.72,0.63,1.48,1.34,1.9c0.16,0.09,0.3-0.15,0.14-0.25c-0.65-0.38-0.95-1.1-1.24-1.75c-0.3-0.66-0.61-1.36-1.22-1.79
					c-0.77-0.55-1.8-0.54-2.71-0.55c-0.49-0.01-1,0.02-1.47,0.18c-0.46,0.15-0.85,0.43-1.18,0.79c-0.4,0.44-0.75,0.94-1.1,1.42
					c-0.19,0.25-0.38,0.5-0.57,0.76c-0.1,0.14-0.19,0.27-0.29,0.41c-0.1,0.14-0.17,0.28-0.27,0.42
					C54.25,28.63,54.4,28.75,54.48,28.66L54.48,28.66z"/>
			</g>
		</g>
		<g>
			<g>
				<path class="st4" d="M51.41,32.8c0.57,0.85,1.2,1.65,1.93,2.37c0.67,0.66,1.39,1.27,2.18,1.79c0.18,0.12,0.35-0.17,0.17-0.29
					c-0.76-0.51-1.47-1.09-2.12-1.73c-0.71-0.7-1.38-1.46-1.99-2.24C51.5,32.6,51.33,32.69,51.41,32.8L51.41,32.8z"/>
			</g>
		</g>
		<g>
			<g>
				<path class="st4" d="M63.21,36.17c0.2-0.1,0.4-0.18,0.6-0.3c0.18-0.11,0.35-0.24,0.52-0.37c0.36-0.28,0.69-0.59,1-0.93
					c0.7-0.76,1.27-1.62,1.75-2.53c0.09-0.18-0.18-0.34-0.27-0.16c-0.46,0.89-1.02,1.73-1.69,2.48c-0.29,0.33-0.61,0.63-0.95,0.92
					c-0.17,0.14-0.34,0.27-0.52,0.4c-0.17,0.12-0.33,0.26-0.51,0.36C63.04,36.09,63.12,36.22,63.21,36.17L63.21,36.17z"/>
			</g>
		</g>
		<g>
			<g>
				<path class="st4" d="M67.92,37.18c-0.01,0.46,0.08,0.94,0.16,1.39c0.09,0.47,0.2,0.93,0.32,1.39c0.12,0.45,0.26,0.9,0.41,1.34
					c0.16,0.45,0.31,0.92,0.53,1.34c0.09,0.17,0.37,0.05,0.31-0.13c-0.08-0.23-0.18-0.45-0.27-0.67c-0.08-0.21-0.16-0.42-0.23-0.63
					c-0.16-0.44-0.3-0.88-0.43-1.33c-0.13-0.45-0.24-0.9-0.34-1.36c-0.1-0.45-0.17-0.92-0.31-1.36
					C68.05,37.07,67.93,37.09,67.92,37.18L67.92,37.18z"/>
			</g>
		</g>
		<g>
			<g>
				<path class="st4" d="M53.53,22.97c0.19-0.2,0.39-0.39,0.63-0.54c0.24-0.15,0.5-0.24,0.77-0.28c0.09-0.01,0.14-0.13,0.12-0.21
					c-0.03-0.1-0.12-0.14-0.21-0.12c-0.6,0.1-1.23,0.48-1.47,1.06C53.32,22.97,53.46,23.03,53.53,22.97L53.53,22.97z"/>
			</g>
		</g>
		<g>
			<g>
				<path class="st4" d="M63.26,21.93c0.24,0.09,0.5,0.14,0.74,0.24c0.25,0.1,0.47,0.25,0.68,0.41c0.15,0.12,0.36-0.15,0.21-0.27
					c-0.23-0.19-0.49-0.33-0.77-0.44c-0.26-0.1-0.55-0.19-0.84-0.15C63.17,21.74,63.15,21.88,63.26,21.93L63.26,21.93z"/>
			</g>
		</g>
		<g>
			<g>
				<path class="st4" d="M54.87,16.21c0.21-0.14,0.49-0.22,0.73-0.27c0.26-0.06,0.52-0.08,0.78-0.08c0.6-0.01,1.21,0.08,1.81,0.05
					c1.12-0.07,2.18-0.54,3.3-0.56c0.58-0.01,1.1,0.09,1.6,0.39c0.13,0.08,0.28-0.11,0.16-0.21c-0.86-0.69-2.07-0.57-3.07-0.35
					c-0.61,0.13-1.21,0.31-1.83,0.37c-0.64,0.06-1.28-0.03-1.93-0.03c-0.3,0-0.6,0.03-0.89,0.11c-0.14,0.04-0.28,0.09-0.41,0.15
					c-0.15,0.07-0.26,0.18-0.38,0.28C54.66,16.12,54.77,16.27,54.87,16.21L54.87,16.21z"/>
			</g>
		</g>
		<g>
			<g>
				<path class="st4" d="M19.46,45.9c-0.82-1.25-1.31-2.77-1.38-4.26c-0.07-1.47,0.27-2.95,0.96-4.25c0.34-0.64,0.77-1.24,1.27-1.77
					c0.49-0.51,1.04-0.96,1.59-1.39c1.11-0.86,2.25-1.72,3.01-2.92c0.85-1.35,1.17-3.03,0.84-4.59c-0.03-0.15-0.26-0.09-0.23,0.06
					c0.31,1.43,0.08,2.98-0.66,4.24c-0.74,1.26-1.97,2.09-3.11,2.97c-0.56,0.43-1.12,0.87-1.62,1.38c-0.51,0.52-0.94,1.1-1.3,1.73
					c-0.72,1.27-1.11,2.72-1.1,4.18c0.01,0.83,0.13,1.67,0.39,2.47c0.26,0.82,0.65,1.57,1.15,2.27
					C19.35,46.13,19.54,46.02,19.46,45.9L19.46,45.9z"/>
			</g>
		</g>
		<g>
			<g>
				<path class="st4" d="M26.46,29.68c0.36-0.78,0.63-1.61,0.88-2.43c0.25-0.82,0.44-1.65,0.54-2.49c0.18-1.44,0.04-2.93-0.54-4.27
					c-0.31-0.72-0.77-1.38-1.35-1.91c-0.04,0.09-0.08,0.18-0.11,0.27c1.79,0.14,3.53,0.82,4.94,1.93c1.43,1.13,2.48,2.7,3.02,4.44
					c0.3,1,0.42,2.03,0.4,3.07c0,0.19,0.29,0.19,0.3,0c0.13-1.89-0.43-3.85-1.44-5.44c-1-1.58-2.48-2.83-4.2-3.57
					c-0.96-0.41-1.98-0.67-3.02-0.75c-0.14-0.01-0.21,0.18-0.11,0.27c1.02,0.92,1.58,2.22,1.79,3.56c0.24,1.53-0.03,3.08-0.43,4.56
					c-0.25,0.9-0.59,1.78-0.82,2.68C26.28,29.7,26.42,29.77,26.46,29.68L26.46,29.68z"/>
			</g>
		</g>
		<g>
			<g>
				<path class="st4" d="M34.82,27.71c0,0.82-0.15,1.68-0.39,2.46c-0.25,0.8-0.61,1.55-1.08,2.24c-0.27,0.39-0.59,0.74-0.91,1.1
					c-0.11,0.13,0.06,0.29,0.18,0.18c0.32-0.28,0.59-0.62,0.84-0.96c0.26-0.35,0.49-0.73,0.69-1.12c0.39-0.76,0.67-1.59,0.78-2.44
					c0.07-0.49,0.07-0.97,0.05-1.47C34.98,27.61,34.82,27.61,34.82,27.71L34.82,27.71z"/>
			</g>
		</g>
		<g>
			<g>
				<path class="st4" d="M49.94,29.35c-0.04,0.54-0.1,1.06-0.28,1.58c-0.17,0.5-0.4,0.97-0.61,1.46c-0.38,0.87-0.71,1.79-0.52,2.75
					c0.09,0.44,0.3,0.97,0.69,1.23c0.12,0.08,0.3-0.08,0.2-0.2c-0.12-0.16-0.26-0.31-0.36-0.49c-0.1-0.18-0.16-0.38-0.2-0.58
					c-0.09-0.41-0.06-0.84,0.03-1.25c0.22-1,0.79-1.87,1.1-2.85c0.17-0.53,0.29-1.13,0.13-1.67C50.09,29.23,49.95,29.25,49.94,29.35
					L49.94,29.35z"/>
			</g>
		</g>
		<g>
			<g>
				<path class="st4" d="M68.92,28.94c0.01,0.53-0.09,1.04-0.29,1.53c-0.19,0.48-0.44,0.94-0.61,1.44
					c-0.35,1.01-0.19,2.07-0.22,3.11c-0.02,0.58-0.12,1.11-0.36,1.64c-0.08,0.18,0.16,0.32,0.26,0.15c0.26-0.42,0.36-0.95,0.4-1.43
					c0.05-0.53,0.02-1.07,0.01-1.6c-0.01-0.55,0.01-1.1,0.17-1.63c0.16-0.52,0.42-0.99,0.61-1.49c0.21-0.54,0.39-1.18,0.17-1.75
					C69.06,28.84,68.92,28.84,68.92,28.94L68.92,28.94z"/>
			</g>
		</g>
		<g>
			<g>
				<path class="st4" d="M45.15,53.06c-0.08,0.32-0.19,0.63-0.26,0.95c-0.07,0.31-0.15,0.62-0.22,0.93
					c-0.14,0.63-0.28,1.26-0.42,1.9c-0.25,1.16-0.52,2.36-0.29,3.55c0.11,0.59,0.35,1.16,0.74,1.61c0.12,0.14,0.37-0.05,0.25-0.2
					c-0.67-0.87-0.82-1.94-0.71-3.01c0.06-0.6,0.19-1.19,0.31-1.78c0.13-0.6,0.26-1.21,0.38-1.81c0.07-0.34,0.14-0.68,0.21-1.03
					c0.07-0.35,0.1-0.71,0.17-1.07C45.34,52.99,45.18,52.94,45.15,53.06L45.15,53.06z"/>
			</g>
		</g>
		<g>
			<g>
				<path class="st4" d="M45.27,59.92c-0.04,0.36-0.02,0.71,0.07,1.06c0.05,0.17,0.12,0.33,0.2,0.49c0.08,0.16,0.18,0.34,0.31,0.46
					c0.14,0.13,0.37-0.03,0.27-0.21c-0.08-0.14-0.19-0.27-0.27-0.42c-0.08-0.14-0.14-0.28-0.19-0.43c-0.11-0.3-0.17-0.63-0.16-0.95
					C45.5,59.77,45.29,59.78,45.27,59.92L45.27,59.92z"/>
			</g>
		</g>
		<g>
			<g>
				<path class="st4" d="M48.4,35.34c-1,0.13-1.99,0.14-2.99,0c-0.99-0.15-1.96-0.41-2.92-0.69c-1.82-0.52-3.69-1.07-5.6-0.89
					c-0.96,0.09-1.94,0.36-2.74,0.91c-0.16,0.11-0.02,0.37,0.15,0.27c0.75-0.46,1.56-0.74,2.44-0.84c0.88-0.1,1.78-0.05,2.65,0.11
					c1.95,0.34,3.81,1.1,5.77,1.41c1.07,0.17,2.21,0.25,3.27-0.08C48.52,35.5,48.51,35.32,48.4,35.34L48.4,35.34z"/>
			</g>
		</g>
		<g>
			<g>
				<path class="st4" d="M35.69,35.52c-0.44-0.08-0.87-0.12-1.31-0.09c-0.43,0.03-0.89,0.07-1.29,0.24
					c-0.13,0.05-0.07,0.29,0.07,0.27c0.42-0.06,0.82-0.17,1.24-0.2c0.42-0.03,0.84-0.03,1.26,0C35.78,35.75,35.81,35.55,35.69,35.52
					L35.69,35.52z"/>
			</g>
		</g>
		<g>
			<g>
				<path class="st4" d="M45.68,22.2c0.04,0.23,0.13,0.46,0.19,0.69c0.06,0.25,0.11,0.5,0.13,0.75c0.02,0.24,0.02,0.48,0,0.72
					c-0.02,0.25-0.08,0.49-0.1,0.74c-0.01,0.17,0.22,0.17,0.27,0.04c0.1-0.24,0.11-0.54,0.12-0.8c0.01-0.26,0-0.52-0.04-0.77
					c-0.03-0.25-0.08-0.5-0.16-0.74c-0.07-0.24-0.16-0.5-0.32-0.69C45.74,22.09,45.67,22.15,45.68,22.2L45.68,22.2z"/>
			</g>
		</g>
		<g>
			<g>
				<path class="st4" d="M46.33,24.12c0.2,0.4,0.28,0.88,0.31,1.32c0.03,0.44,0.01,0.89-0.01,1.33c-0.05,0.89-0.06,1.82,0.34,2.64
					c0.09,0.19,0.38,0.02,0.28-0.17c-0.4-0.83-0.32-1.78-0.29-2.68c0.01-0.44,0.02-0.88-0.04-1.31c-0.06-0.45-0.21-0.83-0.44-1.22
					C46.43,23.93,46.28,24.02,46.33,24.12L46.33,24.12z"/>
			</g>
		</g>
	</g>
</g>
<g>
	<g>
		<path class="st0" d="M82.27,67.17c-0.45-0.13-0.93-0.2-1.43-0.2c-2.45,0-4.5,1.72-5.01,4.01C78.45,70.87,80.82,69.3,82.27,67.17z"
			/>
	</g>
	<g>
		<path class="st1" d="M83.95,68.01c-0.5-0.38-1.06-0.67-1.68-0.84c-1.45,2.13-3.82,3.7-6.45,3.81c-0.08,0.36-0.13,0.74-0.13,1.13
			c0,0.31,0.03,0.61,0.08,0.91C79.07,72.74,82.34,70.96,83.95,68.01z"/>
	</g>
	<g>
		<path class="st6" d="M85.29,69.54c-0.34-0.59-0.8-1.11-1.35-1.53c-1.61,2.94-4.88,4.73-8.17,5c0.16,0.91,0.56,1.73,1.13,2.41
			C80.41,74.7,83.57,72.66,85.29,69.54z"/>
	</g>
	<g>
		<path class="st0" d="M78.53,76.7c0.69,0.35,1.48,0.55,2.31,0.55c2.84,0,5.14-2.3,5.14-5.14c0-0.02,0-0.05,0-0.07
			C84.23,74.41,81.41,76.09,78.53,76.7z"/>
	</g>
	<g>
		<path class="st1" d="M85.98,72.03c-0.01-0.91-0.26-1.76-0.69-2.49c-1.72,3.12-4.88,5.16-8.38,5.88c0.44,0.53,0.99,0.96,1.62,1.27
			C81.41,76.09,84.23,74.41,85.98,72.03z"/>
	</g>
	<g>
		<path class="st4" d="M80.84,77.4c-2.92,0-5.29-2.37-5.29-5.29s2.37-5.29,5.29-5.29c2.92,0,5.29,2.37,5.29,5.29
			S83.76,77.4,80.84,77.4z M80.84,67.12c-2.75,0-4.99,2.24-4.99,4.99c0,2.75,2.24,4.99,4.99,4.99c2.75,0,4.99-2.24,4.99-4.99
			C85.83,69.36,83.59,67.12,80.84,67.12z"/>
	</g>
	<g>
		<g>
			<path class="st4" d="M83.86,67.97c-0.23,0.21-0.38,0.51-0.56,0.76c-0.19,0.26-0.39,0.51-0.61,0.75c-0.42,0.47-0.88,0.9-1.37,1.28
				c-1,0.78-2.15,1.38-3.36,1.74c-0.34,0.1-0.69,0.19-1.04,0.25c-0.35,0.07-0.71,0.1-1.06,0.16c-0.15,0.02-0.11,0.26,0.04,0.26
				c0.32,0.01,0.66-0.04,0.97-0.1c0.32-0.06,0.64-0.13,0.96-0.21c0.63-0.17,1.24-0.41,1.83-0.7c1.17-0.57,2.23-1.36,3.11-2.32
				c0.24-0.27,0.47-0.55,0.69-0.85c0.21-0.28,0.46-0.6,0.54-0.95C84,67.97,83.91,67.92,83.86,67.97L83.86,67.97z"/>
		</g>
	</g>
	<g>
		<g>
			<path class="st4" d="M77.03,75.42c0.33,0,0.67-0.08,0.99-0.16c0.33-0.08,0.66-0.18,0.98-0.29c0.64-0.22,1.25-0.51,1.84-0.84
				c1.19-0.67,2.26-1.54,3.15-2.57c0.5-0.58,0.95-1.2,1.32-1.87c0.08-0.16-0.15-0.29-0.24-0.14c-0.67,1.15-1.5,2.18-2.52,3.05
				c-1.01,0.87-2.16,1.55-3.4,2.04c-0.34,0.13-0.69,0.25-1.04,0.35c-0.36,0.1-0.74,0.17-1.1,0.29
				C76.94,75.31,76.95,75.42,77.03,75.42L77.03,75.42z"/>
		</g>
	</g>
</g>
<g>
	<g>
		<g>
			<path class="st6" d="M33.81,72.24l-0.13,0.03c-0.25-0.96-0.56-1.9-0.92-2.82c-0.23-0.61-0.5-1.22-0.91-1.72
				c-0.62-0.75-1.58-1.22-2.55-1.26l-0.17,0.01c0.08,0.16,0.14,0.33,0.17,0.51c0.05,0.29,0.03,0.6-0.08,0.88
				c0.84-0.07,1.64,0.69,1.57,1.48c-0.51,0.34-1.11,0.54-1.71,0.69c-1.96,0.48-3.99,0.54-6,0.59H22.3c-2.01-0.05-4.05-0.11-6-0.59
				c-0.63-0.16-1.27-0.36-1.8-0.74c-0.14-0.1-0.28-0.23-0.39-0.37c0-0.01-0.01-0.01-0.01-0.02c0.06,0,0.13,0,0.19,0
				c0.1,0,0.18-0.04,0.25-0.12c0.14-0.16,0.26-0.32,0.42-0.46c0.32-0.26,0.74-0.43,1.16-0.37c0.06,0.01,0.15-0.03,0.14-0.11
				c-0.06-0.49,0.13-1.01,0.53-1.31c0.08-0.06,0.08-0.19-0.03-0.22c-0.64-0.19-1.3-0.02-1.89,0.25c-0.58,0.27-1.13,0.64-1.48,1.18
				c-0.11,0.16-0.2,0.35-0.26,0.55c-0.2,0.36-0.36,0.74-0.51,1.13c-0.36,0.92-0.66,1.87-0.92,2.82l-0.13-0.03
				c-0.45,0.41-0.63,1.05-0.57,1.65c0.01,0.13,0.04,0.26,0.07,0.38c0.2,0.7,0.73,1.29,1.34,1.69c0.61,0.4,1.32,0.64,2.02,0.85
				c2.66,0.76,5.43,1.03,8.2,1.12h0.11c2.76-0.09,5.54-0.36,8.2-1.12c0.7-0.2,1.41-0.45,2.02-0.85c0.61-0.4,1.13-0.98,1.34-1.69
				c0.04-0.12,0.06-0.25,0.07-0.38C34.44,73.28,34.26,72.64,33.81,72.24z M22.61,76.31c-1.38,0-2.5-1.12-2.5-2.5s1.12-2.5,2.5-2.5
				c1.38,0,2.5,1.12,2.5,2.5S23.99,76.31,22.61,76.31z"/>
		</g>
	</g>
	<g>
		<path class="st3" d="M25.11,73.81c0,1.38-1.12,2.5-2.5,2.5c-1.38,0-2.5-1.12-2.5-2.5s1.12-2.5,2.5-2.5
			C23.99,71.31,25.11,72.43,25.11,73.81z"/>
	</g>
	<g>
		<path class="st1" d="M30.8,69.36c-0.51,0.34-1.11,0.54-1.71,0.69c-1.96,0.48-3.99,0.54-6,0.59H22.3c-2.01-0.05-4.05-0.11-6-0.59
			c-0.63-0.16-1.27-0.36-1.8-0.74c-0.14-0.1-0.28-0.23-0.39-0.37l0.43-0.03c0.3-0.63,1.06-1.04,1.79-0.95
			c-0.28-0.48-0.08-1.14,0.4-1.44c0.05-0.03,0.1-0.05,0.15-0.08c-0.18-0.36-0.08-0.82,0.24-1.07c0.31-0.26,0.81-0.29,1.16-0.07
			c-0.04-0.64,0.32-1.29,0.9-1.63c0.58-0.33,1.36-0.34,1.94-0.01c-0.08-0.47-0.09-0.99,0.19-1.4c0.28-0.4,0.93-0.59,1.31-0.27
			c0.62-0.46,1.54-0.53,2.22-0.16c0.68,0.37,1.09,1.15,0.99,1.88c0.88,0.1,1.56,0.99,1.38,1.81c0.64-0.08,1.31,0.17,1.71,0.64
			c0.09,0.1,0.16,0.21,0.22,0.32c0.08,0.16,0.14,0.33,0.17,0.51c0.05,0.29,0.03,0.6-0.08,0.88C30.07,67.81,30.87,68.57,30.8,69.36z"
			/>
	</g>
	<g>
		<g>
			<path class="st4" d="M16.09,66.39c-0.54-0.06-1.1,0.12-1.57,0.36c-0.49,0.26-0.92,0.63-1.24,1.08c-0.35,0.48-0.58,1.03-0.79,1.58
				c-0.24,0.62-0.45,1.25-0.63,1.88c-0.21,0.71-0.39,1.43-0.54,2.16c-0.03,0.14,0.18,0.2,0.21,0.06c0.29-1.23,0.64-2.44,1.09-3.62
				c0.21-0.56,0.42-1.11,0.72-1.62c0.28-0.47,0.66-0.86,1.12-1.15c0.51-0.32,1.07-0.45,1.66-0.56
				C16.22,66.54,16.18,66.4,16.09,66.39L16.09,66.39z"/>
		</g>
	</g>
	<g>
		<g>
			<path class="st4" d="M29.28,66.56c0.52,0.1,1.02,0.21,1.48,0.46c0.47,0.26,0.87,0.62,1.18,1.07c0.33,0.49,0.55,1.03,0.76,1.58
				c0.23,0.59,0.43,1.18,0.62,1.79c0.21,0.68,0.39,1.37,0.55,2.06c0.03,0.14,0.24,0.08,0.21-0.06c-0.26-1.3-0.63-2.57-1.09-3.82
				c-0.2-0.56-0.43-1.13-0.75-1.62c-0.31-0.47-0.71-0.88-1.19-1.17c-0.51-0.31-1.14-0.53-1.75-0.46
				C29.21,66.39,29.17,66.54,29.28,66.56L29.28,66.56z"/>
		</g>
	</g>
	<g>
		<g>
			<path class="st4" d="M33.77,73.78c-0.21,0.26-0.43,0.52-0.68,0.74c-0.26,0.22-0.55,0.42-0.85,0.58c-0.69,0.37-1.45,0.58-2.2,0.76
				c-1.61,0.38-3.25,0.64-4.9,0.78c-0.77,0.07-1.54,0.12-2.31,0.12c-0.64,0-1.29-0.03-1.93-0.08c-1.65-0.11-3.3-0.35-4.92-0.7
				c-1.58-0.34-3.35-0.78-4.28-2.23c-0.09-0.15-0.33-0.01-0.24,0.14c0.79,1.3,2.31,1.85,3.71,2.19c1.65,0.4,3.33,0.66,5.01,0.81
				c0.79,0.07,1.59,0.13,2.38,0.13c0.68,0,1.36-0.03,2.04-0.08c1.69-0.12,3.36-0.36,5.01-0.73c1.44-0.32,3.02-0.73,3.99-1.93
				c0.11-0.14,0.2-0.27,0.27-0.43C33.9,73.8,33.82,73.72,33.77,73.78L33.77,73.78z"/>
		</g>
	</g>
	<g>
		<g>
			<path class="st4" d="M33.75,72.29c0.57,0.61,0.66,1.53,0.3,2.27c-0.39,0.82-1.15,1.36-1.96,1.71c-0.93,0.4-1.95,0.63-2.93,0.84
				c-1.02,0.21-2.06,0.36-3.1,0.47c-1.03,0.11-2.06,0.17-3.09,0.21c-0.44,0.02-0.89-0.01-1.33-0.03c-0.52-0.03-1.04-0.06-1.56-0.1
				c-2.06-0.17-4.14-0.48-6.11-1.12c-0.87-0.28-1.73-0.69-2.31-1.42c-0.51-0.64-0.73-1.54-0.35-2.3c0.09-0.18,0.21-0.34,0.35-0.47
				c0.12-0.11-0.06-0.3-0.18-0.18c-0.62,0.58-0.76,1.54-0.47,2.32c0.32,0.86,1.05,1.49,1.86,1.89c0.94,0.47,2,0.72,3.02,0.94
				c1.07,0.23,2.15,0.4,3.23,0.51c1.08,0.12,2.17,0.19,3.26,0.23c0.48,0.02,0.95-0.01,1.43-0.04c0.54-0.03,1.09-0.06,1.63-0.11
				c1.09-0.09,2.17-0.23,3.25-0.43c1.05-0.2,2.12-0.44,3.13-0.81c0.88-0.33,1.73-0.82,2.26-1.62c0.46-0.7,0.59-1.64,0.18-2.39
				c-0.1-0.18-0.23-0.34-0.39-0.47C33.79,72.11,33.68,72.21,33.75,72.29L33.75,72.29z"/>
		</g>
	</g>
	<g>
		<g>
			<path class="st4" d="M29.75,67.04c0.62,0.22,1.51,0.53,1.57,1.31c0.02,0.36-0.21,0.63-0.48,0.83c-0.32,0.23-0.68,0.4-1.05,0.53
				c-0.77,0.27-1.59,0.42-2.4,0.53c-0.85,0.12-1.71,0.18-2.56,0.22c-1.21,0.05-2.41,0.07-3.61,0.02c-1.69-0.06-3.4-0.17-5.04-0.6
				c-0.38-0.1-0.76-0.22-1.12-0.4c-0.31-0.16-0.66-0.36-0.85-0.66c-0.19-0.3-0.14-0.64,0.04-0.93c0.2-0.31,0.54-0.5,0.88-0.63
				c0.17-0.06,0.35-0.12,0.53-0.17c0.16-0.05,0.09-0.3-0.07-0.25c-0.71,0.2-1.55,0.51-1.74,1.31c-0.2,0.82,0.59,1.35,1.23,1.64
				c0.79,0.36,1.68,0.53,2.53,0.66c0.91,0.14,1.83,0.22,2.75,0.27c1.34,0.07,2.67,0.08,4,0.03c0.93-0.03,1.85-0.09,2.77-0.2
				c0.88-0.11,1.77-0.26,2.62-0.53c0.4-0.13,0.79-0.3,1.13-0.53c0.29-0.2,0.58-0.46,0.67-0.82c0.09-0.35-0.03-0.71-0.24-0.99
				c-0.24-0.31-0.57-0.5-0.94-0.62c-0.19-0.06-0.38-0.11-0.58-0.16C29.69,66.86,29.66,67,29.75,67.04L29.75,67.04z"/>
		</g>
	</g>
	<g>
		<path class="st4" d="M22.61,76.46c-1.46,0-2.65-1.19-2.65-2.65c0-1.46,1.19-2.65,2.65-2.65s2.65,1.19,2.65,2.65
			C25.26,75.27,24.07,76.46,22.61,76.46z M22.61,71.46c-1.3,0-2.35,1.05-2.35,2.35c0,1.3,1.05,2.35,2.35,2.35
			c1.3,0,2.35-1.05,2.35-2.35C24.95,72.51,23.9,71.46,22.61,71.46z"/>
	</g>
	<g>
		<g>
			<path class="st4" d="M14.62,68.95c0.36-0.57,1.03-0.95,1.71-0.86c0.11,0.02,0.17-0.13,0.12-0.21c-0.26-0.49,0-1.1,0.5-1.31
				c0.08-0.03,0.08-0.14,0.05-0.21c-0.14-0.31-0.04-0.7,0.23-0.9c0.28-0.2,0.67-0.21,0.96-0.04c0.09,0.06,0.23-0.01,0.23-0.13
				c-0.03-0.59,0.29-1.17,0.8-1.47c0.55-0.33,1.26-0.33,1.82-0.03c0.13,0.07,0.25-0.04,0.23-0.17c-0.07-0.44-0.09-1.01,0.24-1.35
				c0.24-0.25,0.7-0.4,0.99-0.16c0.05,0.04,0.13,0.07,0.19,0.03c0.59-0.42,1.42-0.5,2.06-0.16c0.6,0.32,1.01,1.01,0.92,1.7
				c-0.02,0.11,0.04,0.19,0.16,0.21c0.73,0.1,1.38,0.85,1.22,1.6c-0.02,0.09,0.05,0.22,0.16,0.21c0.57-0.06,1.16,0.13,1.55,0.55
				c0.4,0.43,0.51,1.05,0.31,1.59c-0.03,0.1,0.06,0.21,0.16,0.21c0.73-0.05,1.48,0.58,1.41,1.34c-0.02,0.21,0.3,0.21,0.32,0
				c0.09-0.93-0.83-1.73-1.73-1.67c0.05,0.07,0.1,0.14,0.16,0.21c0.23-0.64,0.08-1.38-0.37-1.89c-0.44-0.51-1.15-0.75-1.81-0.68
				c0.05,0.07,0.1,0.14,0.16,0.21c0.2-0.97-0.58-1.91-1.54-2.01c0.05,0.05,0.11,0.11,0.16,0.16c0.07-0.62-0.17-1.26-0.62-1.69
				c-0.47-0.46-1.15-0.66-1.8-0.58c-0.37,0.05-0.73,0.18-1.03,0.4c0.06,0.01,0.13,0.02,0.19,0.03c-0.42-0.34-1.02-0.23-1.4,0.12
				c-0.47,0.43-0.46,1.13-0.36,1.71c0.08-0.06,0.15-0.12,0.23-0.17c-0.65-0.36-1.49-0.36-2.13,0.03c-0.6,0.36-0.98,1.04-0.94,1.74
				c0.08-0.04,0.15-0.09,0.23-0.13c-0.41-0.24-0.96-0.22-1.33,0.08c-0.38,0.3-0.48,0.84-0.28,1.27c0.02-0.07,0.04-0.14,0.05-0.21
				c-0.64,0.27-0.96,1.11-0.59,1.71c0.04-0.07,0.08-0.14,0.12-0.21c-0.76-0.07-1.61,0.32-1.87,1.07
				C14.43,68.98,14.57,69.03,14.62,68.95L14.62,68.95z"/>
		</g>
	</g>
	<g>
		<g>
			<path class="st4" d="M17.1,68.09c-0.25-0.08-0.49,0.18-0.51,0.41c-0.03,0.26,0.13,0.51,0.37,0.62c0.25,0.11,0.55,0.08,0.78-0.07
				c0.23-0.16,0.36-0.42,0.3-0.7c-0.06-0.29-0.39-0.52-0.68-0.42c-0.07,0.03-0.12,0.1-0.1,0.18c0.02,0.08,0.1,0.12,0.18,0.1
				c0.07-0.02,0.13-0.01,0.18,0.02c0.07,0.03,0.11,0.08,0.14,0.15c0.06,0.15-0.01,0.32-0.13,0.43c-0.24,0.21-0.73,0.16-0.78-0.21
				c-0.01-0.08,0.01-0.16,0.06-0.23c0.05-0.07,0.13-0.11,0.21-0.14C17.15,68.19,17.16,68.11,17.1,68.09L17.1,68.09z"/>
		</g>
	</g>
	<g>
		<g>
			<path class="st4" d="M17.65,66.66c-0.06,0.04-0.12,0.08-0.16,0.15c-0.04,0.07-0.06,0.15-0.06,0.22c0.01,0.17,0.11,0.32,0.27,0.38
				c0.15,0.06,0.32,0.02,0.45-0.07c0.14-0.11,0.2-0.29,0.15-0.46c-0.03-0.09-0.08-0.18-0.16-0.24c-0.04-0.04-0.09-0.06-0.14-0.08
				c-0.05-0.02-0.12-0.03-0.17-0.01c-0.05,0.02-0.09,0.06-0.09,0.12c0,0.06,0.04,0.1,0.09,0.12c-0.04-0.02,0.01,0,0.02,0.01
				c0.01,0,0.04,0.01,0.05,0.01c-0.04,0-0.02,0-0.01,0c0.01,0,0.01,0,0.02,0c0.01,0,0.01,0,0.02,0.01c0.03,0.01-0.03-0.01,0,0
				c0.01,0.01,0.03,0.02,0.04,0.02c0.01,0.01,0.01,0.02,0,0c0,0.01,0.01,0.01,0.02,0.01c0.01,0.01,0.02,0.02,0.03,0.03
				c0,0,0.01,0.01,0.01,0.01c-0.02-0.02-0.01-0.01,0,0c0.01,0.01,0.02,0.03,0.02,0.04c0.01,0.01,0,0.02,0-0.01
				c0,0.01,0.01,0.02,0.01,0.02c0,0.01,0.01,0.03,0.01,0.04c0,0.01,0,0.01,0-0.01c0,0.01,0,0.02,0,0.02c0,0.01,0,0.02,0,0.02
				c0,0.01,0,0.01,0,0.02c0-0.02,0-0.02,0-0.01c0,0.01-0.01,0.03-0.01,0.04c0,0.01-0.01,0.02,0,0c0,0.01-0.01,0.01-0.01,0.02
				c-0.01,0.01-0.01,0.02-0.02,0.03c-0.01,0.02,0.02-0.02,0,0c-0.01,0.01-0.01,0.01-0.02,0.02c-0.01,0.01-0.02,0.01-0.03,0.02
				c0.02-0.02,0.01-0.01,0,0c-0.01,0-0.01,0.01-0.02,0.01c-0.01,0.01-0.02,0.01-0.03,0.02c-0.02,0.01,0.03-0.01,0,0
				c-0.01,0-0.02,0.01-0.03,0.01c-0.01,0-0.02,0.01-0.03,0.01c-0.01,0-0.01,0-0.02,0c0.03-0.01,0.02,0,0,0c-0.01,0-0.02,0-0.03,0
				c-0.01,0-0.01,0-0.02,0c-0.03,0,0.02,0,0,0c-0.01,0-0.02,0-0.03-0.01c-0.01,0-0.01,0-0.02-0.01c-0.02-0.01,0.02,0.01,0,0
				c-0.01-0.01-0.02-0.01-0.03-0.02c-0.02-0.01,0-0.01,0,0c0,0-0.02-0.02-0.02-0.02c0,0-0.01-0.01-0.01-0.02
				c-0.01-0.01,0.01,0,0,0.01c0-0.01-0.02-0.03-0.02-0.04c0-0.01-0.01-0.01-0.01-0.02c-0.01-0.02,0,0.01,0,0.01
				c0,0-0.01-0.04-0.01-0.05c0-0.01,0-0.01,0-0.02c0-0.02,0,0.03,0,0c0-0.02,0-0.03,0-0.05c0-0.01,0-0.03,0-0.04c0,0,0,0,0-0.01
				c0-0.01,0-0.01,0,0.01c0-0.01,0-0.02,0.01-0.03c0-0.01,0.01-0.03,0.01-0.04c0.01-0.02-0.01,0.02,0,0
				c0.01-0.01,0.01-0.03,0.02-0.04c0,0-0.01,0.01,0,0c0-0.01,0.01-0.02,0.01-0.02c0,0,0.02-0.02,0.02-0.02
				c0.03-0.02,0.04-0.06,0.02-0.09C17.72,66.65,17.68,66.64,17.65,66.66L17.65,66.66z"/>
		</g>
	</g>
	<g>
		<g>
			<path class="st4" d="M19.01,67.39c-0.09,0.02-0.18,0.04-0.26,0.09c-0.09,0.05-0.17,0.12-0.23,0.21
				c-0.11,0.15-0.18,0.34-0.18,0.54c0,0.42,0.28,0.81,0.66,0.98c0.39,0.17,0.86,0.1,1.2-0.15c0.35-0.26,0.51-0.71,0.31-1.11
				c-0.21-0.42-0.75-0.71-1.21-0.67c-0.16,0.02-0.17,0.26,0,0.26c0.33,0.01,0.65,0.12,0.85,0.39c0.2,0.26,0.19,0.57-0.03,0.81
				c-0.45,0.49-1.36,0.31-1.5-0.37c-0.03-0.16-0.01-0.34,0.07-0.48c0.07-0.13,0.21-0.3,0.35-0.36
				C19.13,67.49,19.1,67.37,19.01,67.39L19.01,67.39z"/>
		</g>
	</g>
	<g>
		<g>
			<path class="st4" d="M25.41,65.05c-0.05,0.04-0.1,0.07-0.15,0.12c-0.05,0.06-0.09,0.12-0.12,0.19c-0.05,0.13-0.05,0.28-0.02,0.41
				c0.06,0.28,0.31,0.5,0.59,0.55c0.3,0.05,0.59-0.06,0.76-0.32c0.16-0.24,0.18-0.57,0.03-0.81c-0.08-0.13-0.21-0.24-0.35-0.3
				c-0.17-0.07-0.33-0.09-0.5-0.01c-0.11,0.05-0.05,0.22,0.06,0.22c0.12,0,0.19,0,0.29,0.04c0.03,0.01,0.07,0.03,0.11,0.06
				c0.03,0.02,0.07,0.06,0.11,0.1c0.11,0.13,0.13,0.34,0.05,0.5c-0.09,0.18-0.25,0.28-0.44,0.27c-0.09,0-0.18-0.03-0.26-0.08
				c-0.08-0.05-0.14-0.12-0.18-0.21c-0.04-0.09-0.04-0.21-0.03-0.31c0.02-0.11,0.06-0.24,0.14-0.31
				C25.55,65.11,25.47,65,25.41,65.05L25.41,65.05z"/>
		</g>
	</g>
	<g>
		<g>
			<path class="st4" d="M24.51,64.13c-0.04,0.01-0.08,0.02-0.12,0.04c-0.04,0.02-0.07,0.05-0.1,0.08c-0.06,0.07-0.1,0.16-0.11,0.25
				c-0.02,0.18,0.08,0.36,0.24,0.45c0.08,0.05,0.18,0.07,0.27,0.07c0.11,0,0.2-0.04,0.28-0.11c0.15-0.12,0.23-0.33,0.18-0.51
				c-0.03-0.1-0.09-0.2-0.17-0.26c-0.09-0.08-0.23-0.14-0.36-0.11c-0.06,0.02-0.11,0.07-0.1,0.14c0,0.06,0.04,0.11,0.1,0.14
				c0.01,0,0.02,0.01,0.04,0.01c0.01,0,0.01,0,0.02,0c0.02,0,0.01,0-0.01,0c0,0,0.03,0.01,0.04,0.01c0.01,0,0.02,0.01,0.02,0.01
				c0.02,0.01-0.03-0.02,0,0c0.01,0.01,0.03,0.02,0.04,0.03c0,0,0.03,0.02,0.01,0.01c-0.02-0.01,0.01,0.01,0.01,0.01
				c0.01,0.01,0.02,0.02,0.03,0.03c0,0,0.02,0.03,0.01,0.01c-0.01-0.02,0.01,0.01,0.01,0.01c0.01,0.01,0.02,0.03,0.02,0.04
				c0.01,0.03,0-0.01,0-0.01c0,0,0.01,0.02,0.01,0.02c0,0.01,0,0.03,0.01,0.04c-0.01-0.01,0-0.03,0-0.01c0,0.01,0,0.02,0,0.03
				c0,0.01,0,0.02,0,0.03c0,0.03,0.01-0.03,0,0c0,0.01-0.01,0.03-0.01,0.04c0,0.01-0.01,0.03,0,0c0,0.01-0.01,0.01-0.01,0.02
				c-0.01,0.01-0.01,0.03-0.02,0.04c0,0.01-0.02,0.03,0,0c-0.01,0.01-0.01,0.02-0.02,0.02c-0.01,0.01-0.02,0.02-0.03,0.03
				c-0.02,0.02,0.02-0.01,0,0c-0.01,0-0.01,0.01-0.02,0.01c-0.01,0.01-0.02,0.01-0.04,0.02c0.03-0.01,0.01,0,0,0
				c-0.01,0-0.02,0.01-0.03,0.01c-0.01,0-0.03,0.01-0.04,0.01c0.03-0.01-0.02,0-0.03,0c-0.01,0-0.02,0,0,0c-0.01,0-0.01,0-0.02,0
				c-0.02,0-0.03-0.01-0.05-0.02c-0.02-0.01,0.02,0.01,0,0c-0.01,0-0.01-0.01-0.02-0.01c-0.01-0.01-0.03-0.01-0.04-0.02
				c-0.01,0-0.02-0.02,0,0c-0.01,0-0.01-0.01-0.02-0.01c-0.01-0.01-0.02-0.02-0.03-0.04c0.02,0.02,0,0,0,0
				c0-0.01-0.01-0.01-0.01-0.02c0-0.01-0.01-0.01-0.01-0.02c-0.02-0.03,0,0.01,0,0c0-0.01-0.01-0.03-0.01-0.04c0-0.01,0-0.01,0-0.02
				c0,0.03,0,0,0-0.01c0-0.02,0-0.04,0-0.05c0-0.01,0-0.03,0,0c0-0.01,0-0.02,0.01-0.03c0-0.02,0.01-0.03,0.01-0.05
				c0.01-0.02,0-0.01,0,0c0-0.01,0.01-0.02,0.01-0.03c0.02-0.04,0.03-0.06,0.06-0.09c-0.01,0.01,0,0,0,0
				c0.01-0.01,0.01-0.01,0.02-0.02c-0.01,0.01,0.03-0.03,0.01-0.02c-0.01,0.01,0.02-0.01,0.02-0.01
				C24.63,64.21,24.58,64.1,24.51,64.13L24.51,64.13z"/>
		</g>
	</g>
	<g>
		<g>
			<path class="st4" d="M23.72,65.67c-0.14,0.01-0.25,0.04-0.36,0.13c-0.1,0.08-0.17,0.2-0.2,0.33c-0.05,0.29,0.08,0.58,0.33,0.74
				c0.25,0.16,0.58,0.15,0.84,0.02c0.26-0.14,0.42-0.42,0.35-0.72c-0.07-0.33-0.41-0.6-0.74-0.64c-0.14-0.02-0.18,0.19-0.07,0.25
				c0.1,0.05,0.21,0.09,0.3,0.15c0.08,0.05,0.15,0.12,0.2,0.21c0.09,0.17,0.04,0.36-0.12,0.47c-0.31,0.23-0.84,0.08-0.86-0.34
				c-0.01-0.1,0.03-0.2,0.08-0.28c0.06-0.08,0.15-0.16,0.25-0.17C23.82,65.81,23.8,65.67,23.72,65.67L23.72,65.67z"/>
		</g>
	</g>
	<g>
		<g>
			<path class="st4" d="M26.28,68.37c-0.18,0.03-0.3,0.2-0.29,0.38c0.01,0.2,0.16,0.37,0.35,0.42c0.19,0.05,0.4-0.03,0.52-0.18
				c0.14-0.16,0.18-0.39,0.08-0.58c-0.05-0.1-0.15-0.17-0.26-0.19c-0.11-0.03-0.29-0.01-0.34,0.11c-0.02,0.05-0.02,0.1,0.01,0.14
				c0.03,0.04,0.08,0.05,0.13,0.05c-0.05,0.01,0.02,0,0.03-0.01c0.01,0,0.02-0.01,0.03-0.02c0.02-0.01-0.01,0-0.01,0
				c0,0,0.02,0,0.02-0.01c0,0,0.01,0,0.01,0c0.01,0,0.01,0,0,0c0,0-0.01,0-0.01,0c0.01,0,0.01,0,0.02,0c0.01,0,0.01,0,0.02,0
				c0.03,0-0.03-0.01,0,0c0.01,0,0.03,0.01,0.04,0.01c0.02,0-0.03-0.02,0,0c0.01,0,0.01,0.01,0.02,0.01c0,0,0.02,0.01,0.02,0.01
				c0,0-0.02-0.02-0.01,0c0.01,0.01,0.01,0.01,0.02,0.02c0,0,0.01,0.01,0.01,0.01c-0.01-0.01-0.01-0.02-0.01-0.01
				c0,0,0.03,0.03,0.02,0.04c0,0-0.01-0.02,0,0c0,0.01,0.01,0.02,0.01,0.03c0,0.01,0.01,0.02,0.01,0.03c0,0,0-0.03,0,0
				c0,0.02,0,0.04,0,0.05c0,0,0,0.04,0,0.01c0-0.02,0,0.01,0,0.01c0,0.01-0.01,0.03-0.01,0.04c0,0-0.01,0.03,0,0.01
				c0.01-0.02-0.01,0.01-0.01,0.01c-0.01,0.02-0.02,0.03-0.03,0.05c0,0.01-0.01,0.01-0.01,0.02c0.02-0.02,0,0,0,0
				c-0.01,0.01-0.02,0.02-0.03,0.03c-0.01,0-0.01,0.01-0.02,0.01c0.02-0.02,0,0,0,0c-0.02,0.01-0.03,0.02-0.05,0.03
				c-0.01,0-0.01,0.01-0.02,0.01c0,0,0.02-0.01,0,0c-0.01,0.01-0.03,0.01-0.04,0.01c-0.01,0-0.02,0-0.03,0.01c0,0,0.03,0,0,0
				c-0.02,0-0.03,0-0.05,0c-0.03,0,0.02,0,0,0c-0.01,0-0.02,0-0.03-0.01c-0.01,0-0.03-0.01-0.04-0.01c-0.03-0.01,0.01,0.01,0,0
				c-0.01,0-0.02-0.01-0.02-0.01c-0.01,0-0.01-0.01-0.02-0.01c0,0-0.03-0.02-0.01,0c-0.01-0.01-0.02-0.02-0.03-0.03
				c-0.01-0.01-0.01-0.01-0.02-0.02c0,0-0.01-0.02,0,0c-0.01-0.01-0.02-0.03-0.02-0.04c0-0.01-0.01-0.03,0,0
				c0-0.01-0.01-0.02-0.01-0.03c0-0.01,0-0.01,0-0.02c-0.01-0.03,0,0.02,0-0.01c0-0.02,0-0.03,0-0.05c0,0.02,0,0.01,0,0
				c0-0.01,0-0.02,0.01-0.03c0-0.02,0.01-0.03,0.01-0.05c0.01-0.02-0.01,0.02,0-0.01c0-0.01,0.01-0.02,0.01-0.02
				c0.01-0.01,0.02-0.03,0.02-0.04c0.01-0.01,0.03-0.04,0.06-0.05c0.03-0.02,0.04-0.06,0.03-0.09
				C26.35,68.37,26.32,68.36,26.28,68.37L26.28,68.37z"/>
		</g>
	</g>
	<g>
		<g>
			<path class="st4" d="M28.14,68.9C28.17,68.9,28.07,68.89,28.14,68.9c0.01,0.01,0.02,0.01,0.03,0.01c0.01,0,0.01,0,0.02,0
				c0.02,0-0.02-0.01,0,0c0.01,0,0.03,0.01,0.04,0.01c-0.02,0-0.01,0,0,0c0.02,0,0.03,0.01,0.05,0.01c0.02,0.01,0,0,0,0
				c0,0,0.02,0.01,0.02,0.01c0.01,0.01,0.02,0.01,0.03,0.02c0.01,0,0.01,0.01,0.02,0.01c0.02,0.01-0.02-0.02,0,0
				c0.01,0.01,0.02,0.02,0.03,0.03c0.02,0.02-0.01-0.02,0,0c0,0,0.01,0.01,0.01,0.01c0,0.01,0.01,0.01,0.01,0.02c0,0,0,0,0,0.01
				c0.01,0.01,0,0.01,0-0.01c0,0,0.01,0.03,0.01,0.04c0,0,0,0,0,0.01c0,0.01,0,0.01,0-0.01c0,0,0,0.02,0,0.02
				c0,0.01-0.01,0.04,0,0.05c0,0,0.01-0.03,0-0.01c0,0.01,0,0.01,0,0.02c0,0-0.01,0.04-0.01,0.04c0,0,0-0.01,0.01-0.01
				c0,0,0,0.01-0.01,0.01c0,0.01-0.01,0.02-0.01,0.02c0,0.01-0.01,0.01-0.01,0.02c0,0,0,0,0,0.01c-0.01,0.01-0.01,0.01,0.01-0.01
				c0,0-0.02,0.03-0.03,0.03c0,0-0.02,0.01-0.02,0.02c0-0.01,0.02-0.01,0,0c-0.01,0.01-0.03,0.01-0.04,0.02
				c0.01-0.01,0.02-0.01,0.01,0c-0.01,0-0.01,0-0.02,0.01c-0.01,0-0.02,0-0.02,0c0.02-0.01,0.03,0,0.01,0c-0.01,0-0.03,0-0.04,0
				c0,0-0.03,0-0.01,0c0.03,0-0.01,0-0.01,0c-0.01,0-0.02-0.01-0.04-0.01c0,0,0,0-0.01,0c-0.01-0.01-0.01,0,0.01,0
				c-0.01,0-0.01-0.01-0.02-0.01c-0.01-0.01-0.02-0.01-0.03-0.02c-0.02-0.01,0.02,0.02,0,0c-0.01-0.01-0.01-0.01-0.02-0.02
				c-0.01-0.01-0.01-0.01-0.02-0.02c0,0,0,0,0-0.01c-0.01-0.01-0.01-0.01,0.01,0.01c0-0.01-0.01-0.02-0.02-0.03
				c-0.01-0.01-0.01-0.03,0,0.01c0,0,0-0.01-0.01-0.01c0-0.01,0-0.01-0.01-0.02c0,0,0-0.01,0-0.01c0-0.01,0-0.01,0,0.01
				c0-0.01,0-0.03,0-0.05c0-0.01,0-0.01,0-0.02c0-0.01,0-0.01,0,0.02c0-0.01,0-0.01,0-0.02c0-0.02,0.01-0.03,0.01-0.04
				c0.01-0.03-0.02,0.03,0,0.01c0-0.01,0.01-0.02,0.01-0.02c0-0.01,0.01-0.01,0.01-0.02c0.01-0.01,0.03-0.04,0,0
				c0.01-0.01,0.02-0.02,0.03-0.03c0.01-0.01,0.01-0.01,0.02-0.02c0.02-0.02-0.03,0.02,0,0c0.01-0.01,0.03-0.02,0.04-0.03
				c0.02-0.02-0.03,0.02,0,0c0.06-0.04,0.08-0.1,0.06-0.17c-0.03-0.06-0.09-0.09-0.16-0.08c-0.1,0.02-0.18,0.09-0.23,0.17
				c-0.05,0.07-0.07,0.17-0.07,0.25c0,0.19,0.14,0.35,0.32,0.41c0.08,0.03,0.18,0.03,0.26,0c0.09-0.03,0.16-0.09,0.22-0.16
				c0.1-0.13,0.11-0.34,0.02-0.48c-0.06-0.08-0.14-0.14-0.23-0.17c-0.05-0.01-0.1-0.02-0.16-0.01c-0.02,0-0.04,0.01-0.05,0.01
				c-0.02,0.01-0.03,0.01-0.04,0.02c0.01,0-0.02,0.02-0.01,0.01c0.01,0-0.01,0.01-0.01,0.01c-0.03,0.02-0.04,0.06-0.03,0.09
				C28.07,68.89,28.1,68.91,28.14,68.9L28.14,68.9z"/>
		</g>
	</g>
	<g>
		<g>
			<path class="st4" d="M33.38,73.53c-0.09,0.07-0.2,0.11-0.3,0.17c-0.09,0.05-0.17,0.11-0.25,0.16c-0.17,0.11-0.34,0.22-0.51,0.32
				c-0.37,0.21-0.75,0.39-1.15,0.55c-0.39,0.15-0.78,0.27-1.19,0.36c-0.2,0.05-0.41,0.09-0.61,0.12c-0.21,0.03-0.43,0.04-0.64,0.09
				c-0.13,0.03-0.09,0.21,0.03,0.23c0.21,0.02,0.43-0.02,0.63-0.05c0.21-0.03,0.42-0.07,0.63-0.12c0.43-0.1,0.84-0.22,1.25-0.39
				c0.4-0.16,0.78-0.35,1.15-0.56c0.18-0.11,0.37-0.22,0.54-0.35c0.08-0.06,0.17-0.12,0.24-0.19c0.09-0.08,0.15-0.17,0.24-0.24
				C33.49,73.58,33.43,73.49,33.38,73.53L33.38,73.53z"/>
		</g>
	</g>
</g>
<g>
	<g>
		<g>
			<path class="st1" d="M9.33,42.65c0.54-0.36,1.13-0.57,1.77-0.39c0.67,0.19,1.19,0.73,1.84,0.95c0.5,0.17,1.06,0.14,1.54,0.37
				c0.74,0.35,1.1,1.28,0.91,2.08c-0.19,0.79-0.84,1.43-1.6,1.73c-0.51,0.2-1.07,0.27-1.53,0.56c-0.49,0.31-0.81,0.83-1.29,1.16
				c-0.51,0.35-1.2,0.45-1.79,0.25c-0.59-0.2-1.07-0.69-1.27-1.28c-0.2-0.62-0.09-1.3,0.09-1.93c0.18-0.63,0.43-1.24,0.52-1.89
				c0.04-0.32,0.04-0.66,0.14-0.97C8.76,42.98,9.05,42.8,9.33,42.65z"/>
		</g>
		<g>
			<path class="st1" d="M13.59,38.61c0.33,0.13,0.6,0.39,0.79,0.7c0.19,0.3,0.3,0.65,0.38,1c0.11,0.5,0.17,1.02,0.01,1.51
				c-0.16,0.48-0.58,0.91-1.09,0.95c-0.51,0.04-0.99-0.31-1.23-0.77c-0.24-0.45-0.27-0.99-0.24-1.5c0.02-0.39,0.08-0.8,0.27-1.15
				C12.66,39,12.87,38.58,13.59,38.61"/>
		</g>
		<g>
			<path class="st1" d="M7.99,37.63c0.44-0.52,1.19-0.48,1.66-0.25c0.48,0.23,0.83,0.65,1.11,1.11c0.21,0.34,0.39,0.71,0.48,1.1
				c0.09,0.39,0.09,0.81-0.03,1.19c-0.08,0.25-0.23,0.5-0.45,0.63c-0.36,0.22-0.83,0.13-1.22-0.04c-0.76-0.34-1.38-0.97-1.7-1.73
				c-0.14-0.33-0.22-0.68-0.21-1.03C7.65,38.26,7.77,37.91,7.99,37.63z"/>
		</g>
		<g>
			<path class="st1" d="M3.65,44.4c-0.05,0.35,0.05,0.72,0.22,1.03c0.17,0.31,0.42,0.58,0.68,0.82C4.92,46.6,5.36,46.9,5.85,47
				c0.5,0.1,1.07-0.06,1.36-0.48c0.29-0.42,0.22-1.02-0.06-1.45c-0.28-0.43-0.73-0.72-1.19-0.95c-0.35-0.17-0.73-0.32-1.13-0.33
				C4.45,43.78,3.98,43.76,3.65,44.4"/>
		</g>
		<g>
			<path class="st1" d="M5.56,39.05c-0.67,0.13-1,0.8-1.03,1.32c-0.03,0.53,0.16,1.05,0.41,1.51c0.19,0.35,0.43,0.69,0.72,0.96
				c0.3,0.27,0.66,0.48,1.05,0.56c0.26,0.05,0.54,0.05,0.78-0.08c0.37-0.2,0.53-0.66,0.57-1.08c0.08-0.82-0.16-1.67-0.67-2.33
				c-0.22-0.28-0.48-0.53-0.8-0.69C6.27,39.06,5.91,38.99,5.56,39.05z"/>
		</g>
		<g>
			<g>
				<path class="st4" d="M9.26,42.59c0.6-0.5,1.38-0.68,2.12-0.38c0.37,0.15,0.69,0.38,1.04,0.58c0.35,0.21,0.7,0.32,1.11,0.39
					c0.38,0.06,0.77,0.11,1.12,0.3c0.31,0.17,0.57,0.45,0.73,0.76c0.34,0.66,0.31,1.45-0.07,2.09c-0.41,0.7-1.11,1.11-1.87,1.34
					c-0.45,0.13-0.91,0.24-1.28,0.54c-0.34,0.28-0.58,0.66-0.93,0.94c-0.62,0.5-1.48,0.65-2.23,0.34c-0.75-0.31-1.27-1.02-1.36-1.83
					C7.54,46.82,7.87,46,8.12,45.21c0.13-0.42,0.23-0.83,0.27-1.27c0.04-0.4,0.09-0.81,0.4-1.09c0.14-0.13,0.31-0.22,0.49-0.31
					c0.14-0.07,0.27,0.14,0.13,0.22c-0.16,0.09-0.31,0.18-0.44,0.32c-0.13,0.14-0.17,0.31-0.21,0.49c-0.07,0.38-0.07,0.77-0.15,1.15
					c-0.16,0.76-0.51,1.48-0.6,2.25c-0.08,0.74,0.11,1.48,0.73,1.95c0.57,0.43,1.36,0.48,1.99,0.14c0.35-0.19,0.61-0.49,0.9-0.76
					c0.29-0.28,0.6-0.51,0.98-0.67c0.39-0.16,0.81-0.23,1.2-0.4c0.32-0.14,0.62-0.34,0.86-0.59c0.48-0.49,0.73-1.18,0.56-1.86
					c-0.08-0.31-0.23-0.6-0.47-0.82c-0.25-0.24-0.57-0.34-0.91-0.4c-0.35-0.07-0.71-0.1-1.04-0.23c-0.34-0.13-0.64-0.34-0.94-0.53
					c-0.3-0.2-0.62-0.38-0.98-0.45c-0.34-0.06-0.69,0.01-1.01,0.14c-0.17,0.07-0.33,0.15-0.49,0.23
					C9.29,42.78,9.17,42.66,9.26,42.59z"/>
			</g>
		</g>
		<g>
			<g>
				<path class="st4" d="M13.61,38.53c0.4,0.07,0.72,0.41,0.92,0.75c0.23,0.38,0.35,0.83,0.42,1.27c0.13,0.76,0.04,1.62-0.62,2.12
					c-0.61,0.46-1.41,0.25-1.86-0.33c-0.51-0.65-0.51-1.61-0.37-2.39c0.07-0.38,0.22-0.76,0.46-1.07c0.25-0.32,0.66-0.46,1.06-0.39
					c0.15,0.03,0.09,0.22-0.03,0.24c-0.31,0.04-0.57,0.1-0.77,0.36c-0.16,0.22-0.28,0.49-0.35,0.75c-0.08,0.33-0.11,0.68-0.1,1.03
					c0.01,0.35,0.06,0.72,0.22,1.04c0.26,0.5,0.86,0.89,1.42,0.6c0.63-0.33,0.76-1.08,0.68-1.72c-0.05-0.41-0.15-0.85-0.34-1.22
					c-0.19-0.38-0.46-0.64-0.8-0.88C13.47,38.63,13.52,38.52,13.61,38.53L13.61,38.53z"/>
			</g>
		</g>
		<g>
			<g>
				<path class="st4" d="M7.92,37.59c0.22-0.37,0.67-0.52,1.08-0.51c0.42,0.01,0.8,0.17,1.13,0.43c0.37,0.29,0.65,0.68,0.88,1.08
					c0.24,0.41,0.41,0.87,0.45,1.34c0.04,0.42-0.03,0.88-0.25,1.25c-0.24,0.38-0.64,0.56-1.08,0.51c-0.86-0.09-1.64-0.73-2.11-1.42
					c-0.53-0.79-0.77-1.94-0.11-2.73c0.11-0.13,0.28,0.05,0.18,0.18c-0.49,0.63-0.33,1.48,0.03,2.13c0.35,0.65,0.96,1.22,1.67,1.46
					c0.32,0.11,0.71,0.16,0.99-0.07c0.29-0.24,0.39-0.66,0.4-1.02c0.02-0.79-0.4-1.6-0.92-2.18c-0.27-0.3-0.62-0.56-1.02-0.64
					c-0.43-0.09-0.82,0.04-1.17,0.3C7.98,37.75,7.86,37.68,7.92,37.59z"/>
			</g>
		</g>
		<g>
			<g>
				<path class="st4" d="M3.73,44.4c0.04,0.38,0.11,0.72,0.31,1.04c0.2,0.33,0.48,0.6,0.77,0.85c0.49,0.41,1.15,0.75,1.8,0.51
					c0.28-0.1,0.51-0.32,0.59-0.61c0.07-0.27,0.03-0.57-0.08-0.82c-0.28-0.63-1.01-1.03-1.64-1.26c-0.31-0.11-0.64-0.16-0.97-0.14
					c-0.35,0.02-0.55,0.22-0.76,0.5c-0.07,0.1-0.27,0.05-0.22-0.09c0.12-0.34,0.4-0.62,0.75-0.71c0.31-0.07,0.66-0.05,0.97,0.02
					c0.4,0.09,0.78,0.27,1.13,0.48c0.37,0.22,0.71,0.5,0.94,0.87c0.37,0.61,0.33,1.45-0.27,1.89c-0.66,0.48-1.53,0.25-2.15-0.18
					c-0.4-0.28-0.77-0.63-1.04-1.03c-0.25-0.37-0.45-0.88-0.29-1.32C3.6,44.29,3.72,44.31,3.73,44.4L3.73,44.4z"/>
			</g>
		</g>
		<g>
			<g>
				<path class="st4" d="M5.58,39.13c-1.69,0.7-0.69,3.03,0.42,3.8c0.3,0.21,0.65,0.36,1.02,0.36c0.39,0,0.67-0.25,0.79-0.61
					c0.24-0.69,0.09-1.54-0.23-2.18c-0.37-0.73-1.09-1.46-1.98-1.33c-0.16,0.02-0.23-0.22-0.07-0.25c0.89-0.16,1.69,0.43,2.15,1.15
					c0.46,0.73,0.68,1.69,0.46,2.54c-0.1,0.4-0.34,0.77-0.74,0.91c-0.42,0.15-0.89,0.03-1.27-0.17c-0.41-0.21-0.75-0.54-1.01-0.91
					c-0.28-0.38-0.51-0.82-0.64-1.28c-0.13-0.46-0.14-0.93,0.04-1.37c0.18-0.43,0.55-0.83,1.04-0.83
					C5.67,38.96,5.66,39.1,5.58,39.13z"/>
			</g>
		</g>
	</g>
	<g>
		<g>
			<path class="st1" d="M13.64,30.4c0.46,0.22,0.85,0.54,0.98,1.05c0.14,0.53-0.02,1.1,0.1,1.64c0.09,0.41,0.33,0.78,0.37,1.2
				c0.06,0.64-0.43,1.26-1.05,1.46c-0.62,0.19-1.31,0.01-1.82-0.39c-0.34-0.26-0.62-0.62-1-0.82c-0.41-0.21-0.89-0.22-1.31-0.41
				c-0.45-0.21-0.79-0.63-0.89-1.12c-0.1-0.48,0.03-1.01,0.36-1.38c0.34-0.39,0.85-0.59,1.35-0.72c0.5-0.13,1.02-0.21,1.5-0.41
				c0.24-0.1,0.46-0.24,0.72-0.29C13.19,30.15,13.43,30.27,13.64,30.4z"/>
		</g>
		<g>
			<path class="st1" d="M18.11,31.67c0.04,0.28-0.02,0.57-0.16,0.82c-0.13,0.25-0.32,0.47-0.53,0.66c-0.29,0.28-0.63,0.53-1.02,0.61
				c-0.39,0.09-0.85-0.03-1.08-0.36c-0.23-0.33-0.19-0.8,0.03-1.15c0.21-0.34,0.56-0.58,0.92-0.77c0.28-0.14,0.58-0.26,0.89-0.28
				C17.47,31.19,17.84,31.16,18.11,31.67"/>
		</g>
		<g>
			<path class="st1" d="M16.52,27.46c0.53,0.09,0.81,0.61,0.84,1.03c0.03,0.42-0.11,0.83-0.3,1.21c-0.15,0.28-0.33,0.55-0.56,0.77
				c-0.23,0.22-0.51,0.39-0.82,0.46c-0.21,0.05-0.43,0.04-0.62-0.05c-0.3-0.16-0.43-0.51-0.47-0.85c-0.08-0.65,0.1-1.33,0.49-1.85
				c0.17-0.23,0.37-0.43,0.62-0.56C15.95,27.48,16.24,27.41,16.52,27.46z"/>
		</g>
		<g>
			<path class="st1" d="M10.15,27.24c-0.26,0.11-0.47,0.32-0.61,0.57c-0.14,0.24-0.23,0.52-0.28,0.8c-0.08,0.39-0.12,0.81,0.02,1.19
				c0.14,0.38,0.47,0.71,0.87,0.73c0.4,0.02,0.78-0.26,0.96-0.63c0.18-0.36,0.2-0.79,0.17-1.19c-0.02-0.31-0.08-0.63-0.23-0.9
				C10.9,27.53,10.72,27.2,10.15,27.24"/>
		</g>
		<g>
			<path class="st1" d="M14.57,26.38c-0.36-0.4-0.95-0.36-1.32-0.17c-0.37,0.19-0.65,0.53-0.86,0.89c-0.16,0.27-0.3,0.57-0.36,0.88
				c-0.07,0.31-0.06,0.64,0.04,0.94c0.07,0.2,0.19,0.39,0.37,0.5c0.29,0.17,0.66,0.09,0.96-0.05c0.59-0.28,1.07-0.79,1.32-1.4
				c0.1-0.26,0.17-0.54,0.15-0.82C14.85,26.87,14.75,26.59,14.57,26.38z"/>
		</g>
		<g>
			<g>
				<path class="st4" d="M13.66,30.33c0.58,0.2,1.02,0.67,1.12,1.29c0.05,0.31,0.02,0.63,0.03,0.94c0,0.32,0.06,0.61,0.18,0.91
					c0.11,0.29,0.24,0.57,0.25,0.88c0.01,0.28-0.07,0.57-0.22,0.81c-0.31,0.5-0.86,0.79-1.45,0.79c-0.64,0-1.21-0.31-1.67-0.73
					c-0.27-0.25-0.53-0.52-0.89-0.65c-0.33-0.12-0.68-0.13-1.01-0.25c-0.6-0.22-1.04-0.75-1.14-1.38c-0.09-0.64,0.18-1.28,0.69-1.66
					c0.54-0.41,1.22-0.51,1.86-0.66c0.34-0.08,0.66-0.18,0.97-0.33c0.29-0.13,0.59-0.27,0.91-0.17c0.15,0.04,0.28,0.12,0.41,0.21
					c0.11,0.07,0.01,0.24-0.1,0.17c-0.12-0.07-0.25-0.14-0.39-0.17c-0.15-0.03-0.28,0.01-0.41,0.06c-0.29,0.11-0.55,0.27-0.84,0.36
					c-0.58,0.2-1.21,0.25-1.77,0.51c-0.54,0.24-0.97,0.68-1.04,1.28c-0.06,0.56,0.22,1.12,0.71,1.41c0.27,0.16,0.58,0.22,0.88,0.3
					c0.31,0.09,0.59,0.2,0.85,0.4c0.27,0.2,0.49,0.46,0.75,0.66c0.22,0.16,0.48,0.28,0.75,0.35c0.53,0.13,1.1,0.02,1.49-0.37
					c0.18-0.18,0.31-0.4,0.37-0.65c0.06-0.27,0-0.53-0.09-0.78c-0.1-0.27-0.22-0.52-0.26-0.81c-0.04-0.28-0.03-0.57-0.02-0.86
					c0.01-0.29,0.01-0.58-0.09-0.85c-0.1-0.26-0.29-0.47-0.5-0.63c-0.11-0.08-0.24-0.16-0.35-0.24
					C13.54,30.42,13.58,30.3,13.66,30.33z"/>
			</g>
		</g>
		<g>
			<g>
				<path class="st4" d="M18.18,31.65c0.11,0.3,0.01,0.66-0.14,0.93c-0.17,0.31-0.43,0.58-0.69,0.8c-0.47,0.4-1.08,0.68-1.69,0.43
					c-0.56-0.23-0.74-0.86-0.53-1.4c0.24-0.61,0.89-1,1.48-1.22c0.29-0.11,0.61-0.15,0.91-0.12c0.32,0.04,0.58,0.26,0.69,0.56
					c0.04,0.11-0.11,0.15-0.18,0.08c-0.15-0.2-0.3-0.35-0.56-0.38c-0.21-0.02-0.44,0.01-0.65,0.07c-0.26,0.08-0.51,0.2-0.74,0.35
					c-0.24,0.15-0.47,0.33-0.62,0.57c-0.24,0.38-0.25,0.95,0.17,1.21c0.48,0.29,1.04,0.08,1.45-0.23c0.26-0.2,0.51-0.45,0.69-0.73
					c0.18-0.28,0.25-0.57,0.27-0.9C18.05,31.59,18.15,31.57,18.18,31.65L18.18,31.65z"/>
			</g>
		</g>
		<g>
			<g>
				<path class="st4" d="M16.52,27.39c0.34,0,0.62,0.24,0.78,0.53c0.16,0.29,0.21,0.61,0.17,0.94c-0.05,0.37-0.2,0.72-0.38,1.04
					c-0.19,0.33-0.42,0.63-0.73,0.85c-0.27,0.2-0.61,0.34-0.95,0.33c-0.35-0.01-0.64-0.21-0.78-0.53c-0.29-0.62-0.17-1.41,0.12-2.01
					c0.32-0.68,1.01-1.31,1.81-1.18c0.13,0.02,0.08,0.21-0.05,0.2c-0.63-0.08-1.14,0.38-1.44,0.88c-0.3,0.5-0.44,1.14-0.32,1.72
					c0.06,0.26,0.18,0.54,0.45,0.64c0.28,0.1,0.61,0,0.86-0.14c0.55-0.31,0.93-0.92,1.11-1.51c0.1-0.31,0.13-0.64,0.02-0.96
					c-0.11-0.33-0.36-0.55-0.68-0.67C16.44,27.5,16.43,27.39,16.52,27.39z"/>
			</g>
		</g>
		<g>
			<g>
				<path class="st4" d="M10.19,27.3c-0.24,0.18-0.44,0.37-0.58,0.64C9.46,28.2,9.39,28.5,9.34,28.8c-0.08,0.5-0.04,1.09,0.38,1.43
					c0.18,0.15,0.42,0.22,0.65,0.15c0.21-0.06,0.4-0.21,0.53-0.39c0.31-0.45,0.29-1.11,0.19-1.62c-0.05-0.26-0.15-0.5-0.3-0.72
					c-0.16-0.23-0.38-0.29-0.64-0.32c-0.1-0.01-0.15-0.16-0.03-0.19c0.28-0.06,0.59,0.02,0.79,0.23c0.17,0.18,0.3,0.43,0.38,0.67
					c0.1,0.31,0.13,0.64,0.13,0.96c0,0.34-0.05,0.69-0.21,0.99c-0.26,0.5-0.85,0.81-1.4,0.58c-0.59-0.26-0.79-0.94-0.74-1.54
					c0.03-0.38,0.12-0.77,0.28-1.12c0.15-0.32,0.42-0.66,0.78-0.73C10.21,27.16,10.25,27.25,10.19,27.3L10.19,27.3z"/>
			</g>
		</g>
		<g>
			<g>
				<path class="st4" d="M14.52,26.42c-1.16-0.87-2.34,0.76-2.42,1.82c-0.02,0.28,0.02,0.59,0.17,0.84
					c0.16,0.27,0.44,0.35,0.74,0.29c0.57-0.12,1.08-0.56,1.39-1.04c0.35-0.55,0.55-1.33,0.1-1.88c-0.08-0.1,0.06-0.24,0.14-0.14
					c0.47,0.54,0.39,1.33,0.08,1.93c-0.31,0.61-0.88,1.15-1.54,1.34c-0.31,0.09-0.66,0.08-0.92-0.13c-0.27-0.22-0.38-0.6-0.4-0.93
					c-0.02-0.36,0.06-0.73,0.21-1.06c0.15-0.35,0.36-0.68,0.61-0.95c0.26-0.27,0.58-0.47,0.95-0.52c0.36-0.05,0.79,0.04,0.99,0.37
					C14.67,26.41,14.58,26.47,14.52,26.42z"/>
			</g>
		</g>
	</g>
</g>
<g>
	<g>
		<g>
			<path class="st1" d="M81.14,25.3c0.61-0.17,1.22-0.18,1.76,0.18c0.56,0.38,0.87,1.04,1.41,1.44c0.41,0.31,0.94,0.46,1.31,0.82
				c0.57,0.55,0.62,1.52,0.21,2.2c-0.42,0.68-1.21,1.06-2.01,1.11c-0.53,0.03-1.07-0.08-1.59,0.05c-0.55,0.14-1.01,0.52-1.55,0.68
				c-0.58,0.17-1.24,0.05-1.73-0.32c-0.48-0.36-0.78-0.96-0.78-1.57c0-0.64,0.31-1.23,0.67-1.76c0.36-0.53,0.78-1.02,1.05-1.59
				c0.14-0.29,0.24-0.59,0.43-0.85C80.51,25.43,80.83,25.35,81.14,25.3z"/>
		</g>
		<g>
			<path class="st1" d="M86.3,22.87c0.27,0.22,0.44,0.55,0.52,0.89c0.08,0.34,0.08,0.69,0.04,1.04c-0.05,0.49-0.16,1-0.45,1.39
				c-0.3,0.4-0.81,0.66-1.29,0.54c-0.48-0.12-0.82-0.59-0.9-1.09c-0.08-0.49,0.05-0.99,0.24-1.46c0.14-0.36,0.32-0.71,0.6-0.98
				C85.32,22.94,85.65,22.62,86.3,22.87"/>
		</g>
		<g>
			<path class="st1" d="M81.43,20.26c0.56-0.35,1.24-0.08,1.61,0.28c0.37,0.36,0.57,0.86,0.69,1.36c0.09,0.38,0.14,0.77,0.11,1.16
				c-0.04,0.39-0.16,0.78-0.39,1.09c-0.15,0.21-0.36,0.39-0.61,0.45c-0.4,0.09-0.81-0.13-1.11-0.41c-0.6-0.54-0.98-1.31-1.04-2.12
				c-0.03-0.34,0-0.7,0.12-1.02C80.92,20.73,81.14,20.44,81.43,20.26z"/>
		</g>
		<g>
			<path class="st1" d="M75.35,25.18c-0.15,0.31-0.18,0.68-0.11,1.02c0.06,0.34,0.21,0.66,0.38,0.97c0.24,0.43,0.55,0.85,0.98,1.09
				c0.43,0.24,1.01,0.28,1.4-0.02c0.4-0.3,0.51-0.87,0.39-1.36c-0.13-0.48-0.45-0.89-0.81-1.24c-0.27-0.27-0.58-0.52-0.94-0.65
				C76.28,24.86,75.85,24.69,75.35,25.18"/>
		</g>
		<g>
			<path class="st1" d="M78.75,20.82c-0.66-0.09-1.17,0.43-1.36,0.91c-0.19,0.48-0.17,1.02-0.08,1.52c0.07,0.38,0.18,0.76,0.37,1.11
				c0.19,0.34,0.46,0.65,0.8,0.84c0.22,0.13,0.49,0.21,0.74,0.16c0.4-0.08,0.69-0.45,0.85-0.82c0.33-0.74,0.36-1.6,0.1-2.36
				c-0.11-0.33-0.28-0.64-0.52-0.88C79.41,21.05,79.09,20.87,78.75,20.82z"/>
		</g>
		<g>
			<g>
				<path class="st4" d="M81.09,25.22c0.7-0.28,1.49-0.21,2.07,0.29c0.29,0.25,0.53,0.56,0.78,0.85c0.26,0.3,0.55,0.52,0.9,0.7
					c0.33,0.18,0.68,0.34,0.94,0.62c0.24,0.25,0.39,0.59,0.44,0.93c0.11,0.72-0.16,1.43-0.71,1.91c-0.6,0.52-1.37,0.69-2.14,0.67
					c-0.45-0.01-0.91-0.05-1.35,0.11c-0.4,0.15-0.74,0.43-1.14,0.58c-0.73,0.28-1.57,0.15-2.17-0.36c-0.6-0.52-0.86-1.33-0.7-2.1
					c0.17-0.81,0.72-1.46,1.19-2.12c0.25-0.35,0.46-0.7,0.64-1.09c0.16-0.35,0.33-0.72,0.7-0.89c0.17-0.08,0.36-0.11,0.54-0.14
					c0.15-0.02,0.21,0.21,0.05,0.24c-0.17,0.03-0.34,0.07-0.5,0.16c-0.16,0.09-0.25,0.23-0.34,0.39c-0.18,0.33-0.29,0.69-0.49,1.01
					c-0.38,0.65-0.92,1.21-1.24,1.9c-0.3,0.66-0.35,1.4,0.08,2.03c0.39,0.57,1.11,0.86,1.79,0.74c0.38-0.07,0.72-0.26,1.06-0.42
					c0.36-0.17,0.72-0.29,1.11-0.32c0.41-0.03,0.82,0.03,1.23,0c0.34-0.03,0.67-0.13,0.97-0.28c0.6-0.31,1.04-0.87,1.08-1.55
					c0.02-0.31-0.03-0.62-0.18-0.9c-0.16-0.3-0.43-0.49-0.71-0.65c-0.31-0.17-0.62-0.31-0.89-0.54c-0.27-0.23-0.49-0.51-0.71-0.78
					c-0.22-0.27-0.46-0.54-0.77-0.71c-0.3-0.16-0.64-0.2-0.98-0.18c-0.17,0.01-0.35,0.04-0.52,0.06
					C81.06,25.41,80.99,25.26,81.09,25.22z"/>
			</g>
		</g>
		<g>
			<g>
				<path class="st4" d="M86.35,22.8c0.35,0.19,0.54,0.6,0.62,0.97c0.09,0.42,0.07,0.88,0,1.3c-0.11,0.75-0.46,1.51-1.22,1.76
					c-0.7,0.24-1.38-0.2-1.62-0.87c-0.28-0.76,0.02-1.64,0.39-2.32c0.18-0.33,0.44-0.63,0.75-0.84c0.33-0.22,0.75-0.22,1.1-0.04
					c0.13,0.07,0.02,0.23-0.1,0.21c-0.3-0.06-0.56-0.08-0.82,0.1c-0.22,0.15-0.41,0.36-0.55,0.58c-0.18,0.28-0.31,0.6-0.41,0.92
					c-0.1,0.33-0.17,0.68-0.11,1.03c0.09,0.55,0.53,1.08,1.13,0.98c0.68-0.11,1.03-0.77,1.15-1.38c0.08-0.4,0.12-0.83,0.06-1.23
					c-0.06-0.41-0.23-0.73-0.47-1.06C86.19,22.85,86.27,22.76,86.35,22.8L86.35,22.8z"/>
			</g>
		</g>
		<g>
			<g>
				<path class="st4" d="M81.37,20.2c0.31-0.27,0.77-0.28,1.15-0.14c0.38,0.14,0.69,0.4,0.91,0.74c0.25,0.38,0.4,0.83,0.48,1.27
					c0.09,0.45,0.11,0.93,0.01,1.38c-0.09,0.4-0.29,0.81-0.62,1.07c-0.33,0.27-0.76,0.32-1.15,0.14c-0.77-0.34-1.3-1.18-1.52-1.96
					c-0.25-0.89-0.12-2.03,0.73-2.55c0.14-0.09,0.25,0.13,0.11,0.22c-0.65,0.43-0.75,1.27-0.62,1.98c0.13,0.71,0.51,1.42,1.09,1.85
					c0.26,0.2,0.61,0.36,0.93,0.23c0.34-0.13,0.56-0.49,0.68-0.82c0.26-0.73,0.12-1.6-0.18-2.3c-0.16-0.36-0.4-0.7-0.75-0.9
					c-0.37-0.22-0.77-0.22-1.17-0.08C81.39,20.36,81.3,20.26,81.37,20.2z"/>
			</g>
		</g>
		<g>
			<g>
				<path class="st4" d="M75.43,25.21c-0.08,0.36-0.12,0.7-0.03,1.06c0.09,0.36,0.26,0.7,0.45,1.02c0.33,0.53,0.83,1.04,1.51,1.02
					c0.29-0.01,0.57-0.14,0.73-0.39c0.15-0.23,0.2-0.52,0.17-0.79c-0.07-0.67-0.62-1.26-1.13-1.66c-0.25-0.2-0.54-0.34-0.85-0.42
					c-0.33-0.09-0.58,0.04-0.85,0.23c-0.1,0.07-0.27-0.03-0.18-0.15c0.21-0.28,0.56-0.46,0.91-0.43c0.31,0.03,0.63,0.16,0.89,0.31
					c0.34,0.2,0.64,0.49,0.9,0.79c0.27,0.31,0.51,0.68,0.6,1.09c0.16,0.67-0.13,1.44-0.83,1.66c-0.76,0.24-1.49-0.24-1.93-0.83
					c-0.28-0.38-0.52-0.81-0.65-1.27c-0.12-0.41-0.14-0.95,0.13-1.31C75.34,25.07,75.45,25.12,75.43,25.21L75.43,25.21z"/>
			</g>
		</g>
		<g>
			<g>
				<path class="st4" d="M78.75,20.91c-1.78,0.13-1.56,2.59-0.77,3.64c0.21,0.28,0.49,0.53,0.83,0.64c0.36,0.12,0.69-0.03,0.92-0.32
					c0.43-0.57,0.55-1.39,0.45-2.08c-0.12-0.79-0.56-1.68-1.43-1.83c-0.15-0.03-0.15-0.27,0.02-0.25c0.87,0.12,1.43,0.92,1.64,1.72
					c0.2,0.81,0.11,1.77-0.35,2.48c-0.22,0.34-0.54,0.61-0.96,0.62c-0.43,0.01-0.83-0.25-1.13-0.54c-0.32-0.32-0.52-0.72-0.66-1.15
					c-0.14-0.44-0.22-0.92-0.2-1.38c0.02-0.46,0.16-0.9,0.46-1.26c0.29-0.34,0.76-0.59,1.22-0.45
					C78.87,20.77,78.83,20.9,78.75,20.91z"/>
			</g>
		</g>
	</g>
	<g>
		<g>
			<path class="st1" d="M82.47,39.35c0.36,0.35,0.62,0.76,0.59,1.27c-0.03,0.53-0.35,1.01-0.41,1.54c-0.04,0.41,0.07,0.82-0.02,1.22
				c-0.14,0.61-0.78,1.04-1.41,1.03c-0.63-0.01-1.22-0.4-1.57-0.92c-0.24-0.35-0.38-0.76-0.68-1.06c-0.31-0.32-0.76-0.47-1.09-0.78
				c-0.35-0.33-0.53-0.83-0.48-1.3c0.05-0.48,0.34-0.92,0.75-1.17c0.43-0.26,0.96-0.29,1.47-0.26c0.5,0.03,1.01,0.12,1.51,0.07
				c0.25-0.02,0.5-0.08,0.75-0.05S82.31,39.16,82.47,39.35z"/>
		</g>
		<g>
			<path class="st1" d="M86.21,41.88c-0.04,0.27-0.2,0.52-0.39,0.71c-0.2,0.19-0.44,0.33-0.69,0.45c-0.35,0.17-0.74,0.3-1.13,0.25
				c-0.39-0.04-0.78-0.28-0.89-0.66c-0.12-0.38,0.07-0.8,0.37-1.05c0.3-0.25,0.7-0.37,1.09-0.43c0.3-0.05,0.61-0.07,0.91,0.01
				C85.76,41.24,86.11,41.34,86.21,41.88"/>
		</g>
		<g>
			<path class="st1" d="M86.02,37.51c0.46,0.24,0.56,0.81,0.46,1.21c-0.1,0.4-0.35,0.74-0.65,1.02c-0.22,0.22-0.47,0.41-0.75,0.54
				c-0.28,0.13-0.59,0.21-0.9,0.17c-0.2-0.02-0.41-0.09-0.55-0.24c-0.23-0.23-0.24-0.6-0.17-0.92c0.13-0.62,0.5-1.2,1.02-1.56
				c0.22-0.16,0.47-0.28,0.74-0.33C85.49,37.35,85.78,37.38,86.02,37.51z"/>
		</g>
		<g>
			<path class="st1" d="M80.21,35.36c-0.27,0.02-0.53,0.15-0.74,0.34c-0.21,0.18-0.37,0.41-0.5,0.65c-0.2,0.34-0.36,0.72-0.35,1.11
				s0.22,0.8,0.58,0.94c0.37,0.15,0.8-0.01,1.08-0.29c0.28-0.28,0.42-0.67,0.52-1.05c0.07-0.3,0.12-0.6,0.06-0.9
				C80.8,35.86,80.74,35.5,80.21,35.36"/>
		</g>
		<g>
			<path class="st1" d="M84.55,35.91c-0.21-0.48-0.76-0.62-1.17-0.56c-0.4,0.06-0.76,0.29-1.07,0.56c-0.23,0.2-0.45,0.43-0.6,0.7
				c-0.16,0.27-0.25,0.57-0.25,0.88c0,0.2,0.06,0.42,0.19,0.57c0.21,0.25,0.58,0.29,0.91,0.25c0.63-0.08,1.23-0.4,1.64-0.89
				c0.18-0.21,0.32-0.45,0.39-0.71C84.66,36.45,84.66,36.16,84.55,35.91z"/>
		</g>
		<g>
			<g>
				<path class="st4" d="M82.5,39.28c0.48,0.37,0.74,0.93,0.64,1.53c-0.05,0.3-0.17,0.59-0.26,0.87c-0.1,0.3-0.13,0.58-0.11,0.9
					c0.01,0.3,0.04,0.6-0.04,0.89c-0.08,0.26-0.24,0.5-0.45,0.68c-0.44,0.37-1.04,0.47-1.58,0.29c-0.59-0.2-1.02-0.65-1.32-1.19
					c-0.17-0.31-0.33-0.64-0.62-0.87c-0.27-0.21-0.59-0.33-0.86-0.54c-0.48-0.39-0.74-1.01-0.63-1.62c0.11-0.62,0.56-1.13,1.15-1.33
					c0.62-0.21,1.29-0.1,1.92-0.05c0.34,0.03,0.66,0.03,1-0.01c0.3-0.04,0.62-0.07,0.89,0.12c0.12,0.09,0.22,0.2,0.31,0.31
					c0.08,0.1-0.06,0.23-0.14,0.13c-0.09-0.11-0.19-0.2-0.31-0.28c-0.13-0.07-0.26-0.08-0.4-0.07c-0.3,0.01-0.59,0.08-0.89,0.08
					c-0.6,0-1.2-0.14-1.79-0.07c-0.57,0.06-1.1,0.33-1.35,0.87c-0.23,0.5-0.14,1.11,0.22,1.52c0.2,0.23,0.47,0.38,0.72,0.55
					c0.26,0.18,0.49,0.37,0.67,0.63c0.18,0.27,0.31,0.57,0.5,0.84c0.16,0.22,0.36,0.41,0.59,0.55c0.45,0.28,1.01,0.36,1.49,0.11
					c0.22-0.11,0.41-0.28,0.54-0.49c0.14-0.23,0.16-0.49,0.15-0.75c-0.01-0.28-0.04-0.55,0-0.82c0.05-0.28,0.15-0.54,0.24-0.8
					c0.1-0.26,0.18-0.53,0.17-0.81c-0.01-0.27-0.12-0.52-0.27-0.74c-0.08-0.11-0.17-0.22-0.25-0.33
					C82.36,39.34,82.43,39.23,82.5,39.28z"/>
			</g>
		</g>
		<g>
			<g>
				<path class="st4" d="M86.28,41.88c0.01,0.31-0.19,0.61-0.41,0.82c-0.25,0.23-0.57,0.4-0.88,0.53c-0.55,0.22-1.21,0.3-1.69-0.12
					c-0.45-0.38-0.42-1.02-0.06-1.46c0.41-0.49,1.12-0.65,1.74-0.68c0.3-0.01,0.61,0.04,0.88,0.17c0.28,0.14,0.46,0.42,0.47,0.73
					c0,0.12-0.15,0.11-0.18,0.02c-0.08-0.23-0.17-0.41-0.4-0.52c-0.19-0.09-0.41-0.13-0.62-0.14c-0.26-0.01-0.53,0.03-0.79,0.09
					c-0.27,0.06-0.53,0.16-0.75,0.34c-0.34,0.28-0.52,0.8-0.21,1.17c0.35,0.42,0.94,0.39,1.41,0.22c0.3-0.11,0.61-0.26,0.86-0.46
					c0.25-0.21,0.4-0.45,0.53-0.75C86.18,41.79,86.27,41.81,86.28,41.88L86.28,41.88z"/>
			</g>
		</g>
		<g>
			<g>
				<path class="st4" d="M86.04,37.44c0.31,0.1,0.5,0.41,0.56,0.73c0.06,0.32,0,0.63-0.13,0.92c-0.15,0.32-0.4,0.6-0.67,0.84
					c-0.27,0.25-0.58,0.45-0.94,0.56c-0.31,0.1-0.67,0.13-0.98,0.02c-0.32-0.12-0.53-0.39-0.56-0.73c-0.07-0.66,0.28-1.36,0.72-1.82
					c0.51-0.53,1.33-0.9,2.03-0.54c0.11,0.06,0.01,0.22-0.1,0.17c-0.55-0.27-1.17,0-1.6,0.37c-0.43,0.37-0.76,0.92-0.82,1.49
					c-0.03,0.26,0,0.56,0.22,0.73c0.23,0.18,0.56,0.18,0.84,0.13c0.6-0.12,1.14-0.56,1.49-1.05c0.18-0.26,0.32-0.56,0.31-0.88
					c0-0.34-0.16-0.61-0.42-0.83C85.93,37.52,85.96,37.42,86.04,37.44z"/>
			</g>
		</g>
		<g>
			<g>
				<path class="st4" d="M80.22,35.42c-0.28,0.09-0.52,0.2-0.73,0.41c-0.21,0.2-0.37,0.46-0.51,0.72c-0.23,0.44-0.37,0.99-0.08,1.44
					c0.12,0.19,0.33,0.33,0.56,0.34c0.22,0.01,0.43-0.07,0.61-0.2c0.43-0.32,0.61-0.93,0.67-1.44c0.03-0.25,0.02-0.51-0.06-0.75
					c-0.08-0.26-0.26-0.38-0.5-0.49c-0.09-0.04-0.08-0.2,0.03-0.18c0.28,0.03,0.54,0.19,0.66,0.45c0.11,0.22,0.15,0.49,0.15,0.73
					c0,0.31-0.08,0.63-0.17,0.93c-0.1,0.31-0.26,0.62-0.5,0.85c-0.4,0.38-1.04,0.49-1.47,0.11c-0.47-0.42-0.44-1.11-0.22-1.65
					c0.15-0.34,0.34-0.68,0.6-0.95c0.23-0.25,0.59-0.48,0.95-0.44C80.28,35.31,80.29,35.4,80.22,35.42L80.22,35.42z"/>
			</g>
		</g>
		<g>
			<g>
				<path class="st4" d="M84.49,35.94c-0.81-1.16-2.39-0.01-2.79,0.95c-0.11,0.26-0.16,0.55-0.1,0.82c0.07,0.29,0.3,0.46,0.59,0.49
					c0.56,0.06,1.17-0.19,1.6-0.54c0.49-0.4,0.92-1.06,0.67-1.71c-0.04-0.12,0.13-0.21,0.18-0.09c0.27,0.64-0.05,1.35-0.51,1.81
					c-0.47,0.47-1.16,0.79-1.83,0.77c-0.32-0.01-0.63-0.12-0.81-0.4c-0.18-0.29-0.17-0.67-0.09-0.99c0.09-0.34,0.28-0.65,0.52-0.91
					c0.24-0.27,0.54-0.52,0.86-0.69c0.32-0.17,0.68-0.26,1.04-0.19c0.35,0.06,0.71,0.28,0.8,0.65C84.63,35.98,84.53,36,84.49,35.94z
					"/>
			</g>
		</g>
	</g>
	<g>
		<g>
			<path class="st1" d="M91.1,32.94c0.39,0.14,0.72,0.35,0.87,0.74c0.16,0.41,0.08,0.87,0.22,1.29c0.11,0.32,0.33,0.59,0.4,0.92
				c0.1,0.5-0.23,1.04-0.7,1.25c-0.47,0.21-1.04,0.12-1.48-0.14c-0.29-0.18-0.55-0.43-0.87-0.55c-0.34-0.13-0.73-0.09-1.07-0.21
				c-0.37-0.12-0.68-0.43-0.8-0.8c-0.12-0.37-0.06-0.8,0.16-1.13c0.23-0.34,0.62-0.54,1-0.69c0.38-0.15,0.79-0.26,1.15-0.46
				c0.18-0.1,0.34-0.23,0.54-0.3C90.72,32.78,90.92,32.86,91.1,32.94z"/>
		</g>
		<g>
			<path class="st1" d="M94.75,33.54c0.06,0.22,0.03,0.45-0.05,0.66s-0.21,0.4-0.36,0.57c-0.21,0.25-0.45,0.47-0.75,0.58
				c-0.3,0.1-0.68,0.06-0.89-0.18c-0.22-0.24-0.22-0.62-0.08-0.91c0.14-0.29,0.39-0.51,0.66-0.69c0.21-0.14,0.43-0.26,0.68-0.3
				C94.2,33.22,94.49,33.17,94.75,33.54"/>
		</g>
		<g>
			<path class="st1" d="M93.1,30.36c0.43,0.02,0.69,0.41,0.76,0.74c0.06,0.33-0.01,0.67-0.13,0.98c-0.09,0.24-0.21,0.46-0.37,0.66
				c-0.16,0.19-0.37,0.36-0.61,0.44c-0.16,0.05-0.34,0.07-0.49,0.01c-0.25-0.1-0.38-0.37-0.44-0.63c-0.12-0.51-0.04-1.06,0.22-1.51
				c0.11-0.19,0.26-0.37,0.44-0.5C92.66,30.43,92.88,30.35,93.1,30.36z"/>
		</g>
		<g>
			<path class="st1" d="M88.05,30.76c-0.2,0.11-0.34,0.3-0.43,0.5c-0.09,0.21-0.13,0.43-0.15,0.65c-0.03,0.32-0.02,0.65,0.12,0.94
				c0.14,0.29,0.44,0.52,0.76,0.5c0.32-0.02,0.59-0.28,0.7-0.58c0.11-0.3,0.08-0.64,0.02-0.96c-0.05-0.24-0.12-0.49-0.26-0.69
				C88.67,30.92,88.5,30.68,88.05,30.76"/>
		</g>
		<g>
			<path class="st1" d="M91.47,29.68c-0.32-0.29-0.78-0.2-1.06-0.01c-0.28,0.19-0.47,0.48-0.6,0.78c-0.1,0.23-0.18,0.48-0.21,0.73
				c-0.02,0.25,0.01,0.51,0.12,0.74c0.07,0.15,0.18,0.29,0.34,0.36c0.24,0.11,0.53,0.01,0.76-0.13c0.44-0.27,0.78-0.72,0.91-1.22
				c0.06-0.22,0.08-0.44,0.04-0.66C91.73,30.04,91.63,29.83,91.47,29.68z"/>
		</g>
		<g>
			<g>
				<path class="st4" d="M91.1,32.88c0.48,0.11,0.87,0.44,1,0.92c0.07,0.24,0.08,0.49,0.11,0.74c0.03,0.25,0.11,0.48,0.22,0.7
					c0.11,0.22,0.24,0.43,0.28,0.68c0.03,0.22-0.01,0.46-0.1,0.66C92.4,37,92,37.28,91.53,37.34c-0.51,0.06-0.98-0.13-1.39-0.43
					c-0.24-0.17-0.47-0.36-0.76-0.43c-0.27-0.07-0.55-0.04-0.82-0.11c-0.49-0.12-0.89-0.5-1.02-0.99c-0.13-0.5,0.03-1.03,0.4-1.38
					c0.39-0.37,0.92-0.52,1.41-0.69c0.26-0.09,0.5-0.2,0.74-0.35c0.21-0.13,0.44-0.27,0.7-0.22c0.12,0.02,0.23,0.07,0.34,0.13
					c0.09,0.04,0.03,0.19-0.06,0.15c-0.11-0.05-0.21-0.09-0.33-0.1c-0.12-0.01-0.22,0.03-0.32,0.08c-0.22,0.11-0.41,0.26-0.63,0.36
					c-0.44,0.21-0.93,0.31-1.36,0.56c-0.4,0.24-0.7,0.62-0.7,1.11c0,0.45,0.28,0.87,0.69,1.05c0.23,0.1,0.48,0.12,0.72,0.16
					c0.25,0.04,0.49,0.11,0.71,0.24c0.23,0.14,0.43,0.32,0.66,0.45c0.19,0.11,0.41,0.18,0.62,0.21c0.43,0.05,0.87-0.08,1.15-0.43
					c0.12-0.16,0.21-0.34,0.23-0.54c0.02-0.22-0.05-0.42-0.14-0.61c-0.1-0.2-0.22-0.39-0.28-0.61c-0.06-0.22-0.07-0.45-0.09-0.68
					c-0.02-0.23-0.04-0.46-0.15-0.66c-0.1-0.19-0.27-0.35-0.46-0.45c-0.1-0.06-0.2-0.11-0.3-0.16
					C91.02,32.97,91.03,32.87,91.1,32.88z"/>
			</g>
		</g>
		<g>
			<g>
				<path class="st4" d="M94.8,33.52c0.12,0.23,0.07,0.52-0.02,0.75c-0.11,0.26-0.28,0.49-0.48,0.7c-0.33,0.36-0.8,0.64-1.3,0.49
					c-0.46-0.13-0.66-0.62-0.55-1.06c0.13-0.51,0.61-0.87,1.06-1.1c0.22-0.11,0.47-0.18,0.71-0.17c0.26,0,0.48,0.16,0.6,0.38
					c0.04,0.08-0.08,0.13-0.13,0.08c-0.14-0.14-0.27-0.25-0.48-0.25c-0.17,0-0.35,0.05-0.51,0.11c-0.2,0.08-0.38,0.21-0.55,0.34
					c-0.18,0.14-0.34,0.3-0.44,0.51c-0.15,0.32-0.12,0.77,0.24,0.94c0.4,0.19,0.83-0.03,1.12-0.32c0.19-0.18,0.37-0.4,0.48-0.64
					c0.12-0.24,0.15-0.47,0.14-0.74C94.69,33.49,94.77,33.47,94.8,33.52L94.8,33.52z"/>
			</g>
		</g>
		<g>
			<g>
				<path class="st4" d="M93.1,30.3c0.27-0.03,0.51,0.14,0.67,0.35c0.15,0.21,0.22,0.47,0.22,0.73c0,0.29-0.09,0.59-0.21,0.85
					c-0.12,0.28-0.28,0.54-0.5,0.74c-0.2,0.18-0.45,0.32-0.72,0.35c-0.28,0.02-0.52-0.11-0.67-0.35c-0.28-0.46-0.26-1.1-0.09-1.6
					c0.19-0.57,0.68-1.13,1.32-1.1c0.11,0,0.08,0.16-0.02,0.16c-0.5-0.01-0.87,0.4-1.06,0.83c-0.19,0.42-0.24,0.94-0.1,1.39
					c0.07,0.2,0.19,0.41,0.41,0.47c0.23,0.05,0.48-0.06,0.67-0.19c0.41-0.29,0.65-0.81,0.74-1.29c0.05-0.25,0.04-0.52-0.07-0.76
					c-0.12-0.25-0.33-0.4-0.6-0.47C93.04,30.4,93.03,30.31,93.1,30.3z"/>
			</g>
		</g>
		<g>
			<g>
				<path class="st4" d="M88.08,30.8c-0.18,0.16-0.32,0.33-0.4,0.56c-0.09,0.22-0.12,0.47-0.13,0.71c-0.02,0.4,0.06,0.86,0.43,1.1
					c0.16,0.1,0.35,0.13,0.53,0.06c0.16-0.07,0.3-0.2,0.38-0.36c0.21-0.38,0.13-0.9,0.01-1.3c-0.06-0.2-0.16-0.38-0.3-0.54
					c-0.15-0.17-0.32-0.19-0.54-0.19c-0.08,0-0.13-0.12-0.04-0.15c0.22-0.07,0.46-0.04,0.64,0.11c0.15,0.13,0.28,0.31,0.36,0.49
					c0.11,0.23,0.16,0.5,0.19,0.75c0.03,0.27,0.02,0.55-0.08,0.8c-0.16,0.42-0.6,0.72-1.05,0.58c-0.49-0.15-0.71-0.67-0.73-1.15
					c-0.01-0.31,0.02-0.62,0.12-0.91c0.09-0.26,0.27-0.56,0.55-0.65C88.09,30.69,88.13,30.76,88.08,30.8L88.08,30.8z"/>
			</g>
		</g>
		<g>
			<g>
				<path class="st4" d="M91.43,29.72c-1-0.58-1.78,0.81-1.75,1.66c0.01,0.23,0.07,0.46,0.21,0.65c0.15,0.2,0.38,0.24,0.61,0.16
					c0.44-0.14,0.81-0.54,1-0.95c0.23-0.47,0.32-1.1-0.09-1.5c-0.07-0.07,0.02-0.2,0.1-0.13c0.42,0.39,0.43,1.02,0.24,1.52
					c-0.19,0.51-0.59,0.98-1.1,1.2c-0.24,0.1-0.51,0.12-0.74-0.02c-0.23-0.15-0.35-0.44-0.4-0.7c-0.05-0.29-0.01-0.58,0.07-0.86
					c0.09-0.29,0.22-0.57,0.4-0.81c0.18-0.24,0.41-0.43,0.71-0.5c0.28-0.07,0.62-0.04,0.82,0.2C91.55,29.7,91.48,29.75,91.43,29.72z
					"/>
			</g>
		</g>
	</g>
</g>
</svg>
