<?xml version="1.0" encoding="UTF-8"?><svg xmlns="http://www.w3.org/2000/svg" viewBox="0 0 446.73 442.23"><defs><style>.cls-1{opacity:.7;}.cls-2{fill:#fff;}.cls-3{fill:#fafafa;}.cls-4{fill:#f5f5f5;}.cls-5{fill:#e0e0e0;}.cls-6{fill:#e8505b;}.cls-7{opacity:.3;}.cls-8{fill:#ebebeb;}.cls-9{fill:#ffbc00;stroke:#070500;stroke-miterlimit:10;}.cls-10{fill:#263238;}</style></defs><g id="Background_Complete"><path class="cls-8" d="M66.55,277.73c.11-2.02,.97-3.96,2.23-5.55,1.23-1.55,2.88-2.82,4.79-3.36,2.03-.57,4.29-.26,6.09,.82,1.07,.65,1.98,1.56,2.62,2.64,.51-1.01,1.25-1.92,2.15-2.62,1.66-1.29,3.87-1.86,5.95-1.54,1.96,.31,3.75,1.37,5.16,2.77,1.44,1.43,2.52,3.25,2.87,5.24,.44,2.5,.11,5.28-1.06,7.53-1.24,2.37-3.36,4.35-5.56,5.87-3.71,2.55-8.61,5.75-8.61,5.75,0,0-4.47-2.95-8.46-5.04-2.37-1.24-4.71-2.96-6.22-5.17-1.43-2.09-2.08-4.82-1.94-7.35Z"/><path class="cls-8" d="M345.25,167.28c.11-2.02,.97-3.96,2.23-5.55,1.23-1.55,2.88-2.82,4.79-3.36,2.03-.57,4.29-.26,6.09,.82,1.07,.65,1.98,1.56,2.62,2.64,.51-1.01,1.25-1.92,2.15-2.62,1.66-1.29,3.87-1.86,5.95-1.54,1.96,.31,3.75,1.37,5.16,2.77,1.44,1.43,2.52,3.25,2.87,5.24,.44,2.5,.11,5.28-1.06,7.53-1.24,2.37-3.36,4.35-5.56,5.87-3.71,2.55-8.61,5.75-8.61,5.75,0,0-4.47-2.95-8.46-5.04-2.37-1.24-4.71-2.96-6.22-5.17-1.43-2.09-2.08-4.82-1.94-7.35Z"/><path class="cls-4" d="M93.62,252.9c.07-1.3,.62-2.54,1.43-3.56,.79-1,1.85-1.81,3.08-2.16,1.3-.37,2.75-.17,3.91,.53,.69,.42,1.27,1.01,1.69,1.69,.33-.65,.8-1.23,1.38-1.68,1.07-.83,2.48-1.2,3.82-.99,1.26,.2,2.41,.88,3.31,1.78,.92,.92,1.62,2.09,1.84,3.37,.28,1.6,.07,3.39-.68,4.83-.8,1.52-2.16,2.8-3.57,3.77-2.38,1.64-5.53,3.69-5.53,3.69,0,0-2.87-1.89-5.43-3.24-1.52-.8-3.02-1.9-3.99-3.32-.92-1.34-1.34-3.09-1.25-4.72Z"/><path class="cls-4" d="M328.15,191.77c.07-1.3,.62-2.54,1.43-3.56,.79-1,1.85-1.81,3.08-2.16,1.3-.37,2.75-.17,3.91,.53,.69,.42,1.27,1.01,1.69,1.69,.33-.65,.8-1.23,1.38-1.68,1.07-.83,2.48-1.2,3.82-.99,1.26,.2,2.41,.88,3.31,1.78,.92,.92,1.62,2.09,1.84,3.37,.28,1.6,.07,3.39-.68,4.83-.8,1.52-2.16,2.8-3.57,3.77-2.38,1.64-5.53,3.69-5.53,3.69,0,0-2.87-1.89-5.43-3.24-1.52-.8-3.02-1.9-3.99-3.32-.92-1.34-1.34-3.09-1.25-4.72Z"/><path class="cls-8" d="M378.69,242.31c.07-1.3,.62-2.54,1.43-3.56,.79-1,1.85-1.81,3.08-2.16,1.3-.37,2.75-.17,3.91,.53,.69,.42,1.27,1.01,1.69,1.69,.33-.65,.8-1.23,1.38-1.68,1.07-.83,2.48-1.2,3.82-.99,1.26,.2,2.41,.88,3.31,1.78,.92,.92,1.62,2.09,1.84,3.37,.28,1.6,.07,3.39-.68,4.83-.8,1.52-2.16,2.8-3.57,3.77-2.38,1.64-5.53,3.69-5.53,3.69,0,0-2.87-1.89-5.43-3.24-1.52-.8-3.02-1.9-3.99-3.32-.92-1.34-1.34-3.09-1.25-4.72Z"/><path class="cls-4" d="M100.27,294.35c.05-.86,.41-1.68,.94-2.35,.52-.66,1.22-1.19,2.03-1.42,.86-.24,1.82-.11,2.58,.35,.45,.27,.84,.66,1.11,1.12,.22-.43,.53-.81,.91-1.11,.7-.55,1.64-.79,2.52-.65,.83,.13,1.59,.58,2.18,1.17,.61,.6,1.07,1.38,1.22,2.22,.18,1.06,.05,2.24-.45,3.19-.53,1-1.42,1.84-2.36,2.49-1.57,1.08-3.65,2.44-3.65,2.44,0,0-1.9-1.25-3.58-2.14-1-.53-1.99-1.25-2.63-2.19-.61-.89-.88-2.04-.82-3.11Z"/><g><path class="cls-8" d="M46.15,52.38s-4.6,3.97,5.4,13.21c10,9.24,16.11,13.39,16.11,13.39,0,0,2,2.26-.07,3.49-2.07,1.23-7.26,2.26-7.24,5.34,.01,3.2,3.05,5.11,8.06,5.91,5.02,.8,15.95,2.96,16.94,3.16,.97,.2,2.22,1.13,.94,2.2-1.28,1.06-11.87,6.28-9.09,11.16,2.77,4.88,17.12,4.81,18.69,4.84,1.57,.02,2.11,.48,2.28,1.28,.17,.79-3.56,2.21-6.51,3.82-2.95,1.61-6.09,3.99-4.25,6.67,1.84,2.68,11.62,6.12,30.47,1.19l8.58-2.86,1.97-8.87c3.06-19.24-1.32-28.64-4.17-30.21-2.85-1.57-4.91,1.79-6.22,4.89-1.31,3.09-2.36,6.94-3.16,6.85-.81-.09-1.32-.58-1.5-2.14-.18-1.56-1.52-15.84-6.64-18.13-5.12-2.28-9.28,8.76-10.21,10.14-.93,1.38-1.99,.23-2.28-.72-.29-.96-3.51-11.63-4.8-16.54-1.29-4.92-3.48-7.75-6.67-7.45-3.07,.29-3.59,5.55-4.61,7.73-1.02,2.18-3.47,.41-3.47,.41,0,0-4.73-5.67-14.9-14.72-10.17-9.05-13.74-3.94-13.74-3.94"/><path class="cls-5" d="M127.63,127c-7.44-6.68-20.47-18.77-31.71-29.09-11.24-10.32-21.42-19.65-28.83-26.37-3.7-3.35-6.7-6.06-8.78-7.94-1.03-.93-1.83-1.66-2.39-2.16-.26-.24-.47-.43-.62-.57-.14-.13-.2-.2-.2-.2,0,0,.08,.06,.22,.18,.15,.13,.36,.31,.63,.55,.56,.49,1.38,1.21,2.42,2.12,2.1,1.85,5.12,4.54,8.84,7.88,7.44,6.68,17.65,15.99,28.89,26.31,11.24,10.32,24.25,22.44,31.66,29.15"/><path class="cls-5" d="M67.66,86.67s.23-.04,.65-.05c.42-.02,1.03-.03,1.78-.03,1.5,0,3.58,.05,5.87,.14,2.26,.1,4.3,.19,5.86,.27,.7,.03,1.3,.05,1.78,.07,.42,.01,.65,.03,.65,.05,0,.02-.23,.04-.65,.06-.42,.02-1.03,.02-1.78,.02-1.5-.01-3.58-.09-5.87-.18-2.26-.09-4.3-.16-5.86-.22-.7-.02-1.3-.04-1.78-.06-.42-.02-.65-.04-.65-.06Z"/><path class="cls-5" d="M84.63,86.36c-.08,0-.17-4.28-.2-9.57-.03-5.29,0-9.57,.09-9.57,.08,0,.17,4.28,.2,9.57,.03,5.29,0,9.57-.09,9.57Z"/><path class="cls-5" d="M101.18,102.99s.04-.24,.15-.65c.13-.47,.3-1.05,.5-1.75,.42-1.47,.99-3.51,1.53-5.79,.55-2.27,.98-4.35,1.27-5.85,.14-.71,.26-1.3,.35-1.78,.09-.42,.14-.65,.16-.65,.02,0,0,.24-.05,.67-.05,.43-.14,1.04-.27,1.8-.25,1.52-.64,3.6-1.2,5.88-.55,2.28-1.15,4.32-1.61,5.78-.24,.73-.43,1.32-.58,1.72-.15,.4-.24,.62-.26,.62Z"/><path class="cls-5" d="M85.89,106.65s.2-.09,.58-.2c.44-.12,.98-.28,1.62-.45,1.37-.37,3.26-.87,5.36-1.4,2.1-.53,4-1,5.38-1.32,.65-.15,1.19-.27,1.64-.37,.39-.08,.61-.12,.61-.1,0,.02-.2,.09-.58,.2l-1.62,.45c-1.37,.37-3.26,.87-5.36,1.4-2.1,.53-4,1-5.38,1.32-.65,.15-1.19,.27-1.64,.37-.39,.08-.61,.12-.61,.1Z"/><path class="cls-5" d="M98.63,123.18s.26-.11,.75-.25c.54-.15,1.23-.35,2.07-.59,1.75-.49,4.17-1.14,6.85-1.85,2.68-.71,5.11-1.33,6.87-1.77,.84-.2,1.55-.37,2.09-.5,.5-.11,.77-.17,.78-.15,0,.02-.26,.11-.75,.25-.54,.15-1.23,.35-2.07,.59-1.75,.49-4.17,1.14-6.85,1.85-2.68,.71-5.11,1.33-6.87,1.77-.84,.2-1.55,.37-2.09,.5-.5,.11-.77,.17-.78,.15Z"/><path class="cls-5" d="M117.54,118.07s.04-.3,.17-.83c.14-.58,.33-1.33,.55-2.24,.46-1.89,1.09-4.5,1.71-7.4,.62-2.9,1.11-5.54,1.45-7.46,.16-.92,.3-1.68,.41-2.27,.1-.54,.16-.83,.18-.83,.02,0,0,.3-.07,.84-.06,.54-.17,1.32-.32,2.28-.29,1.92-.75,4.58-1.37,7.48-.61,2.91-1.28,5.52-1.79,7.39-.26,.94-.48,1.7-.64,2.22-.16,.52-.26,.81-.28,.8Z"/></g><g><path class="cls-4" d="M328.65,108.04c-13.33-11.63-14.59-30.68-12.21-47.42,.4-2.8,.41-5.79,2.01-8.1,1.6-2.32,4.89-3.66,7.28-2.21,1.98,1.21,2.62,3.73,3.57,5.86,1.26,2.83,3.34,5.29,5.9,6.99,1.69,1.12,3.84,1.92,5.7,1.14,2.56-1.07,3.21-4.39,3.49-7.18,.53-5.2,1.06-10.41,1.58-15.61,.28-2.79,.58-5.64,1.74-8.2,1.15-2.55,3.34-4.81,6.07-5.27,2.73-.46,5.85,1.43,6.12,4.22,.11,1.16-.25,2.32-.3,3.48-.05,1.17,.35,2.51,1.42,2.95,1.08,.45,2.28-.22,3.2-.95,3.18-2.51,5.53-5.93,7.74-9.34,2.22-3.41,4.39-6.92,7.33-9.71,2.94-2.79,6.82-4.84,10.84-4.63,4.02,.2,8.01,3.13,8.6,7.16,.59,4.04-2.14,7.79-4.98,10.7-4.21,4.32-9.05,8.03-14.3,10.96-.95,.53-1.97,1.1-2.42,2.1-.81,1.79,.76,3.83,2.53,4.64,2.01,.92,4.28,.94,6.43,1.43,2.15,.49,4.4,1.7,5,3.85,.84,2.98-1.87,5.71-4.43,7.41-5.12,3.41-10.82,5.93-16.77,7.41-2.13,.53-4.36,.96-6.17,2.22-1.81,1.26-3.08,3.66-2.29,5.74,.79,2.08,3.29,2.98,5.48,2.81,2.19-.17,4.24-1.13,6.37-1.68,3.99-1.03,8.91-.24,11.01,3.34,1.38,2.35,1.19,5.4,.1,7.91-1.1,2.51-2.99,4.57-4.97,6.44-6.92,6.55-15.42,11.5-24.64,13.63-9.23,2.13-17.56,2.07-26.05-2.11"/><path class="cls-5" d="M334.13,97.97c3.39-8.21,7.85-16.91,12.82-25.85,1.25-2.23,2.49-4.43,3.71-6.6,1.22-2.16,2.43-4.31,3.75-6.34,2.61-4.06,5.44-7.77,8.23-11.21,2.79-3.44,5.56-6.6,8.17-9.54,2.62-2.93,5.12-5.62,7.49-7.97,4.74-4.72,9.01-8.07,12.04-10.26,1.51-1.1,2.71-1.91,3.53-2.45,.39-.26,.7-.46,.94-.61,.21-.13,.32-.2,.33-.19,0,0-.1,.09-.3,.24-.23,.16-.53,.38-.91,.65-.8,.57-1.98,1.4-3.47,2.52-2.98,2.23-7.2,5.61-11.9,10.35-2.35,2.36-4.83,5.06-7.43,8-2.6,2.95-5.35,6.11-8.13,9.55-2.77,3.44-5.58,7.14-8.17,11.18-1.31,2.02-2.5,4.15-3.73,6.32-1.22,2.17-2.45,4.37-3.71,6.6-4.97,8.93-9.43,17.6-12.84,25.78"/><path class="cls-5" d="M354.56,59.18s-.08-.43-.14-1.22c-.06-.79-.12-1.93-.16-3.34-.1-2.82-.09-6.72-.08-11.02,.02-4.3-.04-8.19-.17-11-.07-1.41-.13-2.54-.18-3.33-.05-.79-.06-1.22-.03-1.23,.04,0,.11,.43,.22,1.21,.12,.78,.24,1.92,.35,3.33,.23,2.82,.34,6.72,.33,11.02-.03,4.24-.05,8.08-.07,11.01,0,1.32,0,2.44,0,3.34,0,.79-.02,1.23-.06,1.23Z"/><path class="cls-5" d="M391.15,56.34s-.52,.04-1.45,.02c-.93-.02-2.27-.05-3.94-.04-3.32,0-7.92,.16-12.97,.56-5.06,.41-9.62,.97-12.91,1.48-1.65,.24-2.97,.47-3.89,.62-.92,.16-1.43,.23-1.44,.19,0-.04,.49-.17,1.4-.39,.91-.21,2.23-.5,3.87-.79,3.28-.6,7.85-1.22,12.93-1.63,5.07-.4,9.68-.5,13.02-.41,1.67,.03,3.01,.12,3.94,.2,.93,.09,1.44,.15,1.44,.19Z"/><path class="cls-5" d="M334.64,97.36s-.08-.15-.2-.46c-.13-.37-.28-.82-.47-1.36-.41-1.19-.95-2.92-1.59-5.07-1.29-4.3-2.88-10.29-4.55-16.92-1.67-6.64-3.2-12.63-4.4-16.95-.59-2.1-1.07-3.83-1.43-5.11-.15-.56-.28-1.02-.38-1.39-.08-.32-.12-.49-.1-.5,.02,0,.08,.15,.2,.47,.13,.37,.28,.82,.47,1.36,.41,1.19,.95,2.92,1.59,5.07,1.29,4.3,2.88,10.29,4.55,16.92,1.67,6.63,3.2,12.63,4.4,16.95,.59,2.1,1.07,3.83,1.43,5.11,.15,.56,.28,1.02,.38,1.39,.08,.32,.12,.49,.1,.5Z"/><path class="cls-5" d="M383.96,87.13s-.17,.07-.49,.14c-.39,.08-.86,.19-1.43,.31-1.32,.28-3.11,.65-5.28,1.1-4.46,.93-10.61,2.29-17.4,3.8-6.79,1.51-12.96,2.82-17.44,3.66-2.24,.42-4.06,.74-5.32,.94-.58,.09-1.06,.16-1.45,.22-.33,.04-.51,.06-.51,.04,0-.02,.17-.07,.49-.14,.39-.08,.86-.19,1.43-.31,1.32-.28,3.11-.65,5.28-1.1,4.46-.93,10.61-2.29,17.4-3.81,6.79-1.51,12.95-2.82,17.43-3.66,2.24-.42,4.06-.74,5.32-.94,.58-.09,1.06-.16,1.45-.22,.33-.04,.51-.06,.51-.04Z"/></g></g><g id="Floor"><path class="cls-10" d="M446.73,434.49c0,.14-100.01,.26-223.36,.26s-223.38-.12-223.38-.26,99.99-.26,223.38-.26,223.36,.12,223.36,.26Z"/></g><g id="Hamster"><g><g><g><g><path class="cls-6" d="M289.07,192.12c.55-9.26,1.11-18.52,1.66-27.78,.07-1.11,.24-2.41,1.2-2.98,.87-.51,1.97-.17,2.9,.2,16.42,6.6,28.46,24.92,29.9,42.56"/><g class="cls-7"><path class="cls-2" d="M294.64,170.94c7.71,4.96,12.85,13.72,13.41,22.87,.07,1.11,.04,2.33-.67,3.19-.58,.71-1.53,1.04-2.45,1.07-.92,.03-1.82-.2-2.71-.42-2.22-.57-4.55-1.19-6.19-2.79-1.55-1.51-2.27-3.71-2.4-5.86-.13-2.16,.27-4.31,.66-6.43,.93,1.59,1.86,3.19,2.8,4.78l-2.99-15.49c-.05-.28-.1-.6,.08-.82,.18-.22,.65-.15,.62,.14"/></g></g><g><path class="cls-6" d="M193.88,211.85c-8.54-10.05-13.58-23.03-14.05-36.22,3.05,1.44,6.1,2.87,9.15,4.31-.76-.93-1.53-1.86-2.29-2.78,13.21,1.01,25.93,7.43,34.59,17.47"/><g class="cls-7"><path class="cls-2" d="M198.94,207.8c-7.2-5.16-12.08-13.43-13.12-22.23-.07-.61-.02-1.39,.55-1.6,.4-.14,.83,.1,1.18,.33,5.5,3.6,11.01,7.19,16.51,10.79-.72-1.02-1.17-2.23-1.3-3.47,2.32,1.71,4.65,3.42,6.97,5.14,.49,.36,1.02,.79,1.11,1.39,.09,.65-.37,1.25-.85,1.69-2.3,2.12-5.77,2.89-8.75,1.94,1.01,.87,2.02,1.74,3.03,2.61-1.78,1.16-4.04,1.55-6.11,1.05-.22,.98,.23,2.08,1.09,2.61"/></g></g><path class="cls-6" d="M380.38,299.11s12.8,13.24,18.62,12.13c0,0-20.21-21.51-28.71-41.36-3.2-7.46-7.96-16.91-14.47-26.99,3.83-6.6,7.24-14.07,8.81-21.63,0,0-6.4,7.67-14.59,13.2-.45-.61-.89-1.23-1.35-1.84,3.86-3.68,7.55-8.84,8.56-15.6l-20.22-.87c.5-.69,1.07-1.61,1.71-2.85,0,0-12.76-11.77-33.04-20.92-23.24-13.23-74.98-17.6-100.2,3.92-22.56,13.16-28.62,29.98-46.4,34.17l-10.54-1.16s-4.1,21.99,9.37,31.83l-9.95-2.32s1.84,8.75,11.67,18.41l-6.13-.75s2.66,13.79,11.16,17.1c0,0-13.28,1.65-17-3.31,0,0-4.42,20.59,15.7,28.37,0,0-60.26,7.06-43.32,80.82,3.96,17.23,27.75,29.64,55.1,35.62l196.96-.77c12.01-3.91,26.33-43.68,26.86-59.67,.53-15.99-7.44-46.88-7.44-46.88l7.46,9.93-18.62-38.6Z"/><g><path class="cls-6" d="M155.21,329.85c-11.31-.68-22.42,8.11-24.36,19.28,7.33-4.85,15.8-7.95,24.53-8.96-7,6.2-9.46,17-5.83,25.62,2.87-7.78,9.07-14.27,16.72-17.49-5.27,6.22-6.92,15.31-4.16,22.98"/><path class="cls-10" d="M162.12,371.28s-.06-.13-.16-.4c-.09-.27-.25-.67-.4-1.21-.3-1.08-.69-2.69-.82-4.81-.12-2.11-.02-4.75,.77-7.66,.76-2.91,2.21-6.1,4.63-9.02l.23,.31c-3.22,1.38-6.54,3.49-9.47,6.42-2.93,2.91-5.49,6.64-7.09,10.98l-.22,.59-.25-.58c-2.38-5.66-2.29-12.85,.73-19.04,1.29-2.63,3.05-4.98,5.16-6.87l.2,.45c-9.5,1.1-17.95,4.61-24.44,8.89l-.44,.29,.09-.51c.46-2.53,1.37-4.84,2.5-6.87,1.13-2.04,2.51-3.8,3.99-5.25,2.91-2.98,6.18-4.73,8.94-5.78,2.79-1.03,5.14-1.32,6.72-1.4,.79-.04,1.4,.02,1.81,.02l.46,.02c.1,0,.16,.01,.16,.02,0,0-.05,.01-.16,.02h-.46c-.41,.04-1.01,0-1.8,.06-1.57,.12-3.88,.45-6.63,1.51-2.72,1.07-5.93,2.83-8.77,5.79-1.45,1.44-2.79,3.18-3.89,5.19-1.11,2-1.98,4.28-2.42,6.75l-.34-.22c6.52-4.35,15.04-7.92,24.63-9.03l.81-.09-.61,.54c-2.05,1.84-3.77,4.14-5.03,6.71-2.95,6.06-3.05,13.09-.74,18.62h-.46c1.64-4.4,4.25-8.17,7.24-11.12,2.99-2.95,6.36-5.08,9.64-6.46l.76-.32-.53,.63c-2.4,2.85-3.85,5.99-4.63,8.85-.81,2.87-.93,5.47-.85,7.56,.1,2.1,.45,3.72,.71,4.8,.14,.54,.27,.94,.35,1.22,.08,.28,.11,.42,.1,.42Z"/></g><g><path class="cls-6" d="M361.69,360.89c6.05-1.28,12.53-.42,18.02,2.4,5.5,2.82,9.98,7.58,12.46,13.24"/><path class="cls-10" d="M392.18,376.53c-.1,.05-.87-1.9-2.83-4.61-1.93-2.69-5.22-6.08-9.75-8.4-4.53-2.33-9.2-3.03-12.52-3.03-3.34-.01-5.37,.5-5.39,.39,0-.03,.49-.18,1.42-.36,.92-.18,2.28-.36,3.97-.4,3.36-.1,8.13,.56,12.76,2.93,4.62,2.37,7.94,5.87,9.82,8.65,.95,1.4,1.6,2.6,1.99,3.46,.39,.86,.56,1.35,.54,1.36Z"/></g><g class="cls-7"><path d="M292.24,377.5c-7.26,1.14-16.5,6.65-19.88,13.18-.72,1.39-.06,1.58,0,3.15,.06,1.57,.9,3.18,2.36,3.77s3.42-.25,3.69-1.79c-.88,5.26,.31,10.85,3.26,15.3,2.03-1.14,3.7-2.91,4.72-5.01-.43,7.79,2.54,15.7,7.98,21.29-1.18-4.6-2.36-9.21-3.54-13.81-1.28-4.98-2.5-9.25-2.16-14.38,.36-5.48,3.62-10.1,6.15-14.64-3.48,1.51-7.5,8.36-10.94,12.53-.5-7.29,2.57-14.37,8.09-19.36"/></g><path class="cls-10" d="M290.87,413.72s-.11-.2-.27-.59c-.15-.4-.44-.98-.69-1.77-.54-1.56-1.14-3.92-1.35-6.94-.2-3.01,.03-6.71,1.25-10.66,1.16-3.94,3.39-8.11,6.81-11.67l.35,.36c-2.71,2.53-5.65,5.22-8.31,8.33-1.72,1.99-3.22,4.08-4.45,6.24l-.39,.69-.09-.79c-.49-4.35,.46-8.56,2.15-11.98,1.69-3.44,4.13-6.12,6.65-7.93l.18,.34c-2.2,.82-3.99,2.03-5.37,3.29-1.39,1.26-2.35,2.58-3.04,3.7-.69,1.13-1.09,2.08-1.34,2.73-.24,.66-.36,1.01-.38,1,0,0,0-.09,.05-.27,.05-.17,.11-.44,.22-.77,.23-.67,.6-1.64,1.26-2.8,.67-1.15,1.62-2.51,3.01-3.82,1.38-1.31,3.19-2.57,5.44-3.43l1.34-.51-1.16,.85c-2.45,1.81-4.82,4.44-6.46,7.82-1.64,3.36-2.55,7.47-2.06,11.71l-.48-.09c1.24-2.2,2.77-4.33,4.5-6.33,2.69-3.13,5.64-5.84,8.37-8.36l.35,.36c-3.37,3.48-5.58,7.56-6.76,11.44-1.23,3.88-1.5,7.53-1.34,10.51,.16,2.99,.71,5.34,1.19,6.91,.22,.79,.48,1.37,.6,1.78,.14,.41,.21,.62,.19,.63Z"/><g><path class="cls-6" d="M172.23,412.63c3.89,4.33,9.14,7.43,14.81,8.74,.65,.15,1.44,.24,1.89-.26,.58-.64,.1-1.65-.38-2.36-2.12-3.13-4.23-6.25-6.35-9.38,4.49,3.56,9.91,5.94,15.57,6.84,.94,.15,2.12,.15,2.6-.67,.39-.67,.08-1.51-.23-2.21-.97-2.15-2.03-4.25-3.18-6.31"/><path class="cls-10" d="M196.96,407.01s.12,.16,.31,.5c.21,.39,.48,.88,.8,1.49,.35,.67,.77,1.47,1.25,2.39,.24,.47,.5,.97,.78,1.5,.27,.52,.57,1.11,.63,1.84,.02,.36-.07,.76-.32,1.08-.25,.32-.63,.51-1.01,.6-.77,.17-1.56,.03-2.32-.1-1.55-.27-3.19-.66-4.87-1.23-3.37-1.12-6.92-2.92-10.17-5.49l.38-.35c.35,.52,.73,1.07,1.1,1.63,1.21,1.8,2.4,3.55,3.54,5.24,.57,.85,1.13,1.68,1.68,2.49,.28,.42,.54,.87,.65,1.4,.14,.51-.05,1.21-.57,1.5-.51,.3-1.06,.24-1.52,.16-.47-.09-.9-.22-1.34-.33-.86-.25-1.69-.51-2.48-.81-1.57-.6-2.98-1.29-4.22-2-2.48-1.43-4.24-2.95-5.39-4.06-.57-.56-.99-1.01-1.26-1.33-.27-.32-.41-.49-.4-.5,.01-.01,.18,.14,.47,.43,.29,.3,.74,.72,1.32,1.25,1.18,1.05,2.96,2.51,5.43,3.89,1.23,.69,2.63,1.35,4.19,1.92,.78,.29,1.6,.54,2.45,.77,.83,.18,1.81,.57,2.48,.19,.32-.2,.44-.58,.34-1-.09-.42-.32-.83-.58-1.22-.55-.81-1.12-1.64-1.69-2.49-1.15-1.69-2.34-3.44-3.55-5.24-.38-.56-.75-1.11-1.1-1.63l-.94-1.39,1.32,1.04c3.2,2.53,6.69,4.32,10,5.46,1.65,.58,3.27,.98,4.8,1.26,.76,.15,1.5,.28,2.16,.14,.67-.11,1.1-.66,1.05-1.28-.04-.61-.3-1.19-.57-1.72-.26-.53-.51-1.03-.74-1.51-.45-.93-.84-1.74-1.17-2.42-.29-.63-.53-1.14-.72-1.53-.16-.35-.24-.54-.22-.55Z"/></g><g class="cls-7"><path d="M196.89,350.45c2.19,3.71,5.47,6.76,9.32,8.69-.22-2.04-1.09-4-2.44-5.54,4.2,4.01,9.24,7.14,14.69,9.14-4.64,2.06-10.26,1.76-14.64-.79-4.39-2.55-7.43-7.29-7.92-12.34"/></g><g class="cls-7"><path d="M170.14,285.27c7.94,15.27,33.62,22.81,53.76,23.13,6.22,.1,14.98,4.69,21.16,4.1,13.83-1.33,25.06-8.79,38.92-9.97,8.62-.74,17.31-.96,25.84-2.45,8.53-1.49,8.14-2.47,14.92-7.86,6.77-5.39,14.12-10.73,14-19.39-12.74,15.6-25.33,20.43-44.94,24.98-19.62,4.55-39.99,4.47-60.11,3.54-22.13-1.02-45.35-3.44-63.54-16.09"/></g><path class="cls-6" d="M238.46,168.15c.09,0,.16,1.13,.47,2.92,.3,1.79,.88,4.24,1.9,6.82,1.03,2.57,2.29,4.75,3.31,6.26,1.01,1.51,1.73,2.38,1.67,2.44-.03,.02-.23-.17-.59-.55-.36-.37-.83-.94-1.38-1.68-1.11-1.47-2.44-3.66-3.49-6.28-1.04-2.62-1.57-5.13-1.78-6.95-.11-.91-.15-1.66-.15-2.17,0-.51,.01-.8,.05-.8Z"/><path class="cls-6" d="M244.99,165.62c.08,.03-.31,1.02-.7,2.68-.39,1.65-.69,3.99-.49,6.57,.21,2.58,.88,4.85,1.53,6.41,.64,1.57,1.19,2.48,1.11,2.53-.03,.02-.19-.19-.46-.59-.28-.4-.62-1.01-.99-1.79-.75-1.56-1.49-3.87-1.71-6.52-.21-2.65,.16-5.05,.65-6.71,.24-.83,.48-1.49,.69-1.92,.2-.44,.33-.67,.36-.66Z"/><path class="cls-6" d="M122.6,331.86s.13-.15,.4-.39c.28-.24,.67-.61,1.22-1.04,1.08-.88,2.71-2.06,4.85-3.32,4.26-2.55,10.73-5.15,18.18-6.57,7.45-1.43,14.33-1.71,19.27-1.86,2.48-.06,4.48-.08,5.87-.08,.64,0,1.17,.01,1.59,.01,.36,0,.56,.02,.56,.04,0,.02-.19,.04-.55,.06-.42,.02-.95,.05-1.59,.08-1.46,.06-3.44,.15-5.86,.25-4.94,.24-11.78,.58-19.19,2-7.4,1.42-13.82,3.93-18.09,6.38-2.15,1.21-3.8,2.33-4.91,3.16-1.11,.82-1.71,1.3-1.74,1.27Z"/><path class="cls-6" d="M265.95,170c-.03,.09-1.72-.49-4.49-1.16-1.39-.32-3.07-.63-4.94-.59-1.85,.03-3.92,.49-5.73,1.63-.9,.57-1.67,1.28-2.25,2.09-.57,.82-.94,1.72-1.13,2.62-.37,1.81-.11,3.52,.21,4.9,.69,2.76,1.43,4.4,1.33,4.44-.03,.01-.23-.38-.55-1.12-.31-.74-.76-1.82-1.13-3.22-.37-1.39-.69-3.15-.32-5.08,.19-.96,.57-1.94,1.18-2.82,.62-.87,1.44-1.64,2.39-2.24,1.92-1.19,4.08-1.66,6.01-1.66,1.93-.01,3.64,.35,5.03,.72,1.39,.37,2.49,.76,3.25,1.03,.75,.28,1.16,.45,1.15,.48Z"/><path class="cls-6" d="M415.98,420.61c-1.08-7.19-4.6-14.25-10.61-18.34-6.01-4.09-14.66-4.57-20.38-.08l-23.74,32.11,50.54,.21c2.82-2.61,4.77-10.09,4.19-13.89Z"/><g class="cls-7"><path d="M382.34,433.82c4.27-1.78,7.42-5.61,9.35-9.81,1.93-4.2,2.79-8.8,3.64-13.35,.7-3.77,1.37-7.84-.27-11.32-.78-.12-1.57,.35-2.04,.98-.48,.63-.71,1.41-.95,2.17-3.91,12.34-9.94,22.95-19.78,31.36"/></g><g class="cls-7"><path class="cls-2" d="M232.25,183.07c4.99,14.41,5.62,29.95,5.09,45.19-.27,7.58-.83,15.25-3.2,22.45-2.37,7.21-6.73,14-13.18,17.98-6.11,3.77-13.65,4.75-20.76,3.82-7.12-.94-13.88-3.67-20.29-6.89-7.32-3.67-14.37-8.08-20.05-13.97-5.68-5.9-10.34-14.19-11.28-22.33l10.54,1.16s8.11-.87,20.73-13.06c13.77-13.32,16.28-14.95,26.61-21.89,12.72-8.55,25.81-12.45,25.81-12.45Z"/></g><g class="cls-7"><path d="M275.81,271.9c3.91-2.32,9.37-1.57,12.52,1.7,3.14-4.23,8.9-6.33,14.02-5.1-3.05,1.39-6.15,2.83-8.62,5.09-2.47,2.27-4.25,5.53-3.94,8.87-3.09-3.32-6.65-6.2-10.55-8.51-1.62-.96-3.76-1.81-5.27-.69"/></g></g><g><path class="cls-6" d="M310.24,384.55c-5.75,4.13-10.09,10.19-12.17,16.96-2.08,6.77-1.88,14.22,.56,20.86"/><path class="cls-10" d="M298.64,422.37s-.08-.13-.19-.39c-.1-.26-.27-.65-.44-1.16-.36-1.02-.78-2.53-1.12-4.43-.69-3.78-.81-9.28,.93-14.96,1.74-5.68,4.93-10.16,7.62-12.91,1.35-1.39,2.54-2.4,3.41-3.04,.42-.33,.78-.56,1.01-.72,.24-.16,.37-.23,.38-.22,.02,.03-.44,.4-1.26,1.09-.82,.69-1.97,1.73-3.27,3.13-2.6,2.78-5.68,7.22-7.39,12.81-1.71,5.58-1.65,10.99-1.06,14.75,.29,1.89,.65,3.4,.95,4.43,.29,1.03,.47,1.6,.43,1.61Z"/></g><g><g><g><path class="cls-6" d="M330.14,349.93c4.08-3.14,9.37-6.45,14.02-4.24,2.64,1.25,4.26,4.07,4.77,6.94,.51,2.87,.05,5.82-.53,8.68-3.33,16.46-10.69,32.1-21.27,45.15-3.85,4.75-9.33,9.58-15.31,8.27-5.59-1.23-8.75-7.61-8.43-13.32,.32-5.71,3.22-10.91,5.88-15.97,6.34-12.01,12.5-25.16,20.86-35.53"/><path class="cls-10" d="M330.14,349.93s-.08,.13-.26,.38l-.81,1.07c-.71,.94-1.73,2.35-2.99,4.2-2.52,3.7-5.85,9.27-9.56,16.36-1.84,3.56-3.86,7.46-6.02,11.64-2.12,4.2-4.79,8.54-6.17,13.62-.66,2.53-.97,5.26-.41,7.94,.54,2.66,1.79,5.3,3.89,7.2,1.04,.94,2.3,1.66,3.67,2.03,1.37,.37,2.85,.41,4.27,.12,2.87-.59,5.42-2.33,7.64-4.37,2.24-2.05,4.07-4.45,5.87-6.81,1.8-2.37,3.42-4.8,4.97-7.22,3.03-4.89,5.62-9.81,7.67-14.68,2.07-4.86,3.69-9.63,4.9-14.17,.6-2.27,1.11-4.49,1.54-6.62,.42-2.14,.71-4.22,.61-6.2-.12-3.93-2.17-7.5-5.11-8.69-1.44-.61-2.94-.73-4.27-.51-1.33,.2-2.5,.63-3.52,1.09-2.02,.94-3.46,1.94-4.43,2.6-.47,.33-.83,.59-1.09,.78-.25,.18-.38,.25-.38,.25,0,0,.11-.11,.35-.3,.23-.19,.59-.47,1.06-.82,.95-.69,2.37-1.72,4.4-2.7,1.02-.47,2.2-.93,3.57-1.15,1.35-.24,2.92-.14,4.42,.49,1.52,.6,2.86,1.84,3.79,3.42,.94,1.58,1.48,3.5,1.58,5.52,.11,2.03-.17,4.14-.58,6.29-.43,2.15-.93,4.37-1.52,6.66-1.2,4.57-2.81,9.36-4.87,14.25-2.05,4.9-4.64,9.85-7.68,14.77-1.56,2.43-3.19,4.88-4.99,7.26-1.81,2.37-3.65,4.8-5.93,6.88-2.25,2.07-4.88,3.87-7.89,4.49-1.49,.31-3.05,.27-4.5-.13-1.46-.39-2.79-1.16-3.88-2.15-2.19-2-3.48-4.74-4.03-7.48-.58-2.77-.25-5.59,.43-8.16,1.43-5.18,4.13-9.52,6.25-13.7,2.18-4.17,4.22-8.06,6.08-11.61,3.76-7.08,7.14-12.63,9.72-16.3,1.28-1.84,2.33-3.23,3.07-4.15,.36-.44,.64-.79,.85-1.04,.19-.23,.3-.34,.3-.34Z"/></g><g class="cls-7"><path d="M330.63,364.19l-.03,.05c1-2.82,3.13-3.63,5.42-4.46,2.29-.83,5.07-.74,6.9,.86,2.12,1.84,2.39,5.08,1.82,7.83-.2,.96-.49,1.93-1.16,2.65-.67,.71-1.79,1.08-2.65,.61-1.01-.55-1.31-1.99-2.36-2.44-1.21-.52-2.47,.55-3.75,.87-1.72,.44-3.63-.68-4.31-2.32-.48-1.16-.39-2.49,.1-3.65Z"/></g><g class="cls-7"><path d="M335,350.11c1.01,.3,1.56,1.46,1.57,2.72,.01,1.25-.39,2.47-.81,3.65-.35,.98-.95,2.11-1.98,2.15-.59,.02-1.15-.37-1.46-.87-.31-.5-.42-1.11-.47-1.7-.1-1.36,.11-2.74,.61-4.01,.26-.64,.61-1.28,1.19-1.67,.58-.39,1.42-.44,1.93,.04"/></g><g class="cls-7"><path d="M346.98,352.57c1.01,.3,1.56,1.46,1.57,2.72,0,1.25-.39,2.47-.81,3.65-.35,.98-.95,2.11-1.98,2.15-.59,.02-1.15-.37-1.46-.87-.31-.5-.42-1.11-.47-1.7-.1-1.36,.11-2.74,.61-4.01,.26-.64,.61-1.28,1.19-1.67,.58-.39,1.42-.44,1.93,.04"/></g><g class="cls-7"><path d="M341.91,347.99c1.01,.3,1.56,1.46,1.57,2.72,.01,1.25-.39,2.47-.81,3.65-.35,.98-.95,2.11-1.98,2.15-.59,.02-1.15-.37-1.46-.87-.31-.5-.42-1.11-.47-1.7-.1-1.36,.11-2.74,.61-4.01,.26-.64,.61-1.28,1.19-1.67,.58-.39,1.42-.44,1.93,.04"/></g></g><g class="cls-7"><path d="M338.04,388.87c-.9,6.03-2.36,12.01-4.89,17.56-2.53,5.54-6.18,10.65-10.97,14.41-2.2,1.73-4.77,3.2-7.57,3.28-3.95,.1-7.55-2.73-9.33-6.26s-2.03-7.63-1.82-11.58c1.91,3.19,4.06,6.6,7.52,7.97,2.99,1.19,6.47,.58,9.29-.97,2.82-1.55,5.08-3.94,7.11-6.43,4.28-5.23,7.81-11.06,10.46-17.27"/></g></g><g><g><g><g><path class="cls-6" d="M114.07,350.73c-4.93-1.51-11.03-2.75-14.62,.95-2.03,2.09-2.57,5.31-2.03,8.17,.53,2.87,2,5.47,3.54,7.95,8.89,14.25,21.27,26.31,35.75,34.83,5.28,3.1,12.1,5.7,17.24,2.38,4.8-3.11,5.53-10.19,3.23-15.42-2.3-5.23-6.84-9.09-11.11-12.89-10.15-9.03-20.52-19.18-31.99-25.96"/><path class="cls-10" d="M114.07,350.73s.14,.07,.4,.22c.28,.16,.67,.39,1.16,.68,1.01,.61,2.49,1.54,4.33,2.81,3.7,2.53,8.82,6.55,14.82,11.86,2.99,2.68,6.25,5.6,9.76,8.75,3.46,3.17,7.5,6.29,10.66,10.64,1.54,2.17,2.83,4.69,3.27,7.49,.44,2.77,.2,5.78-1.15,8.42-.68,1.31-1.65,2.5-2.88,3.37-1.22,.88-2.67,1.46-4.17,1.7-3.04,.48-6.13-.29-8.96-1.44-2.87-1.15-5.45-2.78-7.97-4.37-2.52-1.6-4.91-3.32-7.22-5.05-4.57-3.54-8.73-7.27-12.37-11.14-3.65-3.86-6.84-7.78-9.56-11.64-1.35-1.93-2.6-3.84-3.75-5.71-1.14-1.87-2.14-3.75-2.75-5.69-.62-1.93-.79-3.92-.46-5.72,.32-1.8,1.14-3.44,2.35-4.53,1.19-1.11,2.62-1.75,3.97-2,1.36-.27,2.62-.26,3.74-.17,2.25,.21,3.94,.67,5.07,.99,.57,.16,1,.3,1.28,.39,.29,.09,.43,.16,.43,.16,0,0-.15-.03-.45-.1-.31-.08-.74-.2-1.3-.34-1.14-.28-2.84-.71-5.06-.89-1.11-.07-2.36-.06-3.68,.22-1.32,.26-2.69,.89-3.82,1.97-2.33,2.15-3.01,6.21-1.74,9.93,.6,1.89,1.6,3.74,2.74,5.59,1.16,1.85,2.41,3.74,3.76,5.67,2.73,3.83,5.91,7.73,9.56,11.56,3.63,3.84,7.78,7.55,12.33,11.07,2.3,1.72,4.68,3.43,7.19,5.02,2.52,1.58,5.07,3.19,7.89,4.32,2.79,1.13,5.79,1.87,8.68,1.41,1.43-.23,2.8-.78,3.96-1.6,1.16-.83,2.08-1.94,2.73-3.19,1.29-2.51,1.54-5.43,1.12-8.11-.41-2.71-1.66-5.15-3.17-7.29-3.08-4.28-7.1-7.41-10.56-10.59-3.49-3.16-6.74-6.1-9.72-8.79-5.96-5.34-11.03-9.39-14.69-11.97-1.82-1.3-3.28-2.25-4.27-2.89-.48-.31-.86-.55-1.13-.72-.25-.17-.38-.26-.38-.26Z"/></g><g class="cls-7"><path d="M118.61,364.25l.04,.03c-1.93-2.29-4.2-2.3-6.64-2.28-2.43,.03-5,1.09-6.16,3.22-1.34,2.47-.46,5.59,1.04,7.98,.52,.83,1.14,1.64,2.01,2.07,.87,.43,2.05,.38,2.69-.35,.75-.87,.53-2.32,1.36-3.12,.95-.91,2.5-.35,3.81-.49,1.77-.19,3.16-1.91,3.22-3.68,.04-1.26-.51-2.47-1.38-3.38Z"/></g><g class="cls-7"><path d="M109.58,352.6c-.84,.63-.95,1.92-.52,3.1,.43,1.18,1.23,2.18,2.04,3.13,.67,.79,1.63,1.65,2.61,1.32,.56-.19,.94-.74,1.06-1.33,.12-.58,0-1.19-.16-1.75-.38-1.31-1.06-2.53-1.98-3.54-.47-.51-1.02-.99-1.7-1.15-.67-.16-1.48,.09-1.79,.71"/></g><g class="cls-7"><path d="M99.22,359.1c-.84,.63-.95,1.92-.52,3.1,.43,1.18,1.23,2.18,2.04,3.13,.67,.79,1.63,1.65,2.61,1.32,.56-.19,.94-.74,1.06-1.33,.12-.58,0-1.18-.16-1.75-.38-1.31-1.06-2.53-1.98-3.54-.47-.51-1.02-.99-1.7-1.15-.67-.16-1.48,.09-1.79,.71"/></g><g class="cls-7"><path d="M102.36,353.04c-.84,.63-.95,1.92-.52,3.1,.43,1.18,1.23,2.18,2.04,3.13,.67,.79,1.63,1.65,2.61,1.32,.56-.19,.94-.74,1.06-1.33s0-1.18-.16-1.75c-.38-1.31-1.06-2.53-1.98-3.54-.47-.51-1.02-.99-1.7-1.15-.67-.16-1.48,.09-1.79,.71"/></g></g><g class="cls-7"><path d="M120.32,389.96c2.95,5.33,6.42,10.43,10.74,14.73,4.32,4.31,9.52,7.81,15.33,9.65,2.67,.85,5.59,1.33,8.24,.41,3.74-1.29,6.11-5.2,6.54-9.13,.43-3.93-.77-7.86-2.35-11.48-.67,3.66-1.49,7.6-4.25,10.1-2.38,2.16-5.86,2.81-9.04,2.35-3.18-.46-6.14-1.91-8.92-3.53-5.84-3.4-11.19-7.62-15.85-12.51"/></g></g><g class="cls-7"><path class="cls-2" d="M116.65,384.53c-.29,.41-.58,.81-.87,1.22,3.33-5.2,9.6-8.37,15.76-7.96,6.16,.41,11.96,4.38,14.57,9.97,2.61,5.59,1.93,12.59-1.71,17.57-11.2-4.57-21.45-11.48-29.9-20.14"/></g></g><path class="cls-10" d="M398.97,374.66s0,.23-.06,.67c-.07,.49-.15,1.13-.26,1.92-.23,1.67-.62,4.07-1.17,7.03-1.12,5.9-2.88,14.07-6.16,22.68-1.67,4.29-3.56,8.26-5.58,11.7-.51,.86-1.06,1.66-1.57,2.46l-.76,1.17-.81,1.08c-.53,.71-1.05,1.39-1.54,2.05-.53,.63-1.06,1.22-1.56,1.78-.51,.56-.95,1.13-1.45,1.59-.49,.47-.95,.91-1.39,1.33-.43,.41-.83,.79-1.21,1.15-.4,.32-.76,.61-1.1,.87-.63,.49-1.14,.89-1.53,1.19-.35,.27-.54,.4-.55,.39-.01-.01,.16-.18,.49-.47,.38-.32,.86-.74,1.46-1.26,.32-.27,.68-.58,1.06-.9,.36-.36,.75-.76,1.17-1.18,.42-.42,.87-.87,1.35-1.35,.48-.47,.91-1.04,1.41-1.6,.49-.57,.99-1.17,1.52-1.79l1.51-2.06c.26-.35,.53-.72,.79-1.08,.24-.38,.49-.78,.74-1.17,.5-.8,1.03-1.6,1.54-2.45,1.99-3.43,3.85-7.37,5.51-11.64,3.27-8.55,5.08-16.68,6.29-22.56,.59-2.94,1.04-5.33,1.33-6.99,.15-.78,.27-1.42,.36-1.9,.09-.43,.14-.66,.16-.66Z"/><g><path class="cls-10" d="M168.9,314.01s.15-.18,.46-.48c.36-.34,.82-.77,1.39-1.31,.61-.57,1.36-1.25,2.26-2.01,.9-.77,1.9-1.66,3.06-2.58,2.29-1.89,5.1-4.03,8.31-6.3,3.22-2.24,6.84-4.6,10.76-6.88,3.93-2.26,7.77-4.23,11.32-5.91,3.56-1.65,6.82-3.03,9.6-4.07,1.38-.55,2.65-.98,3.76-1.37,1.11-.4,2.07-.71,2.87-.96,.75-.23,1.36-.42,1.83-.56,.42-.12,.64-.18,.65-.16s-.21,.11-.61,.26c-.46,.17-1.06,.38-1.79,.65-.78,.27-1.74,.61-2.83,1.04-1.1,.42-2.36,.87-3.73,1.44-2.75,1.09-5.99,2.49-9.53,4.17-3.53,1.7-7.35,3.68-11.26,5.93-3.9,2.27-7.52,4.61-10.74,6.82-3.21,2.24-6.04,4.34-8.35,6.19-1.18,.9-2.19,1.77-3.11,2.52-.92,.74-1.68,1.4-2.31,1.94-.6,.51-1.08,.92-1.46,1.23-.34,.28-.52,.42-.53,.4Z"/><path class="cls-10" d="M140.76,297.3s.06-.06,.18-.14c.15-.1,.34-.23,.56-.38,.54-.34,1.27-.81,2.19-1.4,.95-.61,2.12-1.34,3.52-2.13,1.39-.8,2.96-1.75,4.76-2.67,.89-.47,1.83-.97,2.8-1.49,.98-.51,2.02-.99,3.09-1.52,2.12-1.07,4.46-2.08,6.9-3.16,4.93-2.08,10.43-4.16,16.33-5.99,5.91-1.8,11.63-3.17,16.88-4.21,2.63-.47,5.13-.95,7.49-1.26,1.18-.16,2.31-.35,3.41-.48,1.1-.12,2.15-.23,3.15-.34,2.01-.25,3.84-.34,5.44-.46,1.6-.13,2.98-.19,4.11-.21,1.09-.03,1.96-.05,2.6-.07,.27,0,.49,0,.68,0,.15,0,.23,0,.23,.02,0,0-.08,.02-.23,.04-.18,.02-.4,.03-.67,.06-.64,.04-1.5,.1-2.59,.17-1.13,.06-2.51,.14-4.1,.3-1.6,.15-3.42,.27-5.42,.54-1,.12-2.05,.25-3.14,.38-1.09,.13-2.22,.33-3.39,.5-2.35,.32-4.84,.82-7.46,1.3-5.22,1.07-10.93,2.45-16.82,4.24-5.88,1.83-11.37,3.88-16.29,5.93-2.44,1.07-4.78,2.06-6.9,3.11-1.07,.52-2.11,.99-3.09,1.49-.98,.5-1.92,.99-2.81,1.45-1.81,.9-3.38,1.83-4.79,2.6-1.41,.76-2.6,1.47-3.56,2.05-.94,.55-1.69,.99-2.24,1.32l-.59,.33c-.13,.07-.21,.11-.21,.1Z"/><path class="cls-10" d="M259.93,264.34c.06,.15-2.52,1.24-5.37,3.15-2.86,1.89-4.86,3.86-4.97,3.74-.1-.08,1.77-2.25,4.68-4.18,2.9-1.95,5.62-2.84,5.66-2.71Z"/><path class="cls-10" d="M276.85,269.78c-.04,.09-1.48-.57-3.93-1.2-2.44-.65-5.94-1.18-9.79-.89-3.84,.29-7.29,1.21-9.44,2.51-2.19,1.29-2.86,2.83-2.95,2.76-.02-.01,.11-.39,.52-.99,.41-.59,1.14-1.38,2.23-2.08,2.18-1.43,5.69-2.42,9.6-2.71,3.92-.29,7.48,.31,9.92,1.06,1.23,.36,2.19,.75,2.85,1.03,.65,.3,1,.49,.98,.52Z"/><path class="cls-4" d="M243.99,278.11s.78,1.87,1.17,2.8c.31,.74,.62,1.49,.7,2.29s-.1,1.66-.66,2.23c-.83,.84-2.27,.8-3.26,.17-.99-.63-1.61-1.71-2.04-2.81-.42-1.1-.7-2.26-1.21-3.31,0,0,2.12-1.72,1.64-4.75,0,0,1.07,3.2,3.67,3.38Z"/><g><g><path class="cls-10" d="M227.66,267.91s2.52-5.71,8.89-7.39c6.37-1.68,13.02,5.02,13.02,5.02,0,0-7.72-2.27-7.6,1.56,.12,3.83,2.38,3.74-.18,6.26-2.56,2.51-6.95-.13-8.03-3.09l-2.06-2.9-4.03,.55Z"/><path class="cls-10" d="M254.08,271.69s.04,.12,.06,.36c.03,.24,.02,.59-.03,1.04-.11,.89-.48,2.21-1.49,3.52-.99,1.27-2.67,2.59-4.89,2.8-2.19,.24-4.67-.73-6.33-2.63-.78-.9-1.32-1.97-1.57-3.07l.49-.14c.68,2.05,.18,4.18-.83,5.64-1.02,1.5-2.56,2.25-3.84,2.49-1.3,.25-2.36,.06-3.04-.15-.34-.11-.59-.22-.76-.31-.16-.09-.24-.14-.24-.16,.02-.04,.37,.13,1.04,.3,.67,.16,1.7,.28,2.92,0,1.2-.27,2.62-1.01,3.54-2.41,.92-1.37,1.35-3.36,.72-5.22l.49-.14c.24,1.01,.74,2,1.47,2.84,1.55,1.78,3.87,2.7,5.89,2.5,2.05-.17,3.67-1.37,4.65-2.55,1-1.21,1.41-2.46,1.58-3.32,.16-.87,.12-1.37,.17-1.37Z"/></g><path class="cls-2" d="M241.72,261.45c0,.08-.79,.07-2.04,.09-1.25,.03-2.99,.09-4.79,.62-1.8,.54-3.23,1.54-4.05,2.44-.84,.9-1.13,1.64-1.21,1.6-.05-.01,.12-.82,.93-1.84,.79-1.02,2.29-2.14,4.18-2.7,1.89-.56,3.69-.56,4.95-.49,1.27,.08,2.04,.22,2.03,.28Z"/></g><path class="cls-10" d="M243.64,286.3c-.12,.06-1.26-2.21-2.16-5.2-.91-2.99-1.21-5.5-1.08-5.52,.15-.03,.68,2.42,1.57,5.37,.89,2.95,1.8,5.29,1.66,5.35Z"/><path class="cls-10" d="M172.44,297.52s.13-.14,.4-.35c.32-.25,.72-.56,1.21-.94,1.05-.81,2.62-1.92,4.61-3.22,1.98-1.31,4.42-2.76,7.18-4.26,2.78-1.47,5.89-2.98,9.25-4.37,3.36-1.37,6.64-2.5,9.65-3.41,3.02-.88,5.77-1.57,8.1-2.03,2.33-.48,4.23-.8,5.54-.96,.61-.08,1.11-.14,1.52-.19,.35-.04,.53-.05,.53-.03,0,.02-.18,.06-.52,.13-.4,.08-.9,.17-1.5,.28-1.31,.22-3.19,.6-5.5,1.12-2.31,.51-5.04,1.23-8.04,2.13-2.99,.93-6.24,2.06-9.59,3.43-3.34,1.38-6.44,2.87-9.22,4.31-2.76,1.47-5.21,2.88-7.21,4.14-2.01,1.26-3.61,2.32-4.69,3.08-.51,.34-.93,.63-1.27,.86-.29,.19-.45,.28-.46,.27Z"/></g><g><circle class="cls-4" cx="200.63" cy="248.26" r="22.55" transform="translate(-87.4 385.82) rotate(-76.59)"/><path class="cls-10" d="M223.17,248.26c0,10.89-7.34,19.71-13.57,19.71s-11.27-8.82-11.27-19.71,5.05-19.71,11.27-19.71,13.57,8.82,13.57,19.71Z"/><circle class="cls-2" cx="214.61" cy="237.11" r="3.86"/><path class="cls-2" d="M204.63,262.59s-.23-.32-.56-.95c-.34-.62-.76-1.56-1.21-2.75-.45-1.19-.87-2.65-1.21-4.3-.31-1.65-.53-3.5-.56-5.44-.01-1.95,.17-3.79,.45-5.45,.31-1.66,.69-3.12,1.12-4.32,.42-1.2,.82-2.15,1.15-2.78,.32-.63,.51-.97,.55-.96,.09,.04-.61,1.45-1.35,3.85-.38,1.2-.72,2.65-1,4.29-.25,1.64-.41,3.46-.4,5.37,.03,1.91,.23,3.73,.51,5.36,.31,1.63,.68,3.08,1.08,4.27,.79,2.38,1.51,3.78,1.43,3.82Z"/><path class="cls-10" d="M194.9,219.54c-.06,.73-.9,1.29-2.03,1.81-1.14,.54-2.59,1.03-4.06,1.66-1.48,.62-2.76,1.26-3.86,1.75-1.09,.48-2.03,.8-2.65,.41-.59-.36-.73-1.48-.04-2.93,.67-1.44,2.29-3.11,4.53-4.03,2.22-.95,4.44-.93,5.9-.54,1.49,.41,2.27,1.16,2.21,1.87Z"/></g><g><g><g><path class="cls-6" d="M87.28,411.66l5.06-7.94c24.14,26.52,103.9,58.06,175.32-13.23,30.67-30.62,28.19-82.36,28.19-82.36l-6.1-19.16h6.1s17.68,32.61-.83,75.31c0,0-19.04,50.61-77.17,68.98-91.76,29-130.57-21.6-130.57-21.6Z"/><g class="cls-1"><path class="cls-2" d="M87.28,411.66l5.06-7.94c24.14,26.52,103.9,58.06,175.32-13.23,30.67-30.62,28.19-82.36,28.19-82.36l-6.1-19.16h6.1s17.68,32.61-.83,75.31c0,0-19.04,50.61-77.17,68.98-91.76,29-130.57-21.6-130.57-21.6Z"/></g></g><g><circle class="cls-6" cx="55.26" cy="390.71" r="43.35" transform="translate(-260.09 153.51) rotate(-45)"/><g class="cls-1"><circle class="cls-2" cx="55.26" cy="390.71" r="43.35" transform="translate(-260.09 153.51) rotate(-45)"/></g><path class="cls-6" d="M65.65,348.57s-.03,.29-.15,.82c-.13,.58-.3,1.36-.52,2.35-.12,.51-.25,1.08-.39,1.69-.16,.62-.36,1.27-.56,1.99-.42,1.42-.84,3.06-1.49,4.81-.31,.88-.63,1.81-.97,2.77-.34,.96-.77,1.93-1.18,2.95-.79,2.05-1.82,4.16-2.87,6.39-2.22,4.41-4.95,9.12-8.22,13.79-3.32,4.64-6.87,8.77-10.29,12.33-1.76,1.73-3.41,3.41-5.08,4.83-.83,.72-1.6,1.45-2.39,2.09-.8,.64-1.56,1.25-2.29,1.83-1.44,1.2-2.84,2.13-4.04,3-.61,.43-1.16,.84-1.69,1.19-.53,.34-1.02,.65-1.47,.93-.85,.53-1.53,.95-2.04,1.27-.47,.28-.72,.43-.73,.41,0-.02,.22-.19,.67-.5,.49-.33,1.15-.78,1.98-1.35,.44-.29,.92-.61,1.44-.96,.52-.36,1.06-.78,1.66-1.22,1.18-.89,2.57-1.84,3.98-3.05,.72-.59,1.48-1.21,2.26-1.85,.78-.65,1.54-1.38,2.36-2.1,1.66-1.43,3.28-3.11,5.03-4.84,3.39-3.56,6.91-7.68,10.21-12.29,3.26-4.64,5.98-9.32,8.22-13.7,1.06-2.22,2.1-4.31,2.9-6.34,.41-1.01,.85-1.97,1.2-2.93,.35-.95,.68-1.87,1-2.74,.67-1.74,1.11-3.36,1.56-4.77,.21-.71,.43-1.36,.6-1.97,.16-.61,.3-1.17,.43-1.68,.26-.97,.46-1.74,.61-2.32,.15-.53,.23-.81,.25-.8Z"/><path class="cls-6" d="M75.9,352.99s-.04,.3-.17,.87c-.14,.61-.34,1.43-.58,2.47-.13,.54-.28,1.14-.43,1.78-.17,.65-.4,1.34-.62,2.09-.48,1.49-.93,3.22-1.65,5.06-.34,.93-.7,1.9-1.07,2.91-.37,1.01-.85,2.03-1.3,3.1-.87,2.15-2.01,4.36-3.18,6.7-2.45,4.61-5.47,9.51-9.09,14.33-3.66,4.79-7.58,9.02-11.34,12.64-1.92,1.77-3.74,3.46-5.56,4.9-.9,.73-1.74,1.48-2.61,2.11-.86,.64-1.69,1.26-2.49,1.85-1.56,1.21-3.09,2.14-4.38,3.03-1.29,.89-2.45,1.58-3.41,2.13-.92,.54-1.65,.96-2.19,1.28-.5,.29-.77,.43-.78,.42,0-.02,.24-.19,.73-.51,.53-.34,1.24-.79,2.14-1.36,.94-.58,2.08-1.29,3.35-2.2,1.27-.91,2.78-1.86,4.32-3.08,.78-.6,1.6-1.22,2.46-1.87,.86-.64,1.69-1.4,2.58-2.13,1.8-1.45,3.6-3.15,5.5-4.92,3.73-3.62,7.61-7.84,11.25-12.61,3.61-4.8,6.62-9.67,9.08-14.24,1.17-2.32,2.32-4.51,3.21-6.65,.45-1.06,.95-2.07,1.32-3.07,.38-1,.75-1.96,1.1-2.88,.75-1.82,1.22-3.54,1.72-5.02,.24-.75,.48-1.43,.66-2.08,.17-.64,.33-1.23,.48-1.77,.28-1.03,.51-1.84,.68-2.44,.16-.56,.25-.85,.27-.85Z"/><path class="cls-6" d="M85.4,360.78s-.06,.3-.22,.86c-.18,.6-.43,1.42-.74,2.45-.17,.54-.35,1.13-.55,1.77-.21,.64-.48,1.33-.75,2.07-.56,1.48-1.13,3.19-1.94,5-.39,.92-.8,1.87-1.23,2.87-.43,1-.96,2-1.46,3.05-.98,2.13-2.22,4.3-3.49,6.61-2.65,4.55-5.84,9.39-9.59,14.18-3.79,4.75-7.78,8.97-11.6,12.59-1.96,1.76-3.79,3.47-5.63,4.91-.91,.73-1.77,1.47-2.64,2.12-.87,.64-1.71,1.26-2.51,1.86-1.58,1.21-3.11,2.16-4.42,3.04-.66,.43-1.27,.85-1.84,1.2-.58,.34-1.11,.65-1.6,.94-.93,.54-1.67,.97-2.22,1.28-.51,.29-.78,.43-.79,.42,0-.02,.25-.19,.74-.51,.53-.34,1.25-.79,2.16-1.36,.48-.3,1-.62,1.57-.97,.57-.37,1.16-.79,1.82-1.24,1.29-.9,2.81-1.87,4.37-3.1,.79-.6,1.62-1.22,2.48-1.88,.86-.66,1.71-1.4,2.61-2.14,1.83-1.45,3.64-3.16,5.58-4.93,3.78-3.63,7.74-7.83,11.52-12.57,3.73-4.76,6.92-9.58,9.58-14.09,1.27-2.29,2.52-4.45,3.51-6.56,.51-1.05,1.04-2.04,1.48-3.03,.44-.99,.85-1.94,1.25-2.85,.84-1.8,1.43-3.5,2.01-4.96,.28-.74,.56-1.42,.79-2.05,.21-.64,.41-1.22,.59-1.75,.35-1.02,.63-1.82,.83-2.42,.2-.55,.31-.84,.32-.83Z"/><path class="cls-6" d="M96.74,401.91s-.36-.11-.97-.4c-.61-.28-1.47-.72-2.53-1.27-2.12-1.1-5.02-2.7-8.15-4.58-3.13-1.88-5.9-3.69-7.87-5.05-.98-.68-1.77-1.24-2.31-1.64-.54-.4-.82-.64-.8-.67,.02-.03,.35,.15,.91,.5,.66,.42,1.46,.92,2.4,1.5,2.02,1.28,4.81,3.03,7.93,4.91,3.12,1.88,5.98,3.52,8.05,4.71,.96,.55,1.77,1.02,2.45,1.41,.58,.34,.89,.54,.87,.57Z"/><path class="cls-6" d="M98.57,392.54c-.05,.06-1.14-.7-2.91-1.9-1.77-1.21-4.23-2.85-7.02-4.55-2.79-1.69-5.38-3.13-7.26-4.17-1.88-1.04-3.03-1.69-3-1.75,.02-.03,.33,.09,.88,.33,.55,.24,1.33,.62,2.3,1.09,1.92,.96,4.55,2.35,7.36,4.05,2.8,1.7,5.24,3.4,6.96,4.69,.86,.65,1.54,1.18,2.01,1.57,.46,.38,.71,.61,.69,.64Z"/><path class="cls-6" d="M71.85,429.86c-.14,0-.48-7.95-.76-17.75-.27-9.81-.38-17.77-.24-17.77,.14,0,.48,7.94,.76,17.76,.27,9.81,.38,17.76,.24,17.77Z"/><path class="cls-6" d="M50.48,434.83c-.14,0-.26-4.45-.26-9.93s.12-9.93,.26-9.93,.26,4.45,.26,9.93-.12,9.93-.26,9.93Z"/><path class="cls-6" d="M60.99,433.68c-.14,0-.22-6.5-.16-14.51,.05-8.02,.21-14.51,.36-14.51s.22,6.5,.16,14.52c-.05,8.01-.21,14.51-.36,14.51Z"/><path class="cls-6" d="M38.83,398.46c-.08,.12-5.74-3.54-12.64-8.16-6.9-4.63-12.43-8.48-12.35-8.6,.08-.12,5.74,3.53,12.64,8.16,6.9,4.63,12.43,8.48,12.35,8.6Z"/><path class="cls-6" d="M31.27,404.66s-.32-.07-.85-.28c-.54-.21-1.3-.55-2.23-.99-1.86-.88-4.38-2.23-7.04-3.91-2.66-1.68-4.98-3.34-6.62-4.59-1.64-1.25-2.62-2.07-2.57-2.12,.04-.06,1.1,.66,2.79,1.82,1.69,1.16,4.03,2.77,6.68,4.44,2.65,1.67,5.12,3.06,6.93,4.02,1.81,.97,2.95,1.53,2.92,1.6Z"/><path class="cls-6" d="M57.3,372.26s-.53,.24-1.53,.59c-.49,.18-1.11,.37-1.83,.56-.72,.2-1.54,.43-2.47,.62-1.83,.44-4.06,.76-6.54,1.03-2.48,.22-5.22,.33-8.1,.25-2.88-.1-5.6-.39-8.07-.75-2.46-.42-4.66-.85-6.47-1.38-.91-.23-1.72-.49-2.44-.73-.71-.22-1.32-.43-1.81-.63-.98-.38-1.52-.61-1.5-.64,.01-.03,.57,.13,1.57,.45,.5,.17,1.11,.35,1.83,.55,.72,.2,1.53,.44,2.44,.65,1.81,.48,4.01,.87,6.45,1.26,2.45,.34,5.16,.6,8.01,.7,2.85,.08,5.57-.02,8.04-.21,2.46-.25,4.67-.52,6.5-.92,.92-.16,1.74-.36,2.47-.54,.73-.16,1.35-.32,1.85-.48,1.01-.29,1.57-.43,1.59-.39Z"/><path class="cls-6" d="M62.09,361.04s-.51,.28-1.47,.69c-.48,.22-1.08,.44-1.78,.69-.7,.26-1.5,.54-2.4,.8-1.78,.58-3.96,1.09-6.38,1.59-2.44,.45-5.14,.83-7.99,1.03-2.85,.18-5.58,.17-8.06,.03-2.47-.2-4.69-.45-6.52-.86-.92-.16-1.74-.38-2.46-.58-.72-.18-1.34-.36-1.83-.55-.99-.34-1.53-.55-1.52-.58,.01-.03,.57,.11,1.58,.39,.5,.15,1.12,.3,1.84,.46,.72,.17,1.54,.36,2.46,.5,1.83,.36,4.03,.57,6.48,.74,2.46,.11,5.16,.11,7.99-.07,2.83-.2,5.51-.56,7.94-.98,2.41-.47,4.58-.94,6.37-1.47,.9-.24,1.7-.49,2.41-.72,.71-.22,1.31-.42,1.8-.6,.98-.35,1.53-.53,1.55-.5Z"/><path class="cls-6" d="M65.05,351.16s-.46,.23-1.32,.55c-.86,.33-2.13,.76-3.7,1.24-3.15,.97-7.58,2.1-12.57,2.83-4.99,.72-9.57,.86-12.87,.72-1.65-.06-2.98-.16-3.9-.28-.92-.11-1.42-.18-1.42-.22,0-.04,.51-.03,1.43,.02,.92,.05,2.25,.1,3.89,.11,3.28,.04,7.83-.16,12.79-.87,4.96-.72,9.38-1.79,12.54-2.67,1.58-.44,2.86-.81,3.74-1.08,.88-.26,1.38-.39,1.39-.36Z"/><path class="cls-6" d="M82.57,393.81c.11,.1-2.38,2.99-5.55,6.45-3.17,3.47-5.82,6.2-5.93,6.1-.11-.1,2.38-2.99,5.55-6.45,3.17-3.47,5.82-6.2,5.93-6.1Z"/><path class="cls-6" d="M90.89,398.73s-.13,.32-.45,.84c-.32,.53-.81,1.26-1.46,2.15-1.3,1.77-3.28,4.09-5.79,6.31-2.52,2.22-5.08,3.89-7,4.95-.96,.53-1.75,.93-2.31,1.18-.56,.25-.88,.38-.89,.34-.04-.08,1.16-.7,3.02-1.84,1.86-1.14,4.35-2.83,6.84-5.02,2.49-2.19,4.48-4.45,5.85-6.15,1.36-1.7,2.14-2.81,2.21-2.76Z"/></g><path class="cls-6" d="M93.41,403.18c.13,0-.11,2.73-1.74,5.61-1.6,2.9-3.81,4.53-3.87,4.42-.11-.12,1.87-1.87,3.41-4.67,1.58-2.78,2.03-5.39,2.19-5.35Z"/><path class="cls-6" d="M101.8,412.36c.13,.02-.4,2.22-2.12,4.34-1.7,2.14-3.73,3.13-3.78,3.01-.09-.13,1.74-1.28,3.37-3.33,1.65-2.03,2.38-4.07,2.53-4.01Z"/><path class="cls-6" d="M115.31,420.62c.13-.02,.1,2.38-1.3,4.91-1.37,2.54-3.37,3.86-3.43,3.74-.11-.12,1.67-1.57,2.97-3.99,1.34-2.41,1.59-4.68,1.76-4.66Z"/><path class="cls-6" d="M130.9,428.12c.12-.05,.54,2.25-.49,4.84-1,2.6-2.87,4-2.93,3.88-.12-.11,1.5-1.61,2.44-4.07,.98-2.45,.81-4.65,.97-4.65Z"/><path class="cls-6" d="M145.24,440.91c-.15-.05,.45-1.98,.59-4.44,.16-2.46-.21-4.45-.06-4.48,.12-.04,.74,1.96,.58,4.51-.14,2.55-.99,4.46-1.11,4.41Z"/><path class="cls-6" d="M156.99,441.77c-.15-.06,.58-1.8,.77-4.06,.21-2.27-.2-4.1-.04-4.14,.12-.05,.78,1.81,.56,4.18-.2,2.38-1.18,4.09-1.29,4.02Z"/><path class="cls-6" d="M173.43,441.61c-.15-.03,.09-1.71-.18-3.76-.25-2.05-.91-3.62-.77-3.68,.11-.07,1.02,1.47,1.29,3.62,.28,2.15-.21,3.86-.34,3.82Z"/><path class="cls-6" d="M184.78,440.7c-.16,0-.16-1.61-.7-3.49-.52-1.88-1.35-3.26-1.22-3.34,.1-.09,1.17,1.22,1.72,3.2,.56,1.97,.33,3.65,.2,3.63Z"/><path class="cls-6" d="M198.11,437.73c-.16,0-.08-1.57-.67-3.36-.56-1.8-1.53-3.02-1.41-3.12,.08-.1,1.3,1.05,1.91,2.96,.62,1.91,.3,3.55,.17,3.52Z"/><path class="cls-6" d="M214.53,434.39c-.16,0-.17-1.75-.91-3.74-.71-1.99-1.83-3.35-1.71-3.45,.08-.1,1.44,1.17,2.2,3.27,.78,2.1,.55,3.94,.42,3.92Z"/><path class="cls-6" d="M228.4,428.99c-.15,.04-.7-1.77-1.88-3.74-1.16-1.99-2.49-3.34-2.38-3.45,.08-.1,1.61,1.12,2.82,3.19,1.22,2.05,1.56,3.99,1.43,4.01Z"/><path class="cls-6" d="M243.84,420.88c-.15,.04-.62-1.88-1.88-3.9-1.24-2.03-2.75-3.3-2.64-3.43,.06-.11,1.78,1.03,3.08,3.15,1.32,2.11,1.57,4.16,1.44,4.17Z"/><path class="cls-6" d="M258.95,410.06c-.15,.05-.74-1.69-2.21-3.36-1.44-1.68-3.09-2.52-3.01-2.66,.03-.13,1.87,.54,3.41,2.32,1.55,1.77,1.95,3.68,1.82,3.7Z"/><path class="cls-6" d="M271.89,399c-.13,.09-1.33-1.52-3.15-3.17-1.81-1.66-3.52-2.71-3.44-2.84,.06-.12,1.93,.75,3.79,2.46,1.87,1.7,2.91,3.48,2.8,3.55Z"/><path class="cls-6" d="M283.48,384.59c-.13,.08-1.13-1.54-2.89-3.01-1.75-1.49-3.51-2.2-3.45-2.35,.03-.13,1.95,.39,3.79,1.95,1.85,1.55,2.68,3.36,2.56,3.41Z"/><path class="cls-6" d="M293.8,367.44c-.12,.11-1.48-1.42-3.65-2.59-2.16-1.2-4.17-1.53-4.14-1.69,0-.13,2.14-.02,4.39,1.23,2.27,1.24,3.51,2.99,3.39,3.05Z"/><path class="cls-6" d="M300.09,348.91c-.09,.13-1.81-1.14-4.3-1.71-2.49-.61-4.6-.23-4.62-.39-.05-.12,2.11-.75,4.74-.12,2.63,.61,4.29,2.14,4.19,2.22Z"/><path class="cls-6" d="M302.88,329.01c-.06,.14-1.68-.42-3.77-.64-2.09-.24-3.8-.04-3.82-.19-.03-.13,1.71-.57,3.88-.32,2.17,.23,3.77,1.04,3.71,1.16Z"/><path class="cls-6" d="M301.84,309.08c-.02,.15-1.29,.04-2.83,.12-1.55,.06-2.79,.28-2.83,.14-.04-.13,1.2-.59,2.81-.66,1.61-.08,2.88,.27,2.86,.4Z"/><path class="cls-6" d="M297.76,295.39c-.06,.14-1.33-.46-2.96-.27-1.64,.16-2.74,1.02-2.84,.89-.04-.05,.18-.34,.66-.66,.48-.32,1.23-.65,2.12-.75,.89-.09,1.7,.06,2.23,.28,.54,.21,.81,.45,.78,.51Z"/></g><g class="cls-7"><path d="M229.95,362.68c4.86,9.21,16.16,13.94,26.5,12.68,10.34-1.26,19.55-7.69,25.97-15.89,4.74-6.06,8.27-13.91,6.31-21.35-5.07,10.53-14.23,19.02-25.11,23.29-10.88,4.27-23.37,4.26-34.25,0"/></g><g><g><path class="cls-6" d="M290.46,283.41c-2.29-3.54-3.16-7.97-2.38-12.11,.79-4.14,3.22-7.95,6.66-10.39,2.76-1.97,6.09-3.07,8.7-5.23,3.26-2.7,5.1-6.89,5.4-11.12,.3-4.22-.84-8.47-2.73-12.25l2.78-1.37s.09,.1,.24,.3c7.92,10.3,4.32,25.26-7.33,31-2.27,1.12-4.42,2.36-5.84,3.59-3.47,3.02-2.05,6.41-2.05,6.41"/><g class="cls-1"><path class="cls-2" d="M290.46,283.41c-2.29-3.54-3.16-7.97-2.38-12.11,.79-4.14,3.22-7.95,6.66-10.39,2.76-1.97,6.09-3.07,8.7-5.23,3.26-2.7,5.1-6.89,5.4-11.12,.3-4.22-.84-8.47-2.73-12.25l2.78-1.37s.09,.1,.24,.3c7.92,10.3,4.32,25.26-7.33,31-2.27,1.12-4.42,2.36-5.84,3.59-3.47,3.02-2.05,6.41-2.05,6.41"/></g><path class="cls-6" d="M294.41,272.42c-.06,.15-1.54-.5-3.45-.31-1.91,.16-3.25,1.06-3.33,.93-.11-.08,1.21-1.27,3.29-1.45,2.07-.2,3.58,.72,3.5,.83Z"/><path class="cls-6" d="M296.99,264.78c-.14,.06-.58-.81-1.4-1.64-.81-.83-1.68-1.28-1.62-1.42,.04-.13,1.09,.13,1.99,1.05,.91,.92,1.17,1.97,1.03,2Z"/><path class="cls-6" d="M306.8,258.99c-.15,.04-.51-.92-1.29-1.87-.77-.96-1.64-1.51-1.57-1.65,.05-.13,1.12,.26,1.97,1.32,.86,1.05,1.02,2.18,.89,2.2Z"/><path class="cls-6" d="M313.41,246.54c-.06,.14-1.03-.2-2.27-.35-1.23-.17-2.26-.1-2.28-.25-.03-.13,1.03-.45,2.35-.27,1.33,.17,2.26,.75,2.2,.87Z"/><path class="cls-6" d="M311.14,234.52c-.02,.15-.85,.1-1.79,.38-.94,.26-1.62,.73-1.72,.62-.1-.09,.5-.81,1.58-1.12,1.07-.31,1.97-.01,1.93,.12Z"/></g><g><g><path class="cls-6" d="M218.58,308.55c3.54-2.31,8.23-1.55,12.24-.22,4.01,1.33,8.06,3.17,12.27,2.78,4.58-.43,8.51-3.49,11.55-6.95,3.73-4.26,6.53-9.32,8.16-14.75,1.67-5.54,2.51-12.06,7.28-15.34,4.65-3.2,11.39-1.62,15.49,2.25,4.1,3.88,6.08,9.48,7.37,14.97,3,12.72,3.05,26.29-1.06,38.7-4.12,12.4-12.59,23.53-24.09,29.75-11.5,6.22-26,7.11-37.7,1.29"/><path class="cls-10" d="M230.1,361.04s.19,.07,.54,.22c.37,.16,.89,.39,1.56,.68,.7,.27,1.57,.59,2.6,.95,1.05,.31,2.25,.69,3.64,.97,2.77,.61,6.24,1.04,10.26,.91,2.01-.1,4.16-.28,6.4-.73,2.25-.41,4.58-1.04,6.95-1.92,4.77-1.7,9.63-4.56,14.11-8.48,4.48-3.92,8.54-8.95,11.69-14.86,3.17-5.9,5.35-12.69,6.34-19.91,1.02-7.22,.81-14.85-.48-22.48-.67-3.81-1.5-7.56-2.81-11.08-1.32-3.49-3.2-6.8-5.93-9.17-2.71-2.35-6.27-3.67-9.72-3.5-1.72,.07-3.39,.61-4.81,1.5-1.43,.89-2.55,2.19-3.4,3.59-1.72,2.85-2.46,6.09-3.3,9.15-.79,3.09-1.81,6.06-3.16,8.74-1.33,2.69-2.92,5.14-4.67,7.32-1.74,2.17-3.65,4.1-5.76,5.57-2.1,1.47-4.42,2.46-6.73,2.73-2.32,.28-4.51-.14-6.45-.69-3.89-1.15-7.06-2.63-9.88-3.08-2.79-.54-5.03-.29-6.45,.16-.71,.23-1.23,.47-1.56,.65-.33,.19-.51,.27-.51,.27,0,0,.16-.11,.49-.32,.33-.2,.84-.46,1.55-.71,1.42-.49,3.69-.77,6.51-.26,2.84,.43,6.06,1.89,9.92,3,1.93,.53,4.08,.92,6.33,.64,2.25-.27,4.51-1.25,6.56-2.7,2.06-1.45,3.94-3.36,5.65-5.52,1.72-2.16,3.28-4.59,4.6-7.26,1.33-2.67,2.33-5.58,3.1-8.67,.84-3.06,1.56-6.33,3.33-9.28,.89-1.45,2.05-2.81,3.55-3.75,1.49-.95,3.25-1.52,5.04-1.59,1.8-.09,3.62,.19,5.33,.83,1.72,.62,3.35,1.55,4.75,2.78,2.83,2.45,4.74,5.83,6.09,9.37,1.33,3.57,2.16,7.34,2.84,11.17,1.29,7.67,1.5,15.36,.47,22.64-1.01,7.27-3.22,14.12-6.42,20.07-3.19,5.95-7.3,11.02-11.83,14.96-4.54,3.93-9.45,6.8-14.27,8.5-2.4,.88-4.76,1.5-7.02,1.9-2.26,.44-4.43,.61-6.45,.7-4.06,.11-7.54-.36-10.32-1-1.4-.3-2.6-.7-3.65-1.02-1.03-.38-1.9-.71-2.59-1-.66-.31-1.18-.56-1.54-.73-.35-.17-.52-.26-.52-.26Z"/></g><path class="cls-10" d="M273.14,285.81s-.61-.48-1.2-1.56c-.6-1.07-1.13-2.74-1.11-4.64,.03-1.89,.61-3.55,1.24-4.6,.62-1.06,1.21-1.57,1.25-1.53,.07,.06-.4,.64-.92,1.7-.52,1.06-1.01,2.64-1.04,4.44-.02,1.8,.42,3.39,.92,4.47,.49,1.08,.94,1.67,.87,1.73Z"/><path class="cls-10" d="M279.21,284.94s-.53-.55-1.06-1.65c-.53-1.09-1.05-2.73-1.16-4.59-.11-1.87,.2-3.55,.6-4.7,.39-1.15,.8-1.79,.85-1.77,.16,.05-1.18,2.8-.93,6.43,.19,3.64,1.86,6.21,1.7,6.27Z"/><path class="cls-10" d="M284.06,286.68c-.12,.04-.83-2.08-.76-4.8,.06-2.73,.88-4.81,1-4.76,.15,.04-.42,2.13-.48,4.77-.08,2.64,.39,4.75,.23,4.79Z"/></g><g><path class="cls-6" d="M367.56,299.16c-9.15,5.58-21.32,4.52-30.8-.49-9.48-5.01-16.66-13.39-22.65-22.2-1.7-2.5-3.42-5.15-6.07-6.65-5.18-2.96-12.36-.1-15.34,5.02-2.98,5.13-2.42,11.65-.12,17.1,0,0,6.1,29.56,37.9,47.94"/><path class="cls-10" d="M330.49,339.88s-.09-.04-.27-.14c-.19-.12-.45-.27-.77-.46-.7-.43-1.7-1.04-2.98-1.83-.64-.42-1.39-.81-2.14-1.37-.75-.55-1.57-1.15-2.46-1.8-.87-.67-1.87-1.3-2.8-2.12-.95-.81-1.96-1.67-3.02-2.58-4.14-3.73-8.83-8.61-13.11-14.89-2.18-3.11-4.19-6.61-6.03-10.38-1.81-3.79-3.48-7.87-4.56-12.31v.05c-1.39-3.35-2.21-7.17-1.83-11.07,.22-1.94,.72-3.89,1.66-5.67,.91-1.8,2.31-3.36,3.98-4.53,2.46-1.73,5.49-2.66,8.44-2.32,1.47,.16,2.88,.7,4.11,1.48,1.22,.8,2.23,1.84,3.12,2.93,.89,1.1,1.66,2.25,2.43,3.39,.77,1.13,1.55,2.24,2.33,3.33,1.57,2.17,3.19,4.23,4.87,6.17,3.34,3.87,6.92,7.2,10.63,9.82,3.71,2.61,7.54,4.52,11.24,5.62,7.41,2.3,13.91,1.74,18.03,.56,.53-.13,1.01-.28,1.46-.45,.45-.16,.88-.3,1.26-.45,.76-.34,1.42-.6,1.92-.86l1.15-.61c.26-.13,.4-.2,.4-.19,0,0-.12,.09-.37,.24-.27,.16-.65,.38-1.13,.65-.5,.28-1.15,.55-1.91,.91-.38,.16-.81,.31-1.26,.48-.45,.18-.94,.34-1.46,.48-4.13,1.25-10.69,1.87-18.19-.4-3.74-1.09-7.63-2.99-11.39-5.61-3.76-2.63-7.37-5.97-10.74-9.86-1.69-1.94-3.32-4.01-4.9-6.19-.79-1.09-1.57-2.2-2.35-3.33-.77-1.13-1.54-2.28-2.41-3.35-.87-1.07-1.85-2.07-3.01-2.83-1.17-.74-2.49-1.24-3.89-1.39-2.8-.32-5.72,.57-8.08,2.23-3.31,2.23-5.06,6.08-5.43,9.83-.38,3.79,.43,7.53,1.79,10.82v.05c1.07,4.36,2.72,8.45,4.51,12.21,1.82,3.76,3.8,7.24,5.96,10.34,4.24,6.26,8.87,11.16,12.97,14.9,1.05,.91,2.05,1.78,2.99,2.59,.93,.83,1.92,1.47,2.77,2.15,.87,.65,1.68,1.26,2.43,1.82,.74,.57,1.48,.98,2.11,1.4,1.26,.82,2.24,1.45,2.93,1.9,.32,.21,.56,.37,.75,.5,.17,.11,.25,.18,.25,.18Z"/></g><path class="cls-10" d="M301.19,286.55c-.17,.05-.78-3.4-3.17-6.86-2.34-3.5-5.32-5.35-5.21-5.48,.03-.05,.81,.34,1.92,1.19,1.11,.85,2.51,2.22,3.72,4,1.2,1.78,1.95,3.59,2.34,4.93,.39,1.35,.46,2.21,.4,2.22Z"/><path class="cls-10" d="M307.39,282.54c-.17,.03-.27-3.53-2.16-7.36-1.84-3.86-4.56-6.14-4.43-6.26,.04-.05,.76,.46,1.75,1.48,.99,1.02,2.2,2.6,3.15,4.56,.95,1.96,1.43,3.89,1.62,5.3,.19,1.41,.13,2.29,.07,2.29Z"/></g><g class="cls-7"><path class="cls-2" d="M286.69,341.23c2.49-3.81-7.77-4.71-12.29-4.19-6.54,.75-12.77,4.01-17.11,8.96-4.35,4.95-6.77,11.54-6.68,18.13,0,0,19.7,2.12,36.08-22.9Z"/></g><g class="cls-7"><path d="M303.54,324.22c5.13,7.91,12.98,14.02,21.9,17.05,.96,.33,1.98,.62,2.98,.42,.99-.2,1.93-1.07,1.85-2.08-10.65-5.77-19.89-14.11-26.74-24.1-.53,3.05-.08,6.26,1.26,9.05"/></g></g><g><g><circle class="cls-4" cx="273.85" cy="240.79" r="22.55" transform="translate(-90.06 264.17) rotate(-45)"/><path class="cls-10" d="M296.39,241.75c0,10.89-5.71,19.98-12.09,19.98s-11.54-8.82-11.54-19.71,5.17-19.71,11.54-19.71,12.09,8.56,12.09,19.44Z"/><path class="cls-2" d="M278.67,251.09s-.19-.25-.46-.75c-.27-.49-.6-1.24-.94-2.19-.68-1.89-1.27-4.66-1.19-7.75,.09-3.09,.83-5.82,1.61-7.67,.39-.93,.75-1.66,1.05-2.13,.29-.48,.46-.74,.5-.72,.08,.05-.53,1.12-1.21,2.99-.68,1.86-1.35,4.53-1.43,7.55-.08,3.02,.44,5.73,1.02,7.62,.58,1.89,1.13,3.01,1.04,3.05Z"/><circle class="cls-2" cx="287.16" cy="229.4" r="3.86"/><path class="cls-10" d="M288.44,212.96c-.43,.59-1.51,.58-2.89,.36-1.39-.21-3.09-.62-4.94-.92-1.85-.31-3.54-.48-4.9-.66-1.35-.2-2.38-.46-2.65-1.14-.26-.65,.38-1.65,1.9-2.46,.76-.42,1.73-.72,2.85-.91,1.12-.16,2.37-.17,3.66,.04,2.58,.42,4.66,1.64,5.84,2.82,1.2,1.2,1.55,2.31,1.14,2.88Z"/></g><g><path class="cls-6" d="M278.23,268.96c-3.46-7.08-.89-16.53,5.67-20.88,6.56-4.36,16.27-3.05,21.45,2.88"/><path class="cls-10" d="M305.35,250.95s-.48-.45-1.38-1.22c-.89-.78-2.3-1.76-4.24-2.59-1.92-.84-4.41-1.43-7.19-1.39-2.76,.03-5.82,.8-8.5,2.54-2.65,1.79-4.54,4.32-5.64,6.85-1.12,2.54-1.54,5.06-1.51,7.16,.02,2.1,.37,3.79,.75,4.91,.37,1.12,.64,1.72,.59,1.74-.02,0-.1-.14-.24-.42-.12-.29-.37-.69-.55-1.26-.44-1.11-.86-2.82-.92-4.97-.07-2.14,.32-4.73,1.44-7.36,1.11-2.61,3.05-5.24,5.8-7.09,2.78-1.81,5.95-2.58,8.79-2.59,2.85-.02,5.39,.63,7.34,1.53,1.96,.89,3.37,1.95,4.22,2.78,.46,.39,.73,.77,.95,1,.21,.24,.31,.37,.29,.38Z"/></g></g></g><path class="cls-10" d="M233.45,183.56s-.17,.08-.51,.17c-.4,.11-.89,.24-1.49,.4-.65,.15-1.44,.39-2.35,.66-.46,.14-.95,.28-1.46,.43-.51,.18-1.05,.36-1.61,.55-4.53,1.53-10.6,4.22-16.82,8.04-6.25,3.78-11.48,7.86-15.2,10.86-1.85,1.52-3.34,2.76-4.35,3.64-.48,.4-.87,.73-1.19,.99-.27,.22-.43,.33-.44,.32s.11-.15,.37-.4l1.12-1.06c.97-.92,2.43-2.21,4.25-3.77,3.67-3.08,8.88-7.23,15.17-11.03,6.25-3.84,12.39-6.49,16.97-7.94,.57-.18,1.11-.36,1.63-.52,.52-.14,1.01-.27,1.48-.4,.92-.25,1.72-.46,2.38-.58,.61-.12,1.11-.22,1.52-.3,.35-.06,.53-.09,.54-.07Z"/></g></g><g id="_04_Error"><g><path class="cls-10" d="M88.43,61.45s-.18-.41-.41-1.17c-.12-.38-.25-.85-.37-1.41-.12-.56-.28-1.19-.38-1.9-.25-1.41-.42-3.12-.46-5.02-.02-1.9,.09-3.99,.42-6.16,.35-2.17,.88-4.19,1.48-5.99,.62-1.79,1.3-3.37,1.97-4.64,.31-.65,.65-1.2,.94-1.69,.28-.5,.55-.9,.78-1.23,.45-.66,.72-1.01,.75-.99,.08,.05-.91,1.52-2.14,4.08-.62,1.28-1.25,2.85-1.84,4.62-.56,1.79-1.07,3.79-1.42,5.92-.32,2.14-.45,4.2-.45,6.07,.02,1.87,.15,3.56,.35,4.97,.39,2.81,.89,4.51,.79,4.54Z"/><g><g><rect class="cls-2" x="117.25" y="19.36" width="220.56" height="124.06" transform="translate(-11.05 43) rotate(-10.54)"/><path class="cls-10" d="M347.3,122.2s-.15-.75-.43-2.18c-.27-1.44-.68-3.57-1.21-6.36-1.05-5.59-2.6-13.81-4.59-24.37-3.95-21.11-9.66-51.57-16.67-89.02l.23,.16c-57.89,10.79-133.87,24.95-216.81,40.41h-.02l.21-.3c8.02,43.14,15.69,84.39,22.68,121.97l-.28-.19c63.49-11.77,117.68-21.81,156-28.91,19.18-3.54,34.38-6.35,44.8-8.27,5.21-.96,9.22-1.69,11.94-2.19,1.35-.25,2.38-.43,3.08-.56,.69-.12,1.06-.18,1.06-.18,0,0-.34,.07-1.02,.21-.69,.13-1.71,.33-3.05,.58-2.7,.51-6.7,1.26-11.88,2.24-10.4,1.95-25.58,4.8-44.73,8.39-38.35,7.17-92.58,17.3-156.12,29.17l-.24,.04-.04-.24c-7-37.58-14.68-78.83-22.71-121.97l-.05-.26,.26-.05h.02C190.68,24.91,266.67,10.79,324.57,.04l.2-.04,.04,.2c6.93,37.51,12.58,68.03,16.49,89.18,1.94,10.55,3.45,18.76,4.48,24.35,.51,2.78,.89,4.9,1.16,6.34,.26,1.43,.38,2.15,.38,2.15Z"/></g><g><g><path class="cls-5" d="M320.04,13.44c.1,2.49-1.84,4.59-4.34,4.69-2.49,.1-4.59-1.84-4.69-4.34-.1-2.49,1.84-4.59,4.34-4.69s4.59,1.84,4.69,4.34Z"/><path class="cls-10" d="M320.04,13.44s-.06-.4-.28-1.07c-.22-.66-.72-1.6-1.75-2.3-1-.7-2.6-1.05-4.1-.41-1.49,.59-2.73,2.25-2.64,4.12,.06,1.88,1.42,3.44,2.96,3.91,1.55,.51,3.12,.04,4.05-.73,.97-.78,1.4-1.76,1.56-2.43,.17-.68,.15-1.09,.2-1.09,.02,0,.03,.1,.05,.29,.02,.19,.01,.48-.05,.84-.11,.71-.5,1.79-1.53,2.67-.99,.88-2.7,1.45-4.43,.91-1.72-.49-3.27-2.23-3.33-4.34-.1-2.11,1.31-3.97,2.98-4.59,1.68-.68,3.44-.25,4.49,.55,1.09,.8,1.56,1.84,1.73,2.54,.09,.36,.12,.64,.11,.83,0,.19,0,.29-.03,.29Z"/></g><path class="cls-10" d="M317.52,10.31c.13-.03,.3,1.68-.62,3.5-.9,1.83-2.36,2.73-2.42,2.61-.1-.12,1.12-1.14,1.95-2.84,.86-1.69,.93-3.28,1.08-3.27Z"/><path class="cls-10" d="M318.4,15.1c-.13,.08-.73-1.12-2.09-1.81-1.35-.71-2.67-.51-2.69-.66-.01-.06,.3-.21,.85-.25,.54-.04,1.32,.06,2.08,.45,.76,.39,1.29,.98,1.56,1.44,.28,.47,.34,.81,.28,.83Z"/></g><g><g><rect class="cls-5" x="106.47" y="76.9" width="14.55" height="6.58" transform="translate(-25.18 88.4) rotate(-38.57)"/><path class="cls-10" d="M121.48,78.23s-.46-.5-1.2-1.37c-.78-.93-1.8-2.16-3.04-3.66l.26,.03c-2.91,2.38-6.91,5.6-11.33,9.13-.04,.33,.05-.44,.04-.36h0v.02l.03,.02,.03,.04,.07,.08,.13,.17,.27,.34,.53,.67c.35,.44,.7,.88,1.04,1.31,.68,.86,1.35,1.7,1.98,2.5l-.35-.04c3.28-2.59,6.13-4.8,8.18-6.37,.98-.75,1.79-1.36,2.42-1.84,.57-.43,.9-.66,.93-.66,.03,0-.24,.24-.77,.69-.6,.5-1.36,1.14-2.29,1.92-1.98,1.64-4.82,3.97-8.16,6.66l-.19,.15-.16-.19c-.64-.8-1.31-1.63-2-2.49-.34-.43-.69-.87-1.05-1.31l-.53-.67-.27-.34-.13-.17-.07-.08-.03-.04-.02-.02h0v-.02h0c0,.08,.08-.7,.04-.37,4.42-3.52,8.45-6.7,11.42-9.01l.15-.12,.11,.15c1.28,1.64,2.28,2.97,2.96,3.87,.68,.91,1.03,1.39,1,1.39Z"/></g><g><path class="cls-5" d="M103.45,88.69c2.09,2.62,5.91,3.05,8.53,.96l-7.57-9.49c-2.62,2.09-3.05,5.91-.96,8.53Z"/><path class="cls-10" d="M103.45,88.69s-.19-.16-.47-.53c-.26-.38-.61-.98-.83-1.81-.22-.83-.31-1.91,0-3.07,.28-1.16,.99-2.38,2.12-3.31l.18-.15,.15,.19c1.18,1.46,2.46,3.06,3.8,4.73,1.33,1.68,2.6,3.29,3.77,4.76l.15,.19-.19,.15c-1.16,.89-2.5,1.32-3.7,1.33-1.2,.04-2.23-.3-2.99-.69-.76-.4-1.27-.87-1.58-1.21-.3-.35-.43-.56-.42-.58,.06-.07,.63,.81,2.13,1.52,.74,.34,1.72,.62,2.84,.55,1.12-.04,2.35-.46,3.41-1.3l-.04,.34c-1.18-1.47-2.46-3.06-3.8-4.73-1.33-1.68-2.6-3.29-3.77-4.76l.34,.04c-1.05,.84-1.74,1.96-2.03,3.04-.32,1.08-.26,2.1-.1,2.9,.37,1.62,1.09,2.37,1.01,2.41Z"/></g><g><path class="cls-5" d="M104.85,85.51c-.96,1.07-1.22,2.72-.63,4.03"/><path class="cls-10" d="M104.22,89.55c-.11,.09-.73-.86-.52-2.15,.2-1.3,1.08-2,1.16-1.89,.11,.1-.48,.85-.64,1.97-.19,1.11,.15,2.01,0,2.07Z"/></g><path class="cls-10" d="M111.99,86.16c-.13,.08-1-1.2-2.21-2.65-1.21-1.46-2.3-2.54-2.2-2.66,.09-.11,1.36,.83,2.6,2.32,1.24,1.49,1.93,2.92,1.81,2.98Z"/><path class="cls-10" d="M113.33,85.1c-.13,.08-1-1.2-2.21-2.65-1.21-1.46-2.3-2.54-2.2-2.66,.09-.11,1.36,.83,2.6,2.32,1.24,1.49,1.93,2.92,1.81,2.98Z"/><path class="cls-10" d="M114.66,84.03c-.13,.08-1-1.2-2.21-2.65-1.21-1.46-2.3-2.54-2.2-2.66,.09-.11,1.36,.83,2.6,2.32,1.24,1.49,1.93,2.92,1.81,2.98Z"/><path class="cls-10" d="M116,82.97c-.13,.08-1-1.2-2.21-2.65-1.21-1.46-2.3-2.54-2.2-2.66,.09-.11,1.36,.83,2.6,2.32,1.24,1.49,1.93,2.92,1.81,2.98Z"/><path class="cls-10" d="M117.34,81.9c-.13,.08-1-1.2-2.21-2.65-1.21-1.46-2.3-2.54-2.2-2.66,.09-.11,1.36,.83,2.6,2.32,1.24,1.49,1.93,2.92,1.81,2.98Z"/><path class="cls-10" d="M118.67,80.84c-.13,.08-1-1.2-2.21-2.65-1.21-1.46-2.3-2.54-2.2-2.66,.09-.11,1.36,.83,2.6,2.32,1.24,1.49,1.93,2.92,1.81,2.98Z"/><path class="cls-10" d="M120.01,79.77c-.13,.08-1-1.2-2.21-2.65-1.21-1.46-2.3-2.54-2.2-2.66,.09-.11,1.36,.83,2.6,2.32,1.24,1.49,1.93,2.92,1.81,2.98Z"/></g><path class="cls-10" d="M127.87,50.69c-.05,0-.06-.41-.28-1.08-.22-.66-.73-1.62-1.77-2.33-1.01-.71-2.63-1.06-4.15-.42-1.51,.59-2.77,2.28-2.68,4.18,.06,1.9,1.44,3.49,3,3.96,1.57,.52,3.16,.04,4.11-.74,.99-.79,1.41-1.78,1.58-2.46,.17-.69,.15-1.1,.2-1.1,.02,0,.03,.1,.05,.29,.02,.19,.01,.48-.05,.85-.11,.72-.51,1.81-1.55,2.71-1,.89-2.74,1.47-4.49,.92-1.74-.5-3.31-2.26-3.37-4.4-.1-2.13,1.32-4.01,3.02-4.65,1.7-.69,3.48-.25,4.55,.56,1.1,.81,1.58,1.86,1.75,2.58,.09,.36,.12,.65,.12,.84,0,.19,0,.3-.03,.3Z"/><path class="cls-10" d="M98.17,61.74s-.18-.41-.41-1.17c-.12-.38-.25-.85-.37-1.41-.12-.56-.28-1.19-.38-1.9-.25-1.41-.42-3.12-.46-5.02-.02-1.9,.09-3.99,.42-6.16,.35-2.17,.88-4.19,1.48-5.99,.62-1.79,1.3-3.37,1.97-4.64,.31-.65,.65-1.2,.94-1.69,.28-.5,.55-.9,.78-1.23,.45-.66,.72-1.01,.75-.99,.08,.05-.91,1.52-2.14,4.08-.62,1.28-1.25,2.85-1.84,4.62-.56,1.79-1.07,3.79-1.42,5.92-.32,2.14-.45,4.2-.45,6.07,.02,1.87,.15,3.56,.35,4.97,.39,2.81,.89,4.51,.79,4.54Z"/><path class="cls-10" d="M361.86,105.7s.18,.41,.41,1.17c.12,.38,.25,.85,.37,1.41,.12,.56,.28,1.19,.38,1.9,.25,1.41,.42,3.12,.46,5.02,.02,1.9-.09,3.99-.42,6.16-.35,2.17-.88,4.19-1.48,5.99-.62,1.79-1.3,3.37-1.97,4.64-.31,.65-.66,1.2-.94,1.69-.28,.5-.55,.9-.78,1.23-.45,.66-.72,1.01-.75,.99-.08-.05,.91-1.52,2.14-4.08,.62-1.28,1.25-2.85,1.84-4.62,.56-1.79,1.07-3.79,1.42-5.92,.32-2.14,.45-4.2,.45-6.07-.02-1.87-.15-3.56-.35-4.97-.39-2.81-.89-4.51-.79-4.54Z"/><path class="cls-10" d="M368.36,107.42s.18,.41,.41,1.17c.12,.38,.25,.85,.37,1.41,.12,.56,.28,1.19,.38,1.9,.25,1.41,.42,3.12,.46,5.02,.02,1.9-.09,3.99-.42,6.16-.35,2.17-.88,4.19-1.48,5.99-.62,1.79-1.3,3.37-1.97,4.64-.31,.65-.65,1.2-.94,1.69-.28,.5-.55,.9-.78,1.23-.45,.66-.72,1.01-.75,.99-.08-.05,.91-1.52,2.14-4.08,.62-1.28,1.25-2.85,1.84-4.62,.56-1.79,1.07-3.79,1.42-5.92,.32-2.14,.45-4.2,.45-6.07-.02-1.87-.15-3.56-.35-4.97-.39-2.81-.89-4.51-.79-4.54Z"/></g></g><g><path d="M136.81,70.53c.22-.04,.42,0,.6,.11,.19,.11,.3,.26,.34,.46s0,.39-.14,.56c-.13,.17-.3,.27-.52,.31l-1.73,.33c-1.77,.34-2.96,.95-3.59,1.83-.63,.89-.78,2.2-.45,3.94l.78,4.08c.4,2.11,.17,3.78-.7,5.01-.88,1.24-2.44,2.07-4.67,2.5l-1.72,.33c-.22,.04-.43,0-.61-.1-.18-.12-.29-.27-.33-.47s0-.38,.13-.55c.13-.18,.31-.28,.53-.33l1.72-.33c1.77-.34,2.97-.94,3.59-1.82,.63-.89,.78-2.2,.45-3.94l-.78-4.08c-.4-2.11-.17-3.78,.71-5.01,.88-1.25,2.43-2.08,4.66-2.51l1.73-.33Z"/><path d="M141.31,71.73c.22,.15,.36,.35,.41,.61,.05,.26,0,.5-.15,.72-.15,.22-.36,.35-.62,.4-.26,.05-.5,0-.72-.15-.22-.15-.36-.35-.41-.61-.05-.26,0-.5,.15-.72,.15-.22,.36-.35,.62-.4,.26-.05,.5,0,.72,.15Zm-.27,6.59c-.04-.2,0-.38,.13-.55,.13-.18,.31-.29,.53-.33,.21-.04,.42,0,.6,.11,.18,.11,.29,.26,.33,.46l.69,3.64c.18,.95,.6,1.68,1.25,2.19,.63,.5,1.36,.67,2.21,.51,.21-.04,.4,0,.59,.09,.19,.11,.31,.26,.35,.47,.04,.21,0,.41-.15,.58-.14,.16-.31,.26-.51,.3-1.37,.26-2.56,0-3.58-.81-.92-.72-1.51-1.72-1.75-3.01l-.69-3.64Z"/><path d="M149.12,76.04l2.85-.54c.22-.04,.42,0,.6,.1,.19,.11,.3,.27,.34,.47s0,.38-.14,.55c-.13,.18-.3,.28-.52,.33l-2.85,.54,.55,2.9c.18,.95,.6,1.68,1.25,2.19,.63,.5,1.36,.67,2.21,.51,.22-.04,.42-.01,.6,.1,.19,.11,.3,.26,.34,.46,.04,.2,0,.39-.14,.56-.13,.17-.3,.27-.52,.31-1.37,.26-2.56,0-3.58-.81-.92-.72-1.51-1.72-1.75-3.01l-2.14-11.21c-.04-.2,0-.38,.13-.55,.13-.18,.31-.29,.53-.33,.21-.04,.42,0,.6,.11,.18,.11,.29,.26,.33,.46l1.31,6.86Z"/><path d="M156.14,74.7l2.85-.54c.22-.04,.42,0,.6,.1,.19,.11,.3,.27,.34,.47,.04,.2,0,.38-.14,.55-.12,.18-.3,.28-.52,.33l-2.85,.54,.55,2.9c.18,.95,.6,1.68,1.25,2.19,.63,.5,1.36,.67,2.21,.51,.22-.04,.42-.01,.6,.1,.19,.11,.3,.26,.34,.46s0,.39-.14,.56c-.13,.17-.3,.27-.52,.31-1.37,.26-2.56,0-3.58-.81-.92-.72-1.51-1.72-1.75-3.01l-2.14-11.21c-.04-.2,0-.38,.13-.55,.13-.18,.31-.29,.53-.33,.21-.04,.42,0,.61,.11,.18,.11,.29,.26,.33,.46l1.31,6.86Z"/><path d="M169.05,79.84c.22,.03,.4,.13,.53,.29,.12,.16,.17,.34,.13,.55-.04,.2-.15,.36-.34,.48-.51,.34-1.18,.59-1.99,.75-1.24,.24-2.38,0-3.42-.7-1.01-.69-1.63-1.62-1.86-2.81l-.06-.3c-.23-1.19,0-2.28,.69-3.29,.71-1.04,1.68-1.68,2.92-1.91l.3-.06c1.24-.24,2.38,0,3.42,.7,1.01,.69,1.63,1.62,1.86,2.81,.04,.2,0,.38-.13,.55-.12,.17-.3,.28-.52,.33l-4.88,.93c-.22,.04-.42,0-.6-.11-.18-.11-.29-.26-.33-.46-.04-.2,0-.38,.13-.56,.13-.17,.3-.27,.52-.31l3.98-.76c-.23-.5-.57-.91-1.03-1.22-.66-.44-1.38-.59-2.14-.45l-.3,.06c-.76,.15-1.37,.55-1.82,1.2-.46,.68-.62,1.44-.46,2.25l.06,.3c.16,.82,.58,1.46,1.26,1.92,.66,.45,1.37,.6,2.13,.45,.57-.11,1.02-.27,1.34-.47,.18-.12,.38-.17,.6-.15Z"/><path d="M177.33,70.87c.19,.11,.3,.27,.34,.47s0,.38-.14,.55c-.12,.18-.3,.28-.52,.33-.76,.15-1.37,.55-1.82,1.2-.46,.68-.62,1.44-.46,2.25l.75,3.94c.04,.2,0,.39-.14,.56-.13,.17-.3,.27-.52,.31-.22,.04-.43,0-.61-.1-.18-.12-.29-.27-.33-.47l-.75-3.94c-.23-1.19,0-2.28,.69-3.29,.71-1.04,1.68-1.68,2.92-1.91,.22-.04,.42,0,.6,.1Z"/><path d="M184.28,62.22c-.04-.2,0-.38,.13-.55,.13-.18,.31-.29,.53-.33,.22-.04,.42,0,.6,.11,.18,.11,.29,.26,.33,.46l1.5,7.87c.7-.83,1.58-1.35,2.65-1.55l.3-.06c1.24-.24,2.38,0,3.42,.7,1.01,.69,1.63,1.62,1.86,2.81l.75,3.94c.04,.2,0,.39-.13,.56-.13,.17-.31,.27-.53,.32-.22,.04-.42,0-.6-.1-.18-.12-.29-.27-.33-.47l-.75-3.94c-.16-.82-.58-1.46-1.27-1.92-.66-.45-1.37-.6-2.13-.45l-.3,.06c-.76,.15-1.37,.55-1.82,1.2-.46,.68-.62,1.44-.46,2.25,.03,.2,.05,.32,.06,.37l.68,3.57c.04,.2,0,.39-.13,.56-.13,.17-.31,.27-.52,.31-.22,.04-.43,0-.61-.1-.18-.12-.29-.27-.33-.47l-2.89-15.16Z"/><path d="M207.72,73.45c.04,.2,0,.39-.13,.56-.13,.17-.31,.27-.52,.31-.22,.04-.43,0-.61-.1-.18-.12-.29-.27-.33-.47l-.75-3.94c-.16-.82-.58-1.46-1.26-1.92-.66-.44-1.38-.59-2.14-.45l-.3,.06c-.77,.15-1.37,.55-1.82,1.2-.46,.68-.62,1.43-.46,2.25l.06,.3c.16,.82,.58,1.46,1.26,1.92,.66,.45,1.37,.6,2.13,.45,.57-.11,1.02-.27,1.34-.47,.18-.12,.38-.17,.6-.15,.22,.03,.4,.13,.53,.29,.12,.16,.17,.34,.13,.55-.04,.2-.15,.36-.34,.48-.51,.34-1.18,.59-1.99,.75-1.24,.24-2.38,0-3.42-.7-1.01-.69-1.63-1.62-1.86-2.81l-.06-.3c-.23-1.19,0-2.28,.69-3.3,.71-1.04,1.68-1.68,2.92-1.91l.3-.06c1.24-.24,2.38,0,3.42,.7,1.01,.69,1.63,1.62,1.86,2.81l.75,3.94Z"/><path d="M215.85,63.3c.22-.04,.43-.01,.61,.1,.18,.12,.29,.27,.33,.47s0,.38-.13,.55c-.13,.18-.31,.29-.53,.33l-.86,.16c-.77,.15-1.28,.39-1.53,.73-.26,.37-.31,.94-.16,1.71l.39,2.04c.22,1.15,.08,2.07-.41,2.77-.51,.72-1.38,1.19-2.61,1.43l-.86,.16c-.22,.04-.43,0-.61-.1-.18-.12-.29-.27-.33-.47s0-.38,.13-.55c.13-.18,.31-.29,.53-.33l.86-.16c.77-.15,1.28-.39,1.53-.73,.25-.37,.31-.94,.16-1.71l-.39-2.04c-.22-1.15-.08-2.07,.41-2.77,.51-.72,1.38-1.19,2.61-1.43l.86-.16Z"/><path d="M235.61,68.12c.04,.2,0,.39-.13,.56-.13,.17-.31,.27-.52,.31-.22,.04-.43,0-.61-.1-.18-.12-.29-.27-.33-.47l-.75-3.94c-.16-.82-.58-1.46-1.26-1.92-.66-.44-1.38-.59-2.14-.45l-.3,.06c-.77,.15-1.37,.55-1.82,1.2-.46,.68-.62,1.43-.46,2.25l.75,3.94c.04,.2,0,.39-.14,.56-.13,.17-.3,.27-.52,.31-.22,.04-.43,0-.61-.1-.18-.12-.29-.27-.33-.47l-.75-3.94c-.23-1.19,0-2.28,.69-3.29,.71-1.04,1.68-1.68,2.92-1.91l.3-.06c1.24-.24,2.38,0,3.42,.7,1.01,.69,1.63,1.62,1.86,2.81l.75,3.94Z"/><path d="M240.95,58.51c1.24-.24,2.38,0,3.42,.7,1.01,.69,1.63,1.62,1.86,2.81l.06,.3c.23,1.19,0,2.28-.69,3.29-.71,1.04-1.68,1.68-2.92,1.91l-.3,.06c-1.24,.24-2.38,0-3.42-.7-1.01-.69-1.63-1.62-1.86-2.81l-.06-.3c-.23-1.19,0-2.28,.69-3.29,.71-1.04,1.68-1.68,2.92-1.91l.3-.06Zm-.02,1.5c-.76,.15-1.37,.55-1.82,1.2-.46,.68-.62,1.44-.46,2.25l.06,.3c.16,.82,.58,1.46,1.26,1.92,.66,.45,1.37,.6,2.13,.45l.3-.06c.76-.15,1.37-.55,1.83-1.21,.46-.68,.62-1.43,.46-2.25l-.06-.3c-.16-.82-.58-1.46-1.26-1.92-.66-.44-1.38-.59-2.14-.45l-.3,.06Z"/><path d="M259.37,55.2c.19,.11,.3,.27,.34,.47s0,.38-.14,.55c-.12,.18-.3,.28-.52,.33-.77,.15-1.37,.55-1.82,1.2-.46,.68-.62,1.44-.46,2.25l.75,3.94c.04,.2,0,.39-.14,.56-.13,.17-.3,.27-.52,.31-.22,.04-.43,0-.61-.1-.18-.12-.29-.27-.33-.47l-.75-3.94c-.23-1.19,0-2.28,.69-3.29,.71-1.04,1.68-1.68,2.92-1.91,.22-.04,.42,0,.6,.1Z"/><path d="M268.36,60.87c.22,.03,.4,.13,.53,.29,.12,.16,.17,.34,.13,.55-.04,.2-.15,.36-.34,.48-.51,.34-1.18,.59-1.99,.75-1.24,.24-2.38,0-3.42-.7-1.01-.69-1.63-1.62-1.86-2.81l-.06-.3c-.23-1.19,0-2.28,.69-3.29,.71-1.04,1.68-1.68,2.92-1.91l.3-.06c1.24-.24,2.38,0,3.42,.7,1.01,.69,1.63,1.62,1.86,2.81,.04,.2,0,.38-.13,.55-.13,.17-.3,.28-.52,.33l-4.88,.93c-.22,.04-.42,0-.6-.11-.18-.11-.29-.26-.33-.46-.04-.2,0-.38,.13-.56,.13-.17,.3-.27,.52-.31l3.98-.76c-.23-.5-.57-.91-1.03-1.22-.66-.44-1.38-.59-2.14-.45l-.3,.06c-.76,.15-1.37,.55-1.82,1.2-.46,.68-.62,1.44-.46,2.25l.06,.3c.16,.82,.58,1.46,1.26,1.92,.66,.45,1.37,.6,2.13,.45,.57-.11,1.02-.27,1.34-.47,.18-.12,.38-.17,.6-.15Z"/><path d="M279,51.32c.18-.13,.38-.18,.61-.17,.22,.02,.39,.11,.53,.27,.13,.16,.19,.34,.15,.54l-1.12,7c-.08,.48-.29,.9-.62,1.25-.34,.37-.77,.6-1.27,.69-.51,.1-1,.04-1.45-.18-.43-.2-.78-.51-1.02-.93l-3.61-6.1c-.1-.17-.12-.36-.06-.56,.07-.19,.2-.34,.4-.45,.2-.1,.4-.12,.62-.07s.38,.17,.48,.35l3.61,6.09c.1,.17,.22,.29,.38,.36,.12,.06,.25,.08,.38,.06,.13-.02,.24-.09,.33-.19,.11-.12,.19-.27,.22-.47l1.14-7c.03-.2,.13-.37,.31-.5Z"/><path d="M282.91,44.69c.22,.15,.36,.35,.41,.61,.05,.26,0,.5-.15,.72-.15,.22-.36,.35-.62,.4-.26,.05-.5,0-.72-.15-.22-.15-.36-.35-.41-.61-.05-.26,0-.5,.15-.72,.15-.22,.36-.35,.62-.4,.26-.05,.5,0,.72,.15Zm-.27,6.59c-.04-.2,0-.38,.13-.55,.13-.18,.31-.29,.53-.33,.21-.04,.42,0,.6,.11,.18,.11,.29,.26,.33,.46l.69,3.64c.18,.95,.6,1.68,1.25,2.19,.63,.5,1.36,.67,2.21,.51,.21-.04,.4,0,.59,.09,.19,.11,.31,.26,.35,.47,.04,.21,0,.41-.15,.58-.14,.16-.31,.26-.51,.3-1.37,.26-2.56,0-3.58-.81-.92-.72-1.51-1.72-1.75-3.01l-.69-3.64Z"/><path d="M296.61,55.48c.22,.03,.4,.13,.53,.29,.12,.16,.17,.34,.13,.55-.04,.2-.15,.36-.34,.48-.51,.34-1.18,.59-1.99,.75-1.24,.24-2.38,0-3.42-.7-1.01-.69-1.63-1.62-1.86-2.81l-.06-.3c-.23-1.19,0-2.28,.69-3.3,.71-1.04,1.68-1.68,2.92-1.91l.3-.06c1.24-.24,2.38,0,3.42,.7,1.01,.69,1.63,1.62,1.86,2.81,.04,.2,0,.38-.13,.55-.12,.17-.3,.28-.52,.33l-4.88,.93c-.22,.04-.42,0-.6-.11-.18-.11-.29-.26-.33-.46-.04-.2,0-.38,.13-.56,.13-.17,.3-.27,.52-.31l3.98-.76c-.23-.5-.57-.91-1.03-1.22-.66-.44-1.38-.59-2.14-.45l-.3,.06c-.76,.15-1.37,.55-1.82,1.2-.46,.68-.62,1.43-.46,2.25l.06,.3c.16,.82,.58,1.46,1.26,1.92,.66,.45,1.37,.6,2.13,.45,.57-.11,1.02-.27,1.34-.47,.18-.12,.38-.17,.6-.15Z"/><path d="M299.52,47.62c.1-.19,.25-.31,.46-.39,.22-.07,.42-.07,.62,.01,.21,.08,.34,.22,.41,.41l2.5,6.38c.05,.12,.11,.2,.2,.23,.09,.04,.23,.04,.4,.02,.18-.03,.3-.08,.36-.15,.07-.07,.1-.17,.1-.3l-.07-5.2c0-.43,.07-.78,.22-1.07,.24-.43,.64-.71,1.19-.81,.54-.1,1-.01,1.37,.27,.25,.19,.45,.48,.6,.89l1.89,4.92c.06,.15,.12,.25,.18,.27,.07,.03,.21,.03,.41-.02,.19-.04,.32-.08,.38-.13,.05-.05,.07-.16,.07-.32l-.03-6.86c0-.21,.08-.38,.23-.53,.16-.15,.35-.23,.57-.24,.23-.01,.42,.05,.58,.19,.16,.14,.24,.32,.24,.51l.03,6.87c0,.59-.19,1.06-.58,1.41-.3,.27-.72,.46-1.28,.57-.54,.1-1.01,.06-1.42-.12-.43-.19-.75-.55-.94-1.06l-1.86-4.87c-.06-.14-.12-.2-.17-.19-.04,.02-.07,.1-.08,.24l.05,5.21c0,.5-.15,.92-.47,1.28-.31,.35-.74,.58-1.27,.68-.56,.11-1.05,.06-1.49-.13-.46-.21-.78-.55-.97-1.02l-2.51-6.4c-.08-.18-.06-.37,.03-.57Z"/><path d="M321.47,43.13c.22-.04,.43-.01,.61,.1,.18,.12,.29,.27,.33,.47s0,.38-.13,.55c-.13,.18-.31,.29-.53,.33l-.86,.16c-.77,.15-1.28,.39-1.52,.73-.26,.37-.31,.94-.16,1.71l.39,2.04c.22,1.15,.08,2.07-.41,2.77-.51,.71-1.37,1.19-2.61,1.42l-.86,.16c-.22,.04-.43,0-.61-.1-.18-.12-.29-.27-.33-.47s0-.38,.13-.55c.13-.18,.31-.29,.53-.33l.86-.16c.77-.15,1.28-.39,1.53-.73,.25-.37,.31-.94,.16-1.71l-.39-2.04c-.22-1.15-.08-2.07,.41-2.77,.51-.72,1.38-1.19,2.61-1.43l.86-.16Z"/><path d="M220.53,91.85c-.01-.35,.11-.65,.37-.91,.27-.25,.6-.38,.99-.39,.37-.01,.7,.1,.99,.34,.27,.24,.42,.54,.43,.89l.55,20.09c.06,2.07-.63,3.86-2.08,5.38-1.48,1.56-3.3,2.37-5.46,2.43-.39,.01-.72-.1-.99-.33-.27-.25-.42-.54-.43-.89,0-.35,.12-.64,.38-.89,.26-.26,.58-.4,.97-.41,1.33-.04,2.47-.55,3.42-1.54,.97-1.04,1.44-2.27,1.4-3.68l-.2-7.38c-1.41,1.21-3.05,1.85-4.92,1.9h-.52c-2.16,.07-4.02-.64-5.59-2.12-1.52-1.44-2.31-3.19-2.37-5.26l-.19-6.87c-.01-.35,.11-.65,.37-.91,.27-.25,.6-.38,.99-.39,.39-.01,.72,.1,.99,.33,.29,.25,.44,.54,.45,.89l.19,6.87c.04,1.43,.57,2.63,1.6,3.6,.99,.93,2.15,1.38,3.48,1.35h.52c1.33-.05,2.47-.56,3.42-1.55,.96-1.01,1.43-2.23,1.4-3.64l-.19-6.9Z"/><path d="M238.64,102.91c.36,.11,.64,.32,.82,.64,.17,.3,.19,.62,.07,.96-.12,.32-.36,.56-.7,.72-.96,.44-2.15,.68-3.57,.72-2.16,.06-4.02-.65-5.59-2.13-1.52-1.44-2.31-3.19-2.37-5.26v-.52c-.07-2.07,.62-3.86,2.06-5.38,1.48-1.56,3.3-2.37,5.46-2.43h.52c2.16-.07,4.02,.64,5.59,2.12,1.52,1.44,2.31,3.19,2.37,5.26,0,.35-.12,.64-.38,.89-.26,.26-.58,.4-.97,.41l-8.51,.23c-.39,.01-.72-.11-.99-.35-.27-.23-.41-.52-.42-.87,0-.35,.12-.65,.38-.91,.26-.25,.58-.38,.97-.39l6.94-.19c-.25-.92-.72-1.7-1.41-2.35-1-.93-2.17-1.38-3.5-1.35h-.52c-1.33,.05-2.47,.56-3.4,1.55-.97,1.03-1.44,2.26-1.4,3.68v.52c.05,1.43,.59,2.63,1.62,3.6,.99,.93,2.15,1.38,3.48,1.35,1-.03,1.8-.17,2.39-.43,.34-.16,.7-.19,1.06-.09Z"/><path d="M249.16,89.82l4.96-.14c.39-.01,.72,.1,.99,.33,.29,.25,.44,.54,.44,.89,0,.35-.12,.64-.4,.89-.26,.26-.58,.4-.97,.41l-4.96,.14,.14,5.06c.05,1.65,.55,3,1.51,4.04,.92,1.02,2.12,1.5,3.6,1.46,.39-.01,.72,.1,.99,.33,.29,.23,.43,.52,.44,.87,0,.35-.12,.65-.39,.91-.26,.25-.58,.38-.97,.39-2.39,.07-4.33-.72-5.83-2.36-1.36-1.47-2.07-3.33-2.14-5.57l-.54-19.55c-.01-.35,.12-.64,.38-.89,.27-.26,.6-.4,.99-.41,.37-.01,.7,.11,.99,.35,.27,.23,.42,.52,.43,.87l.33,11.97Z"/></g></g><g id="Speech_Bubble"><g><path class="cls-3" d="M150.9,185.87c5.24-7.03,8.35-15.75,8.35-25.2,0-23.31-18.89-42.2-42.2-42.2s-42.2,18.89-42.2,42.2,18.89,42.2,42.2,42.2c8.58,0,16.55-2.57,23.21-6.96l14.52,6.43-3.88-16.47Z"/><path class="cls-10" d="M117.04,118.49s-.25-.02-.73-.01c-.53,.01-1.25,.04-2.16,.06-.47,.02-1.01,.02-1.59,.07-.58,.08-1.22,.17-1.9,.27-.69,.1-1.43,.21-2.22,.32-.78,.19-1.61,.4-2.48,.61-3.48,.9-7.71,2.43-12.02,5.24-4.31,2.77-8.79,6.73-12.43,12.11-3.57,5.39-6.32,12.17-7.05,19.78-.07,1.9-.3,3.84-.12,5.81,.07,.98,.05,1.98,.19,2.97,.15,.99,.3,1.99,.45,2.99,.81,3.97,1.99,8.04,4.04,11.83,2,3.8,4.58,7.41,7.73,10.63,3.21,3.15,6.96,5.89,11.13,8,4.16,2.13,8.77,3.59,13.57,4.16,1.19,.24,2.41,.23,3.62,.31,1.21,.08,2.43,.12,3.66,.07,2.45-.1,4.9-.41,7.33-.93,5.27-1.12,10.23-3.27,14.59-6.14l-.44,.04c5.06,2.03,10.02,4.02,14.86,5.96l.88,.35-.25-.91c-1.5-5.45-2.96-10.76-4.37-15.89l-.07,.39c4.17-5.54,6.83-11.87,7.93-18.15,.55-3.14,.79-6.27,.58-9.3-.06-1.52-.14-3.01-.42-4.47-.11-.73-.23-1.45-.34-2.17-.13-.71-.35-1.41-.52-2.1-2.87-11.18-9.76-19.44-16.58-24.17-3.41-2.4-6.78-4.13-9.87-5.2-.77-.27-1.51-.54-2.22-.8-.73-.19-1.44-.36-2.11-.54-.67-.17-1.32-.33-1.93-.48-.62-.12-1.22-.18-1.78-.27-1.12-.14-2.11-.34-2.98-.38l-2.18-.07c-.55-.01-.99-.02-1.33-.03-.3,0-.45,0-.45,.02s.15,.03,.45,.06c.34,.03,.78,.06,1.33,.11,.6,.04,1.32,.09,2.17,.15,.86,.07,1.84,.28,2.95,.45,4.37,.8,10.93,2.55,17.63,7.44,6.69,4.73,13.4,12.91,16.16,23.9,.16,.68,.37,1.36,.5,2.07,.11,.71,.21,1.42,.32,2.14,.27,1.43,.34,2.9,.39,4.39,.19,2.97-.05,6.04-.6,9.12-1.1,6.15-3.72,12.34-7.82,17.76l-.13,.18,.06,.22c1.4,5.13,2.85,10.44,4.34,15.89l.63-.56c-4.84-1.95-9.8-3.95-14.85-5.98l-.23-.09-.21,.14c-4.26,2.8-9.11,4.9-14.26,6-2.37,.51-4.77,.81-7.16,.91-1.2,.06-2.39,.01-3.58-.06-1.19-.07-2.38-.07-3.54-.3-4.69-.55-9.2-1.98-13.27-4.06-4.08-2.06-7.75-4.72-10.9-7.8-3.09-3.14-5.62-6.68-7.59-10.39-2.02-3.7-3.18-7.69-3.99-11.57-.15-.98-.3-1.96-.45-2.93-.15-.97-.13-1.95-.2-2.92-.19-1.93,.03-3.83,.09-5.7,.68-7.47,3.35-14.14,6.82-19.47,3.54-5.32,7.93-9.26,12.16-12.03,4.23-2.82,8.39-4.39,11.83-5.33,.86-.23,1.68-.45,2.45-.65,.78-.13,1.51-.25,2.2-.36,.68-.11,1.31-.22,1.88-.31,.58-.06,1.11-.08,1.58-.12,.91-.07,1.62-.12,2.15-.16,.48-.04,.73-.07,.73-.09Z"/></g><polygon class="cls-9" points="129.28 177.37 118.16 171.9 107.35 177.96 109.11 165.69 100.01 157.28 112.22 155.17 117.41 143.91 123.19 154.87 135.5 156.32 126.86 165.21 129.28 177.37"/></g></svg>