<?xml version="1.0" encoding="utf-8"?>
<!-- Generator: Adobe Illustrator 26.3.0, SVG Export Plug-In . SVG Version: 6.00 Build 0)  -->
<svg version="1.1" id="Layer_1" xmlns="http://www.w3.org/2000/svg" xmlns:xlink="http://www.w3.org/1999/xlink" x="0px" y="0px"
	 viewBox="0 0 1366 603.79" style="enable-background:new 0 0 1366 603.79;" xml:space="preserve">
<style type="text/css">
	.st0{fill:#FDF0DC;}
	.st1{fill:#FDAD8D;}
	.st2{fill:#7F5A57;}
	.st3{fill:#4F2D27;}
	.st4{fill:#F7B385;}
	.st5{fill:none;stroke:#F7B385;stroke-width:4;stroke-linecap:round;stroke-linejoin:round;stroke-dasharray:24.8685,24.8685;}
</style>
<polygon class="st0" points="1366,603.92 1.76,603.92 0.33,0 1364.56,0 "/>
<rect x="1.76" y="539.7" class="st1" width="1364.24" height="64.22"/>
<g>
	<g>
		<path class="st0" d="M176.34,538.84c-1.85-0.2-80.79,0.36-81.78-0.18c-3.58-12.48-17.39-26.66-12.46-39.54
			c9.44-5.67,21.85,4.03,32.63,1.02c24.95-0.15,37.4-23.17,48.07-12.58C175.08,500.84,178.68,523.31,176.34,538.84z"/>
		<path class="st2" d="M190.35,539.19c-2.55,9.3-16.15,12.48-21,3.45c-3.3,5.46-11.93,4.78-14.44-1.06
			c-15.25,5.92-15.18-20.27-3.35-24.72c19.26-4.73,23.47-5.3,12.66-24.86c-18.55,22.7-55.14,25.18-79.12,9.82
			c-0.48,16.07,22.49,16.24,26.19,30.34c2.59,6.94-5.18,15.51-12.07,11.68c-2.93,3.59-8.62,6.29-13,3.88
			c-0.58-0.13-1.17-0.29-1.73-0.5c-13.61,11.48-26.44-7.29-20.6-20.52c3.66-10.67,12.79-18.17,17.3-28.38
			c-28.67-15.62-14.13-52.2-17.53-78.03c-2.87-20.89-17.56-38.08-36.2-47.07c-25.58-25.7,49.37-29.49,69.08,22.13l27.19-1.97
			c-6.86-57.79,72.3-83.32,51.63-47.69c-13.55,11.03-21.77,28.08-19.37,45.73c1.08,20.09,20.28,30.85,27.05,48.36
			c5.95,16.28-0.1,35.67-14.22,45.7C169.08,506.01,196.64,517.99,190.35,539.19z"/>
		<path class="st0" d="M166.07,473.99c-4.03,6.76-12.16,6.9-19.11,7.44c-7.42,10.19-26.07,15.18-36.4,8.39
			c-28.28,15.56-40.26-19.21-18.89-35.33c0.08-22.77,30.78-28.54,3.77-56.54c-1.45-1.68,2.19-2.22,3.18-2.76
			c43.8-17.13,5.11,22.71,34.69,34.53c18.33,5.04,11.63,14.17,27.5,19.54c-0.01-0.01-0.02-0.02-0.03-0.02
			C168.13,454.34,171,466.08,166.07,473.99z"/>
		<path class="st1" d="M150.07,478.32c-6.23-2.66-12.05-6.99-16.14-12.41c-3.74-4.96-5.75-10.8-6.54-16.87
			c-3.39,4.22-8.59,6.71-13.87,3.41c0.58,2.01,0.99,4.08,1.24,6.2c0.84,7.17,0.38,15.1-2.52,21.78c-1.43,3.28-3.62,6.08-6.31,8.43
			c-2.42,2.12-5.27,4.16-8.43,5.02c11.15,2.97,26.36-19.02,24.59-35.88c6.16,14.85,25.83,31.6,35.38,22.37
			C154.93,480.03,152.46,479.34,150.07,478.32z"/>
		<path class="st3" d="M92.87,436.06c2.28,10.83-11.67,13.6-13.7,2.72C76.89,427.96,90.84,425.19,92.87,436.06z"/>
		<path class="st3" d="M140.95,426.06c2.03,10.88,15.98,8.1,13.7-2.72C152.62,412.46,138.67,415.24,140.95,426.06z"/>
		<path class="st1" d="M180.43,338.49c-9.17,25.38,13.97,69.28-12.54,80.44c-3.65-9.13-14.23-13.23-17.82-22.4
			C144.07,374.47,155.7,338.66,180.43,338.49z"/>
		<path class="st1" d="M70.65,402.41c4.68,6.7-3.46,43.42-11.48,36.33C34.7,425.35,40.4,392,24.44,372.11
			c-0.91-6.71,8.4-3.52,12.06-2.63C52.37,373.94,65.79,386.61,70.65,402.41z"/>
	</g>
	<g>
		<g>
			<path class="st3" d="M69.93,419.97c-0.58,1.72-1.36,3.38-1.97,5.09c-0.61,1.7-1.09,3.46-1.63,5.19
				c-1.08,3.51-2.07,7.06-3.06,10.59c-1.93,6.85-3.65,13.88-3.74,21.03c-0.17,12.61,5.32,24.99,14.82,33.29
				c5.02,4.38,10.98,7.63,17.4,9.43c1.38,0.39,1.97-1.75,0.59-2.15c-11.26-3.26-20.74-11.22-25.82-21.79
				c-2.61-5.43-4.05-11.48-4.13-17.51c-0.1-6.85,1.48-13.54,3.25-20.11c1.01-3.75,2.13-7.47,3.09-11.23
				c0.47-1.82,0.98-3.64,1.4-5.47c0.46-1.99,0.66-4.02,1.11-6C71.43,419.48,70.21,419.14,69.93,419.97L69.93,419.97z"/>
		</g>
		<g>
			<path class="st3" d="M120.87,455.68c0.13-0.3-0.19,0.39-0.17,0.34c-0.21,0.56-0.18,1.19-0.29,1.79c-0.31,1.71-0.44,3.44-0.6,5.18
				c-0.38,3.99-0.73,8.11-2.04,11.93c-1.61,4.72-4.63,8.86-8.44,12.04c-4.07,3.4-9.47,6.1-14.91,5.76
				c-5.48-0.35-10.88-4.55-11.21-10.28c-0.08-1.36-2.2-1.36-2.12,0c0.34,5.3,4.18,9.62,9.02,11.5c5.71,2.23,12.52,0.91,17.7-2.06
				c4.84-2.76,8.81-7.03,11.34-11.98c2.24-4.38,3.07-9.23,3.45-14.1c0.18-2.28,0.35-4.62,0.18-6.91c-0.08-1.12-0.16-2.35-0.52-3.2
				C121.97,455,121.15,455,120.87,455.68L120.87,455.68z"/>
		</g>
		<g>
			<path class="st3" d="M81.59,477.55c-0.73-1.64-0.79-3.94-0.46-5.68c0.37-1.92,1.23-3.72,2.37-5.31c2.52-3.49,6.38-5.75,9.88-8.12
				c0.93-0.63,0.09-2.13-0.89-1.53c-4.11,2.48-8.58,4.92-11.42,8.93c-1.31,1.84-2.15,4.06-2.39,6.31c-0.11,1.04-0.09,2.11,0.11,3.14
				c0.23,1.17,0.84,2.06,1.52,3C80.87,479.1,81.99,478.43,81.59,477.55L81.59,477.55z"/>
		</g>
		<g>
			<path class="st3" d="M97.03,395.31c-2.84-11.62-11.01-21.87-20.38-29.03c-10.44-7.97-23.43-12.33-36.56-12.41
				c-5.49-0.03-12.54,0.18-16.66,4.38c-2.11,2.15-2.96,5.19-2.64,8.15c0.36,3.33,1.92,6.27,3.61,9.11
				c3.62,6.1,6.68,12.44,8.93,19.17c2.22,6.65,3.52,13.55,5.5,20.27c3.28,11.14,9.75,23.37,21.95,26.48
				c1.37,0.35,2.78,0.54,4.19,0.61c1.71,0.09,1.71-2.57,0-2.66c-11.68-0.56-19.2-11.67-22.64-21.69
				c-2.12-6.17-3.37-12.58-5.12-18.85c-1.78-6.36-4.19-12.54-7.21-18.42c-1.47-2.86-3.21-5.56-4.72-8.4
				c-1.43-2.68-2.67-5.96-1.74-9.02c1.6-5.28,8.81-5.71,13.34-5.92c12.31-0.56,24.85,2.8,35.13,9.63c5.27,3.5,9.97,7.92,13.83,12.93
				c3.89,5.03,6.83,10.63,9.48,16.39C95.77,397.03,97.27,396.31,97.03,395.31L97.03,395.31z"/>
		</g>
		<g>
			<path class="st3" d="M75.85,408.95c-1.87-2.59-3.55-5.36-4.98-8.21c-1.46-2.89-2.42-5.89-3.42-8.95
				c-0.52-1.58-2.85-0.94-2.5,0.69c0.7,3.26,2.13,6.47,3.67,9.4c1.57,2.99,3.51,5.69,5.79,8.19
				C75.1,410.83,76.47,409.81,75.85,408.95L75.85,408.95z"/>
		</g>
		<g>
			<path class="st3" d="M71.37,410.93c-1.24-1.73-2.43-3.48-3.68-5.2c-1.27-1.74-2.5-3.56-3.9-5.19c-0.88-1.02-2.65,0.33-1.88,1.45
				c1.22,1.78,2.66,3.43,4.01,5.11c1.33,1.65,2.72,3.25,4.07,4.89C70.62,412.76,71.96,411.74,71.37,410.93L71.37,410.93z"/>
		</g>
		<g>
			<path class="st3" d="M68.47,411.7c-1.1,0.39-2.21,0.74-3.32,1.1c-1.11,0.35-2.2,0.8-3.29,1.21c-0.6,0.22-1.08,0.84-0.86,1.52
				c0.19,0.58,0.87,1.12,1.52,0.86c1.14-0.46,2.3-0.88,3.42-1.38c1.05-0.47,2.02-0.93,3.07-1.36c0.5-0.21,0.86-0.67,0.7-1.23
				C69.57,411.9,68.98,411.51,68.47,411.7L68.47,411.7z"/>
		</g>
		<g>
			<path class="st3" d="M67.37,418.27c-0.38,0.1-0.78,0.15-1.16,0.25c-0.41,0.11-0.81,0.3-1.2,0.48c-0.76,0.35-1.46,0.85-2.11,1.38
				c-1.24,1-2.28,2.4-2.93,3.85c-0.26,0.58-0.19,1.33,0.43,1.66c0.54,0.29,1.36,0.17,1.66-0.43c0.32-0.65,0.69-1.29,1.11-1.88
				c0.06-0.08,0.12-0.16,0.18-0.24c-0.16,0.22,0.04-0.04,0.06-0.07c0.1-0.13,0.21-0.25,0.32-0.38c0.25-0.29,0.53-0.55,0.8-0.82
				c0.26-0.25,0.53-0.5,0.81-0.73c0.06-0.05,0.13-0.1,0.19-0.15c-0.18,0.14,0.08-0.06,0.1-0.07c0.15-0.11,0.3-0.22,0.44-0.32
				c0.3-0.21,0.61-0.39,0.91-0.6c0.31-0.22,0.62-0.43,0.97-0.58c0.33-0.14,0.43-0.62,0.3-0.92
				C68.09,418.36,67.73,418.18,67.37,418.27L67.37,418.27z"/>
		</g>
		<g>
			<path class="st3" d="M86.32,401.94c0.86-0.48,1.9-0.75,2.8-1.16c0.91-0.42,1.83-0.84,2.74-1.25c1.84-0.83,3.71-1.61,5.61-2.29
				c3.77-1.35,7.66-2.37,11.61-3.05c3.96-0.68,7.98-0.97,11.99-0.91c2,0.03,4,0.15,6,0.36c1.98,0.21,3.95,0.72,5.94,0.86
				c1.48,0.1,1.62-2.04,0.33-2.47c-1.51-0.51-3.2-0.64-4.78-0.84c-1.61-0.21-3.24-0.36-4.86-0.44c-3.25-0.17-6.51-0.11-9.75,0.2
				c-6.42,0.6-12.74,2.07-18.73,4.47c-1.67,0.67-3.32,1.39-4.91,2.22c-0.77,0.4-1.54,0.84-2.28,1.3c-0.86,0.54-1.57,1.27-2.42,1.81
				C84.86,401.22,85.54,402.38,86.32,401.94L86.32,401.94z"/>
		</g>
		<g>
			<path class="st3" d="M108.1,489.55c0.37,0.66,0.56,1.32,1.09,1.89c0.42,0.46,0.97,0.86,1.49,1.2c1.15,0.75,2.5,1.24,3.82,1.62
				c2.97,0.88,6.14,1.2,9.23,1.15c3.05-0.06,6.12-0.52,9.04-1.38c2.87-0.84,6.27-1.95,8.49-4.06c0.82-0.78-0.02-2.35-1.14-1.95
				c-2.58,0.92-4.9,2.42-7.54,3.24c-2.64,0.82-5.36,1.31-8.12,1.44c-2.71,0.13-5.38-0.11-8.04-0.64c-1.23-0.25-2.47-0.52-3.64-1
				c-0.62-0.25-1.22-0.55-1.78-0.91c-0.52-0.33-1.38-0.77-1.74-1.27C108.76,488.19,107.67,488.77,108.1,489.55L108.1,489.55z"/>
		</g>
		<g>
			<path class="st3" d="M79.71,497.78c-0.95,1.28-1.42,3.04-2.13,4.47c-0.74,1.51-1.61,2.95-2.5,4.37
				c-1.81,2.88-3.89,5.58-5.93,8.31c-3.99,5.35-7.95,11.06-9.08,17.78c-0.59,3.52-0.55,7.57,1.29,10.75
				c0.63,1.08,2.24,0.35,1.97-0.83c-0.44-1.98-0.85-3.91-0.82-5.95c0.03-2.04,0.37-4.05,0.95-6c1.19-4.03,3.42-7.66,5.82-11.08
				c2.41-3.45,5.07-6.72,7.36-10.26c1.13-1.74,2.15-3.54,2.99-5.45c0.74-1.68,1.77-3.84,1.55-5.72
				C81.09,497.38,80.2,497.13,79.71,497.78L79.71,497.78z"/>
		</g>
		<g>
			<path class="st3" d="M64.61,546.66c0.49,0.74,1,1.47,1.62,2.11c0.63,0.65,1.41,1.17,2.22,1.56c1.65,0.78,3.54,1.25,5.37,1.05
				c0.58-0.06,1.09-0.45,1.09-1.09c0-0.56-0.5-1.12-1.09-1.09c-1.54,0.09-2.96-0.06-4.39-0.67c-1.39-0.59-2.9-1.43-3.86-2.61
				C65.13,545.39,64.22,546.09,64.61,546.66L64.61,546.66z"/>
		</g>
		<g>
			<path class="st3" d="M68.52,529.92c1.35-4.44,5.88-7.12,9.99-8.56c4.69-1.64,9.79-3.02,14.79-2.73
				c4.53,0.26,8.67,2.18,11.32,5.94c2.6,3.69,4.45,8.45,4.36,12.99c-0.09,4.65-3.86,9.85-9.02,8.16c-1.29-0.42-1.84,1.6-0.56,2.03
				c4.88,1.64,9.78-1.69,11.5-6.21c2-5.25,0.23-11.07-2.27-15.83c-2.5-4.78-6.51-8.21-11.85-9.32c-5.86-1.21-11.87,0.3-17.44,2.11
				c-5.5,1.78-11.18,4.81-12.23,11.02C66.95,530.45,68.24,530.85,68.52,529.92L68.52,529.92z"/>
		</g>
		<g>
			<path class="st3" d="M95.5,538.91c1.06,1.74,2.28,4.1,1.7,6.19c-0.47,1.73-2.59,2.35-4.11,2.79c-1.82,0.53-4.06,1.19-5.81,0.11
				c-0.61-0.37-1.1-1-1.38-1.69c-0.31-0.78-0.22-1.56-0.21-2.38c0.02-1.2-1.65-1.63-2.24-0.61c-0.98,1.7-0.46,4.13,0.64,5.66
				c1.37,1.89,3.51,2.74,5.82,2.62c2.16-0.12,4.42-0.74,6.37-1.65c2.06-0.96,3.42-2.73,3.56-5.03c0.07-1.28-0.28-2.52-0.87-3.64
				c-0.63-1.21-1.54-2.16-2.38-3.22C96.11,537.42,95.09,538.24,95.5,538.91L95.5,538.91z"/>
		</g>
		<g>
			<path class="st3" d="M83.96,544.01c-0.25,0.9-0.79,1.83-1.29,2.61c-0.47,0.74-1.02,1.44-1.7,2c-1.33,1.09-2.97,1.57-4.64,1.36
				c-1.45-0.18-2.89-1.09-3.66-2.43c-0.81-1.41-0.77-3.02-0.16-4.57c0.23-0.58-0.2-1.29-0.74-1.5c-0.62-0.25-1.21-0.01-1.59,0.52
				c-2.3,3.22-0.71,8.1,2.5,10.05c3.47,2.1,8.2,1.35,10.8-1.76c0.72-0.86,1.28-1.78,1.64-2.85c0.37-1.08,0.35-2.11,0.27-3.23
				C85.34,543.41,84.19,543.18,83.96,544.01L83.96,544.01z"/>
		</g>
		<g>
			<path class="st3" d="M77.34,427.61c0.85-0.23,1.52-0.72,2.27-1.16c0.75-0.43,1.51-0.85,2.31-1.19c0.23-0.1-0.14,0.05,0.1-0.04
				c0.09-0.04,0.19-0.07,0.28-0.11c0.19-0.07,0.38-0.14,0.57-0.21c0.41-0.14,0.82-0.28,1.24-0.39c0.39-0.11,0.79-0.2,1.19-0.28
				c0.23-0.04,0.45-0.08,0.68-0.12c0.25-0.04-0.2,0.02,0.06-0.01c0.13-0.02,0.25-0.03,0.38-0.04c0.89-0.09,1.6-0.74,1.47-1.7
				c-0.13-0.97-0.98-1.38-1.87-1.25c-1.89,0.27-3.72,0.87-5.41,1.75c-0.84,0.44-1.64,0.95-2.38,1.55c-0.79,0.63-1.48,1.27-1.83,2.25
				C76.19,427.23,76.81,427.75,77.34,427.61L77.34,427.61z"/>
		</g>
		<g>
			<path class="st3" d="M154.88,403.18c1,1.4,1.83,2.92,2.8,4.35c1.05,1.55,2.22,3.03,3.35,4.53c2.04,2.72,4.15,5.37,6.24,8.05
				c3.86,4.95,7.7,10,10.55,15.62c5.71,11.28,6.19,24.96,0.83,36.47c-2.75,5.9-6.82,11.04-11.91,15.1c-1.12,0.9,0.46,2.45,1.58,1.58
				c9.67-7.59,15.83-19.14,16.74-31.4c0.49-6.68-0.58-13.46-3.15-19.65c-2.53-6.11-6.29-11.58-10.32-16.79
				c-2.41-3.11-4.84-6.22-7.32-9.27c-1.32-1.62-2.65-3.25-4.01-4.84c-1.35-1.6-2.93-2.98-4.3-4.55
				C155.44,401.78,154.43,402.55,154.88,403.18L154.88,403.18z"/>
		</g>
		<path class="st3" d="M135.14,451.35c-1.08,0.75-2.44,1.15-3.74,0.93c-1.3-0.23-2.51-1.14-2.9-2.4c-0.09-0.29-0.14-0.58-0.16-0.89
			l-0.2,0.02c-0.19,1.51-5.38,6.09-6.8,5.56c-1.12,1.04-7.1-0.88-7.86-2.21l-0.21,0.02c0.1,0.3,0.18,0.6,0.2,0.92
			c0.12,1.31-0.64,2.62-1.75,3.33c-1.12,0.7-2.52,0.85-3.82,0.57c-3.52-0.76-5.84-4.6-5.61-8.2c0.23-3.6,2.54-6.82,5.45-8.95
			c2.91-2.13,6.39-3.34,9.83-4.41c3.6-0.33,7.65-1.06,11.16-0.2c3.5,0.85,6.86,2.94,8.46,6.18
			C138.78,444.87,138.11,449.3,135.14,451.35z"/>
		<g>
			<path class="st3" d="M120.82,455.43c0.03,0.93,0.36,1.69,0.64,2.57c0.6,1.9,1.54,3.71,2.46,5.47c2.2,4.25,4.69,8.55,8.16,11.91
				c8.1,7.84,21.94,11.38,31.76,4.55c4.8-3.34,7.73-9.66,5.78-15.4c-0.44-1.28-2.49-0.73-2.04,0.56c1.67,4.83-0.68,10.21-4.82,12.98
				c-4.34,2.91-10.07,3.06-15.03,1.97c-5.05-1.1-9.73-3.49-13.47-7.08c-3.12-2.99-5.31-6.79-7.45-10.51
				c-1.03-1.79-1.96-3.68-3.14-5.38c-0.57-0.83-0.98-1.58-1.61-2.16C121.61,454.51,120.8,454.78,120.82,455.43L120.82,455.43z"/>
		</g>
		<g>
			<path class="st3" d="M168.7,460.39c0.24-1.07,0.46-2.01,0.32-3.13c-0.14-1.07-0.55-2.12-1.03-3.07c-1-1.98-2.61-3.66-4.43-4.91
				c-4.1-2.82-9.38-3.34-14.16-4.06c-1.1-0.17-1.61,1.47-0.47,1.71c4.28,0.88,8.81,1.52,12.57,3.89c1.61,1.01,3.05,2.35,4.06,3.97
				c0.94,1.5,1.74,3.6,1.67,5.4C167.2,461.03,168.51,461.22,168.7,460.39L168.7,460.39z"/>
		</g>
		<g>
			<path class="st3" d="M123.41,389.88c0.24-6.16,0.8-12.24,2.38-18.22c1.57-5.94,4.04-11.61,7.36-16.78
				c6.06-9.43,15.05-16.95,25.24-21.56c2.52-1.14,5.14-2.12,7.8-2.85c2.54-0.7,5.39-1.2,7.96-0.39c6.57,2.07,4.81,10.84,4.14,15.87
				c-0.91,6.82-1.09,13.73-0.53,20.59c0.57,6.85,1.99,13.59,2.64,20.43c0.63,6.56,0.43,13.07-1.91,19.29
				c-1.98,5.24-5.52,9.87-10.66,12.29c-1.55,0.73-0.2,3.02,1.34,2.29c10.48-4.95,14.21-17.35,14.07-28.12
				c-0.09-7.38-1.62-14.62-2.54-21.91c-0.92-7.33-1.04-14.74-0.27-22.09c0.65-6.29,2.8-13.51-1.86-18.83
				c-4.17-4.76-11.34-3.15-16.53-1.38c-11.36,3.87-21.51,11.24-28.75,20.81c-7.79,10.29-12.31,23.07-12.19,36.01
				c0.02,1.61,0.21,3.21,0.45,4.8C121.72,391.22,123.37,390.89,123.41,389.88L123.41,389.88z"/>
		</g>
		<g>
			<path class="st3" d="M148.12,394.87c2.24-6.22,3.13-13.39,1.94-19.95c-0.26-1.42-2.65-1.11-2.54,0.34
				c0.24,3.21,0.5,6.36,0.28,9.58c-0.21,3.2-0.71,6.41-1.45,9.53C146.07,395.55,147.72,395.98,148.12,394.87L148.12,394.87z"/>
		</g>
		<g>
			<path class="st3" d="M152.93,394.97c0.61-2.01,1.28-4,1.87-6.01c0.59-2,1.27-4.02,1.71-6.06c0.32-1.51-1.83-2.11-2.31-0.64
				c-0.65,1.98-1.07,4.07-1.57,6.1c-0.5,2.04-0.92,4.1-1.4,6.15C150.98,395.6,152.6,396.05,152.93,394.97L152.93,394.97z"/>
		</g>
		<g>
			<path class="st3" d="M154.31,396.22c1.17,0,2.34,0.04,3.51,0.08c1.17,0.04,2.34-0.02,3.51-0.03c0.64-0.01,1.26-0.56,1.23-1.23
				c-0.03-0.65-0.54-1.26-1.23-1.23c-1.17,0.05-2.35,0.05-3.51,0.14c-1.17,0.1-2.34,0.2-3.51,0.26c-0.54,0.03-1,0.44-1,1
				C153.31,395.76,153.76,396.22,154.31,396.22L154.31,396.22z"/>
		</g>
		<g>
			<path class="st3" d="M157.81,401.33c0.66,0.01,1.37,0.2,2.01,0.35c0.7,0.17,1.39,0.36,2.06,0.62c1.22,0.48,2.47,1.26,3.37,2.05
				c0.49,0.43,1.23,0.48,1.71,0c0.45-0.45,0.48-1.26,0-1.71c-1.23-1.16-2.77-2.08-4.4-2.57c-0.79-0.24-1.64-0.4-2.47-0.44
				c-0.86-0.04-1.64,0.14-2.48,0.26C156.77,400.01,157,401.32,157.81,401.33L157.81,401.33z"/>
		</g>
		<g>
			<path class="st3" d="M152.53,411.01c-0.66-0.73-1.57-1.04-2.49-1.31c-0.96-0.29-1.96-0.43-2.95-0.52
				c-1.92-0.17-3.87,0.03-5.73,0.5c-0.79,0.2-1.26,1.08-1.05,1.85c0.21,0.77,1.07,1.28,1.85,1.05c1.62-0.48,3.15-0.68,4.84-0.67
				c0.85,0.01,1.69,0.09,2.53,0.2c0.83,0.11,1.62,0.33,2.45,0.22C152.63,412.23,153.01,411.54,152.53,411.01L152.53,411.01z"/>
		</g>
		<g>
			<path class="st3" d="M172.22,495.15c-0.22,1.87,0.8,4.04,1.55,5.72c0.84,1.9,1.86,3.7,2.99,5.45c2.29,3.53,4.95,6.81,7.36,10.26
				c2.4,3.42,4.63,7.04,5.82,11.08c0.58,1.95,0.91,3.96,0.95,6c0.03,2.05-0.37,3.97-0.82,5.95c-0.26,1.17,1.34,1.92,1.97,0.83
				c3.31-5.72,1.27-13.41-1.49-18.9c-3.07-6.09-7.74-11.14-11.48-16.79c-1.03-1.56-2.03-3.17-2.9-4.83c-0.41-0.8-0.8-1.61-1.18-2.42
				c-0.42-0.9-0.7-1.93-1.3-2.74C173.2,494.11,172.31,494.35,172.22,495.15L172.22,495.15z"/>
		</g>
		<g>
			<path class="st3" d="M187.84,542.9c-0.96,1.18-2.47,2.02-3.86,2.61c-1.43,0.61-2.85,0.76-4.39,0.67
				c-0.59-0.04-1.09,0.52-1.09,1.09c0,0.64,0.5,1.02,1.09,1.09c1.83,0.19,3.72-0.27,5.37-1.05c0.79-0.38,1.56-0.88,2.18-1.51
				c0.64-0.65,1.16-1.4,1.66-2.15C189.17,543.07,188.28,542.36,187.84,542.9L187.84,542.9z"/>
		</g>
		<g>
			<path class="st3" d="M186.29,526.51c-0.92-5.46-5.51-8.55-10.39-10.38c-5.36-2.01-11.52-3.74-17.28-3.06
				c-2.6,0.3-5.21,1.03-7.46,2.4c-2.23,1.37-4.02,3.34-5.42,5.53c-2.89,4.53-4.95,10.45-3.75,15.83c1.18,5.29,6.41,9.79,12.01,7.9
				c1.28-0.43,0.73-2.45-0.56-2.03c-4.51,1.48-8.12-2.43-8.87-6.59c-0.81-4.48,1.09-9.43,3.35-13.23c2.34-3.94,5.96-6.44,10.51-7.11
				c4.99-0.74,10.05,0.57,14.8,2.03c4.66,1.44,10.11,4.01,11.65,9.1C185.16,527.82,186.45,527.43,186.29,526.51L186.29,526.51z"/>
		</g>
		<g>
			<path class="st3" d="M156.79,535.03c-0.71,0.9-1.49,1.7-2.08,2.69c-0.61,1.02-1.02,2.1-1.14,3.29c-0.24,2.27,0.87,4.38,2.82,5.54
				c1.76,1.05,3.97,1.63,5.99,1.91c2.27,0.32,4.72,0,6.34-1.77c1.48-1.6,2.39-4.37,1.23-6.39c-0.59-1.02-2.26-0.59-2.24,0.61
				c0.01,0.82,0.1,1.6-0.21,2.38c-0.27,0.69-0.77,1.32-1.38,1.69c-1.75,1.08-3.99,0.42-5.81-0.11c-1.52-0.44-3.64-1.06-4.11-2.79
				c-0.57-2.1,0.65-4.45,1.7-6.19C158.3,535.22,157.3,534.39,156.79,535.03L156.79,535.03z"/>
		</g>
		<g>
			<path class="st3" d="M168,541.19c-0.14,1.97,0.18,3.76,1.38,5.39c1.21,1.64,2.82,2.91,4.83,3.38c1.99,0.47,4.06,0.25,5.91-0.62
				c1.83-0.86,3.06-2.43,3.74-4.3c0.7-1.93,0.57-4.37-0.64-6.07c-0.37-0.52-0.98-0.79-1.59-0.52c-0.53,0.23-0.97,0.9-0.74,1.5
				c0.61,1.55,0.65,3.17-0.16,4.57c-0.77,1.34-2.21,2.24-3.66,2.43c-1.67,0.21-3.31-0.27-4.64-1.36c-0.68-0.56-1.23-1.26-1.7-2
				c-0.5-0.78-1.04-1.71-1.29-2.61C169.21,540.16,168.06,540.38,168,541.19L168,541.19z"/>
		</g>
	</g>
</g>
<g>
	<g>
		<path class="st2" d="M1339.2,431.11c3.27-15.78,4.25-34.48,0.98-57.16c0.58-8.46-5.23-21.38-12.9-29.7
			c0.01-0.45-0.16-0.91-0.61-1.31c-4.61-4.06-9.98-8.56-16.55-8.02c-2.71,0.22-5.41,1.17-7.36,3.13c-2.2,2.21-3.03,5.38-2.85,8.43
			c0.39,6.62,3.95,12.87,7.15,18.52c1.52,2.68,3,5.38,4.38,8.12c0.57,1.52,1.12,3.05,1.66,4.58c5.28,14.91,9.3,30.15,7.4,45.79
			C1325.37,428.12,1332.1,430.6,1339.2,431.11z"/>
		<path class="st0" d="M1320.5,423.48c-1.3,10.75-5.39,21.68-13.77,32.83c2.29-6.46-8.18-22.88-3.76-26.56
			c-0.05-0.22-0.11-0.42-0.16-0.64c4.82-5.51,7.54-12.49,9.22-19.55c1.96-8.28,2.95-17.2,2.08-25.69c-0.21-2.08-0.59-4.14-1.29-6.07
			c-0.69-1.93-1.69-3.73-3.13-5.29c-2.53-7.62-26.88,3.33-31.51,5.81c-6.08,4.29-11.58,8.65-17.41,11.2
			c-0.26,0.34-0.54,0.66-0.83,0.98c-3.09,3.27-7.31,2.29-11.2,1.36c-0.51-0.12-1.03-0.24-1.54-0.35c-0.61-0.1-1.24-0.22-1.87-0.37
			c-2.86-0.51-5.75-0.79-8.65-0.82c2.7,21.52-3.01,43.79-20.33,57.9c-14.38,12.46-38.33,18.21-54.63,4.79
			c-1.9-1.9-3.71-3.87-5.37-5.97c-4.77,20.87,0.1,45.32,23.69,50.25c-3.87,7.66-5.2,16.43-3.8,24.89
			c-29.56,8.37-5.91,46.86,15.76,28.37c3.79,3.51,10.36,2.57,13.49-1.33c0.59,5.19,8.66-0.64,9.38-3.53
			c11.99,0.08,23.98,0.16,35.98,0.25c5.68,5.97,16.47,6.91,23.39,2.13c3.24,5.4,10.5,7.53,16.2,4.99
			c9.28,3.31,15.5-8.06,14.13-16.06c-20.73-29.57,22.6-47.84,34.65-105.89C1332.1,430.6,1325.37,428.12,1320.5,423.48z"/>
		<path class="st4" d="M1216.33,448.22c17.32-14.11,23.03-36.38,20.33-57.9c-0.55-0.01-1.11-0.02-1.66,0
			c-4.3,0.1-8.75,1.38-12.84-0.59c-2.78-1.35-4.38-4.06-6.62-6.03c-11.1-7.31-20.69-19.42-35.11-22.89
			c-0.08-0.2-0.18-0.39-0.35-0.57c-1.3-1.5-3.51-1.82-5.32-1.15c-2.04,0.77-3.24,2.52-4.01,4.48c-0.85,2.17-1.39,4.49-1.96,6.74
			c-0.65,2.51-1.23,5.04-1.73,7.58c-1.83,9.34-2.9,19.39-1.23,28.83c0.59,3.33,1.77,6.69,3.87,9.35c-2.99,5.25-5.44,10.89-7.7,15.56
			c-2.46,4.6-4.4,9.89-5.66,15.43c1.66,2.09,3.47,4.07,5.37,5.97C1177.99,466.43,1201.95,460.68,1216.33,448.22z"/>
		<path class="st1" d="M1295.33,414.66c2.62,2.06,4.32,4.65,5.52,7.51c0.53-0.92,1.05-1.84,1.57-2.7
			c7.51-12.44,12.35-30.09,3.15-42.91c-1.33,0.32-2.63,0.75-3.89,1.3c-8.55,3.68-15.3,11.23-19.5,19.69c-1.3,3.87-2,7.85-1.85,11.61
			C1285.74,409.74,1290.99,411.25,1295.33,414.66z"/>
		<path class="st1" d="M1195.53,388.71c-0.39-3.17-1.58-6.23-3-9.07c-1.52-3.02-3.28-5.99-5.41-8.62c-2.21-2.73-4.74-4.92-7.97-6.35
			c-1.45-0.64-2.94-1.17-4.44-1.68c-0.02,0.06-0.04,0.11-0.07,0.17c-2.03,3.9-3.68,7.97-4.92,12.19c-0.98,3.34-1.7,6.77-2.16,10.23
			c-0.12,3.86,0.04,7.74,0.39,11.55c0.43,4.69,1.47,9.18,2.58,13.75c0.14,0.56,0.24,1.17,0.35,1.8c3.92-4.91,8.93-8.54,14.8-10.92
			c2.7-1.09,5.49-1.89,8.32-2.52C1195.3,395.86,1195.98,392.33,1195.53,388.71z"/>
	</g>
	<g>
		<g>
			<path class="st3" d="M1173.14,406.96c-1.26,3.7-3.17,7.21-4.83,10.74c-1.62,3.44-3.34,6.83-5.01,10.25
				c-3.43,7.01-6.79,14.14-8.78,21.72c-1.86,7.1-2.49,14.64-0.78,21.83c1.41,5.92,4.34,11.43,8.27,16.07
				c4.4,5.19,10.31,9.48,16.87,11.43c1.7,0.51,2.32-2,0.72-2.61c-10.94-4.2-19.64-13.05-22.78-24.47
				c-3.94-14.3,2.29-28.85,8.43-41.54c1.82-3.76,3.66-7.5,5.32-11.33c1.66-3.81,2.76-7.71,3.92-11.69
				C1174.75,406.46,1173.43,406.11,1173.14,406.96L1173.14,406.96z"/>
		</g>
		<g>
			<path class="st3" d="M1221.27,390.37c-1.48-3.45-4.16-6.44-6.63-9.23c-2.54-2.87-5.3-5.54-8.23-8.02
				c-5.79-4.91-12.23-9.03-19.12-12.21c-1.73-0.8-3.48-1.54-5.26-2.22c-1.79-0.69-3.65-1.36-5.6-1.4c-4.07-0.09-6.26,3.02-7.52,6.48
				c-3.02,8.32-5.59,17.04-6.47,25.87c-0.89,8.88,0.22,18.78,5.22,26.4c0.97,1.48,3.28,0.16,2.39-1.4
				c-3.76-6.62-5.25-13.89-4.99-21.48c0.28-8.35,2.58-16.5,5.07-24.42c0.88-2.79,1.66-7.94,5.1-8.7c1.85-0.41,3.85,0.38,5.56,1.02
				c1.63,0.61,3.23,1.27,4.82,1.99c6.4,2.91,12.44,6.66,17.91,11.09c3.08,2.49,5.96,5.21,8.68,8.09c2.75,2.91,5.02,6.28,7.88,9.07
				C1220.74,391.93,1221.59,391.12,1221.27,390.37L1221.27,390.37z"/>
		</g>
		<g>
			<path class="st3" d="M1192.62,399.63c-1.58-2.6-3.59-4.91-5.89-6.91c-1.14-0.99-2.34-1.91-3.58-2.76
				c-1.3-0.89-2.64-1.76-4.14-2.28c-1.31-0.45-1.9,1.4-0.89,2.11c1.18,0.82,2.48,1.46,3.68,2.25c1.18,0.77,2.31,1.61,3.38,2.52
				c2.19,1.86,4.18,3.95,6.03,6.14C1191.88,401.49,1193.14,400.49,1192.62,399.63L1192.62,399.63z"/>
		</g>
		<g>
			<path class="st3" d="M1186.96,398.91c-1.49-0.27-2.98-0.54-4.47-0.81c-0.73-0.13-1.47-0.23-2.21-0.34
				c-0.8-0.11-1.79-0.43-2.57-0.14c-0.91,0.33-1.04,1.43-0.26,1.98c0.65,0.47,1.65,0.43,2.43,0.53c0.77,0.1,1.53,0.21,2.3,0.28
				c1.51,0.14,3.02,0.28,4.52,0.42C1187.79,400.94,1188.05,399.1,1186.96,398.91L1186.96,398.91z"/>
		</g>
		<g>
			<path class="st3" d="M1181.97,401.29c-1,0.14-2,0.27-3.01,0.41c-0.49,0.07-0.98,0.13-1.47,0.21c-0.51,0.08-1.02,0.14-1.5,0.31
				c-0.55,0.19-0.91,0.67-0.83,1.27c0.08,0.58,0.55,0.98,1.13,1c0.58,0.02,1.16-0.1,1.74-0.18c0.51-0.07,1.01-0.16,1.52-0.25
				c1.01-0.17,2.03-0.34,3.04-0.51c0.6-0.1,1-0.88,0.82-1.44C1183.19,401.44,1182.62,401.21,1181.97,401.29L1181.97,401.29z"/>
		</g>
		<g>
			<path class="st3" d="M1204.16,553.22c3.88,0.81,8.37,0.35,11.02-2.94c2.63-3.26,2.84-7.66,1.51-11.5
				c-2.65-7.69-9.31-13.99-16.67-17.18c-8.01-3.48-17.26-3.52-25.29-0.1c-7.48,3.18-13.78,9.54-14.76,17.87
				c-0.53,4.52,0.76,9.21,3.89,12.57c2.89,3.09,7.2,4.94,11.44,4.41c1.78-0.22,1.81-3.05,0-2.83c-7.03,0.86-12.52-5.25-12.59-11.99
				c-0.07-7.25,4.87-13.14,11.02-16.41c6.68-3.56,14.79-4.24,22.01-2.01c6.46,1.99,12.13,6.39,15.78,12.07
				c2.14,3.33,3.96,7.61,2.41,11.56c-1.62,4.15-6.05,4.18-9.77,5.03C1203.45,551.92,1203.43,553.07,1204.16,553.22L1204.16,553.22z"
				/>
		</g>
		<g>
			<path class="st3" d="M1171.85,548.23c0.34,2.34,1.14,4.39,2.93,6.03c1.78,1.63,3.98,2.64,6.38,2.84
				c4.7,0.39,9.62-2.73,11.21-7.17c0.57-1.6-2.06-2.73-2.76-1.17c-1.5,3.33-4.53,5.69-8.31,5.46c-1.7-0.11-3.42-0.86-4.73-1.93
				c-1.38-1.13-2.82-2.71-3.35-4.44C1172.93,546.97,1171.72,547.36,1171.85,548.23L1171.85,548.23z"/>
		</g>
		<g>
			<path class="st3" d="M1190.51,550.53c0.36,0.5,0.55,1.04,0.97,1.52c0.34,0.39,0.75,0.73,1.15,1.06c0.91,0.73,1.87,1.26,2.96,1.67
				c2.15,0.82,4.58,0.95,6.81,0.32c2.22-0.63,4.14-1.97,5.45-3.87c1.19-1.72,2.16-4.62,1.36-6.67c-0.57-1.47-2.75-1.32-2.82,0.38
				c-0.03,0.8,0.12,1.57-0.06,2.37c-0.19,0.84-0.5,1.6-0.97,2.33c-0.91,1.41-2.39,2.34-3.99,2.77c-1.63,0.44-3.35,0.36-4.95-0.16
				c-0.84-0.27-1.66-0.68-2.43-1.11c-0.38-0.21-0.74-0.46-1.1-0.7c-0.39-0.26-0.93-0.44-1.28-0.75
				C1191.06,549.18,1190.01,549.84,1190.51,550.53L1190.51,550.53z"/>
		</g>
		<g>
			<path class="st3" d="M1189.99,543.54c0.1,1.14,0.27,2.28,0.3,3.42c0.02,0.58,0,1.17-0.06,1.74c-0.06,0.57-0.24,1.15-0.24,1.72
				c-0.01,0.85,1.28,1.28,1.67,0.45c0.3-0.64,0.36-1.36,0.42-2.05c0.05-0.62,0.06-1.25,0.02-1.87c-0.08-1.33-0.35-2.57-1.06-3.71
				C1190.78,542.81,1189.94,542.95,1189.99,543.54L1189.99,543.54z"/>
		</g>
		<g>
			<path class="st3" d="M1299.22,418.92c0.28,3.75,0.45,7.46,1.16,11.17c0.71,3.75,1.61,7.46,2.52,11.17
				c1.79,7.27,3.55,14.58,4.02,22.07c0.44,7.05-0.19,14.36-3.17,20.85c-2.41,5.25-6.12,9.85-10.67,13.39
				c-5.22,4.07-11.31,6.4-17.82,7.42c-1.5,0.23-1.16,2.78,0.36,2.66c12.02-0.93,23.28-8.9,29.2-19.24
				c7.53-13.18,5.36-28.92,2.01-43.01c-1.03-4.31-2.15-8.59-3.2-12.89c-0.54-2.22-1.02-4.45-1.55-6.67
				c-0.54-2.29-1.16-4.58-1.43-6.92C1300.52,418.04,1299.15,418,1299.22,418.92L1299.22,418.92z"/>
		</g>
		<g>
			<path class="st3" d="M1264.84,395.05c-2.02-0.99-3.96-1.88-6.1-2.6c-2.03-0.68-4.09-1.25-6.18-1.75
				c-4.33-1.02-8.74-1.71-13.17-2.06c-8.79-0.7-17.85-0.12-26.42,2.02c-1.31,0.33-0.76,2.31,0.56,2.02
				c8.46-1.85,17.01-2.61,25.65-1.94c8.62,0.67,16.95,2.9,25.14,5.55C1265.04,396.53,1265.54,395.39,1264.84,395.05L1264.84,395.05z
				"/>
		</g>
		<g>
			<path class="st3" d="M1257.99,393.71c3.04-1.91,5.67-4.43,8.6-6.51c2.95-2.09,6.02-4.03,9.21-5.75
				c6.33-3.42,13.09-6.03,20.08-7.73c3.34-0.81,7.05-1.81,10.51-1.63c1.66,0.09,3.11,0.75,3.88,2.28c0.77,1.51,0.88,3.31,1.05,4.97
				c0.84,8.47,1.6,17.12,0.44,25.6c-1.12,8.18-4.16,15.82-9.69,22.02c-1.18,1.32,0.68,3.22,1.96,1.96
				c5.52-5.45,8.66-13.17,10.07-20.69c1.69-9.01,1.06-18.19,0.1-27.25c-0.37-3.48-0.43-7.82-3.49-10.14
				c-2.98-2.26-7.14-1.34-10.51-0.74c-7.69,1.37-15.2,3.82-22.22,7.26c-3.9,1.91-7.68,4.1-11.22,6.61c-3.49,2.48-7.31,5.16-9.8,8.69
				C1256.51,393.31,1257.38,394.1,1257.99,393.71L1257.99,393.71z"/>
		</g>
		<g>
			<path class="st3" d="M1284.22,408.99c2.26-1.75,4.64-3.37,7.16-4.72c1.23-0.66,2.49-1.25,3.79-1.76
				c1.36-0.53,2.79-0.88,4.13-1.45c0.54-0.23,0.91-0.65,0.83-1.27c-0.07-0.51-0.56-1.07-1.13-1c-2.99,0.36-5.99,1.83-8.61,3.27
				c-2.67,1.47-5.15,3.31-7.25,5.53C1282.48,408.29,1283.39,409.64,1284.22,408.99L1284.22,408.99z"/>
		</g>
		<g>
			<path class="st3" d="M1288.86,410.06c1.52,0.18,3.03,0.36,4.55,0.55c0.74,0.09,1.49,0.15,2.23,0.21c0.87,0.07,1.7,0.23,2.52-0.13
				c0.79-0.34,0.62-1.48,0-1.87c-0.69-0.44-1.65-0.37-2.44-0.42c-0.77-0.05-1.54-0.12-2.32-0.14c-1.52-0.05-3.03-0.1-4.55-0.15
				c-0.53-0.02-0.98,0.46-0.98,0.98C1287.88,409.66,1288.33,410,1288.86,410.06L1288.86,410.06z"/>
		</g>
		<g>
			<path class="st3" d="M1292.33,413.65c0.94,0.37,1.88,0.75,2.82,1.12c0.45,0.18,0.9,0.37,1.36,0.54c0.49,0.18,0.97,0.39,1.49,0.48
				c0.57,0.1,1.12-0.11,1.36-0.67c0.22-0.53,0.02-1.14-0.47-1.44c-0.5-0.31-1.07-0.5-1.62-0.71c-0.47-0.18-0.95-0.35-1.42-0.52
				c-0.96-0.35-1.93-0.7-2.89-1.05c-0.58-0.21-1.3,0.23-1.44,0.82C1291.36,412.88,1291.72,413.4,1292.33,413.65L1292.33,413.65z"/>
		</g>
		<g>
			<path class="st3" d="M1262.3,550.15c-3.28-0.74-7.29-0.72-9.23-3.96c-1.89-3.15-1.08-7.09,0.48-10.19
				c3.04-6.07,8.44-11.03,14.71-13.63c6.96-2.89,14.99-2.87,21.97-0.05c6.4,2.58,12.09,7.8,13.31,14.84
				c0.66,3.84-0.17,8.08-2.83,11.02c-2.44,2.69-5.91,4.17-9.55,3.72c-1.8-0.22-1.79,2.61,0,2.83c3.75,0.46,7.46-0.92,10.3-3.33
				c3.06-2.6,4.75-6.36,5.09-10.32c0.72-8.49-4.91-15.92-12.05-19.86c-7.61-4.2-17.03-5.06-25.28-2.32
				c-7.57,2.52-14.24,7.92-18.01,14.99c-2.22,4.15-3.28,9.16-0.84,13.46c2.43,4.28,7.44,5.18,11.93,4.24
				C1263.03,551.46,1263.02,550.31,1262.3,550.15L1262.3,550.15z"/>
		</g>
		<g>
			<path class="st3" d="M1293.26,546.25c-0.52,1.7-1.91,3.24-3.25,4.36c-1.33,1.11-3.09,1.9-4.83,2.01
				c-3.79,0.24-6.81-2.13-8.31-5.46c-0.7-1.55-3.34-0.45-2.76,1.17c1.58,4.43,6.51,7.57,11.21,7.17c2.41-0.21,4.6-1.21,6.38-2.84
				c1.79-1.64,2.59-3.69,2.93-6.03C1294.74,545.75,1293.53,545.36,1293.26,546.25L1293.26,546.25z"/>
		</g>
		<g>
			<path class="st3" d="M1274.84,548.06c-0.32,0.28-0.81,0.43-1.17,0.67c-0.36,0.24-0.72,0.49-1.1,0.71
				c-0.77,0.44-1.58,0.85-2.42,1.13c-1.64,0.56-3.39,0.66-5.07,0.21c-1.55-0.41-3.01-1.31-3.92-2.66c-0.48-0.71-0.81-1.47-1.01-2.31
				c-0.2-0.85-0.05-1.64-0.08-2.49c-0.07-1.69-2.24-1.86-2.82-0.38c-0.79,2.02,0.15,4.86,1.29,6.57c1.3,1.95,3.27,3.34,5.52,3.98
				c2.18,0.62,4.56,0.51,6.68-0.27c1.13-0.42,2.15-0.96,3.08-1.72c0.4-0.33,0.81-0.67,1.15-1.06c0.42-0.47,0.61-1.02,0.97-1.52
				C1276.44,548.24,1275.41,547.57,1274.84,548.06L1274.84,548.06z"/>
		</g>
		<g>
			<path class="st3" d="M1275.41,541.64c-0.71,1.14-0.97,2.38-1.06,3.71c-0.04,0.62-0.03,1.25,0.02,1.87
				c0.06,0.69,0.12,1.42,0.42,2.05c0.39,0.83,1.68,0.39,1.67-0.45c0-0.58-0.18-1.15-0.24-1.72c-0.06-0.58-0.08-1.16-0.06-1.74
				c0.04-1.14,0.21-2.28,0.3-3.42C1276.52,541.34,1275.69,541.2,1275.41,541.64L1275.41,541.64z"/>
		</g>
		<g>
			<path class="st3" d="M1292.35,502.17c0,0.97-0.23,1.92-0.21,2.91c0.02,0.97,0.05,1.93,0.16,2.9c0.19,1.77,0.42,3.56,0.78,5.3
				c0.37,1.78,0.81,3.54,1.33,5.28c0.5,1.68,0.94,3.84,2.06,5.21c0.59,0.72,1.85,0.12,1.81-0.75c-0.06-1.69-1.02-3.49-1.5-5.11
				c-0.5-1.68-0.94-3.37-1.31-5.08c-0.37-1.71-0.73-3.41-1.01-5.14c-0.14-0.89-0.31-1.78-0.45-2.66c-0.15-0.95-0.5-1.91-0.6-2.85
				C1293.33,501.51,1292.36,501.48,1292.35,502.17L1292.35,502.17z"/>
		</g>
		<g>
			<path class="st3" d="M1309.21,454.68c11.16-18.58,14.08-41.71,9.95-62.82c-2.07-10.59-6-20.85-11.68-30.03
				c-2.99-4.84-6.67-9.84-6.38-15.82c0.25-5.24,4.15-8.64,9.25-8.92c10.7-0.59,18.99,8.98,22.95,17.91
				c4.65,10.47,6.03,22.42,6.82,33.74c1.49,21.46-1.7,43.46-8.6,63.81c-6.89,20.33-17.64,39.52-31.8,55.68
				c-1.75,1.99-3.55,3.94-5.39,5.84c-0.98,1.01,0.57,2.56,1.55,1.55c15.32-16.02,27.26-35.08,35.25-55.75
				c7.95-20.58,12.02-42.64,11.61-64.71c-0.1-5.55-0.43-11.08-1.09-16.6c-0.72-5.96-1.61-11.98-3.22-17.77
				c-2.97-10.68-9.65-21.37-20.48-25.39c-4.4-1.63-9.84-1.79-13.97,0.66c-4.71,2.79-6.11,8.34-5.2,13.46
				c1.05,5.93,5.02,10.8,7.95,15.89c2.8,4.86,5.12,10,6.92,15.32c7.16,21.15,6.45,45.06-2.29,65.65c-1.08,2.54-2.17,5.08-3.42,7.55
				C1307.5,454.78,1308.72,455.5,1309.21,454.68L1309.21,454.68z"/>
		</g>
		<path class="st1" d="M1240.13,463.95c-1.68,2.01-3.37,4.04-5.57,5.47c-2.19,1.42-4.97,2.16-7.46,1.32
			c-1.44-0.49-2.66-1.47-3.83-2.45c-1.96-1.67-3.9-3.46-5.18-5.71c-1.27-2.25-1.81-5.04-0.87-7.45l1.96-1.8
			c6.14-1.29,12.63-0.89,18.56,1.17c2.02,0.7,4.23,1.87,4.67,3.96C1242.84,460.47,1241.44,462.36,1240.13,463.95z"/>
		<g>
			<path class="st3" d="M1206.1,460.06c-0.84,0.17-1.63,0.08-2.47,0.39c-0.85,0.31-1.64,0.75-2.28,1.4
				c-1.25,1.26-1.7,3.02-1.73,4.75c-0.07,3.33,1.02,7.09,2.5,10.04c1.55,3.09,4.11,5.73,7.47,6.76c3.64,1.11,7.68,0.31,10.99-1.42
				c3.91-2.04,7.4-5.42,10.07-8.9c0.85-1.11-0.92-2.31-1.87-1.44c-3.11,2.85-5.66,6.16-9.48,8.14c-3.56,1.84-8.09,2.36-11.5-0.07
				c-2.93-2.08-4.35-5.82-5.12-9.19c-0.39-1.69-0.76-3.63-0.35-5.34c0.23-0.97,0.75-1.75,1.56-2.33c0.38-0.27,0.8-0.49,1.22-0.7
				c0.43-0.23,0.91-0.62,1.36-0.78C1207.27,461.06,1206.96,459.88,1206.1,460.06L1206.1,460.06z"/>
		</g>
		<g>
			<path class="st3" d="M1254.65,465.81c0.74,0.47,1.6,1.32,2.2,1.97c0.74,0.8,1.08,1.75,1.07,2.84c-0.03,1.91-0.92,3.9-1.76,5.58
				c-1.56,3.09-3.79,6.31-7.19,7.51c-3.7,1.31-7.75-0.15-10.67-2.54c-3.34-2.72-5.13-6.5-7.57-9.94c-0.89-1.25-2.71-0.19-2.06,1.2
				c3.1,6.55,8.72,13.59,16.44,14.27c7.52,0.66,12.47-6.29,14.69-12.61c0.66-1.88,1-4.11,0.16-5.99c-0.41-0.92-1.05-1.66-1.85-2.25
				c-0.38-0.28-0.77-0.52-1.21-0.72c-0.51-0.23-1.07-0.28-1.57-0.5C1254.56,464.31,1253.9,465.34,1254.65,465.81L1254.65,465.81z"/>
		</g>
		<g>
			<path class="st3" d="M1222.29,485.49c0.07,0.3,0.11,0.71,0.25,1.08c0.15,0.41,0.35,0.79,0.58,1.16c0.44,0.71,0.95,1.39,1.53,1.99
				c0.58,0.6,1.23,1.13,1.91,1.6c0.71,0.5,1.47,0.85,2.27,1.17c0.64,0.25,1.47-0.28,1.61-0.92c0.17-0.76-0.23-1.33-0.92-1.61
				c-0.3-0.12,0.26,0.12-0.03-0.01c-0.09-0.04-0.17-0.08-0.26-0.12c-0.16-0.07-0.31-0.15-0.46-0.23c-0.31-0.16-0.61-0.32-0.91-0.5
				c-0.31-0.19-0.61-0.39-0.9-0.6c-0.03-0.02-0.24-0.18-0.1-0.07c0.14,0.11-0.07-0.06-0.1-0.08c-0.15-0.12-0.29-0.24-0.43-0.37
				c-0.51-0.46-1-0.95-1.44-1.49c-0.06-0.07-0.12-0.15-0.18-0.22c0.14,0.18-0.05-0.07-0.06-0.09c-0.13-0.17-0.25-0.34-0.39-0.5
				c-0.06-0.07-0.12-0.14-0.17-0.21c0.13,0.17-0.28-0.34-0.17-0.22c-0.11-0.12-0.24-0.2-0.31-0.31
				C1223.14,484.29,1222.1,484.66,1222.29,485.49L1222.29,485.49z"/>
		</g>
		<path class="st3" d="M1211.89,439.66c-0.03,11.23-14.89,11.01-14.59-0.21C1197.33,428.22,1212.18,428.44,1211.89,439.66z"/>
		<path class="st3" d="M1266.07,446.35c-0.03,11.23-14.89,11.01-14.59-0.21C1251.52,434.91,1266.37,435.13,1266.07,446.35z"/>
		<g>
			<path class="st3" d="M1195.04,425.45c1.07-0.06,1.99-0.81,2.88-1.35c0.92-0.56,1.82-1.1,2.8-1.54c0.78-0.36,1.77-0.71,2.7-0.99
				c0.5-0.15,1-0.28,1.5-0.39c0.53-0.12,1.11-0.14,1.61-0.33c0.76-0.28,1.3-0.95,1.17-1.79c-0.12-0.82-0.77-1.37-1.6-1.42
				c-0.61-0.03-1.28,0.17-1.88,0.31c-0.53,0.13-1.06,0.27-1.59,0.44c-1.15,0.37-2.26,0.84-3.33,1.39c-0.97,0.5-1.92,1.08-2.8,1.73
				c-0.89,0.66-2.17,1.63-2.35,2.79C1194.08,424.85,1194.4,425.49,1195.04,425.45L1195.04,425.45z"/>
		</g>
		<g>
			<path class="st3" d="M1266.81,431.92c0.31-1.18-0.9-2.01-1.74-2.58c-0.8-0.55-1.62-1.02-2.51-1.41
				c-1.88-0.82-3.91-1.59-5.97-1.76c-0.84-0.07-1.56,0.7-1.66,1.47c-0.11,0.82,0.39,1.63,1.21,1.86c0.9,0.25,1.82,0.4,2.72,0.65
				c0.9,0.25,1.78,0.56,2.65,0.92c-0.16-0.07-0.02-0.01,0.06,0.03c0.1,0.04,0.2,0.09,0.3,0.13c0.28,0.12,0.56,0.24,0.85,0.35
				c0.05,0.02,0.1,0.04,0.15,0.06c-0.1-0.04-0.1-0.04,0,0c0.1,0.04,0.2,0.09,0.3,0.13c0.2,0.09,0.4,0.18,0.6,0.28
				c0.52,0.25,1.08,0.54,1.66,0.6C1265.96,432.69,1266.66,432.5,1266.81,431.92L1266.81,431.92z"/>
		</g>
		<g>
			<path class="st3" d="M1179.19,498.71c-2.36,1.58-4.01,3.82-5.36,6.3c-0.66,1.21-1.2,2.5-1.65,3.8c-0.45,1.31-1.02,2.86-0.95,4.26
				c0.06,1.37,1.8,1.5,2.28,0.31c0.47-1.17,0.6-2.49,0.99-3.7c0.4-1.22,0.9-2.4,1.47-3.55c1.15-2.3,2.71-4.38,4.15-6.49
				C1180.5,499.08,1179.74,498.34,1179.19,498.71L1179.19,498.71z"/>
		</g>
		<g>
			<path class="st3" d="M1177.62,508.48c-0.66,0.77-1.34,1.5-1.85,2.39c-0.53,0.92-0.91,1.94-1.2,2.95
				c-0.57,2.04-0.67,4.26-0.21,6.34c0.15,0.68,0.93,1.07,1.57,0.89c0.74-0.2,0.99-0.89,0.89-1.57c-0.24-1.69-0.24-3.42,0.09-5.1
				c0.17-0.87,0.43-1.7,0.73-2.53c0.3-0.85,0.61-1.73,1.1-2.49C1179.19,508.68,1178.16,507.85,1177.62,508.48L1177.62,508.48z"/>
		</g>
	</g>
</g>
<g>
	<g>
		<g>
			<path class="st4" d="M34.06,300.13c-0.07,0-0.14,0-0.21-0.01c-9.29-0.88-18.42-2.76-27.14-5.57c-1.18-0.38-1.82-1.64-1.44-2.82
				c0.38-1.18,1.64-1.82,2.82-1.44c8.42,2.72,17.23,4.53,26.19,5.38c1.23,0.12,2.13,1.21,2.02,2.44
				C36.18,299.26,35.2,300.13,34.06,300.13z M61.28,299.83c-1.12,0-2.08-0.84-2.22-1.97c-0.14-1.23,0.73-2.34,1.96-2.48
				c8.96-1.05,17.72-3.07,26.05-5.99c1.17-0.42,2.44,0.21,2.85,1.37c0.41,1.17-0.21,2.44-1.37,2.85
				c-8.64,3.03-17.73,5.12-27.01,6.21C61.46,299.83,61.37,299.83,61.28,299.83z M112.27,281.79c-0.73,0-1.45-0.36-1.88-1.02
				c-0.67-1.04-0.38-2.42,0.66-3.09c1.99-1.29,3.94-2.65,5.81-4.05c5.05-3.78,9.91-8.01,14.85-12.95c0.87-0.87,2.29-0.87,3.16,0
				c0.87,0.87,0.87,2.29,0,3.16c-5.09,5.1-10.11,9.47-15.33,13.37c-1.95,1.46-3.98,2.87-6.05,4.22
				C113.11,281.68,112.69,281.79,112.27,281.79z M151.23,243.97c-0.48,0-0.97-0.16-1.38-0.48c-0.97-0.76-1.14-2.17-0.38-3.14
				c4.91-6.25,9.72-12.81,14.38-19.15l1.93-2.63c0.73-0.99,2.13-1.21,3.13-0.48c1,0.73,1.21,2.13,0.48,3.13l-1.93,2.62
				c-4.68,6.37-9.52,12.96-14.47,19.27C152.54,243.68,151.89,243.97,151.23,243.97z M184.15,200.47c-0.5,0-1-0.17-1.42-0.51
				c-0.96-0.78-1.1-2.19-0.31-3.15c6.51-7.95,12.64-14.55,18.76-20.2c0.91-0.83,2.33-0.78,3.16,0.13c0.84,0.91,0.78,2.32-0.13,3.16
				c-5.96,5.5-11.96,11.96-18.33,19.74C185.44,200.19,184.8,200.47,184.15,200.47z M224.45,164.12c-0.75,0-1.49-0.38-1.91-1.07
				c-0.64-1.06-0.31-2.43,0.75-3.07c7.47-4.54,15.79-8.68,24.73-12.28c1.15-0.45,2.45,0.09,2.91,1.24c0.46,1.14-0.09,2.45-1.24,2.91
				c-8.71,3.51-16.81,7.53-24.08,11.95C225.25,164.02,224.85,164.12,224.45,164.12z M274.71,143.37c-0.98,0-1.88-0.65-2.16-1.64
				c-0.33-1.19,0.37-2.42,1.56-2.75c8.07-2.22,16.8-4.26,26.72-6.24c1.21-0.25,2.39,0.54,2.63,1.75c0.24,1.21-0.54,2.39-1.76,2.63
				c-9.81,1.96-18.44,3.98-26.41,6.17C275.1,143.35,274.91,143.37,274.71,143.37z M328.12,132.33c-1.07,0-2.02-0.77-2.2-1.87
				c-0.2-1.22,0.62-2.37,1.83-2.58l3.17-0.53c7.77-1.3,15.8-2.65,23.67-4.11c1.22-0.25,2.38,0.58,2.61,1.79
				c0.22,1.21-0.58,2.38-1.79,2.61c-7.91,1.46-15.96,2.81-23.75,4.12l-3.17,0.53C328.37,132.32,328.24,132.33,328.12,132.33z
				 M381.69,122.05c-1,0-1.92-0.68-2.17-1.7c-0.29-1.2,0.44-2.41,1.64-2.71c9.51-2.34,17.99-4.86,25.91-7.71
				c1.16-0.42,2.44,0.19,2.86,1.35c0.42,1.16-0.19,2.44-1.35,2.86c-8.07,2.9-16.69,5.46-26.36,7.84
				C382.05,122.03,381.87,122.05,381.69,122.05z M432.75,103.27c-0.8,0-1.57-0.43-1.97-1.18c-0.59-1.09-0.18-2.44,0.91-3.03
				c0.96-0.52,1.91-1.04,2.85-1.58c6.78-3.84,13.26-8.37,19.28-13.47c0.94-0.8,2.35-0.68,3.15,0.26c0.8,0.94,0.68,2.36-0.26,3.15
				c-6.23,5.29-12.95,9.98-19.97,13.96c-0.97,0.55-1.95,1.09-2.93,1.62C433.47,103.18,433.11,103.27,432.75,103.27z M473.98,68.17
				c-0.47,0-0.94-0.15-1.34-0.45c-0.99-0.74-1.19-2.14-0.45-3.13c5.55-7.4,9.97-15.18,13.13-23.15c0.46-1.15,1.75-1.71,2.9-1.25
				c1.15,0.46,1.71,1.76,1.26,2.91c-3.31,8.33-7.92,16.47-13.71,24.18C475.33,67.87,474.66,68.17,473.98,68.17z"/>
		</g>
		<g>
			<path class="st4" d="M493.22,17.87c-0.03,0-0.06,0-0.09,0c-1.23-0.05-2.19-1.09-2.14-2.33c0.18-4.35-0.04-8.71-0.65-12.98
				c-0.18-1.22,0.67-2.36,1.9-2.53c1.21-0.18,2.36,0.68,2.53,1.9c0.65,4.54,0.88,9.18,0.69,13.8
				C495.41,16.92,494.42,17.87,493.22,17.87z"/>
		</g>
	</g>
</g>
<g>
	<path class="st5" d="M1342.12,601h-1318c-11.74,0-21.25-9.51-21.25-21.25V24.74c0-11.74,9.51-21.25,21.25-21.25h1318
		c11.74,0,21.25,9.51,21.25,21.25v555.01C1363.38,591.49,1353.86,601,1342.12,601C1342.12,601,1353.86,601,1342.12,601z"/>
</g>
<g>
	<g>
		<path class="st1" d="M1246.56,178.54c3.16-1.83,6.57-2.83,10.09-1.58c3.68,1.31,6.41,4.52,10.03,5.99
			c2.77,1.12,5.93,1.18,8.54,2.63c4.02,2.23,5.72,7.58,4.39,11.98c-1.33,4.4-5.22,7.74-9.59,9.17c-2.92,0.95-6.11,1.17-8.81,2.64
			c-2.86,1.57-4.85,4.39-7.65,6.07c-3.01,1.8-6.87,2.1-10.12,0.77c-3.25-1.33-5.8-4.24-6.69-7.63c-0.93-3.56-0.09-7.35,1.15-10.83
			c1.23-3.47,2.86-6.84,3.54-10.46c0.34-1.8,0.45-3.68,1.14-5.38C1243.26,180.19,1244.95,179.26,1246.56,178.54z"/>
		<path class="st1" d="M1271.87,157.3c1.82,0.85,3.24,2.42,4.19,4.19s1.45,3.75,1.78,5.74c0.47,2.83,0.59,5.81-0.48,8.47
			c-1.07,2.66-3.56,4.9-6.42,4.95c-2.88,0.06-5.47-2.1-6.65-4.74c-1.17-2.63-1.17-5.64-0.82-8.5c0.27-2.21,0.74-4.44,1.89-6.35
			C1266.5,159.16,1267.85,156.89,1271.87,157.3"/>
		<path class="st1" d="M1240.75,149.88c2.65-2.77,6.83-2.29,9.43-0.81s4.47,3.96,5.88,6.59c1.07,1.99,1.93,4.12,2.31,6.35
			c0.38,2.23,0.26,4.57-0.58,6.68c-0.55,1.39-1.45,2.7-2.77,3.41c-2.1,1.12-4.72,0.46-6.83-0.64c-4.13-2.15-7.4-5.91-8.94-10.3
			c-0.66-1.88-1.02-3.89-0.83-5.88C1238.62,153.29,1239.39,151.33,1240.75,149.88z"/>
		<path class="st1" d="M1214.03,186.42c-0.4,1.97,0.01,4.05,0.87,5.87c0.86,1.82,2.15,3.4,3.55,4.85c1.99,2.06,4.32,3.93,7.09,4.66
			c2.77,0.72,6.05,0.06,7.81-2.21c1.76-2.28,1.57-5.65,0.15-8.16s-3.83-4.3-6.34-5.73c-1.93-1.1-4.01-2.05-6.22-2.26
			C1218.73,183.21,1216.1,182.94,1214.03,186.42"/>
		<path class="st1" d="M1226.61,157c-3.8,0.48-5.91,4.13-6.27,7.09c-0.36,2.96,0.53,5.95,1.79,8.65c0.96,2.05,2.16,4.01,3.72,5.64
			c1.57,1.63,3.52,2.93,5.71,3.51c1.44,0.39,3.04,0.44,4.39-0.2c2.15-1.02,3.18-3.52,3.56-5.87c0.74-4.6-0.34-9.46-2.95-13.32
			c-1.12-1.65-2.52-3.14-4.23-4.16S1228.59,156.77,1226.61,157z"/>
	</g>
	<g>
		<path class="st1" d="M1194.51,128.15c2.51,0.9,4.67,2.32,5.64,4.87c1.01,2.66,0.51,5.69,1.4,8.4c0.68,2.07,2.14,3.85,2.56,5.99
			c0.65,3.29-1.52,6.75-4.59,8.09c-3.07,1.34-6.77,0.75-9.62-1.01c-1.91-1.18-3.53-2.85-5.62-3.66c-2.22-0.85-4.73-0.63-6.98-1.4
			c-2.42-0.82-4.41-2.84-5.2-5.27c-0.79-2.43-0.38-5.23,1.09-7.32c1.54-2.2,4.05-3.52,6.56-4.47c2.51-0.95,5.15-1.63,7.49-2.96
			c1.16-0.66,2.26-1.48,3.53-1.9C1192.03,127.09,1193.35,127.59,1194.51,128.15z"/>
		<path class="st1" d="M1218.26,132.21c0.38,1.41,0.18,2.95-0.36,4.31c-0.54,1.36-1.4,2.58-2.35,3.69
			c-1.35,1.59-2.96,3.07-4.94,3.72c-1.98,0.66-4.4,0.33-5.78-1.24c-1.39-1.58-1.41-4.04-0.5-5.93c0.91-1.89,2.59-3.31,4.34-4.47
			c1.35-0.89,2.82-1.68,4.42-1.94C1214.69,130.1,1216.59,129.78,1218.26,132.21"/>
		<path class="st1" d="M1207.71,111.41c2.79,0.17,4.49,2.72,4.9,4.86c0.4,2.14-0.1,4.35-0.89,6.38c-0.6,1.54-1.38,3.02-2.44,4.28
			c-1.06,1.26-2.42,2.3-3.99,2.83c-1.03,0.35-2.19,0.47-3.2,0.07c-1.61-0.64-2.48-2.41-2.87-4.1c-0.75-3.31-0.2-6.9,1.51-9.83
			c0.73-1.26,1.69-2.4,2.88-3.23S1206.26,111.33,1207.71,111.41z"/>
		<path class="st1" d="M1174.79,113.77c-1.29,0.71-2.25,1.91-2.85,3.25c-0.6,1.34-0.88,2.8-1.02,4.26
			c-0.21,2.08-0.15,4.26,0.75,6.14c0.9,1.88,2.82,3.39,4.91,3.3c2.1-0.09,3.88-1.79,4.61-3.76c0.73-1.97,0.58-4.16,0.2-6.23
			c-0.3-1.59-0.75-3.19-1.67-4.53C1178.79,114.87,1177.7,113.28,1174.79,113.77"/>
		<path class="st1" d="M1197.08,106.9c-2.06-1.89-5.08-1.34-6.9-0.14c-1.82,1.2-3.06,3.1-3.97,5.07c-0.69,1.5-1.21,3.09-1.38,4.73
			c-0.17,1.64,0.03,3.34,0.74,4.83c0.47,0.99,1.18,1.9,2.18,2.35c1.58,0.72,3.45,0.11,4.94-0.79c2.91-1.76,5.1-4.65,6.02-7.92
			c0.39-1.4,0.56-2.88,0.32-4.32C1198.8,109.28,1198.15,107.89,1197.08,106.9z"/>
	</g>
	<g>
		<path class="st1" d="M1247.26,89.31c2.39,0.32,4.57,1.16,5.9,3.23c1.4,2.16,1.53,4.94,2.83,7.16c0.99,1.7,2.62,3,3.4,4.8
			c1.2,2.78-0.06,6.26-2.52,8.02c-2.46,1.76-5.84,1.95-8.69,0.93c-1.91-0.68-3.66-1.85-5.66-2.16c-2.12-0.33-4.3,0.34-6.44,0.09
			c-2.3-0.27-4.43-1.67-5.6-3.67c-1.16-2-1.33-4.55-0.43-6.68c0.95-2.24,2.91-3.88,4.95-5.19c2.04-1.32,4.24-2.42,6.05-4.04
			c0.9-0.81,1.71-1.74,2.76-2.35C1244.87,88.84,1246.13,89.03,1247.26,89.31z"/>
		<path class="st1" d="M1269.01,88.39c0.61,1.18,0.72,2.57,0.5,3.87c-0.22,1.31-0.75,2.54-1.38,3.71c-0.89,1.66-2.03,3.27-3.66,4.23
			c-1.63,0.96-3.83,1.13-5.35,0c-1.53-1.13-2.01-3.3-1.57-5.15s1.66-3.42,2.99-4.77c1.03-1.05,2.17-2.02,3.54-2.55
			C1265.46,87.2,1267.08,86.56,1269.01,88.39"/>
		<path class="st1" d="M1255.75,72.01c2.49-0.38,4.49,1.55,5.25,3.36c0.76,1.81,0.74,3.87,0.42,5.81c-0.24,1.47-0.65,2.93-1.34,4.24
			c-0.7,1.32-1.71,2.49-2.99,3.26c-0.85,0.51-1.85,0.83-2.82,0.67c-1.55-0.26-2.65-1.66-3.31-3.08c-1.29-2.78-1.49-6.06-0.53-8.97
			c0.41-1.25,1.03-2.44,1.93-3.4C1253.26,72.93,1254.45,72.22,1255.75,72.01z"/>
		<path class="st1" d="M1227.11,80.34c-1,0.87-1.62,2.12-1.9,3.41c-0.28,1.3-0.24,2.64-0.1,3.96c0.21,1.88,0.68,3.79,1.83,5.28
			c1.16,1.49,3.14,2.46,4.96,1.98c1.84-0.48,3.09-2.32,3.36-4.2c0.27-1.88-0.27-3.79-1.01-5.54c-0.57-1.35-1.27-2.68-2.34-3.68
			C1230.85,80.56,1229.58,79.36,1227.11,80.34"/>
		<path class="st1" d="M1245.5,70.04c-2.18-1.28-4.74-0.22-6.12,1.18c-1.38,1.4-2.12,3.32-2.54,5.24c-0.32,1.46-0.49,2.96-0.32,4.44
			c0.16,1.48,0.66,2.95,1.57,4.13c0.6,0.78,1.41,1.45,2.37,1.66c1.53,0.33,3.07-0.56,4.22-1.63c2.23-2.1,3.63-5.08,3.82-8.14
			c0.08-1.31-0.06-2.65-0.54-3.88C1247.46,71.82,1246.62,70.72,1245.5,70.04z"/>
	</g>
</g>
</svg>
