<?xml version="1.0" encoding="utf-8"?>
<!-- Generator: Adobe Illustrator 26.3.0, SVG Export Plug-In . SVG Version: 6.00 Build 0)  -->
<svg version="1.1" xmlns="http://www.w3.org/2000/svg" xmlns:xlink="http://www.w3.org/1999/xlink" x="0px" y="0px"
	 viewBox="0 0 732.37 873.6" style="enable-background:new 0 0 732.37 873.6;" xml:space="preserve">
<style type="text/css">
	.st0{display:none;}
	.st1{display:inline;}
	.st2{fill:#FCCAA4;}
	.st3{fill:#3870C2;}
	.st4{fill:#9EC4FA;}
	.st5{fill:none;stroke:#FFF7F4;stroke-miterlimit:10;}
	.st6{fill:#030303;}
	.st7{fill:#F77172;}
	.st8{fill:none;stroke:#030303;stroke-width:1.5;stroke-linecap:round;stroke-linejoin:round;stroke-miterlimit:10;}
	.st9{fill:#3151A3;}
	.st10{fill:#1E3B79;}
	.st11{fill:none;stroke:#030303;stroke-linecap:round;stroke-linejoin:round;stroke-miterlimit:10;}
	.st12{fill:#F6B79C;}
	.st13{fill:#FFF7F4;}
	.st14{fill:none;stroke:#030303;stroke-width:2;stroke-linecap:round;stroke-linejoin:round;stroke-miterlimit:10;}
	.st15{fill:#FFB13B;}
	.st16{fill:#FBDCCF;}
	.st17{display:inline;fill:none;stroke:#F7B385;stroke-width:2;stroke-linecap:round;stroke-miterlimit:10;stroke-dasharray:12;}
	.st18{fill:none;stroke:#FFF7F4;stroke-linecap:round;stroke-linejoin:round;stroke-miterlimit:10;}
	.st19{fill:#3167B5;}
	.st20{fill:#FFCF7E;}
	.st21{fill:none;stroke:#FFF7F4;stroke-width:2;stroke-linecap:round;stroke-linejoin:round;stroke-miterlimit:10;}
	.st22{fill:none;stroke:#F7B385;stroke-width:2;stroke-linecap:round;stroke-miterlimit:10;stroke-dasharray:12;}
	.st23{fill:#FDAD8D;}
</style>
<g id="BACKGROUND">
</g>
<g id="Layer_3" class="st0">
	<g class="st1">
		<g>
			<path class="st2" d="M630.88,808.1H96.99c-12.14,0-21.98-9.84-21.98-21.98V30.98C75.02,18.84,84.86,9,96.99,9h533.88
				c12.14,0,21.98,9.84,21.98,21.98v755.15C652.85,798.26,643.01,808.1,630.88,808.1z"/>
		</g>
		<g>
			<path class="st3" d="M375.95,665.15c0,0,0.17,35.17-60.5,36v-45.83C315.45,655.32,359.45,640.98,375.95,665.15z"/>
			<path class="st3" d="M85.45,709.15c0,0,3.33,20.83,41.33,22.83v-47C126.78,684.98,86.45,687.65,85.45,709.15z"/>
			<path class="st4" d="M192.43,559.15l2.52-30.83l43-2.83l3.33,29.5l65.67,10.17c0,0,19,1,27.5,21c8.5,20,15,36,15,36
				s23.5,27.5,26.5,43c0,0-36-9.5-56,24c0,0,10,79,8,116.5l-198,2.5v-111c0,0-33.5-2.5-44.5,12c0,0,1.74-24.61,14.74-52.11
				c0,0,3.76-21.89,4.76-43.89c0.45-9.9,5.47-19.18,11.95-25.29c7.01-6.61,16.53-10.39,25.73-13.25L192.43,559.15z"/>
			<path class="st5" d="M156.86,570.19c3.39,6.34,19.4,29.97,68.56,26.79c32.52-2.1,47.31-20.65,54.02-36.09"/>
			<path class="st6" d="M177.78,791.82c19.3-9.41,42.82-29.66,51-47.5h-98.83v54C129.95,798.32,155.57,802.65,177.78,791.82z"/>
			<path class="st7" d="M226.45,590.15c24.88-1.6,36.94-15.84,42.7-30.85l-27.87-4.32l-3.33-29.5l-43,2.83l-2.52,30.83l-26.51,8.23
				C171.65,576.63,187.33,592.66,226.45,590.15z"/>
			<line class="st8" x1="303.98" y1="655.15" x2="301.68" y2="634.46"/>
			<path class="st6" d="M237.95,525.48l-43,2.83l-1.87,23.64C193.07,551.96,231.2,554.07,237.95,525.48z"/>
			
				<ellipse transform="matrix(0.2298 -0.9732 0.9732 0.2298 -351.0416 576.4468)" class="st7" cx="188.66" cy="510" rx="7.74" ry="7.74"/>
			
				<ellipse transform="matrix(0.6975 -0.7166 0.7166 0.6975 -292.0647 328.1881)" class="st7" cx="242.66" cy="510" rx="7.74" ry="7.74"/>
			<path class="st9" d="M193.43,512.12c0,0-11.95-2.44-15-20.12c-2.78-16.1,11.47-19.06,11.47-19.06s3.53-20.65,24.35-20.29
				c20.82,0.35,37.65,13.02,37.23,31.06c-0.53,22.94-14.65,28.41-14.65,28.41H193.43z"/>
			<path class="st10" d="M179.19,495.45c3.89,14.55,14.24,16.67,14.24,16.67h43.41c0,0,14.12-5.47,14.65-28.41
				c0.17-7.43-2.59-13.94-7.34-19.06c-2.54,25.42-52.3,9.71-52.3,9.71s0.71,4.59,6.56,8.24l-6.68,11.11
				C187.61,499.77,182.96,498.09,179.19,495.45z"/>
			<path class="st7" d="M214.96,486.09c-7.49-0.02-12.91-1.72-16.55-3.49c-4.69,4.53-7.62,10.87-7.62,17.87v23.29
				c0,13.68,11.2,24.88,24.88,24.88h0c13.68,0,24.88-11.2,24.88-24.88v-23.29c0-6.67-2.66-12.74-6.97-17.22
				C228.09,483.67,224.15,486.12,214.96,486.09z"/>
			<path class="st6" d="M219.54,527.57c-0.21,1.96-2.13,3.36-4.29,3.13c-2.16-0.23-3.75-2-3.54-3.96L219.54,527.57z"/>
			<path class="st10" d="M221.82,521.98l-3.31-0.32c-2.43,1.07-4.53,0.06-5.45-0.52l-1.7-0.16c-3.85-0.37-7.27,2.45-7.63,6.3
				l12.29,0.17l12.1,2.16C228.49,525.77,225.67,522.35,221.82,521.98z"/>
			<path class="st11" d="M212.57,520.8c0,0,3.5,3.02,7.38,0"/>
			<path class="st12" d="M220.11,671.32l-21.67,8.75c0,0-6.67-2.08-8.67,0c-2,2.08-2,9.12,3,11.69c0,0,2.67,6.06,10.5,3.73
				c7.83-2.33,35.33-9.5,40.5-9.5v-23.67L220.11,671.32z"/>
			<path class="st13" d="M318.28,661.98c0,0-7.5-9.44-25.33-17.39c0,0-7.28-19.17-24.99-24c-0.52-0.82-1.1-1.63-1.77-2.45
				c2.13-6.53-1.59-20.98-7.75-19.33c-4.24,1.14-7.71,3.82-9.74,5.69c-2.46-0.86-15.77-5.01-26.42,1.77
				c-3.82-1.61-11.36-4.26-15.01-1.95c-4.24,2.68-0.81,12.07,3.47,16.19c-3.98,7.91-5.81,15.65-5.81,15.65s-2.83,8,4.33,14
				c2.21,1.85,5.34,3.26,8.95,4.24c-5.14,5.43-4.62,14.19-4.62,14.19s-4.67,8.56,6,10.23c0,0,8.92,4.91,11.46-2.04l1.21-5.46
				l6.54,1.33c0,0-0.54,55,20.29,70.83l-0.33,11.5c0,0-17.67,17.17-19.17,24.17s1.17,8.17,1.17,8.17s-0.5,5.5,7.17,4.5
				c0,0,10.67,2,13.5-6.17c2.83-8.17,22.5-24.33,22.5-24.33l9.17,3.17c0,0-28.17,40.17-13.67,68.5s28.33,9.33,22.17,0
				c-5.54-8.39-12.3-34.56,2.98-54.66c4.28-5.63,7.45-12.01,9.23-18.85l8.28-31.81C322.11,727.66,343.45,692.48,318.28,661.98z
				 M249.54,654.07C249.55,654.07,249.55,654.07,249.54,654.07L249.54,654.07C249.55,654.07,249.54,654.07,249.54,654.07z"/>
			<path class="st6" d="M283.95,761.32l-25.17-6.33c0,0-2.87,2.79-6.39,6.57c10.58,1.57,20.38,4.01,24.05,6.35
				C281.42,763.18,283.95,761.32,283.95,761.32z"/>
			<path class="st12" d="M301.61,832.98c-2.21-3.35-4.61-9.54-5.73-17.03c-8.52,0.52-15.26,0.43-20.56,0.02
				c0.17,5.86,1.38,11.64,4.13,17.01C293.95,861.32,307.78,842.32,301.61,832.98z"/>
			<path class="st12" d="M270.86,628.51c-0.45-3.59-1.89-6.94-4.67-10.36c2.13-6.53-1.59-20.98-7.75-19.33
				c-4.24,1.14-7.71,3.82-9.74,5.69c-1.55-0.54-7.39-2.38-14.16-1.99c-4.99,6.95-12.22,21.86,7.89,31.94
				C255.57,641.03,264.92,635.82,270.86,628.51z"/>
			<path class="st12" d="M299.81,647.98c3.6,7.17,3.88,16.35,2.52,24.67c-2.52,15.38,13.11,28.5,28.22,23.65
				c0.09-10.68-2.79-22.83-12.27-34.31C318.28,661.98,312.72,654.99,299.81,647.98z"/>
			<line class="st8" x1="292.95" y1="644.6" x2="294.96" y2="650.66"/>
			<path class="st8" d="M249.55,654.07c0,0-21.6-6.5-29.1-1.55c-7.5,4.96-6.83,16.06-6.83,16.06s-4.67,8.56,6,10.23
				c0,0,8.92,4.91,11.46-2.04l1.21-5.46"/>
			<path class="st8" d="M219.61,678.82c0,0-2.17-4.04,1.08-9.29"/>
			<path class="st7" d="M100.31,700.05c0,0-2.86,36.94,19.14,83.27c0,0,42.67,16.67,81.67-9.33c29.63-19.75,47.71-43.16,54.69-53.27
				c2.38-3.44,5.54-6.26,9.23-8.22l24.55-13.08c1.43-0.76,2.26-2.31,2.1-3.92l-0.74-7.46l3.31-4.84c0.94-1.37,0.93-3.18-0.02-4.55
				l-9.29-13.32c0,0,1-9.04-2.62-12.79l-1.5-9c0,0-4.75,0.62-7.12,8.38s-6.75,20.88-16.75,22.12c-10,1.25-18.13-1.38-18.13-1.38
				s0.5,6.75-4.62,12.38s-5.38,14.38-5.38,14.38s-14.62,10.75-33.38,14.25c-13,2.43-30.75,8.12-30.75,8.12l-2.75-20.62
				C130.2,690.65,100.31,700.05,100.31,700.05z"/>
			<path class="st6" d="M161.95,701.15c-31.75-10.5-61.64-1.1-61.64-1.1s-0.41,5.4,0.3,14.64
				C120.35,698.8,161.95,701.15,161.95,701.15z"/>
			<path class="st8" d="M164.7,721.78c0,0-7.75,1.88-18.25,13.12"/>
			<line class="st8" x1="161.95" y1="701.15" x2="154.31" y2="650.66"/>
			<path class="st8" d="M267.61,684.65c0,0,11.33-5.33,11.67-10.33c0.33-5,3.04-21.79,3.04-21.79"/>
			<path class="st8" d="M284.95,665.32c0,0,2.67,14.17-0.67,18c-3.33,3.83-7.5,7.5-7.5,7.5"/>
			<line class="st8" x1="290.95" y1="688.03" x2="284.95" y2="695.48"/>
			<path class="st7" d="M356.84,664.4c-14.28,1.89-23.54,8.18-29.21,13.95c7.22,20.52-0.79,40-4.16,46.79l0.31,3.21
				c-14-6.31-44.67-3.02-44.67-3.02c0.33-8.33-7-13.34-7-13.34c-3.67-3-7.33-10.83-7.33-10.83l-36,43.17
				c9.33,10.67,30,10.67,30,10.67c36.18,25.33,90.67,50.67,108.67,20.67C383.72,748.53,356.84,664.4,356.84,664.4z"/>
			<path class="st6" d="M329.26,684.02c7.1-3.34,17.84-7.32,30.81-8.65c-1.89-6.79-3.23-10.97-3.23-10.97
				c-14.28,1.89-23.54,8.18-29.21,13.95C328.29,680.25,328.83,682.14,329.26,684.02z"/>
			<path class="st8" d="M323.78,728.34c0,0,11.33,1.98,18.67,12.65"/>
			<path class="st8" d="M267.96,620.59c0,0,7.66,18.56-6.84,27.72"/>
			<path class="st8" d="M210.75,620.51c0,0,3.19-8.35,9.94-11.69"/>
			<path class="st8" d="M192.78,691.76c0,0-4-8.6,3.5-9.44"/>
			<line class="st8" x1="247.95" y1="791.82" x2="252.11" y2="783.65"/>
			<line class="st8" x1="240.78" y1="787.32" x2="244.28" y2="779.65"/>
			<path class="st8" d="M291.34,697.51c0,0,8.27-4.36,16.1-4.19"/>
			<path class="st6" d="M216.16,628.36c0,1.22-0.66,2.21-1.48,2.21s-1.48-0.99-1.48-2.21c0-1.22,0.66-2.21,1.48-2.21
				S216.16,627.14,216.16,628.36z"/>
			<ellipse class="st6" cx="239.76" cy="624.53" rx="1.48" ry="2.21"/>
			<path class="st8" d="M216.49,636.5c0,0,5.79,3.63,9.11-3.02c0,0,4.03,5.42,10.74,0.72"/>
			<path class="st7" d="M228.16,630.44c0.07,1.03-1.04,2.95-2.56,3.05c-1.52,0.1-2.86-1.66-2.93-2.69
				c-0.07-1.03,1.16-1.16,2.67-1.26C226.86,629.44,228.09,629.41,228.16,630.44z"/>
			<path class="st8" d="M228.16,752.47c13.95-13.09,23.12-25.21,27.64-31.76c2.38-3.44,5.54-6.26,9.23-8.22"/>
			<ellipse class="st6" cx="205.32" cy="511.21" rx="1.88" ry="2.31"/>
			<ellipse class="st6" cx="226.07" cy="511.21" rx="1.88" ry="2.31"/>
			<path class="st14" d="M199.61,504.32c0,0,2-3.75,6.58-3.5"/>
			<path class="st14" d="M231.12,504.32c0,0-2-3.75-6.58-3.5"/>
			<path class="st5" d="M86.21,695.41c0,0,23.4-21.34,70.65-7.39"/>
			<path class="st5" d="M323.78,662.32c0,0,18.87-13.92,47.1-9.79"/>
		</g>
		<g>
			<path class="st10" d="M575.5,534.5c0,0,4.08-16.5-11.28-19.75c0,0,10.8-20-4.08-37.5c0,0-4.08-4.75-16.56-8.5
				c0,0-0.05-0.01-0.14-0.04l0.14-0.46c-8.4-19.25-24.96-6-24.96-6c-21.12-13.5-26.4,6.5-26.4,6.5c-12.48,3.75-16.56,8.5-16.56,8.5
				c-14.88,17.5-4.08,37.5-4.08,37.5C456.22,518,460.3,534.5,460.3,534.5s-24.24,7.5-21.12,28.5c3.12,21,23.04,25.75,23.04,25.75
				h111.36c0,0,19.92-4.75,23.04-25.75C599.74,542,575.5,534.5,575.5,534.5z"/>
			<path class="st9" d="M493.39,500.64c12.26-1.07,24.02-5.24,31.75-14.84c1.67,5.95,4.09,9.07,10.17,11.7
				c5.46,2.36,14,4.43,19.84,2.53c2.42,5.03,5.39,7.63,11.5,8.22c1.99-7.32,3.11-19.68-6.51-31c0,0-4.08-4.75-16.56-8.5
				c0,0-0.05-0.01-0.14-0.04l0.14-0.46c-8.4-19.25-24.96-6-24.96-6c-21.12-13.5-26.4,6.5-26.4,6.5c-12.48,3.75-16.56,8.5-16.56,8.5
				c-3.8,4.46-5.91,9.09-6.97,13.5C472.8,498.4,484.79,501.39,493.39,500.64z"/>
			<path class="st13" d="M651.32,719.65c0,0-9-74.32-17.67-98.78c-8.67-24.46-32.67-32.12-32.67-32.12l-60.18-13.32h-0.4H493
				l-60.18,13.32c0,0-24,7.67-32.67,32.12c-8.67,24.46-17.67,98.78-17.67,98.78h40.76l-1.59,86.68h188l-1.59-86.68H651.32z"/>
			<path class="st7" d="M537.52,529.76h-41.23L493,575.43l-30.68,6.79c8.04,12.23,27.56,38.15,57.33,53.78
				c0,0,39.15-27.37,60.63-51.83l-39.48-8.74h-0.4L537.52,529.76z"/>
			<path class="st6" d="M537.52,529.76h-41.23l-0.81,11.23c0,0,5.92,22.26,44.54,28.22L537.52,529.76z"/>
			<path class="st15" d="M419.65,806.33h60V578.39l-46.83,10.36c0,0-24,7.67-32.67,32.12c-8.67,24.46-17.67,98.78-17.67,98.78h40.76
				L419.65,806.33z"/>
			<path class="st15" d="M633.65,620.88c-8.67-24.46-32.67-32.12-32.67-32.12l-46.57-10.3v227.89h57.23l-3.59-86.68h43.26
				C651.32,719.65,642.32,645.33,633.65,620.88z"/>
			<line class="st8" x1="599.56" y1="727.32" x2="604.48" y2="661"/>
			<path class="st16" d="M604.48,764.71c0,0,1.67,19.24,2,31.93c0.33,12.69,4.33,23.69,29.67,29.36c0,0,6.33,1.33,4.67,6.33
				c-1.67,5-38.33,2.33-47-16.83c-8.67-19.17-10.74-50.79-10.74-50.79H604.48z"/>
			<path class="st12" d="M636.15,826c-13.97-3.12-21.45-7.87-25.4-13.63c-5.59,2.74-11.19,4.35-15.78,5.3
				c10.34,17.19,44.24,19.47,45.84,14.67C642.48,827.33,636.15,826,636.15,826z"/>
			<path class="st6" d="M610.17,770.59l-52.02,16.74l28.1,1.76c0,0,3.07-3.22,10.65-2.97s9.34,4.22,9.34,4.22l4.76,0.3
				L610.17,770.59z"/>
			<circle class="st7" cx="491.15" cy="518.83" r="7.31"/>
			<circle class="st7" cx="542.15" cy="518.83" r="7.31"/>
			<path class="st7" d="M522.98,495.17c-6,14.33-29.83,16.75-29.83,16.75v19.92c0,12.98,13.7,22.17,20.18,25.79
				c2.06,1.15,4.57,1.14,6.62-0.03c6.47-3.69,20.2-13.02,20.2-25.76V511.8C526.98,511.1,522.98,495.17,522.98,495.17z"/>
			<path class="st10" d="M443.48,662.33c0,0-0.83-9,16.83-18.5l5.33,22.92l-20.01,2.24L443.48,662.33z"/>
			<path class="st16" d="M560.9,780.5c0,0,12.75,18.25,9.5,28.25s-10.75,7-21,3s-23-7-45.25-4.25c0,0-14.5,3.92-19.5-1.17
				s-6.5-12.58,0-12.58s40.97-1.75,40.97-1.75L560.9,780.5z"/>
			<path class="st12" d="M434.43,595.67c0,0-2.75-6.67-7.08-6.42c-2.52,0.15-5.81,4.03-9.58,7.25c-2.73,2.33-6.35,3.67-7.08,6.08
				c-1.75,5.75,10.5,9.42,11.5,16.67c0,0,0.17,2.25,2.67,2.33S443.43,610.01,434.43,595.67z"/>
			<path class="st16" d="M462.32,594.33c0,0-12.67-9.31-32.67,1.17c0,0-3.17,1.42-4,8.17c-0.67,5.46-5.62,23.83-12.67,29.67
				c0,0-4.83,2.67-1,10.67c3.69,7.71,13.55,10.17,30.03,5l9.31-2.83c0,0,2.83,41.55,1.33,46.19h17c0,0,10.17,16.64,14.83,28.64
				c4.67,12,26,41.17,50.5,51.17l69.5-39.17l-15.5-29c0,0-26.18-42.01-63-56.67c-32.67-13-42.5-23.17-51.5-34
				C474.48,613.33,473.48,602.83,462.32,594.33z"/>
			<path class="st12" d="M474.48,613.33c0,0-1-10.5-12.17-19c0,0-12.67-9.31-32.67,1.17c0,0-3.17,1.42-4,8.17
				c-0.34,2.74-1.76,8.74-3.98,14.77c2.68,0.88,6.69,1.34,10.64-1.52c6.83-4.93,7.94-10.09,7.94-10.09s-0.11,16.26,18.89,17.88
				C467.83,625.45,476.44,615.69,474.48,613.33z"/>
			<path class="st8" d="M437.13,592.33c-2.36,0.76-4.86,1.79-7.49,3.17c0,0-3.17,1.42-4,8.17"/>
			<path class="st12" d="M570.84,700.42c3.76-0.78,8.2-2.49,12.24-4.9c-9.72-13.05-30.66-37.67-57.1-48.19
				c-5.55-2.21-10.43-4.33-14.77-6.4c0.24,6.85,1.34,14.74,6.2,19.43c3.05,2.93,4.84,4.79,6.73,8.89c1.94,4.2,3.58,8.5,5.41,12.73
				C535.75,696.33,556.2,703.46,570.84,700.42z"/>
			<path class="st8" d="M547.15,709.3c0,0-23.83,3.7-30.25,20.7c-6.42,17,4.4,33.45,4.4,33.45"/>
			<path class="st12" d="M480.27,589.35c-1.19-0.33-2.33-0.77-3.43-1.32c-2.43-1.22-6.89-3.48-8.61-4.43
				c-2.42-1.33-9.61-1.33-10.75,4.42c-1.14,5.74,5.48,26.75,12.58,28.67c7.11,1.92,27.33-8.25,28.83-15s-4.42-8.83-7.67-9.5
				C488.86,591.7,483.18,590.16,480.27,589.35z"/>
			<path class="st8" d="M457.92,594.4c1.66,8.43,6.76,20.84,12.15,22.29c2.63,0.71,7.06-0.24,11.67-2.05"/>
			<path class="st6" d="M420.96,774.76c44.69-4.17,86.53-62.12,86.53-62.12L422.4,741.5L420.96,774.76z"/>
			<path class="st15" d="M382.48,719.65c0,0-4.67,39.02,19.67,42.02c24.33,3,67-16.67,100-45.67l40-25.12c0,0,9.33,9.45,22.33,6.62
				l2.5-0.67v16c0,0-0.5,7.17,4.67,8.17l6.17-26.5l11.17,9.5c0,0,1-9.05,0-11.61c-1-2.56-7.23-8.06-8.7-18.22c0,0,0.2-5.5-5.97-6.83
				c-5.08-1.1-13.66-2.2-21.84-7.2c-3.56-2.18-7.99-2.35-11.75-0.54c-11.7,5.65-37.29,17.39-62.91,25.07
				C452.15,692.36,417.48,672.3,382.48,719.65z"/>
			<path class="st7" d="M580.28,674.17c0,0,0.2-5.5-5.97-6.83c-5.08-1.1-13.66-2.2-21.84-7.2c-3.56-2.18-7.99-2.35-11.75-0.54
				c-9.93,4.8-29.88,13.98-51.35,21.35c0.18,6.79,2.13,19.04,11.15,36.46c0.54-0.47,1.09-0.93,1.63-1.4l40-25.12
				c0,0,9.33,9.45,22.33,6.62l2.5-0.67v16c0,0-0.5,7.17,4.67,8.17l6.17-26.5l11.17,9.5c0,0,1-9.05,0-11.61
				C587.98,689.83,581.75,684.33,580.28,674.17z"/>
			<path class="st8" d="M477.82,684.67c-19.83,5.94-45.03-4.68-71.61,12.02"/>
			<path class="st16" d="M475.65,672.47v35.78l-17.25,16.44c0,0-8.5,4.48-7.5,12.65c1,8.17-0.75,15.92-4.5,19.42
				s-1,12.44,14.62,5.22c0,0,6.12-3.47,7.38-10.47l1.5-12l29.75-14.81c0,0,8.75-4.69,9-16.44s0-41.5,0-41.5L475.65,672.47z"/>
			<path class="st16" d="M426.93,687.6c0,0,0-6.54,11.22-7.24c13.61-0.85,17,14.49,14.83,27.82c0,0-0.04,7.11-8.08,7.5
				c-8.91,0.44-10.59-8.5-10.59-10.33c0-1.83-1.38-16.89-3.73-18.39L426.93,687.6z"/>
			<path class="st6" d="M451.32,646.17c0,0,14.33-5.79,20.33-21.17c0,0-3.06,24.62-19.72,31L451.32,646.17z"/>
			<path class="st8" d="M475.65,708.25c0,0,6.25-3.88,12.5-1.12"/>
			<path class="st8" d="M454.97,764.16c0,0,3.18-6.66,3.55-9.91"/>
			<path class="st8" d="M446.54,763.45c0,0,4.99-6.32,5.86-9.2"/>
			<line class="st8" x1="440.26" y1="704.12" x2="440.26" y2="714.9"/>
			<line class="st8" x1="448.02" y1="703.5" x2="448.02" y2="715.09"/>
			<line class="st8" x1="475.65" y1="688.5" x2="475.65" y2="672.47"/>
			<path class="st15" d="M651.32,719.65c0,0,7.08,37.1-9.17,47.85s-99.5,26.25-99.5,26.25s-23.25,6.5-31.5,0c0,0-1.25-7.25-8-12.5
				s-11.5-8.75-11.75-13.25s9.75-2.96,15.25-9.85c0,0-5.2-4.51-1.6-7.83c3.6-3.32,6.35,3.93,17.35,6.18c0,0,10.25-1.08,15.25,8.21
				c0,0,23.25-4.71,41-19.46s29.41-25.6,29.41-25.6H651.32z"/>
			<path class="st7" d="M589.94,783.82c-3.53-14.75-11.49-27.26-16.81-34.4c-16.69,11.48-35.47,15.29-35.47,15.29
				c-5-9.29-15.25-8.21-15.25-8.21c-11-2.25-13.75-9.5-17.35-6.18c-3.6,3.32,1.6,7.83,1.6,7.83c-5.5,6.9-15.5,5.35-15.25,9.85
				s5,8,11.75,13.25s8,12.5,8,12.5c8.25,6.5,31.5,0,31.5,0S565.72,789.45,589.94,783.82z"/>
			<path class="st4" d="M443.48,662.33c0,0,18-0.17,30.17-10.67c12.17-10.5,15.73-23.62,15.73-23.62l-1.82-1.43
				c0,0,2.76-2.78,4.59-1.62c1.83,1.17,8.54,4,9,7.5c0.46,3.5-5.67,41.83-50.5,42.33c0,0-3.5-0.22-4-2.36
				C446.15,670.33,443.48,662.33,443.48,662.33z"/>
			<line class="st8" x1="577.82" y1="694.5" x2="579.15" y2="684.67"/>
			<path class="st8" d="M599.56,727.32c0,0,13.59-14.29,31.26-4.14"/>
			<path class="st8" d="M495.15,798c0,0-6.22,2.49-5.77,10.58"/>
			<path class="st8" d="M488.15,796.64c0,0-4.82,0.94-5.91,6.65"/>
			<line class="st8" x1="506.65" y1="758.15" x2="511.22" y2="763.45"/>
			<path class="st6" d="M425.7,637.12c0,1.35-1.8,3.44-4.02,3.44c-2.22,0-4.02-2.09-4.02-3.44s1.8-2.44,4.02-2.44
				C423.9,634.69,425.7,635.78,425.7,637.12z"/>
			<polyline class="st8" points="416.52,646.56 421.67,643.83 431.07,646.81 			"/>
			<line class="st8" x1="421.67" y1="643.83" x2="421.67" y2="639.12"/>
			<path class="st6" d="M431.07,613.92c0,1.33-0.88,2.42-1.96,2.42c-1.08,0-1.96-1.08-1.96-2.42s0.88-2.42,1.96-2.42
				C430.19,611.5,431.07,612.58,431.07,613.92z"/>
			<path class="st6" d="M449.2,613.92c0,1.33-0.88,2.42-1.96,2.42c-1.08,0-1.96-1.08-1.96-2.42s0.88-2.42,1.96-2.42
				C448.33,611.5,449.2,612.58,449.2,613.92z"/>
			<ellipse class="st6" cx="506.02" cy="522.56" rx="1.88" ry="2.31"/>
			<ellipse class="st6" cx="526.77" cy="522.56" rx="1.88" ry="2.31"/>
			<path class="st11" d="M513.27,532.15c0,0,3.5,3.02,7.38,0"/>
			<path class="st14" d="M501.92,514.44c0,0,3.15-2.85,7.38-1.06"/>
			<path class="st14" d="M530.22,514.44c0,0-3.16-2.84-7.38-1.04"/>
			<path class="st11" d="M516.96,540.94c0,0,4.44,1.31,7.12-1.5"/>
		</g>
	</g>
	<path class="st17" d="M75.02,113.52c-20.86,49.19-50.48,94.96-64.75,146.46c-27.81,100.36,6.09,206.33,39.67,304.91
		c22.61,66.38,45.22,132.76,67.82,199.14c11.51,33.79,27.15,71.86,61.05,83.04c15.73,5.19,32.83,3.43,49.19,0.82
		c108.11-17.24,210.97-68.94,320.43-67.19c50.37,0.8,107.73,10.9,145.32-22.62c27.01-24.09,33.98-64.74,26.58-100.17
		c-7.4-35.43-26.87-66.98-46.1-97.64c-19.23-30.66-38.9-62.03-46.81-97.35c-15.12-67.56,14.84-135.9,39.06-200.75
		c24.22-64.86,42.3-140.99,6.75-200.4c-5.71-9.54-12.6-18.21-20.38-26.05"/>
</g>
<g id="Layer_4">
</g>
<g id="OBJECTS">
	<g>
		<g>
			<path class="st2" d="M614.14,836.24H80.26c-12.14,0-21.98-9.84-21.98-21.98V59.11c0-12.14,9.84-21.98,21.98-21.98h533.88
				c12.14,0,21.98,9.84,21.98,21.98v755.15C636.11,826.4,626.28,836.24,614.14,836.24z"/>
		</g>
		<g>
			<g>
				<path class="st15" d="M168.4,529.8c0,0-1.83-21.33-6.83-28.17c-5-6.83-6.5-13.17-15-15.67s-20.5-5.33-30.67,0
					c0,0-6,3.67-1.5,9.5c0,0,16,5.64,18,10.9c2,5.26,3.83,10.26,1.83,12.1c-2,1.83-8.33,0.33-8.33,0.33s-9.5-2.33-17.5,18
					c-8,20.33-13.5,48.17-11.17,57.33c0,0-8.83,53.83-6.83,64.5c0,0,3.17-1,5.5-5.17c0,0-1.17,7.33,3,8.5l19.5-57h40.17
					c0,0,25.57-36.8,15.58-67.33C174.15,537.63,173.07,532.63,168.4,529.8z"/>
				<path class="st6" d="M146.35,506.98c-0.27,2.06-1.25,3.88-3.82,5.15c-2.87,1.42-5.51,1.69-7.74,1.44c0,0,0,0,0,0
					c0.49,2.2,0.47,3.96-0.55,4.9c-2,1.83-8.33,0.33-8.33,0.33s20,20.58,24,5.58C152.14,515.99,149.29,510.34,146.35,506.98z"/>
				<path class="st9" d="M174.15,537.63c0,0-1.08-5-5.75-7.83c4.75,36.67-9.83,75.17-9.83,75.17S184.13,568.17,174.15,537.63z"/>
				<path class="st9" d="M100.34,563.13c-3.09,13.28-4.51,25.5-3.11,31c0,0-8.83,53.83-6.83,64.5c0,0,3.17-1,5.5-5.17
					c0,0-1.17,7.33,3,8.5l3.04-7.51c0.96,4.32,3.96,5.68,3.96,5.68l12.5-55.17c0,0,9.75-4.08,11-14.83s3.17-27,3.17-27H100.34z"/>
				<path class="st3" d="M134.4,551.76c3.27-29.39-8.5-32.96-8.5-32.96s-9.5-2.33-17.5,18c-8,20.33-13.5,48.17-11.17,57.33
					c0,0,1.04,5,3.54,5c2.62,0,6.38-11.12,6.38-11.12s0.5,7,3.25,6.62s4.62-14,4.62-14s1.08,8.12,3.38,8.12
					c3.12,0,5.38-10.12,5.38-10.12S131.4,578.76,134.4,551.76z"/>
				<path class="st13" d="M146,495.61c-4.7-1.68-9.38-2.74-13.23-2.98c-7.3-0.45-11.08,3.12-12.63,5.15c-0.01,0-0.02-0.01-0.03-0.01
					c4.81,2.13,11.08,5.43,12.28,8.6c0.98,2.58,1.92,5.09,2.38,7.2c2.23,0.25,4.87-0.02,7.74-1.44
					C149.59,508.65,144.65,501,146,495.61z"/>
				<path class="st6" d="M116.15,519.26l1.5-2.5c0,0,2.65,1.36,7.62,1.97c0.4,0.02,0.63,0.07,0.63,0.07s6.33,1.5,8.33-0.33
					c2-1.83,0.17-6.83-1.83-12.1c-2-5.26-18-10.9-18-10.9s-5.75,8.04-2.5,17.29C111.9,512.76,113.89,517.15,116.15,519.26z"/>
				<path class="st3" d="M161.57,501.63c-5-6.83-6.5-13.17-15-15.67s-20.5-5.33-30.67,0c0,0-6,3.67-1.5,9.5c0,0,2.56,0.9,5.75,2.32
					c1.55-2.03,5.33-5.6,12.63-5.15c9.23,0.57,23.23,5.82,30.93,13.19C163.07,504.16,162.36,502.71,161.57,501.63z"/>
				<line class="st11" x1="95.9" y1="653.47" x2="103.15" y2="606.58"/>
				<line class="st11" x1="101.93" y1="654.45" x2="112.73" y2="595.6"/>
				<line class="st11" x1="118.4" y1="604.97" x2="121.12" y2="590.82"/>
				<line class="st11" x1="107.15" y1="588.01" x2="109.52" y2="576.38"/>
				<line class="st11" x1="123.77" y1="578.63" x2="127.4" y2="561.13"/>
				<line class="st11" x1="118.74" y1="561.13" x2="119.76" y2="555.76"/>
				<line class="st11" x1="115.02" y1="580.63" x2="117.71" y2="566.5"/>
				<path class="st11" d="M122.38,540.48c-0.47,2.37-2.39,3.98-4.29,3.61c-1.9-0.38-3.05-2.6-2.58-4.97"/>
				<path class="st11" d="M131.66,557.3c-0.47,2.37-2.39,3.98-4.29,3.61c-1.9-0.38-3.05-2.6-2.58-4.97"/>
				<path class="st11" d="M116.5,543.53c-0.47,2.37-2.39,3.98-4.29,3.61c-1.9-0.38-3.05-2.6-2.58-4.97"/>
				<path class="st18" d="M117.65,516.76c0,0,2.57-6.28,7.04-6.08"/>
				<path class="st6" d="M135.98,497.17c0,0.94-0.76,1.71-1.71,1.71s-1.71-0.76-1.71-1.71c0-0.94,0.76-1.71,1.71-1.71
					S135.98,496.23,135.98,497.17z"/>
				<path class="st11" d="M162.52,547.19c0,0,2.12,5.17,2.12,8.74"/>
				<path class="st11" d="M159.65,553.82c0,0,1.62,3.19,1.12,8.31"/>
				<path class="st11" d="M156.27,560.88c0,0,1.25,4-1.5,7.56"/>
				<line class="st11" x1="138.3" y1="529.86" x2="147.9" y2="537.01"/>
				<line class="st11" x1="147.9" y1="533.88" x2="152.4" y2="537.63"/>
				<path class="st11" d="M135.98,501.51c0,0,3.17,0,4.17-2.62"/>
			</g>
			<path class="st12" d="M310.73,765.47c0,0,5.67,22.04-44.67,9.02l9.33-33.9C275.4,740.59,308.73,753.47,310.73,765.47z"/>
			<path class="st12" d="M82.73,704.13c0,0-10.33,20.28,29.92,26.89l18.75,2.86l3.75-29.77C135.15,704.11,97.07,690.38,82.73,704.13
				z"/>
			<path class="st16" d="M182.67,598.86c-5.34-1.15-12.65,2.43-12.65,2.43l-35.29,0c0,0-24.33-3.15-29.67,19.85
				c-5.33,23-8.59,51.61-22.33,83c0,0,19-1,35.67,3.67l-16.33,126.67h178.67l-4-82.9c0,0,21.33,2.9,34,13.9
				c0,0-2.33-41.31-7.67-55.99c0,0,4.75-29.67,2.48-50.08c-0.97-8.72-6.3-16.36-14.11-20.36L236.4,610.8c0,0-4.12-6.04-12.62-8.23
				L182.67,598.86z"/>
			<path class="st6" d="M278.33,784.72l-54.68-3.29c0,0,17.43,44.38,27.34,53.04h29.74L278.33,784.72z"/>
			<path class="st7" d="M244.4,537.38c-3.75-28.75-42.75-34.5-60.5-16.25c0,0-9,9.25-9.75,16.5s-0.5,12.5-4.25,13.5s-5,4-1.5,7
				c0,0-10.75,20.25,1.5,28.25c3.94,2.57,9.32,2.35,14.81,0.87l-3.96,15.14c-1.5,5.71-0.81,11.82,2.13,16.95
				c6.74,11.75,21.52,19.54,21.52,19.54c14.78-3.47,19.31-18.26,20.68-25.99c0.48-2.71,0.44-5.49-0.08-8.2l-4.59-24.06
				C220.4,580.63,248.15,566.13,244.4,537.38z"/>
			<path class="st15" d="M188.27,517.43c6.1-1.7,17.65-4.04,21.63,1.21c5.5,7.25-17,17.5-14,26.75s10,9.25,7,18l10.5-0.25
				c0,0-1.75,12.5,7,17.5c0,0,27.75-14.5,24-43.25C240.93,510.8,207.35,503.9,188.27,517.43z"/>
			<path class="st6" d="M184.71,587.25l16.69-7.87c0,0-8,15.18-18.88,16.22L184.71,587.25z"/>
			<circle class="st7" cx="214.73" cy="561.13" r="7.31"/>
			<line class="st11" x1="210.9" y1="563.13" x2="217.57" y2="558.63"/>
			<path class="st6" d="M179.74,547.86c-0.46,1.19-1.62,1.85-2.58,1.48c-0.97-0.37-1.38-1.64-0.92-2.83
				c0.46-1.19,1.62-1.85,2.58-1.48C179.79,545.4,180.2,546.67,179.74,547.86z"/>
			<path class="st14" d="M183.62,542.41c0,0-1.17-4.09-5.7-4.8"/>
			<path class="st6" d="M171.23,565.97h7.12c0,0-0.79,6.33-4.45,5.83C170.23,571.3,171.23,565.97,171.23,565.97z"/>
			<path class="st11" d="M170.02,601.28c1.01,7.9,1.08,30.22,33.37,46.1c0,0,24.65-4.12,33.01-36.58"/>
			<path class="st7" d="M301.06,759.14c0,0,0,50.95-26.66,59.64c-26.67,8.69-52.83-26.98-54.67-54.81
				c-1.83-27.83-6.08-50.58-6.08-50.58s-11.75,0.42-19.25-4.58s-10.67-8.33-10.67-8.33s-7-0.5-10.67-5l-14.5-2c0,0,4-7.33,13.83-7
				c9.83,0.33,25.67-1.5,25.67-1.5s12.67-2.5,16.33-8.33c0,0-8.83-12.67-0.17-21.17c0,0,4.33,10.06,12.33,13.61
				s15.5,17.05,12.67,33.72c0,0,11.67,25.17,22.5,37.5C261.73,740.3,293.4,753.3,301.06,759.14z"/>
			<path class="st6" d="M299.3,777.94c1.76-10.48,1.76-18.8,1.76-18.8c-7.66-5.84-39.33-18.84-39.33-18.84
				S284.78,759.95,299.3,777.94z"/>
			<path class="st7" d="M91.66,704.11l-8.93,51.34l47.16,2.48l3.25-45.05C133.15,712.88,119.01,704.91,91.66,704.11z"/>
			<path class="st6" d="M89.54,716.34c16.06-3.4,34.79-0.23,43.25,1.6l0.36-5.05c0,0-14.14-7.98-41.49-8.77L89.54,716.34z"/>
			<path class="st3" d="M129.9,722.63c0,0-25.75-3.68-43.25,15.66c-17.5,19.34,5.5,56.84,5.5,56.84s13.75,18.33,30.5,5.17l4-4.67
				c0,0,15.25,2,22.25-8s7.5-18,7.5-18s7,3,13.62-2.25c0,0,9.88,3.25,13.62-1.75s0-3.64,3.75-14.07c0,0,2.62-5.55-0.88-8.18
				c0,0,6.5,0,7.75-3.5s-1.62-2.38-0.62-9.75s-0.62-11.38-3.5-12.5s-6.75-2.88-6.75-2.88s1.5-2-2.12-4.75s-14.38-8.88-14.38-8.88
				s-4.25-1.5-9.88,0.75c-3.51,1.4-8.39,2.47-11.55,3.07c-2.09,0.4-3.94,1.58-5.18,3.31L129.9,722.63z"/>
			<path class="st9" d="M193.65,730.13c1-7.38-0.62-11.38-3.5-12.5s-6.75-2.88-6.75-2.88l-0.67,4.26c0,0,4.67,1.78,3.83,6.45
				c-0.83,4.67-1.87,6.5-1.87,6.5s3.2,0.5,2.87,4c-0.33,3.5-1.04,7.42-1.04,7.42s6.5,0,7.75-3.5S192.65,737.51,193.65,730.13z"/>
			<path class="st9" d="M141.07,755.45c0,0,0,14.01,14.32,19.03c0.89-3.01,1.01-4.85,1.01-4.85S144.35,764.43,141.07,755.45z"/>
			<line class="st8" x1="129.9" y1="722.63" x2="121.73" y2="733.13"/>
			<line class="st8" x1="182.73" y1="719.02" x2="169.23" y2="711.63"/>
			<line class="st8" x1="184.7" y1="731.97" x2="170.73" y2="724.47"/>
			<line class="st8" x1="186.52" y1="743.38" x2="174.4" y2="737.79"/>
			<line class="st8" x1="170.02" y1="767.38" x2="175.98" y2="760.8"/>
			<path class="st8" d="M126.65,795.63c0,0,7.58-17.33,13.08-21.83"/>
			<path class="st13" d="M105.28,787.07c1.12,1.94,0.71,4.28-0.93,5.23c-1.63,0.94-3.87,0.13-4.99-1.81
				c-1.12-1.94-0.71-4.28,0.93-5.23C101.92,784.32,104.15,785.13,105.28,787.07z"/>
			<path class="st8" d="M97.9,778.13c0,0,12.06,9.99,6.45,14.16"/>
			<line class="st8" x1="161.15" y1="710.13" x2="164.04" y2="742.13"/>
			<line class="st8" x1="173.07" y1="695.47" x2="203.21" y2="695.47"/>
			<path class="st8" d="M183.73,700.47c0,0,13,5.19,23.67,3.65"/>
			<line class="st8" x1="213.65" y1="713.38" x2="223.65" y2="713.38"/>
			<line class="st11" x1="133.15" y1="712.88" x2="133.15" y2="649.8"/>
			<line class="st11" x1="256.75" y1="733.88" x2="264.4" y2="691.13"/>
			<line class="st11" x1="303.07" y1="709.48" x2="301.06" y2="722.63"/>
			<g>
				<path class="st6" d="M137.63,606.51L137.63,606.51c-1.05,0-1.9-0.86-1.9-1.9v-4.08c0-1.05,0.86-1.9,1.9-1.9l0,0
					c1.05,0,1.9,0.86,1.9,1.9v4.08C139.54,605.65,138.68,606.51,137.63,606.51z"/>
				<path class="st6" d="M139.83,606.3L139.83,606.3c-0.99-0.34-1.53-1.44-1.19-2.45l1.27-3.8c0.34-1.01,1.42-1.55,2.41-1.21l0,0
					c0.99,0.34,1.53,1.44,1.19,2.45l-1.27,3.8C141.9,606.1,140.82,606.64,139.83,606.3z"/>
				<path class="st6" d="M150.43,606.51L150.43,606.51c-1.05,0-1.9-0.86-1.9-1.9v-4.08c0-1.05,0.86-1.9,1.9-1.9l0,0
					c1.05,0,1.9,0.86,1.9,1.9v4.08C152.33,605.65,151.48,606.51,150.43,606.51z"/>
				<path class="st6" d="M154.53,606.45L154.53,606.45c-1.03,0.18-2.02-0.53-2.2-1.57l-0.67-3.96c-0.18-1.05,0.52-2.05,1.55-2.23
					l0,0c1.03-0.18,2.02,0.53,2.2,1.58l0.67,3.96C156.26,605.27,155.56,606.27,154.53,606.45z"/>
			</g>
		</g>
		<g>
			<path class="st19" d="M611.9,726.13c0,0,13,33.5-46.5,26.5l-18.25-26.5C547.15,726.13,591.4,708.63,611.9,726.13z"/>
			<path class="st3" d="M325.9,729.07c0,0-11.25,26.56,37.25,26.56h28.5l2.25-46.16C393.9,709.48,336.4,707.26,325.9,729.07z"/>
			<path class="st20" d="M420.62,595.6l-41.72,19.53c0,0-15,5-22,32.25l-5,21.7c0,0-21.5,37.93-26,59.99c0,0,24.5-14.16,62.5-8.55
				c0,0-8,51.78-4.5,113.94h177.5l-15-96.68c0,0,35-20.15,65.5-11.65c0,0-11.5-36.61-30.5-57.05s-16.15-62.57-68-74.58l-53.09-7.01
				L420.62,595.6z"/>
			<path class="st6" d="M549.18,755.74l-32.81-1.94c0,0,20.43,55.67,43.06,68l0,0L549.18,755.74z"/>
			<path class="st6" d="M423.76,779.56l-40.3-0.96c-0.33,8.81-0.51,18.32-0.43,28.34C402.58,801.91,423.76,779.56,423.76,779.56z"/>
			<path class="st16" d="M469.4,770.8l-51.42,45.33c0,0-8.58,2.62-6.08-8.19c2.5-10.81,29.92-44.78,38.52-48.12L469.4,770.8z"/>
			<path class="st6" d="M450.42,759.83c-3.29,1.27-9.33,7.03-15.67,14.25c1.84,6.25,4.92,13.22,10.04,18.42l24.62-21.7
				L450.42,759.83z"/>
			<path class="st7" d="M409.06,601.28c0,0-25.4,63.99,31.19,60.35c46.65-3,46.21-47.92,47.97-70.59l-27.91-3.55l-39.69,8.11
				L409.06,601.28L409.06,601.28z"/>
			<path class="st13" d="M490.9,774.88c0,0,23.79-17,17.77-50s-27.42-34.82-45.02-37.25c-14.71-2.03-33.68-2.96-48.34-0.36
				l-24.12,36.79c0,0,2.21,21.57,47.46,38.32c0,0,4.94,27.67,28.25,32c0,0-17.5,21.25-16.5,31.75s6.06,6.5,6.06,6.5
				s1.44,5.17,7.19,3.5s0.53-9.36,15-23.75c14.47-14.39,21.67-21,18.08-31.38L490.9,774.88z"/>
			<path class="st10" d="M430.4,592.88c0,0-34,9.25-54.75-16.5c0,0-12.75-19.75,4-40.75c0,0,8-5.75,8.5-17c0,0,0.75-4-4.5-8.25
				s-5.75-13.75,2.75-17.5s20.75,0,20.75,0s17.29-17,36.52-8.5c19.23,8.5,16.73,23.5,16.73,23.5s35.25,4.31,36.75,38.16
				C498.65,579.88,430.4,592.88,430.4,592.88z"/>
			<polygon class="st7" points="466.82,611.65 424.75,620.65 413.68,553.58 448.75,544.58 			"/>
			<path class="st6" d="M445.65,545.37l-31.96,8.2l5.33,32.33C444.14,576.68,445.65,545.37,445.65,545.37z"/>
			<path class="st7" d="M436.4,523.13c-18.97,5.78-28.28-1.74-31.98-6.35c-1.84,2.66-3.11,5.78-3.59,9.21l-2.99,21.59
				c-1.84,13.28,7.52,25.65,20.8,27.49c13.28,1.84,25.65-7.52,27.49-20.8l1.66-11.99C438.02,535.7,436.4,523.13,436.4,523.13z"/>
			<circle class="st7" cx="450.98" cy="540.38" r="7.31"/>
			<ellipse class="st6" cx="403.68" cy="541.31" rx="1.88" ry="2.31"/>
			<path class="st11" d="M408.23,534.8c0,0-0.17,11.29-1.08,12.9c-0.92,1.6-8.18,5.66,6.53,5.88"/>
			<line class="st11" x1="447.15" y1="542.38" x2="453.82" y2="537.88"/>
			<path class="st7" d="M338.76,723.87l-7.69,47.26c0,0-2.67,23.33,27.67,21.67c30.33-1.67,102.67-24,102.67-24s8,12.58,17.75,13.83
				l12.25,2.75l0.35,13.39c0,0,5.9,0.61,8.65-5.39c1.79-3.9,4.21-8.66,5.69-11.5c0.84-1.62,1.03-3.5,0.55-5.26l-0.48-1.75
				l4.08-11.12c0.88-2.4,0.42-5.1-1.2-7.07l-5.33-6.49c-2.27-2.76-5.46-4.6-8.99-5.16c-6.67-1.07-17.84-2.97-24.05-4.65
				c-9.25-2.5-83-6.5-83-6.5l0.75-13.36C388.4,720.52,366.86,715.61,338.76,723.87z"/>
			<path class="st6" d="M388.14,725.12l0.26-4.6c0,0-21.54-4.91-49.64,3.35l-1.88,11.56C358.64,726.7,388.14,725.12,388.14,725.12z"
				/>
			<path class="st11" d="M387.65,733.88c0,0-13.25-0.77-21.92,3.9"/>
			<path class="st11" d="M490.9,768.63l8.02,9.32c1.48,1.72,2.23,3.95,2.08,6.22l-0.6,9.22"/>
			<polyline class="st11" points="506.15,774.88 501.53,765.9 498.73,760.47 			"/>
			<line class="st11" x1="504.73" y1="764.47" x2="501.53" y2="765.9"/>
			<path class="st7" d="M598.14,724.09c0,0,17.48,41.26,12.26,62.55c-6.5,26.5-47.5,29-85.25-20.65
				c-23.8-31.3-26.42-46.91-26.42-46.91s-6.83,2.43-16.21-2.82c0,0-7.88,0.12-13.62,1.38s-21.88,2.62-28.25-2.5
				c0,0-7.88-1.31-8.62-5.72c0,0-4-1.03,0-4.53s19.25-9.25,19.25-9.25s-6.5-2.62-5-8.25c0,0,10.88,1.38,14.12,0s29.88-9.88,44.75,0
				s51.99,45.27,51.99,45.27S575.89,723.54,598.14,724.09z"/>
			<path class="st6" d="M602.06,734.38c-2.2-6.23-3.92-10.29-3.92-10.29c-22.26-0.55-41,8.57-41,8.57S585.44,731.26,602.06,734.38z"
				/>
			<line class="st11" x1="557.14" y1="732.65" x2="576.92" y2="749.96"/>
			<line class="st11" x1="498.73" y1="719.07" x2="507.4" y2="716.13"/>
			<path class="st11" d="M440.65,715.13c0,0,24.25-3.75,30.75-8"/>
			<path class="st11" d="M432.02,709.41c0,0,27.62-6.03,35.12-9.53"/>
			<line class="st11" x1="451.27" y1="695.63" x2="465.65" y2="692.13"/>
			<path class="st13" d="M403.38,736.88l-24.23,3.42c0,0-7.83,0.58-13.42,11.53c-6.44,12.62,8.17,13.55,13.67,5.55
				c0,0,32.88,8,41.44,0.5c8.56-7.5,12.06-28.66,1.81-39.53c0,0-16.5-18.47-26.92,0.72C391.75,726.41,403.38,736.88,403.38,736.88z"
				/>
			<path class="st16" d="M375.9,677.38c0,0-7.5-13,5.75-26.75s22.75-18,22.75-18s8.25,25.5,0,40.5S375.9,677.38,375.9,677.38z"/>
			<path class="st13" d="M415.31,687.27c13.04-12.94,12.94-46.64,12.94-46.64c-21.39,2.27-33.3,17.56-38.55,26.59
				c-20.34-0.67-37.92,22.6-34.3,48.91c0,0-0.02,5.25,5.24,6.5c0,0,0.26,8.5,12.51,7.75s16.33-4.64,18.04-6.32L415.31,687.27z"/>
			<line class="st11" x1="360.64" y1="722.63" x2="361.72" y2="717.6"/>
			<path class="st11" d="M415.31,687.27c0,0-6.41,4.86-17.41,4.86"/>
			<path class="st11" d="M396.65,682.67c0,0-5.37-19.04,22.19-33.54"/>
			<line class="st11" x1="379.4" y1="757.38" x2="382.4" y2="753.8"/>
			<line class="st11" x1="370.33" y1="762.58" x2="375.57" y2="753.47"/>
			<path class="st11" d="M364.77,759.83c0,0,2.82-7.53,5.56-9.2"/>
			<path class="st11" d="M403.38,736.88c0,0,5.11-1.25,10.27,1.75"/>
			<path class="st11" d="M411.9,735.81c0,0,4.25,0.49,6.08,2.82"/>
			<line class="st11" x1="391.19" y1="724.06" x2="397.9" y2="718.36"/>
			<path class="st11" d="M389.7,667.23c0,0-2.8,5.66-2.05,10.66"/>
			<circle class="st6" cx="373.33" cy="696.88" r="3"/>
			<line class="st11" x1="466.9" y1="794.38" x2="475.4" y2="795.63"/>
			<line class="st11" x1="473.73" y1="792.88" x2="480.23" y2="792.88"/>
			<path class="st11" d="M456.46,832.63c0,0-0.56-5.5,3.27-10.83"/>
			<path class="st11" d="M419.57,805.28c0,0-6.08,6.26-4.62,11.06"/>
			<line class="st11" x1="539.29" y1="716.06" x2="540.73" y2="679.47"/>
			<line class="st11" x1="420.62" y1="595.6" x2="420.84" y2="607.47"/>
			<line class="st11" x1="411.44" y1="621.24" x2="426.73" y2="624.33"/>
			<line class="st11" x1="449.59" y1="620.65" x2="464.07" y2="614.13"/>
			<path class="st11" d="M404.42,516.78c0,0-6.02-9.15-14.19-11.65"/>
			<line class="st11" x1="407.15" y1="492.88" x2="413.68" y2="494.97"/>
			<line class="st11" x1="436.4" y1="523.13" x2="445.8" y2="519.97"/>
			<g>
				<path class="st21" d="M405.25,539c0.6,6.05-2.02,11.25-5.84,11.63c-3.82,0.38-7.41-4.22-8.01-10.26
					c-0.6-6.05,2.02-11.25,5.84-11.63C401.07,528.36,404.65,532.95,405.25,539z"/>
				<path class="st21" d="M429.58,536.6c0.6,6.05-2.71,11.32-7.38,11.78c-4.67,0.46-8.94-4.07-9.54-10.11
					c-0.6-6.05,2.71-11.32,7.38-11.78C424.72,526.02,428.99,530.55,429.58,536.6z"/>
				<line class="st21" x1="405.25" y1="539" x2="412.67" y2="538.27"/>
			</g>
			<line class="st21" x1="429.58" y1="536.6" x2="445.21" y2="535.91"/>
			<path class="st11" d="M413.68,558.13c0,0,4.66,1.83,9.02-2.67"/>
			<ellipse class="st6" cx="419.25" cy="540.13" rx="1.88" ry="2.31"/>
		</g>
	</g>
	<path class="st22" d="M58.28,247.5c0,0-29.11-131.63,31.26-171S233.11,9,331.01,18s214.72-56.25,271.05,54
		c56.34,110.25,15.84,261,54.09,389.25s7.72,438.38-232.39,371.38S59.9,812.52,39.65,699.88S110.66,445.5,58.28,247.5z"/>
	<g>
		<path class="st23" d="M347.35,350.58c7.98-0.09,15.55,1.65,20.91,7.8c5.6,6.43,7.37,15.47,12.68,22.15
			c4.07,5.11,10.03,8.59,13.45,14.15c5.26,8.56,2.77,20.56-4.47,27.52c-7.25,6.96-18.23,9.16-28.08,7.18
			c-6.59-1.32-12.89-4.33-19.61-4.41c-7.13-0.08-13.95,3.16-21.08,3.35c-7.66,0.21-15.34-3.38-20.1-9.38
			c-4.76-6.01-6.51-14.29-4.57-21.71c2.04-7.79,7.72-14.1,13.79-19.39c6.07-5.29,12.77-9.96,17.95-16.12
			c2.58-3.07,4.79-6.52,7.93-9.02C339.29,350.2,343.51,350.22,347.35,350.58z"/>
		<path class="st23" d="M418.32,337.26c2.56,3.58,3.59,8.09,3.49,12.48c-0.1,4.39-1.26,8.7-2.76,12.83
			c-2.13,5.89-5.12,11.7-10,15.61c-4.89,3.91-12.03,5.51-17.54,2.55c-5.55-2.98-8.16-9.87-7.58-16.15c0.59-6.27,3.82-12,7.54-17.08
			c2.87-3.92,6.17-7.66,10.4-10.06C406.09,335.05,411.09,332.17,418.32,337.26"/>
		<path class="st23" d="M367.01,289.79c8.01-2.43,15.46,2.97,18.82,8.55c3.36,5.59,4.25,12.34,4.14,18.86
			c-0.09,4.94-0.73,9.92-2.4,14.57s-4.42,8.99-8.26,12.1c-2.54,2.06-5.66,3.59-8.93,3.52c-5.2-0.11-9.48-4.18-12.32-8.54
			c-5.57-8.52-7.76-19.18-5.99-29.2c0.76-4.29,2.23-8.51,4.73-12.08C359.29,294,362.85,291.09,367.01,289.79z"/>
		<path class="st23" d="M276.96,330.73c-2.87,3.32-4.32,7.72-4.62,12.1c-0.31,4.38,0.45,8.78,1.56,13.03
			c1.58,6.06,4.01,12.12,8.52,16.47c4.5,4.35,11.47,6.59,17.23,4.16c5.8-2.45,9.04-9.08,9.03-15.38c0-6.3-2.69-12.3-5.93-17.7
			c-2.5-4.17-5.44-8.19-9.42-10.98C289.34,329.66,284.62,326.33,276.96,330.73"/>
		<path class="st23" d="M332.43,288.19c-7.75-3.16-15.67,1.53-19.53,6.78c-3.86,5.26-5.37,11.89-5.86,18.39
			c-0.37,4.93-0.19,9.94,1.05,14.73c1.23,4.79,3.57,9.35,7.1,12.81c2.34,2.28,5.31,4.1,8.57,4.33c5.19,0.37,9.82-3.29,13.06-7.36
			c6.33-7.97,9.49-18.38,8.66-28.53c-0.36-4.34-1.44-8.68-3.59-12.47C339.73,293.09,336.45,289.87,332.43,288.19z"/>
	</g>
</g>
</svg>
