<?xml version="1.0" encoding="utf-8"?>
<!-- Generator: Adobe Illustrator 26.3.0, SVG Export Plug-In . SVG Version: 6.00 Build 0)  -->
<svg version="1.1" id="Layer_1" xmlns="http://www.w3.org/2000/svg" xmlns:xlink="http://www.w3.org/1999/xlink" x="0px" y="0px"
	 viewBox="0 0 1920 1080" style="enable-background:new 0 0 1920 1080;" xml:space="preserve">
<style type="text/css">
	.st0{fill:none;stroke:#F7B385;stroke-width:5;stroke-linecap:round;stroke-miterlimit:10;stroke-dasharray:12;}
	.st1{fill:#FDAD8D;}
</style>
<path class="st0" d="M107.82-0.41C89.56,16.48,73.53,35.39,66.08,58.78c-11.41,35.81-0.35,74.36,7.98,111.01
	c17.08,75.13,22.44,153.88,6.44,229.25C67.72,459.28,40.54,517.3-0.46,562.88"/>
<g>
	<path class="st1" d="M1820.57,140.84c5.72-0.06,11.16,1.18,15,5.6c4.02,4.62,5.29,11.1,9.1,15.89c2.92,3.66,7.2,6.17,9.65,10.16
		c3.77,6.14,1.99,14.75-3.21,19.74c-5.2,4.99-13.08,6.57-20.15,5.15c-4.73-0.95-9.25-3.11-14.07-3.17
		c-5.12-0.06-10.01,2.27-15.13,2.41c-5.5,0.15-11.01-2.42-14.42-6.73c-3.42-4.31-4.67-10.26-3.28-15.58
		c1.46-5.59,5.54-10.12,9.89-13.91c4.36-3.8,9.16-7.14,12.88-11.57c1.85-2.2,3.44-4.68,5.69-6.47S1817.81,140.59,1820.57,140.84z"/>
	<path class="st1" d="M1871.49,131.29c1.83,2.57,2.57,5.8,2.5,8.95c-0.07,3.15-0.9,6.24-1.98,9.21c-1.53,4.22-3.67,8.39-7.18,11.2
		c-3.51,2.81-8.63,3.95-12.59,1.83c-3.98-2.14-5.86-7.08-5.44-11.58c0.42-4.5,2.74-8.61,5.41-12.25c2.06-2.81,4.43-5.49,7.46-7.22
		C1862.71,129.7,1866.3,127.64,1871.49,131.29"/>
	<path class="st1" d="M1834.67,97.23c5.74-1.75,11.09,2.13,13.5,6.14c2.41,4.01,3.05,8.85,2.97,13.53
		c-0.06,3.55-0.52,7.11-1.72,10.45c-1.2,3.34-3.17,6.45-5.92,8.68c-1.82,1.48-4.06,2.58-6.41,2.53c-3.73-0.08-6.8-3-8.84-6.12
		c-4-6.11-5.57-13.76-4.3-20.95c0.54-3.08,1.6-6.1,3.39-8.67C1829.13,100.24,1831.68,98.16,1834.67,97.23z"/>
	<path class="st1" d="M1770.06,126.6c-2.06,2.39-3.1,5.54-3.32,8.68c-0.22,3.15,0.32,6.3,1.12,9.35c1.14,4.35,2.88,8.7,6.11,11.82
		c3.23,3.12,8.23,4.73,12.36,2.98c4.16-1.76,6.49-6.51,6.48-11.03c0-4.52-1.93-8.82-4.26-12.7c-1.79-2.99-3.9-5.88-6.76-7.87
		C1778.94,125.83,1775.56,123.44,1770.06,126.6"/>
	<path class="st1" d="M1809.86,96.08c-5.56-2.27-11.24,1.09-14.01,4.87c-2.77,3.77-3.86,8.53-4.2,13.2
		c-0.26,3.54-0.14,7.13,0.75,10.57c0.89,3.43,2.56,6.71,5.1,9.19c1.68,1.64,3.81,2.94,6.15,3.11c3.72,0.26,7.05-2.36,9.37-5.28
		c4.54-5.72,6.81-13.19,6.21-20.47c-0.26-3.12-1.03-6.23-2.58-8.94C1815.1,99.59,1812.75,97.28,1809.86,96.08z"/>
</g>
<path class="st0" d="M60-0.93c26.57,51.08,53.14,102.16,79.71,153.24c25.05,48.15,50.83,102.26,36.38,154.58
	c-13.38,48.43-58.29,82.4-75.49,129.61c-25.55,70.16,13.82,157.75-29.34,218.67c-16.69,23.56-43.14,37.08-71.74,41.3"/>
<path class="st0" d="M1752.24,1.4c-27.62,38.22-45.96,83.18-52.28,129.92c-9.54,70.49,8.37,144.34,49.12,202.65
	c31.34,44.83,76.77,83.33,87.38,137c8.8,44.49-8.64,90.45-3.64,135.53c5.72,51.52,41.7,96.64,87.76,120.72"/>
<path class="st0" d="M1916.69,610.71c-38.78-26.2-74.76-55.85-101.86-93.69c-42.95-59.95-57.83-146.53-15.25-206.75
	c24.41-34.52,63.31-55.4,94.58-83.86c9.62-8.76,18.45-18.32,26.43-28.53"/>
</svg>
