<?xml version="1.0" encoding="utf-8"?>
<!-- Generator: Adobe Illustrator 26.3.0, SVG Export Plug-In . SVG Version: 6.00 Build 0)  -->
<svg version="1.1" id="Layer_1" xmlns="http://www.w3.org/2000/svg" xmlns:xlink="http://www.w3.org/1999/xlink" x="0px" y="0px"
	 viewBox="0 0 732.4 873.6" style="enable-background:new 0 0 732.4 873.6;" xml:space="preserve">
<style type="text/css">
	.st0{display:none;}
	.st1{display:inline;}
	.st2{fill:#FCCAA4;}
	.st3{fill:#3870C2;}
	.st4{fill:#9EC4FA;}
	.st5{fill:none;stroke:#FFF7F4;stroke-miterlimit:10;}
	.st6{fill:#030303;}
	.st7{fill:#F77172;}
	.st8{fill:none;stroke:#030303;stroke-width:1.5;stroke-linecap:round;stroke-linejoin:round;stroke-miterlimit:10;}
	.st9{fill:#3151A3;}
	.st10{fill:#1E3B79;}
	.st11{fill:none;stroke:#030303;stroke-linecap:round;stroke-linejoin:round;stroke-miterlimit:10;}
	.st12{fill:#F6B79C;}
	.st13{fill:#FFF7F4;}
	.st14{fill:none;stroke:#030303;stroke-width:2;stroke-linecap:round;stroke-linejoin:round;stroke-miterlimit:10;}
	.st15{fill:#FFB13B;}
	.st16{fill:#FBDCCF;}
	.st17{display:inline;fill:none;stroke:#F7B385;stroke-width:2;stroke-linecap:round;stroke-miterlimit:10;stroke-dasharray:12;}
	.st18{fill:none;stroke:#FFF7F4;stroke-linecap:round;stroke-linejoin:round;stroke-miterlimit:10;}
	.st19{fill:#3167B5;}
	.st20{fill:#FFCF7E;}
	.st21{fill:none;stroke:#FFF7F4;stroke-width:2;stroke-linecap:round;stroke-linejoin:round;stroke-miterlimit:10;}
	.st22{fill:none;stroke:#F7B385;stroke-width:2;stroke-linecap:round;stroke-miterlimit:10;stroke-dasharray:12;}
	.st23{fill:#FDAD8D;}
</style>
<g id="BACKGROUND">
</g>
<g id="Layer_3" class="st0">
	<g class="st1">
		<g>
			<path class="st2" d="M630.9,808.1H97c-12.1,0-22-9.8-22-22V31c0-12.1,9.9-22,22-22h533.9c12.1,0,22,9.8,22,22v755.2
				C652.8,798.3,643,808.1,630.9,808.1z"/>
		</g>
		<g>
			<path class="st3" d="M376,665.2c0,0,0.2,35.2-60.5,36v-45.8C315.5,655.3,359.5,641,376,665.2z"/>
			<path class="st3" d="M85.4,709.2c0,0,3.3,20.8,41.3,22.8v-47C126.8,685,86.4,687.7,85.4,709.2z"/>
			<path class="st4" d="M192.4,559.2l2.5-30.8l43-2.8l3.3,29.5l65.7,10.2c0,0,19,1,27.5,21s15,36,15,36s23.5,27.5,26.5,43
				c0,0-36-9.5-56,24c0,0,10,79,8,116.5l-198,2.5v-111c0,0-33.5-2.5-44.5,12c0,0,1.7-24.6,14.7-52.1c0,0,3.8-21.9,4.8-43.9
				c0.4-9.9,5.5-19.2,11.9-25.3c7-6.6,16.5-10.4,25.7-13.2L192.4,559.2z"/>
			<path class="st5" d="M156.9,570.2c3.4,6.3,19.4,30,68.6,26.8c32.5-2.1,47.3-20.7,54-36.1"/>
			<path class="st6" d="M177.8,791.8c19.3-9.4,42.8-29.7,51-47.5h-98.8v54C129.9,798.3,155.6,802.7,177.8,791.8z"/>
			<path class="st7" d="M226.4,590.2c24.9-1.6,36.9-15.8,42.7-30.8l-27.9-4.3l-3.3-29.5l-43,2.8l-2.5,30.8l-26.5,8.2
				C171.6,576.6,187.3,592.7,226.4,590.2z"/>
			<line class="st8" x1="304" y1="655.2" x2="301.7" y2="634.5"/>
			<path class="st6" d="M237.9,525.5l-43,2.8l-1.9,23.6C193.1,552,231.2,554.1,237.9,525.5z"/>
			
				<ellipse transform="matrix(0.2298 -0.9732 0.9732 0.2298 -351.0977 576.4247)" class="st7" cx="188.6" cy="510" rx="7.7" ry="7.7"/>
			
				<ellipse transform="matrix(0.6975 -0.7166 0.7166 0.6975 -292.073 328.1717)" class="st7" cx="242.7" cy="510" rx="7.7" ry="7.7"/>
			<path class="st9" d="M193.4,512.1c0,0-11.9-2.4-15-20.1c-2.8-16.1,11.5-19.1,11.5-19.1s3.5-20.6,24.4-20.3
				c20.8,0.4,37.6,13,37.2,31.1c-0.5,22.9-14.6,28.4-14.6,28.4H193.4z"/>
			<path class="st10" d="M179.2,495.5c3.9,14.5,14.2,16.7,14.2,16.7h43.4c0,0,14.1-5.5,14.6-28.4c0.2-7.4-2.6-13.9-7.3-19.1
				c-2.5,25.4-52.3,9.7-52.3,9.7s0.7,4.6,6.6,8.2l-6.7,11.1C187.6,499.8,183,498.1,179.2,495.5z"/>
			<path class="st7" d="M215,486.1c-7.5,0-12.9-1.7-16.6-3.5c-4.7,4.5-7.6,10.9-7.6,17.9v23.3c0,13.7,11.2,24.9,24.9,24.9l0,0
				c13.7,0,24.9-11.2,24.9-24.9v-23.3c0-6.7-2.7-12.7-7-17.2C228.1,483.7,224.1,486.1,215,486.1z"/>
			<path class="st6" d="M219.5,527.6c-0.2,2-2.1,3.4-4.3,3.1c-2.2-0.2-3.8-2-3.5-4L219.5,527.6z"/>
			<path class="st10" d="M221.8,522l-3.3-0.3c-2.4,1.1-4.5,0.1-5.4-0.5l-1.7-0.2c-3.9-0.4-7.3,2.5-7.6,6.3l12.3,0.2l12.1,2.2
				C228.5,525.8,225.7,522.3,221.8,522z"/>
			<path class="st11" d="M212.6,520.8c0,0,3.5,3,7.4,0"/>
			<path class="st12" d="M220.1,671.3l-21.7,8.8c0,0-6.7-2.1-8.7,0s-2,9.1,3,11.7c0,0,2.7,6.1,10.5,3.7s35.3-9.5,40.5-9.5v-23.7
				L220.1,671.3z"/>
			<path class="st13" d="M318.3,662c0,0-7.5-9.4-25.3-17.4c0,0-7.3-19.2-25-24c-0.5-0.8-1.1-1.6-1.8-2.5c2.1-6.5-1.6-21-7.8-19.3
				c-4.2,1.1-7.7,3.8-9.7,5.7c-2.5-0.9-15.8-5-26.4,1.8c-3.8-1.6-11.4-4.3-15-2c-4.2,2.7-0.8,12.1,3.5,16.2
				c-4,7.9-5.8,15.7-5.8,15.7s-2.8,8,4.3,14c2.2,1.8,5.3,3.3,8.9,4.2c-5.1,5.4-4.6,14.2-4.6,14.2s-4.7,8.6,6,10.2
				c0,0,8.9,4.9,11.5-2l1.2-5.5l6.5,1.3c0,0-0.5,55,20.3,70.8l-0.3,11.5c0,0-17.7,17.2-19.2,24.2s1.2,8.2,1.2,8.2s-0.5,5.5,7.2,4.5
				c0,0,10.7,2,13.5-6.2s22.5-24.3,22.5-24.3l9.2,3.2c0,0-28.2,40.2-13.7,68.5s28.3,9.3,22.2,0c-5.5-8.4-12.3-34.6,3-54.7
				c4.3-5.6,7.5-12,9.2-18.8l8.3-31.8C322.1,727.7,343.5,692.5,318.3,662z M249.5,654.1C249.6,654.1,249.6,654.1,249.5,654.1
				L249.5,654.1C249.6,654.1,249.5,654.1,249.5,654.1z"/>
			<path class="st6" d="M284,761.3l-25.2-6.3c0,0-2.9,2.8-6.4,6.6c10.6,1.6,20.4,4,24.1,6.3C281.4,763.2,284,761.3,284,761.3z"/>
			<path class="st12" d="M301.6,833c-2.2-3.3-4.6-9.5-5.7-17c-8.5,0.5-15.3,0.4-20.6,0c0.2,5.9,1.4,11.6,4.1,17
				C294,861.3,307.8,842.3,301.6,833z"/>
			<path class="st12" d="M270.9,628.5c-0.5-3.6-1.9-6.9-4.7-10.4c2.1-6.5-1.6-21-7.8-19.3c-4.2,1.1-7.7,3.8-9.7,5.7
				c-1.6-0.5-7.4-2.4-14.2-2c-5,7-12.2,21.9,7.9,31.9C255.6,641,264.9,635.8,270.9,628.5z"/>
			<path class="st12" d="M299.8,648c3.6,7.2,3.9,16.3,2.5,24.7c-2.5,15.4,13.1,28.5,28.2,23.7c0.1-10.7-2.8-22.8-12.3-34.3
				C318.3,662,312.7,655,299.8,648z"/>
			<line class="st8" x1="293" y1="644.6" x2="295" y2="650.7"/>
			<path class="st8" d="M249.6,654.1c0,0-21.6-6.5-29.1-1.5c-7.5,5-6.8,16.1-6.8,16.1s-4.7,8.6,6,10.2c0,0,8.9,4.9,11.5-2l1.2-5.5"
				/>
			<path class="st8" d="M219.6,678.8c0,0-2.2-4,1.1-9.3"/>
			<path class="st7" d="M100.3,700c0,0-2.9,36.9,19.1,83.3c0,0,42.7,16.7,81.7-9.3c29.6-19.8,47.7-43.2,54.7-53.3
				c2.4-3.4,5.5-6.3,9.2-8.2l24.5-13.1c1.4-0.8,2.3-2.3,2.1-3.9L291,688l3.3-4.8c0.9-1.4,0.9-3.2,0-4.5l-9.3-13.3c0,0,1-9-2.6-12.8
				l-1.5-9c0,0-4.8,0.6-7.1,8.4S267,672.8,257,674c-10,1.2-18.1-1.4-18.1-1.4s0.5,6.8-4.6,12.4s-5.4,14.4-5.4,14.4
				s-14.6,10.8-33.4,14.2c-13,2.4-30.8,8.1-30.8,8.1l-2.8-20.6C130.2,690.7,100.3,700,100.3,700z"/>
			<path class="st6" d="M161.9,701.2c-31.8-10.5-61.6-1.1-61.6-1.1s-0.4,5.4,0.3,14.6C120.3,698.8,161.9,701.2,161.9,701.2z"/>
			<path class="st8" d="M164.7,721.8c0,0-7.8,1.9-18.2,13.1"/>
			<line class="st8" x1="161.9" y1="701.2" x2="154.3" y2="650.7"/>
			<path class="st8" d="M267.6,684.7c0,0,11.3-5.3,11.7-10.3c0.3-5,3-21.8,3-21.8"/>
			<path class="st8" d="M285,665.3c0,0,2.7,14.2-0.7,18c-3.3,3.8-7.5,7.5-7.5,7.5"/>
			<line class="st8" x1="291" y1="688" x2="285" y2="695.5"/>
			<path class="st7" d="M356.8,664.4c-14.3,1.9-23.5,8.2-29.2,14c7.2,20.5-0.8,40-4.2,46.8l0.3,3.2c-14-6.3-44.7-3-44.7-3
				c0.3-8.3-7-13.3-7-13.3c-3.7-3-7.3-10.8-7.3-10.8l-36,43.2c9.3,10.7,30,10.7,30,10.7c36.2,25.3,90.7,50.7,108.7,20.7
				C383.7,748.5,356.8,664.4,356.8,664.4z"/>
			<path class="st6" d="M329.3,684c7.1-3.3,17.8-7.3,30.8-8.7c-1.9-6.8-3.2-11-3.2-11c-14.3,1.9-23.5,8.2-29.2,14
				C328.3,680.2,328.8,682.1,329.3,684z"/>
			<path class="st8" d="M323.8,728.3c0,0,11.3,2,18.7,12.7"/>
			<path class="st8" d="M268,620.6c0,0,7.7,18.6-6.8,27.7"/>
			<path class="st8" d="M210.8,620.5c0,0,3.2-8.3,9.9-11.7"/>
			<path class="st8" d="M192.8,691.8c0,0-4-8.6,3.5-9.4"/>
			<line class="st8" x1="247.9" y1="791.8" x2="252.1" y2="783.7"/>
			<line class="st8" x1="240.8" y1="787.3" x2="244.3" y2="779.7"/>
			<path class="st8" d="M291.3,697.5c0,0,8.3-4.4,16.1-4.2"/>
			<path class="st6" d="M216.2,628.4c0,1.2-0.7,2.2-1.5,2.2s-1.5-1-1.5-2.2c0-1.2,0.7-2.2,1.5-2.2S216.2,627.1,216.2,628.4z"/>
			<ellipse class="st6" cx="239.8" cy="624.5" rx="1.5" ry="2.2"/>
			<path class="st8" d="M216.5,636.5c0,0,5.8,3.6,9.1-3c0,0,4,5.4,10.7,0.7"/>
			<path class="st7" d="M228.2,630.4c0.1,1-1,3-2.6,3s-2.9-1.7-2.9-2.7c-0.1-1,1.2-1.2,2.7-1.3C226.9,629.4,228.1,629.4,228.2,630.4
				z"/>
			<path class="st8" d="M228.2,752.5c13.9-13.1,23.1-25.2,27.6-31.8c2.4-3.4,5.5-6.3,9.2-8.2"/>
			<ellipse class="st6" cx="205.3" cy="511.2" rx="1.9" ry="2.3"/>
			<ellipse class="st6" cx="226.1" cy="511.2" rx="1.9" ry="2.3"/>
			<path class="st14" d="M199.6,504.3c0,0,2-3.8,6.6-3.5"/>
			<path class="st14" d="M231.1,504.3c0,0-2-3.8-6.6-3.5"/>
			<path class="st5" d="M86.2,695.4c0,0,23.4-21.3,70.7-7.4"/>
			<path class="st5" d="M323.8,662.3c0,0,18.9-13.9,47.1-9.8"/>
		</g>
		<g>
			<path class="st10" d="M575.5,534.5c0,0,4.1-16.5-11.3-19.8c0,0,10.8-20-4.1-37.5c0,0-4.1-4.8-16.6-8.5c0,0,0,0-0.1,0l0.1-0.5
				c-8.4-19.2-25-6-25-6c-21.1-13.5-26.4,6.5-26.4,6.5c-12.5,3.8-16.6,8.5-16.6,8.5c-14.9,17.5-4.1,37.5-4.1,37.5
				c-15.4,3.2-11.3,19.8-11.3,19.8s-24.2,7.5-21.1,28.5s23,25.8,23,25.8h111.4c0,0,19.9-4.8,23-25.8S575.5,534.5,575.5,534.5z"/>
			<path class="st9" d="M493.4,500.6c12.3-1.1,24-5.2,31.8-14.8c1.7,6,4.1,9.1,10.2,11.7c5.5,2.4,14,4.4,19.8,2.5
				c2.4,5,5.4,7.6,11.5,8.2c2-7.3,3.1-19.7-6.5-31c0,0-4.1-4.8-16.6-8.5c0,0,0,0-0.1,0l0.1-0.5c-8.4-19.2-25-6-25-6
				c-21.1-13.5-26.4,6.5-26.4,6.5c-12.5,3.8-16.6,8.5-16.6,8.5c-3.8,4.5-5.9,9.1-7,13.5C472.8,498.4,484.8,501.4,493.4,500.6z"/>
			<path class="st13" d="M651.3,719.7c0,0-9-74.3-17.7-98.8S601,588.8,601,588.8l-60.2-13.3h-0.4H493l-60.2,13.3
				c0,0-24,7.7-32.7,32.1c-8.7,24.5-17.7,98.8-17.7,98.8h40.8l-1.6,86.7h188l-1.6-86.7H651.3z"/>
			<path class="st7" d="M537.5,529.8h-41.2l-3.3,45.7l-30.7,6.8c8,12.2,27.6,38.2,57.3,53.8c0,0,39.2-27.4,60.6-51.8l-39.5-8.7h-0.4
				L537.5,529.8z"/>
			<path class="st6" d="M537.5,529.8h-41.2l-0.8,11.2c0,0,5.9,22.3,44.5,28.2L537.5,529.8z"/>
			<path class="st15" d="M419.6,806.3h60V578.4l-46.8,10.4c0,0-24,7.7-32.7,32.1c-8.7,24.5-17.7,98.8-17.7,98.8h40.8L419.6,806.3z"
				/>
			<path class="st15" d="M633.7,620.9c-8.7-24.5-32.7-32.1-32.7-32.1l-46.6-10.3v227.9h57.2l-3.6-86.7h43.3
				C651.3,719.7,642.3,645.3,633.7,620.9z"/>
			<line class="st8" x1="599.6" y1="727.3" x2="604.5" y2="661"/>
			<path class="st16" d="M604.5,764.7c0,0,1.7,19.2,2,31.9s4.3,23.7,29.7,29.4c0,0,6.3,1.3,4.7,6.3c-1.7,5-38.3,2.3-47-16.8
				c-8.7-19.2-10.7-50.8-10.7-50.8H604.5z"/>
			<path class="st12" d="M636.2,826c-14-3.1-21.5-7.9-25.4-13.6c-5.6,2.7-11.2,4.3-15.8,5.3c10.3,17.2,44.2,19.5,45.8,14.7
				C642.5,827.3,636.2,826,636.2,826z"/>
			<path class="st6" d="M610.2,770.6l-52,16.7l28.1,1.8c0,0,3.1-3.2,10.7-3s9.3,4.2,9.3,4.2l4.8,0.3L610.2,770.6z"/>
			<circle class="st7" cx="491.1" cy="518.8" r="7.3"/>
			<circle class="st7" cx="542.2" cy="518.8" r="7.3"/>
			<path class="st7" d="M523,495.2c-6,14.3-29.8,16.8-29.8,16.8v19.9c0,13,13.7,22.2,20.2,25.8c2.1,1.2,4.6,1.1,6.6,0
				c6.5-3.7,20.2-13,20.2-25.8v-20C527,511.1,523,495.2,523,495.2z"/>
			<path class="st10" d="M443.5,662.3c0,0-0.8-9,16.8-18.5l5.3,22.9l-20,2.2L443.5,662.3z"/>
			<path class="st16" d="M560.9,780.5c0,0,12.8,18.2,9.5,28.2s-10.8,7-21,3s-23-7-45.2-4.2c0,0-14.5,3.9-19.5-1.2s-6.5-12.6,0-12.6
				s41-1.8,41-1.8L560.9,780.5z"/>
			<path class="st12" d="M434.4,595.7c0,0-2.8-6.7-7.1-6.4c-2.5,0.2-5.8,4-9.6,7.2c-2.7,2.3-6.4,3.7-7.1,6.1
				c-1.8,5.8,10.5,9.4,11.5,16.7c0,0,0.2,2.2,2.7,2.3S443.4,610,434.4,595.7z"/>
			<path class="st16" d="M462.3,594.3c0,0-12.7-9.3-32.7,1.2c0,0-3.2,1.4-4,8.2c-0.7,5.5-5.6,23.8-12.7,29.7c0,0-4.8,2.7-1,10.7
				c3.7,7.7,13.5,10.2,30,5l9.3-2.8c0,0,2.8,41.5,1.3,46.2h17c0,0,10.2,16.6,14.8,28.6c4.7,12,26,41.2,50.5,51.2l69.5-39.2L589,704
				c0,0-26.2-42-63-56.7c-32.7-13-42.5-23.2-51.5-34C474.5,613.3,473.5,602.8,462.3,594.3z"/>
			<path class="st12" d="M474.5,613.3c0,0-1-10.5-12.2-19c0,0-12.7-9.3-32.7,1.2c0,0-3.2,1.4-4,8.2c-0.3,2.7-1.8,8.7-4,14.8
				c2.7,0.9,6.7,1.3,10.6-1.5c6.8-4.9,7.9-10.1,7.9-10.1s-0.1,16.3,18.9,17.9C467.8,625.5,476.4,615.7,474.5,613.3z"/>
			<path class="st8" d="M437.1,592.3c-2.4,0.8-4.9,1.8-7.5,3.2c0,0-3.2,1.4-4,8.2"/>
			<path class="st12" d="M570.8,700.4c3.8-0.8,8.2-2.5,12.2-4.9c-9.7-13-30.7-37.7-57.1-48.2c-5.5-2.2-10.4-4.3-14.8-6.4
				c0.2,6.8,1.3,14.7,6.2,19.4c3,2.9,4.8,4.8,6.7,8.9c1.9,4.2,3.6,8.5,5.4,12.7C535.8,696.3,556.2,703.5,570.8,700.4z"/>
			<path class="st8" d="M547.2,709.3c0,0-23.8,3.7-30.2,20.7c-6.4,17,4.4,33.5,4.4,33.5"/>
			<path class="st12" d="M480.3,589.3c-1.2-0.3-2.3-0.8-3.4-1.3c-2.4-1.2-6.9-3.5-8.6-4.4c-2.4-1.3-9.6-1.3-10.8,4.4
				c-1.1,5.7,5.5,26.8,12.6,28.7c7.1,1.9,27.3-8.2,28.8-15s-4.4-8.8-7.7-9.5C488.9,591.7,483.2,590.2,480.3,589.3z"/>
			<path class="st8" d="M457.9,594.4c1.7,8.4,6.8,20.8,12.1,22.3c2.6,0.7,7.1-0.2,11.7-2"/>
			<path class="st6" d="M421,774.8c44.7-4.2,86.5-62.1,86.5-62.1l-85.1,28.9L421,774.8z"/>
			<path class="st15" d="M382.5,719.7c0,0-4.7,39,19.7,42c24.3,3,67-16.7,100-45.7l40-25.1c0,0,9.3,9.5,22.3,6.6l2.5-0.7v16
				c0,0-0.5,7.2,4.7,8.2l6.2-26.5L589,704c0,0,1-9,0-11.6s-7.2-8.1-8.7-18.2c0,0,0.2-5.5-6-6.8c-5.1-1.1-13.7-2.2-21.8-7.2
				c-3.6-2.2-8-2.3-11.8-0.5c-11.7,5.7-37.3,17.4-62.9,25.1C452.1,692.4,417.5,672.3,382.5,719.7z"/>
			<path class="st7" d="M580.3,674.2c0,0,0.2-5.5-6-6.8c-5.1-1.1-13.7-2.2-21.8-7.2c-3.6-2.2-8-2.3-11.8-0.5
				c-9.9,4.8-29.9,14-51.4,21.3c0.2,6.8,2.1,19,11.1,36.5c0.5-0.5,1.1-0.9,1.6-1.4l40-25.1c0,0,9.3,9.5,22.3,6.6l2.5-0.7v16
				c0,0-0.5,7.2,4.7,8.2l6.2-26.5L589,704c0,0,1-9,0-11.6C588,689.8,581.8,684.3,580.3,674.2z"/>
			<path class="st8" d="M477.8,684.7c-19.8,5.9-45-4.7-71.6,12"/>
			<path class="st16" d="M475.6,672.5v35.8l-17.2,16.4c0,0-8.5,4.5-7.5,12.7c1,8.2-0.8,15.9-4.5,19.4s-1,12.4,14.6,5.2
				c0,0,6.1-3.5,7.4-10.5l1.5-12l29.8-14.8c0,0,8.8-4.7,9-16.4s0-41.5,0-41.5L475.6,672.5z"/>
			<path class="st16" d="M426.9,687.6c0,0,0-6.5,11.2-7.2c13.6-0.8,17,14.5,14.8,27.8c0,0,0,7.1-8.1,7.5
				c-8.9,0.4-10.6-8.5-10.6-10.3s-1.4-16.9-3.7-18.4L426.9,687.6z"/>
			<path class="st6" d="M451.3,646.2c0,0,14.3-5.8,20.3-21.2c0,0-3.1,24.6-19.7,31L451.3,646.2z"/>
			<path class="st8" d="M475.6,708.2c0,0,6.2-3.9,12.5-1.1"/>
			<path class="st8" d="M455,764.2c0,0,3.2-6.7,3.5-9.9"/>
			<path class="st8" d="M446.5,763.5c0,0,5-6.3,5.9-9.2"/>
			<line class="st8" x1="440.3" y1="704.1" x2="440.3" y2="714.9"/>
			<line class="st8" x1="448" y1="703.5" x2="448" y2="715.1"/>
			<line class="st8" x1="475.6" y1="688.5" x2="475.6" y2="672.5"/>
			<path class="st15" d="M651.3,719.7c0,0,7.1,37.1-9.2,47.8s-99.5,26.2-99.5,26.2s-23.2,6.5-31.5,0c0,0-1.2-7.2-8-12.5
				s-11.5-8.8-11.8-13.2s9.8-3,15.2-9.8c0,0-5.2-4.5-1.6-7.8s6.4,3.9,17.4,6.2c0,0,10.2-1.1,15.2,8.2c0,0,23.2-4.7,41-19.5
				s29.4-25.6,29.4-25.6H651.3z"/>
			<path class="st7" d="M589.9,783.8c-3.5-14.8-11.5-27.3-16.8-34.4c-16.7,11.5-35.5,15.3-35.5,15.3c-5-9.3-15.2-8.2-15.2-8.2
				c-11-2.2-13.8-9.5-17.4-6.2s1.6,7.8,1.6,7.8c-5.5,6.9-15.5,5.3-15.2,9.8s5,8,11.8,13.2s8,12.5,8,12.5c8.2,6.5,31.5,0,31.5,0
				S565.7,789.5,589.9,783.8z"/>
			<path class="st4" d="M443.5,662.3c0,0,18-0.2,30.2-10.7s15.7-23.6,15.7-23.6l-1.8-1.4c0,0,2.8-2.8,4.6-1.6c1.8,1.2,8.5,4,9,7.5
				s-5.7,41.8-50.5,42.3c0,0-3.5-0.2-4-2.4C446.1,670.3,443.5,662.3,443.5,662.3z"/>
			<line class="st8" x1="577.8" y1="694.5" x2="579.2" y2="684.7"/>
			<path class="st8" d="M599.6,727.3c0,0,13.6-14.3,31.3-4.1"/>
			<path class="st8" d="M495.1,798c0,0-6.2,2.5-5.8,10.6"/>
			<path class="st8" d="M488.1,796.6c0,0-4.8,0.9-5.9,6.7"/>
			<line class="st8" x1="506.6" y1="758.2" x2="511.2" y2="763.5"/>
			<path class="st6" d="M425.7,637.1c0,1.3-1.8,3.4-4,3.4s-4-2.1-4-3.4s1.8-2.4,4-2.4C423.9,634.7,425.7,635.8,425.7,637.1z"/>
			<polyline class="st8" points="416.5,646.6 421.7,643.8 431.1,646.8 			"/>
			<line class="st8" x1="421.7" y1="643.8" x2="421.7" y2="639.1"/>
			<path class="st6" d="M431.1,613.9c0,1.3-0.9,2.4-2,2.4s-2-1.1-2-2.4s0.9-2.4,2-2.4S431.1,612.6,431.1,613.9z"/>
			<path class="st6" d="M449.2,613.9c0,1.3-0.9,2.4-2,2.4s-2-1.1-2-2.4s0.9-2.4,2-2.4C448.3,611.5,449.2,612.6,449.2,613.9z"/>
			<ellipse class="st6" cx="506" cy="522.6" rx="1.9" ry="2.3"/>
			<ellipse class="st6" cx="526.8" cy="522.6" rx="1.9" ry="2.3"/>
			<path class="st11" d="M513.3,532.2c0,0,3.5,3,7.4,0"/>
			<path class="st14" d="M501.9,514.4c0,0,3.1-2.9,7.4-1.1"/>
			<path class="st14" d="M530.2,514.4c0,0-3.2-2.8-7.4-1"/>
			<path class="st11" d="M517,540.9c0,0,4.4,1.3,7.1-1.5"/>
		</g>
	</g>
	<path class="st17" d="M75,113.5c-20.9,49.2-50.5,95-64.8,146.5c-27.8,100.4,6.1,206.3,39.7,304.9c22.6,66.4,45.2,132.8,67.8,199.1
		c11.5,33.8,27.1,71.9,61.1,83c15.7,5.2,32.8,3.4,49.2,0.8c108.1-17.2,211-68.9,320.4-67.2c50.4,0.8,107.7,10.9,145.3-22.6
		c27-24.1,34-64.7,26.6-100.2c-7.4-35.4-26.9-67-46.1-97.6c-19.2-30.7-38.9-62-46.8-97.4c-15.1-67.6,14.8-135.9,39.1-200.8
		c24.2-64.9,42.3-141,6.8-200.4c-5.7-9.5-12.6-18.2-20.4-26"/>
</g>
<g id="Layer_4">
</g>
<g id="OBJECTS">
	<g>
		<g>
			<path class="st2" d="M614.1,813.2H80.3c-12.1,0-22-9.8-22-22V36.1c0-12.1,9.8-22,22-22h533.9c12.1,0,22,9.8,22,22v755.2
				C636.1,803.4,626.3,813.2,614.1,813.2z"/>
		</g>
		<g>
			<g>
				<path class="st15" d="M168.4,506.8c0,0-1.8-21.3-6.8-28.2c-5-6.8-6.5-13.2-15-15.7s-20.5-5.3-30.7,0c0,0-6,3.7-1.5,9.5
					c0,0,16,5.6,18,10.9c2,5.3,3.8,10.3,1.8,12.1c-2,1.8-8.3,0.3-8.3,0.3s-9.5-2.3-17.5,18S94.9,562,97.2,571.1
					c0,0-8.8,53.8-6.8,64.5c0,0,3.2-1,5.5-5.2c0,0-1.2,7.3,3,8.5l19.5-57h40.2c0,0,25.6-36.8,15.6-67.3
					C174.1,514.6,173.1,509.6,168.4,506.8z"/>
				<path class="st6" d="M146.4,484c-0.3,2.1-1.2,3.9-3.8,5.1c-2.9,1.4-5.5,1.7-7.7,1.4l0,0c0.5,2.2,0.5,4-0.6,4.9
					c-2,1.8-8.3,0.3-8.3,0.3s20,20.6,24,5.6C152.1,493,149.3,487.3,146.4,484z"/>
				<path class="st9" d="M174.1,514.6c0,0-1.1-5-5.8-7.8c4.8,36.7-9.8,75.2-9.8,75.2S184.1,545.2,174.1,514.6z"/>
				<path class="st9" d="M100.3,540.1c-3.1,13.3-4.5,25.5-3.1,31c0,0-8.8,53.8-6.8,64.5c0,0,3.2-1,5.5-5.2c0,0-1.2,7.3,3,8.5l3-7.5
					c1,4.3,4,5.7,4,5.7l12.5-55.2c0,0,9.8-4.1,11-14.8s3.2-27,3.2-27H100.3z"/>
				<path class="st3" d="M134.4,528.8c3.3-29.4-8.5-33-8.5-33s-9.5-2.3-17.5,18S94.9,562,97.2,571.1c0,0,1,5,3.5,5
					c2.6,0,6.4-11.1,6.4-11.1s0.5,7,3.2,6.6s4.6-14,4.6-14s1.1,8.1,3.4,8.1c3.1,0,5.4-10.1,5.4-10.1S131.4,555.8,134.4,528.8z"/>
				<path class="st13" d="M146,472.6c-4.7-1.7-9.4-2.7-13.2-3c-7.3-0.5-11.1,3.1-12.6,5.1c0,0,0,0,0,0c4.8,2.1,11.1,5.4,12.3,8.6
					c1,2.6,1.9,5.1,2.4,7.2c2.2,0.2,4.9,0,7.7-1.4C149.6,485.6,144.6,478,146,472.6z"/>
				<path class="st6" d="M116.2,496.3l1.5-2.5c0,0,2.7,1.4,7.6,2c0.4,0,0.6,0.1,0.6,0.1s6.3,1.5,8.3-0.3s0.2-6.8-1.8-12.1
					c-2-5.3-18-10.9-18-10.9s-5.8,8-2.5,17.3C111.9,489.8,113.9,494.2,116.2,496.3z"/>
				<path class="st3" d="M161.6,478.6c-5-6.8-6.5-13.2-15-15.7s-20.5-5.3-30.7,0c0,0-6,3.7-1.5,9.5c0,0,2.6,0.9,5.8,2.3
					c1.6-2,5.3-5.6,12.6-5.1c9.2,0.6,23.2,5.8,30.9,13.2C163.1,481.2,162.4,479.7,161.6,478.6z"/>
				<line class="st11" x1="95.9" y1="630.5" x2="103.2" y2="583.6"/>
				<line class="st11" x1="101.9" y1="631.5" x2="112.7" y2="572.6"/>
				<line class="st11" x1="118.4" y1="582" x2="121.1" y2="567.8"/>
				<line class="st11" x1="107.2" y1="565" x2="109.5" y2="553.4"/>
				<line class="st11" x1="123.8" y1="555.6" x2="127.4" y2="538.1"/>
				<line class="st11" x1="118.7" y1="538.1" x2="119.8" y2="532.8"/>
				<line class="st11" x1="115" y1="557.6" x2="117.7" y2="543.5"/>
				<path class="st11" d="M122.4,517.5c-0.5,2.4-2.4,4-4.3,3.6c-1.9-0.4-3.1-2.6-2.6-5"/>
				<path class="st11" d="M131.7,534.3c-0.5,2.4-2.4,4-4.3,3.6c-1.9-0.4-3.1-2.6-2.6-5"/>
				<path class="st11" d="M116.5,520.5c-0.5,2.4-2.4,4-4.3,3.6c-1.9-0.4-3.1-2.6-2.6-5"/>
				<path class="st18" d="M117.7,493.8c0,0,2.6-6.3,7-6.1"/>
				<path class="st6" d="M136,474.2c0,0.9-0.8,1.7-1.7,1.7s-1.7-0.8-1.7-1.7c0-0.9,0.8-1.7,1.7-1.7S136,473.2,136,474.2z"/>
				<path class="st11" d="M162.5,524.2c0,0,2.1,5.2,2.1,8.7"/>
				<path class="st11" d="M159.6,530.8c0,0,1.6,3.2,1.1,8.3"/>
				<path class="st11" d="M156.3,537.9c0,0,1.2,4-1.5,7.6"/>
				<line class="st11" x1="138.3" y1="506.9" x2="147.9" y2="514"/>
				<line class="st11" x1="147.9" y1="510.9" x2="152.4" y2="514.6"/>
				<path class="st11" d="M136,478.5c0,0,3.2,0,4.2-2.6"/>
			</g>
			<path class="st12" d="M310.7,742.5c0,0,5.7,22-44.7,9l9.3-33.9C275.4,717.6,308.7,730.5,310.7,742.5z"/>
			<path class="st12" d="M82.7,681.1c0,0-10.3,20.3,29.9,26.9l18.7,2.9l3.8-29.8C135.1,681.1,97.1,667.4,82.7,681.1z"/>
			<path class="st16" d="M182.7,575.9c-5.3-1.2-12.6,2.4-12.6,2.4h-35.3c0,0-24.3-3.2-29.7,19.8c-5.3,23-8.6,51.6-22.3,83
				c0,0,19-1,35.7,3.7l-16.3,126.7h178.7l-4-82.9c0,0,21.3,2.9,34,13.9c0,0-2.3-41.3-7.7-56c0,0,4.8-29.7,2.5-50.1
				c-1-8.7-6.3-16.4-14.1-20.4l-55-28.2c0,0-4.1-6-12.6-8.2L182.7,575.9z"/>
			<path class="st6" d="M278.3,761.7l-54.7-3.3c0,0,17.4,44.4,27.3,53h29.7L278.3,761.7z"/>
			<path class="st7" d="M244.4,514.4c-3.8-28.8-42.8-34.5-60.5-16.2c0,0-9,9.2-9.8,16.5s-0.5,12.5-4.2,13.5s-5,4-1.5,7
				c0,0-10.8,20.2,1.5,28.2c3.9,2.6,9.3,2.3,14.8,0.9l-4,15.1c-1.5,5.7-0.8,11.8,2.1,17c6.7,11.8,21.5,19.5,21.5,19.5
				c14.8-3.5,19.3-18.3,20.7-26c0.5-2.7,0.4-5.5-0.1-8.2l-4.6-24.1C220.4,557.6,248.1,543.1,244.4,514.4z"/>
			<path class="st15" d="M188.3,494.4c6.1-1.7,17.6-4,21.6,1.2c5.5,7.2-17,17.5-14,26.8s10,9.2,7,18l10.5-0.2c0,0-1.8,12.5,7,17.5
				c0,0,27.8-14.5,24-43.2C240.9,487.8,207.4,480.9,188.3,494.4z"/>
			<path class="st6" d="M184.7,564.2l16.7-7.9c0,0-8,15.2-18.9,16.2L184.7,564.2z"/>
			<circle class="st7" cx="214.7" cy="538.1" r="7.3"/>
			<line class="st11" x1="210.9" y1="540.1" x2="217.6" y2="535.6"/>
			<path class="st6" d="M179.7,524.9c-0.5,1.2-1.6,1.8-2.6,1.5c-1-0.4-1.4-1.6-0.9-2.8s1.6-1.8,2.6-1.5
				C179.8,522.4,180.2,523.7,179.7,524.9z"/>
			<path class="st14" d="M183.6,519.4c0,0-1.2-4.1-5.7-4.8"/>
			<path class="st6" d="M171.2,543h7.1c0,0-0.8,6.3-4.4,5.8C170.2,548.3,171.2,543,171.2,543z"/>
			<path class="st11" d="M170,578.3c1,7.9,1.1,30.2,33.4,46.1c0,0,24.6-4.1,33-36.6"/>
			<path class="st7" d="M301.1,736.1c0,0,0,51-26.7,59.6c-26.7,8.7-52.8-27-54.7-54.8c-1.8-27.8-6.1-50.6-6.1-50.6
				s-11.8,0.4-19.2-4.6s-10.7-8.3-10.7-8.3s-7-0.5-10.7-5l-14.5-2c0,0,4-7.3,13.8-7s25.7-1.5,25.7-1.5s12.7-2.5,16.3-8.3
				c0,0-8.8-12.7-0.2-21.2c0,0,4.3,10.1,12.3,13.6s15.5,17,12.7,33.7c0,0,11.7,25.2,22.5,37.5C261.7,717.3,293.4,730.3,301.1,736.1z
				"/>
			<path class="st6" d="M299.3,754.9c1.8-10.5,1.8-18.8,1.8-18.8c-7.7-5.8-39.3-18.8-39.3-18.8S284.8,737,299.3,754.9z"/>
			<path class="st7" d="M91.7,681.1l-8.9,51.3l47.2,2.5l3.2-45C133.1,689.9,119,681.9,91.7,681.1z"/>
			<path class="st6" d="M89.5,693.3c16.1-3.4,34.8-0.2,43.3,1.6l0.4-5c0,0-14.1-8-41.5-8.8L89.5,693.3z"/>
			<path class="st3" d="M129.9,699.6c0,0-25.8-3.7-43.2,15.7c-17.5,19.3,5.5,56.8,5.5,56.8s13.8,18.3,30.5,5.2l4-4.7
				c0,0,15.2,2,22.2-8s7.5-18,7.5-18s7,3,13.6-2.2c0,0,9.9,3.2,13.6-1.8s0-3.6,3.8-14.1c0,0,2.6-5.5-0.9-8.2c0,0,6.5,0,7.8-3.5
				s-1.6-2.4-0.6-9.8s-0.6-11.4-3.5-12.5s-6.8-2.9-6.8-2.9s1.5-2-2.1-4.8s-14.4-8.9-14.4-8.9s-4.2-1.5-9.9,0.8
				c-3.5,1.4-8.4,2.5-11.6,3.1c-2.1,0.4-3.9,1.6-5.2,3.3L129.9,699.6z"/>
			<path class="st9" d="M193.6,707.1c1-7.4-0.6-11.4-3.5-12.5s-6.8-2.9-6.8-2.9l-0.7,4.3c0,0,4.7,1.8,3.8,6.5
				c-0.8,4.7-1.9,6.5-1.9,6.5s3.2,0.5,2.9,4s-1,7.4-1,7.4s6.5,0,7.8-3.5S192.6,714.5,193.6,707.1z"/>
			<path class="st9" d="M141.1,732.5c0,0,0,14,14.3,19c0.9-3,1-4.8,1-4.8S144.4,741.4,141.1,732.5z"/>
			<line class="st8" x1="129.9" y1="699.6" x2="121.7" y2="710.1"/>
			<line class="st8" x1="182.7" y1="696" x2="169.2" y2="688.6"/>
			<line class="st8" x1="184.7" y1="709" x2="170.7" y2="701.5"/>
			<line class="st8" x1="186.5" y1="720.4" x2="174.4" y2="714.8"/>
			<line class="st8" x1="170" y1="744.4" x2="176" y2="737.8"/>
			<path class="st8" d="M126.7,772.6c0,0,7.6-17.3,13.1-21.8"/>
			<path class="st13" d="M105.3,764.1c1.1,1.9,0.7,4.3-0.9,5.2c-1.6,0.9-3.9,0.1-5-1.8c-1.1-1.9-0.7-4.3,0.9-5.2
				C101.9,761.3,104.2,762.1,105.3,764.1z"/>
			<path class="st8" d="M97.9,755.1c0,0,12.1,10,6.4,14.2"/>
			<line class="st8" x1="161.1" y1="687.1" x2="164" y2="719.1"/>
			<line class="st8" x1="173.1" y1="672.5" x2="203.2" y2="672.5"/>
			<path class="st8" d="M183.7,677.5c0,0,13,5.2,23.7,3.7"/>
			<line class="st8" x1="213.6" y1="690.4" x2="223.6" y2="690.4"/>
			<line class="st11" x1="133.1" y1="689.9" x2="133.1" y2="626.8"/>
			<line class="st11" x1="256.8" y1="710.9" x2="264.4" y2="668.1"/>
			<line class="st11" x1="303.1" y1="686.5" x2="301.1" y2="699.6"/>
			<g>
				<path class="st6" d="M137.6,583.5L137.6,583.5c-1.1,0-1.9-0.9-1.9-1.9v-4.1c0-1,0.9-1.9,1.9-1.9l0,0c1.1,0,1.9,0.9,1.9,1.9v4.1
					C139.5,582.7,138.7,583.5,137.6,583.5z"/>
				<path class="st6" d="M139.8,583.3L139.8,583.3c-1-0.3-1.5-1.4-1.2-2.5l1.3-3.8c0.3-1,1.4-1.5,2.4-1.2l0,0c1,0.3,1.5,1.4,1.2,2.5
					l-1.3,3.8C141.9,583.1,140.8,583.6,139.8,583.3z"/>
				<path class="st6" d="M150.4,583.5L150.4,583.5c-1.1,0-1.9-0.9-1.9-1.9v-4.1c0-1,0.9-1.9,1.9-1.9l0,0c1.1,0,1.9,0.9,1.9,1.9v4.1
					C152.3,582.7,151.5,583.5,150.4,583.5z"/>
				<path class="st6" d="M154.5,583.5L154.5,583.5c-1,0.2-2-0.5-2.2-1.6l-0.7-4c-0.2-1,0.5-2,1.6-2.2l0,0c1-0.2,2,0.5,2.2,1.6l0.7,4
					C156.3,582.3,155.6,583.3,154.5,583.5z"/>
			</g>
		</g>
		<g>
			<path class="st19" d="M611.9,703.1c0,0,13,33.5-46.5,26.5l-18.2-26.5C547.2,703.1,591.4,685.6,611.9,703.1z"/>
			<path class="st3" d="M325.9,706.1c0,0-11.2,26.6,37.2,26.6h28.5l2.2-46.2C393.9,686.5,336.4,684.3,325.9,706.1z"/>
			<path class="st20" d="M420.6,572.6l-41.7,19.5c0,0-15,5-22,32.2l-5,21.7c0,0-21.5,37.9-26,60c0,0,24.5-14.2,62.5-8.5
				c0,0-8,51.8-4.5,113.9h177.5l-15-96.7c0,0,35-20.2,65.5-11.7c0,0-11.5-36.6-30.5-57s-16.2-62.6-68-74.6l-53.1-7L420.6,572.6z"/>
			<path class="st6" d="M549.2,732.7l-32.8-1.9c0,0,20.4,55.7,43.1,68l0,0L549.2,732.7z"/>
			<path class="st6" d="M423.8,756.6l-40.3-1c-0.3,8.8-0.5,18.3-0.4,28.3C402.6,778.9,423.8,756.6,423.8,756.6z"/>
			<path class="st16" d="M469.4,747.8L418,793.1c0,0-8.6,2.6-6.1-8.2s29.9-44.8,38.5-48.1L469.4,747.8z"/>
			<path class="st6" d="M450.4,736.8c-3.3,1.3-9.3,7-15.7,14.2c1.8,6.2,4.9,13.2,10,18.4l24.6-21.7L450.4,736.8z"/>
			<path class="st7" d="M409.1,578.3c0,0-25.4,64,31.2,60.3c46.6-3,46.2-47.9,48-70.6l-27.9-3.5l-39.7,8.1L409.1,578.3L409.1,578.3z
				"/>
			<path class="st13" d="M490.9,751.9c0,0,23.8-17,17.8-50s-27.4-34.8-45-37.2c-14.7-2-33.7-3-48.3-0.4l-24.1,36.8
				c0,0,2.2,21.6,47.5,38.3c0,0,4.9,27.7,28.2,32c0,0-17.5,21.2-16.5,31.8s6.1,6.5,6.1,6.5s1.4,5.2,7.2,3.5s0.5-9.4,15-23.8
				s21.7-21,18.1-31.4L490.9,751.9z"/>
			<path class="st10" d="M430.4,569.9c0,0-34,9.2-54.8-16.5c0,0-12.8-19.8,4-40.8c0,0,8-5.8,8.5-17c0,0,0.8-4-4.5-8.2
				s-5.8-13.8,2.8-17.5s20.8,0,20.8,0s17.3-17,36.5-8.5c19.2,8.5,16.7,23.5,16.7,23.5s35.2,4.3,36.8,38.2
				C498.6,556.9,430.4,569.9,430.4,569.9z"/>
			<polygon class="st7" points="466.8,588.7 424.8,597.7 413.7,530.6 448.8,521.6 			"/>
			<path class="st6" d="M445.6,522.4l-32,8.2l5.3,32.3C444.1,553.7,445.6,522.4,445.6,522.4z"/>
			<path class="st7" d="M436.4,500.1c-19,5.8-28.3-1.7-32-6.3c-1.8,2.7-3.1,5.8-3.6,9.2l-3,21.6c-1.8,13.3,7.5,25.7,20.8,27.5
				c13.3,1.8,25.6-7.5,27.5-20.8l1.7-12C438,512.7,436.4,500.1,436.4,500.1z"/>
			<circle class="st7" cx="451" cy="517.4" r="7.3"/>
			<ellipse class="st6" cx="403.7" cy="518.3" rx="1.9" ry="2.3"/>
			<path class="st11" d="M408.2,511.8c0,0-0.2,11.3-1.1,12.9c-0.9,1.6-8.2,5.7,6.5,5.9"/>
			<line class="st11" x1="447.1" y1="519.4" x2="453.8" y2="514.9"/>
			<path class="st7" d="M338.8,700.9l-7.7,47.3c0,0-2.7,23.3,27.7,21.7c30.3-1.7,102.7-24,102.7-24s8,12.6,17.8,13.8l12.2,2.8
				l0.4,13.4c0,0,5.9,0.6,8.6-5.4c1.8-3.9,4.2-8.7,5.7-11.5c0.8-1.6,1-3.5,0.5-5.3l-0.5-1.8l4.1-11.1c0.9-2.4,0.4-5.1-1.2-7.1
				l-5.3-6.5c-2.3-2.8-5.5-4.6-9-5.2c-6.7-1.1-17.8-3-24-4.7c-9.2-2.5-83-6.5-83-6.5l0.8-13.4C388.4,697.5,366.9,692.6,338.8,700.9z
				"/>
			<path class="st6" d="M388.1,702.1l0.3-4.6c0,0-21.5-4.9-49.6,3.3l-1.9,11.6C358.6,703.7,388.1,702.1,388.1,702.1z"/>
			<path class="st11" d="M387.6,710.9c0,0-13.2-0.8-21.9,3.9"/>
			<path class="st11" d="M490.9,745.6l8,9.3c1.5,1.7,2.2,4,2.1,6.2l-0.6,9.2"/>
			<polyline class="st11" points="506.1,751.9 501.5,742.9 498.7,737.5 			"/>
			<line class="st11" x1="504.7" y1="741.5" x2="501.5" y2="742.9"/>
			<path class="st7" d="M598.1,701.1c0,0,17.5,41.3,12.3,62.5c-6.5,26.5-47.5,29-85.2-20.7c-23.8-31.3-26.4-46.9-26.4-46.9
				s-6.8,2.4-16.2-2.8c0,0-7.9,0.1-13.6,1.4s-21.9,2.6-28.2-2.5c0,0-7.9-1.3-8.6-5.7c0,0-4-1,0-4.5s19.2-9.2,19.2-9.2
				s-6.5-2.6-5-8.2c0,0,10.9,1.4,14.1,0s29.9-9.9,44.8,0s52,45.3,52,45.3S575.9,700.5,598.1,701.1z"/>
			<path class="st6" d="M602.1,711.4c-2.2-6.2-3.9-10.3-3.9-10.3c-22.3-0.5-41,8.6-41,8.6S585.4,708.3,602.1,711.4z"/>
			<line class="st11" x1="557.1" y1="709.7" x2="576.9" y2="727"/>
			<line class="st11" x1="498.7" y1="696.1" x2="507.4" y2="693.1"/>
			<path class="st11" d="M440.6,692.1c0,0,24.2-3.8,30.8-8"/>
			<path class="st11" d="M432,686.4c0,0,27.6-6,35.1-9.5"/>
			<line class="st11" x1="451.3" y1="672.6" x2="465.6" y2="669.1"/>
			<path class="st13" d="M403.4,713.9l-24.2,3.4c0,0-7.8,0.6-13.4,11.5c-6.4,12.6,8.2,13.5,13.7,5.5c0,0,32.9,8,41.4,0.5
				s12.1-28.7,1.8-39.5c0,0-16.5-18.5-26.9,0.7C391.8,703.4,403.4,713.9,403.4,713.9z"/>
			<path class="st16" d="M375.9,654.4c0,0-7.5-13,5.8-26.8s22.8-18,22.8-18s8.2,25.5,0,40.5S375.9,654.4,375.9,654.4z"/>
			<path class="st13" d="M415.3,664.3c13-12.9,12.9-46.6,12.9-46.6c-21.4,2.3-33.3,17.6-38.5,26.6c-20.3-0.7-37.9,22.6-34.3,48.9
				c0,0,0,5.2,5.2,6.5c0,0,0.3,8.5,12.5,7.8s16.3-4.6,18-6.3L415.3,664.3z"/>
			<line class="st11" x1="360.6" y1="699.6" x2="361.7" y2="694.6"/>
			<path class="st11" d="M415.3,664.3c0,0-6.4,4.9-17.4,4.9"/>
			<path class="st11" d="M396.6,659.7c0,0-5.4-19,22.2-33.5"/>
			<line class="st11" x1="379.4" y1="734.4" x2="382.4" y2="730.8"/>
			<line class="st11" x1="370.3" y1="739.6" x2="375.6" y2="730.5"/>
			<path class="st11" d="M364.8,736.8c0,0,2.8-7.5,5.6-9.2"/>
			<path class="st11" d="M403.4,713.9c0,0,5.1-1.2,10.3,1.8"/>
			<path class="st11" d="M411.9,712.8c0,0,4.2,0.5,6.1,2.8"/>
			<line class="st11" x1="391.2" y1="701.1" x2="397.9" y2="695.4"/>
			<path class="st11" d="M389.7,644.2c0,0-2.8,5.7-2,10.7"/>
			<circle class="st6" cx="373.3" cy="673.9" r="3"/>
			<line class="st11" x1="466.9" y1="771.4" x2="475.4" y2="772.6"/>
			<line class="st11" x1="473.7" y1="769.9" x2="480.2" y2="769.9"/>
			<path class="st11" d="M456.5,809.6c0,0-0.6-5.5,3.3-10.8"/>
			<path class="st11" d="M419.6,782.3c0,0-6.1,6.3-4.6,11.1"/>
			<line class="st11" x1="539.3" y1="693.1" x2="540.7" y2="656.5"/>
			<line class="st11" x1="420.6" y1="572.6" x2="420.8" y2="584.5"/>
			<line class="st11" x1="411.4" y1="598.2" x2="426.7" y2="601.3"/>
			<line class="st11" x1="449.6" y1="597.7" x2="464.1" y2="591.1"/>
			<path class="st11" d="M404.4,493.8c0,0-6-9.1-14.2-11.6"/>
			<line class="st11" x1="407.1" y1="469.9" x2="413.7" y2="472"/>
			<line class="st11" x1="436.4" y1="500.1" x2="445.8" y2="497"/>
			<g>
				<path class="st21" d="M405.2,516c0.6,6-2,11.2-5.8,11.6s-7.4-4.2-8-10.3c-0.6-6,2-11.2,5.8-11.6
					C401.1,505.4,404.6,510,405.2,516z"/>
				<path class="st21" d="M429.6,513.6c0.6,6-2.7,11.3-7.4,11.8s-8.9-4.1-9.5-10.1c-0.6-6,2.7-11.3,7.4-11.8
					C424.7,503,429,507.5,429.6,513.6z"/>
				<line class="st21" x1="405.2" y1="516" x2="412.7" y2="515.3"/>
			</g>
			<line class="st21" x1="429.6" y1="513.6" x2="445.2" y2="512.9"/>
			<path class="st11" d="M413.7,535.1c0,0,4.7,1.8,9-2.7"/>
			<ellipse class="st6" cx="419.2" cy="517.1" rx="1.9" ry="2.3"/>
		</g>
	</g>
	<path class="st22" d="M58.3,224.5c0,0-29.1-131.6,31.3-171S235.1,34,333,43s224-56,269.1,6c56.3,110.2,15.8,261,54.1,389.2
		s7.7,438.4-232.4,371.4S59.9,789.5,39.7,676.9S110.7,422.5,58.3,224.5z"/>
	<g>
		<path class="st23" d="M347.4,327.6c8-0.1,15.5,1.6,20.9,7.8c5.6,6.4,7.4,15.5,12.7,22.1c4.1,5.1,10,8.6,13.5,14.1
			c5.3,8.6,2.8,20.6-4.5,27.5c-7.2,7-18.2,9.2-28.1,7.2c-6.6-1.3-12.9-4.3-19.6-4.4c-7.1-0.1-14,3.2-21.1,3.4
			c-7.7,0.2-15.3-3.4-20.1-9.4c-4.8-6-6.5-14.3-4.6-21.7c2-7.8,7.7-14.1,13.8-19.4c6.1-5.3,12.8-10,18-16.1c2.6-3.1,4.8-6.5,7.9-9
			C339.3,327.2,343.5,327.2,347.4,327.6z"/>
		<path class="st23" d="M418.3,314.3c2.6,3.6,3.6,8.1,3.5,12.5s-1.3,8.7-2.8,12.8c-2.1,5.9-5.1,11.7-10,15.6
			c-4.9,3.9-12,5.5-17.5,2.5c-5.5-3-8.2-9.9-7.6-16.1c0.6-6.3,3.8-12,7.5-17.1c2.9-3.9,6.2-7.7,10.4-10.1
			C406.1,312,411.1,309.2,418.3,314.3"/>
		<path class="st23" d="M367,266.8c8-2.4,15.5,3,18.8,8.5c3.4,5.6,4.2,12.3,4.1,18.9c-0.1,4.9-0.7,9.9-2.4,14.6s-4.4,9-8.3,12.1
			c-2.5,2.1-5.7,3.6-8.9,3.5c-5.2-0.1-9.5-4.2-12.3-8.5c-5.6-8.5-7.8-19.2-6-29.2c0.8-4.3,2.2-8.5,4.7-12.1
			C359.3,271,362.9,268.1,367,266.8z"/>
		<path class="st23" d="M277,307.7c-2.9,3.3-4.3,7.7-4.6,12.1c-0.3,4.4,0.5,8.8,1.6,13c1.6,6.1,4,12.1,8.5,16.5
			c4.5,4.4,11.5,6.6,17.2,4.2c5.8-2.5,9-9.1,9-15.4c0-6.3-2.7-12.3-5.9-17.7c-2.5-4.2-5.4-8.2-9.4-11
			C289.3,306.7,284.6,303.3,277,307.7"/>
		<path class="st23" d="M332.4,265.2c-7.8-3.2-15.7,1.5-19.5,6.8c-3.9,5.3-5.4,11.9-5.9,18.4c-0.4,4.9-0.2,9.9,1,14.7
			c1.2,4.8,3.6,9.4,7.1,12.8c2.3,2.3,5.3,4.1,8.6,4.3c5.2,0.4,9.8-3.3,13.1-7.4c6.3-8,9.5-18.4,8.7-28.5c-0.4-4.3-1.4-8.7-3.6-12.5
			C339.7,270.1,336.5,266.9,332.4,265.2z"/>
	</g>
</g>
</svg>
