<?xml version="1.0" encoding="utf-8"?>
<!-- Generator: Adobe Illustrator 26.3.0, SVG Export Plug-In . SVG Version: 6.00 Build 0)  -->
<svg version="1.1" id="Layer_1" xmlns="http://www.w3.org/2000/svg" xmlns:xlink="http://www.w3.org/1999/xlink" x="0px" y="0px"
	 viewBox="0 0 100 78.25" style="enable-background:new 0 0 100 78.25;" xml:space="preserve">
<style type="text/css">
	.st0{fill:none;stroke:#FBC1AD;stroke-width:0.5;stroke-linecap:round;stroke-miterlimit:10;stroke-dasharray:1;}
	.st1{fill:#F9AD8E;}
</style>
<path class="st0" d="M22.63,0.62c0,0,1.48,12.2-7.5,13.5C-4.37,16.94,0.7,41.5-7.55,48.62"/>
<path class="st0" d="M14.76-2c0,0-8.32,6.89-7.5,18.38C8.88,39.12-3.75,33.81-1.62,50.5"/>
<path class="st0" d="M78.38,0.62c0,0-0.75,10.12,9.56,24s2.81,28.31,18,31.69"/>
<path class="st0" d="M96.76-0.69c0,0,3.94,5.44,1.5,16.69s-6.1,14.25,0.8,24.38l5.39,6.94"/>
<g>
	<g>
		<path class="st1" d="M88.07,11.95c-0.25-0.14-0.52-0.22-0.8-0.13c-0.29,0.1-0.51,0.36-0.79,0.47c-0.22,0.09-0.47,0.09-0.67,0.21
			c-0.32,0.18-0.45,0.6-0.35,0.95c0.1,0.35,0.41,0.61,0.76,0.72c0.23,0.08,0.48,0.09,0.7,0.21c0.23,0.12,0.38,0.35,0.6,0.48
			c0.24,0.14,0.54,0.17,0.8,0.06c0.26-0.1,0.46-0.34,0.53-0.6c0.07-0.28,0.01-0.58-0.09-0.86c-0.1-0.27-0.23-0.54-0.28-0.83
			c-0.03-0.14-0.04-0.29-0.09-0.42C88.33,12.08,88.2,12.01,88.07,11.95z"/>
		<path class="st1" d="M86.07,10.27c-0.14,0.07-0.26,0.19-0.33,0.33c-0.07,0.14-0.11,0.3-0.14,0.45c-0.04,0.22-0.05,0.46,0.04,0.67
			s0.28,0.39,0.51,0.39c0.23,0,0.43-0.17,0.53-0.37c0.09-0.21,0.09-0.45,0.07-0.67c-0.02-0.17-0.06-0.35-0.15-0.5
			C86.5,10.42,86.39,10.24,86.07,10.27"/>
		<path class="st1" d="M88.53,9.69c-0.21-0.22-0.54-0.18-0.74-0.06c-0.2,0.12-0.35,0.31-0.46,0.52c-0.08,0.16-0.15,0.33-0.18,0.5
			c-0.03,0.18-0.02,0.36,0.05,0.53c0.04,0.11,0.11,0.21,0.22,0.27c0.17,0.09,0.37,0.04,0.54-0.05c0.33-0.17,0.58-0.47,0.71-0.81
			c0.05-0.15,0.08-0.31,0.07-0.46C88.7,9.96,88.64,9.8,88.53,9.69z"/>
		<path class="st1" d="M90.64,12.57c0.03,0.16,0,0.32-0.07,0.46c-0.07,0.14-0.17,0.27-0.28,0.38c-0.16,0.16-0.34,0.31-0.56,0.37
			c-0.22,0.06-0.48,0-0.62-0.17c-0.14-0.18-0.12-0.45-0.01-0.64c0.11-0.2,0.3-0.34,0.5-0.45c0.15-0.09,0.32-0.16,0.49-0.18
			C90.27,12.32,90.48,12.3,90.64,12.57"/>
		<path class="st1" d="M89.65,10.25c0.3,0.04,0.47,0.33,0.5,0.56c0.03,0.23-0.04,0.47-0.14,0.68c-0.08,0.16-0.17,0.32-0.29,0.45
			c-0.12,0.13-0.28,0.23-0.45,0.28c-0.11,0.03-0.24,0.04-0.35-0.02c-0.17-0.08-0.25-0.28-0.28-0.46c-0.06-0.36,0.03-0.75,0.23-1.05
			c0.09-0.13,0.2-0.25,0.33-0.33C89.33,10.27,89.49,10.23,89.65,10.25z"/>
	</g>
	<g>
		<path class="st1" d="M92.94,7.42c-0.2,0.07-0.37,0.18-0.45,0.38c-0.08,0.21-0.04,0.45-0.11,0.66c-0.05,0.16-0.17,0.3-0.2,0.47
			c-0.05,0.26,0.12,0.53,0.36,0.64c0.24,0.11,0.53,0.06,0.76-0.08c0.15-0.09,0.28-0.23,0.44-0.29c0.18-0.07,0.37-0.05,0.55-0.11
			c0.19-0.07,0.35-0.22,0.41-0.42c0.06-0.19,0.03-0.41-0.09-0.58c-0.12-0.17-0.32-0.28-0.52-0.35c-0.2-0.08-0.41-0.13-0.59-0.23
			c-0.09-0.05-0.18-0.12-0.28-0.15C93.14,7.34,93.03,7.38,92.94,7.42z"/>
		<path class="st1" d="M91.06,7.75c-0.03,0.11-0.01,0.23,0.03,0.34c0.04,0.11,0.11,0.2,0.19,0.29c0.11,0.13,0.23,0.24,0.39,0.29
			s0.35,0.03,0.46-0.1c0.11-0.12,0.11-0.32,0.04-0.47c-0.07-0.15-0.2-0.26-0.34-0.35c-0.11-0.07-0.22-0.13-0.35-0.15
			C91.35,7.58,91.2,7.55,91.06,7.75"/>
		<path class="st1" d="M91.9,6.1c-0.22,0.01-0.36,0.22-0.39,0.38c-0.03,0.17,0.01,0.34,0.07,0.5c0.05,0.12,0.11,0.24,0.19,0.34
			c0.08,0.1,0.19,0.18,0.32,0.22c0.08,0.03,0.17,0.04,0.25,0.01c0.13-0.05,0.2-0.19,0.23-0.32c0.06-0.26,0.02-0.55-0.12-0.78
			c-0.06-0.1-0.13-0.19-0.23-0.26C92.13,6.14,92.01,6.1,91.9,6.1z"/>
		<path class="st1" d="M94.5,6.29c0.1,0.06,0.18,0.15,0.23,0.26c0.05,0.11,0.07,0.22,0.08,0.34c0.02,0.16,0.01,0.34-0.06,0.49
			c-0.07,0.15-0.22,0.27-0.39,0.26c-0.17-0.01-0.31-0.14-0.36-0.3C93.93,7.17,93.95,7,93.98,6.84c0.02-0.13,0.06-0.25,0.13-0.36
			C94.18,6.38,94.27,6.25,94.5,6.29"/>
		<path class="st1" d="M92.74,5.75c0.16-0.15,0.4-0.11,0.54-0.01c0.14,0.09,0.24,0.24,0.31,0.4c0.05,0.12,0.1,0.24,0.11,0.37
			c0.01,0.13,0,0.26-0.06,0.38c-0.04,0.08-0.09,0.15-0.17,0.19c-0.12,0.06-0.27,0.01-0.39-0.06c-0.23-0.14-0.4-0.37-0.48-0.63
			c-0.03-0.11-0.04-0.23-0.03-0.34C92.6,5.93,92.65,5.82,92.74,5.75z"/>
	</g>
</g>
</svg>
