<?xml version="1.0" encoding="utf-8"?>
<!-- Generator: Adobe Illustrator 26.3.0, SVG Export Plug-In . SVG Version: 6.00 Build 0)  -->
<svg version="1.1" xmlns="http://www.w3.org/2000/svg" xmlns:xlink="http://www.w3.org/1999/xlink" x="0px" y="0px"
	 viewBox="0 0 287.12 206.59" style="enable-background:new 0 0 287.12 206.59;" xml:space="preserve">
<style type="text/css">
	.st0{display:none;}
	.st1{display:inline;}
	.st2{fill:#FDAD8D;}
</style>
<g id="Слой_1">
</g>
<g id="Layer_2" class="st0">
	<g class="st1">
		<g>
			<path class="st2" d="M286.01,100.9c-22.02-47.95-79.23-80.13-142.46-80.13h-0.29C80.21,20.88,23.07,53.06,1.11,100.9L0,103.29
				l1.11,2.42c22.02,47.95,79.23,80.12,142.46,80.12h0.29c63.07-0.1,120.19-32.28,142.15-80.12l1.11-2.42L286.01,100.9z
				 M143.84,174.31h-0.27c-57.72,0-109.87-28.41-130.84-71.02C33.65,60.8,85.7,32.37,143.28,32.28h0.29
				c57.7,0,109.87,28.43,130.84,71.02C253.47,145.81,201.42,174.24,143.84,174.31z"/>
		</g>
		<g>
			<path class="st2" d="M143.78,97.53c5.72-0.06,11.16,1.18,15,5.6c4.02,4.62,5.29,11.1,9.1,15.89c2.92,3.66,7.2,6.17,9.65,10.16
				c3.77,6.14,1.99,14.75-3.21,19.74s-13.08,6.57-20.15,5.15c-4.73-0.95-9.25-3.11-14.07-3.17c-5.12-0.06-10.01,2.27-15.13,2.41
				c-5.5,0.15-11.01-2.42-14.42-6.73c-3.42-4.31-4.67-10.26-3.28-15.58c1.46-5.59,5.54-10.12,9.89-13.91
				c4.36-3.8,9.16-7.14,12.88-11.57c1.85-2.2,3.44-4.68,5.69-6.47C138,97.25,141.03,97.27,143.78,97.53z"/>
			<path class="st2" d="M194.71,87.97c1.83,2.57,2.57,5.8,2.5,8.95s-0.9,6.24-1.98,9.21c-1.53,4.22-3.67,8.39-7.18,11.2
				c-3.51,2.81-8.63,3.95-12.59,1.83c-3.98-2.14-5.86-7.08-5.44-11.58c0.42-4.5,2.74-8.61,5.41-12.25c2.06-2.81,4.43-5.49,7.46-7.22
				C185.93,86.39,189.52,84.32,194.71,87.97"/>
			<path class="st2" d="M157.89,53.91c5.74-1.75,11.09,2.13,13.5,6.14c2.41,4.01,3.05,8.85,2.97,13.53
				c-0.06,3.55-0.52,7.11-1.72,10.45c-1.2,3.34-3.17,6.45-5.92,8.68c-1.82,1.48-4.06,2.58-6.41,2.53c-3.73-0.08-6.8-3-8.84-6.12
				c-4-6.11-5.57-13.76-4.3-20.95c0.54-3.08,1.6-6.1,3.39-8.67C152.35,56.93,154.9,54.84,157.89,53.91z"/>
			<path class="st2" d="M93.28,83.28c-2.06,2.39-3.1,5.54-3.32,8.68c-0.22,3.15,0.32,6.3,1.12,9.35c1.14,4.35,2.88,8.7,6.11,11.82
				c3.23,3.12,8.23,4.73,12.36,2.98c4.16-1.76,6.49-6.51,6.48-11.03c0-4.52-1.93-8.82-4.26-12.7c-1.79-2.99-3.9-5.88-6.76-7.87
				C102.16,82.51,98.78,80.13,93.28,83.28"/>
			<path class="st2" d="M133.08,52.76c-5.56-2.27-11.24,1.09-14.01,4.87c-2.77,3.77-3.86,8.53-4.2,13.2
				c-0.26,3.54-0.14,7.13,0.75,10.57c0.89,3.43,2.56,6.71,5.1,9.19c1.68,1.64,3.81,2.94,6.15,3.11c3.72,0.26,7.05-2.36,9.37-5.28
				c4.54-5.72,6.81-13.19,6.21-20.47c-0.26-3.12-1.03-6.23-2.58-8.94C138.32,56.28,135.97,53.97,133.08,52.76z"/>
		</g>
	</g>
</g>
<g id="Layer_3">
	<g>
		<g>
			<path class="st2" d="M77.59,161.14l-8.71,8.7c3.74,1.73,7.6,3.32,11.52,4.78l9-9C85.36,164.26,81.43,162.79,77.59,161.14z
				 M286.02,100.89c-11.69-25.45-33.3-46.47-60.46-60.59l-8.54,8.56c25.55,12.48,46.05,31.38,57.39,54.43
				c-20.92,42.51-72.99,70.94-130.58,71.02h-0.27c-15.87,0-31.32-2.15-45.83-6.16l-9.25,9.23c17.27,5.49,35.91,8.45,55.09,8.45h0.29
				c63.07-0.1,120.19-32.28,142.17-80.12l1.09-2.42L286.02,100.89z M143.56,20.75h-0.29C80.2,20.87,23.08,53.05,1.1,100.89
				l-1.09,2.4l1.09,2.42c11.69,25.45,33.32,46.47,60.48,60.58l8.52-8.54c-25.55-12.5-46.05-31.4-57.39-54.45
				c20.92-42.5,72.99-70.92,130.58-71.02h0.27c15.89,0,31.34,2.15,45.85,6.16l9.23-9.23C181.37,23.71,162.74,20.75,143.56,20.75z
				 M206.73,31.98l-8.98,8.98c4.03,1.34,7.96,2.84,11.8,4.47l8.7-8.69C214.5,35.01,210.64,33.42,206.73,31.98z"/>
			<g>
				<path class="st2" d="M245.15,9.83l-26.91,26.91L190.18,64.8l-6.47,6.47l-1.7,1.71l-16.76,16.76l-4.65,4.65l-43.33,43.34
					l-4.02,4.02l-8.19,8.18L89.4,165.61l-9.01,9L50.11,204.9c-1.14,1.11-2.62,1.69-4.07,1.69c-1.48,0-2.96-0.58-4.07-1.69
					c-2.27-2.25-2.27-5.9,0-8.14l26.91-26.93l8.71-8.69l27.52-27.53l53.26-53.27l78.65-78.65c1.13-1.13,2.61-1.69,4.06-1.69
					c1.48,0,2.96,0.56,4.07,1.69C247.42,3.94,247.42,7.58,245.15,9.83z"/>
				<path class="st2" d="M139.68,89.14c2.33-0.88,4.38-2.73,5.97-4.73c0.94-1.19,1.78-2.45,2.52-3.77L139.68,89.14z M245.15,1.69
					C244.04,0.56,242.56,0,241.08,0c-1.45,0-2.93,0.56-4.06,1.69l-78.65,78.65l-53.26,53.27l-27.52,27.53l-8.71,8.69l-26.91,26.93
					c-2.27,2.24-2.27,5.89,0,8.14c1.11,1.11,2.59,1.69,4.07,1.69c1.45,0,2.93-0.58,4.07-1.69l30.28-30.29l9.01-9l15.66-15.68
					l8.19-8.18l4.02-4.02l43.33-43.34l4.65-4.65l16.76-16.76l1.7-1.71l6.47-6.47l28.06-28.06l26.91-26.91
					C247.42,7.58,247.42,3.94,245.15,1.69z"/>
			</g>
		</g>
		<g>
			<path class="st2" d="M160.6,94.39l-43.33,43.34c-1.26-3.41-1.5-7.21-0.57-10.73c1.46-5.59,5.53-10.12,9.89-13.92
				c4.36-3.8,9.16-7.14,12.88-11.56c1.85-2.21,3.44-4.68,5.69-6.48c2.26-1.79,5.29-1.77,8.04-1.51
				C155.77,93.5,158.27,93.73,160.6,94.39z"/>
			<path class="st2" d="M183.75,144.91c-5.2,4.99-13.09,6.57-20.15,5.15c-4.73-0.94-9.25-3.11-14.08-3.16
				c-5.11-0.06-10.01,2.27-15.12,2.4c-4.94,0.13-9.89-1.93-13.32-5.48L167,97.89c0.42,0.37,0.82,0.79,1.21,1.23
				c4.02,4.62,5.28,11.1,9.09,15.89c2.92,3.67,7.2,6.17,9.65,10.16C190.73,131.31,188.94,139.92,183.75,144.91z"/>
			<path class="st2" d="M204.12,83.97c1.83,2.57,2.57,5.8,2.5,8.95c-0.07,3.15-0.9,6.24-1.98,9.21c-1.53,4.22-3.67,8.39-7.18,11.2
				c-3.51,2.81-8.63,3.95-12.59,1.83c-3.98-2.14-5.86-7.08-5.44-11.58c0.42-4.5,2.74-8.61,5.41-12.25c2.06-2.81,4.43-5.49,7.46-7.22
				C195.35,82.38,198.94,80.32,204.12,83.97L204.12,83.97z"/>
			<path class="st2" d="M168.92,59.89l-12.57,12.58c-0.32-2.76-0.25-5.57,0.23-8.31c0.55-3.08,1.61-6.1,3.4-8.67
				c1.79-2.56,4.34-4.65,7.33-5.58c3.57-1.09,6.99,0,9.64,1.95L168.92,59.89z"/>
			<path class="st2" d="M183.78,69.57c-0.01,0.57-0.03,1.13-0.07,1.7l-1.7,1.71l-16.76,16.76c-1.74-1.17-3.21-2.87-4.37-4.63
				c-0.98-1.51-1.82-3.1-2.51-4.77l23.09-23.09C183.34,61,183.85,65.36,183.78,69.57z"/>
			<path class="st2" d="M125.46,101.08c0,0.83-0.08,1.68-0.23,2.51l-9.22,9.22c-3.38,0.23-6.91-1.28-9.4-3.68
				c-3.23-3.12-4.98-7.47-6.11-11.81c-0.8-3.05-1.34-6.21-1.12-9.35c0.22-3.15,1.25-6.3,3.32-8.69c5.5-3.16,8.88-0.77,11.74,1.23
				c2.85,1.99,4.96,4.88,6.76,7.87C123.52,92.26,125.45,96.56,125.46,101.08z"/>
			<path class="st2" d="M148.17,80.64c-0.74,1.32-1.58,2.58-2.52,3.77c-1.59,2-3.64,3.85-5.97,4.73c0,0,0,0.01-0.01,0.01
				c-1.07,0.42-2.21,0.62-3.39,0.54c-2.34-0.16-4.47-1.47-6.15-3.11c-2.54-2.48-4.21-5.75-5.1-9.19c-0.88-3.43-1.01-7.03-0.75-10.57
				c0.35-4.66,1.44-9.42,4.21-13.19c2.76-3.77,8.45-7.14,14.01-4.87c2.88,1.2,5.24,3.52,6.78,6.24c1.55,2.72,2.32,5.82,2.58,8.94
				C152.34,69.71,151.01,75.6,148.17,80.64z"/>
		</g>
	</g>
</g>
</svg>
