<?xml version="1.0" encoding="utf-8"?>
<!-- Generator: Adobe Illustrator 26.3.0, SVG Export Plug-In . SVG Version: 6.00 Build 0)  -->
<svg version="1.1" xmlns="http://www.w3.org/2000/svg" xmlns:xlink="http://www.w3.org/1999/xlink" x="0px" y="0px"
	 viewBox="0 0 1920 1080" style="enable-background:new 0 0 1920 1080;" xml:space="preserve">
<style type="text/css">
	.st0{fill:none;stroke:#F7B385;stroke-width:3;stroke-linecap:round;stroke-linejoin:round;}
	.st1{fill:none;stroke:#F7B385;stroke-width:3;stroke-linecap:round;stroke-linejoin:round;stroke-dasharray:11.8982,11.8982;}
	.st2{fill:none;stroke:#F7B385;stroke-width:3;stroke-linecap:round;stroke-linejoin:round;stroke-dasharray:12.2052,12.2052;}
	.st3{fill:#FDAD8D;}
	.st4{fill:#7F5A57;}
	.st5{fill:#4F2D27;}
	.st6{fill:#FDF0DC;}
	.st7{fill:#FCCAA4;}
	.st8{fill:#F79778;}
	.st9{fill:#F7B385;}
</style>
<g id="Layer_2">
	<g>
		<g>
			<path class="st0" d="M0,143c-0.15,1.99-0.28,3.99-0.37,5.99"/>
			<path class="st1" d="M-0.56,160.89c0.55,34.95,11.23,68.79,39.57,89.48c26.36,19.25,65.97,16.66,87.87,40.87
				c20.44,22.6,15.68,58.57,2.47,86.02c-13.22,27.45-33.5,51.65-42.19,80.85c-16.2,54.45,11.1,111.33,37.22,161.78
				c26.12,50.45,52.5,108.11,34.55,162.01c-19.34,58.07-83.5,90.18-109.73,145.47c-11.67,24.6-15.06,52.31-24.96,77.66
				c-3.52,9.01-8.27,17.93-14.14,25.83"/>
			<path class="st0" d="M6.38,1035.53c-1.3,1.53-2.65,3.01-4.04,4.43"/>
		</g>
	</g>
	<g>
		<g>
			<path class="st0" d="M0.63,285.86c1.05,1.7,2.12,3.4,3.21,5.07"/>
			<path class="st2" d="M10.75,300.99c7.45,10.24,15.73,19.87,24.77,28.73c39.41,38.63,93.97,65.13,116.47,115.52
				c22.92,51.32,5.09,110.92-15.14,163.35c-36.66,94.98-80.75,187.1-131.71,275.23"/>
			<path class="st0" d="M2.07,889.11c-1.01,1.73-2.02,3.45-3.03,5.18"/>
		</g>
	</g>
</g>
<g id="Layer_1">
	<g>
		<g>
			<g>
				<path class="st3" d="M89.42,357.88c-3.14-5.4-5.8-11.03-7.53-17.08l-0.03-0.54c-2.8,0.15-5.59,0.31-8.39,0.46l-2.43-0.16
					c-0.56,0.28-1.29,0.27-1.87-0.01c-0.17-0.08-0.32-0.18-0.45-0.31c-0.08-0.07-0.15-0.16-0.22-0.25
					c-0.77-1.06-0.38-2.67,0.63-3.49c-1.18,0.51-2.67,0.18-3.53-0.78c-0.86-0.96-1.02-2.48-0.38-3.6c-1.1,0.17-2.28-0.33-2.93-1.24
					c-0.65-0.91-0.74-2.18-0.23-3.17c-1.25,0.46-2.77,0.02-3.58-1.03c-0.81-1.06-0.85-2.64-0.08-3.73
					c-1.52,0.11-3.19,0.05-4.34-0.95c-1.13-0.97-1.23-3.12,0.07-3.77l-0.74-2.06c-1.1,0.41-2.47-0.26-2.84-1.37
					c-0.36-1.11,0.35-2.46,1.47-2.79c-0.89,0.2-1.88-0.28-2.27-1.09c-0.39-0.82-0.14-1.9,0.57-2.46c-1.13-0.12-2.32-0.51-2.95-1.45
					c-0.64-0.94-0.37-2.49,0.71-2.84c-1.11-0.2-2.26-0.71-2.77-1.72c-0.51-1-0.01-2.52,1.11-2.66c-0.8-0.09-1.62-0.19-2.34-0.55
					c-0.72-0.36-1.33-1.04-1.39-1.84c-0.05-0.6,0.31-1.24,0.83-1.5l-0.06-2.37c-1.26-0.24-2.3-1.34-2.47-2.61
					c-0.17-1.27,0.55-2.61,1.7-3.17c-1.15,0.13-2.31-0.81-2.43-1.96c-0.12-1.15,0.83-2.3,1.98-2.41c-1.1-0.51-2.01-1.57-2.09-2.78
					c-0.08-1.09,0.63-2.22,1.64-2.54c-0.77,0.04-1.55-0.65-1.67-1.44c-0.14-0.93,0.39-1.86,1.1-2.46c0.71-0.61,1.6-0.98,2.44-1.4
					c1.83-0.92,3.5-2.14,4.95-3.59l-1.33-1.26c-0.48-0.27-0.97-0.49-1.47-0.64c-0.14-0.05-0.28-0.09-0.42-0.13
					c-4.88-1.31-10.6,2.05-12.97,6.76c-2.67,5.34-2.17,11.68-1.25,17.59c2.95,18.98,10.37,38.52,25.98,49.7
					c1.98,1.42,4.08,2.68,6.15,3.98c0.33,0.21,0.67,0.42,1,0.62c2.32,1.47,4.58,3,6.61,4.84c5.93,5.4,9.3,12.99,12.5,20.34
					c4.74,10.87,9.47,21.73,14.21,32.6c0.65,1.49,1.3,2.98,1.95,4.47c2.04,4.67,5.11,10.08,10.21,10.19
					c4.23,0.09,7.65-3.97,8.22-8.16c0.57-4.19-1.01-8.36-2.85-12.17C108.25,383.67,97.31,371.46,89.42,357.88z M114.45,403.01
					c0.38,1.1,0.65,2.27,0.5,3.42c-0.15,1.16-0.79,2.3-1.84,2.81c-0.87,0.43-1.92,0.39-2.83,0.04c-0.9-0.35-1.68-0.97-2.36-1.67
					c-2.72-2.77-4.07-6.82-3.56-10.67l0.5-0.87c0.58-0.92,1.84-1.25,2.9-1c1.06,0.24,1.96,0.95,2.74,1.71
					C112.26,398.53,113.63,400.67,114.45,403.01z"/>
			</g>
		</g>
		<g>
			<path class="st4" d="M83.95,297.74c1.25,0.18,2.5,0.85,3.07,1.98c0.57,1.13,0.26,2.72-0.85,3.33c0.75,0.1,1.5,0.38,2.01,0.93
				c0.51,0.55,0.74,1.4,0.41,2.08c-0.18,0.37-0.55,0.64-0.95,0.73l0.59,3.32c0.91,0.3,1.63,1.13,1.8,2.08
				c0.17,0.95-0.22,1.97-0.98,2.56c1.26,0.12,2.39,1.1,2.68,2.33c0.3,1.23-0.27,2.62-1.33,3.3c1.02,0.62,1.58,1.91,1.33,3.07
				c-0.24,1.17-1.28,2.13-2.46,2.28c1.45,1.63,0.57,4.66-1.52,5.27c1.13,0.57,1.33,2.23,0.68,3.32c-0.65,1.09-1.86,1.71-3.06,2.11
				c0.8-0.02,1.42,0.86,1.31,1.65c-0.11,0.79-0.76,1.42-1.49,1.73c-0.73,0.31-1.55,0.36-2.35,0.4c-0.33,0.02-0.66,0.04-0.99,0.05
				c-2.8,0.15-5.59,0.31-8.39,0.46l-2.43-0.16c-0.56,0.28-1.29,0.27-1.87-0.01c-0.17-0.08-0.32-0.18-0.45-0.31
				c-0.08-0.07-0.15-0.16-0.22-0.25c-0.77-1.06-0.38-2.67,0.63-3.49c-1.18,0.51-2.67,0.18-3.53-0.78c-0.86-0.96-1.02-2.48-0.38-3.6
				c-1.1,0.17-2.28-0.33-2.93-1.24c-0.65-0.91-0.74-2.18-0.23-3.17c-1.25,0.46-2.77,0.02-3.58-1.03c-0.81-1.06-0.85-2.64-0.08-3.73
				c-1.52,0.11-3.19,0.05-4.34-0.95c-1.13-0.97-1.23-3.12,0.07-3.77l-0.74-2.06c-1.1,0.41-2.47-0.26-2.84-1.37
				c-0.36-1.11,0.35-2.46,1.47-2.79c-0.89,0.2-1.88-0.28-2.27-1.09c-0.39-0.82-0.14-1.9,0.57-2.46c-1.13-0.12-2.32-0.51-2.95-1.45
				c-0.64-0.94-0.37-2.49,0.71-2.84c-1.11-0.2-2.26-0.71-2.77-1.72c-0.51-1-0.01-2.52,1.11-2.66c-0.8-0.09-1.62-0.19-2.34-0.55
				c-0.72-0.36-1.33-1.04-1.39-1.84c-0.05-0.6,0.31-1.24,0.83-1.5l-0.06-2.37c-1.26-0.24-2.3-1.34-2.47-2.61
				c-0.17-1.27,0.55-2.61,1.7-3.17c-1.15,0.13-2.31-0.81-2.43-1.96c-0.12-1.15,0.83-2.3,1.98-2.41c-1.1-0.51-2.01-1.57-2.09-2.78
				c-0.08-1.09,0.63-2.22,1.64-2.54c0.12-0.01,0.25-0.03,0.37-0.08c-0.13,0.02-0.25,0.04-0.37,0.08c-0.77,0.04-1.55-0.65-1.67-1.44
				c-0.14-0.93,0.39-1.86,1.1-2.46c0.71-0.61,1.6-0.98,2.44-1.4c1.83-0.92,3.5-2.14,4.95-3.59c0.48-0.48,0.94-0.99,1.37-1.52
				c0.69-0.86,1.31-1.78,2.14-2.5c0.83-0.73,1.91-1.25,3-1.1c1.09,0.15,2.09,1.13,1.98,2.23c0.31-1.44,2.42-1.77,3.6-0.91
				c1.19,0.87,1.66,2.39,2.06,3.8c0.03-0.89,1.09-1.51,1.96-1.29c0.87,0.21,1.49,1.03,1.72,1.9c0.23,0.87,0.14,1.78,0.05,2.67
				l2.44,1.34c0.68-0.64,1.81-0.78,2.6-0.27c0.89,0.58,1.2,1.9,0.65,2.82c1.07-0.79,2.71,0.08,3.18,1.33
				c0.47,1.24,0.14,2.63-0.19,3.92c0.99-0.56,2.38-0.27,3.07,0.63c0.69,0.9,0.6,2.32-0.2,3.13c0.99-0.03,2.09,0.22,2.64,1.05
				c0.45,0.69,0.19,1.78-0.48,2.12l1.5,2.56c1.46,0.16,2.78,1.22,3.26,2.62C85.41,295.07,85.01,296.72,83.95,297.74z"/>
		</g>
		<g>
			<g>
				<path class="st5" d="M47.62,267.39c-3.03-1.72-6.66-1.49-9.71,0.06c-3.37,1.7-5.82,4.66-7.06,8.2
					c-1.43,4.06-1.41,8.46-0.97,12.69c0.48,4.62,1.39,9.22,2.51,13.73c2.25,9.05,5.66,17.94,10.85,25.74
					c2.57,3.85,5.53,7.43,8.98,10.54c3.56,3.21,7.58,5.66,11.61,8.21c2.08,1.31,4.14,2.68,6,4.3c1.89,1.65,3.54,3.54,5,5.58
					c2.94,4.09,5.06,8.72,7.08,13.31c4.42,10.05,8.79,20.12,13.15,30.19c1.1,2.54,2.21,5.09,3.32,7.63c0.79,1.8,1.59,3.59,2.61,5.27
					c1.87,3.06,4.54,5.97,8.32,6.3c4.05,0.36,7.41-2.65,8.91-6.18c1.77-4.16,0.65-8.88-1-12.88c-1.91-4.62-4.49-9-7.16-13.21
					c-2.75-4.35-5.72-8.56-8.69-12.76c-5.92-8.39-11.91-16.84-15.95-26.33c-0.99-2.33-1.85-4.71-2.55-7.14
					c-0.35-1.2-2.27-0.83-1.92,0.38c5.54,19.3,19.99,33.91,29.89,50.91c2.32,3.99,4.79,8.25,5.86,12.78
					c0.92,3.87,0.48,8.14-2.65,10.91c-1.4,1.24-3.17,1.91-5.04,1.65c-1.61-0.22-3.02-1.17-4.14-2.3c-2.78-2.84-4.21-6.73-5.77-10.31
					c-4.21-9.67-8.44-19.33-12.65-28.99c-3.83-8.78-7.31-18.48-14.42-25.22c-3.43-3.25-7.55-5.55-11.5-8.07
					c-3.77-2.41-7.23-5.19-10.27-8.48c-6.14-6.64-10.44-14.77-13.45-23.25c-1.51-4.24-2.68-8.6-3.6-13.01
					c-0.9-4.27-1.74-8.65-1.91-13.02c-0.15-4.01,0.31-8.33,2.63-11.72c1.87-2.74,4.94-4.82,8.26-5.26c1.63-0.22,3.3,0.05,4.75,0.82
					C47.64,268.82,48.33,267.79,47.62,267.39L47.62,267.39z"/>
			</g>
		</g>
		<g>
			<g>
				<path class="st5" d="M92.09,376.65c0.21,1.84,0.74,3.65,1.17,5.45c0.43,1.81,0.86,3.63,1.3,5.43c0.88,3.59,1.84,7.15,3.05,10.64
					c2,5.74,4.94,13.26,11.38,15.16c2.99,0.88,6.48,0.41,8.67-1.97c0.78-0.85-0.42-2.22-1.22-1.35c-1.73,1.89-4.47,2.27-6.87,1.58
					c-2.78-0.79-4.88-3.05-6.36-5.43c-3.51-5.66-5.23-12.42-6.81-18.83c-0.46-1.86-0.9-3.72-1.35-5.58
					c-0.45-1.87-0.85-3.79-1.6-5.56C93.12,375.39,92,375.88,92.09,376.65L92.09,376.65z"/>
			</g>
		</g>
		<g>
			<g>
				<path class="st5" d="M45.55,266.94c-6.92,0.79-10.33,8.46-11.21,14.53c-0.97,6.7,0.42,13.46,2.65,19.77
					c2.34,6.64,5.59,12.99,8.97,19.15c3.6,6.58,7.77,12.96,13.33,18.06c3.06,2.81,6.53,5.04,10.07,7.19
					c3.52,2.14,7.08,4.25,10.12,7.06c0.85,0.79,2.21-0.42,1.35-1.22c-2.6-2.4-5.53-4.38-8.53-6.24c-2.93-1.82-6-3.5-8.73-5.63
					c-5.79-4.51-10.22-10.23-13.94-16.51c-3.54-5.97-6.75-12.25-9.42-18.65c-2.48-5.95-4.4-12.32-4.34-18.82
					c0.07-6.75,2.52-15.4,9.96-17.28C46.75,268.13,46.47,266.83,45.55,266.94L45.55,266.94z"/>
			</g>
		</g>
		<g>
			<g>
				<path class="st5" d="M103.85,396.78c-0.13,0.66-0.35,1.29-0.38,1.97c-0.03,0.68,0.04,1.39,0.14,2.06
					c0.21,1.41,0.64,2.83,1.28,4.11c1.21,2.41,3.42,5.16,6.27,5.52c3.09,0.39,4.99-2.44,4.78-5.26c-0.23-3.09-2.03-6.22-4.08-8.47
					c-1.09-1.19-2.4-2.36-4.04-2.67c-1.55-0.29-3.14,0.29-3.83,1.75c-0.39,0.83,0.86,1.58,1.47,0.96c1.7-1.7,3.71,0.09,4.95,1.45
					c1.59,1.75,2.93,3.97,3.44,6.29c0.44,2.01-0.37,4.74-2.95,4.03c-2.04-0.56-3.56-2.75-4.47-4.53c-0.53-1.04-0.93-2.13-1.16-3.27
					c-0.24-1.17-0.44-2.55-0.39-3.74C104.92,396.4,103.98,396.16,103.85,396.78L103.85,396.78z"/>
			</g>
		</g>
		<g>
			<g>
				<path class="st5" d="M73.44,341.31c1.92,0.16,3.87,0.03,5.8-0.03c0.97-0.03,1.94-0.08,2.91-0.13c0.88-0.04,1.8-0.04,2.66-0.25
					c1.29-0.33,2.58-1.23,2.78-2.64c0.19-1.36-0.76-2.66-2.15-2.77c0.04,0.62,0.08,1.24,0.12,1.87c1.63-0.56,3.31-1.41,3.97-3.12
					c0.55-1.43,0.14-3.26-1.24-4.05c-0.03,0.56-0.06,1.12-0.1,1.68c2.62-0.9,3.65-4.66,1.69-6.68c-0.15,0.45-0.3,0.9-0.45,1.35
					c3.27-0.7,4.25-4.89,1.39-6.8c0.03,0.41,0.06,0.81,0.09,1.22c1.27-0.89,1.96-2.61,1.58-4.13c-0.4-1.6-1.81-2.68-3.4-2.9
					c0.17,0.48,0.34,0.97,0.5,1.45c2.09-1.8,1.46-5.12-1.1-6.11c-1.07-0.41-1.63,1.28-0.56,1.69c1.41,0.54,1.67,2.2,0.54,3.18
					c-0.57,0.5-0.18,1.36,0.5,1.45c0.95,0.13,1.73,0.83,1.97,1.76c0.25,0.99-0.28,1.9-1.07,2.46c-0.42,0.29-0.27,0.97,0.09,1.22
					c1.67,1.12,1.15,3.64-0.86,3.9c-0.69,0.09-0.77,0.88-0.45,1.35c0.82,1.19,0.35,3.3-1.1,3.77c-0.74,0.24-1.14,1.29-0.34,1.76
					c0.74,0.44,0.78,1.4,0.35,2.09c-0.56,0.9-1.67,1.34-2.62,1.68c-0.91,0.33-0.51,1.73,0.36,1.78c1.03,0.06,0.08,1.31-0.33,1.53
					c-1.09,0.59-2.66,0.45-3.86,0.52c-2.58,0.15-5.23,0.23-7.77,0.74C72.71,340.28,72.78,341.25,73.44,341.31L73.44,341.31z"/>
			</g>
		</g>
		<g>
			<g>
				<path class="st5" d="M86.43,307.03c1.22,0.91,2.87-0.05,3.08-1.46c0.29-2.01-1.57-3.13-3.28-3.41c0.11,0.56,0.23,1.13,0.34,1.69
					c1.44-0.89,1.99-2.64,1.38-4.22c-0.63-1.65-2.29-2.51-3.94-2.79c0.18,0.52,0.36,1.04,0.54,1.57c1.29-1.32,1.79-3.23,1.19-5
					c-0.56-1.64-2.21-3.14-4.01-3.16c-0.89-0.01-1.26,1.34-0.31,1.6c1.15,0.32,2.21,0.81,2.66,2c0.42,1.11,0.07,2.39-0.74,3.22
					c-0.57,0.58-0.23,1.44,0.54,1.57c0.88,0.15,1.8,0.58,2.27,1.38c0.4,0.69,0.33,1.77-0.39,2.23c-0.76,0.48-0.56,1.55,0.34,1.69
					c0.7,0.11,1.53,0.45,1.79,1.18c0.24,0.71-0.33,1.38-1.06,1.05C86.33,305.94,86.02,306.72,86.43,307.03L86.43,307.03z"/>
			</g>
		</g>
		<g>
			<g>
				<path class="st5" d="M79.68,289.14c1.36,0.06,2.19-1.38,1.89-2.62c-0.37-1.51-2.13-2.01-3.49-2.02
					c0.17,0.49,0.34,0.97,0.51,1.46c1.03-1.14,1.28-2.83,0.38-4.14c-0.93-1.35-2.76-1.7-4.19-0.99c0.39,0.34,0.78,0.68,1.17,1.01
					c0.43-1.68,0.87-3.67-0.22-5.21c-0.86-1.21-2.6-1.91-3.93-1.05c0.36,0.4,0.72,0.8,1.07,1.2c0.7-1.34,0.44-3.1-0.89-3.97
					c-1.33-0.87-3.05-0.4-3.99,0.79c-0.67,0.84,0.73,1.74,1.4,0.91c0.93-1.17,2.79,0.03,2.09,1.36c-0.34,0.65,0.3,1.7,1.07,1.2
					c0.78-0.5,1.71,0.09,2.02,0.88c0.42,1.06,0.07,2.31-0.2,3.36c-0.18,0.68,0.49,1.35,1.17,1.01c1.52-0.75,3.13,1.05,1.94,2.39
					c-0.42,0.48-0.29,1.47,0.51,1.46c0.6-0.01,1.3,0.01,1.79,0.41c0.47,0.38,0.61,1.35-0.15,1.49
					C79.02,288.18,79.07,289.11,79.68,289.14L79.68,289.14z"/>
			</g>
		</g>
		<g>
			<g>
				<path class="st5" d="M66.98,272.61c0.44-1.85,0.57-4.09-1.29-5.25c-1.51-0.94-3.58-0.06-3.79,1.74c0.57-0.04,1.13-0.07,1.7-0.11
					c-0.56-1.92-1.25-4.22-3.41-4.86c-1.61-0.48-3.4,0.19-3.94,1.85c0.58,0.11,1.15,0.23,1.73,0.34c0.08-1.23-0.66-2.32-1.74-2.86
					c-1.11-0.55-2.4-0.4-3.48,0.14c-1.2,0.6-2.07,1.63-2.88,2.67c-0.93,1.18-1.95,2.29-3.1,3.27c-1.16,0.99-2.44,1.8-3.81,2.49
					c-1.19,0.59-2.42,1.18-3.19,2.32c-0.65,0.96-0.88,2.22-0.32,3.27c0.56,1.04,1.73,1.59,2.87,1.29c1.16-0.31,0.83-1.99-0.36-1.83
					c-1.54,0.21-2.66,1.65-2.76,3.16c-0.11,1.69,1.07,3.2,2.52,3.92c0.11-0.55,0.21-1.09,0.32-1.64c-1.58,0.25-2.84,1.73-2.68,3.35
					c0.16,1.61,1.65,2.85,3.26,2.76c-0.11-0.55-0.22-1.1-0.33-1.65c-1.46,0.77-2.39,2.34-2.2,4.01c0.18,1.64,1.49,3.03,3.08,3.4
					c1.12,0.26,1.7-1.44,0.57-1.71c-2.02-0.47-2.58-3.1-0.67-4.15c0.91-0.5,0.39-1.7-0.56-1.63c-0.66,0.04-1.36-0.6-1.39-1.24
					c-0.03-0.74,0.6-1.29,1.27-1.38c0.74-0.1,1.02-1.28,0.32-1.64c-0.81-0.41-1.6-1.1-1.66-2.08c-0.05-0.81,0.48-1.5,1.27-1.66
					c-0.12-0.61-0.24-1.22-0.36-1.83c-0.79,0.26-1.05-0.71-0.82-1.29c0.32-0.82,1.17-1.3,1.91-1.68c1.86-0.96,3.63-1.95,5.23-3.33
					c1.54-1.33,2.57-3.01,3.95-4.48c0.61-0.65,1.38-1.28,2.3-1.37c0.79-0.08,1.67,0.41,1.67,1.28c0,0.94,1.49,1.38,1.73,0.34
					c0.19-0.86,1.38-0.92,2.04-0.58c1.14,0.58,1.62,2.24,1.94,3.37c0.26,0.93,1.58,0.88,1.7-0.11c0.12-0.96,1.39-0.36,1.72,0.09
					c0.61,0.83,0.59,2.12,0.62,3.1C65.98,272.96,66.83,273.24,66.98,272.61L66.98,272.61z"/>
			</g>
		</g>
		<g>
			<g>
				<path class="st5" d="M44.27,295.21c-1.61-0.35-2.67,1.37-2.25,2.82c0.55,1.91,2.63,2.42,4.35,2.65
					c-0.04-0.58-0.07-1.15-0.11-1.73c-1.53,0.3-2.33,1.92-1.95,3.38c0.41,1.58,2.01,2.42,3.49,2.71c-0.04-0.55-0.08-1.11-0.12-1.66
					c-1.41,0.58-1.86,2.33-1.3,3.67c0.64,1.53,2.37,2.13,3.89,2.31c-0.18-0.52-0.36-1.04-0.54-1.56c-2.25,2.01-0.47,5.59,2.47,5.1
					c-0.19-0.56-0.38-1.12-0.57-1.68c-1.52,0.54-2.44,2.33-1.92,3.88c0.52,1.54,2.31,2.42,3.85,1.94c1.06-0.33,0.75-2.04-0.34-1.72
					c-1.8,0.53-2.57-1.88-0.8-2.5c0.99-0.35,0.38-1.83-0.57-1.68c-1.22,0.2-1.83-1.21-0.93-2.01c0.59-0.54,0.21-1.47-0.54-1.56
					c-0.78-0.09-1.7-0.3-2.2-0.96c-0.4-0.53-0.35-1.36,0.3-1.63c0.68-0.28,0.64-1.51-0.12-1.66c-0.73-0.15-1.56-0.37-2.05-0.98
					c-0.38-0.47-0.47-1.51,0.28-1.7c0.96-0.23,0.89-1.64-0.11-1.73c-0.87-0.08-1.91-0.14-2.58-0.79c-0.59-0.58-0.57-1.48,0.3-1.76
					C44.69,296.22,44.94,295.35,44.27,295.21L44.27,295.21z"/>
			</g>
		</g>
		<g>
			<g>
				<path class="st5" d="M71.26,339.53c-0.4,0.63-1.53,0.59-2,0.05c-0.66-0.74-0.18-1.88,0.45-2.45c0.76-0.67-0.09-1.72-0.95-1.4
					c-1.91,0.73-3.75-1.32-2.81-3.14c0.35-0.67-0.12-1.4-0.89-1.31c-1.88,0.21-2.91-1.7-2.17-3.29c0.26-0.56-0.39-1.31-0.98-1.11
					c-2.14,0.7-4.07-1.47-2.79-3.46c0.43-0.67-0.18-1.34-0.87-1.29c-1.19,0.08-2.77,0.1-3.69-0.81c-0.6-0.59-0.84-1.93,0.05-2.37
					c0.97-0.48,0.22-1.98-0.75-1.5c-1.65,0.82-1.86,2.96-0.97,4.43c1.12,1.84,3.54,2.04,5.47,1.92c-0.22-0.43-0.44-0.87-0.65-1.3
					c-0.92,1.42-0.93,3.29,0.09,4.67c0.99,1.35,2.87,1.91,4.45,1.4c-0.33-0.37-0.65-0.74-0.98-1.11c-1.35,2.88,1.11,5.86,4.13,5.52
					c-0.3-0.44-0.59-0.87-0.89-1.31c-0.77,1.5-0.69,3.34,0.47,4.64c1.15,1.29,2.99,1.57,4.55,0.97c-0.32-0.47-0.63-0.93-0.95-1.4
					c-1.39,1.24-1.93,3.72-0.34,5.04c1.36,1.13,3.34,0.71,4.08-0.87C72.6,339.43,71.61,338.98,71.26,339.53L71.26,339.53z"/>
			</g>
		</g>
		<g>
			<g>
				<path class="st5" d="M70.25,335.46c1.79-0.11,3.58-0.29,5.36-0.43c0.86-0.07,1.73-0.12,2.59-0.17c0.43-0.02,0.87-0.04,1.3-0.06
					c0.5-0.02,1.04,0.03,1.49-0.21c0.58-0.31,0.48-1.1-0.1-1.34c-0.44-0.18-0.94-0.08-1.41-0.05c-0.46,0.03-0.93,0.06-1.39,0.1
					c-0.87,0.07-1.73,0.15-2.59,0.24c-1.79,0.18-3.57,0.41-5.33,0.79C69.57,334.47,69.59,335.5,70.25,335.46L70.25,335.46z"/>
			</g>
		</g>
		<g>
			<g>
				<path class="st5" d="M68.23,332.03c3.77-0.03,7.52-0.26,11.24-0.89c1.07-0.18,0.74-1.84-0.32-1.65
					c-3.58,0.65-7.21,1.2-10.84,1.43C67.61,330.97,67.5,332.04,68.23,332.03L68.23,332.03z"/>
			</g>
		</g>
		<g>
			<g>
				<path class="st5" d="M67.49,329.64c2.53-0.34,5.07-0.61,7.59-0.99c1.07-0.16,0.74-1.84-0.32-1.65
					c-2.51,0.46-4.99,1.03-7.49,1.53C66.55,328.68,66.77,329.74,67.49,329.64L67.49,329.64z"/>
			</g>
		</g>
		<g>
			<g>
				<path class="st5" d="M66.89,326.64c0.8-0.18,1.6-0.33,2.41-0.49c0.39-0.08,0.77-0.15,1.16-0.23c0.51-0.11,1-0.17,1.43-0.51
					c0.25-0.19,0.31-0.57,0.21-0.85c-0.11-0.32-0.37-0.49-0.7-0.54c-0.45-0.06-0.86,0.12-1.27,0.26c-0.43,0.14-0.85,0.29-1.28,0.43
					c-0.73,0.25-1.46,0.5-2.2,0.73c-0.31,0.1-0.55,0.37-0.48,0.72C66.23,326.48,66.56,326.71,66.89,326.64L66.89,326.64z"/>
			</g>
		</g>
		<g>
			<g>
				<path class="st5" d="M52.14,303.93c0.93-0.09,1.85-0.43,2.74-0.7c0.84-0.26,1.69-0.5,2.55-0.73c0.85-0.23,1.71-0.47,2.57-0.68
					c0.91-0.22,1.93-0.32,2.79-0.69c0.72-0.31,0.49-1.54-0.31-1.53c-0.93,0.01-1.9,0.36-2.8,0.6c-0.92,0.24-1.84,0.49-2.75,0.78
					c-0.91,0.29-1.81,0.6-2.7,0.93c-0.86,0.32-1.74,0.66-2.48,1.2C51.32,303.43,51.74,303.97,52.14,303.93L52.14,303.93z"/>
			</g>
		</g>
		<g>
			<g>
				<path class="st5" d="M51.17,301.44c1.69-0.53,3.35-1.18,5.01-1.81c1.66-0.64,3.36-1.24,4.98-1.99c0.4-0.19,0.56-0.71,0.36-1.09
					c-0.22-0.43-0.67-0.51-1.09-0.36c-1.65,0.58-3.25,1.33-4.85,2.02c-1.6,0.7-3.22,1.38-4.77,2.18
					C50.27,300.66,50.55,301.64,51.17,301.44L51.17,301.44z"/>
			</g>
		</g>
		<g>
			<g>
				<path class="st5" d="M52.76,297.76c0.99-0.38,2-0.75,3.02-1.06c0.5-0.15,1-0.3,1.5-0.43c0.6-0.16,1.4-0.19,1.78-0.74
					c0.22-0.32,0.14-0.9-0.23-1.08c-0.24-0.12-0.44-0.21-0.71-0.16c-0.12,0.02-0.24,0.07-0.35,0.1c-0.27,0.08-0.54,0.17-0.81,0.26
					c-0.56,0.19-1.13,0.39-1.67,0.62c-1.04,0.44-2.05,0.93-3.02,1.51C51.66,297.15,52.1,298.01,52.76,297.76L52.76,297.76z"/>
			</g>
		</g>
		<g>
			<g>
				<path class="st5" d="M50.52,295.08c1.45-0.67,2.91-1.31,4.35-2c0.41-0.2,0.62-0.76,0.39-1.17c-0.22-0.4-0.75-0.63-1.17-0.39
					c-1.39,0.79-2.75,1.63-4.13,2.44c-0.29,0.17-0.44,0.53-0.28,0.85C49.83,295.11,50.21,295.22,50.52,295.08L50.52,295.08z"/>
			</g>
		</g>
		<g>
			<g>
				<path class="st5" d="M56.95,267.88c-1.65-0.75-3.66,0.44-3.96,2.2c-0.31,1.81,1.25,3.53,3.06,3.52c-0.1-0.49-0.2-0.99-0.3-1.48
					c-1.39,0.79-2.24,2.33-1.9,3.96c0.34,1.62,1.78,2.71,3.37,2.89c-0.17-0.5-0.35-1-0.52-1.49c-2.26,2.08-1.41,5.73,1.48,6.7
					c-0.11-0.51-0.21-1.02-0.32-1.53c-1.94,1.49-0.19,4.75,2.1,3.67c0.94-0.45,0.36-1.69-0.55-1.62c-0.53,0.04-0.83-0.32-0.33-0.71
					c0.55-0.43,0.29-1.33-0.32-1.53c-1.62-0.53-2.1-2.48-0.9-3.71c0.5-0.51,0.25-1.44-0.52-1.49c-1.96-0.13-2.59-2.72-0.88-3.74
					c0.61-0.37,0.54-1.48-0.3-1.48c-0.89,0-1.81-0.8-1.63-1.76c0.18-0.97,1.34-1.38,2.2-1.22C57.45,269.2,57.53,268.14,56.95,267.88
					L56.95,267.88z"/>
			</g>
		</g>
		<g>
			<g>
				<path class="st5" d="M68.5,297.43c-0.51-1.9-3.15-1.91-3.8-0.1c-0.75,2.09,1.16,3.71,3.01,4.12c-0.14-0.4-0.28-0.79-0.42-1.19
					c-1.81,2.74-0.61,6.31,2.34,7.65c0.04-0.61,0.08-1.21,0.12-1.82c-1.22,0.4-1.97,1.41-2,2.71c-0.03,1.4,0.88,2.57,1.73,3.59
					c0.48,0.57,0.95,1.12,1.2,1.83c0.21,0.59,0.31,1.22,0.6,1.78c0.51,0.99,1.56,1.87,2.74,1.57c1-0.26,0.96-1.74-0.12-1.83
					c-0.76-0.06-0.96-0.73-1.16-1.38c-0.26-0.86-0.55-1.63-1.08-2.36c-0.59-0.82-3.26-3.38-1.3-4.14c0.81-0.32,0.57-1.47-0.12-1.74
					c-2.05-0.8-2.76-3.13-1.6-4.99c0.35-0.55-0.04-1.12-0.62-1.23c-0.8-0.15-1.76-0.57-1.9-1.47c-0.12-0.79,0.95-1.58,1.3-0.62
					C67.64,298.41,68.67,298.06,68.5,297.43L68.5,297.43z"/>
			</g>
		</g>
		<g>
			<g>
				<path class="st5" d="M77.08,323.3c-0.44,0.54-0.74,1.03-0.76,1.75c-0.03,0.71,0.17,1.4,0.57,1.98c0.79,1.13,2.35,1.64,3.66,1.19
					c-0.33-0.37-0.66-0.75-0.99-1.12c-0.49,1.66-0.14,3.5,1.06,4.79c0.55,0.58,1.24,1.03,1.99,1.3c0.75,0.27,1.83,0.48,2.56,0.09
					c0.59-0.32,0.62-1.34-0.11-1.53c-0.57-0.15-1.16-0.04-1.73-0.22c-0.49-0.15-0.96-0.41-1.32-0.78c-0.78-0.8-1.09-2.01-0.81-3.09
					c0.2-0.77-0.5-1.3-1.21-1.04c-1.52,0.56-2.67-1.38-1.85-2.61C78.59,323.3,77.58,322.69,77.08,323.3L77.08,323.3z"/>
			</g>
		</g>
		<g>
			<g>
				<path class="st5" d="M42.91,279.83c0.75-0.02,1.47-0.32,2.17-0.56c0.66-0.23,1.31-0.51,1.95-0.81c0.64-0.29,1.26-0.61,1.87-0.96
					c0.67-0.37,1.38-0.74,1.96-1.24c0.68-0.59-0.08-1.66-0.88-1.29c-0.63,0.29-1.21,0.72-1.81,1.07c-0.61,0.35-1.22,0.68-1.85,1.01
					c-0.62,0.32-1.26,0.62-1.89,0.93c-0.61,0.3-1.29,0.54-1.83,0.96C42.26,279.19,42.47,279.84,42.91,279.83L42.91,279.83z"/>
			</g>
		</g>
		<g>
			<g>
				<path class="st5" d="M47.77,280.37c0.3-0.15,0.62-0.27,0.92-0.42c0.31-0.16,0.63-0.31,0.94-0.47c0.3-0.15,0.59-0.33,0.88-0.5
					c0.4-0.23,0.81-0.41,1.09-0.78c0.2-0.26,0.16-0.68-0.02-0.94c-0.18-0.27-0.53-0.43-0.86-0.36c-0.43,0.1-0.78,0.41-1.13,0.66
					c-0.29,0.2-0.58,0.4-0.85,0.61c-0.26,0.21-0.53,0.42-0.79,0.63c-0.27,0.22-0.52,0.46-0.8,0.68
					C46.68,279.86,47.23,280.64,47.77,280.37L47.77,280.37z"/>
			</g>
		</g>
		<g>
			<path class="st5" d="M61.67,280.26c-1.03,0.52-0.23,2.12,0.8,1.6C63.51,281.35,62.71,279.74,61.67,280.26z"/>
		</g>
		<g>
			<path class="st5" d="M64.94,275.81c-1.03,0.52-0.23,2.12,0.8,1.6C66.77,276.89,65.97,275.29,64.94,275.81z"/>
		</g>
		<g>
			<path class="st5" d="M70.76,285.96c-1.03,0.52-0.23,2.12,0.8,1.6C72.59,287.05,71.79,285.44,70.76,285.96z"/>
		</g>
		<g>
			<path class="st5" d="M79.59,312.45c-0.08-0.08-0.18-0.14-0.29-0.17c-0.11-0.04-0.23-0.05-0.34-0.04c-0.12,0-0.23,0.03-0.34,0.09
				c-0.07,0.05-0.13,0.09-0.2,0.14c-0.12,0.11-0.2,0.23-0.25,0.38c-0.01,0.07-0.03,0.15-0.04,0.22c-0.01,0.16,0.02,0.31,0.09,0.46
				l0.06,0.12c0.05,0.11,0.13,0.2,0.22,0.27c0.08,0.08,0.18,0.14,0.29,0.17c0.11,0.04,0.23,0.05,0.34,0.04
				c0.12,0,0.23-0.03,0.34-0.09c0.07-0.05,0.13-0.09,0.2-0.14c0.12-0.11,0.2-0.23,0.25-0.38l0.04-0.22
				c0.01-0.16-0.02-0.31-0.09-0.46l-0.06-0.12C79.76,312.62,79.68,312.52,79.59,312.45z"/>
		</g>
		<g>
			<path class="st5" d="M79.64,304.85c-0.08-0.08-0.18-0.14-0.29-0.17c-0.11-0.04-0.23-0.05-0.34-0.04c-0.12,0-0.23,0.03-0.34,0.09
				c-0.07,0.05-0.13,0.09-0.2,0.14c-0.12,0.11-0.2,0.23-0.25,0.38c-0.01,0.07-0.03,0.15-0.04,0.22c-0.01,0.16,0.02,0.31,0.09,0.46
				l0.12,0.24c0.05,0.11,0.13,0.2,0.22,0.27c0.08,0.08,0.18,0.14,0.29,0.17c0.11,0.04,0.23,0.05,0.34,0.04
				c0.12,0,0.23-0.03,0.34-0.09c0.07-0.05,0.13-0.09,0.2-0.14c0.12-0.11,0.2-0.23,0.25-0.38c0.01-0.07,0.03-0.15,0.04-0.22
				c0.01-0.16-0.02-0.31-0.09-0.46l-0.12-0.24C79.82,305.01,79.74,304.92,79.64,304.85z"/>
		</g>
		<g>
			<path class="st5" d="M83.5,309.3c-0.08-0.08-0.18-0.14-0.29-0.17c-0.11-0.04-0.23-0.05-0.34-0.04c-0.12,0-0.23,0.03-0.34,0.09
				c-0.07,0.05-0.13,0.09-0.2,0.14c-0.12,0.11-0.2,0.23-0.25,0.38l-0.04,0.22c-0.01,0.16,0.02,0.31,0.09,0.46l0.06,0.12
				c0.05,0.11,0.13,0.2,0.22,0.27c0.08,0.08,0.18,0.14,0.29,0.17c0.11,0.04,0.23,0.05,0.34,0.04c0.12,0,0.23-0.03,0.34-0.09
				c0.07-0.05,0.13-0.09,0.2-0.14c0.12-0.11,0.2-0.23,0.25-0.38c0.01-0.07,0.03-0.15,0.04-0.22c0.01-0.16-0.02-0.31-0.09-0.46
				l-0.06-0.12C83.68,309.47,83.6,309.38,83.5,309.3z"/>
		</g>
		<g>
			<path class="st5" d="M83.06,317.67c-1.03,0.52-0.23,2.12,0.8,1.6C84.9,318.76,84.1,317.15,83.06,317.67z"/>
		</g>
		<g>
			<path class="st5" d="M73.8,306.86c-1.03,0.52-0.23,2.12,0.8,1.6C75.63,307.95,74.83,306.35,73.8,306.86z"/>
		</g>
		<g>
			<path class="st5" d="M80.03,301.82c-1.03,0.52-0.23,2.12,0.8,1.6C81.86,302.9,81.06,301.3,80.03,301.82z"/>
		</g>
	</g>
	<g>
		<g>
			<path class="st6" d="M135.75,654.8c0.58,3.03,0.77,6.48-1.17,8.88c-2.04,2.53-5.67,2.99-8.92,3.01
				c-3.25,0.01-6.74-0.17-9.46,1.61l-0.52-0.06c-0.42,3.69-0.45,7.74-2.83,10.58c-1.75,2.09-4.57,3.13-7.3,3.06
				c-2.73-0.07-5.36-1.16-7.6-2.72c-2.61-1.81-4.86-4.52-5.05-7.69c-0.16-2.8,1.28-5.41,1.92-8.14c1.48-6.29-1.36-12.7-4.24-18.48
				c-10.54-21.2-22.54-41.67-35.89-61.23l-0.15-0.05c-2.82-1.43-6.15,0.59-9.31,0.56c-3.41-0.03-6.41-2.55-7.96-5.58
				c-1.55-3.04-1.91-6.52-2.13-9.93c-0.15-2.3-0.22-4.75,0.93-6.75c1.5-2.63,4.79-3.82,7.81-3.67c1.94,0.1,3.8,0.64,5.61,1.35
				l0.12-0.3c2.14-2.8,1.71-7.03,4.07-9.65c1.71-1.9,4.53-2.46,7.05-2.05c2.52,0.4,4.83,1.63,7.08,2.84
				c2.86,1.53,5.99,3.38,6.87,6.51c0.74,2.63-0.37,5.43-1.82,7.74c-1.45,2.31-3.29,4.42-4.27,6.97l-0.39,0.23
				c11.98,20.57,23.94,41.13,35.92,61.69c2.6,4.47,5.85,9.41,10.97,10.22c4.11,0.65,8.35-1.64,12.38-0.61
				C132.36,644.37,134.8,649.84,135.75,654.8z"/>
		</g>
		<g>
			<g>
				<path class="st5" d="M54.33,583.85c5.76,9.4,11.76,18.66,17.31,28.2c5.55,9.53,10.89,19.19,15.9,29.02
					c2.11,4.14,4.38,8.29,5.71,12.76c0.6,2.02,0.98,4.1,0.95,6.21c-0.03,2.19-0.68,4.2-1.37,6.27c-0.68,2.02-1.21,4.1-0.82,6.24
					c0.41,2.22,1.73,4.18,3.33,5.72c3.11,3.01,7.69,5.14,12.08,4.43c2.19-0.36,4.32-1.32,5.84-2.98c1.38-1.49,2.16-3.42,2.58-5.39
					c0.88-4.12,0.24-9.07,3.07-12.54c0.71-0.87,1.58-1.49,2.66-1.82c1.17-0.35,0.62-2.18-0.54-1.81c-4.39,1.41-5.84,6.33-6.27,10.45
					c-0.41,3.93-0.49,8.73-4.24,11.07c-3.85,2.39-8.78,1.02-12.21-1.47c-1.8-1.31-3.42-3.07-4.08-5.24
					c-0.62-2.06-0.06-4.1,0.59-6.08c0.66-2,1.28-3.94,1.43-6.05c0.14-2.06-0.13-4.14-0.61-6.15c-1.04-4.32-3.11-8.33-5.09-12.28
					c-4.85-9.66-9.98-19.2-15.49-28.5c-2.74-4.63-5.57-9.21-8.44-13.76c-2.9-4.59-5.85-9.18-9.09-13.54
					c-0.8-1.08-1.61-2.16-2.43-3.24C54.75,582.93,54.03,583.35,54.33,583.85L54.33,583.85z"/>
			</g>
		</g>
		<g>
			<g>
				<path class="st5" d="M116.56,668.85c4.34-2.07,9.19-0.68,13.74-1.71c2.24-0.51,4.24-1.65,5.51-3.6c1.1-1.69,1.37-3.79,1.28-5.77
					c-0.18-3.94-1.37-8.27-3.7-11.49c-1.15-1.58-2.64-2.96-4.47-3.69c-1.89-0.76-3.89-0.81-5.88-0.55c-2,0.26-3.97,0.77-6,0.84
					c-1.95,0.06-3.77-0.47-5.38-1.56c-3.48-2.33-5.55-6.34-7.6-9.86c-5.52-9.48-11.04-18.96-16.56-28.44
					c-5.52-9.48-11.04-18.96-16.57-28.43c-0.68-1.17-1.36-2.33-2.04-3.5c-0.63-1.08-2.27-0.05-1.65,1.03
					c10.81,18.59,21.63,37.18,32.45,55.76c2.27,3.89,4.34,8.06,7.19,11.57c2.5,3.07,5.76,5.41,9.86,5.39
					c3.73-0.01,7.72-1.96,11.37-0.49c3.71,1.49,5.51,5.69,6.41,9.31c0.51,2.05,0.9,4.3,0.56,6.41c-0.4,2.52-1.93,4.27-4.37,5.05
					c-4.74,1.51-10.71-0.72-14.85,2.61C115.21,668.27,115.79,669.21,116.56,668.85L116.56,668.85z"/>
			</g>
		</g>
		<g>
			<g>
				<path class="st5" d="M69.03,571.85c1.01-1.67,2.03-3.27,3.19-4.84c1.05-1.43,2.07-2.91,2.74-4.57c0.63-1.54,1-3.21,0.77-4.87
					c-0.26-1.9-1.27-3.57-2.67-4.86c-1.48-1.37-3.28-2.36-5.05-3.31c-1.68-0.9-3.39-1.78-5.21-2.35c-3.35-1.05-7.57-0.82-9.97,2.06
					c-2.29,2.74-1.85,6.67-3.92,9.48c-0.73,0.99,0.68,2.31,1.42,1.31c1.74-2.35,1.85-5.22,2.97-7.83c0.59-1.38,1.52-2.51,2.92-3.11
					c1.52-0.65,3.24-0.7,4.84-0.37c1.67,0.35,3.22,1.05,4.73,1.82c1.61,0.82,3.26,1.66,4.73,2.72c1.42,1.01,2.78,2.32,3.28,4.04
					c0.43,1.48,0.16,3.06-0.37,4.47c-0.64,1.69-1.68,3.18-2.67,4.67c-1.05,1.59-2.27,3.3-2.67,5.19
					C67.96,572.07,68.74,572.34,69.03,571.85L69.03,571.85z"/>
			</g>
		</g>
		<g>
			<g>
				<path class="st5" d="M52.86,560.19c-1.73-1.1-3.83-1.87-5.8-2.4c-1.92-0.52-3.89-0.69-5.85-0.33c-1.84,0.34-3.64,1.2-4.94,2.57
					c-1.33,1.4-1.92,3.24-2.09,5.13c-0.17,1.93,0.01,3.91,0.23,5.83c0.24,2.2,0.6,4.42,1.41,6.49c1.3,3.33,3.86,6.34,7.42,7.29
					c1.85,0.5,3.71,0.19,5.55-0.23c1.73-0.39,3.66-0.98,5.36-0.17c1.06,0.51,1.92-1.11,0.85-1.62c-2.88-1.38-5.75,0.06-8.68,0.39
					c-3.27,0.38-6.11-1.56-7.79-4.27c-2.02-3.27-2.27-7.29-2.47-11.03c-0.09-1.7-0.11-3.53,0.63-5.11c0.72-1.53,2.12-2.59,3.7-3.13
					c1.96-0.66,4.01-0.58,6-0.11c2.07,0.48,3.95,1.48,5.98,2.04C53.2,561.77,53.52,560.61,52.86,560.19L52.86,560.19z"/>
			</g>
		</g>
	</g>
	<g>
		<g>
			<path class="st3" d="M150.14,247.3c0.13,1.84,0.02,3.91-1.33,5.17c-0.94,0.89-2.3,1.16-3.57,1.37
				c-5.1,0.83-10.26,1.21-15.43,1.12c-2.2-0.04-4.47-0.17-6.42-1.19c-2.8-1.47-4.45-4.58-4.96-7.71c-0.49-3.03-0.07-6.12,0.38-9.16
				c0.39-0.35,0.9-0.58,1.41-0.68c0.86-0.18,1.75-0.07,2.62,0.02c6.02,0.62,12.14,0.19,18.02-1.26c1.52-0.38,3.17-0.81,4.62-0.21
				c1.67,0.7,2.52,2.55,3.07,4.27C149.41,241.72,149.94,244.5,150.14,247.3z"/>
		</g>
		<g>
			<g>
				<path class="st7" d="M150.15,233.26c-0.18-0.35-0.38-0.71-0.59-1.05c-0.91-1.49-2.12-2.83-3.78-3.25
					c-1.47-0.37-3.01,0.05-4.48,0.43c-7.65,1.98-15.63,2.68-23.51,2.05c-0.26-0.02-0.53-0.04-0.79-0.06l-1.98,0.59
					c-0.59,0.56-1.03,1.22-1.37,1.95c-0.73,1.6-0.91,3.5-0.93,5.29c-0.04,4.01,0.49,8.01,1.57,11.86c0.2,0.73,0.44,1.46,0.73,2.16
					c0.56,1.36,1.33,2.6,2.5,3.46c1.34,0.98,3.05,1.31,4.7,1.53c7.06,0.91,14.21,0.11,21.27-0.75c3.09-0.38,6.21-0.78,9.13-1.87
					c1.14-0.43,2.34-1.05,2.79-2.19c0.21-0.52,0.23-1.07,0.18-1.63c-0.04-0.4-0.11-0.81-0.19-1.2
					C154.19,244.65,152.95,238.63,150.15,233.26z M150.14,247.3c0.13,1.84,0.02,3.91-1.33,5.17c-0.94,0.89-2.3,1.16-3.57,1.37
					c-5.1,0.83-10.26,1.21-15.43,1.12c-2.2-0.04-4.47-0.17-6.42-1.19c-2.8-1.47-4.45-4.58-4.96-7.71c-0.49-3.03-0.07-6.12,0.38-9.16
					c-0.11,0.1-0.21,0.2-0.3,0.32l-0.29,0.52c0.07-0.19,0.17-0.36,0.29-0.52l0.34-0.61c-0.02,0.1-0.03,0.2-0.05,0.29
					c0.39-0.35,0.9-0.58,1.41-0.68c0.86-0.18,1.75-0.07,2.62,0.02c6.02,0.62,12.14,0.19,18.02-1.26c1.52-0.38,3.17-0.81,4.62-0.21
					c1.67,0.7,2.52,2.55,3.07,4.27C149.41,241.72,149.94,244.5,150.14,247.3z"/>
			</g>
		</g>
		<g>
			<path class="st8" d="M203.73,201.58l-0.54-0.19c-5.32-6.12-13.13-9.72-21.13-11.02c-8-1.3-16.21-0.44-24.15,1.23
				c-13.94,2.93-27.35,8.39-39.38,16.02c-3.91,2.48-7.7,5.22-10.81,8.65c-3.11,3.43-5.52,7.61-6.27,12.18l-0.05,0.06
				c-1.3-0.93-2.48-2-3.48-3.27c-1.67-2.13-2.66-4.65-3.06-7.3c-0.26-1.73-0.24-3.45,0.01-5.13c0.62-4.02,2.65-7.77,5.73-10.59
				c3.27-3,8.06-7.19,11.54-9.41c21.63-13.8,48.96-20.28,74.42-17.14c6.32,0.78,12.08,4.04,15.99,9.07c0.68,0.86,1.23,1.8,1.65,2.79
				c0,0,0.01,0,0,0.01C206.09,191.86,205.7,197.14,203.73,201.58z"/>
		</g>
		<g>
			<path class="st3" d="M112.72,239.21c-0.04,4.01,0.49,8.01,1.57,11.86c0.2,0.73,0.44,1.46,0.73,2.16l-0.12,0.05
				c-5.38-0.5-10.25-3.76-13.55-8.04c-3.31-4.27-5.19-9.49-6.4-14.75c-1.33-5.82-1.88-11.92-0.73-17.78l0.65,0.1
				c-0.26,1.68-0.27,3.41-0.01,5.13c0.4,2.65,1.39,5.17,3.06,7.3c1,1.27,2.18,2.34,3.48,3.27c3.37,2.39,7.54,3.77,11.54,5.03
				l0.71,0.36C112.92,235.51,112.73,237.41,112.72,239.21z"/>
		</g>
		<g>
			<path class="st3" d="M211.93,203.58c1.43,6.07,1.14,12.66-1.58,18.27c-1.97,4.06-5.12,7.45-8.65,10.26
				c-3.53,2.81-7.45,5.07-11.36,7.32l-0.34-0.01c0.18-3.4-2.4-6.72-5.72-7.54c-3.47-0.87-7.34,0.86-9.26,3.87
				c-1.93,3.01-1.94,7.06-0.3,10.23l-0.12,0.13c-0.5,0.2-1.01,0.4-1.52,0.59c-5.69,2.16-11.55,3.87-17.5,5.1
				c-0.04-0.4-0.11-0.81-0.19-1.2c-1.2-5.94-2.44-11.96-5.24-17.33c-0.18-0.35-0.38-0.71-0.59-1.05l0.92-0.38
				c13.15-4.2,26.38-8.56,38.26-15.59c5.6-3.32,11.02-7.39,14.2-13.07c0.29-0.52,0.55-1.04,0.79-1.58
				c1.98-4.44,2.36-9.72,0.48-14.05C207.69,192.4,210.55,197.76,211.93,203.58z"/>
		</g>
		<g>
			<path class="st7" d="M210.68,253.74c2.36,8.75-2.81,17.77-11.57,20.13c-8.75,2.36-17.77-2.81-20.13-11.57
				c-1.26-4.66-0.38-9.39,2.03-13.16c-0.53-0.53-0.85-1.33-1.04-2.01c-0.15-0.53-0.24-1.07-0.26-1.61
				c-1.56,0.39-3.15,0.63-4.75,0.72l-1.87,0.45c0.51-0.19,1.01-0.39,1.52-0.59l0.12-0.13c-1.63-3.18-1.62-7.22,0.3-10.23
				c1.93-3.01,5.79-4.74,9.26-3.87c3.32,0.83,5.9,4.15,5.72,7.54c0,0.05-0.01,0.11-0.01,0.16c0.79,0.4,0.98,1.33,1.11,2.28
				c0,0.06,0.02,0.12,0.03,0.18C199.7,240.03,208.37,245.18,210.68,253.74z"/>
		</g>
		<g>
			<path class="st3" d="M201.18,252.19c0.69,3.47,0.45,7.12-0.66,10.48c-0.11,0.34-0.26,0.71-0.58,0.87
				c-0.24,0.12-0.53,0.1-0.79,0.07c-2.51-0.28-5-0.76-7.43-1.45c-1.67-0.47-3.41-1.1-4.5-2.44c-1.32-1.63-1.36-4.18-0.08-5.84
				c1.28-1.66,3.76-2.28,5.67-1.41l0.81-0.17c0.26-1,0.52-2.02,1.07-2.89c0.54-0.88,1.43-1.6,2.45-1.7
				c1.11-0.11,2.18,0.54,2.85,1.42C200.65,250,200.96,251.1,201.18,252.19z"/>
		</g>
		<g>
			<g>
				<path class="st5" d="M116.09,231.76c7.86,1.21,16.2,0.49,23.92-1.31c1.76-0.41,3.76-1.23,5.58-0.75
					c1.49,0.39,2.6,1.93,3.34,3.19c2.06,3.52,3.21,7.56,4.14,11.51c0.48,2.04,0.91,4.09,1.32,6.14c0.16,0.81,0.46,1.8,0.08,2.6
					c-0.32,0.67-1.06,1.07-1.71,1.36c-3.67,1.64-8.01,1.87-11.95,2.33c-3.98,0.46-7.99,0.83-12,0.83c-2,0-4-0.1-5.99-0.33
					c-1.72-0.2-3.66-0.46-5.02-1.63c-1.43-1.23-2.1-3.11-2.61-4.86c-0.66-2.29-1.13-4.64-1.38-7c-0.22-2.08-0.34-4.2-0.17-6.29
					c0.15-1.83,0.64-3.66,1.94-5.01c0.7-0.74-0.38-1.79-1.12-1.11c-2.75,2.53-2.71,6.81-2.56,10.25c0.18,4.17,0.79,8.71,2.52,12.55
					c0.77,1.71,2.03,3.17,3.75,3.96c1.82,0.83,3.87,1.03,5.84,1.2c4.39,0.4,8.81,0.18,13.2-0.24c2.2-0.21,4.4-0.47,6.59-0.74
					c2.25-0.28,4.51-0.55,6.71-1.11c1.76-0.45,3.89-1.01,5.14-2.42c1.39-1.58,0.89-3.6,0.51-5.46c-0.92-4.5-1.93-9-3.67-13.27
					c-1.32-3.23-3.09-7.46-7.02-8.02c-2.24-0.32-4.56,0.67-6.72,1.15c-2.42,0.54-4.86,0.96-7.32,1.26
					c-5.06,0.63-10.12,0.52-15.21,0.29C115.68,230.8,115.55,231.68,116.09,231.76L116.09,231.76z"/>
			</g>
		</g>
		<g>
			<g>
				<path class="st5" d="M143.85,233.43c-1.67,0.08-3.28,0.63-4.91,0.96c-1.71,0.35-3.44,0.61-5.18,0.81
					c-3.32,0.37-6.67,0.48-10,0.29c-1.5-0.08-3.24-0.52-4.69,0.03c-1.3,0.5-1.8,1.73-1.87,3.04c-0.15,3.24,0.47,6.7,1.21,9.84
					c0.37,1.55,0.73,3.24,1.45,4.67c0.66,1.3,1.85,1.9,3.24,2.13c3.25,0.53,6.59,0.74,9.88,0.79c3.34,0.05,6.67-0.16,9.97-0.7
					c1.62-0.26,3.23-0.61,4.81-1.06c1.22-0.35,2.5-0.86,3.29-1.9c1-1.32,0.7-3,0.51-4.53c-0.25-1.94-0.61-3.87-1.09-5.77
					c-0.45-1.79-0.97-3.6-1.69-5.31c-0.58-1.37-1.39-2.63-2.74-3.35c-0.95-0.51-1.79,0.94-0.84,1.45c1.09,0.58,1.69,1.65,2.13,2.77
					c0.53,1.34,0.94,2.73,1.31,4.12c0.39,1.46,0.72,2.95,0.98,4.44c0.14,0.8,0.26,1.61,0.35,2.42c0.07,0.64,0.2,1.34,0.08,1.98
					c-0.23,1.19-1.48,1.68-2.51,2c-1.4,0.43-2.85,0.74-4.29,1c-2.94,0.53-5.92,0.76-8.91,0.78c-2.92,0.02-5.84-0.16-8.74-0.48
					c-1.18-0.13-3.01-0.06-3.9-0.99c-0.88-0.92-1.12-2.66-1.43-3.84c-0.79-3-1.25-6.07-1.38-9.16c-0.05-1.23-0.21-2.76,1.39-2.89
					c1.38-0.11,2.84,0.19,4.22,0.25c3.31,0.15,6.64,0.01,9.92-0.43c1.65-0.22,3.3-0.52,4.93-0.88c1.62-0.36,3.32-0.68,4.76-1.53
					C144.52,234.12,144.37,233.4,143.85,233.43L143.85,233.43z"/>
			</g>
		</g>
		<g>
			<g>
				<path class="st5" d="M133.72,243.64c-0.16,0.22-0.34,0.46-0.43,0.72c-0.1,0.29-0.13,0.62-0.11,0.92
					c0.04,0.66,0.33,1.27,0.79,1.74c0.98,0.99,2.48,1.1,3.7,0.52c1.15-0.55,1.97-1.95,1.93-3.22c-0.04-1.38-0.86-2.72-2.17-3.23
					c-1.38-0.53-3.19,0.27-3.35,1.83c-0.03,0.29,0.23,0.58,0.5,0.66c0.29,0.08,0.62-0.05,0.76-0.32c0.02-0.04,0.19-0.28,0.09-0.16
					c0.06-0.08,0.13-0.15,0.2-0.22c0.05-0.05,0.21-0.16,0.07-0.07c0.11-0.07,0.21-0.13,0.32-0.18c-0.19,0.09,0.07-0.02,0.12-0.03
					c0.07-0.02,0.32-0.05,0.12-0.04c0.1-0.01,0.21-0.01,0.31-0.01c0.14,0,0.01,0-0.02-0.01c0.06,0.01,0.12,0.02,0.18,0.04
					c0.03,0.01,0.24,0.09,0.06,0.01c0.04,0.02,0.08,0.04,0.12,0.06c0.05,0.03,0.1,0.05,0.15,0.08c0.04,0.02,0.16,0.11,0.02,0.01
					c0.08,0.06,0.16,0.13,0.23,0.2c0.04,0.04,0.08,0.08,0.12,0.13c0.12,0.13-0.07-0.12,0.03,0.04c0.06,0.1,0.12,0.19,0.18,0.29
					c0.02,0.04,0.04,0.08,0.06,0.12c-0.08-0.15-0.03-0.07-0.01-0.02c0.04,0.11,0.07,0.22,0.1,0.33c0.01,0.04,0.02,0.09,0.02,0.13
					c-0.04-0.22,0,0.03,0,0.08c0.01,0.22-0.01,0.44-0.02,0.66c0.01-0.18,0.01-0.06,0-0.02c-0.01,0.06-0.02,0.11-0.04,0.17
					c-0.01,0.06-0.03,0.11-0.05,0.17c-0.01,0.03-0.09,0.24-0.01,0.06c-0.05,0.11-0.1,0.21-0.16,0.31c-0.02,0.04-0.05,0.08-0.07,0.12
					c0,0-0.14,0.18-0.06,0.08c0.08-0.1-0.07,0.07-0.07,0.07c-0.03,0.03-0.06,0.07-0.1,0.1c-0.04,0.04-0.09,0.08-0.13,0.12
					c-0.05,0.04-0.03,0.03,0.04-0.03c-0.03,0.02-0.05,0.04-0.08,0.06c-0.08,0.06-0.17,0.11-0.26,0.15
					c-0.04,0.02-0.24,0.09-0.04,0.02c-0.04,0.01-0.08,0.03-0.13,0.04c-0.11,0.03-0.22,0.06-0.32,0.08c-0.04,0.01-0.16,0.01,0.02,0
					c-0.07,0-0.13,0.01-0.2,0.01c-0.11,0-0.22-0.01-0.33-0.01c0.15,0,0.06,0.01,0.01,0c-0.05-0.01-0.11-0.02-0.16-0.04
					c-0.1-0.02-0.19-0.06-0.29-0.08c-0.19-0.05,0.07,0.05-0.03-0.01c-0.07-0.04-0.13-0.08-0.2-0.11c-0.03-0.02-0.12-0.09,0,0
					c-0.05-0.04-0.1-0.08-0.15-0.13c-0.04-0.04-0.07-0.08-0.11-0.12c-0.04-0.04-0.03-0.03,0.02,0.03c-0.03-0.03-0.05-0.07-0.08-0.11
					c-0.06-0.09-0.12-0.18-0.17-0.28c-0.03-0.05-0.05-0.1-0.07-0.15c-0.02-0.05-0.02-0.04,0.01,0.03c-0.01-0.03-0.02-0.06-0.03-0.09
					c-0.04-0.11-0.08-0.22-0.11-0.34c0,0.02-0.03-0.19-0.02-0.11c0.01,0.04-0.01-0.12-0.01-0.14c-0.01-0.25-0.04-0.42,0.05-0.66
					c0.07-0.19-0.07-0.42-0.24-0.48C134.03,243.39,133.85,243.47,133.72,243.64L133.72,243.64z"/>
			</g>
		</g>
		<g>
			<g>
				<path class="st5" d="M119.84,248.29c1.02,0.18,2.09,0.58,3.14,0.46c1.18-0.13,2.13-0.82,2.47-1.98
					c0.31-1.05,0.05-2.26-0.29-3.28c-0.15-0.46-0.37-0.92-0.75-1.24c-0.47-0.39-1.02-0.45-1.61-0.42c-1.35,0.06-2.7,0.13-4.05,0.2
					c-0.45,0.02-0.84,0.36-0.84,0.83c0,0.43,0.38,0.86,0.83,0.84c1-0.06,2.01-0.11,3.01-0.17c0.48-0.03,0.96-0.07,1.44-0.08
					c0.09,0,0.07-0.01,0.16,0.02c-0.12-0.05,0.08,0.07-0.02-0.01c0.03,0.03,0.15,0.16,0.08,0.07c0.06,0.09,0.11,0.18,0.16,0.28
					c0.06,0.13,0-0.03,0.04,0.11c0.03,0.08,0.05,0.16,0.08,0.24c0.06,0.21,0.12,0.43,0.17,0.64c0.11,0.42,0.18,0.84,0.15,1.28
					c-0.02,0.23-0.13,0.59-0.29,0.77c-0.24,0.28-0.56,0.37-0.93,0.43c-0.45,0.07-0.91,0.02-1.36-0.03
					c-0.54-0.06-1.04-0.08-1.58,0.01C119.32,247.34,119.33,248.2,119.84,248.29L119.84,248.29z"/>
			</g>
		</g>
		<g>
			<g>
				<path class="st5" d="M150.66,232.5c8.67-2.48,17.24-5.3,25.53-8.87c7.58-3.26,15.36-7.08,21.57-12.61
					c5.55-4.95,9.51-11.96,8.52-19.6c-0.92-7.13-6.9-12.5-13.29-15.11c-3.48-1.42-7.18-1.8-10.89-2.1c-4.09-0.32-8.2-0.4-12.3-0.25
					c-8.19,0.29-16.41,1.54-24.35,3.55c-7.96,2.01-15.71,4.86-23.08,8.48c-3.67,1.8-7.26,3.8-10.7,6.01
					c-3.06,1.97-5.86,4.36-8.59,6.75c-2.64,2.31-5.26,4.59-6.98,7.7c-1.64,2.98-2.5,6.4-2.33,9.81c0.2,4.04,1.74,7.95,4.58,10.86
					c2.55,2.62,5.89,4.28,9.27,5.57c1.67,0.64,3.38,1.19,5.08,1.72c1.1,0.35,1.56-1.38,0.47-1.73c-6.74-2.13-14.38-4.84-16.79-12.24
					c-1.07-3.3-1.04-6.85,0.04-10.15c1.05-3.22,3.04-5.81,5.52-8.06c2.65-2.4,5.34-4.77,8.2-6.92c2.9-2.17,6.08-4,9.26-5.72
					c6.86-3.7,14.1-6.67,21.56-8.91c7.48-2.24,15.21-3.78,22.99-4.41c7.62-0.62,15.5-0.72,23.07,0.44c3.31,0.51,6.48,1.73,9.28,3.57
					c2.72,1.79,5.35,4.26,6.79,7.22c3.12,6.41,0.53,14.09-3.87,19.17c-5.08,5.87-12.33,9.77-19.23,13.09
					c-7.7,3.7-15.76,6.52-23.83,9.29c-1.97,0.68-3.92,1.39-5.89,2.08C149.45,231.45,149.78,232.76,150.66,232.5L150.66,232.5z"/>
			</g>
		</g>
		<g>
			<g>
				<path class="st5" d="M93.78,212.59c-0.22,0.86-0.53,1.65-0.67,2.54c-0.14,0.88-0.22,1.78-0.28,2.67
					c-0.12,1.81-0.06,3.62,0.1,5.42c0.3,3.61,0.96,7.17,1.96,10.65c1.86,6.43,5.08,12.6,10.57,16.63c2.61,1.91,6.12,3.68,9.43,3.57
					c0.87-0.03,1.12-1.34,0.21-1.56c-1.39-0.33-2.78-0.56-4.12-1.06c-1.31-0.48-2.55-1.13-3.71-1.9c-2.46-1.61-4.55-3.77-6.18-6.21
					c-3.77-5.61-5.58-12.59-6.38-19.24c-0.22-1.85-0.29-3.71-0.29-5.57c0-0.98,0.04-1.95,0.11-2.92c0.07-0.96,0.02-1.95,0.15-2.9
					C94.75,212.19,93.9,212.09,93.78,212.59L93.78,212.59z"/>
			</g>
		</g>
		<g>
			<g>
				<path class="st5" d="M203.36,187.14c0.94,2,2.31,3.78,3.4,5.7c1.05,1.87,2.01,3.79,2.8,5.78c1.48,3.78,2.4,7.79,2.43,11.85
					c0.03,3.86-0.71,7.75-2.45,11.21c-1.74,3.46-4.33,6.39-7.27,8.88c-3.77,3.19-8.08,5.67-12.34,8.13
					c-0.93,0.54-0.09,1.98,0.85,1.44c7.46-4.29,15.33-8.95,19.65-16.7c4.05-7.26,3.9-16.15,1.15-23.82
					c-0.83-2.33-1.87-4.6-3.09-6.76c-1.23-2.19-2.57-4.56-4.42-6.29C203.68,186.22,203.14,186.68,203.36,187.14L203.36,187.14z"/>
			</g>
		</g>
		<g>
			<g>
				<path class="st5" d="M155.44,252.26c1.59,0.14,3.31-0.41,4.85-0.77c1.65-0.39,3.29-0.83,4.92-1.31
					c3.25-0.96,6.47-2.06,9.62-3.31c0.94-0.37,0.54-1.92-0.42-1.54c-3.16,1.24-6.36,2.37-9.61,3.34c-1.62,0.49-3.26,0.94-4.9,1.37
					c-1.54,0.41-3.26,0.64-4.68,1.41C154.81,251.66,155.04,252.23,155.44,252.26L155.44,252.26z"/>
			</g>
		</g>
		<g>
			<g>
				<path class="st5" d="M101.91,228.59c1.11-3.36,2.46-6.56,4.59-9.41c2.3-3.08,5.22-5.67,8.32-7.92
					c6.56-4.76,13.85-8.64,21.3-11.82c7.49-3.19,15.34-5.6,23.33-7.18c7.65-1.51,15.63-2.23,23.34-0.79
					c7.5,1.4,14.6,4.85,19.75,10.56c0.78,0.86,1.99-0.41,1.26-1.27c-4.56-5.35-11.03-8.79-17.78-10.52
					c-7.74-1.99-15.87-1.7-23.7-0.43c-16.62,2.69-32.98,9.21-46.88,18.72c-3.67,2.51-7.2,5.36-9.92,8.92
					c-2.41,3.15-4.5,6.96-4.59,11.01C100.93,229.03,101.74,229.1,101.91,228.59L101.91,228.59z"/>
			</g>
		</g>
		<g>
			<g>
				<path class="st5" d="M174.86,246.62c2.71,0.48,5.82-0.49,8.34-1.45c2.71-1.04,5.19-2.54,7.42-4.39c0.72-0.6-0.32-1.61-1.04-1.02
					c-2.1,1.75-4.48,3.14-7.02,4.14c-1.24,0.49-2.52,0.88-3.82,1.17c-1.29,0.29-2.61,0.41-3.88,0.79
					C174.51,245.96,174.45,246.55,174.86,246.62L174.86,246.62z"/>
			</g>
		</g>
		<g>
			<g>
				<path class="st5" d="M175.22,245.98c-0.03-1.25-0.63-2.46-0.74-3.72c-0.11-1.21-0.04-2.45,0.27-3.63
					c0.66-2.48,2.41-4.52,4.79-5.49c2.24-0.91,4.81-0.76,6.79,0.7c1.9,1.41,2.94,3.67,2.86,6.01c-0.03,0.86,1.36,1.08,1.52,0.21
					c0.84-4.59-3-8.84-7.47-9.3c-4.87-0.5-9.38,3.18-10.36,7.86c-0.28,1.36-0.3,2.72-0.08,4.09c0.19,1.19,0.57,2.82,1.57,3.6
					C174.69,246.57,175.23,246.44,175.22,245.98L175.22,245.98z"/>
			</g>
		</g>
		<g>
			<g>
				<path class="st5" d="M177.78,234.76c-1.07,1.42-1.57,3.27-1.69,5.04c-0.11,1.71,0.09,3.73,0.92,5.27
					c0.31,0.58,1.26,0.18,1.07-0.45c-0.23-0.77-0.52-1.5-0.66-2.3c-0.14-0.8-0.18-1.63-0.13-2.44c0.1-1.64,0.61-3.18,1.27-4.67
					C178.8,234.67,178.13,234.3,177.78,234.76L177.78,234.76z"/>
			</g>
		</g>
		<g>
			<path class="st5" d="M199.37,274.81c-9.26,2.5-18.83-3-21.33-12.25c-2.5-9.26,3-18.83,12.25-21.33s18.83,3,21.33,12.25
				C214.13,262.74,208.63,272.31,199.37,274.81z M190.81,243.11c-8.22,2.22-13.1,10.72-10.88,18.94
				c2.22,8.22,10.71,13.1,18.93,10.88s13.1-10.71,10.88-18.93C207.52,245.78,199.03,240.89,190.81,243.11z"/>
		</g>
		<g>
			<g>
				<path class="st5" d="M185.24,247.59c-1.82,0.99-2.93,3.27-3.64,5.13c-0.79,2.07-1.06,4.39-0.8,6.59
					c0.5,4.34,3.01,8.14,6.7,10.46c2.03,1.28,4.46,2.17,6.88,2.08c0.77-0.03,1.03-1.27,0.19-1.41c-2.41-0.39-4.68-1.06-6.71-2.46
					c-2.01-1.38-3.67-3.38-4.57-5.64c-0.93-2.31-1.1-4.9-0.6-7.34c0.25-1.22,0.64-2.43,1.21-3.55c0.58-1.14,1.42-2.1,2-3.23
					C186.1,247.81,185.66,247.36,185.24,247.59L185.24,247.59z"/>
			</g>
		</g>
		<g>
			<g>
				<path class="st5" d="M200.77,270.21c4.7-1.43,8.12-5.99,8.74-10.82c0.65-4.97-1.69-10.83-6.12-13.44
					c-0.74-0.44-1.64,0.66-0.93,1.23c1.88,1.51,3.41,3.13,4.43,5.34c0.94,2.05,1.32,4.39,1.02,6.63c-0.59,4.47-3.6,8.14-7.47,10.31
					C200.05,269.68,200.32,270.35,200.77,270.21L200.77,270.21z"/>
			</g>
		</g>
		<g>
			<g>
				<path class="st5" d="M193.12,251.88c-1.44-1.07-3.55-0.8-5.05,0.02c-1.5,0.82-2.48,2.31-2.72,3.99
					c-0.24,1.71,0.27,3.47,1.46,4.73c1.3,1.37,3.16,1.99,4.93,2.48c2.04,0.57,4.13,0.98,6.23,1.26c0.92,0.12,2.02,0.41,2.77-0.31
					c0.69-0.66,0.89-1.88,1.1-2.76c0.48-1.97,0.7-4.03,0.6-6.05c-0.1-1.96-0.37-4.11-1.26-5.87c-0.87-1.72-2.82-3.03-4.79-2.44
					c-2.26,0.68-3.14,3.06-3.53,5.15c-0.18,0.97,1.16,1.35,1.48,0.4c0.43-1.28,0.84-2.99,2.15-3.68c1.3-0.68,2.57,0.32,3.16,1.46
					c0.71,1.35,0.89,3.05,0.97,4.55c0.09,1.55,0.03,3.11-0.23,4.64c-0.13,0.73-0.29,1.46-0.5,2.18c-0.07,0.25-0.13,0.8-0.32,0.99
					c-0.22,0.23-0.88,0.03-1.15-0.01c-1.61-0.21-3.21-0.51-4.79-0.89c-2.46-0.6-5.94-1.32-6.49-4.27c-0.24-1.32,0.2-2.78,1.26-3.63
					c1.23-0.98,2.74-0.96,4.21-0.72C193.38,253.22,193.74,252.34,193.12,251.88L193.12,251.88z"/>
			</g>
		</g>
		<g>
			<g>
				<path class="st5" d="M179.19,245.9c-0.04,0.12,0.04-0.08-0.01,0.03c-0.02,0.04-0.04,0.08-0.06,0.13
					c-0.03,0.08-0.05,0.16-0.07,0.24c-0.03,0.16-0.05,0.33-0.04,0.49c0.03,0.38,0.12,0.72,0.28,1.06c0.28,0.57,0.77,1.08,1.35,1.34
					c0.41,0.19,0.88,0.07,1.06-0.37c0.18-0.44-0.07-0.86-0.49-1.01c-0.03-0.01-0.14-0.06-0.02-0.01c0.12,0.05,0,0-0.02-0.01
					c-0.05-0.03-0.1-0.05-0.15-0.08c-0.05-0.03-0.1-0.06-0.15-0.09c-0.1-0.07,0.11,0.09,0.04,0.03c-0.02-0.02-0.04-0.03-0.06-0.05
					c-0.09-0.08-0.18-0.17-0.26-0.26c-0.02-0.02-0.09-0.11-0.02-0.02c0.07,0.09,0.01,0.01,0-0.01c-0.04-0.05-0.07-0.11-0.11-0.16
					c-0.06-0.1-0.11-0.2-0.16-0.31c-0.01-0.03-0.02-0.06-0.04-0.09c0.01,0.02,0.05,0.14,0.02,0.05c-0.02-0.06-0.04-0.12-0.06-0.18
					c-0.03-0.11-0.06-0.22-0.09-0.33c-0.01-0.06-0.02-0.12-0.03-0.18c-0.01-0.02-0.01-0.05-0.02-0.07c-0.03-0.1,0,0.09,0-0.02
					c0-0.23-0.17-0.42-0.4-0.45C179.45,245.53,179.26,245.68,179.19,245.9L179.19,245.9z"/>
			</g>
		</g>
		<g>
			<g>
				<path class="st5" d="M106.28,239.68c-0.21,0.13-0.43,0.23-0.59,0.41c-0.22,0.24-0.37,0.48-0.49,0.77c-0.2,0.5-0.17,1.12,0,1.63
					c0.38,1.12,1.39,1.87,2.55,2.01c1.18,0.14,2.32-0.51,2.96-1.48c0.31-0.48,0.41-1.08,0.41-1.64c0-0.58-0.14-1.13-0.41-1.64
					c-0.3-0.57-0.85-1.06-1.5-1.16c-0.68-0.11-1.27,0.22-1.85,0.51c-0.5,0.25-0.14,1.14,0.39,0.92c0.18-0.07,0.36-0.14,0.54-0.19
					c0.15-0.04,0.35-0.04,0.45-0.01c0.04,0.01,0.09,0.02,0.13,0.04c-0.08-0.03,0.02,0.01,0.03,0.02c0.04,0.02,0.08,0.04,0.11,0.07
					c-0.09-0.06,0,0,0.01,0.02c0.02,0.02,0.2,0.21,0.11,0.1c0.07,0.09,0.13,0.19,0.18,0.28c0.05,0.08,0.09,0.16,0.13,0.24
					c-0.07-0.15,0.03,0.09,0.04,0.13c0.03,0.09,0.04,0.18,0.06,0.27c0.01,0.03,0.01,0.15,0,0c0,0.06,0.01,0.11,0.01,0.17
					c0,0.06,0,0.11,0,0.17c0,0.03-0.01,0.15,0.01,0c-0.01,0.09-0.03,0.18-0.06,0.26c-0.01,0.04-0.03,0.09-0.04,0.13
					c-0.01,0.04-0.07,0.13,0-0.01c-0.05,0.09-0.09,0.18-0.14,0.27c-0.04,0.08-0.09,0.15-0.13,0.23c-0.02,0.02-0.1,0.13-0.03,0.05
					c0.07-0.09-0.02,0.02-0.04,0.04c-0.06,0.07-0.12,0.13-0.19,0.19c-0.02,0.02-0.13,0.11-0.04,0.04c0.1-0.07-0.05,0.03-0.07,0.05
					c-0.08,0.05-0.17,0.1-0.26,0.15c-0.11,0.06,0.15-0.05,0.03-0.01c-0.04,0.01-0.08,0.03-0.13,0.04c-0.08,0.03-0.17,0.05-0.26,0.07
					c-0.03,0.01-0.17,0.02-0.05,0.01c0.13-0.01-0.06,0-0.08,0c-0.06,0-0.2,0.02-0.25-0.01c0.09,0.05,0.12,0.02,0.03,0
					c-0.04-0.01-0.08-0.02-0.12-0.03c-0.06-0.02-0.19-0.03-0.24-0.07c0.08,0.08,0.1,0.05,0.03,0.01c-0.06-0.03-0.11-0.06-0.17-0.09
					c-0.07-0.04-0.15-0.08-0.21-0.14c0.15,0.14-0.03-0.04-0.07-0.07c-0.03-0.03-0.06-0.06-0.09-0.09c-0.12-0.12,0,0.02,0.01,0.03
					c-0.07-0.04-0.13-0.19-0.17-0.26c-0.01-0.01-0.06-0.11-0.06-0.11c0,0,0.06,0.18,0,0c-0.03-0.09-0.05-0.18-0.07-0.27
					c-0.04-0.18,0.01,0.03,0,0.03c-0.01,0-0.01-0.18-0.01-0.19c0-0.09,0.01-0.19,0.01-0.28c0-0.1,0.01-0.2,0.02-0.31
					c0-0.02,0.02-0.15,0.01-0.06c-0.01,0.09,0.02-0.07,0.02-0.09c0.04-0.18,0.08-0.36,0.18-0.49
					C107.19,239.92,106.65,239.45,106.28,239.68L106.28,239.68z"/>
			</g>
		</g>
	</g>
	<g>
		<g>
			<g>
				<path class="st9" d="M252.66,507.1l-0.82-0.14c1.03-6,1.74-12.07,2.11-18.15c0.25-4.01,0.34-8.09-0.68-11.98
					c-1.54-5.82-5.68-10.9-11.08-13.59l-0.98-0.35c0.06,1.12-0.06,2.23-0.33,3.29c-0.47,1.78-1.38,3.44-2.69,4.75
					c4.88,1.77,7.42,8.09,4.98,12.34c-3.75,0.62-7.61,0.15-11.35-0.56c-12.19-2.32-23.72-7.22-35.14-12.08l-4.39-2.01
					c-11.14-5.48-22.37-11.01-32.09-18.74c-3.15-2.5-6.17-5.29-8.16-8.78c-0.54-0.95-1-1.99-1.21-3.06
					c-0.01-0.04-0.02-0.08-0.02-0.13c0.35,0.16,0.7,0.34,1.06,0.5c0.57,0.27,1.12,0.24,1.69-0.01c1.2-0.52,2.28-1.13,3.55-1.47
					c2.46-0.64,5.25-0.49,7.43,0.9c0.33,0.21,0.92,0.24,1.07-0.24c0.89-2.89,3.33-5.29,6.31-5.95c0.61-0.14,0.92-0.86,0.4-1.31
					c-3.09-2.7-7.26-3.45-11.25-3.45c-3.92,0-7.97,0.67-11.32,2.8c-1.02,0.65-2.03,1.45-2.86,2.39c-2.05,1.49-3.93,3.23-5.75,5
					c-4.36,4.25-8.5,8.75-12.37,13.45l-0.64-0.53c-3.55,1.15-6.21,4.23-7.41,7.79c-0.25,0.76-0.44,1.54-0.56,2.32
					c-0.66,4.47,0.76,9.07,3.16,12.9c2.4,3.83,5.72,6.99,9.15,9.94c12.91,11.1,27.79,19.7,43.03,27.32l0.62,0.28
					c15.71,6.58,31.93,12.23,48.78,14.78c4.47,0.67,9.03,1.12,13.5,0.44c4.47-0.68,8.88-2.6,11.83-6.02
					c0.52-0.6,0.98-1.25,1.39-1.94C253.51,514.57,254.11,510.54,252.66,507.1z M179.42,501.15c-7.74-3.55-11.13-12.7-7.58-20.44
					c3.55-7.74,12.69-11.13,20.43-7.59c7.74,3.55,11.14,12.69,7.59,20.43S187.16,504.69,179.42,501.15z"/>
			</g>
		</g>
		<g>
			<path class="st6" d="M199.86,493.56c-3.55,7.74-12.7,11.14-20.44,7.59c-7.74-3.55-11.13-12.7-7.58-20.44
				c3.55-7.74,12.69-11.13,20.43-7.59C200.01,476.67,203.41,485.82,199.86,493.56z"/>
		</g>
		<g>
			<path class="st3" d="M243.17,483.27c-3.75,0.62-7.61,0.15-11.35-0.56c-12.19-2.32-23.72-7.22-35.14-12.08l-4.39-2.01
				c-11.14-5.48-22.37-11.01-32.09-18.74c-3.15-2.5-6.17-5.29-8.16-8.78c-0.54-0.95-1-1.99-1.21-3.06l2.47,0.91
				c3.28-2.79,8.61-3.12,12.46-0.75c-0.35-3.4,2.47-6.61,5.91-7.03c0.34-0.04,0.68-0.06,1.03-0.04c-0.08-2.44,1.67-4.76,4.1-5.4
				c2.42-0.63,5.29,0.48,6.67,2.58c1.42-3.7,5.11-6.41,9.23-6.79c4.11-0.37,8.47,1.6,10.9,4.94c0.76-2.86,2.04-5.8,4.63-7.34
				c2.59-1.54,6.75-0.92,8.03,1.84c4.65-0.99,9.96,1,12.85,4.82c2.89,3.82,3.18,9.23,0.71,13.1c4.68,2.79,6.2,9.55,3.07,13.66
				c3.76,1.19,6.87,4.32,7.92,7.99c0.22,0.78,0.35,1.57,0.4,2.36c0.06,1.12-0.06,2.23-0.33,3.29c-0.47,1.78-1.38,3.44-2.69,4.75
				C243.07,472.7,245.6,479.02,243.17,483.27z"/>
		</g>
		<g>
			<g>
				<path class="st5" d="M168.41,428.81c-2.87-1.72-6.45-2.17-9.75-2c-3.43,0.17-6.75,1.18-9.74,2.86
					c-3.17,1.79-5.88,4.31-8.48,6.83c-2.93,2.83-5.7,5.84-8.38,8.91c-3.01,3.45-5.88,7.02-8.57,10.73c-0.51,0.7,0.5,1.57,1.04,0.88
					c4.77-6.13,9.86-11.99,15.37-17.46c2.59-2.57,5.19-5.15,8.22-7.22c2.78-1.9,5.89-3.15,9.24-3.58c3.68-0.47,7.17,0.21,10.73,1.1
					C168.73,430,168.89,429.1,168.41,428.81L168.41,428.81z"/>
			</g>
		</g>
		<g>
			<g>
				<path class="st5" d="M241.84,463.66c2.64,1.87,5.18,3.79,7.12,6.4c1.98,2.66,3.3,5.73,3.84,9c0.59,3.59,0.4,7.19,0.18,10.8
					c-0.24,3.87-0.61,7.74-1.12,11.59c-0.57,4.34-1.32,8.66-2.18,12.95c-0.17,0.87,1.14,1.07,1.35,0.22
					c1.88-7.93,3.08-16.04,3.71-24.17c0.28-3.64,0.49-7.4-0.03-11.03c-0.49-3.44-1.71-6.73-3.69-9.59c-2.09-3.03-5.05-5.9-8.61-7.08
					C241.89,462.57,241.3,463.27,241.84,463.66L241.84,463.66z"/>
			</g>
		</g>
		<g>
			<g>
				<path class="st5" d="M248.45,515.62c-1.85,0.92-3.73,1.8-5.71,2.38c-2.02,0.59-4.13,0.92-6.23,1.05
					c-4.79,0.3-9.59-0.45-14.27-1.4c-9.99-2.02-19.85-4.77-29.45-8.2c-4.47-1.6-8.95-3.29-13.27-5.25
					c-3.62-1.64-7.14-3.49-10.63-5.38c-8.98-4.88-17.59-10.42-25.76-16.54c-7.98-5.97-16.74-12.96-18.25-23.47
					c-0.15-1.07-1.8-0.92-1.68,0.17c1.08,9.29,8.15,16.3,15.14,21.79c8.2,6.45,16.93,12.23,25.98,17.41
					c4.24,2.43,8.56,4.79,12.99,6.84c3.8,1.76,7.71,3.31,11.63,4.78c9.76,3.65,19.77,6.61,29.95,8.81c8.88,1.92,18.8,3.7,27.31-0.57
					c0.96-0.48,1.8-1.02,2.62-1.71C249.13,516.05,248.88,515.41,248.45,515.62L248.45,515.62z"/>
			</g>
		</g>
		<g>
			<g>
				<path class="st5" d="M252.18,507.28c1.59,4.89-0.24,10.26-4.15,13.49c-4.3,3.56-9.91,4.65-15.36,4.52
					c-6.23-0.15-12.52-1.46-18.58-2.84c-6.28-1.44-12.46-3.25-18.56-5.32c-6.03-2.05-11.97-4.35-17.86-6.79
					c-2.53-1.05-4.94-2.34-7.36-3.6c-2.85-1.48-5.68-3-8.47-4.58c-11.09-6.24-21.94-13.32-31.31-21.98
					c-4.13-3.81-7.89-8.32-9.26-13.89c-1.2-4.89-0.12-10.49,3.94-13.78c0.96-0.78,2.02-1.36,3.19-1.76c0.98-0.33,0.42-1.83-0.56-1.5
					c-4.99,1.68-8.22,6.68-8.61,11.81c-0.42,5.66,2.05,11.07,5.55,15.38c4.08,5.04,9.37,9.16,14.52,13.04
					c5.38,4.05,11.01,7.75,16.79,11.19c5.77,3.44,11.7,6.62,17.7,9.64c2.62,1.32,5.36,2.38,8.09,3.46c3.12,1.24,6.26,2.44,9.43,3.57
					c6.34,2.27,12.77,4.29,19.31,5.92c6.41,1.6,13,3,19.6,3.5c5.77,0.44,11.77-0.14,16.79-3.26c4.37-2.72,7.51-7.66,7.13-12.93
					c-0.09-1.28-0.43-2.49-1-3.65C252.85,506.34,251.97,506.64,252.18,507.28L252.18,507.28z"/>
			</g>
		</g>
		<g>
			<g>
				<path class="st5" d="M243.27,467.55c2.9,2.79,7.12,6.85,5.41,11.34c-0.79,2.07-2.8,3-4.85,3.43c-2.38,0.49-4.84,0.51-7.26,0.27
					c-5.01-0.49-9.99-1.77-14.8-3.21c-5.06-1.52-10.01-3.39-14.9-5.37c-6.9-2.8-13.65-5.8-20.3-9.14
					c-9.32-4.67-18.6-9.67-26.69-16.31c-1.89-1.55-3.7-3.21-5.23-5.12c-1.34-1.68-2.75-3.71-3.06-5.89
					c-0.3-2.14,0.86-3.95,2.63-5.08c1.93-1.24,4.31-1.42,6.54-1.25c1.14,0.08,2.28,0.24,3.41,0.4c1.03,0.14,1.29-1.44,0.26-1.6
					c-4.49-0.7-9.97-1.13-13.14,2.86c-3.22,4.06-0.15,9.07,2.71,12.34c3.53,4.04,8.03,7.26,12.47,10.21
					c4.73,3.14,9.69,5.93,14.72,8.55c7.32,3.81,14.73,7.29,22.35,10.45c5.27,2.19,10.6,4.26,16.04,5.99
					c5.22,1.65,10.6,3.11,16.05,3.74c2.55,0.29,5.17,0.36,7.71-0.07c2.15-0.37,4.44-1.08,5.87-2.84c1.39-1.72,1.66-4.07,1.19-6.18
					c-0.53-2.34-1.94-4.27-3.65-5.89c-0.89-0.85-1.87-1.61-2.83-2.37C243.4,466.39,242.81,467.11,243.27,467.55L243.27,467.55z"/>
			</g>
		</g>
		<g>
			<path class="st5" d="M179.03,502c-8.2-3.76-11.81-13.49-8.05-21.68c3.76-8.2,13.49-11.81,21.68-8.05
				c8.2,3.76,11.81,13.49,8.05,21.68C196.95,502.15,187.23,505.76,179.03,502z M191.88,473.98c-7.25-3.33-15.86-0.13-19.19,7.12
				c-3.33,7.25-0.13,15.86,7.12,19.19c7.25,3.33,15.86,0.13,19.19-7.12C202.33,485.91,199.13,477.31,191.88,473.98z"/>
		</g>
		<g>
			<g>
				<path class="st5" d="M153.6,439.38c3.49-2.29,8.19-2.66,11.79-0.39c0.6,0.38,1.26-0.3,1.23-0.88c-0.19-3.42,2.83-6.16,6.16-6.07
					c0.53,0.01,0.83-0.57,0.83-1.01c-0.02-2.09,1.56-4.02,3.6-4.45c2.07-0.44,4.3,0.54,5.49,2.26c0.39,0.56,1.34,0.51,1.6-0.15
					c1.35-3.39,4.63-5.78,8.24-6.2c3.9-0.45,7.94,1.38,10.27,4.51c0.53,0.71,1.49,0.38,1.71-0.39c0.73-2.65,2.07-5.87,4.83-6.96
					c1.95-0.77,4.93-0.43,5.96,1.66c0.18,0.37,0.57,0.73,1.03,0.64c4.36-0.85,9.22,0.85,11.93,4.41c2.53,3.32,3.06,8.28,0.77,11.88
					c-0.38,0.6-0.25,1.18,0.35,1.56c3.87,2.42,5.57,8.29,2.72,12.1c-0.35,0.47-0.31,1.34,0.35,1.56c3.34,1.11,6.18,3.71,7.29,7.09
					c1.12,3.41,0.14,7.19-2.34,9.73c-0.44,0.45-0.23,1.34,0.35,1.56c4.24,1.61,6.78,7.03,4.42,11.13c-0.64,1.12,1.18,1.94,1.82,0.83
					c2.9-5-0.21-11.82-5.4-13.79c0.12,0.52,0.23,1.04,0.35,1.56c2.93-3,3.96-7.5,2.77-11.51c-1.18-3.97-4.51-7.18-8.42-8.44
					c0.12,0.52,0.23,1.04,0.35,1.56c3.61-4.93,1.67-12.16-3.43-15.22c0.16,0.44,0.33,0.89,0.49,1.33c2.02-3.31,2.26-7.47,0.87-11.07
					c-1.47-3.81-4.76-6.65-8.62-7.86c-2.22-0.7-4.54-0.87-6.82-0.39c0.34,0.21,0.68,0.43,1.03,0.64c-1.47-2.96-5.11-3.91-8.13-2.95
					c-3.75,1.19-5.48,5.14-6.39,8.63c0.57-0.13,1.14-0.26,1.71-0.39c-2.73-3.67-7.43-5.83-12.01-5.32c-4.28,0.48-8.13,3.3-9.74,7.32
					c0.53-0.05,1.07-0.1,1.6-0.15c-1.66-2.41-4.8-3.66-7.65-2.94c-2.89,0.73-4.84,3.45-4.8,6.39c0.28-0.34,0.55-0.67,0.83-1.01
					c-4.26-0.11-8.22,3.76-7.71,8.09c0.41-0.29,0.82-0.59,1.23-0.88c-4.07-2.32-9.83-2.35-13.23,1.2
					C152.45,439.05,153.11,439.71,153.6,439.38L153.6,439.38z"/>
			</g>
		</g>
		<g>
			<g>
				<path class="st5" d="M169.66,440.97c-1.21-1.08-3.19-0.24-3.93,0.97c-0.83,1.37-0.57,3.21,0.46,4.39
					c1.11,1.26,2.88,1.89,4.54,1.6c1.7-0.3,3.09-1.46,3.48-3.17c0.41-1.79-0.85-3.91-2.76-4.08c-0.47-0.04-0.93,0.23-1.01,0.73
					c-0.08,0.48,0.26,0.92,0.73,1.01c0.41,0.08,0.74,0.24,0.99,0.57c0.28,0.36,0.41,0.72,0.38,1.18c-0.08,1.01-0.86,1.77-1.82,2.06
					c-1.85,0.55-4.5-0.98-3.82-3.17c0.15-0.47,0.5-0.88,0.93-1.13c0.47-0.27,0.99-0.31,1.52-0.27
					C169.72,441.66,169.96,441.24,169.66,440.97L169.66,440.97z"/>
			</g>
		</g>
		<g>
			<g>
				<path class="st5" d="M176.47,434.37c-0.45,0.04-0.9,0.14-1.27,0.41c-0.37,0.28-0.72,0.67-0.89,1.1
					c-0.39,0.99-0.22,2.05,0.52,2.83c0.67,0.7,1.77,0.95,2.7,0.73c1.06-0.25,1.86-1.09,2.01-2.18c0.08-0.58,0-1.21-0.26-1.74
					c-0.16-0.32-0.34-0.58-0.59-0.84c-0.24-0.25-0.58-0.5-0.94-0.52c-0.33-0.01-0.69,0.1-0.83,0.44c-0.14,0.35-0.04,0.65,0.21,0.92
					c-0.2-0.21,0.02,0.04,0.1,0.1c0.04,0.03,0.19,0.13,0.27,0.17c-0.21-0.1-0.09-0.06-0.03-0.01c0.03,0.02,0.06,0.05,0.09,0.07
					c0.03,0.03,0.06,0.05,0.09,0.08c0.13,0.11-0.12-0.15-0.02-0.02c0.06,0.08,0.12,0.16,0.18,0.25c0.05,0.07,0.02,0.12-0.02-0.04
					c0.01,0.04,0.04,0.09,0.06,0.13c0.04,0.09,0.07,0.18,0.1,0.27c0.01,0.03,0.01,0.07,0.02,0.09c-0.08-0.15-0.02-0.1-0.01-0.01
					c0.02,0.1,0.02,0.2,0.03,0.31c0.01,0.1-0.05,0.09,0-0.04c-0.01,0.04-0.01,0.1-0.01,0.14c-0.01,0.09-0.03,0.19-0.05,0.28
					c-0.02,0.08-0.05,0.04,0.02-0.07c-0.02,0.03-0.03,0.09-0.05,0.13c-0.02,0.04-0.04,0.09-0.06,0.13
					c-0.01,0.03-0.03,0.06-0.04,0.08c0.07-0.11,0.08-0.13,0.04-0.06c-0.05,0.06-0.09,0.13-0.15,0.19c-0.06,0.06-0.14,0.08,0.02-0.01
					c-0.03,0.02-0.07,0.06-0.1,0.08c-0.06,0.04-0.12,0.08-0.18,0.12c-0.13,0.08,0.17-0.07,0.02-0.01c-0.05,0.02-0.1,0.05-0.16,0.07
					c-0.07,0.02-0.14,0.03-0.2,0.06c0.17-0.08,0.1-0.02,0.02-0.01c-0.04,0.01-0.09,0.01-0.13,0.02c-0.07,0.01-0.14,0.01-0.22,0.01
					c-0.16,0.01,0.18,0.02,0.02,0c-0.06-0.01-0.12-0.01-0.17-0.02c-0.07-0.01-0.14-0.02-0.21-0.04c-0.04-0.01-0.08-0.03-0.13-0.03
					c0.21,0.04,0.09,0.03,0.03,0c-0.07-0.03-0.13-0.05-0.2-0.09c-0.04-0.02-0.08-0.04-0.11-0.06c-0.18-0.1,0.09,0.07-0.01-0.01
					c-0.06-0.04-0.11-0.08-0.17-0.13c-0.03-0.03-0.06-0.06-0.09-0.09c-0.11-0.11,0.1,0.14,0.01,0.01c-0.04-0.06-0.09-0.11-0.12-0.18
					c-0.08-0.13,0.02-0.04,0,0.01c0.01-0.02-0.06-0.14-0.07-0.16c-0.01-0.04-0.03-0.08-0.04-0.12c-0.03-0.09,0.03,0,0.01,0.05
					c0.02-0.04-0.03-0.21-0.04-0.26c0-0.04,0-0.09,0-0.13c0-0.13,0,0.05,0,0.05c0.01-0.01,0.03-0.27,0.04-0.3
					c0.01-0.04,0.02-0.08,0.03-0.13c0.03-0.15-0.06,0.15,0,0c0.04-0.1,0.07-0.19,0.11-0.29c0.03-0.08,0.07-0.16,0.11-0.23
					c0.01-0.01,0.01-0.02,0.02-0.04c0.04-0.06,0.03-0.05-0.02,0.03c0.01-0.04,0.07-0.11,0.1-0.14c0.05-0.07,0.11-0.13,0.17-0.19
					c0.1-0.11-0.09,0.07,0.02-0.02c0.07-0.06,0.13-0.12,0.19-0.18c-0.01,0.01-0.08,0.06,0,0c0.04-0.04,0.09-0.07,0.14-0.1
					c0.02-0.01,0.14-0.06,0.17-0.06c0.21-0.05,0.38-0.2,0.36-0.43C176.88,434.51,176.68,434.35,176.47,434.37L176.47,434.37z"/>
			</g>
		</g>
		<g>
			<g>
				<path class="st5" d="M182.19,441.93c-0.57-0.1-1.09-0.23-1.67-0.17c-0.64,0.07-1.25,0.27-1.81,0.58
					c-1.03,0.56-1.9,1.46-2.4,2.53c-1.11,2.37-0.52,5.24,1.19,7.16c1.73,1.94,4.57,2.79,7.09,2.25c2.64-0.57,4.65-2.67,4.58-5.45
					c-0.07-2.91-2.35-5.88-5.08-6.84c-0.96-0.34-1.62,1-0.67,1.46c1.83,0.89,3.33,2.34,3.78,4.39c0.44,1.97-0.38,3.67-2.25,4.45
					c-3.77,1.58-8.39-1.76-7.46-5.91c0.22-0.99,0.83-1.9,1.65-2.5c0.76-0.56,1.94-1.15,2.9-1.09
					C182.6,442.82,182.75,442.03,182.19,441.93L182.19,441.93z"/>
			</g>
		</g>
		<g>
			<g>
				<path class="st5" d="M224.04,445.27c-0.38,0.08-0.78,0.14-1.14,0.3c-0.43,0.19-0.81,0.46-1.15,0.79
					c-0.62,0.6-1.01,1.42-1.19,2.26c-0.37,1.73,0.44,3.58,1.89,4.57c1.54,1.06,3.44,1.15,5.05,0.17c1.5-0.92,2.47-2.71,2.24-4.48
					c-0.12-0.96-0.54-1.86-1.18-2.58c-0.75-0.83-1.64-1.34-2.77-1.37c-0.75-0.02-0.84,1.11-0.23,1.38c0.67,0.3,1.03,0.5,1.54,1
					c0.14,0.13,0.33,0.38,0.48,0.63c0.13,0.21,0.25,0.5,0.35,0.81c0.3,1.04-0.15,2.22-1.01,2.91c-0.95,0.76-2.09,0.91-3.16,0.37
					c-0.48-0.24-0.93-0.64-1.25-1.12c-0.31-0.47-0.49-1.04-0.47-1.63c0.02-0.63,0.29-1.26,0.64-1.78c0.37-0.54,0.93-1.17,1.56-1.4
					C224.68,445.96,224.53,445.17,224.04,445.27L224.04,445.27z"/>
			</g>
		</g>
		<g>
			<g>
				<path class="st5" d="M221.39,437.79c-0.26-0.04-0.49-0.1-0.77-0.08c-0.26,0.01-0.53,0.1-0.77,0.2
					c-0.52,0.23-0.97,0.64-1.26,1.13c-0.59,0.97-0.47,2.21,0.17,3.13c0.33,0.48,0.8,0.86,1.34,1.1c0.59,0.27,1.23,0.27,1.85,0.12
					c1.16-0.28,2.11-1.24,2.33-2.42c0.12-0.64,0-1.34-0.29-1.92c-0.34-0.67-0.94-1.41-1.72-1.53c-0.36-0.06-0.78,0.14-0.92,0.49
					c-0.15,0.37-0.06,0.75,0.23,1.02c0.06,0.06,0.11,0.1,0.19,0.15c0.03,0.02,0.07,0.04,0.1,0.06c0.09,0.05,0.07,0.04-0.04-0.03
					c0.04-0.01,0.17,0.12,0.2,0.15c0.04,0.03,0.08,0.07,0.11,0.11c0.1,0.08-0.13-0.17-0.01-0.01c0.06,0.08,0.13,0.16,0.18,0.25
					c0.01,0.01,0.11,0.19,0.04,0.06c-0.07-0.13,0.02,0.05,0.03,0.07c0.03,0.08,0.06,0.16,0.09,0.24c0,0.01,0.05,0.21,0.02,0.07
					c-0.03-0.14,0.01,0.06,0.01,0.07c0.02,0.1,0.02,0.21,0.03,0.31c0.01,0.18,0-0.04,0-0.05c0.02,0.02-0.01,0.13-0.01,0.16
					c-0.01,0.07-0.06,0.2-0.05,0.28c-0.02-0.11,0.05-0.15,0.01-0.05c-0.02,0.05-0.04,0.1-0.06,0.14c-0.02,0.05-0.05,0.09-0.07,0.14
					c-0.08,0.16,0.11-0.14-0.01,0.01c-0.06,0.07-0.11,0.15-0.18,0.22c-0.04,0.04-0.12,0.16,0.01,0c-0.02,0.03-0.07,0.06-0.1,0.08
					c-0.07,0.06-0.15,0.11-0.23,0.16c-0.04,0.03-0.16,0.11,0,0.01c-0.05,0.03-0.11,0.06-0.17,0.08c-0.08,0.03-0.16,0.06-0.24,0.08
					c-0.19,0.07,0.12-0.01,0,0c-0.05,0.01-0.1,0.02-0.15,0.03c-0.08,0.01-0.17,0.01-0.25,0.02c0.18-0.01,0.05,0-0.01,0
					c-0.06-0.01-0.12-0.01-0.19-0.02c-0.09-0.01-0.18-0.03-0.27-0.06c0.2,0.05-0.09-0.05-0.14-0.08c-0.04-0.02-0.12-0.08,0.02,0.02
					c-0.03-0.02-0.07-0.05-0.1-0.07c-0.09-0.07-0.17-0.15-0.26-0.22c-0.09-0.07,0.1,0.14-0.01-0.01c-0.03-0.03-0.05-0.06-0.08-0.1
					c-0.06-0.07-0.11-0.15-0.15-0.23c-0.02-0.03-0.07-0.16-0.01-0.02c-0.02-0.04-0.03-0.07-0.05-0.11c-0.04-0.09-0.07-0.19-0.1-0.29
					c0.04,0.14,0,0.01,0-0.03c-0.01-0.05-0.02-0.1-0.02-0.15c0-0.04,0-0.08-0.01-0.12c-0.02-0.19-0.01,0.08,0-0.03
					c0.01-0.09,0.02-0.18,0.04-0.27c0.01-0.04,0.02-0.08,0.03-0.12c-0.04,0.16,0.01-0.01,0.02-0.05c0.04-0.1,0.09-0.2,0.14-0.3
					c0.02-0.03,0.09-0.14,0.01-0.03c0.03-0.05,0.07-0.1,0.11-0.15c0.06-0.08,0.13-0.15,0.2-0.23c0.09-0.09,0.03-0.03,0.01-0.01
					c0.05-0.04,0.1-0.08,0.14-0.11c0.22-0.17,0.33-0.24,0.56-0.34c-0.06,0.03,0.03-0.01,0.04-0.01c0.05-0.02,0.11-0.04,0.17-0.06
					c-0.09,0.04,0.24-0.1,0.13-0.08c-0.05,0.01,0.13,0,0.16,0C221.81,438.56,221.83,437.85,221.39,437.79L221.39,437.79z"/>
			</g>
		</g>
		<g>
			<g>
				<path class="st5" d="M212.97,444.43c-0.8-0.28-1.53-0.4-2.36-0.17c-0.77,0.21-1.49,0.69-1.95,1.34
					c-1.04,1.47-1.02,3.48-0.03,4.97c1,1.51,2.86,2.35,4.64,2.24c1.83-0.11,3.41-1.28,3.82-3.1c0.46-2.06-0.74-4.41-2.49-5.5
					c-0.71-0.44-1.51,0.62-1.03,1.24c0.43,0.55,0.95,1.02,1.32,1.61c0.32,0.51,0.52,1.08,0.55,1.69c0.06,1.19-0.71,2.11-1.86,2.36
					c-2.32,0.5-4.89-1.72-3.93-4.13c0.23-0.57,0.66-1.04,1.19-1.34c0.54-0.31,1.26-0.5,1.86-0.33
					C213.2,445.44,213.46,444.6,212.97,444.43L212.97,444.43z"/>
			</g>
		</g>
		<g>
			<g>
				<path class="st5" d="M220.42,466.09c-1.09-0.28-2.2,0.37-2.62,1.39c-0.47,1.14-0.04,2.47,0.91,3.24
					c0.94,0.76,2.3,0.87,3.39,0.36c1.18-0.56,2.04-1.72,1.97-3.06c-0.04-0.67-0.4-1.34-0.93-1.75c-0.55-0.43-1.59-0.81-2.19-0.28
					c-0.25,0.22-0.39,0.48-0.31,0.82c0.08,0.33,0.32,0.52,0.64,0.6c-0.32-0.09,0.13,0.03,0.21,0.03c0.08,0,0.15,0,0.22,0
					c0.13-0.01-0.05,0-0.05,0c0,0,0.1,0.01,0.11,0.01c0.02,0,0.04,0.01,0.06,0.01c0.07,0.02,0.07,0.02,0,0
					c-0.02-0.01-0.04-0.01-0.05-0.02c0.04,0.01,0.07,0.03,0.11,0.04c0.04,0.02,0.07,0.03,0.1,0.05c0.17,0.08-0.14-0.12,0,0
					c0.07,0.05,0.13,0.12,0.2,0.17c0.09,0.06-0.11-0.16-0.01-0.01c0.02,0.03,0.05,0.06,0.07,0.09c0,0,0.07,0.09,0.06,0.1
					c0-0.02-0.07-0.16-0.02-0.04c0.02,0.05,0.03,0.09,0.05,0.14c0.01,0.03,0.02,0.06,0.03,0.08c-0.02-0.1-0.03-0.12-0.02-0.06
					c0,0.03,0.06,0.27,0.03,0.29c0.01-0.01,0.02-0.15,0-0.02c-0.01,0.05-0.01,0.11-0.02,0.16c-0.01,0.04-0.01,0.13-0.03,0.16
					c0.01-0.01,0.07-0.19,0.01-0.03c-0.04,0.1-0.08,0.21-0.13,0.31c0,0.01-0.12,0.19-0.04,0.08c0.07-0.11-0.05,0.07-0.05,0.07
					c-0.05,0.07-0.11,0.14-0.17,0.21c0,0-0.16,0.15-0.06,0.07c0.09-0.09-0.07,0.05-0.07,0.06c-0.08,0.07-0.17,0.13-0.27,0.18
					c-0.04,0.02-0.07,0.04-0.11,0.06c0.15-0.08,0.02-0.01-0.02,0c-0.09,0.04-0.18,0.07-0.27,0.1c-0.04,0.01-0.08,0.02-0.12,0.04
					c0.16-0.05,0.02,0-0.02,0c-0.12,0.02-0.23,0.04-0.35,0.04c-0.04,0-0.09,0-0.13,0c0.03,0,0.16,0.01,0.01,0
					c-0.1-0.01-0.19-0.02-0.29-0.04c-0.05-0.01-0.1-0.02-0.16-0.04c0.03,0.01,0.15,0.06,0.02,0c-0.1-0.04-0.19-0.09-0.29-0.13
					c-0.18-0.08,0.08,0.07-0.01-0.01c-0.04-0.03-0.09-0.06-0.13-0.09c-0.07-0.05-0.13-0.11-0.19-0.17
					c-0.14-0.13,0.05,0.08-0.02-0.02c-0.03-0.04-0.07-0.08-0.1-0.13c-0.02-0.03-0.05-0.07-0.07-0.1c-0.01-0.02-0.11-0.2-0.03-0.05
					c-0.04-0.09-0.08-0.17-0.11-0.26c-0.02-0.05-0.03-0.1-0.05-0.15c-0.01-0.04-0.01-0.13,0,0c-0.01-0.09-0.03-0.18-0.03-0.28
					c0-0.04,0.01-0.17,0-0.03c0.01-0.06,0.01-0.12,0.02-0.18c0.01-0.04,0.02-0.08,0.02-0.11c0.04-0.17-0.06,0.13,0.01-0.04
					c0.04-0.09,0.08-0.17,0.13-0.26c-0.06,0.12-0.03,0.04-0.01,0.01c0.04-0.05,0.07-0.09,0.11-0.14c0.07-0.08,0.13-0.16,0.21-0.24
					c0.07-0.08-0.12,0.09,0.03-0.02c0.05-0.03,0.09-0.07,0.14-0.1c0.08-0.05,0.15-0.11,0.23-0.16c0.08-0.05,0.28-0.11,0.45-0.13
					c0.21-0.02,0.39-0.21,0.39-0.42C220.79,466.31,220.64,466.15,220.42,466.09L220.42,466.09z"/>
			</g>
		</g>
		<g>
			<g>
				<path class="st5" d="M229.43,473.86c0.2,0.04-0.35-0.27-0.03,0c0.06,0.05,0.13,0.08,0.2,0.11c0.03,0.01,0.05,0.03,0.08,0.04
					c0.14,0.07-0.09-0.08,0.03,0.02c0.07,0.05,0.14,0.1,0.21,0.14c-0.13-0.07-0.05-0.03-0.02-0.01c0.08,0.07,0.17,0.14,0.25,0.22
					c0.09,0.09-0.01-0.02-0.02-0.02c0.03,0.01,0.07,0.09,0.09,0.11c0.05,0.06,0.09,0.13,0.14,0.19c0.03,0.04,0.05,0.08,0.07,0.12
					c0.09,0.14-0.05-0.14,0,0.01c0.03,0.09,0.07,0.17,0.1,0.26c0.05,0.15-0.02-0.15,0,0.01c0,0.03,0.01,0.06,0.01,0.09
					c0.01,0.05,0.01,0.09,0.01,0.14c0,0.02,0,0.03,0,0.05c0,0.08,0,0.06,0-0.04c0.02,0.02-0.03,0.21-0.03,0.23
					c0,0.02-0.01,0.03-0.01,0.05c-0.02,0.08-0.01,0.06,0.02-0.05c-0.02,0.01-0.04,0.11-0.05,0.13c-0.02,0.04-0.14,0.22-0.13,0.25
					c0-0.01,0.11-0.15,0.03-0.05c-0.03,0.04-0.06,0.08-0.09,0.11c-0.01,0.01-0.16,0.17-0.16,0.17c0.02-0.02,0.05-0.04,0.07-0.07
					c-0.02,0.02-0.05,0.04-0.07,0.06c-0.04,0.03-0.09,0.07-0.13,0.1c-0.03,0.02-0.07,0.04-0.1,0.06c-0.01,0.01-0.03,0.02-0.04,0.02
					c-0.07,0.04-0.06,0.03,0.05-0.02c-0.01-0.01-0.2,0.08-0.22,0.09c-0.02,0.01-0.12,0.02-0.13,0.04c0.05-0.06,0.16-0.03,0.03-0.01
					c-0.08,0.01-0.23-0.01-0.3,0.02c0.12-0.05,0.14,0.01,0.04,0c-0.04-0.01-0.08-0.01-0.12-0.02c-0.04-0.01-0.1-0.03-0.14-0.03
					c0.13-0.01,0.15,0.06,0.05,0.01c-0.08-0.03-0.16-0.06-0.23-0.11c-0.02-0.01-0.16-0.09-0.03-0.01c0.13,0.08-0.04-0.03-0.06-0.05
					c-0.06-0.05-0.12-0.1-0.18-0.15c-0.01-0.01-0.02-0.02-0.03-0.03c-0.06-0.06-0.04-0.05,0.05,0.05c-0.02-0.04-0.06-0.08-0.09-0.11
					c-0.05-0.06-0.09-0.13-0.13-0.2c-0.09-0.14,0.08,0.18,0.01,0.02c-0.02-0.04-0.04-0.09-0.06-0.13c-0.02-0.04-0.03-0.09-0.05-0.13
					c0-0.02-0.01-0.03-0.01-0.05c-0.02-0.09-0.02-0.06,0.02,0.07c0.01-0.07-0.03-0.16-0.03-0.23c-0.01-0.09,0.04-0.17-0.01,0.03
					c0.01-0.03,0-0.06,0.01-0.09c0-0.05,0.01-0.09,0.02-0.14c0.01-0.03,0.01-0.06,0.02-0.09c0.02-0.09,0.01-0.06-0.03,0.09
					c0.04-0.08,0.07-0.18,0.11-0.26c0.02-0.03,0.04-0.07,0.06-0.1c0.04-0.06,0.02-0.03-0.06,0.1c0.02-0.03,0.04-0.05,0.05-0.08
					c0.06-0.08,0.12-0.14,0.18-0.22c0.12-0.13-0.17,0.14-0.03,0.03c0.04-0.03,0.09-0.07,0.13-0.1c0.03-0.02,0.06-0.05,0.1-0.07
					c0.06-0.04,0.26-0.12,0-0.01c0.09-0.04,0.17-0.08,0.26-0.11c0.04-0.02,0.09-0.03,0.13-0.04c0.16-0.05-0.2,0.03-0.04,0.01
					c0.1-0.01,0.22-0.03,0.31-0.06c0.14-0.04-0.22,0.04,0.01,0c0.41-0.07,0.73-0.37,0.74-0.8c0.01-0.43-0.28-0.74-0.69-0.84
					c-0.58-0.15-1.22,0.06-1.72,0.38c-0.45,0.29-0.84,0.74-1.05,1.24c-0.48,1.09-0.15,2.31,0.71,3.11c0.39,0.36,0.91,0.61,1.44,0.68
					c0.59,0.07,1.14-0.07,1.66-0.36c0.89-0.5,1.5-1.6,1.32-2.63c-0.1-0.59-0.39-1.16-0.85-1.55c-0.25-0.21-0.53-0.38-0.84-0.46
					c-0.11-0.03-0.22-0.05-0.34-0.06c-0.1-0.01-0.2-0.02-0.3,0.01c0.04-0.01-0.16,0.05-0.08,0.03c0.05-0.01-0.07,0-0.08,0
					c-0.22,0.01-0.39,0.22-0.39,0.43C229.06,473.63,229.21,473.81,229.43,473.86L229.43,473.86z"/>
			</g>
		</g>
		<g>
			<g>
				<path class="st5" d="M246.9,513.22c-0.69,0.14-1.4,0.11-2.09,0.19c-0.61,0.07-1.22,0.18-1.83,0.27
					c-1.22,0.18-2.44,0.35-3.67,0.45c-2.61,0.23-5.24,0.27-7.85,0.1c-2.55-0.17-5.09-0.49-7.59-1.01c-1.25-0.26-2.49-0.57-3.72-0.92
					c-1.26-0.36-2.5-0.9-3.78-1.14c-0.84-0.15-1.07,0.96-0.41,1.35c1.11,0.65,2.45,0.97,3.68,1.33c1.27,0.37,2.55,0.7,3.85,0.97
					c2.63,0.56,5.31,0.91,7.99,1.04c2.62,0.12,5.25,0.06,7.87-0.21c1.31-0.14,2.63-0.31,3.93-0.56c0.62-0.12,1.24-0.25,1.84-0.43
					c0.67-0.2,1.29-0.54,1.96-0.74C247.44,513.78,247.3,513.14,246.9,513.22L246.9,513.22z"/>
			</g>
		</g>
	</g>
	<g>
		<g>
			<path class="st7" d="M224.45,671c-2.82-0.82-5.8-1.26-8.88-1.26c-15.21,0-27.92,10.65-31.11,24.89
				C200.73,693.92,215.47,684.2,224.45,671z"/>
		</g>
		<g>
			<path class="st3" d="M234.84,676.23c-3.08-2.34-6.59-4.13-10.39-5.23c-8.98,13.21-23.72,22.92-39.98,23.63
				c-0.5,2.25-0.78,4.59-0.78,6.99c0,1.93,0.18,3.81,0.51,5.65C204.58,705.54,224.88,694.47,234.84,676.23z"/>
		</g>
		<g>
			<path class="st9" d="M243.19,685.69c-2.13-3.68-4.98-6.9-8.35-9.46c-9.97,18.24-30.27,29.32-50.65,31.03
				c1.01,5.62,3.49,10.74,7.03,14.93C212.89,717.67,232.54,705.07,243.19,685.69z"/>
		</g>
		<g>
			<path class="st7" d="M201.24,730.09c4.31,2.17,9.17,3.41,14.33,3.41c17.61,0,31.88-14.27,31.88-31.88c0-0.15-0.01-0.31-0.01-0.46
				C236.59,715.86,219.12,726.31,201.24,730.09z"/>
		</g>
		<g>
			<path class="st3" d="M247.45,701.16c-0.08-5.63-1.62-10.91-4.25-15.47c-10.65,19.37-30.3,31.98-51.97,36.5
				c2.76,3.27,6.17,5.96,10.02,7.9C219.12,726.31,236.59,715.86,247.45,701.16z"/>
		</g>
		<g>
			<path class="st5" d="M215.57,734.45c-18.1,0-32.83-14.73-32.83-32.83c0-18.1,14.73-32.83,32.83-32.83s32.83,14.73,32.83,32.83
				C248.4,719.72,233.67,734.45,215.57,734.45z M215.57,670.68c-17.06,0-30.94,13.88-30.94,30.94s13.88,30.94,30.94,30.94
				c17.06,0,30.94-13.88,30.94-30.94S232.63,670.68,215.57,670.68z"/>
		</g>
		<g>
			<g>
				<path class="st5" d="M234.31,675.97c-1.4,1.32-2.37,3.15-3.5,4.7c-1.17,1.61-2.43,3.16-3.76,4.64c-2.6,2.9-5.46,5.56-8.52,7.96
					c-6.19,4.84-13.31,8.53-20.84,10.79c-2.13,0.64-4.29,1.16-6.48,1.57c-2.19,0.4-4.39,0.61-6.58,0.97
					c-0.93,0.15-0.68,1.59,0.22,1.61c2.01,0.03,4.07-0.27,6.05-0.61c2-0.34,3.97-0.78,5.93-1.32c3.91-1.08,7.71-2.53,11.35-4.32
					c7.23-3.55,13.85-8.44,19.26-14.41c1.51-1.67,2.94-3.43,4.26-5.25c1.28-1.75,2.85-3.74,3.37-5.88
					C235.17,675.97,234.64,675.66,234.31,675.97L234.31,675.97z"/>
			</g>
		</g>
		<g>
			<g>
				<path class="st5" d="M191.96,722.16c2.06,0.02,4.17-0.51,6.16-1c2.05-0.51,4.08-1.11,6.07-1.81c3.94-1.38,7.76-3.14,11.39-5.19
					c7.38-4.17,14.02-9.53,19.56-15.94c3.09-3.57,5.91-7.46,8.16-11.62c0.52-0.97-0.92-1.81-1.47-0.86
					c-4.17,7.15-9.33,13.54-15.63,18.92c-6.29,5.38-13.38,9.63-21.09,12.66c-2.12,0.83-4.27,1.56-6.46,2.2
					c-2.25,0.65-4.61,1.04-6.81,1.83C191.42,721.5,191.47,722.15,191.96,722.16L191.96,722.16z"/>
			</g>
		</g>
	</g>
	<g>
		<g>
			<path class="st9" d="M128.33,783.64c3.15,7.19,2.41,15.76-1.16,22.75c-3.57,6.99-9.75,12.45-16.77,15.96
				c-7.02,3.51-14.84,5.17-22.67,5.78c-0.02,3.4-1.26,6.83-3.69,9.19c-2.44,2.35-6.12,3.48-9.37,2.5c-2.79-0.83-5.07-3.32-5.56-6.16
				c0.75,1.06,1.73,1.9,2.99,2.31c2.47,0.81,5.21-0.34,7.13-2.08c3.02-2.76,4.52-7.09,3.86-11.13c8.93,1.12,18.18-1.22,25.78-6.07
				c7.59-4.84,13.54-12.09,17.28-20.28c1.79-3.91,3.01-8.64,1.48-12.49L128.33,783.64z"/>
		</g>
		<g>
			<path class="st9" d="M66.19,821.13c-2.85-1.66-6.56-1.01-9.56-2.39c-2.16-1-3.74-2.97-4.73-5.13c-0.97-2.12-1.45-4.42-1.9-6.7
				l0,0c0.07,0.36,0.16,0.71,0.3,1.05c1.08,2.72,3.96,4.23,6.68,5.3c2.73,1.07,5.69,2.04,7.52,4.32
				C65.34,818.63,65.86,819.84,66.19,821.13z"/>
		</g>
		<g>
			<path class="st9" d="M127.63,783.94c1.53,3.85,0.31,8.58-1.48,12.49c-3.74,8.19-9.69,15.44-17.28,20.28
				c-7.59,4.85-16.84,7.19-25.78,6.07c0.66,4.04-0.85,8.37-3.86,11.13c-1.92,1.75-4.67,2.89-7.13,2.08
				c-1.26-0.42-2.24-1.25-2.99-2.31c-1.2-1.71-1.81-4.02-2.05-6.15c-0.24-2.12-0.33-4.35-0.87-6.4c-0.33-1.29-0.85-2.49-1.69-3.54
				c-1.83-2.28-4.79-3.25-7.52-4.32c-2.72-1.07-5.61-2.58-6.68-5.3c-0.14-0.35-0.23-0.7-0.3-1.05c-0.47-2.5,0.72-5.24,2.7-6.88
				c2.28-1.89,5.38-2.52,8.33-2.34c2.95,0.18,5.8,1.09,8.61,2c4.1-7.31,9.79-16.7,17.17-20.68c8.39-4.52,18.57-3.57,28-2.17
				c4.44,0.66,9.36,1.69,11.9,5.38C127.09,782.77,127.39,783.35,127.63,783.94z"/>
		</g>
		<g>
			<g>
				<path class="st5" d="M69.92,798.88c-5.71-2.13-13.23-4.07-18.27,0.66c-1.98,1.86-3.15,4.68-2.72,7.4
					c0.49,3.11,3.07,5.16,5.74,6.45c2.64,1.28,5.7,1.91,8.01,3.81c2.72,2.23,2.93,5.93,3.24,9.18c0.27,2.82,0.77,5.68,2.46,8.03
					c1.61,2.24,4.31,3.3,7.02,2.7c6.19-1.39,9.63-8.66,8.74-14.53c-0.37,0.41-0.73,0.82-1.1,1.23c9.41,1.15,19.13-1.41,27-6.63
					c7.83-5.2,14.14-13.01,17.66-21.74c1.6-3.97,2.58-8.82,0.48-12.8c-2.07-3.92-6.35-5.51-10.45-6.34
					c-4.66-0.93-9.5-1.5-14.25-1.62c-4.77-0.12-9.58,0.35-14.07,2.04c-8.82,3.32-14.35,11.77-18.86,19.58
					c-0.55,0.96-1.1,1.92-1.63,2.89c-0.56,1,0.93,2.01,1.5,0.99c2.16-3.81,4.45-7.59,7.08-11.1c2.52-3.36,5.47-6.65,9.14-8.79
					c7.95-4.65,17.7-3.89,26.46-2.67c3.86,0.54,8.37,1.01,11.45,3.67c3.25,2.81,3.18,7.31,2.06,11.12
					c-1.24,4.22-3.53,8.24-6.09,11.8c-2.57,3.59-5.66,6.8-9.15,9.5c-7.95,6.16-18.15,9.24-28.17,8.01c-0.69-0.08-1.19,0.6-1.1,1.23
					c0.71,4.64-1.56,9.99-6.1,11.81c-2.25,0.9-4.56,0.33-5.99-1.65c-1.45-2.01-1.8-4.59-2.02-6.99c-0.28-2.98-0.51-6.1-2.24-8.65
					c-1.53-2.25-3.99-3.47-6.45-4.46c-2.46-0.99-5.22-1.83-7.02-3.9c-1.64-1.89-1.61-4.49-0.33-6.57c1.62-2.65,4.8-3.78,7.79-3.83
					c3.31-0.06,6.5,0.91,9.66,1.77C70.43,800.78,70.96,799.27,69.92,798.88L69.92,798.88z"/>
			</g>
		</g>
		<g>
			<g>
				<path class="st5" d="M49.55,806.74c-0.21,2.32,0.63,4.99,1.56,7.09c0.85,1.94,2.16,3.75,3.93,4.95c1.6,1.09,3.46,1.48,5.35,1.74
					c0.92,0.13,1.86,0.22,2.77,0.4c1,0.2,1.86,0.67,2.82,0.95c0.68,0.2,1.43-0.68,0.83-1.24c-1.23-1.14-3.32-1.36-4.91-1.58
					c-1.78-0.24-3.66-0.37-5.28-1.24c-1.82-0.98-3.13-2.72-3.99-4.56c-0.5-1.06-0.87-2.17-1.18-3.29c-0.32-1.12-0.55-2.34-1.09-3.38
					C50.15,806.21,49.59,806.32,49.55,806.74L49.55,806.74z"/>
			</g>
		</g>
		<g>
			<g>
				<path class="st5" d="M68.49,832.23c-0.71,4.26,3.1,7.98,7.06,8.69c4.4,0.78,8.84-1.67,11.09-5.41c1.32-2.2,1.98-4.75,2.02-7.31
					c-0.25,0.28-0.5,0.56-0.75,0.85c10.06-0.79,20.17-3.38,28.53-9.23c7.5-5.25,13.16-13.09,14.51-22.26
					c0.69-4.67,0.38-10.05-1.93-14.25c-0.39-0.71-1.72-0.38-1.44,0.48c1.29,3.99,2.09,7.92,1.7,12.12
					c-0.39,4.2-1.77,8.27-3.94,11.88c-4.77,7.91-12.8,13.37-21.45,16.28c-5.27,1.77-10.79,2.71-16.32,3.16
					c-0.39,0.03-0.75,0.47-0.75,0.85c-0.07,4.77-2.65,9.68-7.55,10.94c-2.27,0.59-4.68,0.28-6.58-1.14
					c-1.81-1.34-2.88-3.49-3.14-5.71C69.46,831.53,68.58,831.68,68.49,832.23L68.49,832.23z"/>
			</g>
		</g>
		<g>
			<g>
				<path class="st5" d="M85.62,791.71c-0.27,0.24-0.6,0.28-0.85,0.58c-0.25,0.3-0.41,0.68-0.51,1.05c-0.23,0.84-0.2,1.8,0.07,2.62
					c0.67,2.07,2.56,3.38,4.31,4.5c-0.12-0.34-0.23-0.68-0.35-1.02c-1.25,2.83-0.86,6.18,0.96,8.68c1.64,2.26,4.91,3.98,7.76,3.48
					c0.98-0.17,0.9-1.68-0.1-1.74c-1.22-0.07-2.33-0.13-3.47-0.64c-1.08-0.49-2.05-1.25-2.75-2.21c-1.48-2.01-1.66-4.73-0.72-7
					c0.14-0.34-0.03-0.83-0.35-1.02c-1.37-0.82-2.92-1.74-3.62-3.25c-0.26-0.56-0.41-1.19-0.37-1.81c0.02-0.34,0.1-0.63,0.21-0.95
					c0.06-0.19,0.09-0.64,0.23-0.79C86.35,791.91,85.94,791.43,85.62,791.71L85.62,791.71z"/>
			</g>
		</g>
		<g>
			<g>
				<path class="st5" d="M96.31,785.9c-0.24,0.41-0.57,0.7-0.74,1.16c-0.16,0.44-0.24,0.93-0.26,1.39c-0.05,0.96,0.16,1.94,0.6,2.79
					c0.9,1.77,2.65,2.89,4.59,3.15c-0.26-0.39-0.52-0.79-0.78-1.18c-1.03,3.06-0.3,6.67,2.02,8.97c1.09,1.07,2.47,1.86,3.95,2.24
					c1.47,0.37,3.34,0.52,4.75-0.15c0.93-0.44,0.39-1.72-0.54-1.62c-1.3,0.13-2.43,0.36-3.74,0.02c-1.18-0.31-2.29-0.9-3.15-1.77
					c-1.82-1.85-2.42-4.65-1.6-7.1c0.19-0.57-0.21-1.11-0.78-1.18c-1.35-0.18-2.61-1.01-3.23-2.24c-0.3-0.59-0.44-1.25-0.47-1.91
					c-0.02-0.61-0.01-1.58,0.23-2.14C97.38,785.82,96.59,785.43,96.31,785.9L96.31,785.9z"/>
			</g>
		</g>
		<g>
			<path class="st5" d="M109.06,781.3c0.79,1.61,0.13,3.55-1.48,4.34c-1.61,0.79-3.55,0.13-4.34-1.48
				c-0.79-1.61-0.13-3.55,1.48-4.34C106.33,779.03,108.27,779.69,109.06,781.3z"/>
		</g>
	</g>
	<g>
		<g>
			<path class="st7" d="M165.64,870.76c0.77,0.77,1.77,1.34,2.38,2.25c0.96,1.43,0.7,3.32,0.52,5.04c-0.04,0.37-0.07,0.74-0.1,1.11
				c-0.67,9.63,2.95,19.05,9.56,26.07c8.87,9.42,17.07,14.78,26.03,19.03l0.22-0.44c11.99-9.48,19.37-24.54,19.52-39.82l0.13-0.28
				c-1.7-0.82-3.48-1.47-5.31-1.93l-2.4-1.41c4.53-2.52,9.27-5.85,10.42-10.91c0.89-3.89-0.68-8.07-3.42-10.98
				c-2.74-2.9-6.51-4.66-10.37-5.66c-3.07-0.8-6.81-0.98-8.91,1.39c-1.08,1.22-1.48,2.87-1.85,4.45c-1.15,4.93-2.29,9.85-3.44,14.78
				l-1.5,0.03c-5.82,0.23-11.67-0.36-17.33-1.74c-2.39-0.58-4.89-1.39-6.49-3.26c-1.54-1.78-2.29-4.52-4.62-5.14
				c-1.14-0.3-2.38,0.06-3.25,0.86C163.44,866.03,163.93,869.04,165.64,870.76z"/>
		</g>
		<g>
			<path class="st3" d="M163.85,867.63c-0.01,0.61,0.22,1.21,0.56,1.7c0.37,0.55,0.83,1.02,1.26,1.51c0.5,0.56,0.98,1.18,1.55,1.67
				c0.54,0.48,1.18,0.82,1.91,0.89c0.68,0.07,1.37-0.04,2.03-0.2c0.95-0.23,1.45-0.9,1.68-1.72c0.42-0.74,0.57-1.69,0.47-2.48
				c-0.18-1.4-0.9-2.57-1.8-3.62c-0.44-0.52-0.92-1.09-1.51-1.46c-0.62-0.39-1.4-0.38-2.11-0.38c-0.67,0-1.36,0.13-1.91,0.53
				c-0.56,0.41-0.95,0.97-1.33,1.53C164.22,866.22,163.87,866.88,163.85,867.63z"/>
		</g>
		<g>
			<path class="st3" d="M198.04,895.35c-1.62,1.1-2.99,2.82-3.41,4.76c-0.38,1.69-0.07,3.45,0.71,4.98
				c1.58,3.09,5.38,4.36,8.61,3.34c2.61-0.83,4.7-3.32,4.77-5.96c0.2-1.51-0.19-3.09-0.94-4.43
				C205.89,894.68,201.38,893.07,198.04,895.35z"/>
		</g>
		<g>
			<path class="st3" d="M223.77,883.99c-0.15,15.29-7.53,30.34-19.52,39.82l-0.22,0.44c3.8,1.8,7.73,3.41,11.92,5.05l0.26-0.67
				c10.39-9.95,16.3-24.41,15.84-38.79l0.17-0.17c-2.4-2.46-5.23-4.49-8.33-5.97L223.77,883.99z"/>
		</g>
		<g>
			<path class="st7" d="M216.22,928.64l-0.26,0.67c0.48,0.18,0.95,0.37,1.43,0.55c2.69,1.05,5.52,1.99,8.39,1.74
				c4.94-0.42,8.91-4.3,11.28-8.71c0.15-0.29,0.3-0.58,0.44-0.87c0.32-0.67,0.62-1.35,0.88-2.04c2.92-7.57,2.49-16.4-1.26-23.61
				c-1.28-2.46-2.94-4.72-4.88-6.7l-0.17,0.17C232.51,904.23,226.6,918.69,216.22,928.64z"/>
		</g>
		<g>
			<path class="st3" d="M238.38,919.98c-0.26,0.69-0.56,1.37-0.88,2.04c-0.14,0.29-0.29,0.58-0.44,0.87l0.68,0.37
				c4.79,2,10.33-1.31,13.16-5.66c2.82-4.35,3.86-9.6,6.02-14.32c2.43-5.32,6.57-10.15,12.11-12.02c5.05-1.71,11.27-0.36,14.52,3.74
				c-2.33-3.53-6.59-5.69-10.86-5.83c-4.78-0.16-9.46,1.96-12.97,5.21c-3.51,3.24-5.94,7.51-7.6,12c-0.84,2.28-1.5,4.62-2.5,6.83
				c-1,2.21-2.39,4.32-4.38,5.71C243.26,920.3,240.62,920.87,238.38,919.98z"/>
		</g>
		<g>
			<g>
				<path class="st5" d="M198.13,873.32c0.35-2.73,1.11-5.43,1.72-8.11c0.6-2.68,1.14-5.39,1.85-8.04c0.6-2.21,1.71-4.11,3.88-5.05
					c1.77-0.77,3.79-0.74,5.67-0.45c4.64,0.72,9.53,2.94,12.71,6.45c2.74,3.04,4.33,7.31,3.44,11.39
					c-1.19,5.47-6.22,8.92-10.8,11.49c-0.84,0.47-1.65-0.81-0.79-1.28c3.74-2.09,7.78-4.69,9.53-8.79
					c1.55-3.61,0.53-7.69-1.73-10.75c-2.66-3.61-7.07-5.68-11.33-6.71c-1.67-0.4-3.48-0.63-5.17-0.23
					c-2.11,0.49-3.31,1.93-3.93,3.97c-0.81,2.66-1.32,5.44-1.97,8.15c-0.65,2.72-1.16,5.53-2.07,8.17
					C198.91,874.17,198.04,873.98,198.13,873.32L198.13,873.32z"/>
			</g>
		</g>
		<g>
			<g>
				<path class="st5" d="M216.33,880.84c6.92,0.52,13.47,4.62,17.89,9.83c4.41,5.21,6.83,11.84,6.87,18.66
					c0.04,6.4-1.89,13.17-6.17,18.04c-2.02,2.29-4.68,4.19-7.71,4.81c-3.6,0.73-7.08-0.42-10.41-1.71
					c-6.3-2.44-12.58-4.99-18.49-8.26c-6.27-3.47-12.03-7.77-17.2-12.73c-2.64-2.53-5.21-5.16-7.28-8.19
					c-1.84-2.68-3.32-5.62-4.38-8.7c-1.04-3.04-1.67-6.23-1.84-9.44c-0.09-1.67-0.04-3.34,0.12-5.01c0.14-1.52,0.51-3.37-0.4-4.73
					c-0.48-0.72-1.26-1.2-1.9-1.77c-0.61-0.55-1.12-1.19-1.48-1.93c-0.66-1.37-0.82-2.97-0.25-4.4c0.59-1.48,1.94-2.61,3.53-2.85
					c1.66-0.26,3.14,0.55,4.17,1.8c1.09,1.32,1.72,2.98,2.98,4.15c1.46,1.36,3.45,1.98,5.35,2.46c3.79,0.95,7.69,1.54,11.59,1.74
					c1.92,0.1,3.85,0.11,5.78,0.05c1-0.03,1.06,1.51,0.06,1.55c-3.75,0.17-7.51-0.03-11.23-0.54c-1.87-0.26-3.72-0.6-5.56-1.02
					c-1.73-0.4-3.48-0.85-5.07-1.68c-1.59-0.83-2.75-2.04-3.7-3.54c-0.78-1.24-1.56-2.93-3.1-3.36c-1.52-0.43-3.04,0.69-3.45,2.14
					c-0.37,1.32,0.09,2.79,0.99,3.79c1.12,1.25,2.6,1.95,3.16,3.65c0.48,1.46,0.25,3.04,0.1,4.54c-0.31,3.17-0.17,6.4,0.46,9.52
					c1.22,6.07,4.11,11.76,8.26,16.35c4.78,5.29,10.3,10.03,16.29,13.9c5.34,3.44,11.09,6.17,16.96,8.59
					c3.1,1.28,6.24,2.68,9.47,3.61c3.14,0.9,6.31,0.91,9.21-0.74c5.35-3.05,8.19-9.41,9.15-15.26c1.02-6.25-0.06-12.89-3.22-18.4
					c-3.33-5.8-8.79-10.25-15.05-12.56c-1.5-0.55-3.05-1.03-4.6-1.44C215.75,881.65,215.77,880.8,216.33,880.84L216.33,880.84z"/>
			</g>
		</g>
		<g>
			<g>
				<path class="st5" d="M284.08,896.48c-1.03-1.63-2.8-2.92-4.5-3.76c-1.77-0.87-3.77-1.3-5.73-1.33
					c-4.27-0.06-8.18,1.99-11.14,4.98c-3.37,3.4-5.22,7.68-6.79,12.13c-1.58,4.49-3.14,9.31-6.74,12.63
					c-3.02,2.79-7.87,4.98-11.87,2.93c-0.91-0.46-0.38-2.03,0.63-1.72c1.83,0.56,3.55,0.69,5.4,0.09c1.84-0.59,3.49-1.71,4.85-3.07
					c3.54-3.53,4.81-8.64,6.5-13.19c1.64-4.4,3.89-8.59,7.4-11.78c3.18-2.89,7.23-4.81,11.59-4.71c2.27,0.05,4.51,0.59,6.52,1.66
					c0.98,0.53,1.89,1.2,2.68,1.99c0.81,0.81,1.34,1.72,1.88,2.72C284.99,896.51,284.35,896.92,284.08,896.48L284.08,896.48z"/>
			</g>
		</g>
		<g>
			<g>
				<path class="st5" d="M283.91,896.55c-1.18-1.66-2.35-3.21-4.07-4.37c-1.64-1.1-3.5-1.83-5.44-2.16
					c-3.9-0.67-7.91,0.48-11.22,2.54c-3.86,2.4-6.7,6.02-8.73,10.04c-1.07,2.12-1.88,4.34-2.65,6.59c-0.75,2.21-1.53,4.43-2.76,6.43
					c-2.26,3.67-6.58,6.65-10.99,4.88c-0.72-0.29-0.14-1.31,0.56-1.05c4.41,1.63,8.25-2.12,10.07-5.73c1.12-2.23,1.8-4.63,2.63-6.97
					c0.78-2.19,1.71-4.33,2.88-6.35c2.19-3.79,5.19-7.24,9.03-9.42c3.39-1.93,7.37-2.91,11.25-2.32c2.2,0.34,4.34,1.2,6.16,2.48
					c1.74,1.23,3.44,2.95,4.09,5.04C284.89,896.68,284.2,896.96,283.91,896.55L283.91,896.55z"/>
			</g>
		</g>
		<g>
			<path class="st3" d="M204.11,872.85c4.21,12.27,18.41,2.91,19.12-6.36c-0.15-5.44-7.1-9.11-12.02-8.66
				C205.11,859.3,202.31,867.29,204.11,872.85z"/>
		</g>
		<g>
			<path class="st5" d="M194.07,886.37c-3.1,5.89,4.74,9.91,7.7,3.94C204.87,884.42,197.03,880.41,194.07,886.37z"/>
		</g>
	</g>
	<g>
		<g>
			<path class="st3" d="M112.24,956.98c-2.89-1.73-6.02-2.71-9.28-1.61c-3.41,1.15-5.98,4.07-9.34,5.38c-2.57,1-5.49,1-7.92,2.3
				c-3.74,2-5.39,6.91-4.22,10.98c1.16,4.08,4.7,7.22,8.71,8.59c2.68,0.92,5.62,1.16,8.09,2.57c2.62,1.49,4.41,4.12,6.97,5.71
				c2.75,1.71,6.31,2.03,9.33,0.86c3.02-1.18,5.41-3.83,6.28-6.94c0.91-3.27,0.19-6.78-0.9-10c-1.09-3.22-2.54-6.35-3.11-9.7
				c-0.29-1.67-0.36-3.4-0.97-4.98C115.26,958.56,113.71,957.67,112.24,956.98z"/>
		</g>
		<g>
			<path class="st3" d="M89.19,937.03c-1.69,0.76-3.03,2.18-3.93,3.81c-0.9,1.62-1.39,3.44-1.73,5.27c-0.47,2.6-0.62,5.35,0.32,7.82
				c0.95,2.47,3.21,4.57,5.85,4.66c2.66,0.1,5.08-1.86,6.2-4.27c1.12-2.41,1.16-5.19,0.88-7.83c-0.21-2.04-0.62-4.11-1.65-5.88
				C94.12,938.82,92.91,936.71,89.19,937.03"/>
		</g>
		<g>
			<path class="st3" d="M118,930.64c-2.4-2.59-6.27-2.21-8.68-0.89c-2.41,1.32-4.18,3.59-5.52,5.99c-1.02,1.82-1.84,3.77-2.23,5.82
				c-0.38,2.05-0.3,4.22,0.43,6.17c0.49,1.29,1.3,2.52,2.51,3.18c1.92,1.07,4.34,0.49,6.31-0.49c3.84-1.92,6.91-5.34,8.4-9.37
				c0.64-1.73,1-3.58,0.85-5.41C119.92,933.81,119.25,931.99,118,930.64z"/>
		</g>
		<g>
			<path class="st3" d="M142.13,964.73c0.34,1.82-0.07,3.73-0.89,5.4c-0.82,1.66-2.03,3.11-3.34,4.42
				c-1.87,1.87-4.04,3.57-6.61,4.19c-2.57,0.63-5.58-0.04-7.17-2.15c-1.59-2.13-1.36-5.23-0.02-7.53c1.34-2.3,3.6-3.91,5.93-5.19
				c1.8-0.99,3.73-1.83,5.77-2C137.84,961.7,140.27,961.49,142.13,964.73"/>
		</g>
		<g>
			<path class="st3" d="M130.95,937.41c3.5,0.5,5.39,3.89,5.68,6.63c0.29,2.74-0.57,5.48-1.78,7.95c-0.92,1.88-2.05,3.66-3.52,5.15
				c-1.47,1.48-3.29,2.65-5.32,3.16c-1.34,0.34-2.81,0.37-4.04-0.24c-1.97-0.97-2.88-3.29-3.19-5.46
				c-0.61-4.25,0.45-8.72,2.91-12.24c1.05-1.51,2.37-2.86,3.96-3.78C127.25,937.64,129.13,937.17,130.95,937.41z"/>
		</g>
		<g>
			<g>
				<path class="st5" d="M112.57,956.62c-3.21-2.45-7.34-3.21-11.07-1.49c-1.87,0.86-3.52,2.12-5.24,3.24
					c-1.77,1.15-3.58,1.85-5.64,2.3c-1.97,0.42-3.99,0.77-5.74,1.82c-1.59,0.96-2.85,2.45-3.62,4.13
					c-1.62,3.53-1.25,7.58,0.87,10.81c2.31,3.53,6.02,5.51,10.02,6.51c2.35,0.59,4.76,1.04,6.75,2.52c1.84,1.36,3.18,3.28,5.02,4.64
					c3.36,2.47,7.85,3.04,11.66,1.27c3.84-1.78,6.35-5.6,6.62-9.8c0.29-4.41-1.59-8.54-3.06-12.58c-0.78-2.13-1.37-4.26-1.69-6.51
					c-0.29-2.05-0.63-4.18-2.32-5.58c-0.77-0.64-1.68-1.08-2.59-1.49c-0.76-0.34-1.36,0.78-0.6,1.16c0.85,0.42,1.66,0.88,2.34,1.55
					c0.7,0.69,0.97,1.54,1.18,2.48c0.44,1.96,0.52,3.96,1.04,5.91c1.03,3.9,2.98,7.54,3.62,11.55c0.61,3.83-0.23,7.72-3.31,10.3
					c-2.84,2.37-6.96,2.82-10.28,1.21c-1.84-0.9-3.3-2.38-4.83-3.71c-1.6-1.39-3.25-2.53-5.26-3.23c-2.07-0.72-4.26-1.01-6.32-1.77
					c-1.7-0.63-3.28-1.62-4.6-2.85c-2.61-2.44-4.07-5.94-3.34-9.51c0.33-1.61,1.07-3.15,2.23-4.34c1.25-1.29,2.89-1.9,4.61-2.31
					c1.81-0.43,3.65-0.69,5.36-1.46c1.72-0.78,3.24-1.9,4.77-2.99c1.53-1.09,3.13-2.13,4.98-2.54c1.75-0.39,3.61-0.12,5.27,0.5
					c0.88,0.32,1.74,0.7,2.6,1.08C112.48,957.63,113.05,956.98,112.57,956.62z"/>
			</g>
		</g>
		<g>
			<g>
				<path class="st5" d="M89.06,936.61c-2.06,0.47-3.65,2.31-4.6,4.1c-1.09,2.04-1.62,4.4-1.9,6.68c-0.5,3.99,0.18,8.39,3.73,10.83
					c3.28,2.25,7.39,0.94,9.59-2.13c2.51-3.51,2.29-8.46,1.37-12.48c-0.45-1.96-1.34-3.88-2.65-5.42c-1.38-1.61-3.53-2.24-5.59-1.77
					c-0.76,0.17-0.43,1.18,0.22,1.23c1.62,0.13,3,0.39,4.08,1.7c0.89,1.09,1.57,2.46,1.97,3.8c0.52,1.71,0.72,3.52,0.77,5.3
					c0.05,1.84-0.12,3.75-0.9,5.44c-1.24,2.68-4.27,4.81-7.22,3.42c-3.32-1.56-4.18-5.44-3.93-8.78c0.16-2.16,0.6-4.43,1.49-6.41
					c0.89-2.01,2.23-3.42,3.95-4.74C89.82,937.09,89.56,936.5,89.06,936.61L89.06,936.61z"/>
			</g>
		</g>
		<g>
			<g>
				<path class="st5" d="M118.38,930.4c-1.22-1.87-3.57-2.53-5.71-2.38c-2.16,0.16-4.1,1.07-5.74,2.47
					c-1.84,1.57-3.22,3.67-4.31,5.81c-1.12,2.21-1.91,4.59-2.04,7.08c-0.11,2.19,0.34,4.58,1.61,6.41c1.32,1.89,3.44,2.75,5.71,2.41
					c4.43-0.67,8.36-4.16,10.61-7.88c2.55-4.22,3.54-10.23-0.06-14.16c-0.59-0.64-1.45,0.34-0.91,0.97
					c2.69,3.15,2.03,7.6,0.36,11.06c-1.68,3.45-4.68,6.53-8.3,7.94c-1.62,0.63-3.63,0.98-5.13-0.15c-1.56-1.17-2.18-3.34-2.32-5.21
					c-0.29-4.11,1.68-8.42,4.25-11.53c1.35-1.64,3.07-3.03,5.16-3.56c2.22-0.57,4.28-0.01,6.12,1.29
					C118.08,931.23,118.68,930.86,118.38,930.4z"/>
			</g>
		</g>
		<g>
			<g>
				<path class="st5" d="M141.69,964.75c-0.1,1.98-0.41,3.74-1.38,5.49c-0.96,1.74-2.35,3.23-3.8,4.57
					c-2.46,2.26-5.79,4.15-9.21,3.05c-1.47-0.48-2.7-1.55-3.19-3.04c-0.45-1.39-0.29-2.96,0.24-4.3c1.33-3.34,5.01-5.59,8.2-6.89
					c1.59-0.65,3.27-0.99,4.99-0.95c1.84,0.04,2.93,1.03,4.04,2.39c0.41,0.5,1.43,0.21,1.14-0.52c-0.7-1.74-2.2-3.15-4.07-3.5
					c-1.61-0.31-3.45-0.11-5.02,0.32c-2.04,0.56-3.99,1.6-5.75,2.74c-1.86,1.21-3.58,2.75-4.66,4.72c-1.77,3.24-1.39,7.61,1.86,9.74
					c3.54,2.32,8.02,0.94,11.1-1.46c1.99-1.55,3.83-3.43,5.15-5.58c1.21-1.96,2.11-4.68,1.2-6.92
					C142.35,964.13,141.72,964.25,141.69,964.75L141.69,964.75z"/>
			</g>
		</g>
		<g>
			<g>
				<path class="st5" d="M130.86,937.84c8.95,3.25,4.27,15.54-1.28,19.82c-1.48,1.14-3.3,2.02-5.19,2.09
					c-2.04,0.07-3.51-1.15-4.24-2.99c-1.4-3.55-0.84-7.95,0.7-11.36c1.75-3.88,5.3-7.82,9.96-7.34c0.83,0.08,1.14-1.18,0.28-1.3
					c-4.66-0.63-8.68,2.65-10.89,6.49c-2.22,3.87-3.12,8.93-1.8,13.26c0.62,2.04,1.92,3.91,4.04,4.56c2.19,0.67,4.64-0.07,6.57-1.16
					c2.09-1.18,3.74-2.97,5.05-4.95c1.36-2.06,2.45-4.4,3.02-6.8c0.57-2.39,0.5-4.87-0.55-7.11c-1.02-2.17-3.06-4.15-5.6-4.08
					C130.39,936.98,130.42,937.68,130.86,937.84z"/>
			</g>
		</g>
	</g>
</g>
</svg>
