<?xml version="1.0" encoding="utf-8"?>
<!-- Generator: Adobe Illustrator 26.3.0, SVG Export Plug-In . SVG Version: 6.00 Build 0)  -->
<svg version="1.1" id="Layer_5" xmlns="http://www.w3.org/2000/svg" xmlns:xlink="http://www.w3.org/1999/xlink" x="0px" y="0px"
	 viewBox="0 0 820 312" style="enable-background:new 0 0 820 312;" xml:space="preserve">
<style type="text/css">
	.st0{fill:#FAF1DD;}
	.st1{fill:#EAAC8E;}
	.st2{fill:#F0CAA5;}
	.st3{fill:#49312C;}
	.st4{fill:#755A58;}
	.st5{fill:#E7B387;}
</style>
<g>
	<path class="st0" d="M568.66,212.67c2.05,2.03,3.61,4.65,3.99,7.52s-0.56,5.97-2.75,7.85c-1.53,1.32-3.53,1.96-5.52,2.3
		c-1.9,0.32-3.85,0.38-5.77,0.18c-0.75-0.08-1.54-0.19-2.21,0.13c-0.38,0.18-0.72,0.49-1.14,0.46c-0.29-0.02-0.55-0.2-0.77-0.39
		c-3.13-2.61-4.02-7.02-4.27-11.09c-0.15-2.41-0.14-4.83,0.02-7.25c0.09-1.33,0.42-2.91,1.66-3.38"/>
	<path class="st0" d="M386.68,220.85c-0.85-0.04-1.62,0.44-2.3,0.95c-1.12,0.83-2.18,1.85-2.6,3.18c-0.42,1.33,0.01,3.01,1.26,3.62
		c0.71,0.35,1.57,0.3,2.31,0.04c0.75-0.26,1.4-0.73,2.03-1.22c0.94-0.73,1.84-1.51,2.7-2.35"/>
	<path class="st0" d="M289.47,204.85c2.28-0.34,4.59-0.68,6.88-0.45s4.6,1.12,6.11,2.86c1.01,1.17,1.59,2.91,0.84,4.26
		c-0.81,1.45-2.73,1.78-4.39,1.86c-1.3,0.06-2.61,0.06-3.9-0.12c-1.79-0.25-3.52-0.85-5.31-1.13c-3.94-0.6-7.97,0.43-11.65,1.96
		c-3.68,1.53-7.15,3.55-10.83,5.08c-4.7,1.96-9.74,3.09-14.82,3.34c-0.44,0.02-0.91,0.03-1.31-0.18c-0.42-0.23-0.68-0.66-0.91-1.08
		c-1.64-3.01-2.97-6.19-3.96-9.48c-0.56-1.84-1-3.86-0.28-5.65c0.61-1.51,1.96-2.6,3.39-3.36s3-1.26,4.45-2"/>
	<path class="st0" d="M288.12,217.73c0.94-3.82,2.49-7.58,5.1-10.53c2.61-2.95,6.37-5.03,10.31-5c3.98,0.03,7.74,2.19,10.41,5.15
		c2.04,2.27,3.59,5.25,3.22,8.28c-0.38,3.11-2.66,5.63-5.01,7.69c-1.54,1.36-3.22,2.65-5.2,3.22c-1.51,0.43-3.11,0.42-4.67,0.27
		c-8.63-0.84-16.74-5.96-21.19-13.4"/>
	<path class="st0" d="M263.71,205.94c-0.49-0.47-1.15-0.74-1.8-0.93c-4.53-1.34-9.66,0.15-13.11,3.38s-5.26,7.99-5.35,12.71
		c-0.03,1.94,0.23,3.95,1.22,5.62c1.23,2.08,3.47,3.41,5.81,4s4.79,0.55,7.2,0.4"/>
	<path class="st0" d="M582.05,195.7c1.28,1.66,2.56,3.32,3.69,5.08c3.41,5.33,5.38,11.98,3.59,18.05
		c-1.79,6.07-8.18,10.94-14.35,9.54c-1.77-0.4-3.39-1.25-5.08-1.92c-1.62-0.64-3.29-1.11-4.96-1.61
		c-5.77-1.77-11.44-4.07-16.33-7.62c-4.88-3.54-8.95-8.42-10.75-14.18c-1.8-5.76-1.1-12.43,2.53-17.24"/>
	<path class="st0" d="M416.21,215.88c-5.61,1.72-11.32,3.06-17.1,4.03c-1.85,0.31-3.91,0.54-5.47-0.5c-1.55-1.04-2.12-3.02-2.5-4.84
		c-0.84-3.99-1.14-8.65,1.65-11.61c1.92-2.03,4.87-2.74,7.67-2.77c4.99-0.05,9.98,1.81,13.71,5.13"/>
	<g>
		<g>
			<path class="st1" d="M680.03,161.16c-2.97-1.71-6.16-2.66-9.46-1.48c-3.45,1.23-6.01,4.24-9.41,5.62
				c-2.6,1.05-5.56,1.1-8.01,2.46c-3.77,2.09-5.37,7.11-4.12,11.24c1.25,4.13,4.89,7.26,8.99,8.6c2.74,0.89,5.74,1.09,8.27,2.48
				c2.69,1.47,4.55,4.12,7.18,5.69c2.82,1.69,6.45,1.97,9.5,0.72c3.05-1.24,5.44-3.98,6.28-7.16c0.88-3.34,0.08-6.9-1.07-10.16
				c-1.16-3.26-2.68-6.41-3.32-9.81c-0.32-1.69-0.42-3.45-1.07-5.05C683.13,162.71,681.54,161.83,680.03,161.16z"/>
			<path class="st1" d="M656.28,141.23c-1.71,0.8-3.04,2.27-3.93,3.93c-0.89,1.66-1.36,3.52-1.67,5.38
				c-0.44,2.65-0.55,5.45,0.45,7.95s3.34,4.59,6.03,4.65c2.7,0.05,5.13-1.97,6.23-4.44c1.1-2.47,1.1-5.29,0.77-7.98
				c-0.25-2.07-0.7-4.16-1.77-5.95C661.32,142.98,660.06,140.85,656.28,141.23"/>
			<path class="st1" d="M685.47,134.27c-2.48-2.6-6.41-2.15-8.84-0.76c-2.43,1.38-4.19,3.72-5.52,6.18
				c-1.01,1.87-1.82,3.86-2.17,5.96c-0.35,2.09-0.24,4.29,0.54,6.27c0.52,1.3,1.36,2.54,2.6,3.2c1.97,1.05,4.43,0.43,6.41-0.6
				c3.88-2.01,6.94-5.54,8.39-9.66c0.62-1.77,0.96-3.65,0.77-5.52C687.48,137.47,686.76,135.64,685.47,134.27z"/>
			<path class="st1" d="M710.54,168.55c0.38,1.85-0.01,3.8-0.82,5.5s-2.02,3.19-3.33,4.55c-1.87,1.93-4.05,3.69-6.65,4.37
				c-2.6,0.68-5.68,0.05-7.32-2.07c-1.65-2.14-1.47-5.3-0.14-7.66c1.33-2.36,3.6-4.03,5.95-5.37c1.81-1.03,3.76-1.92,5.84-2.12
				C706.14,165.54,708.6,165.29,710.54,168.55"/>
			<path class="st1" d="M698.75,140.96c3.56,0.45,5.54,3.87,5.88,6.65c0.34,2.78-0.49,5.58-1.68,8.12c-0.9,1.92-2.02,3.76-3.49,5.29
				c-1.47,1.53-3.31,2.75-5.36,3.3c-1.36,0.36-2.85,0.42-4.12-0.18c-2.02-0.96-2.98-3.3-3.34-5.5c-0.69-4.31,0.32-8.88,2.77-12.5
				c1.05-1.55,2.37-2.94,3.97-3.91C694.98,141.25,696.89,140.74,698.75,140.96z"/>
		</g>
		<g>
			<path class="st1" d="M728.86,113.88c-2.35,0.84-4.38,2.18-5.29,4.56c-0.94,2.5-0.48,5.34-1.31,7.88
				c-0.64,1.94-2.01,3.61-2.41,5.62c-0.61,3.08,1.42,6.34,4.31,7.59c2.88,1.25,6.35,0.7,9.02-0.95c1.79-1.1,3.31-2.68,5.28-3.43
				c2.08-0.8,4.44-0.59,6.55-1.31c2.27-0.77,4.13-2.66,4.88-4.94c0.74-2.28,0.35-4.9-1.02-6.87c-1.45-2.06-3.8-3.3-6.16-4.19
				c-2.36-0.89-4.83-1.53-7.02-2.78c-1.09-0.62-2.12-1.39-3.31-1.78C731.18,112.89,729.94,113.36,728.86,113.88z"/>
			<path class="st1" d="M706.58,117.7c-0.36,1.33-0.17,2.76,0.33,4.04c0.51,1.28,1.32,2.42,2.21,3.47c1.27,1.49,2.77,2.88,4.63,3.49
				c1.86,0.62,4.13,0.31,5.43-1.16c1.31-1.48,1.32-3.79,0.47-5.56c-0.85-1.78-2.43-3.11-4.07-4.19c-1.27-0.84-2.65-1.58-4.15-1.82
				C709.93,115.72,708.15,115.42,706.58,117.7"/>
			<path class="st1" d="M716.47,98.18c-2.61,0.16-4.22,2.55-4.59,4.56c-0.38,2.01,0.09,4.08,0.84,5.98
				c0.56,1.44,1.29,2.83,2.29,4.01c1,1.18,2.27,2.16,3.74,2.65c0.97,0.33,2.05,0.44,3,0.06c1.51-0.6,2.33-2.26,2.69-3.85
				c0.71-3.11,0.19-6.47-1.42-9.22c-0.69-1.18-1.58-2.25-2.7-3.03C719.19,98.58,717.83,98.11,716.47,98.18z"/>
			<path class="st1" d="M747.36,100.4c1.21,0.66,2.11,1.8,2.67,3.05c0.57,1.25,0.82,2.63,0.96,3.99c0.2,1.95,0.14,3.99-0.71,5.76
				c-0.85,1.77-2.65,3.18-4.6,3.1c-1.97-0.09-3.64-1.68-4.33-3.53c-0.68-1.85-0.55-3.9-0.18-5.84c0.28-1.49,0.7-3,1.57-4.25
				C743.61,101.43,744.63,99.94,747.36,100.4"/>
			<path class="st1" d="M726.44,93.95c1.93-1.77,4.76-1.26,6.47-0.14c1.7,1.12,2.87,2.9,3.72,4.76c0.64,1.41,1.14,2.9,1.3,4.44
				c0.16,1.54-0.03,3.13-0.69,4.53c-0.44,0.92-1.11,1.78-2.04,2.2c-1.48,0.67-3.24,0.1-4.63-0.74c-2.73-1.65-4.79-4.36-5.65-7.43
				c-0.37-1.31-0.52-2.7-0.3-4.05C724.84,96.18,725.45,94.88,726.44,93.95z"/>
		</g>
		<g>
			<path class="st1" d="M679.37,77.45c-2.24,0.3-4.29,1.09-5.54,3.03c-1.31,2.03-1.44,4.63-2.65,6.71
				c-0.93,1.59-2.46,2.81-3.19,4.51c-1.13,2.61,0.06,5.87,2.37,7.52c2.31,1.66,5.48,1.83,8.15,0.87c1.79-0.64,3.43-1.74,5.31-2.03
				c1.99-0.31,4.03,0.32,6.04,0.09c2.15-0.25,4.16-1.57,5.25-3.44c1.09-1.87,1.24-4.27,0.4-6.26c-0.89-2.1-2.73-3.64-4.64-4.87
				c-1.91-1.24-3.98-2.27-5.68-3.79c-0.85-0.76-1.61-1.63-2.59-2.2C681.61,77.01,680.43,77.19,679.37,77.45z"/>
			<path class="st1" d="M658.96,76.59c-0.57,1.1-0.68,2.41-0.47,3.64s0.7,2.39,1.29,3.48c0.84,1.56,1.91,3.07,3.43,3.97
				c1.53,0.9,3.59,1.06,5.01,0c1.43-1.06,1.89-3.09,1.47-4.83c-0.42-1.73-1.55-3.2-2.8-4.48c-0.96-0.98-2.04-1.89-3.32-2.4
				C662.3,75.48,660.78,74.87,658.96,76.59"/>
			<path class="st1" d="M671.41,61.22c-2.34-0.36-4.21,1.46-4.92,3.16c-0.71,1.7-0.69,3.63-0.4,5.45c0.23,1.38,0.61,2.75,1.26,3.98
				s1.6,2.34,2.8,3.05c0.79,0.47,1.73,0.78,2.64,0.62c1.45-0.24,2.48-1.55,3.11-2.89c1.21-2.61,1.4-5.68,0.5-8.42
				c-0.39-1.17-0.97-2.29-1.81-3.19C673.74,62.09,672.63,61.42,671.41,61.22z"/>
			<path class="st1" d="M698.28,69.04c0.94,0.81,1.52,1.99,1.78,3.2c0.26,1.21,0.23,2.48,0.09,3.71c-0.2,1.76-0.63,3.56-1.72,4.96
				c-1.09,1.4-2.94,2.31-4.66,1.86c-1.72-0.45-2.9-2.18-3.15-3.94c-0.25-1.76,0.26-3.55,0.95-5.2c0.53-1.27,1.19-2.51,2.19-3.45
				C694.77,69.24,695.95,68.12,698.28,69.04"/>
			<path class="st1" d="M681.02,59.37c2.04-1.2,4.45-0.21,5.74,1.11c1.29,1.32,1.99,3.11,2.38,4.91c0.3,1.37,0.46,2.78,0.3,4.17
				c-0.15,1.39-0.62,2.76-1.47,3.87c-0.56,0.73-1.32,1.36-2.22,1.56c-1.44,0.31-2.88-0.52-3.95-1.53c-2.1-1.97-3.4-4.76-3.58-7.64
				c-0.08-1.23,0.05-2.49,0.5-3.64C679.18,61.04,679.97,60.01,681.02,59.37z"/>
		</g>
	</g>
	<g>
		<g>
			<path class="st1" d="M139.97,163.01c2.97-1.71,6.16-2.66,9.46-1.48c3.45,1.23,6.01,4.24,9.41,5.62c2.6,1.05,5.56,1.1,8.01,2.46
				c3.77,2.09,5.37,7.11,4.12,11.24c-1.25,4.13-4.89,7.26-8.99,8.6c-2.74,0.89-5.74,1.09-8.27,2.48c-2.69,1.47-4.55,4.12-7.18,5.69
				c-2.82,1.69-6.45,1.97-9.5,0.72c-3.05-1.24-5.44-3.98-6.28-7.16c-0.88-3.34-0.08-6.9,1.07-10.16c1.16-3.26,2.68-6.41,3.32-9.81
				c0.32-1.69,0.42-3.45,1.07-5.05C136.87,164.57,138.46,163.69,139.97,163.01z"/>
			<path class="st1" d="M163.72,143.09c1.71,0.8,3.04,2.27,3.93,3.93c0.89,1.66,1.36,3.52,1.67,5.38c0.44,2.65,0.55,5.45-0.45,7.95
				c-1,2.49-3.34,4.59-6.03,4.65c-2.7,0.05-5.13-1.97-6.23-4.44c-1.1-2.47-1.1-5.29-0.77-7.98c0.25-2.07,0.7-4.16,1.77-5.95
				C158.68,144.84,159.94,142.71,163.72,143.09"/>
			<path class="st1" d="M134.53,136.13c2.48-2.6,6.41-2.15,8.84-0.76c2.43,1.38,4.19,3.72,5.52,6.18c1.01,1.87,1.82,3.86,2.17,5.96
				c0.35,2.09,0.24,4.29-0.54,6.27c-0.52,1.3-1.36,2.54-2.6,3.2c-1.97,1.05-4.43,0.43-6.41-0.6c-3.88-2.01-6.94-5.54-8.39-9.66
				c-0.62-1.77-0.96-3.65-0.77-5.52C132.52,139.33,133.24,137.49,134.53,136.13z"/>
			<path class="st1" d="M109.46,170.41c-0.38,1.85,0.01,3.8,0.82,5.5c0.81,1.7,2.02,3.19,3.33,4.55c1.87,1.93,4.05,3.69,6.65,4.37
				c2.6,0.68,5.68,0.05,7.32-2.07c1.65-2.14,1.47-5.3,0.14-7.66c-1.33-2.36-3.6-4.03-5.95-5.37c-1.81-1.03-3.76-1.92-5.84-2.12
				C113.86,167.4,111.4,167.15,109.46,170.41"/>
			<path class="st1" d="M121.25,142.81c-3.56,0.45-5.54,3.87-5.88,6.65c-0.34,2.78,0.49,5.58,1.68,8.11
				c0.9,1.92,2.02,3.76,3.49,5.29c1.47,1.53,3.31,2.75,5.36,3.3c1.35,0.36,2.85,0.42,4.12-0.18c2.02-0.96,2.98-3.3,3.34-5.5
				c0.69-4.31-0.32-8.88-2.77-12.5c-1.05-1.55-2.37-2.94-3.97-3.91S123.11,142.59,121.25,142.81z"/>
		</g>
		<g>
			<path class="st1" d="M91.14,115.74c2.35,0.84,4.38,2.18,5.29,4.56c0.94,2.5,0.48,5.34,1.31,7.88c0.64,1.94,2.01,3.61,2.41,5.62
				c0.61,3.08-1.42,6.34-4.31,7.59c-2.88,1.25-6.35,0.7-9.02-0.95c-1.79-1.1-3.31-2.68-5.28-3.43c-2.08-0.8-4.44-0.59-6.55-1.31
				c-2.27-0.77-4.13-2.66-4.88-4.94c-0.74-2.28-0.35-4.9,1.02-6.87c1.45-2.06,3.8-3.3,6.16-4.19c2.36-0.89,4.83-1.53,7.02-2.78
				c1.09-0.62,2.12-1.39,3.31-1.78C88.82,114.75,90.06,115.22,91.14,115.74z"/>
			<path class="st1" d="M113.42,119.56c0.36,1.33,0.17,2.76-0.33,4.04c-0.51,1.28-1.32,2.42-2.21,3.47
				c-1.27,1.49-2.77,2.88-4.63,3.49s-4.13,0.31-5.43-1.16c-1.31-1.48-1.32-3.79-0.47-5.56c0.85-1.78,2.43-3.11,4.07-4.19
				c1.27-0.84,2.65-1.58,4.15-1.82C110.07,117.58,111.85,117.28,113.42,119.56"/>
			<path class="st1" d="M103.53,100.04c2.61,0.16,4.22,2.55,4.59,4.56c0.38,2.01-0.09,4.08-0.84,5.98
				c-0.56,1.44-1.29,2.83-2.29,4.01c-1,1.18-2.27,2.16-3.74,2.65c-0.97,0.33-2.05,0.44-3,0.06c-1.51-0.6-2.33-2.26-2.69-3.85
				c-0.71-3.11-0.19-6.47,1.42-9.22c0.69-1.18,1.58-2.25,2.7-3.03C100.81,100.43,102.17,99.97,103.53,100.04z"/>
			<path class="st1" d="M72.64,102.25c-1.21,0.66-2.11,1.8-2.67,3.05c-0.57,1.25-0.82,2.63-0.96,3.99c-0.2,1.95-0.14,3.99,0.71,5.76
				c0.85,1.77,2.65,3.18,4.6,3.1c1.97-0.09,3.64-1.68,4.33-3.53c0.68-1.85,0.55-3.9,0.18-5.84c-0.28-1.49-0.7-3-1.57-4.25
				C76.39,103.28,75.37,101.79,72.64,102.25"/>
			<path class="st1" d="M93.56,95.81c-1.93-1.77-4.76-1.26-6.47-0.14c-1.7,1.12-2.87,2.9-3.72,4.76c-0.64,1.41-1.14,2.9-1.3,4.44
				c-0.16,1.54,0.03,3.13,0.69,4.53c0.44,0.92,1.11,1.78,2.04,2.2c1.48,0.67,3.24,0.1,4.63-0.74c2.73-1.65,4.79-4.36,5.65-7.43
				c0.37-1.31,0.52-2.7,0.3-4.05C95.16,98.04,94.55,96.74,93.56,95.81z"/>
		</g>
		<g>
			<path class="st1" d="M140.63,79.3c2.24,0.3,4.29,1.09,5.54,3.03c1.31,2.03,1.44,4.63,2.65,6.71c0.93,1.59,2.46,2.81,3.19,4.51
				c1.13,2.61-0.06,5.87-2.37,7.52c-2.31,1.66-5.48,1.83-8.15,0.87c-1.79-0.64-3.43-1.74-5.31-2.03c-1.99-0.31-4.03,0.32-6.04,0.09
				c-2.15-0.25-4.16-1.57-5.25-3.44c-1.09-1.87-1.24-4.27-0.4-6.26c0.89-2.1,2.73-3.64,4.64-4.87c1.91-1.24,3.98-2.27,5.68-3.79
				c0.85-0.76,1.61-1.63,2.59-2.2C138.39,78.87,139.57,79.05,140.63,79.3z"/>
			<path class="st1" d="M161.04,78.45c0.57,1.1,0.68,2.41,0.47,3.64c-0.21,1.23-0.7,2.39-1.29,3.48c-0.84,1.56-1.91,3.07-3.43,3.97
				c-1.53,0.9-3.59,1.06-5.01,0c-1.43-1.06-1.89-3.09-1.47-4.83c0.42-1.73,1.55-3.2,2.8-4.48c0.96-0.98,2.04-1.89,3.32-2.4
				C157.7,77.33,159.22,76.73,161.04,78.45"/>
			<path class="st1" d="M148.59,63.08c2.34-0.36,4.21,1.46,4.92,3.16c0.71,1.7,0.69,3.63,0.39,5.45c-0.23,1.38-0.61,2.75-1.26,3.98
				c-0.66,1.24-1.6,2.34-2.8,3.05c-0.79,0.47-1.73,0.78-2.64,0.62c-1.45-0.24-2.48-1.55-3.11-2.89c-1.21-2.61-1.4-5.68-0.5-8.42
				c0.39-1.17,0.97-2.29,1.81-3.19C146.26,63.94,147.37,63.27,148.59,63.08z"/>
			<path class="st1" d="M121.72,70.9c-0.94,0.81-1.52,1.99-1.78,3.2c-0.26,1.22-0.23,2.48-0.09,3.71c0.2,1.76,0.63,3.56,1.72,4.96
				c1.09,1.4,2.94,2.31,4.66,1.86c1.72-0.45,2.9-2.18,3.15-3.94c0.25-1.76-0.26-3.55-0.95-5.2c-0.53-1.27-1.19-2.51-2.19-3.45
				C125.23,71.1,124.05,69.97,121.72,70.9"/>
			<path class="st1" d="M138.98,61.23c-2.04-1.2-4.45-0.21-5.74,1.11c-1.29,1.32-1.99,3.11-2.38,4.91c-0.3,1.37-0.46,2.78-0.3,4.17
				c0.15,1.39,0.62,2.76,1.47,3.87c0.56,0.73,1.32,1.36,2.22,1.56c1.44,0.31,2.88-0.52,3.95-1.53c2.1-1.97,3.4-4.76,3.58-7.64
				c0.08-1.23-0.05-2.49-0.5-3.64C140.82,62.9,140.03,61.86,138.98,61.23z"/>
		</g>
	</g>
	<g>
		<g>
			<path class="st2" d="M484.77,122.03c1.36-16.8,14.73-27.38,19.44-42.73c3.5-15.95-22.52-26.25-32.7-35.85
				c-21.93-26.62-80.39-21.07-106.03,1.51c-7.55-2.19-17.77,16.26-23.47,21.22c-13.65,6.96-22.6,31.2-8.09,40.79
				c15.18,7.04,17.29,38.83,34.31,26.4c1.91,4.11,7.81,5.9,6.98,11.29c-3.54,16.25-26.32,29.27-16.23,47.71
				c-17.18,4.79-20.43,35.76-0.97,30.62c3.88,3.64,9.92,3.68,13.83,0.17c2.58,5.13,9.22,2.31,13.14,0.46
				c6.4-2.43,15.47-6.19,13.47-14.66h41.8c-1.68,8.66,8.93,11.16,15.03,13.77c3.93,1.63,9.36,4.76,12.16-0.28
				c3.88,3.57,10.44,0.11,13.71-2.94c15.45,9.13,19.03-19.19,5.41-26.39c8.88-21.11-19.12-32.86-21.8-51.66
				c-0.54-1.28-0.76-2.65-0.51-4.16c0.37-2.17,1.62-4.1,2.77-5.94c0.56-1.52,1.32-2.59,2.22-3.35c0.46-0.57,0.98-1.1,1.58-1.55
				c1.58-1.18,3.44-1.22,5.17-0.52C479.38,125.64,482.8,125.43,484.77,122.03z"/>
			<path class="st0" d="M463.7,180.94c-8.29,15.73-18.7,2.87-23.31,31.9c5.14-8.08-40.07-2.14-41.67-3.87
				c-2.76-10.29-13.25-14.77-20.54-19.17c0.83-3.79-3.26-8.58,2.22-11.58c4.47-3.54,16.52,1.61,15.76-7.16
				c-14.77-29.07,26.56-5.49,39.71-14.83c5.64-2.18,14.55-3.56,16.96,3.71c1.52,3.82-3.81,9.07,0.14,11.92
				C459.58,171.93,464.87,172.58,463.7,180.94z"/>
			<path class="st0" d="M435.31,129.95c-5.26,3.1-12.56-2.02-14.97-6.9c-1.8-5.69-8.54,16.31-17.88,9.9
				c4.21-6.7,9.34-14.44,6.72-23.15c8.76,3.03,7.56,10.79,16.17-1.7C426.34,116.13,436.71,122.46,435.31,129.95z"/>
			<path class="st1" d="M438.97,133.93c-4.34-4.37-18.03-0.14-19.36-11.7c-3.24,5.87-8.28,12.13-16.3,12.32
				C397.43,174.67,449.51,175.95,438.97,133.93z"/>
			<path class="st3" d="M439.78,130.43c-10.41,4.07-22.23-5.19-20.68-16.28c-0.78,0.21-1.62,0.08-2.39-0.11
				c3.28,9.26-3.54,19.92-13.33,20.83c-0.95,0.11-1,1.48,0,1.52c5.9,0.28,11.7-1.54,16.42-5.04c5.94,5.02,14.56,5.17,20.72,0.35
				C441.12,131.23,440.47,130.18,439.78,130.43z"/>
		</g>
		<g>
			<g>
				<path class="st3" d="M365.34,43.42c-2.85-1.92-6.31-0.69-8.72,1.37c-2.88,2.46-3.95,6.27-5.44,9.6
					c-3.01,6.73-9.04,11.05-14.62,15.53c-5.4,4.33-11.04,9.78-12.44,16.86c-1.45,7.3,2.48,14,7.33,19.12
					c4.94,5.22,11.27,9.28,14.93,15.62c2.01,3.49,2.75,7.53,4.69,11.05c1.63,2.95,4.32,5.72,7.78,6.28
					c7.53,1.22,13.01-6.97,15.67-12.86c3.07-6.78,4.12-14.39,2.9-21.74c-2.61-15.71-16.03-29.85-11.64-46.5
					c0.47-1.8,1.19-3.5,2.15-5.09c0.6-1-0.91-1.85-1.55-0.9c-4.04,6.04-4.24,13.64-2.64,20.52c1.81,7.76,5.75,14.74,8.62,22.12
					c2.74,7.04,4.27,14.39,2.75,21.9c-0.69,3.43-1.87,6.75-3.55,9.82c-1.63,3-3.67,6.07-6.44,8.14c-2.68,2-5.93,2.61-8.72,0.45
					c-2.8-2.17-3.99-5.67-5.16-8.86c-1.27-3.45-2.82-6.58-5.17-9.43c-2.23-2.7-4.87-5.02-7.5-7.32c-5-4.37-10.84-9.28-12.35-16.08
					c-1.57-7.02,2.74-13.28,7.61-17.87c4.92-4.64,10.85-8.15,15.25-13.34c2.32-2.73,3.81-5.75,5.16-9.04
					c1.29-3.13,2.86-6.55,6.25-7.83c1.36-0.51,2.88-0.58,4.24-0.05C365.61,45.22,366.04,43.89,365.34,43.42L365.34,43.42z"/>
			</g>
			<g>
				<path class="st3" d="M367.45,133.95c0.15,1.47,1.04,2.96,1.88,4.14c0.93,1.31,1.98,2.51,3.15,3.61
					c2.31,2.18,4.91,4.04,7.49,5.89c2.58,1.84,5.13,3.73,7.35,6c1.12,1.15,2.16,2.38,3.01,3.75c0.86,1.39,1.33,2.85,1.95,4.34
					c0.36,0.86,1.95,0.9,1.83-0.25c-0.32-3.04-2.35-5.94-4.31-8.18c-2.13-2.44-4.69-4.47-7.3-6.38c-2.66-1.95-5.41-3.8-7.87-6.01
					c-1.2-1.08-2.35-2.24-3.37-3.49c-1-1.22-1.72-2.68-2.75-3.85C368.16,133.14,367.39,133.42,367.45,133.95L367.45,133.95z"/>
			</g>
			<g>
				<path class="st3" d="M390.16,149.27c2.78,3.94,7.19,6.77,11.91,7.78c1.14,0.24,1.63-1.49,0.48-1.75
					c-4.49-1.01-8.36-3.35-11.48-6.72C390.63,148.1,389.78,148.73,390.16,149.27L390.16,149.27z"/>
			</g>
			<g>
				<path class="st3" d="M389.27,125.57c0.59,2.73,2.63,5.07,4.81,6.72c2.52,1.91,5.55,3.02,8.7,3.26
					c6.5,0.51,12.98-2.36,15.39-8.71c1.41-3.72,1.41-7.8,0.83-11.68c-0.21-1.43-2.23-0.92-2.35,0.32
					c-0.36,3.73-0.07,7.62-1.62,11.13c-1.38,3.13-4.07,5.28-7.3,6.29c-3.54,1.1-7.37,0.71-10.63-1.07c-2.94-1.6-4.81-4.1-6.78-6.7
					C389.93,124.63,389.12,124.9,389.27,125.57L389.27,125.57z"/>
			</g>
			<g>
				<path class="st3" d="M406.57,81.45c1.21-0.43,2.57-0.69,3.82-0.98c1.25-0.28,2.52-0.51,3.8-0.63c2.6-0.24,5.21-0.09,7.76,0.46
					c1.19,0.26,1.69-1.57,0.5-1.82c-2.76-0.59-5.59-0.77-8.4-0.49c-1.4,0.14-2.78,0.37-4.13,0.76c-1.37,0.39-2.53,1-3.8,1.63
					C405.52,80.66,405.94,81.67,406.57,81.45L406.57,81.45z"/>
			</g>
			<g>
				<path class="st3" d="M458.14,36.18c2.75-1.71,6.31-0.46,8.46,1.65c2.51,2.47,3.98,5.78,6.2,8.5
					c4.33,5.31,10.73,8.23,16.63,11.41c5.53,2.98,11.43,6.69,14.08,12.66c3.12,7.02-0.59,14.26-4.73,19.95
					c-4.2,5.77-9.43,11-11.63,17.97c-1.17,3.7-1.18,7.7-2.58,11.34c-1.08,2.81-3.3,5.55-6.54,5.6c-3.39,0.06-6.47-2.28-8.8-4.5
					c-2.45-2.33-4.55-5-6.23-7.93c-3.56-6.2-4.97-13.25-4.34-20.35c0.74-8.27,3.64-16.15,4.85-24.35
					c1.04-7.03,0.89-14.73-2.85-21.01c-0.84-1.41-1.84-2.71-2.99-3.88c-0.81-0.83-2.02,0.41-1.27,1.27
					c5.09,5.78,6.08,13.91,5.28,21.29c-0.93,8.59-4.01,16.79-5.01,25.37c-0.87,7.52,0.27,14.98,3.63,21.79
					c1.59,3.22,3.66,6.23,6.13,8.83c2.48,2.62,5.51,5.16,9.09,6.02c3.47,0.83,6.96-0.28,9.25-3.02c2.47-2.96,3.25-6.65,3.86-10.37
					c0.34-2.08,0.69-4.15,1.38-6.14c0.6-1.73,1.44-3.36,2.38-4.93c1.91-3.2,4.28-6.1,6.54-9.06c4.58-5.98,8.95-13.25,7.58-21.11
					c-1.18-6.72-6.7-11.66-12.19-15.14c-5.94-3.77-12.8-6.21-17.98-11.12c-2.75-2.61-4.38-5.98-6.7-8.93
					c-2.03-2.59-4.97-4.74-8.4-4.72c-1.59,0.01-2.94,0.57-4.08,1.68C456.53,35.55,457.36,36.66,458.14,36.18L458.14,36.18z"/>
			</g>
			<g>
				<path class="st3" d="M470.41,124.1c-0.79,1.3-1.22,2.84-1.95,4.18c-0.75,1.37-1.63,2.69-2.57,3.93c-1.98,2.6-4.32,4.9-6.56,7.26
					c-2.22,2.34-4.37,4.79-6.07,7.55c-1.56,2.52-3.19,5.91-2.95,8.96c0.08,0.99,1.59,1.34,1.83,0.25c0.34-1.56,0.52-3.09,1.08-4.59
					c0.56-1.51,1.36-2.92,2.25-4.26c1.81-2.73,4.07-5.12,6.33-7.47c2.2-2.28,4.4-4.59,6.27-7.16c0.92-1.27,1.74-2.6,2.38-4.03
					c0.58-1.29,1.22-2.88,1.11-4.31C471.51,123.82,470.75,123.56,470.41,124.1L470.41,124.1z"/>
			</g>
			<g>
				<path class="st3" d="M450.94,143c-1.21,1.91-2.67,3.69-4.38,5.17c-1.71,1.49-3.65,2.64-5.74,3.52c-0.93,0.4-0.25,2.05,0.7,1.66
					c4.47-1.84,8.37-5.36,10.41-9.77C452.24,142.92,451.35,142.36,450.94,143L450.94,143z"/>
			</g>
			<g>
				<path class="st3" d="M447.51,119.67c-1.19,2.34-2.24,4.66-4.07,6.6c-1.85,1.95-4.21,3.33-6.82,4.02
					c-5.32,1.4-11.13-0.79-13.82-5.62c-1.67-2.99-2.07-6.47-3-9.71c-0.36-1.27-2.39-1.06-2.35,0.32c0.22,6.6,2.57,13.93,9.18,16.6
					c5.72,2.32,12.84,0.78,17.37-3.31c2.39-2.15,4.48-5.3,4.58-8.6C448.59,119.41,447.76,119.17,447.51,119.67L447.51,119.67z"/>
			</g>
			<path class="st3" d="M434.07,99.84c-0.64,3.3-2.8,6.23-5.61,8.08c-1.61,1.06-3.47,1.83-4.71,3.3c-0.86,1.01-1.35,2.28-2.14,3.35
				c-0.79,1.06-2.08,1.95-3.37,1.66l-2.22,0.14c-0.59-0.21-1.15-0.58-1.6-1c-0.97-0.9-1.69-2.06-2.71-2.9
				c-1.49-1.22-3.45-1.64-5.23-2.39c-3.11-1.31-5.76-3.79-6.98-6.93c-1.23-3.14-0.91-6.9,1.07-9.64c1.63-2.24,4.22-3.64,6.91-4.33
				c2.57-0.66,4.95-0.83,7.58-0.83c2.96-0.42,6.55-0.93,8.62-0.78c2.77,0.19,5.57,1.1,7.58,3.01
				C433.7,92.88,434.7,96.53,434.07,99.84z"/>
			<g>
				<path class="st3" d="M366.75,43.67c1.26-0.99,2.72-1.82,4.03-2.75c1.28-0.91,2.6-1.76,3.94-2.58c2.61-1.6,5.35-2.98,8.17-4.14
					c5.74-2.35,11.85-3.74,18.05-4.05c1.29-0.07,1.3-2.08,0-2.01c-6.49,0.33-12.89,1.76-18.89,4.25c-2.98,1.24-5.86,2.74-8.58,4.47
					c-1.34,0.86-2.64,1.8-3.88,2.79c-1.29,1.03-2.31,2.24-3.45,3.41C365.73,43.46,366.32,44.01,366.75,43.67L366.75,43.67z"/>
			</g>
			<g>
				<path class="st3" d="M456.75,33.91c-2.41-2.8-6.17-4.56-9.53-5.96c-3.48-1.45-7.15-2.44-10.89-2.94
					c-3.94-0.53-7.82-0.41-11.75,0.02c-4.03,0.44-8.32,1-12.2-0.52c-3.91-1.53-6.19-5.24-6.45-9.34c-0.07-1.18-1.77-1.18-1.84,0
					c-0.21,3.54,1.55,7.11,4.29,9.34c3.04,2.48,7.06,3.13,10.88,3.02c4.36-0.13,8.64-1.01,13.02-0.83
					c3.96,0.16,7.89,0.91,11.64,2.18c2.1,0.71,4.12,1.6,6.08,2.63c2.04,1.07,3.9,2.42,5.98,3.41
					C456.64,35.24,457.24,34.48,456.75,33.91L456.75,33.91z"/>
			</g>
			<g>
				<path class="st3" d="M406.54,25.03c-4.48-3.31-7.11-8.52-7.72-13.99c-0.14-1.26-2.03-1.33-2.02,0
					c0.03,6.19,3.8,12.05,9.08,15.11C406.62,26.59,407.19,25.52,406.54,25.03L406.54,25.03z"/>
			</g>
			<g>
				<path class="st3" d="M402.92,25.69c-3.3-0.19-6.62-1.29-9.37-3.14c-0.45-0.3-1.11-0.09-1.38,0.36
					c-0.29,0.49-0.09,1.07,0.36,1.38c3.09,2.06,6.68,3.07,10.38,2.86C403.86,27.1,403.86,25.74,402.92,25.69L402.92,25.69z"/>
			</g>
			<g>
				<path class="st3" d="M378.9,191.65c-1.31-2.39-3.17-4.38-5.49-5.82c-1.13-0.7-2.34-1.28-3.59-1.72
					c-1.23-0.44-2.78-0.91-4.09-0.77c-1.1,0.11-1.42,1.63-0.27,1.99c1.14,0.35,2.36,0.45,3.51,0.82c1.15,0.37,2.25,0.86,3.29,1.48
					c2.05,1.22,3.95,2.85,5.38,4.77C378.18,193.14,379.37,192.5,378.9,191.65L378.9,191.65z"/>
			</g>
			<g>
				<path class="st3" d="M368.75,192.66c-1.93-0.56-3.74-0.91-5.76-0.83c-1.95,0.07-3.93,0.46-5.78,1.1
					c-3.68,1.27-6.95,3.56-9.38,6.6c-4.57,5.71-6.63,15.14-1.93,21.41c2.51,3.34,7.06,5.09,10.96,3.17
					c1.05-0.52,0.32-2.22-0.79-1.88c-2.88,0.89-6.09-0.28-7.96-2.61c-2.1-2.62-2.58-6.2-2.23-9.45c0.7-6.57,4.97-12.5,11.08-15.06
					c3.49-1.47,7.73-1.96,11.47-1.32C369.16,193.89,369.48,192.87,368.75,192.66L368.75,192.66z"/>
			</g>
			<g>
				<path class="st3" d="M359.65,212.06c-0.61,0.44-1.18,0.85-1.65,1.44c-0.51,0.64-0.88,1.3-1.16,2.07
					c-0.54,1.49-0.61,3.1-0.29,4.65c0.65,3.18,3.3,5.62,6.43,6.33c1.81,0.41,3.68,0.32,5.34-0.54c1.15-0.6,0.35-2.44-0.88-2.08
					c-2.82,0.8-6.1,0.15-7.77-2.46c-0.82-1.29-1.06-2.77-0.92-4.28c0.13-1.39,0.72-3.1,1.64-4.16
					C360.82,212.53,360.25,211.63,359.65,212.06L359.65,212.06z"/>
			</g>
			<g>
				<path class="st3" d="M372.4,214.87c-0.93,0.9-1.71,1.81-2.16,3.04c-0.45,1.23-0.44,2.62-0.16,3.89
					c0.59,2.65,2.68,4.65,5.24,5.41c1.26,0.38,2.57,0.48,3.86,0.2c1.49-0.31,2.77-1.18,4.08-1.92c2.87-1.61,6.21-1.9,9.21-3.15
					c2.79-1.16,5.25-3.73,5.36-6.85c0.03-0.93-1.49-0.93-1.45,0c0.17,3.71-3.78,5.04-6.74,5.62c-1.58,0.31-3.18,0.46-4.74,0.87
					c-1.62,0.42-2.98,1.26-4.43,2.06c-2.33,1.29-5.06,1.21-6.96-0.83c-1.69-1.81-1.83-5.51-0.2-7.42
					C373.85,215.16,373.01,214.28,372.4,214.87L372.4,214.87z"/>
			</g>
			<g>
				<path class="st3" d="M398.83,211.98c0.06-1.33,0.27-2.57,0.11-3.91c-0.15-1.24-0.42-2.46-0.83-3.63
					c-0.86-2.43-2.16-4.64-3.84-6.58c-3.14-3.63-7.85-6.4-12.68-6.76c-1.27-0.1-1.5,1.88-0.3,2.19c4.27,1.11,8.12,2.87,11.09,6.24
					c1.47,1.66,2.62,3.65,3.42,5.72c0.39,1.02,0.71,2.06,0.98,3.12c0.29,1.15,0.69,2.43,0.72,3.61
					C397.5,212.85,398.79,212.85,398.83,211.98L398.83,211.98z"/>
			</g>
			<g>
				<path class="st3" d="M372.48,148.05c-1.13,2.76-2.69,5.43-4.25,7.97c-1.61,2.62-3.42,5.1-5.17,7.62
					c-3.39,4.89-6.67,10.13-7.81,16.07c-0.6,3.15-0.81,6.84,0.6,9.81c0.44,0.92,2.1,0.5,1.98-0.54c-0.21-1.81-0.54-3.54-0.49-5.37
					c0.04-1.84,0.36-3.64,0.86-5.41c1.03-3.65,2.88-6.99,4.92-10.17c2.05-3.19,4.31-6.26,6.32-9.48c2-3.21,3.56-6.43,4.36-10.14
					C373.98,147.53,372.8,147.25,372.48,148.05L372.48,148.05z"/>
			</g>
			<g>
				<path class="st3" d="M370.21,146.13c-0.35,0.98-0.88,1.94-1.4,2.85c-0.51,0.89-1.08,1.77-1.69,2.59
					c-1.21,1.64-2.75,3.05-4.43,4.19c-0.96,0.65-0.08,2.2,0.92,1.57c1.96-1.24,3.61-2.85,4.97-4.72c0.67-0.92,1.19-1.9,1.63-2.95
					c0.45-1.07,0.69-2.14,0.9-3.27C371.22,145.79,370.42,145.56,370.21,146.13L370.21,146.13z"/>
			</g>
			<g>
				<path class="st3" d="M401.76,136.12c0.31,2.99,0.81,5.97,1.16,8.96c0.33,2.84,0.63,5.7,1.38,8.47c1.35,5,4.1,9.62,9.11,11.59
					c4.83,1.9,10.63,1.12,15.39-0.61c4.99-1.81,9.62-5.23,11.37-10.43c1.1-3.29,0.8-6.85,0.62-10.25c-0.2-3.71-0.35-7.43-0.71-11.13
					c-0.1-0.99-1.59-1.04-1.58,0c0.02,3.07,0.19,6.14,0.34,9.21c0.14,2.84,0.44,5.73,0.17,8.57c-0.51,5.33-4.17,9.25-8.89,11.44
					c-4.45,2.06-9.94,3.13-14.7,1.57c-4.56-1.5-7.22-5.63-8.52-10.04c-0.82-2.78-1.17-5.67-1.57-8.53c-0.43-3.1-0.86-6.38-2.57-9.08
					C402.49,135.44,401.7,135.56,401.76,136.12L401.76,136.12z"/>
			</g>
			<g>
				<path class="st3" d="M418.8,127.03c0.38,2.59,0.91,5.16,1.24,7.76c0.33,2.57,0.47,5.15,0.49,7.74c0.01,1.18,1.83,1.18,1.83,0
					c-0.03-5.3-0.63-10.94-2.72-15.85C419.42,126.15,418.74,126.56,418.8,127.03L418.8,127.03z"/>
			</g>
			<path class="st3" d="M393.88,82.1c0.94,9.15-11.17,10.25-11.9,1.09C381.04,74.04,393.16,72.94,393.88,82.1z"/>
			<path class="st3" d="M449.2,76.97c0.94,9.15-11.17,10.25-11.9,1.09C436.36,68.91,448.47,67.81,449.2,76.97z"/>
			<g>
				<path class="st3" d="M379.06,71.96c0.48-0.08,0.86-0.37,1.24-0.66c0.37-0.29,0.67-0.51,1.06-0.82c0.56-0.44,1.29-0.94,1.99-1.35
					c0.36-0.21,0.73-0.41,1.11-0.59c0.19-0.09,0.38-0.18,0.57-0.27c0.11-0.05,0.21-0.1,0.32-0.14c0.05-0.02,0.2-0.08,0.07-0.03
					c0.41-0.17,0.82-0.32,1.24-0.46c0.49-0.16,1-0.26,1.45-0.49c1.17-0.61,0.63-2.54-0.67-2.49c-1.03,0.04-2.12,0.58-3.05,0.99
					c-0.83,0.37-1.62,0.8-2.38,1.31c-0.8,0.53-1.58,1.12-2.29,1.78c-0.7,0.65-1.54,1.51-1.58,2.51
					C378.1,71.77,378.61,72.04,379.06,71.96L379.06,71.96z"/>
			</g>
			<g>
				<path class="st3" d="M448.53,65.23c0.28-0.94-0.84-1.6-1.52-1.97c-0.75-0.4-1.51-0.75-2.32-1.01c-0.72-0.24-1.45-0.43-2.19-0.58
					c-0.84-0.17-1.76-0.34-2.62-0.32c-0.69,0.01-1.27,0.52-1.36,1.2c-0.08,0.62,0.31,1.41,0.99,1.52c0.45,0.07,0.9,0.1,1.36,0.15
					c0.08,0.01,0.2,0.03,0.05,0c0.09,0.01,0.19,0.03,0.28,0.04c0.19,0.03,0.37,0.06,0.56,0.09c0.77,0.13,1.53,0.31,2.28,0.53
					c0.72,0.21,1.45,0.42,2.16,0.67C446.88,65.8,448.23,66.23,448.53,65.23L448.53,65.23z"/>
			</g>
			<g>
				<path class="st3" d="M466.94,189.6c1.12-0.41,2.29-0.66,3.47-0.86c0.55-0.09,1.11-0.14,1.66-0.18c0.63-0.05,1.27,0,1.88-0.16
					c0.81-0.22,0.75-1.34,0-1.58c-0.64-0.21-1.35-0.14-2.01-0.09c-0.65,0.05-1.31,0.15-1.95,0.28c-1.26,0.25-2.45,0.73-3.62,1.27
					C465.64,188.61,466.16,189.88,466.94,189.6L466.94,189.6z"/>
			</g>
			<g>
				<path class="st3" d="M470.27,191.86c3.28-0.56,6.98-0.23,10.12,0.81c3.23,1.07,6.12,3.02,8.27,5.66
					c3.9,4.78,5.99,12.6,2.69,18.23c-1.75,2.99-5.31,4.78-8.72,3.73c-1.1-0.34-1.85,1.36-0.79,1.88c3.38,1.66,7.38,0.58,9.98-2.02
					c2.8-2.79,3.79-7.02,3.57-10.87c-0.43-7.7-5.39-14.74-12.49-17.74c-1.99-0.85-4.09-1.37-6.25-1.58
					c-2.34-0.23-4.47,0.12-6.7,0.77C469.24,190.96,469.55,191.98,470.27,191.86L470.27,191.86z"/>
			</g>
			<g>
				<path class="st3" d="M478.32,211.11c0.92,1.07,1.51,2.78,1.64,4.16c0.14,1.51-0.1,2.99-0.92,4.28
					c-1.67,2.61-4.95,3.26-7.77,2.46c-1.22-0.35-2.04,1.48-0.88,2.08c2.9,1.5,6.54,0.72,9.01-1.28c2.52-2.03,3.49-5.51,2.64-8.6
					c-0.23-0.83-0.58-1.62-1.09-2.31c-0.54-0.73-1.16-1.24-1.89-1.76C478.47,209.72,477.89,210.62,478.32,211.11L478.32,211.11z"/>
			</g>
			<g>
				<path class="st3" d="M465.4,213.88c1.63,1.91,1.49,5.61-0.2,7.42c-1.89,2.04-4.62,2.12-6.96,0.83c-1.45-0.8-2.81-1.64-4.43-2.06
					c-1.56-0.4-3.16-0.56-4.74-0.87c-2.96-0.58-6.91-1.91-6.74-5.62c0.04-0.93-1.48-0.93-1.45,0c0.1,2.84,1.97,4.8,4.24,6.26
					c2.69,1.73,6.21,1.89,9.12,3.14c1.44,0.62,2.71,1.58,4.17,2.17c1.27,0.51,2.59,0.62,3.94,0.39c2.62-0.44,4.96-2.11,5.95-4.61
					c0.53-1.34,0.67-2.86,0.37-4.27c-0.32-1.51-1.27-2.65-2.35-3.7C465.71,212.37,464.86,213.25,465.4,213.88L465.4,213.88z"/>
			</g>
			<g>
				<path class="st3" d="M441.24,210.07c0.03-1.14,0.41-2.35,0.68-3.45c0.27-1.11,0.6-2.21,1.01-3.28c0.79-2.07,1.95-4.06,3.42-5.72
					c2.97-3.37,6.82-5.13,11.09-6.24c1.19-0.31,0.98-2.29-0.3-2.19c-4.84,0.36-9.54,3.14-12.69,6.76c-1.65,1.9-2.93,4.06-3.79,6.43
					c-0.44,1.22-0.73,2.5-0.89,3.79c-0.16,1.34,0.05,2.57,0.11,3.91C439.92,210.94,441.22,210.94,441.24,210.07L441.24,210.07z"/>
			</g>
			<g>
				<path class="st3" d="M467.33,154.59c1.08,1.04,2,2.24,3.03,3.33c0.99,1.05,2.01,2.07,3,3.13c2.02,2.15,4.01,4.31,5.8,6.66
					c3.46,4.56,6.16,9.69,7.13,15.39c0.52,3.08,0.51,6.41-0.17,9.47c-0.29,1.3,1.6,1.83,2,0.55c3.74-12.09-3.61-24-11.77-32.36
					c-1.25-1.28-2.57-2.5-3.9-3.69c-1.34-1.21-2.85-2.2-4.2-3.4C467.62,153.12,466.72,154.01,467.33,154.59L467.33,154.59z"/>
			</g>
		</g>
	</g>
	<g>
		<g>
			<path class="st0" d="M320.34,209c-1.64-0.18-71.58,0.32-72.45-0.16c-3.17-11.06-36.26,1.66-13.13-35.09
				c5.2-8.26,21.45,3.63,31,0.97c22.1-0.14,33.13-20.53,42.59-11.15C319.22,175.34,322.41,195.24,320.34,209z"/>
			<path class="st4" d="M332.74,209.31c-2.26,8.24-14.31,11.06-18.6,3.06c-2.92,4.84-10.57,4.23-12.79-0.94
				c-13.51,5.24-13.45-17.96-2.97-21.9c17.07-4.19,20.79-4.69,11.22-22.03c-16.44,20.11-48.85,22.3-70.1,8.7
				c-0.43,14.23,19.93,14.38,23.2,26.88c2.3,6.15-4.59,13.75-10.69,10.35c-2.59,3.18-7.64,5.57-11.51,3.44
				c-0.52-0.11-1.03-0.26-1.54-0.44c-12.06,10.17-23.43-6.46-18.25-18.18c3.25-9.45,19.61-21.92,11.85-28.05
				c-26.31-20.77-9.04-43.35-12.05-66.23c-2.54-18.51-15.56-33.74-32.07-41.7c-22.67-22.77,43.74-26.13,61.2,19.61l24.09-1.75
				c-6.08-51.2,64.06-73.82,45.75-42.25c-12,9.77-19.29,24.88-17.16,40.51c0.96,17.8,17.96,27.33,23.96,42.85
				c5.27,14.42-0.09,31.6-12.6,40.49C313.9,179.92,338.32,190.53,332.74,209.31z"/>
			<path class="st0" d="M311.23,151.55c-3.57,5.99-10.77,6.11-16.93,6.59c-6.58,9.03-23.1,13.45-32.25,7.43
				c-25.06,13.79-35.67-17.02-16.74-31.3c0.07-20.18,27.27-25.28,3.34-50.1c-1.29-1.49,1.94-1.97,2.82-2.45
				c38.8-15.18,4.53,20.12,30.73,30.6c16.24,4.47,10.31,12.56,24.37,17.31c-0.01-0.01-0.02-0.02-0.02-0.02
				C313.06,134.14,315.6,144.54,311.23,151.55z"/>
			<path class="st1" d="M297.06,155.38c-5.52-2.36-10.67-6.2-14.3-11c-3.31-4.39-5.1-9.57-5.79-14.94c-3,3.74-7.61,5.95-12.29,3.02
				c0.51,1.78,0.88,3.62,1.1,5.49c0.74,6.36,0.34,13.37-2.24,19.29c-1.27,2.91-3.21,5.39-5.59,7.47c-2.14,1.88-4.67,3.69-7.47,4.45
				c9.88,2.63,23.35-16.85,21.79-31.79c5.45,13.16,22.89,28,31.34,19.82C301.37,156.89,299.18,156.29,297.06,155.38z"/>
			<path class="st3" d="M246.38,117.94c2.02,9.59-10.34,12.05-12.14,2.41C232.22,110.76,244.58,108.31,246.38,117.94z"/>
			<path class="st3" d="M288.98,109.08c1.8,9.64,14.16,7.18,12.14-2.41C299.32,97.03,286.96,99.49,288.98,109.08z"/>
			<path class="st1" d="M323.96,31.49c-8.12,22.49,12.37,61.38-11.11,71.27c-3.24-8.09-12.61-11.72-15.78-19.85
				C291.74,63.37,302.05,31.65,323.96,31.49z"/>
			<path class="st1" d="M226.7,88.12c4.14,5.94-3.07,38.47-10.17,32.19c-21.68-11.86-16.63-41.4-30.77-59.03
				c-0.81-5.94,7.44-3.11,10.69-2.33C210.5,62.9,222.38,74.13,226.7,88.12z"/>
		</g>
		<g>
			<g>
				<path class="st3" d="M226.06,103.68c-0.51,1.53-1.2,2.99-1.75,4.51c-0.54,1.51-0.97,3.06-1.44,4.6
					c-0.96,3.11-1.83,6.25-2.71,9.38c-1.71,6.07-3.23,12.29-3.31,18.63c-0.15,11.17,4.71,22.14,13.13,29.49
					c4.44,3.88,9.73,6.76,15.41,8.35c1.23,0.34,1.74-1.55,0.52-1.9c-9.98-2.89-18.37-9.94-22.87-19.31
					c-2.31-4.81-3.59-10.17-3.66-15.51c-0.09-6.07,1.31-11.99,2.88-17.81c0.89-3.32,1.89-6.62,2.74-9.95
					c0.41-1.62,0.86-3.23,1.24-4.85c0.41-1.76,0.58-3.56,0.99-5.32C227.39,103.25,226.3,102.95,226.06,103.68L226.06,103.68z"/>
			</g>
			<g>
				<path class="st3" d="M271.18,135.32c0.11-0.27-0.17,0.34-0.15,0.3c-0.18,0.5-0.16,1.06-0.26,1.58
					c-0.27,1.52-0.39,3.05-0.53,4.59c-0.34,3.54-0.65,7.19-1.81,10.57c-1.43,4.19-4.1,7.85-7.48,10.67
					c-3.61,3.01-8.39,5.4-13.21,5.1c-4.85-0.31-9.64-4.03-9.94-9.11c-0.07-1.2-1.95-1.21-1.88,0c0.3,4.69,3.71,8.52,7.99,10.19
					c5.06,1.97,11.09,0.8,15.68-1.82c4.29-2.45,7.8-6.22,10.05-10.61c1.99-3.88,2.72-8.18,3.06-12.49c0.16-2.02,0.31-4.1,0.16-6.12
					c-0.07-0.99-0.14-2.08-0.46-2.84C272.16,134.72,271.44,134.72,271.18,135.32L271.18,135.32z"/>
			</g>
			<g>
				<path class="st3" d="M236.39,154.7c-0.65-1.45-0.7-3.49-0.41-5.03c0.33-1.7,1.09-3.3,2.1-4.7c2.23-3.09,5.65-5.09,8.75-7.19
					c0.83-0.56,0.08-1.88-0.79-1.36c-3.64,2.2-7.6,4.36-10.12,7.91c-1.16,1.63-1.9,3.6-2.12,5.59c-0.1,0.92-0.08,1.87,0.1,2.79
					c0.2,1.04,0.74,1.82,1.34,2.66C235.75,156.07,236.74,155.48,236.39,154.7L236.39,154.7z"/>
			</g>
			<g>
				<path class="st3" d="M250.07,81.84c-2.52-10.29-9.76-19.38-18.06-25.72c-9.25-7.06-20.76-10.93-32.39-10.99
					c-4.86-0.03-11.11,0.16-14.76,3.88c-1.87,1.9-2.62,4.6-2.34,7.22c0.31,2.95,1.71,5.55,3.2,8.07c3.2,5.4,5.92,11.02,7.91,16.98
					c1.97,5.89,3.12,12.01,4.87,17.96c2.91,9.87,8.64,20.71,19.45,23.46c1.21,0.31,2.46,0.48,3.72,0.54c1.51,0.08,1.51-2.28,0-2.35
					c-10.35-0.5-17.01-10.34-20.06-19.22c-1.88-5.46-2.98-11.15-4.54-16.7c-1.58-5.64-3.71-11.11-6.39-16.32
					c-1.3-2.53-2.84-4.93-4.18-7.44c-1.27-2.38-2.37-5.28-1.54-7.99c1.42-4.68,7.8-5.06,11.81-5.24c10.91-0.5,22.02,2.48,31.13,8.53
					c4.67,3.1,8.83,7.02,12.26,11.46c3.44,4.46,6.05,9.42,8.4,14.52C248.95,83.36,250.28,82.72,250.07,81.84L250.07,81.84z"/>
			</g>
			<g>
				<path class="st3" d="M231.3,93.92c-1.66-2.29-3.14-4.75-4.41-7.28c-1.29-2.56-2.14-5.22-3.03-7.93
					c-0.46-1.4-2.52-0.84-2.21,0.61c0.62,2.88,1.89,5.73,3.25,8.33c1.39,2.65,3.11,5.04,5.13,7.25
					C230.63,95.58,231.85,94.68,231.3,93.92L231.3,93.92z"/>
			</g>
			<g>
				<path class="st3" d="M227.33,95.67c-1.1-1.53-2.15-3.08-3.26-4.6c-1.13-1.54-2.21-3.15-3.46-4.6c-0.78-0.91-2.35,0.29-1.67,1.29
					c1.08,1.58,2.36,3.04,3.56,4.52c1.18,1.46,2.41,2.88,3.61,4.34C226.67,97.29,227.85,96.39,227.33,95.67L227.33,95.67z"/>
			</g>
			<g>
				<path class="st3" d="M224.76,96.35c-0.98,0.35-1.96,0.66-2.94,0.97c-0.98,0.31-1.95,0.71-2.92,1.07
					c-0.53,0.2-0.95,0.75-0.76,1.34c0.17,0.51,0.78,0.99,1.34,0.76c1.01-0.41,2.04-0.78,3.03-1.22c0.93-0.41,1.79-0.82,2.72-1.21
					c0.44-0.18,0.76-0.59,0.62-1.09C225.74,96.54,225.22,96.19,224.76,96.35L224.76,96.35z"/>
			</g>
			<g>
				<path class="st3" d="M223.79,102.18c-0.34,0.09-0.69,0.13-1.03,0.22c-0.37,0.1-0.72,0.27-1.06,0.42
					c-0.68,0.31-1.29,0.76-1.87,1.22c-1.1,0.88-2.02,2.13-2.6,3.41c-0.23,0.51-0.16,1.18,0.38,1.47c0.48,0.25,1.21,0.15,1.47-0.38
					c0.28-0.58,0.61-1.14,0.98-1.66c0.05-0.07,0.1-0.14,0.16-0.21c-0.14,0.2,0.03-0.04,0.05-0.06c0.09-0.11,0.19-0.23,0.29-0.34
					c0.22-0.25,0.47-0.49,0.71-0.72c0.23-0.23,0.47-0.44,0.72-0.65c0.06-0.05,0.11-0.09,0.17-0.14c-0.16,0.12,0.07-0.05,0.08-0.06
					c0.13-0.1,0.26-0.19,0.39-0.29c0.26-0.19,0.54-0.35,0.81-0.54c0.28-0.2,0.55-0.38,0.86-0.51c0.29-0.12,0.38-0.55,0.27-0.81
					C224.42,102.26,224.11,102.1,223.79,102.18L223.79,102.18z"/>
			</g>
			<g>
				<path class="st3" d="M240.58,87.71c0.76-0.43,1.68-0.66,2.48-1.03c0.81-0.37,1.62-0.74,2.43-1.11c1.63-0.73,3.29-1.42,4.97-2.03
					c3.34-1.2,6.79-2.1,10.29-2.7c3.51-0.6,7.07-0.86,10.63-0.81c1.77,0.03,3.55,0.13,5.31,0.32c1.76,0.19,3.5,0.64,5.26,0.76
					c1.31,0.09,1.44-1.81,0.3-2.19c-1.34-0.45-2.84-0.57-4.24-0.75c-1.43-0.18-2.87-0.32-4.31-0.39c-2.88-0.15-5.77-0.09-8.64,0.17
					c-5.69,0.53-11.29,1.83-16.59,3.96c-1.48,0.59-2.94,1.23-4.35,1.97c-0.68,0.36-1.36,0.74-2.02,1.15
					c-0.76,0.48-1.4,1.13-2.15,1.61C239.29,87.07,239.88,88.1,240.58,87.71L240.58,87.71z"/>
			</g>
			<g>
				<path class="st3" d="M259.88,165.33c0.33,0.59,0.5,1.17,0.96,1.68c0.37,0.41,0.86,0.76,1.32,1.06c1.02,0.66,2.22,1.1,3.38,1.44
					c2.63,0.78,5.44,1.07,8.17,1.01c2.7-0.05,5.42-0.46,8.01-1.22c2.54-0.74,5.56-1.73,7.52-3.6c0.72-0.69-0.02-2.09-1.01-1.73
					c-2.28,0.82-4.34,2.14-6.68,2.87c-2.34,0.73-4.75,1.16-7.19,1.27c-2.4,0.11-4.77-0.1-7.12-0.57c-1.09-0.22-2.19-0.46-3.22-0.88
					c-0.55-0.22-1.08-0.49-1.58-0.81c-0.46-0.3-1.22-0.69-1.54-1.13C260.46,164.12,259.49,164.64,259.88,165.33L259.88,165.33z"/>
			</g>
			<g>
				<path class="st3" d="M234.72,172.62c-0.85,1.13-1.26,2.69-1.89,3.96c-0.66,1.34-1.43,2.61-2.22,3.87
					c-1.61,2.55-3.45,4.95-5.25,7.36c-3.54,4.74-7.04,9.8-8.04,15.75c-0.53,3.12-0.48,6.71,1.15,9.52c0.56,0.96,1.98,0.31,1.75-0.74
					c-0.39-1.76-0.75-3.46-0.72-5.28c0.03-1.8,0.33-3.59,0.84-5.31c1.05-3.57,3.03-6.78,5.16-9.81c2.14-3.05,4.49-5.96,6.52-9.09
					c1-1.54,1.9-3.14,2.65-4.82c0.66-1.48,1.57-3.41,1.37-5.07C235.94,172.27,235.15,172.05,234.72,172.62L234.72,172.62z"/>
			</g>
			<g>
				<path class="st3" d="M221.34,215.93c0.44,0.65,0.89,1.3,1.43,1.87c0.56,0.58,1.25,1.04,1.97,1.38c1.46,0.69,3.13,1.11,4.75,0.93
					c0.52-0.05,0.96-0.4,0.96-0.96c0-0.5-0.44-0.99-0.96-0.96c-1.37,0.08-2.62-0.05-3.89-0.6c-1.23-0.53-2.57-1.27-3.42-2.32
					C221.8,214.81,221,215.43,221.34,215.93L221.34,215.93z"/>
			</g>
			<g>
				<path class="st3" d="M224.81,201.1c1.19-3.94,5.21-6.31,8.85-7.58c4.15-1.45,8.67-2.67,13.1-2.42
					c4.01,0.23,7.68,1.93,10.03,5.26c2.3,3.27,3.94,7.48,3.86,11.51c-0.08,4.12-3.42,8.73-7.99,7.23c-1.14-0.37-1.63,1.42-0.5,1.8
					c4.33,1.46,8.66-1.5,10.19-5.5c1.77-4.65,0.2-9.81-2.01-14.03c-2.22-4.23-5.76-7.28-10.5-8.25c-5.19-1.07-10.52,0.27-15.45,1.87
					c-4.87,1.58-9.91,4.26-10.83,9.76C223.42,201.57,224.56,201.92,224.81,201.1L224.81,201.1z"/>
			</g>
			<g>
				<path class="st3" d="M248.71,209.06c0.94,1.54,2.02,3.63,1.51,5.49c-0.42,1.53-2.3,2.08-3.64,2.47c-1.62,0.47-3.6,1.05-5.15,0.1
					c-0.54-0.33-0.98-0.89-1.22-1.5c-0.27-0.69-0.19-1.38-0.18-2.11c0.02-1.06-1.46-1.45-1.99-0.54c-0.87,1.51-0.41,3.66,0.57,5.01
					c1.21,1.68,3.11,2.43,5.16,2.32c1.91-0.1,3.91-0.66,5.65-1.46c1.83-0.85,3.03-2.42,3.15-4.46c0.07-1.13-0.25-2.23-0.77-3.22
					c-0.56-1.07-1.37-1.91-2.11-2.85C249.25,207.75,248.35,208.47,248.71,209.06L248.71,209.06z"/>
			</g>
			<g>
				<path class="st3" d="M238.49,213.58c-0.22,0.8-0.7,1.62-1.14,2.31c-0.42,0.65-0.9,1.28-1.51,1.77
					c-1.18,0.97-2.63,1.39-4.11,1.21c-1.28-0.16-2.56-0.97-3.24-2.15c-0.72-1.25-0.69-2.68-0.14-4.05c0.2-0.52-0.18-1.14-0.65-1.33
					c-0.55-0.22-1.07-0.01-1.41,0.46c-2.04,2.85-0.63,7.18,2.21,8.9c3.07,1.86,7.27,1.19,9.57-1.56c0.64-0.77,1.13-1.58,1.45-2.52
					c0.33-0.96,0.31-1.87,0.24-2.86C239.71,213.05,238.69,212.85,238.49,213.58L238.49,213.58z"/>
			</g>
			<g>
				<path class="st3" d="M232.62,110.45c0.75-0.2,1.35-0.64,2.01-1.02c0.66-0.38,1.34-0.76,2.05-1.06c0.21-0.09-0.12,0.05,0.08-0.03
					c0.08-0.03,0.17-0.07,0.25-0.1c0.17-0.06,0.34-0.12,0.51-0.18c0.36-0.13,0.73-0.24,1.1-0.35c0.35-0.09,0.7-0.18,1.06-0.25
					c0.2-0.04,0.4-0.07,0.6-0.1c0.23-0.04-0.17,0.02,0.05-0.01c0.11-0.01,0.22-0.03,0.34-0.04c0.79-0.08,1.42-0.65,1.31-1.51
					c-0.12-0.86-0.87-1.22-1.66-1.11c-1.67,0.24-3.3,0.77-4.79,1.55c-0.75,0.39-1.45,0.84-2.11,1.37c-0.7,0.56-1.32,1.13-1.62,1.99
					C231.6,110.12,232.15,110.58,232.62,110.45L232.62,110.45z"/>
			</g>
			<g>
				<path class="st3" d="M301.32,88.81c0.88,1.24,1.62,2.59,2.48,3.85c0.93,1.38,1.97,2.68,2.97,4.01c1.8,2.41,3.68,4.76,5.53,7.13
					c3.42,4.39,6.82,8.86,9.34,13.84c5.06,10,5.49,22.11,0.73,32.31c-2.44,5.22-6.05,9.78-10.55,13.38c-1,0.79,0.41,2.17,1.4,1.4
					c8.57-6.73,14.03-16.96,14.83-27.82c0.44-5.92-0.52-11.92-2.79-17.41c-2.24-5.42-5.57-10.26-9.14-14.88
					c-2.13-2.76-4.28-5.51-6.49-8.21c-1.17-1.44-2.35-2.88-3.55-4.29c-1.2-1.42-2.59-2.64-3.81-4.03
					C301.82,87.57,300.92,88.25,301.32,88.81L301.32,88.81z"/>
			</g>
			<path class="st3" d="M283.83,131.49c-0.96,0.67-2.17,1.02-3.31,0.82c-1.15-0.2-2.22-1.01-2.57-2.13
				c-0.08-0.26-0.13-0.52-0.14-0.78l-0.18,0.02c-0.17,1.34-4.76,5.4-6.03,4.93c-1,0.92-6.29-0.78-6.96-1.95l-0.19,0.02
				c0.09,0.27,0.16,0.53,0.18,0.82c0.11,1.16-0.56,2.32-1.55,2.95c-0.99,0.62-2.24,0.75-3.38,0.5c-3.12-0.67-5.17-4.07-4.97-7.27
				c0.2-3.19,2.25-6.04,4.83-7.93c2.58-1.89,5.66-2.96,8.71-3.91c3.19-0.29,6.78-0.94,9.89-0.18c3.1,0.75,6.08,2.61,7.49,5.48
				C287.06,125.75,286.46,129.67,283.83,131.49z"/>
			<g>
				<path class="st3" d="M271.15,135.1c0.03,0.82,0.32,1.5,0.57,2.28c0.53,1.68,1.37,3.28,2.18,4.85c1.95,3.76,4.16,7.58,7.23,10.55
					c7.18,6.94,19.44,10.08,28.14,4.03c4.25-2.96,6.85-8.56,5.12-13.65c-0.39-1.14-2.2-0.65-1.81,0.5c1.48,4.28-0.6,9.04-4.27,11.5
					c-3.85,2.58-8.92,2.71-13.32,1.75c-4.48-0.98-8.62-3.1-11.93-6.27c-2.77-2.65-4.71-6.01-6.6-9.31
					c-0.91-1.59-1.74-3.26-2.78-4.77c-0.51-0.74-0.87-1.4-1.42-1.91C271.84,134.29,271.13,134.52,271.15,135.1L271.15,135.1z"/>
			</g>
			<g>
				<path class="st3" d="M313.56,139.5c0.21-0.95,0.41-1.79,0.28-2.77c-0.12-0.95-0.49-1.87-0.92-2.72
					c-0.89-1.75-2.31-3.24-3.92-4.35c-3.63-2.5-8.31-2.96-12.55-3.6c-0.97-0.15-1.42,1.31-0.42,1.51c3.79,0.78,7.8,1.35,11.14,3.45
					c1.42,0.9,2.71,2.08,3.6,3.52c0.83,1.33,1.54,3.19,1.48,4.79C312.24,140.06,313.4,140.23,313.56,139.5L313.56,139.5z"/>
			</g>
			<g>
				<path class="st3" d="M273.43,77.02c0.22-5.46,0.71-10.84,2.11-16.14c1.39-5.26,3.58-10.29,6.52-14.86
					c5.37-8.35,13.34-15.02,22.36-19.1c2.23-1.01,4.55-1.88,6.91-2.53c2.25-0.62,4.78-1.07,7.05-0.35c5.82,1.83,4.26,9.6,3.67,14.06
					c-0.8,6.05-0.97,12.17-0.47,18.24c0.5,6.07,1.76,12.04,2.34,18.1c0.55,5.81,0.38,11.58-1.7,17.09
					c-1.75,4.64-4.89,8.74-9.44,10.89c-1.37,0.64-0.18,2.68,1.19,2.03c9.28-4.39,12.59-15.37,12.47-24.91
					c-0.08-6.53-1.44-12.95-2.25-19.41c-0.81-6.49-0.92-13.06-0.24-19.57c0.58-5.57,2.48-11.97-1.65-16.69
					c-3.7-4.22-10.05-2.79-14.65-1.22c-10.07,3.43-19.06,9.96-25.47,18.43c-6.9,9.12-10.91,20.44-10.8,31.9
					c0.01,1.43,0.19,2.84,0.4,4.26C271.94,78.21,273.4,77.92,273.43,77.02L273.43,77.02z"/>
			</g>
			<g>
				<path class="st3" d="M295.33,81.45c1.99-5.51,2.77-11.87,1.72-17.67c-0.23-1.26-2.35-0.98-2.25,0.3
					c0.21,2.84,0.44,5.63,0.25,8.49c-0.19,2.83-0.63,5.68-1.29,8.44C293.51,82.05,294.97,82.43,295.33,81.45L295.33,81.45z"/>
			</g>
			<g>
				<path class="st3" d="M299.59,81.54c0.54-1.78,1.13-3.54,1.66-5.33c0.52-1.77,1.13-3.56,1.51-5.37c0.28-1.33-1.62-1.87-2.05-0.56
					c-0.58,1.76-0.95,3.61-1.39,5.4c-0.44,1.81-0.82,3.63-1.24,5.44C297.86,82.1,299.3,82.5,299.59,81.54L299.59,81.54z"/>
			</g>
			<g>
				<path class="st3" d="M300.81,82.64c1.04,0,2.07,0.04,3.11,0.07c1.03,0.04,2.08-0.01,3.11-0.03c0.57-0.01,1.12-0.5,1.09-1.09
					c-0.03-0.57-0.48-1.11-1.09-1.09c-1.03,0.04-2.08,0.04-3.11,0.13c-1.04,0.09-2.07,0.18-3.11,0.23
					c-0.48,0.02-0.89,0.39-0.89,0.89C299.92,82.23,300.33,82.64,300.81,82.64L300.81,82.64z"/>
			</g>
			<g>
				<path class="st3" d="M303.91,87.17c0.59,0.01,1.21,0.17,1.78,0.31c0.62,0.15,1.23,0.32,1.83,0.55c1.08,0.43,2.19,1.11,2.98,1.82
					c0.43,0.38,1.09,0.43,1.52,0c0.4-0.4,0.42-1.12,0-1.52c-1.09-1.03-2.45-1.84-3.89-2.28c-0.7-0.21-1.46-0.36-2.19-0.39
					c-0.76-0.03-1.45,0.12-2.2,0.23C303,86,303.2,87.16,303.91,87.17L303.91,87.17z"/>
			</g>
			<g>
				<path class="st3" d="M299.23,95.74c-0.58-0.64-1.39-0.92-2.21-1.16c-0.85-0.25-1.73-0.38-2.61-0.46
					c-1.7-0.15-3.43,0.03-5.08,0.44c-0.7,0.18-1.12,0.95-0.93,1.64c0.19,0.68,0.95,1.14,1.64,0.93c1.43-0.43,2.79-0.61,4.29-0.59
					c0.75,0.01,1.5,0.08,2.24,0.17c0.73,0.1,1.44,0.29,2.17,0.19C299.33,96.83,299.66,96.21,299.23,95.74L299.23,95.74z"/>
			</g>
			<g>
				<path class="st3" d="M316.68,170.3c-0.2,1.66,0.71,3.58,1.37,5.07c0.75,1.68,1.65,3.28,2.65,4.82c2.03,3.13,4.38,6.03,6.52,9.09
					c2.12,3.03,4.1,6.24,5.16,9.81c0.51,1.73,0.81,3.51,0.84,5.31c0.03,1.81-0.33,3.52-0.72,5.28c-0.23,1.03,1.19,1.71,1.75,0.74
					c2.93-5.07,1.12-11.88-1.32-16.74c-2.72-5.39-6.85-9.87-10.17-14.88c-0.92-1.38-1.8-2.8-2.57-4.28
					c-0.37-0.7-0.71-1.42-1.04-2.15c-0.37-0.8-0.62-1.71-1.15-2.42C317.55,169.37,316.76,169.59,316.68,170.3L316.68,170.3z"/>
			</g>
			<g>
				<path class="st3" d="M330.52,212.6c-0.85,1.05-2.19,1.79-3.42,2.32c-1.27,0.54-2.53,0.68-3.89,0.6
					c-0.52-0.03-0.96,0.46-0.96,0.96c0,0.57,0.44,0.91,0.96,0.96c1.62,0.17,3.29-0.24,4.75-0.93c0.7-0.34,1.38-0.78,1.93-1.34
					c0.57-0.57,1.03-1.24,1.47-1.91C331.7,212.75,330.91,212.12,330.52,212.6L330.52,212.6z"/>
			</g>
			<g>
				<path class="st3" d="M329.15,198.08c-0.82-4.84-4.88-7.58-9.2-9.2c-4.75-1.78-10.2-3.31-15.31-2.71
					c-2.31,0.27-4.62,0.91-6.61,2.13c-1.98,1.21-3.56,2.96-4.8,4.9c-2.56,4.02-4.38,9.26-3.32,14.02c1.04,4.68,5.68,8.67,10.64,7
					c1.13-0.38,0.65-2.17-0.5-1.8c-4,1.31-7.2-2.16-7.86-5.83c-0.72-3.97,0.96-8.36,2.97-11.72c2.08-3.49,5.28-5.71,9.31-6.3
					c4.43-0.66,8.91,0.5,13.11,1.8c4.13,1.27,8.96,3.55,10.32,8.06C328.14,199.24,329.29,198.89,329.15,198.08L329.15,198.08z"/>
			</g>
			<g>
				<path class="st3" d="M303.01,205.63c-0.63,0.79-1.32,1.51-1.85,2.38c-0.54,0.9-0.9,1.86-1.01,2.91
					c-0.21,2.01,0.77,3.88,2.49,4.91c1.56,0.93,3.52,1.44,5.31,1.69c2.01,0.28,4.18,0,5.62-1.57c1.31-1.42,2.12-3.87,1.09-5.66
					c-0.52-0.91-2-0.52-1.99,0.54c0.01,0.73,0.09,1.42-0.18,2.11c-0.24,0.62-0.68,1.17-1.22,1.5c-1.55,0.96-3.54,0.38-5.15-0.1
					c-1.34-0.39-3.22-0.94-3.64-2.47c-0.51-1.86,0.57-3.94,1.51-5.49C304.35,205.8,303.46,205.06,303.01,205.63L303.01,205.63z"/>
			</g>
			<g>
				<path class="st3" d="M312.94,211.08c-0.12,1.75,0.16,3.33,1.22,4.78c1.07,1.45,2.5,2.58,4.28,3c1.77,0.42,3.59,0.22,5.23-0.55
					c1.62-0.76,2.71-2.15,3.31-3.81c0.62-1.71,0.5-3.87-0.57-5.38c-0.33-0.46-0.86-0.7-1.41-0.46c-0.47,0.21-0.86,0.8-0.65,1.33
					c0.54,1.37,0.57,2.81-0.14,4.05c-0.68,1.18-1.96,1.99-3.24,2.15c-1.48,0.19-2.93-0.24-4.11-1.21c-0.6-0.49-1.09-1.12-1.51-1.77
					c-0.44-0.69-0.92-1.51-1.14-2.31C314.02,210.17,312.99,210.37,312.94,211.08L312.94,211.08z"/>
			</g>
		</g>
	</g>
	<g>
		<g>
			<path class="st4" d="M649.09,114.51c2.68-12.92,3.48-28.23,0.8-46.8c0.48-6.93-4.28-17.51-10.56-24.32
				c0.01-0.37-0.13-0.75-0.5-1.08c-3.77-3.33-8.17-7.01-13.55-6.57c-2.22,0.18-4.43,0.96-6.03,2.57c-1.8,1.81-2.48,4.4-2.33,6.9
				c0.32,5.42,3.23,10.54,5.85,15.16c1.25,2.2,2.46,4.4,3.59,6.65c0.46,1.25,0.92,2.5,1.36,3.75c4.33,12.21,7.61,24.68,6.06,37.49
				C637.77,112.06,643.28,114.09,649.09,114.51z"/>
			<path class="st0" d="M633.78,108.26c-1.07,8.8-4.41,17.75-11.28,26.88c1.88-5.29-6.7-18.73-3.08-21.74
				c-0.04-0.18-0.09-0.35-0.13-0.53c3.95-4.51,6.18-10.22,7.55-16.01c1.6-6.78,2.42-14.08,1.7-21.04c-0.17-1.7-0.49-3.39-1.06-4.97
				c-0.56-1.58-1.38-3.05-2.57-4.33c-2.07-6.24-22.01,2.72-25.8,4.75c-4.97,3.52-9.48,7.09-14.26,9.17
				c-0.21,0.27-0.44,0.54-0.68,0.8c-2.53,2.68-5.99,1.88-9.17,1.11c-0.42-0.1-0.84-0.2-1.26-0.28c-0.5-0.08-1.01-0.18-1.53-0.31
				c-2.34-0.41-4.71-0.65-7.08-0.67c2.21,17.62-2.46,35.85-16.64,47.41c-11.77,10.2-31.39,14.91-44.73,3.92
				c-1.55-1.55-3.04-3.17-4.39-4.89c-3.91,17.09,0.08,37.11,19.39,41.14c-3.17,6.27-4.26,13.45-3.12,20.38
				c-24.21,6.85-4.84,38.37,12.91,23.23c3.1,2.87,8.48,2.1,11.05-1.09c0.49,4.25,7.09-0.53,7.68-2.89
				c9.82,0.06,19.63,0.13,29.46,0.2c4.65,4.89,13.49,5.66,19.15,1.74c2.65,4.43,8.6,6.17,13.26,4.09c7.6,2.71,12.69-6.6,11.57-13.15
				c-16.97-24.21,18.5-39.17,28.37-86.7C643.28,114.09,637.77,112.06,633.78,108.26z"/>
			<path class="st5" d="M548.49,128.52c14.18-11.55,18.86-29.79,16.64-47.41c-0.45,0-0.91-0.02-1.36,0
				c-3.52,0.08-7.16,1.13-10.51-0.49c-2.28-1.11-3.59-3.33-5.42-4.94c-9.09-5.99-16.94-15.9-28.75-18.75
				c-0.06-0.16-0.15-0.32-0.28-0.47c-1.07-1.23-2.87-1.49-4.35-0.94c-1.67,0.63-2.65,2.06-3.28,3.66c-0.7,1.77-1.14,3.67-1.61,5.52
				c-0.53,2.06-1,4.13-1.41,6.21c-1.5,7.65-2.38,15.87-1,23.6c0.49,2.73,1.45,5.48,3.17,7.66c-2.45,4.3-4.46,8.91-6.31,12.74
				c-2.01,3.77-3.6,8.1-4.64,12.64c1.36,1.71,2.84,3.33,4.39,4.89C517.1,143.43,536.72,138.72,548.49,128.52z"/>
			<path class="st1" d="M613.18,101.04c2.15,1.69,3.54,3.81,4.52,6.15c0.44-0.75,0.86-1.5,1.29-2.21
				c6.15-10.19,10.11-24.64,2.58-35.13c-1.09,0.27-2.15,0.62-3.19,1.06c-7,3.01-12.53,9.2-15.96,16.12
				c-1.07,3.17-1.64,6.42-1.51,9.5C605.32,97.01,609.63,98.25,613.18,101.04z"/>
			<path class="st1" d="M531.46,79.79c-0.32-2.6-1.29-5.1-2.46-7.43c-1.24-2.48-2.68-4.9-4.43-7.06c-1.81-2.23-3.88-4.03-6.53-5.2
				c-1.19-0.52-2.41-0.96-3.63-1.38c-0.02,0.05-0.03,0.09-0.05,0.14c-1.66,3.19-3.01,6.53-4.03,9.98c-0.8,2.73-1.39,5.54-1.77,8.38
				c-0.1,3.16,0.03,6.33,0.32,9.46c0.35,3.84,1.2,7.52,2.12,11.25c0.11,0.46,0.2,0.96,0.28,1.47c3.21-4.02,7.31-6.99,12.12-8.94
				c2.21-0.89,4.49-1.55,6.82-2.06C531.28,85.65,531.83,82.76,531.46,79.79z"/>
		</g>
		<g>
			<g>
				<path class="st3" d="M513.13,94.73c-1.03,3.03-2.59,5.9-3.96,8.79c-1.33,2.82-2.73,5.59-4.1,8.39
					c-2.81,5.74-5.56,11.58-7.19,17.78c-1.52,5.81-2.04,11.98-0.64,17.87c1.16,4.85,3.55,9.36,6.77,13.15
					c3.6,4.25,8.44,7.76,13.82,9.36c1.39,0.41,1.9-1.64,0.59-2.14c-8.96-3.44-16.08-10.69-18.65-20.04
					c-3.22-11.71,1.88-23.62,6.9-34.02c1.49-3.08,2.99-6.14,4.36-9.28c1.36-3.12,2.26-6.31,3.21-9.57
					C514.45,94.32,513.37,94.04,513.13,94.73L513.13,94.73z"/>
			</g>
			<g>
				<path class="st3" d="M552.54,81.15c-1.21-2.83-3.41-5.27-5.43-7.56c-2.08-2.35-4.34-4.53-6.74-6.56
					c-4.74-4.02-10.01-7.39-15.65-10c-1.41-0.65-2.85-1.26-4.3-1.82c-1.47-0.57-2.99-1.11-4.58-1.15c-3.33-0.08-5.13,2.47-6.16,5.3
					c-2.47,6.81-4.58,13.95-5.3,21.18c-0.73,7.27,0.18,15.37,4.27,21.61c0.8,1.21,2.69,0.13,1.96-1.14
					c-3.08-5.42-4.3-11.37-4.09-17.58c0.23-6.83,2.11-13.51,4.15-19.99c0.72-2.28,1.36-6.5,4.17-7.13c1.52-0.34,3.15,0.31,4.55,0.83
					c1.33,0.5,2.65,1.04,3.94,1.63c5.24,2.38,10.19,5.46,14.66,9.08c2.52,2.04,4.88,4.27,7.11,6.63c2.25,2.38,4.11,5.15,6.45,7.42
					C552.1,82.43,552.8,81.77,552.54,81.15L552.54,81.15z"/>
			</g>
			<g>
				<path class="st3" d="M529.08,88.74c-1.29-2.13-2.94-4.02-4.83-5.66c-0.93-0.81-1.91-1.56-2.93-2.26
					c-1.07-0.73-2.16-1.44-3.39-1.86c-1.07-0.37-1.55,1.15-0.73,1.73c0.97,0.67,2.03,1.2,3.02,1.84c0.97,0.63,1.89,1.32,2.77,2.07
					c1.79,1.52,3.42,3.23,4.94,5.03C528.47,90.26,529.5,89.44,529.08,88.74L529.08,88.74z"/>
			</g>
			<g>
				<path class="st3" d="M524.45,88.14c-1.22-0.22-2.44-0.44-3.66-0.66c-0.6-0.11-1.2-0.19-1.81-0.28
					c-0.65-0.09-1.47-0.35-2.11-0.12c-0.75,0.27-0.85,1.17-0.21,1.62c0.54,0.38,1.35,0.35,1.99,0.44c0.63,0.08,1.26,0.17,1.89,0.23
					c1.23,0.11,2.47,0.23,3.7,0.34C525.13,89.8,525.34,88.3,524.45,88.14L524.45,88.14z"/>
			</g>
			<g>
				<path class="st3" d="M520.36,90.1c-0.82,0.11-1.64,0.22-2.46,0.34c-0.4,0.06-0.8,0.1-1.2,0.17c-0.42,0.07-0.83,0.11-1.23,0.25
					c-0.45,0.16-0.74,0.55-0.68,1.04c0.06,0.47,0.45,0.8,0.93,0.82c0.48,0.02,0.95-0.08,1.42-0.15c0.42-0.06,0.83-0.13,1.25-0.2
					c0.83-0.14,1.66-0.28,2.49-0.42c0.49-0.08,0.82-0.72,0.67-1.18C521.36,90.22,520.89,90.02,520.36,90.1L520.36,90.1z"/>
			</g>
			<g>
				<path class="st3" d="M538.53,214.49c3.18,0.66,6.85,0.28,9.03-2.4c2.15-2.67,2.32-6.27,1.24-9.42
					c-2.17-6.29-7.63-11.45-13.65-14.07c-6.55-2.85-14.13-2.88-20.71-0.08c-6.12,2.6-11.28,7.81-12.08,14.63
					c-0.43,3.7,0.62,7.54,3.18,10.29c2.36,2.53,5.89,4.04,9.37,3.61c1.46-0.18,1.48-2.5,0-2.32c-5.76,0.71-10.25-4.3-10.31-9.82
					c-0.06-5.94,3.99-10.76,9.02-13.44c5.47-2.92,12.11-3.47,18.02-1.65c5.29,1.63,9.93,5.23,12.92,9.89
					c1.75,2.73,3.24,6.23,1.98,9.46c-1.33,3.4-4.95,3.43-8,4.12C537.94,213.42,537.93,214.36,538.53,214.49L538.53,214.49z"/>
			</g>
			<g>
				<path class="st3" d="M512.07,210.4c0.28,1.92,0.94,3.6,2.4,4.94c1.45,1.33,3.26,2.16,5.22,2.33c3.85,0.32,7.88-2.23,9.18-5.87
					c0.47-1.31-1.69-2.24-2.26-0.95c-1.23,2.72-3.71,4.66-6.81,4.47c-1.39-0.09-2.8-0.7-3.88-1.58c-1.13-0.92-2.31-2.22-2.75-3.64
					C512.96,209.37,511.97,209.69,512.07,210.4L512.07,210.4z"/>
			</g>
			<g>
				<path class="st3" d="M527.36,212.28c0.3,0.41,0.45,0.85,0.79,1.24c0.28,0.32,0.61,0.6,0.94,0.87c0.74,0.6,1.53,1.03,2.42,1.37
					c1.76,0.68,3.75,0.78,5.57,0.26c1.82-0.52,3.39-1.61,4.47-3.17c0.97-1.41,1.77-3.78,1.11-5.47c-0.47-1.2-2.25-1.08-2.31,0.31
					c-0.03,0.65,0.1,1.28-0.05,1.94c-0.15,0.69-0.41,1.31-0.79,1.91c-0.75,1.15-1.95,1.91-3.26,2.27c-1.34,0.36-2.74,0.29-4.05-0.13
					c-0.69-0.23-1.36-0.55-1.99-0.91c-0.31-0.17-0.61-0.37-0.9-0.57c-0.32-0.21-0.76-0.36-1.05-0.61
					C527.8,211.18,526.95,211.72,527.36,212.28L527.36,212.28z"/>
			</g>
			<g>
				<path class="st3" d="M526.93,206.56c0.08,0.93,0.22,1.87,0.25,2.8c0.02,0.48,0,0.95-0.05,1.43c-0.05,0.47-0.2,0.94-0.2,1.41
					c-0.01,0.69,1.05,1.05,1.37,0.37c0.24-0.52,0.3-1.11,0.35-1.68c0.04-0.51,0.05-1.02,0.02-1.53c-0.07-1.09-0.29-2.1-0.86-3.04
					C527.57,205.96,526.89,206.08,526.93,206.56L526.93,206.56z"/>
			</g>
			<g>
				<path class="st3" d="M616.36,104.52c0.23,3.07,0.37,6.11,0.95,9.14c0.58,3.07,1.32,6.11,2.06,9.14
					c1.46,5.95,2.9,11.94,3.29,18.07c0.36,5.77-0.16,11.76-2.6,17.08c-1.97,4.3-5.01,8.06-8.74,10.96
					c-4.28,3.33-9.26,5.24-14.59,6.07c-1.23,0.19-0.95,2.28,0.29,2.18c9.84-0.76,19.06-7.29,23.9-15.76
					c6.17-10.79,4.39-23.68,1.64-35.21c-0.84-3.53-1.76-7.03-2.62-10.55c-0.44-1.81-0.84-3.64-1.27-5.46
					c-0.44-1.88-0.95-3.75-1.17-5.67C617.43,103.81,616.3,103.77,616.36,104.52L616.36,104.52z"/>
			</g>
			<g>
				<path class="st3" d="M588.21,84.98c-1.65-0.81-3.24-1.54-5-2.12c-1.66-0.56-3.35-1.03-5.06-1.43c-3.54-0.84-7.15-1.4-10.78-1.69
					c-7.2-0.57-14.62-0.1-21.64,1.65c-1.08,0.27-0.62,1.89,0.46,1.66c6.92-1.52,13.93-2.14,21-1.59c7.05,0.55,13.88,2.37,20.58,4.54
					C588.38,86.19,588.78,85.26,588.21,84.98L588.21,84.98z"/>
			</g>
			<g>
				<path class="st3" d="M582.61,83.89c2.49-1.56,4.64-3.63,7.04-5.33c2.42-1.71,4.93-3.3,7.54-4.71c5.18-2.8,10.72-4.94,16.44-6.33
					c2.73-0.66,5.78-1.48,8.61-1.33c1.36,0.07,2.54,0.61,3.18,1.86c0.63,1.24,0.72,2.71,0.86,4.07c0.69,6.94,1.31,14.02,0.36,20.96
					c-0.92,6.7-3.41,12.96-7.93,18.03c-0.97,1.08,0.56,2.64,1.6,1.6c4.52-4.46,7.09-10.79,8.25-16.94
					c1.39-7.38,0.87-14.89,0.08-22.31c-0.3-2.85-0.35-6.4-2.86-8.3c-2.44-1.85-5.84-1.1-8.61-0.61c-6.3,1.12-12.45,3.13-18.19,5.94
					c-3.19,1.56-6.29,3.35-9.19,5.41c-2.86,2.03-5.98,4.23-8.03,7.12C581.4,83.56,582.1,84.21,582.61,83.89L582.61,83.89z"/>
			</g>
			<g>
				<path class="st3" d="M604.08,96.4c1.85-1.43,3.8-2.76,5.86-3.87c1.01-0.54,2.04-1.03,3.11-1.44c1.11-0.43,2.28-0.72,3.38-1.18
					c0.44-0.18,0.74-0.53,0.68-1.04c-0.06-0.42-0.46-0.88-0.93-0.82c-2.45,0.3-4.9,1.5-7.05,2.67c-2.19,1.2-4.22,2.71-5.93,4.52
					C602.66,95.83,603.4,96.93,604.08,96.4L604.08,96.4z"/>
			</g>
			<g>
				<path class="st3" d="M607.88,97.28c1.24,0.15,2.48,0.3,3.73,0.45c0.61,0.07,1.22,0.12,1.83,0.17c0.71,0.06,1.39,0.19,2.07-0.1
					c0.65-0.28,0.51-1.22,0-1.53c-0.56-0.36-1.35-0.3-2-0.35c-0.63-0.05-1.26-0.09-1.9-0.12c-1.24-0.04-2.48-0.08-3.73-0.12
					c-0.43-0.01-0.8,0.38-0.8,0.8C607.07,96.95,607.44,97.22,607.88,97.28L607.88,97.28z"/>
			</g>
			<g>
				<path class="st3" d="M610.72,100.21c0.77,0.31,1.54,0.61,2.31,0.92c0.37,0.15,0.74,0.3,1.11,0.44c0.4,0.15,0.8,0.32,1.22,0.39
					c0.47,0.08,0.92-0.09,1.11-0.55c0.18-0.43,0.02-0.93-0.39-1.18c-0.41-0.25-0.88-0.41-1.32-0.58c-0.38-0.15-0.77-0.29-1.16-0.43
					c-0.79-0.29-1.58-0.57-2.37-0.86c-0.47-0.17-1.07,0.19-1.18,0.67C609.93,99.59,610.22,100.01,610.72,100.21L610.72,100.21z"/>
			</g>
			<g>
				<path class="st3" d="M586.13,211.97c-2.69-0.61-5.97-0.59-7.56-3.24c-1.55-2.58-0.88-5.8,0.39-8.34
					c2.49-4.97,6.91-9.03,12.04-11.16c5.7-2.37,12.28-2.35,17.99-0.04c5.24,2.11,9.9,6.39,10.9,12.15c0.54,3.15-0.14,6.62-2.32,9.02
					c-2,2.2-4.84,3.41-7.82,3.05c-1.48-0.18-1.46,2.14,0,2.32c3.07,0.38,6.11-0.75,8.44-2.73c2.51-2.13,3.89-5.21,4.17-8.45
					c0.59-6.95-4.02-13.03-9.87-16.26c-6.23-3.44-13.95-4.14-20.69-1.9c-6.2,2.06-11.66,6.49-14.74,12.27
					c-1.81,3.4-2.69,7.5-0.68,11.02c1.99,3.5,6.09,4.24,9.77,3.48C586.73,213.04,586.72,212.11,586.13,211.97L586.13,211.97z"/>
			</g>
			<g>
				<path class="st3" d="M611.48,208.78c-0.43,1.39-1.56,2.65-2.66,3.57c-1.09,0.91-2.53,1.56-3.96,1.65
					c-3.1,0.2-5.58-1.74-6.81-4.47c-0.57-1.27-2.73-0.37-2.26,0.95c1.29,3.63,5.33,6.2,9.18,5.87c1.97-0.17,3.77-0.99,5.22-2.33
					c1.47-1.34,2.12-3.02,2.4-4.94C612.7,208.37,611.7,208.05,611.48,208.78L611.48,208.78z"/>
			</g>
			<g>
				<path class="st3" d="M596.4,210.27c-0.26,0.23-0.66,0.36-0.96,0.55c-0.3,0.2-0.59,0.4-0.9,0.58c-0.63,0.36-1.3,0.69-1.98,0.93
					c-1.34,0.45-2.78,0.54-4.15,0.17c-1.27-0.34-2.46-1.08-3.21-2.18c-0.39-0.58-0.66-1.21-0.82-1.89
					c-0.16-0.69-0.04-1.34-0.07-2.04c-0.06-1.38-1.84-1.53-2.31-0.31c-0.65,1.66,0.12,3.98,1.05,5.38c1.07,1.6,2.68,2.73,4.52,3.25
					c1.79,0.5,3.73,0.42,5.47-0.22c0.92-0.34,1.76-0.79,2.52-1.41c0.33-0.27,0.66-0.55,0.94-0.87c0.34-0.39,0.5-0.84,0.79-1.24
					C597.71,210.41,596.87,209.86,596.4,210.27L596.4,210.27z"/>
			</g>
			<g>
				<path class="st3" d="M596.86,205.01c-0.58,0.93-0.8,1.95-0.86,3.04c-0.03,0.51-0.03,1.02,0.02,1.53
					c0.05,0.57,0.1,1.16,0.35,1.68c0.32,0.68,1.38,0.32,1.37-0.37c0-0.47-0.15-0.94-0.2-1.41c-0.05-0.47-0.07-0.95-0.05-1.43
					c0.03-0.93,0.17-1.87,0.25-2.8C597.77,204.76,597.09,204.64,596.86,205.01L596.86,205.01z"/>
			</g>
			<g>
				<path class="st3" d="M610.74,172.69c0,0.8-0.19,1.58-0.17,2.38c0.01,0.79,0.04,1.58,0.13,2.37c0.15,1.45,0.34,2.91,0.64,4.34
					c0.3,1.45,0.67,2.9,1.09,4.32c0.41,1.37,0.77,3.15,1.69,4.27c0.48,0.59,1.51,0.1,1.49-0.62c-0.05-1.38-0.83-2.86-1.23-4.19
					c-0.41-1.37-0.77-2.76-1.07-4.16c-0.3-1.4-0.6-2.8-0.83-4.21c-0.12-0.73-0.25-1.45-0.37-2.18c-0.13-0.77-0.41-1.56-0.49-2.34
					C611.54,172.15,610.74,172.12,610.74,172.69L610.74,172.69z"/>
			</g>
			<g>
				<path class="st3" d="M624.54,133.81c9.14-15.21,11.52-34.15,8.15-51.43c-1.69-8.67-4.91-17.07-9.56-24.59
					c-2.45-3.96-5.46-8.06-5.23-12.95c0.21-4.29,3.4-7.08,7.58-7.31c8.76-0.48,15.55,7.36,18.79,14.66
					c3.81,8.57,4.94,18.36,5.58,27.63c1.22,17.57-1.4,35.59-7.04,52.24c-5.64,16.65-14.44,32.36-26.04,45.59
					c-1.43,1.63-2.9,3.23-4.41,4.78c-0.8,0.83,0.47,2.1,1.27,1.27c12.54-13.12,22.32-28.72,28.86-45.64
					c6.51-16.85,9.85-34.91,9.5-52.98c-0.09-4.54-0.35-9.07-0.89-13.59c-0.59-4.88-1.32-9.8-2.64-14.55
					c-2.43-8.75-7.9-17.5-16.77-20.79c-3.6-1.33-8.05-1.47-11.44,0.54c-3.85,2.29-5,6.83-4.26,11.02c0.86,4.85,4.11,8.84,6.51,13.01
					c2.3,3.98,4.19,8.19,5.66,12.54c5.86,17.32,5.28,36.9-1.88,53.75c-0.88,2.08-1.78,4.16-2.8,6.18
					C623.14,133.89,624.14,134.48,624.54,133.81L624.54,133.81z"/>
			</g>
			<path class="st1" d="M567.98,141.39c-1.37,1.65-2.76,3.31-4.56,4.48c-1.79,1.16-4.07,1.77-6.1,1.08c-1.18-0.4-2.18-1.2-3.14-2.01
				c-1.61-1.37-3.19-2.83-4.24-4.68c-1.04-1.84-1.48-4.13-0.71-6.1l1.61-1.48c5.03-1.06,10.34-0.73,15.2,0.96
				c1.66,0.57,3.46,1.53,3.82,3.24C570.2,138.54,569.06,140.1,567.98,141.39z"/>
			<g>
				<path class="st3" d="M540.12,138.21c-0.69,0.14-1.33,0.07-2.03,0.32c-0.69,0.26-1.34,0.62-1.87,1.14
					c-1.02,1.03-1.39,2.47-1.42,3.89c-0.06,2.72,0.84,5.8,2.05,8.22c1.27,2.53,3.37,4.69,6.12,5.53c2.98,0.91,6.29,0.25,9-1.16
					c3.2-1.67,6.06-4.43,8.24-7.28c0.7-0.91-0.75-1.89-1.53-1.18c-2.54,2.33-4.63,5.05-7.76,6.67c-2.91,1.51-6.62,1.93-9.42-0.06
					c-2.4-1.7-3.56-4.77-4.19-7.53c-0.32-1.38-0.62-2.97-0.29-4.37c0.19-0.79,0.61-1.43,1.27-1.91c0.31-0.22,0.66-0.4,1-0.58
					c0.35-0.18,0.75-0.5,1.11-0.64C541.08,139.03,540.82,138.06,540.12,138.21L540.12,138.21z"/>
			</g>
			<g>
				<path class="st3" d="M579.87,142.92c0.61,0.38,1.31,1.08,1.8,1.61c0.6,0.66,0.89,1.44,0.87,2.33c-0.02,1.57-0.75,3.19-1.44,4.57
					c-1.28,2.53-3.1,5.16-5.89,6.15c-3.03,1.07-6.34-0.12-8.74-2.08c-2.73-2.23-4.2-5.32-6.19-8.14c-0.73-1.03-2.22-0.16-1.68,0.98
					c2.53,5.36,7.14,11.13,13.46,11.69c6.16,0.54,10.21-5.15,12.03-10.33c0.54-1.54,0.82-3.36,0.13-4.9
					c-0.33-0.75-0.86-1.36-1.51-1.84c-0.31-0.23-0.63-0.43-0.99-0.59c-0.42-0.19-0.88-0.23-1.29-0.41
					C579.79,141.69,579.26,142.54,579.87,142.92L579.87,142.92z"/>
			</g>
			<g>
				<path class="st3" d="M553.37,159.03c0.06,0.25,0.09,0.58,0.21,0.88c0.13,0.33,0.29,0.64,0.47,0.95
					c0.36,0.58,0.77,1.14,1.25,1.63c0.47,0.49,1,0.92,1.56,1.31c0.58,0.41,1.2,0.7,1.86,0.96c0.52,0.21,1.2-0.23,1.32-0.75
					c0.14-0.62-0.19-1.09-0.75-1.32c-0.25-0.1,0.21,0.1-0.03-0.01c-0.07-0.03-0.14-0.06-0.21-0.1c-0.13-0.06-0.25-0.12-0.38-0.19
					c-0.25-0.13-0.5-0.26-0.75-0.41c-0.25-0.15-0.5-0.32-0.74-0.49c-0.02-0.02-0.2-0.15-0.08-0.06c0.12,0.09-0.06-0.05-0.08-0.06
					c-0.12-0.1-0.24-0.2-0.35-0.3c-0.42-0.38-0.82-0.78-1.18-1.22c-0.05-0.06-0.1-0.12-0.14-0.18c0.11,0.14-0.04-0.06-0.05-0.07
					c-0.1-0.14-0.21-0.28-0.32-0.41c-0.05-0.06-0.1-0.12-0.14-0.17c0.11,0.14-0.23-0.28-0.14-0.18c-0.09-0.1-0.19-0.17-0.26-0.26
					C554.07,158.05,553.22,158.35,553.37,159.03L553.37,159.03z"/>
			</g>
			<path class="st3" d="M544.85,121.51c-0.03,9.19-12.19,9.02-11.94-0.18C532.94,112.14,545.1,112.32,544.85,121.51z"/>
			<path class="st3" d="M589.22,126.99c-0.03,9.19-12.19,9.02-11.94-0.18C577.3,117.62,589.46,117.8,589.22,126.99z"/>
			<g>
				<path class="st3" d="M531.06,109.88c0.88-0.05,1.63-0.66,2.36-1.11c0.75-0.46,1.49-0.9,2.29-1.26c0.64-0.29,1.45-0.58,2.21-0.81
					c0.41-0.12,0.82-0.23,1.23-0.32c0.43-0.09,0.91-0.12,1.32-0.27c0.62-0.23,1.06-0.77,0.96-1.47c-0.1-0.67-0.63-1.13-1.31-1.16
					c-0.5-0.02-1.05,0.14-1.54,0.25c-0.44,0.1-0.87,0.22-1.3,0.36c-0.94,0.3-1.85,0.69-2.73,1.14c-0.8,0.41-1.57,0.88-2.29,1.42
					c-0.73,0.54-1.77,1.33-1.92,2.29C530.28,109.38,530.54,109.9,531.06,109.88L531.06,109.88z"/>
			</g>
			<g>
				<path class="st3" d="M589.82,115.17c0.25-0.97-0.74-1.64-1.42-2.11c-0.66-0.45-1.33-0.84-2.05-1.16
					c-1.54-0.68-3.2-1.3-4.89-1.44c-0.68-0.06-1.28,0.57-1.36,1.2c-0.09,0.67,0.32,1.34,0.99,1.52c0.74,0.2,1.49,0.33,2.23,0.53
					c0.74,0.21,1.46,0.46,2.17,0.75c-0.13-0.06-0.02-0.01,0.05,0.02c0.08,0.04,0.16,0.07,0.25,0.11c0.23,0.1,0.46,0.2,0.69,0.29
					c0.04,0.02,0.08,0.03,0.12,0.05c-0.08-0.04-0.08-0.03,0,0c0.08,0.04,0.17,0.07,0.25,0.11c0.16,0.07,0.33,0.15,0.49,0.23
					c0.43,0.21,0.88,0.44,1.36,0.49C589.13,115.8,589.7,115.65,589.82,115.17L589.82,115.17z"/>
			</g>
			<g>
				<path class="st3" d="M518.08,169.86c-1.93,1.3-3.29,3.13-4.39,5.16c-0.54,0.99-0.98,2.05-1.35,3.11
					c-0.37,1.07-0.83,2.34-0.78,3.49c0.05,1.12,1.48,1.23,1.87,0.25c0.38-0.95,0.49-2.04,0.81-3.03c0.33-1,0.74-1.97,1.21-2.91
					c0.94-1.88,2.22-3.58,3.4-5.31C519.16,170.16,518.54,169.55,518.08,169.86L518.08,169.86z"/>
			</g>
			<g>
				<path class="st3" d="M516.8,177.86c-0.54,0.63-1.09,1.23-1.51,1.95c-0.43,0.75-0.75,1.59-0.98,2.42
					c-0.47,1.67-0.55,3.49-0.17,5.19c0.12,0.55,0.76,0.88,1.29,0.73c0.6-0.17,0.81-0.73,0.73-1.29c-0.2-1.39-0.2-2.8,0.07-4.18
					c0.14-0.71,0.36-1.39,0.59-2.07c0.25-0.7,0.5-1.42,0.9-2.04C518.08,178.02,517.24,177.34,516.8,177.86L516.8,177.86z"/>
			</g>
		</g>
	</g>
	<g>
		<g>
			<path class="st1" d="M211.81,288.36c-0.2,0-0.39-0.06-0.55-0.18c-0.22-0.16-0.37-0.41-0.39-0.69l-1.75-23.66l0-2.23
				c0-21.94,2.94-35.65,8.99-41.91c6.17-6.34,12.72-9.56,19.47-9.56c6.18,0,12.43,2.8,18.59,8.34c6.68-8.23,14.58-12.4,23.52-12.4
				c12.75,0,20.94,8.52,24.33,25.32c1.21,6.59,1.82,13.78,1.82,21.39c0,1.11-0.02,2.24-0.05,3.39c-0.96,22.44-2.72,24.32-4.45,24.32
				l-27-2.36c-0.26-0.02-0.5-0.15-0.66-0.36c-0.16-0.21-0.23-0.47-0.18-0.73c0.76-4.38,1.34-11.01,1.74-19.72
				c-0.19-2.13-0.33-3.99-0.43-5.58c-3.16,7.57-5.55,12.29-7.28,14.38c-2.12,2.55-5.9,3.85-11.25,3.85
				c-6.94,0-12.16-4.33-15.51-12.88l-0.7-1.68l2.01,28.75c0.02,0.26-0.08,0.52-0.26,0.72c-0.18,0.18-0.42,0.29-0.68,0.29
				c-0.01,0-0.02,0-0.03,0c-0.96-0.03-1.93-0.05-2.93-0.05c-8.7,0-17.5,1.09-26.14,3.23C211.96,288.35,211.89,288.36,211.81,288.36z
				"/>
			<path class="st3" d="M279.68,207.01c12.3,0,20.1,8.19,23.41,24.56c1.2,6.55,1.8,13.62,1.8,21.2c0,1.1-0.02,2.22-0.05,3.36
				c-0.67,15.61-1.84,23.41-3.51,23.41l-26.92-2.36c0.77-4.44,1.35-11.08,1.75-19.9c-0.4-4.58-0.6-7.89-0.6-9.93
				c-3.91,9.76-6.83,15.81-8.77,18.15c-1.94,2.34-5.45,3.51-10.53,3.51c-6.55,0-11.43-4.09-14.64-12.28l-2.91-7.02l2.41,34.49
				c-0.97-0.03-1.96-0.05-2.96-0.05c-8.82,0-17.61,1.09-26.37,3.26l-1.75-23.66v-2.16c0-21.49,2.91-35.24,8.72-41.26
				c6.01-6.18,12.28-9.27,18.8-9.27c6.22,0,12.45,2.92,18.7,8.77C262.92,211.29,270.73,207.01,279.68,207.01 M279.68,205.14
				c-8.95,0-16.89,4.03-23.62,11.99c-6.1-5.27-12.31-7.93-18.48-7.93c-7.01,0-13.79,3.31-20.14,9.84
				c-6.23,6.44-9.25,20.36-9.25,42.56v2.16c0,0.05,0,0.09,0.01,0.14l1.75,23.66c0.04,0.55,0.32,1.06,0.77,1.38
				c0.32,0.23,0.71,0.36,1.1,0.36c0.15,0,0.3-0.02,0.45-0.06c8.57-2.13,17.29-3.2,25.92-3.2c0.96,0,1.93,0.02,2.89,0.05
				c0.02,0,0.04,0,0.06,0c0.51,0,1-0.21,1.35-0.57c0.37-0.38,0.56-0.9,0.52-1.43l-1.63-23.35c3.49,6.74,8.49,10.16,14.9,10.16
				c5.64,0,9.67-1.41,11.97-4.19c1.49-1.8,3.44-5.45,5.91-11.07c0.04,0.54,0.09,1.1,0.14,1.69c-0.4,8.64-0.98,15.22-1.72,19.54
				c-0.09,0.52,0.04,1.05,0.36,1.46s0.8,0.68,1.32,0.72l26.92,2.36c0.05,0,0.11,0.01,0.16,0.01c2.39,0,3.3-2.85,3.99-7.45
				c0.59-3.95,1.06-9.92,1.4-17.76c0.03-1.19,0.05-2.34,0.05-3.44c0-7.66-0.62-14.91-1.84-21.54
				C301.44,213.91,292.94,205.14,279.68,205.14L279.68,205.14z"/>
		</g>
		<g>
			<path class="st1" d="M327.49,295.02c-0.22,0-0.44-0.08-0.61-0.23c-6.61-5.71-13.55-12.24-20.61-19.4
				c-0.36-0.36-0.36-0.94-0.01-1.31c4.73-4.95,9.87-11.22,15.3-18.62c-4.94-8.68-12.09-18.28-21.24-28.54
				c-0.34-0.38-0.31-0.97,0.07-1.32c9.21-8.44,16.36-14,21.26-16.53c0.14-0.07,0.28-0.1,0.43-0.1c0.22,0,0.43,0.08,0.61,0.22
				c6.74,5.7,13.1,13.77,18.92,23.99c8.31-10.6,16.45-20.79,24.21-30.29c0.18-0.22,0.45-0.34,0.73-0.34c0.16,0,0.32,0.04,0.47,0.13
				c8,4.61,15.16,10.37,21.28,17.13c0.29,0.32,0.32,0.8,0.08,1.16c-17.43,25.59-37.68,50.41-60.2,73.76
				C327.98,294.93,327.73,295.02,327.49,295.02z"/>
			<path class="st3" d="M366.54,203.5c7.95,4.58,14.97,10.23,21.05,16.94c-17.48,25.67-37.51,50.21-60.1,73.64
				c-6.62-5.71-13.47-12.16-20.55-19.35c4.88-5.11,10.13-11.51,15.74-19.2c-5.01-8.92-12.23-18.66-21.66-29.23
				c9.19-8.42,16.21-13.89,21.05-16.39c6.95,5.88,13.42,14.2,19.4,24.96C350.13,223.82,358.48,213.36,366.54,203.5 M366.54,201.63
				c-0.55,0-1.09,0.24-1.45,0.69c-7.5,9.18-15.35,19-23.36,29.21c-5.69-9.75-11.88-17.49-18.43-23.04
				c-0.35-0.29-0.78-0.44-1.21-0.44c-0.29,0-0.59,0.07-0.86,0.21c-5.04,2.61-12.06,8.06-21.46,16.68c-0.76,0.69-0.82,1.87-0.13,2.63
				c8.92,10,15.92,19.36,20.82,27.85c-5.27,7.15-10.27,13.22-14.87,18.03c-0.7,0.73-0.69,1.89,0.02,2.61
				c7.08,7.18,14.03,13.72,20.66,19.45c0.35,0.31,0.79,0.46,1.23,0.46c0.49,0,0.98-0.19,1.35-0.57
				c22.56-23.39,42.85-48.25,60.3-73.88c0.49-0.72,0.42-1.67-0.16-2.32c-6.18-6.83-13.42-12.65-21.51-17.31
				C367.18,201.71,366.86,201.63,366.54,201.63L366.54,201.63z"/>
		</g>
		<g>
			<path class="st1" d="M412.61,300.99c-10.5-0.8-20.92-2-30.95-3.57c-0.25-0.04-0.48-0.18-0.62-0.39c-0.15-0.21-0.2-0.47-0.15-0.72
				c1.52-7.69,2.29-16.96,2.29-27.54c0-11.57-0.93-25.07-2.75-40.14c-0.04-0.3,0.07-0.59,0.29-0.8
				c16.88-15.74,30.89-24.39,41.63-25.71c2.12-0.24,4.19-0.36,6.18-0.36c14.28,0,25.76,6.6,34.12,19.63
				c0.02,0.03,0.04,0.06,0.05,0.1c1.61,3.32,2.68,7.25,3.19,11.68c0.34,2.76,0.51,5.43,0.51,7.93c0,11.18-3.39,19.97-10.08,26.1
				c-8.13,7.45-16.38,11.73-24.53,12.72c-0.04,0-0.08,0.01-0.11,0.01c-0.07,0-0.14-0.01-0.21-0.02c-5.25,0.65-9.21,0.98-11.77,0.98
				c-0.71,0-1.31-0.03-1.82-0.08c-0.33,5.58-1.78,12.15-4.31,19.55c-0.13,0.38-0.49,0.63-0.89,0.63
				C412.66,300.99,412.64,300.99,412.61,300.99z M425.22,230.56c-0.57,0-1.14,0.03-1.7,0.09c-3.25,0.37-5.82,1.76-7.85,4.23
				c-1.75,2.09-2.59,4.32-2.59,6.82c0,0.46,0.03,0.92,0.09,1.38c0.37,3.08,1.79,5.5,4.34,7.39c2.1,1.57,4.46,2.37,7.01,2.37
				c0.57,0,1.14-0.03,1.7-0.1c3.25-0.4,5.84-1.81,7.91-4.28c1.71-2.08,2.54-4.31,2.54-6.82c0-0.46-0.03-0.92-0.09-1.38
				c-0.37-3.08-1.79-5.5-4.34-7.39C430.1,231.34,427.74,230.56,425.22,230.56z"/>
			<path class="st3" d="M428.52,202.7c14,0,25.11,6.4,33.34,19.2c1.57,3.24,2.61,7.04,3.11,11.38c0.33,2.74,0.5,5.35,0.5,7.82
				c0,10.96-3.26,19.43-9.78,25.41c-8.02,7.35-16.02,11.51-24.01,12.48l-0.05-0.05c-5.38,0.67-9.36,1-11.93,1
				c-1.24,0-2.14-0.08-2.71-0.25c-0.2,5.75-1.64,12.53-4.31,20.35c-10.53-0.8-20.82-1.99-30.88-3.56
				c1.54-7.79,2.31-17.03,2.31-27.72c0-11.66-0.92-25.08-2.76-40.25c16.81-15.67,30.51-24.16,41.1-25.47
				C424.53,202.82,426.55,202.7,428.52,202.7 M424.51,253.78c0.6,0,1.2-0.03,1.8-0.1c3.47-0.43,6.32-1.97,8.52-4.61
				c1.84-2.24,2.76-4.71,2.76-7.42c0-0.5-0.03-1-0.1-1.5c-0.4-3.31-1.97-5.98-4.71-8.02c-2.31-1.67-4.83-2.51-7.57-2.51
				c-0.6,0-1.2,0.03-1.8,0.1c-3.48,0.4-6.3,1.92-8.47,4.56c-1.87,2.24-2.81,4.71-2.81,7.42c0,0.5,0.03,1,0.1,1.5
				c0.4,3.31,1.97,5.98,4.71,8.02C419.22,252.93,421.74,253.78,424.51,253.78 M428.52,200.83c-2.02,0-4.13,0.12-6.28,0.36
				c-11.12,1.37-24.91,9.86-42.17,25.96c-0.44,0.41-0.66,1-0.58,1.6c1.82,15.03,2.74,28.5,2.74,40.03c0,10.52-0.76,19.72-2.27,27.36
				c-0.1,0.5,0.01,1.02,0.3,1.44c0.29,0.42,0.74,0.7,1.25,0.78c10.06,1.57,20.5,2.77,31.03,3.58c0.05,0,0.1,0.01,0.14,0.01
				c0.8,0,1.51-0.51,1.77-1.27c2.41-7.06,3.85-13.39,4.29-18.85c0.29,0.01,0.61,0.02,0.95,0.02c2.58,0,6.53-0.32,11.75-0.97
				c0.08,0.01,0.15,0.01,0.23,0.01c0.08,0,0.15,0,0.23-0.01c8.35-1.01,16.78-5.37,25.05-12.96c6.89-6.32,10.38-15.34,10.38-26.8
				c0-2.53-0.17-5.24-0.52-8.05c-0.52-4.52-1.63-8.55-3.28-11.97c-0.03-0.07-0.07-0.13-0.11-0.2
				C454.89,207.58,443.14,200.83,428.52,200.83L428.52,200.83z M424.51,251.91c-2.38,0-4.49-0.71-6.44-2.18
				c-2.34-1.74-3.64-3.94-3.98-6.74c-0.06-0.44-0.09-0.86-0.09-1.28c0-2.27,0.78-4.31,2.37-6.22c1.88-2.28,4.25-3.55,7.25-3.9
				c0.52-0.06,1.06-0.09,1.59-0.09c2.36,0,4.47,0.7,6.47,2.15c2.31,1.72,3.61,3.93,3.95,6.73c0.06,0.44,0.09,0.86,0.09,1.28
				c0,2.28-0.76,4.32-2.33,6.23c-1.9,2.27-4.29,3.56-7.3,3.94C425.58,251.88,425.05,251.91,424.51,251.91L424.51,251.91z"/>
		</g>
		<g>
			<path class="st1" d="M517.38,296.33c-1.11,0-2.22-0.02-3.34-0.05c-14.29-0.37-26.09-4.47-35.07-12.18
				c-9.03-7.75-13.74-19.04-14.01-33.55c-0.03-0.29-0.05-0.65-0.05-1.02c0-14.05,5.76-25.58,17.11-34.28
				c11.54-8.81,23.29-13.28,34.91-13.28c18.98,0,32.06,6.87,38.88,20.42c0.02,0.04,0.04,0.08,0.05,0.12c1.2,3.56,1.8,7.2,1.8,10.83
				c-1.26,16.2-12.34,27.48-32.94,33.65c0.19,0,0.38,0,0.57,0c5.11,0,10.53-1.04,16.12-3.1c0.11-0.04,0.21-0.06,0.32-0.06
				c0.16,0,0.32,0.04,0.46,0.12c0.24,0.13,0.41,0.36,0.46,0.63c1.79,8.82,3.87,17.1,6.19,24.62c0.14,0.44-0.06,0.91-0.47,1.11
				C540.5,294.3,530.07,296.33,517.38,296.33z M512.72,227.85c-1.86,0-3.81,0.35-5.81,1.05c-3.66,1.26-6.47,3.35-8.35,6.2
				c-1.23,1.87-1.85,3.72-1.85,5.5c0,0.92,0.17,1.84,0.49,2.73c0.95,2.72,2.97,4.57,6.19,5.65c1.53,0.5,3.1,0.75,4.66,0.75
				c1.86,0,3.78-0.34,5.71-1c3.65-1.29,6.46-3.41,8.34-6.29c1.23-1.88,1.85-3.73,1.85-5.5c0-0.9-0.15-1.81-0.45-2.71
				c-0.94-2.7-2.96-4.54-6.18-5.62C515.83,228.11,514.28,227.85,512.72,227.85z"/>
			<path class="st3" d="M516.93,202.9c18.68,0,31.36,6.63,38.05,19.9c1.17,3.48,1.75,6.99,1.75,10.53
				c-1.34,17.08-13.82,28.46-37.44,34.14c1.97,0.3,3.98,0.45,6.02,0.45c5.25,0,10.73-1.05,16.44-3.16
				c1.8,8.89,3.88,17.13,6.22,24.71c-7.79,3.94-17.98,5.92-30.58,5.92c-1.1,0-2.21-0.02-3.31-0.05
				c-14.14-0.37-25.63-4.35-34.49-11.96c-8.86-7.6-13.42-18.55-13.69-32.86c-0.03-0.33-0.05-0.67-0.05-1
				c0-13.8,5.58-24.98,16.74-33.54C494.02,207.26,505.47,202.9,516.93,202.9 M508.06,250.67c1.97,0,3.98-0.35,6.02-1.05
				c3.88-1.37,6.82-3.59,8.82-6.67c1.34-2.04,2-4.04,2-6.02c0-1-0.17-2-0.5-3.01c-1.04-2.97-3.29-5.05-6.77-6.22
				c-1.6-0.53-3.24-0.8-4.91-0.8c-1.97,0-4.01,0.37-6.12,1.1c-3.88,1.34-6.82,3.53-8.82,6.57c-1.34,2.04-2,4.04-2,6.01
				c0,1.04,0.18,2.06,0.55,3.06c1.04,2.97,3.29,5.05,6.77,6.22C504.73,250.41,506.39,250.67,508.06,250.67 M516.93,201.03
				c-11.83,0-23.77,4.53-35.48,13.47c-11.6,8.89-17.48,20.67-17.48,35.03c0,0.38,0.02,0.75,0.05,1.11
				c0.29,14.76,5.11,26.26,14.34,34.17c9.15,7.86,21.15,12.03,35.66,12.41c1.13,0.03,2.26,0.05,3.36,0.05
				c12.84,0,23.41-2.06,31.43-6.12c0.82-0.41,1.21-1.35,0.95-2.23c-2.31-7.49-4.39-15.75-6.17-24.53c-0.11-0.54-0.45-1-0.92-1.27
				c-0.28-0.16-0.6-0.24-0.91-0.24c-0.22,0-0.44,0.04-0.65,0.12c-3.12,1.15-6.19,1.98-9.17,2.48c16.57-6.63,25.53-17.36,26.68-32
				c0-0.05,0.01-0.1,0.01-0.15c0-3.73-0.62-7.47-1.85-11.13c-0.03-0.08-0.06-0.17-0.1-0.25
				C549.65,208.07,536.29,201.03,516.93,201.03L516.93,201.03z M508.06,248.8c-1.47,0-2.94-0.24-4.38-0.71
				c-2.91-0.98-4.74-2.63-5.58-5.05c-0.3-0.83-0.45-1.62-0.45-2.44c0-1.59,0.57-3.27,1.7-4.99c1.79-2.71,4.36-4.61,7.87-5.82
				c1.9-0.66,3.75-1,5.5-1c1.46,0,2.91,0.24,4.32,0.71c2.92,0.98,4.75,2.64,5.59,5.05c0.26,0.78,0.4,1.59,0.4,2.39
				c0,1.59-0.57,3.27-1.7,4.99c-1.79,2.75-4.37,4.69-7.88,5.93C511.63,248.48,509.81,248.8,508.06,248.8L508.06,248.8z"/>
		</g>
		<g>
			<path class="st1" d="M594.01,299.79c-12.95,0-21.9-6.7-26.6-19.92c-0.02-0.05-0.03-0.1-0.04-0.16
				c-0.81-4.74-1.22-8.54-1.22-11.29v-1.15c0-3.18,0.28-8.9,0.83-17.02c-2.11,0.21-4.46,0.61-7,1.19c-0.07,0.02-0.14,0.02-0.21,0.02
				c-0.43,0-0.81-0.29-0.91-0.73c-1.51-6.47-2.56-14.96-3.13-25.22c-0.03-0.5,0.35-0.94,0.85-0.99c3.34-0.31,7.16-0.94,11.38-1.88
				c0.26-4.18,0.58-9.51,0.96-15.99c0.03-0.46,0.38-0.83,0.84-0.88c8.62-0.9,17.32-1.36,25.86-1.36c1.61,0,3.22,0.02,4.83,0.05
				c0.26,0.01,0.51,0.12,0.68,0.32c0.17,0.2,0.26,0.46,0.23,0.72c-0.53,5.15-0.96,9.45-1.26,12.8c0.79-0.03,1.57-0.05,2.33-0.05
				c6.62,0,13.13,1.03,19.34,3.05c0.44,0.14,0.71,0.58,0.64,1.04c-1.33,8.57-2.54,17.56-3.6,26.73c-0.03,0.26-0.16,0.49-0.37,0.64
				c-0.16,0.12-0.36,0.19-0.56,0.19c-0.05,0-0.1,0-0.16-0.01c-4.51-0.76-9.63-1.14-15.23-1.14c-1.56,0-3.14,0.04-4.73,0.11
				c-0.7,5.71-1.1,10.89-1.2,15.41c0,0.06-0.01,0.11-0.02,0.17c-0.02,0.1-0.03,0.19-0.03,0.27c0,4.69,1.98,5.23,3.47,5.23
				c0.23,0,0.46-0.01,0.69-0.04c0.04,0,0.08-0.01,0.12-0.01c1.16,0,2.54-0.18,4.1-0.53c5.38-1.19,11.26-2.98,17.47-5.33
				c0.11-0.04,0.22-0.06,0.33-0.06c0.19,0,0.37,0.06,0.53,0.17c0.25,0.17,0.4,0.46,0.4,0.77v25.16c0,0.31-0.15,0.6-0.4,0.77
				c-8.14,5.63-17.95,8.63-29.18,8.94C594.02,299.79,594.01,299.79,594.01,299.79z"/>
			<path class="st3" d="M595.61,205.36c1.6,0,3.21,0.02,4.81,0.05c-0.6,5.78-1.05,10.41-1.35,13.89c1.14-0.07,2.26-0.1,3.36-0.1
				c6.55,0,12.9,1,19.05,3.01c-1.34,8.62-2.54,17.54-3.61,26.77c-4.58-0.77-9.71-1.15-15.39-1.15c-1.84,0-3.69,0.05-5.56,0.15
				c-0.77,6.08-1.2,11.51-1.3,16.29c-0.03,0.17-0.05,0.32-0.05,0.45c0,4.11,1.47,6.17,4.41,6.17c0.27,0,0.53-0.02,0.8-0.05
				c1.24,0,2.67-0.18,4.31-0.55c5.45-1.2,11.31-2.99,17.59-5.36v25.16c-8.02,5.55-17.58,8.47-28.67,8.77
				c-12.57,0-21.14-6.43-25.72-19.3c-0.8-4.71-1.2-8.42-1.2-11.13v-1.15c0-3.31,0.3-9.32,0.9-18.05c-2.44,0.17-5.18,0.6-8.22,1.3
				c-1.5-6.45-2.54-14.8-3.11-25.06c3.58-0.33,7.64-1.02,12.18-2.05c0.27-4.28,0.6-9.84,1-16.69
				C578.47,205.81,587.05,205.36,595.61,205.36 M595.61,203.48c-8.58,0-17.31,0.46-25.96,1.36c-0.91,0.1-1.62,0.84-1.68,1.76
				c-0.36,6.12-0.66,11.21-0.91,15.28c-3.9,0.85-7.45,1.42-10.57,1.71c-1,0.09-1.75,0.96-1.7,1.97c0.57,10.32,1.63,18.86,3.15,25.39
				c0.2,0.87,0.97,1.45,1.83,1.45c0.14,0,0.28-0.02,0.42-0.05c2.07-0.48,4-0.83,5.78-1.05c-0.5,7.55-0.76,12.91-0.76,15.96v1.15
				c0,2.8,0.41,6.65,1.23,11.44c0.02,0.11,0.05,0.21,0.08,0.31c4.85,13.63,14.1,20.55,27.48,20.55c0.02,0,0.03,0,0.05,0
				c11.41-0.31,21.4-3.37,29.69-9.1c0.51-0.35,0.81-0.93,0.81-1.54v-25.16c0-0.62-0.3-1.19-0.81-1.54
				c-0.32-0.22-0.69-0.33-1.07-0.33c-0.22,0-0.45,0.04-0.66,0.12c-6.17,2.33-12,4.11-17.34,5.29c-1.5,0.34-2.81,0.51-3.91,0.51
				c-0.08,0-0.16,0-0.24,0.01c-0.19,0.02-0.38,0.04-0.57,0.04c-0.89,0-2.53,0-2.53-4.29c0-0.02,0.01-0.05,0.01-0.08
				c0.02-0.11,0.03-0.22,0.04-0.33c0.09-4.28,0.46-9.16,1.1-14.53c1.31-0.05,2.61-0.08,3.9-0.08c5.55,0,10.62,0.38,15.08,1.13
				c0.1,0.02,0.21,0.03,0.31,0.03c0.4,0,0.8-0.13,1.13-0.38c0.41-0.31,0.68-0.77,0.74-1.28c1.06-9.16,2.27-18.14,3.6-26.7
				c0.14-0.91-0.4-1.79-1.27-2.07c-6.31-2.06-12.91-3.1-19.63-3.1c-0.43,0-0.86,0.01-1.3,0.01c0.29-3.18,0.68-7.11,1.16-11.73
				c0.05-0.52-0.11-1.04-0.46-1.44c-0.35-0.39-0.84-0.62-1.37-0.63C598.82,203.5,597.19,203.48,595.61,203.48L595.61,203.48z"/>
		</g>
	</g>
	<g>
		<g>
			<path class="st2" d="M399.01,208.97c-0.03-0.31-0.06-0.62-0.09-0.93c-0.79,1.14-1.94,2.04-3.28,2.42
				c-1.71,0.49-3.35,0.1-4.89-0.68c-0.39-0.2-0.71-0.46-1-0.75c-2.35-0.2-4.71-0.45-6.96-1.08c-3.71-1.03-6.36-3.29-9.31-5.63
				c-0.84-0.66-1.66-1.33-2.46-2.03c0,0-0.01,0-0.01,0c-0.88-0.24-1.75-0.48-2.62-0.74c-1.07,1.24-2.58,2.15-4.42,2.58
				c-3.66,0.86-8.8,1.12-12.24-0.62c-0.24-0.12-0.46-0.26-0.68-0.4c-0.93,1.3-2.4,2.12-4.03,2.03
				c-4.91,10.29-2.16,23.34,11.01,19.86c3.88,3.64,9.92,3.68,13.83,0.17c2.58,5.13,9.22,2.31,13.14,0.46
				c6.4-2.43,15.47-6.19,13.47-14.66H399.01z"/>
			<path class="st2" d="M494.64,205.16c-0.02,0.01-0.04,0.03-0.06,0.04c-2.11,1.23-5.25,0.56-6.42-1.68c0-0.01-0.01-0.02-0.01-0.03
				c-0.15-0.05-0.31-0.1-0.47-0.16c-4.42-1.79-8.96-3.24-13.42-4.89c-7.05,0.86-14.21-1.33-20.53-4.37c-1.04-0.5-1.71-1.21-2.07-2
				c-0.3-0.33-0.57-0.68-0.75-1.08c-6.04,3.16-10.12,9.03-11.27,16.18c0.06,0.49,0.09,0.97,0.04,1.49c0,0,0,0.01,0,0.01
				c0,0.02,0,0.03,0,0.05c0.01,0.08,0.01,0.17,0.02,0.25h0.56c-1.68,8.66,8.93,11.16,15.03,13.77c3.93,1.63,9.36,4.76,12.16-0.28
				c3.88,3.57,10.44,0.11,13.71-2.94C491.47,225.61,496.49,215.02,494.64,205.16z"/>
			<path class="st0" d="M398.41,204.35c-0.27-0.39-0.49-0.84-0.66-1.36c-0.08-0.25-0.15-0.5-0.23-0.75
				c-1.21-3.24-5.39-6.43-8.07-8.11c-3.46-2.17-7.48-3.64-11.17-5.43c0,0.37-0.04,0.74-0.12,1.1c7.29,4.4,17.78,8.88,20.54,19.17
				c0.05,0.06,0.16,0.11,0.32,0.15C398.84,207.49,398.83,205.9,398.41,204.35z"/>
			<path class="st0" d="M439.64,207.17c0.06,0.49,0.09,0.97,0.04,1.49c0,0,0,0.01,0,0.01c0,0.02,0,0.03,0,0.05
				c0.02,0.31,0.05,0.63,0.06,0.94c0,0,0,0.01,0,0.01c0.02,0.1,0.04,0.2,0.07,0.29c0.02,0.09,0.02,0.17,0.04,0.25
				c0.4,0.26,0.68,0.56,0.83,0.89c3.37-19.02,9.47-18.48,15.63-22.08C447.31,191.01,441.11,198.06,439.64,207.17z"/>
		</g>
		<g>
			<g>
				<path class="st3" d="M375.07,187.02c-3.37-0.51-6.67-1.45-10.03-1.94c0.11,0.1,0.24,0.19,0.42,0.24
					c1.14,0.35,2.36,0.45,3.51,0.82c1.15,0.37,2.25,0.86,3.29,1.48c2.05,1.22,3.95,2.85,5.38,4.77c0.55,0.74,1.74,0.11,1.27-0.74
					C377.91,189.86,376.62,188.3,375.07,187.02z"/>
			</g>
			<g>
				<path class="st3" d="M368.75,192.66c-1.93-0.56-3.74-0.91-5.76-0.83c-1.95,0.07-3.93,0.46-5.78,1.1
					c-3.68,1.27-6.95,3.56-9.38,6.6c-4.57,5.71-6.63,15.14-1.93,21.41c2.51,3.34,7.06,5.09,10.96,3.17
					c1.05-0.52,0.32-2.22-0.79-1.88c-2.88,0.89-6.09-0.28-7.96-2.61c-2.1-2.62-2.58-6.2-2.23-9.45c0.7-6.57,4.97-12.5,11.08-15.06
					c3.49-1.47,7.73-1.96,11.47-1.32C369.16,193.89,369.48,192.87,368.75,192.66L368.75,192.66z"/>
			</g>
			<g>
				<path class="st3" d="M359.65,212.06c-0.61,0.44-1.18,0.85-1.65,1.44c-0.51,0.64-0.88,1.3-1.16,2.07
					c-0.54,1.49-0.61,3.1-0.29,4.65c0.65,3.18,3.3,5.62,6.43,6.33c1.81,0.41,3.68,0.32,5.34-0.54c1.15-0.6,0.35-2.44-0.88-2.08
					c-2.82,0.8-6.1,0.15-7.77-2.46c-0.82-1.29-1.06-2.77-0.92-4.28c0.13-1.39,0.72-3.1,1.64-4.16
					C360.82,212.53,360.25,211.63,359.65,212.06L359.65,212.06z"/>
			</g>
			<g>
				<path class="st3" d="M372.4,214.87c-0.93,0.9-1.71,1.81-2.16,3.04c-0.45,1.23-0.44,2.62-0.16,3.89
					c0.59,2.65,2.68,4.65,5.24,5.41c1.26,0.38,2.57,0.48,3.86,0.2c1.49-0.31,2.77-1.18,4.08-1.92c2.87-1.61,6.21-1.9,9.21-3.15
					c2.79-1.16,5.25-3.73,5.36-6.85c0.03-0.93-1.49-0.93-1.45,0c0.17,3.71-3.78,5.04-6.74,5.62c-1.58,0.31-3.18,0.46-4.74,0.87
					c-1.62,0.42-2.98,1.26-4.43,2.06c-2.33,1.29-5.06,1.21-6.96-0.83c-1.69-1.81-1.83-5.51-0.2-7.42
					C373.85,215.16,373.01,214.28,372.4,214.87L372.4,214.87z"/>
			</g>
			<g>
				<path class="st3" d="M398.92,207.95c-0.15-1.19-0.41-2.37-0.82-3.51c-0.86-2.43-2.16-4.64-3.84-6.58
					c-0.1-0.11-0.2-0.23-0.31-0.34c-1.51-1.38-3.19-2.57-4.5-3.39c-1.43-0.89-2.95-1.67-4.5-2.39c-1.11-0.33-2.24-0.56-3.38-0.64
					c-1.27-0.1-1.5,1.88-0.3,2.19c4.27,1.11,8.12,2.87,11.09,6.24c1.47,1.66,2.62,3.65,3.42,5.72c0.39,1.02,0.71,2.06,0.98,3.12
					c0.29,1.15,0.69,2.43,0.72,3.61c0.02,0.87,1.31,0.87,1.35,0c0.05-1.25,0.23-2.42,0.12-3.67
					C398.94,208.19,398.93,208.07,398.92,207.95z"/>
			</g>
			<g>
				<path class="st3" d="M354.83,185.08c0.08,1.55,0.38,3.07,1.02,4.44c0.44,0.92,2.1,0.5,1.98-0.54c-0.16-1.36-0.38-2.68-0.47-4.03
					C356.54,185.01,355.69,185.05,354.83,185.08z"/>
			</g>
			<g>
				<path class="st3" d="M466.94,189.6c1.12-0.41,2.29-0.66,3.47-0.86c0.55-0.09,1.11-0.14,1.66-0.18c0.63-0.05,1.27,0,1.88-0.16
					c0.81-0.22,0.75-1.34,0-1.58c-0.64-0.21-1.35-0.14-2.01-0.09c-0.65,0.05-1.31,0.15-1.95,0.28c-1.26,0.25-2.45,0.73-3.62,1.27
					C465.64,188.61,466.16,189.88,466.94,189.6L466.94,189.6z"/>
			</g>
			<g>
				<path class="st3" d="M470.27,191.86c3.28-0.56,6.98-0.23,10.12,0.81c3.23,1.07,6.12,3.02,8.27,5.66
					c3.9,4.78,5.99,12.6,2.69,18.23c-1.75,2.99-5.31,4.78-8.72,3.73c-1.1-0.34-1.85,1.36-0.79,1.88c3.38,1.66,7.38,0.58,9.98-2.02
					c2.8-2.79,3.79-7.02,3.57-10.87c-0.43-7.7-5.39-14.74-12.49-17.74c-1.99-0.85-4.09-1.37-6.25-1.58
					c-2.34-0.23-4.47,0.12-6.7,0.77C469.24,190.96,469.55,191.98,470.27,191.86L470.27,191.86z"/>
			</g>
			<g>
				<path class="st3" d="M478.32,211.11c0.92,1.07,1.51,2.78,1.64,4.16c0.14,1.51-0.1,2.99-0.92,4.28
					c-1.67,2.61-4.95,3.26-7.77,2.46c-1.22-0.35-2.04,1.48-0.88,2.08c2.9,1.5,6.54,0.72,9.01-1.28c2.52-2.03,3.49-5.51,2.64-8.6
					c-0.23-0.83-0.58-1.62-1.09-2.31c-0.54-0.73-1.16-1.24-1.89-1.76C478.47,209.72,477.89,210.62,478.32,211.11L478.32,211.11z"/>
			</g>
			<g>
				<path class="st3" d="M465.4,213.88c1.63,1.91,1.49,5.61-0.2,7.42c-1.89,2.04-4.62,2.12-6.96,0.83c-1.45-0.8-2.81-1.64-4.43-2.06
					c-1.56-0.4-3.16-0.56-4.74-0.87c-2.96-0.58-6.91-1.91-6.74-5.62c0.04-0.93-1.48-0.93-1.45,0c0.1,2.84,1.97,4.8,4.24,6.26
					c2.69,1.73,6.21,1.89,9.12,3.14c1.44,0.62,2.71,1.58,4.17,2.17c1.27,0.51,2.59,0.62,3.94,0.39c2.62-0.44,4.96-2.11,5.95-4.61
					c0.53-1.34,0.67-2.86,0.37-4.27c-0.32-1.51-1.27-2.65-2.35-3.7C465.71,212.37,464.86,213.25,465.4,213.88L465.4,213.88z"/>
			</g>
			<g>
				<path class="st3" d="M457.14,189.19c-1.75,0.13-3.49,0.58-5.14,1.27c-0.15,0.07-0.31,0.13-0.47,0.2
					c-0.05,0.02-0.11,0.05-0.16,0.07c-6.14,3.01-10.32,8.8-11.62,15.88c-0.07,1.17,0.08,2.27,0.13,3.45c0.04,0.86,1.33,0.87,1.35,0
					c0.03-1.14,0.41-2.35,0.68-3.45c0.27-1.11,0.6-2.21,1.01-3.28c0.79-2.07,1.95-4.06,3.42-5.72c2.97-3.37,6.82-5.13,11.09-6.24
					C458.63,191.07,458.42,189.09,457.14,189.19z"/>
			</g>
			<g>
				<path class="st3" d="M486.46,190.54c-0.09,0.69-0.2,1.37-0.35,2.04c-0.29,1.3,1.6,1.83,2,0.55c0.02-0.07,0.04-0.14,0.06-0.21
					C487.63,192.05,487.06,191.25,486.46,190.54z"/>
			</g>
		</g>
	</g>
	<g>
		<g>
			<path class="st0" d="M262.78,206.92c-1.2-2.22-2.02-4.43-2.28-6.94c-0.01-0.11-0.01-0.21-0.01-0.31
				c-1.15-1.48-2.18-3.03-3.22-4.59c-0.23-0.34-0.38-0.7-0.49-1.07c-0.08-0.07-0.16-0.14-0.22-0.19c-0.17-0.12-0.47-0.35-0.52-0.38
				c-0.31-0.21-0.63-0.41-0.95-0.59c-0.26-0.14-1.28-0.54-0.05-0.07c-0.69-0.26-1.28-0.63-1.79-1.07c-0.26-0.02-0.52-0.05-0.79-0.11
				c-4.21-0.89-8.61-0.43-12.92-0.19c2.91,5.96,6.77,11.88,8.36,17.43c0.26,0.14,6.49,0.2,15.19,0.21c0.04-0.51,0.08-1.02,0.13-1.53
				C263.05,207.34,262.9,207.14,262.78,206.92z"/>
			<path class="st0" d="M319.99,189.95c-3.33-1.02-6.71-1.87-10.1-2.67c-4.41-1.05-7.44,0.12-11.36,1.67
				c-0.15,0.8-0.54,1.56-0.89,2.29c-0.53,1.09-1.69,1.8-2.8,2.16c-0.56,0.18-1.13,0.21-1.7,0.14c-1.61,2.31-2.95,4.78-3.48,7.88
				c-0.43,2.5,0.24,4.19,0.82,6.51c0.08,0.31,0.3,0.53,0.36,0.82c15.43-0.04,28.78,0.18,29.5,0.26
				C321.19,203.35,321.1,196.68,319.99,189.95z"/>
			<path class="st4" d="M262.7,203.09c-1.81-6.9-8.83-10.04-14.68-13.87c-2.88,0.94-6.11,0.76-9.12,0.37
				c-2.97,1.09-6.07,1.28-9.05,2.37c-1.84,0.67-3.88-0.27-5.02-1.79c-1.66,2.53-3.12,5.17-4.12,8.08
				c-8.33,14.63,6.19,28.35,18.25,18.18c0.5,0.18,1.02,0.33,1.54,0.44c3.88,2.14,9.31,1.75,11.9-1.44
				C258.5,218.83,265,209.23,262.7,203.09z"/>
			<path class="st4" d="M330.58,193.14c-1.29,0.99-3.06,1.27-4.88,0.13c-2.21-1.39-4.39-2.83-6.61-4.21
				c-1.99-1.24-3.67-1.31-5.98-1.31c-1.48,0-2.59-0.57-3.35-1.42c-2.7,1.09-6.48,1.99-11.39,3.2c-10.48,3.94-10.92,28.33,2.59,23.09
				c2.22,5.17,10.25,4.59,13.17-0.25c4.29,8,16.34,5.18,18.6-3.06C334.54,203.25,333.21,198.04,330.58,193.14z"/>
		</g>
		<g>
			<g>
				<path class="st3" d="M228.42,187.52c-1.16,0.21-2.29,0.49-3.42,0.78c-3.41,4.6-6.71,9.51-7.68,15.27
					c-0.53,3.12-0.48,6.71,1.15,9.52c0.56,0.96,1.98,0.31,1.75-0.74c-0.39-1.76-0.75-3.46-0.72-5.28c0.03-1.8,0.33-3.59,0.84-5.31
					c1.05-3.57,3.03-6.78,5.16-9.81c1.04-1.49,2.14-2.95,3.22-4.41C228.61,187.53,228.52,187.53,228.42,187.52z"/>
			</g>
			<g>
				<path class="st3" d="M221.34,215.93c0.44,0.65,0.89,1.3,1.43,1.87c0.56,0.58,1.25,1.04,1.97,1.38c1.46,0.69,3.13,1.11,4.75,0.93
					c0.52-0.05,0.96-0.4,0.96-0.96c0-0.5-0.44-0.99-0.96-0.96c-1.37,0.08-2.62-0.05-3.89-0.6c-1.23-0.53-2.57-1.27-3.42-2.32
					C221.8,214.81,221,215.43,221.34,215.93L221.34,215.93z"/>
			</g>
			<g>
				<path class="st3" d="M258.01,193.96c-0.07-0.08-0.15-0.15-0.22-0.23c-0.03-0.03-0.07-0.06-0.1-0.09l-0.74-0.77
					c-1.94-1.85-4.31-3.17-7.11-3.75c-5.19-1.07-10.52,0.27-15.45,1.87c-4.87,1.58-9.91,4.26-10.83,9.76
					c-0.14,0.81,1.01,1.16,1.25,0.35c1.19-3.94,5.21-6.31,8.85-7.58c4.15-1.45,8.67-2.67,13.1-2.42c4.01,0.23,7.68,1.93,10.03,5.26
					c2.3,3.27,3.94,7.48,3.86,11.51c-0.08,4.12-3.42,8.73-7.99,7.23c-1.14-0.37-1.63,1.42-0.5,1.8c4.33,1.46,8.66-1.5,10.19-5.5
					c1.68-4.4,0.36-9.26-1.66-13.35C259.88,196.66,258.83,195.35,258.01,193.96z"/>
			</g>
			<g>
				<path class="st3" d="M248.71,209.06c0.94,1.54,2.02,3.63,1.51,5.49c-0.42,1.53-2.3,2.08-3.64,2.47c-1.62,0.47-3.6,1.05-5.15,0.1
					c-0.54-0.33-0.98-0.89-1.22-1.5c-0.27-0.69-0.19-1.38-0.18-2.11c0.02-1.06-1.46-1.45-1.99-0.54c-0.87,1.51-0.41,3.66,0.57,5.01
					c1.21,1.68,3.11,2.43,5.16,2.32c1.91-0.1,3.91-0.66,5.65-1.46c1.83-0.85,3.03-2.42,3.15-4.46c0.07-1.13-0.25-2.23-0.77-3.22
					c-0.56-1.07-1.37-1.91-2.11-2.85C249.25,207.75,248.35,208.47,248.71,209.06L248.71,209.06z"/>
			</g>
			<g>
				<path class="st3" d="M238.49,213.58c-0.22,0.8-0.7,1.62-1.14,2.31c-0.42,0.65-0.9,1.28-1.51,1.77
					c-1.18,0.97-2.63,1.39-4.11,1.21c-1.28-0.16-2.56-0.97-3.24-2.15c-0.72-1.25-0.69-2.68-0.14-4.05c0.2-0.52-0.18-1.14-0.65-1.33
					c-0.55-0.22-1.07-0.01-1.41,0.46c-2.04,2.85-0.63,7.18,2.21,8.9c3.07,1.86,7.27,1.19,9.57-1.56c0.64-0.77,1.13-1.58,1.45-2.52
					c0.33-0.96,0.31-1.87,0.24-2.86C239.71,213.05,238.69,212.85,238.49,213.58L238.49,213.58z"/>
			</g>
			<g>
				<path class="st3" d="M332.92,193.67c-1.32-2.62-2.97-5.02-4.71-7.37c-0.3,0.07-0.6,0.13-0.93,0.14
					c-0.72,0.04-1.44,0.01-2.15-0.05c0.71,0.95,1.41,1.91,2.09,2.89c2.12,3.03,4.1,6.24,5.16,9.81c0.51,1.73,0.81,3.51,0.84,5.31
					c0.03,1.81-0.33,3.52-0.72,5.28c-0.23,1.03,1.19,1.71,1.75,0.74C337.17,205.35,335.36,198.53,332.92,193.67z"/>
			</g>
			<g>
				<path class="st3" d="M330.52,212.6c-0.85,1.05-2.19,1.79-3.42,2.32c-1.27,0.54-2.53,0.68-3.89,0.6
					c-0.52-0.03-0.96,0.46-0.96,0.96c0,0.57,0.44,0.91,0.96,0.96c1.62,0.17,3.29-0.24,4.75-0.93c0.7-0.34,1.38-0.78,1.93-1.34
					c0.57-0.57,1.03-1.24,1.47-1.91C331.7,212.75,330.91,212.12,330.52,212.6L330.52,212.6z"/>
			</g>
			<g>
				<path class="st3" d="M319.95,188.88c-4.75-1.78-10.2-3.31-15.31-2.71c-2.19,0.26-4.38,0.85-6.3,1.95
					c-0.66,0.47-1.31,0.96-1.97,1.43c-0.25,0.22-0.51,0.44-0.75,0.68c-1.21,1.56-2.4,3.09-3.42,4.74c-1.98,3.72-3.2,8.16-2.29,12.26
					c1.04,4.68,5.68,8.67,10.64,7c1.13-0.38,0.65-2.17-0.5-1.8c-4,1.31-7.2-2.16-7.86-5.83c-0.72-3.97,0.96-8.36,2.97-11.72
					c2.08-3.49,5.28-5.71,9.31-6.3c4.43-0.66,8.91,0.5,13.11,1.8c4.13,1.27,8.96,3.55,10.32,8.06c0.25,0.81,1.39,0.47,1.25-0.35
					C328.33,193.24,324.27,190.5,319.95,188.88z"/>
			</g>
			<g>
				<path class="st3" d="M303.01,205.63c-0.63,0.79-1.32,1.51-1.85,2.38c-0.54,0.9-0.9,1.86-1.01,2.91
					c-0.21,2.01,0.77,3.88,2.49,4.91c1.56,0.93,3.52,1.44,5.31,1.69c2.01,0.28,4.18,0,5.62-1.57c1.31-1.42,2.12-3.87,1.09-5.66
					c-0.52-0.91-2-0.52-1.99,0.54c0.01,0.73,0.09,1.42-0.18,2.11c-0.24,0.62-0.68,1.17-1.22,1.5c-1.55,0.96-3.54,0.38-5.15-0.1
					c-1.34-0.39-3.22-0.94-3.64-2.47c-0.51-1.86,0.57-3.94,1.51-5.49C304.35,205.8,303.46,205.06,303.01,205.63L303.01,205.63z"/>
			</g>
			<g>
				<path class="st3" d="M312.94,211.08c-0.12,1.75,0.16,3.33,1.22,4.78c1.07,1.45,2.5,2.58,4.28,3c1.77,0.42,3.59,0.22,5.23-0.55
					c1.62-0.76,2.71-2.15,3.31-3.81c0.62-1.71,0.5-3.87-0.57-5.38c-0.33-0.46-0.86-0.7-1.41-0.46c-0.47,0.21-0.86,0.8-0.65,1.33
					c0.54,1.37,0.57,2.81-0.14,4.05c-0.68,1.18-1.96,1.99-3.24,2.15c-1.48,0.19-2.93-0.24-4.11-1.21c-0.6-0.49-1.09-1.12-1.51-1.77
					c-0.44-0.69-0.92-1.51-1.14-2.31C314.02,210.17,312.99,210.37,312.94,211.08L312.94,211.08z"/>
			</g>
		</g>
	</g>
	<g>
		<g>
			<path class="st0" d="M546.79,203.33c-2.67-0.85-4.8-2.35-6.57-4.3c-0.79-0.35-1.6-0.65-2.4-0.95c-4.07,0.14-8.13-0.63-10.5-3.47
				c-4.82-0.49-9.61-1.66-14.36-2.82c-0.13-0.03-0.26-0.06-0.38-0.09c-0.67-0.16-1.34-0.32-2.01-0.48
				c-15.96,9.56,1.69,34.99,17.99,21.09c3.1,2.87,8.48,2.1,11.05-1.09c0.49,4.25,7.09-0.53,7.68-2.89c0.57,0,1.14,0.01,1.71,0.01
				c0.18-1.61,0.43-3.15,0.02-4.83C548.35,203.63,547.6,203.59,546.79,203.33z"/>
			<path class="st0" d="M618.4,197.31c-3.32-0.41-6.71-0.51-10.13-0.51c-0.03,0-0.05,0.01-0.08,0.02
				c-3.71,0.49-7.42,0.52-11.12,0.34c-2.21,0.5-4.43,0.92-6.64,1.41c-4.99,1.11-10.02,2.37-15.13,2.28
				c-0.06,1.44-0.14,2.89-0.21,4.34c0.15,0.86,0.28,1.73,0.33,2.62c0.18,0.23,0.35,0.46,0.48,0.72c0.28,0,0.57,0,0.85,0.01
				c4.65,4.89,13.49,5.66,19.15,1.74c2.65,4.43,8.6,6.17,13.26,4.09c7.6,2.71,12.69-6.6,11.57-13.15
				C619.79,199.88,619.03,198.59,618.4,197.31z"/>
		</g>
		<g>
			<g>
				<path class="st3" d="M518.42,167.94c-2.81-1.08-5.44-2.53-7.81-4.31h-3.81c3.16,2.91,6.94,5.24,11.02,6.45
					C519.23,170.49,519.73,168.44,518.42,167.94z"/>
			</g>
			<g>
				<path class="st3" d="M538.53,214.49c3.18,0.66,6.85,0.28,9.03-2.4c2.15-2.67,2.32-6.27,1.24-9.42
					c-2.17-6.29-7.63-11.45-13.65-14.07c-6.55-2.85-14.13-2.88-20.71-0.08c-6.12,2.6-11.28,7.81-12.08,14.63
					c-0.43,3.7,0.62,7.54,3.18,10.29c2.36,2.53,5.89,4.04,9.37,3.61c1.46-0.18,1.48-2.5,0-2.32c-5.76,0.71-10.25-4.3-10.31-9.82
					c-0.06-5.94,3.99-10.76,9.02-13.44c5.47-2.92,12.11-3.47,18.02-1.65c5.29,1.63,9.93,5.23,12.92,9.89
					c1.75,2.73,3.24,6.23,1.98,9.46c-1.33,3.4-4.95,3.43-8,4.12C537.94,213.42,537.93,214.36,538.53,214.49L538.53,214.49z"/>
			</g>
			<g>
				<path class="st3" d="M512.07,210.4c0.28,1.92,0.94,3.6,2.4,4.94c1.45,1.33,3.26,2.16,5.22,2.33c3.85,0.32,7.88-2.23,9.18-5.87
					c0.47-1.31-1.69-2.24-2.26-0.95c-1.23,2.72-3.71,4.66-6.81,4.47c-1.39-0.09-2.8-0.7-3.88-1.58c-1.13-0.92-2.31-2.22-2.75-3.64
					C512.96,209.37,511.97,209.69,512.07,210.4L512.07,210.4z"/>
			</g>
			<g>
				<path class="st3" d="M527.36,212.28c0.3,0.41,0.45,0.85,0.79,1.24c0.28,0.32,0.61,0.6,0.94,0.87c0.74,0.6,1.53,1.03,2.42,1.37
					c1.76,0.68,3.75,0.78,5.57,0.26c1.82-0.52,3.39-1.61,4.47-3.17c0.97-1.41,1.77-3.78,1.11-5.47c-0.47-1.2-2.25-1.08-2.31,0.31
					c-0.03,0.65,0.1,1.28-0.05,1.94c-0.15,0.69-0.41,1.31-0.79,1.91c-0.75,1.15-1.95,1.91-3.26,2.27c-1.34,0.36-2.74,0.29-4.05-0.13
					c-0.69-0.23-1.36-0.55-1.99-0.91c-0.31-0.17-0.61-0.37-0.9-0.57c-0.32-0.21-0.76-0.36-1.05-0.61
					C527.8,211.18,526.95,211.72,527.36,212.28L527.36,212.28z"/>
			</g>
			<g>
				<path class="st3" d="M526.93,206.56c0.08,0.93,0.22,1.87,0.25,2.8c0.02,0.48,0,0.95-0.05,1.43c-0.05,0.47-0.2,0.94-0.2,1.41
					c-0.01,0.69,1.05,1.05,1.37,0.37c0.24-0.52,0.3-1.11,0.35-1.68c0.04-0.51,0.05-1.02,0.02-1.53c-0.07-1.09-0.29-2.1-0.86-3.04
					C527.57,205.96,526.89,206.08,526.93,206.56L526.93,206.56z"/>
			</g>
			<g>
				<path class="st3" d="M616.6,163.63c-1.53,1.97-3.3,3.76-5.28,5.29c-4.28,3.33-9.26,5.24-14.59,6.07
					c-1.23,0.19-0.95,2.28,0.29,2.18c8.97-0.69,17.4-6.17,22.49-13.54H616.6z"/>
			</g>
			<g>
				<path class="st3" d="M586.13,211.97c-2.69-0.61-5.97-0.59-7.56-3.24c-1.55-2.58-0.88-5.8,0.39-8.34
					c2.49-4.97,6.91-9.03,12.04-11.16c5.7-2.37,12.28-2.35,17.99-0.04c5.24,2.11,9.9,6.39,10.9,12.15c0.54,3.15-0.14,6.62-2.32,9.02
					c-2,2.2-4.84,3.41-7.82,3.05c-1.48-0.18-1.46,2.14,0,2.32c3.07,0.38,6.11-0.75,8.44-2.73c2.51-2.13,3.89-5.21,4.17-8.45
					c0.59-6.95-4.02-13.03-9.87-16.26c-6.23-3.44-13.95-4.14-20.69-1.9c-6.2,2.06-11.66,6.49-14.74,12.27
					c-1.81,3.4-2.69,7.5-0.68,11.02c1.99,3.5,6.09,4.24,9.77,3.48C586.73,213.04,586.72,212.11,586.13,211.97L586.13,211.97z"/>
			</g>
			<g>
				<path class="st3" d="M611.48,208.78c-0.43,1.39-1.56,2.65-2.66,3.57c-1.09,0.91-2.53,1.56-3.96,1.65
					c-3.1,0.2-5.58-1.74-6.81-4.47c-0.57-1.27-2.73-0.37-2.26,0.95c1.29,3.63,5.33,6.2,9.18,5.87c1.97-0.17,3.77-0.99,5.22-2.33
					c1.47-1.34,2.12-3.02,2.4-4.94C612.7,208.37,611.7,208.05,611.48,208.78L611.48,208.78z"/>
			</g>
			<g>
				<path class="st3" d="M596.4,210.27c-0.26,0.23-0.66,0.36-0.96,0.55c-0.3,0.2-0.59,0.4-0.9,0.58c-0.63,0.36-1.3,0.69-1.98,0.93
					c-1.34,0.45-2.78,0.54-4.15,0.17c-1.27-0.34-2.46-1.08-3.21-2.18c-0.39-0.58-0.66-1.21-0.82-1.89
					c-0.16-0.69-0.04-1.34-0.07-2.04c-0.06-1.38-1.84-1.53-2.31-0.31c-0.65,1.66,0.12,3.98,1.05,5.38c1.07,1.6,2.68,2.73,4.52,3.25
					c1.79,0.5,3.73,0.42,5.47-0.22c0.92-0.34,1.76-0.79,2.52-1.41c0.33-0.27,0.66-0.55,0.94-0.87c0.34-0.39,0.5-0.84,0.79-1.24
					C597.71,210.41,596.87,209.86,596.4,210.27L596.4,210.27z"/>
			</g>
			<g>
				<path class="st3" d="M596.86,205.01c-0.58,0.93-0.8,1.95-0.86,3.04c-0.03,0.51-0.03,1.02,0.02,1.53
					c0.05,0.57,0.1,1.16,0.35,1.68c0.32,0.68,1.38,0.32,1.37-0.37c0-0.47-0.15-0.94-0.2-1.41c-0.05-0.47-0.07-0.95-0.05-1.43
					c0.03-0.93,0.17-1.87,0.25-2.8C597.77,204.76,597.09,204.64,596.86,205.01L596.86,205.01z"/>
			</g>
			<g>
				<path class="st3" d="M610.74,172.69c0,0.8-0.19,1.58-0.17,2.38c0.01,0.79,0.04,1.58,0.13,2.37c0.15,1.45,0.34,2.91,0.64,4.34
					c0.3,1.45,0.67,2.9,1.09,4.32c0.41,1.37,0.77,3.15,1.69,4.27c0.48,0.59,1.51,0.1,1.49-0.62c-0.05-1.38-0.83-2.86-1.23-4.19
					c-0.41-1.37-0.77-2.76-1.07-4.16c-0.3-1.4-0.6-2.8-0.83-4.21c-0.12-0.73-0.25-1.45-0.37-2.18c-0.13-0.77-0.41-1.56-0.49-2.34
					C611.54,172.15,610.74,172.12,610.74,172.69L610.74,172.69z"/>
			</g>
			<g>
				<path class="st3" d="M627.43,163.63c-3.23,4.91-6.78,9.61-10.65,14.02c-1.43,1.63-2.9,3.23-4.41,4.78
					c-0.8,0.83,0.47,2.1,1.27,1.27c5.91-6.18,11.19-12.91,15.83-20.07H627.43z"/>
			</g>
			<g>
				<path class="st3" d="M556.64,163.63c0.08,0.06,0.15,0.12,0.23,0.17c0.58,0.41,1.2,0.7,1.86,0.96c0.52,0.21,1.2-0.23,1.32-0.75
					c0.03-0.14,0.03-0.26,0.02-0.38H556.64z"/>
			</g>
			<g>
				<path class="st3" d="M518.08,169.86c-1.93,1.3-3.29,3.13-4.39,5.16c-0.54,0.99-0.98,2.05-1.35,3.11
					c-0.37,1.07-0.83,2.34-0.78,3.49c0.05,1.12,1.48,1.23,1.87,0.25c0.38-0.95,0.49-2.04,0.81-3.03c0.33-1,0.74-1.97,1.21-2.91
					c0.94-1.88,2.22-3.58,3.4-5.31C519.16,170.16,518.54,169.55,518.08,169.86L518.08,169.86z"/>
			</g>
			<g>
				<path class="st3" d="M516.8,177.86c-0.54,0.63-1.09,1.23-1.51,1.95c-0.43,0.75-0.75,1.59-0.98,2.42
					c-0.47,1.67-0.55,3.49-0.17,5.19c0.12,0.55,0.76,0.88,1.29,0.73c0.6-0.17,0.81-0.73,0.73-1.29c-0.2-1.39-0.2-2.8,0.07-4.18
					c0.14-0.71,0.36-1.39,0.59-2.07c0.25-0.7,0.5-1.42,0.9-2.04C518.08,178.02,517.24,177.34,516.8,177.86L516.8,177.86z"/>
			</g>
		</g>
	</g>
</g>
</svg>
