<?xml version="1.0" encoding="utf-8"?>
<!-- Generator: Adobe Illustrator 26.3.0, SVG Export Plug-In . SVG Version: 6.00 Build 0)  -->
<svg version="1.1" id="Layer_1" xmlns="http://www.w3.org/2000/svg" xmlns:xlink="http://www.w3.org/1999/xlink" x="0px" y="0px"
	 viewBox="0 0 100 100" style="enable-background:new 0 0 100 100;" xml:space="preserve">
<style type="text/css">
	.st0{fill:#FEF1DD;}
</style>
<g>
	<path class="st0" d="M50.14,46.55c4.98-0.28,9.76,0.58,13.29,4.27c3.69,3.86,5.05,9.45,8.56,13.47c2.69,3.07,6.52,5.08,8.81,8.46
		c3.53,5.2,2.33,12.76-2,17.32c-4.33,4.56-11.13,6.25-17.34,5.3c-4.15-0.63-8.18-2.34-12.38-2.19c-4.46,0.15-8.63,2.38-13.08,2.7
		c-4.78,0.35-9.68-1.67-12.83-5.28c-3.15-3.61-4.48-8.74-3.48-13.43c1.05-4.93,4.41-9.03,8.05-12.51
		c3.64-3.48,7.69-6.59,10.75-10.59c1.52-1.99,2.81-4.21,4.7-5.87C45.09,46.55,47.73,46.44,50.14,46.55z"/>
	<path class="st0" d="M94.1,36.18c1.7,2.16,2.47,4.95,2.54,7.7c0.07,2.75-0.53,5.47-1.35,8.1c-1.16,3.74-2.86,7.46-5.8,10.04
		c-2.94,2.59-7.35,3.79-10.89,2.1c-3.56-1.7-5.39-5.93-5.2-9.87c0.18-3.94,2.04-7.61,4.22-10.89c1.68-2.53,3.64-4.96,6.21-6.59
		C86.39,35.16,89.43,33.21,94.1,36.18"/>
	<path class="st0" d="M60.66,8c4.93-1.75,9.75,1.41,12.01,4.8c2.26,3.4,3.01,7.58,3.13,11.66c0.09,3.09-0.17,6.22-1.08,9.17
		c-0.91,2.96-2.5,5.74-4.81,7.8c-1.53,1.36-3.43,2.41-5.48,2.46c-3.25,0.08-6.04-2.34-7.95-4.98c-3.73-5.16-5.4-11.76-4.59-18.07
		c0.35-2.7,1.15-5.38,2.61-7.69C55.96,10.85,58.1,8.94,60.66,8z"/>
	<path class="st0" d="M5.58,36.18c-1.7,2.16-2.47,4.95-2.54,7.7c-0.07,2.75,0.53,5.47,1.35,8.1c1.16,3.74,2.86,7.46,5.8,10.04
		c2.94,2.59,7.35,3.79,10.89,2.1c3.56-1.7,5.39-5.93,5.2-9.87c-0.18-3.94-2.04-7.61-4.22-10.89c-1.68-2.53-3.64-4.96-6.21-6.59
		C13.28,35.16,10.24,33.21,5.58,36.18"/>
	<path class="st0" d="M39.01,8c-4.93-1.75-9.75,1.41-12.01,4.8c-2.26,3.4-3.01,7.58-3.13,11.66c-0.09,3.09,0.17,6.22,1.08,9.17
		s2.5,5.74,4.81,7.8c1.53,1.36,3.43,2.41,5.48,2.46c3.25,0.08,6.04-2.34,7.95-4.98c3.73-5.16,5.4-11.76,4.59-18.07
		c-0.35-2.7-1.15-5.38-2.61-7.69C43.71,10.85,41.57,8.94,39.01,8z"/>
</g>
</svg>
